<?xml version="1.0" encoding="UTF-8" standalone="no"?>
<!DOCTYPE svg PUBLIC "-//W3C//DTD SVG 1.1//EN"
 "http://www.w3.org/Graphics/SVG/1.1/DTD/svg11.dtd">
<!-- Generated by graphviz version 2.43.0 (0)
 -->
<!-- Title: sources/Common/Drawables/ADrawable.hpp Pages: 1 -->
<svg width="1465pt" height="374pt"
 viewBox="0.00 0.00 1464.50 374.00" xmlns="http://www.w3.org/2000/svg" xmlns:xlink="http://www.w3.org/1999/xlink">
<g id="graph0" class="graph" transform="scale(1 1) rotate(0) translate(4 370)">
<title>sources/Common/Drawables/ADrawable.hpp</title>
<polygon fill="white" stroke="transparent" points="-4,4 -4,-370 1460.5,-370 1460.5,4 -4,4"/>
<!-- Node1 -->
<g id="node1" class="node">
<title>Node1</title>
<g id="a_node1"><a xlink:title=" ">
<polygon fill="#bfbfbf" stroke="black" points="743,-335.5 743,-365.5 899,-365.5 899,-335.5 743,-335.5"/>
<text text-anchor="start" x="751" y="-353.5" font-family="Helvetica,sans-Serif" font-size="10.00">sources/Common/Drawables</text>
<text text-anchor="middle" x="821" y="-342.5" font-family="Helvetica,sans-Serif" font-size="10.00">/ADrawable.hpp</text>
</a>
</g>
</g>
<!-- Node2 -->
<g id="node2" class="node">
<title>Node2</title>
<g id="a_node2"><a xlink:href="Circle_8hpp.html" target="_top" xlink:title=" ">
<polygon fill="white" stroke="black" points="656,-268.5 656,-298.5 812,-298.5 812,-268.5 656,-268.5"/>
<text text-anchor="start" x="664" y="-286.5" font-family="Helvetica,sans-Serif" font-size="10.00">sources/Common/Drawables</text>
<text text-anchor="middle" x="734" y="-275.5" font-family="Helvetica,sans-Serif" font-size="10.00">/Circle.hpp</text>
</a>
</g>
</g>
<!-- Node1&#45;&gt;Node2 -->
<g id="edge1" class="edge">
<title>Node1&#45;&gt;Node2</title>
<path fill="none" stroke="midnightblue" d="M793.79,-329.17C780.48,-319.23 764.8,-307.51 752.84,-298.58"/>
<polygon fill="midnightblue" stroke="midnightblue" points="792.02,-332.21 802.12,-335.4 796.21,-326.61 792.02,-332.21"/>
</g>
<!-- Node20 -->
<g id="node20" class="node">
<title>Node20</title>
<g id="a_node20"><a xlink:href="Line_8hpp.html" target="_top" xlink:title=" ">
<polygon fill="white" stroke="black" points="482,-268.5 482,-298.5 638,-298.5 638,-268.5 482,-268.5"/>
<text text-anchor="start" x="490" y="-286.5" font-family="Helvetica,sans-Serif" font-size="10.00">sources/Common/Drawables</text>
<text text-anchor="middle" x="560" y="-275.5" font-family="Helvetica,sans-Serif" font-size="10.00">/Line.hpp</text>
</a>
</g>
</g>
<!-- Node1&#45;&gt;Node20 -->
<g id="edge22" class="edge">
<title>Node1&#45;&gt;Node20</title>
<path fill="none" stroke="midnightblue" d="M754.95,-333.05C712.28,-322.43 657.34,-308.74 616.66,-298.61"/>
<polygon fill="midnightblue" stroke="midnightblue" points="754.14,-336.46 764.69,-335.48 755.83,-329.66 754.14,-336.46"/>
</g>
<!-- Node22 -->
<g id="node22" class="node">
<title>Node22</title>
<g id="a_node22"><a xlink:href="Rectangle_8hpp.html" target="_top" xlink:title=" ">
<polygon fill="white" stroke="black" points="830,-268.5 830,-298.5 986,-298.5 986,-268.5 830,-268.5"/>
<text text-anchor="start" x="838" y="-286.5" font-family="Helvetica,sans-Serif" font-size="10.00">sources/Common/Drawables</text>
<text text-anchor="middle" x="908" y="-275.5" font-family="Helvetica,sans-Serif" font-size="10.00">/Rectangle.hpp</text>
</a>
</g>
</g>
<!-- Node1&#45;&gt;Node22 -->
<g id="edge30" class="edge">
<title>Node1&#45;&gt;Node22</title>
<path fill="none" stroke="midnightblue" d="M848.21,-329.17C861.52,-319.23 877.2,-307.51 889.16,-298.58"/>
<polygon fill="midnightblue" stroke="midnightblue" points="845.79,-326.61 839.88,-335.4 849.98,-332.21 845.79,-326.61"/>
</g>
<!-- Node23 -->
<g id="node23" class="node">
<title>Node23</title>
<g id="a_node23"><a xlink:href="Sprite_8hpp.html" target="_top" xlink:title=" ">
<polygon fill="white" stroke="black" points="1004,-268.5 1004,-298.5 1160,-298.5 1160,-268.5 1004,-268.5"/>
<text text-anchor="start" x="1012" y="-286.5" font-family="Helvetica,sans-Serif" font-size="10.00">sources/Common/Drawables</text>
<text text-anchor="middle" x="1082" y="-275.5" font-family="Helvetica,sans-Serif" font-size="10.00">/Sprite.hpp</text>
</a>
</g>
</g>
<!-- Node1&#45;&gt;Node23 -->
<g id="edge35" class="edge">
<title>Node1&#45;&gt;Node23</title>
<path fill="none" stroke="midnightblue" d="M887.05,-333.05C929.72,-322.43 984.66,-308.74 1025.34,-298.61"/>
<polygon fill="midnightblue" stroke="midnightblue" points="886.17,-329.66 877.31,-335.48 887.86,-336.46 886.17,-329.66"/>
</g>
<!-- Node24 -->
<g id="node24" class="node">
<title>Node24</title>
<g id="a_node24"><a xlink:href="Text_8hpp.html" target="_top" xlink:title=" ">
<polygon fill="white" stroke="black" points="1178,-268.5 1178,-298.5 1334,-298.5 1334,-268.5 1178,-268.5"/>
<text text-anchor="start" x="1186" y="-286.5" font-family="Helvetica,sans-Serif" font-size="10.00">sources/Common/Drawables</text>
<text text-anchor="middle" x="1256" y="-275.5" font-family="Helvetica,sans-Serif" font-size="10.00">/Text.hpp</text>
</a>
</g>
</g>
<!-- Node1&#45;&gt;Node24 -->
<g id="edge39" class="edge">
<title>Node1&#45;&gt;Node24</title>
<path fill="none" stroke="midnightblue" d="M909.32,-337.21C979.71,-327.28 1080.75,-312.76 1169,-299 1171.87,-298.55 1174.8,-298.09 1177.76,-297.62"/>
<polygon fill="midnightblue" stroke="midnightblue" points="908.57,-333.78 899.16,-338.64 909.55,-340.71 908.57,-333.78"/>
</g>
<!-- Node25 -->
<g id="node25" class="node">
<title>Node25</title>
<g id="a_node25"><a xlink:href="IGameModule_8hpp.html" target="_top" xlink:title=" ">
<polygon fill="white" stroke="black" points="213,-274 213,-293 407,-293 407,-274 213,-274"/>
<text text-anchor="middle" x="310" y="-281" font-family="Helvetica,sans-Serif" font-size="10.00">sources/Common/IGameModule.hpp</text>
</a>
</g>
</g>
<!-- Node1&#45;&gt;Node25 -->
<g id="edge43" class="edge">
<title>Node1&#45;&gt;Node25</title>
<path fill="none" stroke="midnightblue" d="M732.65,-338.26C631.59,-325.41 468.35,-304.64 377.15,-293.04"/>
<polygon fill="midnightblue" stroke="midnightblue" points="732.47,-341.77 742.83,-339.56 733.36,-334.82 732.47,-341.77"/>
</g>
<!-- Node3 -->
<g id="node3" class="node">
<title>Node3</title>
<g id="a_node3"><a xlink:href="IDisplayModule_8hpp.html" target="_top" xlink:title=" ">
<polygon fill="white" stroke="black" points="950.5,-207 950.5,-226 1151.5,-226 1151.5,-207 950.5,-207"/>
<text text-anchor="middle" x="1051" y="-214" font-family="Helvetica,sans-Serif" font-size="10.00">sources/Common/IDisplayModule.hpp</text>
</a>
</g>
</g>
<!-- Node2&#45;&gt;Node3 -->
<g id="edge2" class="edge">
<title>Node2&#45;&gt;Node3</title>
<path fill="none" stroke="midnightblue" d="M812.2,-266.47C874.55,-253.68 959.44,-236.27 1009.41,-226.03"/>
<polygon fill="midnightblue" stroke="midnightblue" points="811.49,-263.04 802.39,-268.48 812.89,-269.9 811.49,-263.04"/>
</g>
<!-- Node15 -->
<g id="node15" class="node">
<title>Node15</title>
<g id="a_node15"><a xlink:href="Nibbler_8hpp.html" target="_top" xlink:title=" ">
<polygon fill="white" stroke="black" points="384,-201.5 384,-231.5 514,-231.5 514,-201.5 384,-201.5"/>
<text text-anchor="start" x="392" y="-219.5" font-family="Helvetica,sans-Serif" font-size="10.00">sources/Games/Nibbler</text>
<text text-anchor="middle" x="449" y="-208.5" font-family="Helvetica,sans-Serif" font-size="10.00">/Nibbler.hpp</text>
</a>
</g>
</g>
<!-- Node2&#45;&gt;Node15 -->
<g id="edge15" class="edge">
<title>Node2&#45;&gt;Node15</title>
<path fill="none" stroke="midnightblue" d="M662.47,-266.19C615.79,-255.54 555.48,-241.78 510.87,-231.61"/>
<polygon fill="midnightblue" stroke="midnightblue" points="661.98,-269.66 672.51,-268.48 663.54,-262.84 661.98,-269.66"/>
</g>
<!-- Node16 -->
<g id="node16" class="node">
<title>Node16</title>
<g id="a_node16"><a xlink:href="Nibbler_8cpp.html" target="_top" xlink:title=" ">
<polygon fill="white" stroke="black" points="694,-134.5 694,-164.5 824,-164.5 824,-134.5 694,-134.5"/>
<text text-anchor="start" x="702" y="-152.5" font-family="Helvetica,sans-Serif" font-size="10.00">sources/Games/Nibbler</text>
<text text-anchor="middle" x="759" y="-141.5" font-family="Helvetica,sans-Serif" font-size="10.00">/Nibbler.cpp</text>
</a>
</g>
</g>
<!-- Node2&#45;&gt;Node16 -->
<g id="edge17" class="edge">
<title>Node2&#45;&gt;Node16</title>
<path fill="none" stroke="midnightblue" d="M740.08,-258.55C742.1,-250.18 744.27,-240.7 746,-232 750.65,-208.53 754.77,-181 757.07,-164.69"/>
<polygon fill="midnightblue" stroke="midnightblue" points="736.64,-257.87 737.65,-268.41 743.44,-259.54 736.64,-257.87"/>
</g>
<!-- Node17 -->
<g id="node17" class="node">
<title>Node17</title>
<g id="a_node17"><a xlink:href="Pacman_8hpp.html" target="_top" xlink:title=" ">
<polygon fill="white" stroke="black" points="532.5,-201.5 532.5,-231.5 665.5,-231.5 665.5,-201.5 532.5,-201.5"/>
<text text-anchor="start" x="540.5" y="-219.5" font-family="Helvetica,sans-Serif" font-size="10.00">sources/Games/Pacman</text>
<text text-anchor="middle" x="599" y="-208.5" font-family="Helvetica,sans-Serif" font-size="10.00">/Pacman.hpp</text>
</a>
</g>
</g>
<!-- Node2&#45;&gt;Node17 -->
<g id="edge18" class="edge">
<title>Node2&#45;&gt;Node17</title>
<path fill="none" stroke="midnightblue" d="M695.56,-263.99C674.16,-253.69 647.95,-241.07 628.24,-231.58"/>
<polygon fill="midnightblue" stroke="midnightblue" points="694.18,-267.21 704.71,-268.4 697.22,-260.9 694.18,-267.21"/>
</g>
<!-- Node18 -->
<g id="node18" class="node">
<title>Node18</title>
<g id="a_node18"><a xlink:href="Pacman_8cpp.html" target="_top" xlink:title=" ">
<polygon fill="white" stroke="black" points="842.5,-134.5 842.5,-164.5 975.5,-164.5 975.5,-134.5 842.5,-134.5"/>
<text text-anchor="start" x="850.5" y="-152.5" font-family="Helvetica,sans-Serif" font-size="10.00">sources/Games/Pacman</text>
<text text-anchor="middle" x="909" y="-141.5" font-family="Helvetica,sans-Serif" font-size="10.00">/Pacman.cpp</text>
</a>
</g>
</g>
<!-- Node2&#45;&gt;Node18 -->
<g id="edge20" class="edge">
<title>Node2&#45;&gt;Node18</title>
<path fill="none" stroke="midnightblue" d="M760.8,-262.28C796.66,-235.24 859.31,-187.98 890.41,-164.52"/>
<polygon fill="midnightblue" stroke="midnightblue" points="758.6,-259.56 752.73,-268.37 762.82,-265.15 758.6,-259.56"/>
</g>
<!-- Node19 -->
<g id="node19" class="node">
<title>Node19</title>
<g id="a_node19"><a xlink:href="Qix_8cpp.html" target="_top" xlink:title=" ">
<polygon fill="white" stroke="black" points="524.5,-140 524.5,-159 675.5,-159 675.5,-140 524.5,-140"/>
<text text-anchor="middle" x="600" y="-147" font-family="Helvetica,sans-Serif" font-size="10.00">sources/Games/Qix/Qix.cpp</text>
</a>
</g>
</g>
<!-- Node2&#45;&gt;Node19 -->
<g id="edge21" class="edge">
<title>Node2&#45;&gt;Node19</title>
<path fill="none" stroke="midnightblue" d="M720.12,-259.54C708.98,-242.25 692.24,-218.6 674,-201 655.98,-183.61 631.36,-168.12 615.56,-159.02"/>
<polygon fill="midnightblue" stroke="midnightblue" points="717.41,-261.81 725.7,-268.41 723.34,-258.08 717.41,-261.81"/>
</g>
<!-- Node4 -->
<g id="node4" class="node">
<title>Node4</title>
<g id="a_node4"><a xlink:href="Runner_8hpp.html" target="_top" xlink:title=" ">
<polygon fill="white" stroke="black" points="140.5,-134.5 140.5,-164.5 257.5,-164.5 257.5,-134.5 140.5,-134.5"/>
<text text-anchor="start" x="148.5" y="-152.5" font-family="Helvetica,sans-Serif" font-size="10.00">sources/Core/Runner</text>
<text text-anchor="middle" x="199" y="-141.5" font-family="Helvetica,sans-Serif" font-size="10.00">/Runner.hpp</text>
</a>
</g>
</g>
<!-- Node3&#45;&gt;Node4 -->
<g id="edge3" class="edge">
<title>Node3&#45;&gt;Node4</title>
<path fill="none" stroke="midnightblue" d="M940.16,-207.04C757.26,-193.09 398.49,-165.72 257.7,-154.98"/>
<polygon fill="midnightblue" stroke="midnightblue" points="940.1,-210.55 950.34,-207.82 940.63,-203.57 940.1,-210.55"/>
</g>
<!-- Node9 -->
<g id="node9" class="node">
<title>Node9</title>
<g id="a_node9"><a xlink:href="NcursesDisplay_8hpp.html" target="_top" xlink:title=" ">
<polygon fill="white" stroke="black" points="1299.5,-134.5 1299.5,-164.5 1456.5,-164.5 1456.5,-134.5 1299.5,-134.5"/>
<text text-anchor="start" x="1307.5" y="-152.5" font-family="Helvetica,sans-Serif" font-size="10.00">sources/DisplayModules</text>
<text text-anchor="middle" x="1378" y="-141.5" font-family="Helvetica,sans-Serif" font-size="10.00">/Ncurses/NcursesDisplay.hpp</text>
</a>
</g>
</g>
<!-- Node3&#45;&gt;Node9 -->
<g id="edge9" class="edge">
<title>Node3&#45;&gt;Node9</title>
<path fill="none" stroke="midnightblue" d="M1104.02,-204.96C1159.29,-193.98 1246.19,-176.7 1307.27,-164.56"/>
<polygon fill="midnightblue" stroke="midnightblue" points="1103.21,-201.55 1094.09,-206.94 1104.58,-208.42 1103.21,-201.55"/>
</g>
<!-- Node11 -->
<g id="node11" class="node">
<title>Node11</title>
<g id="a_node11"><a xlink:href="SDLDisplay_8hpp.html" target="_top" xlink:title=" ">
<polygon fill="white" stroke="black" points="993.5,-134.5 993.5,-164.5 1128.5,-164.5 1128.5,-134.5 993.5,-134.5"/>
<text text-anchor="start" x="1001.5" y="-152.5" font-family="Helvetica,sans-Serif" font-size="10.00">sources/DisplayModules</text>
<text text-anchor="middle" x="1061" y="-141.5" font-family="Helvetica,sans-Serif" font-size="10.00">/SDL/SDLDisplay.hpp</text>
</a>
</g>
</g>
<!-- Node3&#45;&gt;Node11 -->
<g id="edge11" class="edge">
<title>Node3&#45;&gt;Node11</title>
<path fill="none" stroke="midnightblue" d="M1053.89,-196.74C1055.46,-186.49 1057.38,-174 1058.83,-164.59"/>
<polygon fill="midnightblue" stroke="midnightblue" points="1050.41,-196.32 1052.35,-206.73 1057.33,-197.38 1050.41,-196.32"/>
</g>
<!-- Node13 -->
<g id="node13" class="node">
<title>Node13</title>
<g id="a_node13"><a xlink:href="SFMLDisplay_8hpp.html" target="_top" xlink:title=" ">
<polygon fill="white" stroke="black" points="1146.5,-134.5 1146.5,-164.5 1281.5,-164.5 1281.5,-134.5 1146.5,-134.5"/>
<text text-anchor="start" x="1154.5" y="-152.5" font-family="Helvetica,sans-Serif" font-size="10.00">sources/DisplayModules</text>
<text text-anchor="middle" x="1214" y="-141.5" font-family="Helvetica,sans-Serif" font-size="10.00">/SFML/SFMLDisplay.hpp</text>
</a>
</g>
</g>
<!-- Node3&#45;&gt;Node13 -->
<g id="edge13" class="edge">
<title>Node3&#45;&gt;Node13</title>
<path fill="none" stroke="midnightblue" d="M1082.2,-203.06C1109.81,-192.05 1150.07,-175.99 1178.82,-164.53"/>
<polygon fill="midnightblue" stroke="midnightblue" points="1080.64,-199.91 1072.65,-206.87 1083.23,-206.42 1080.64,-199.91"/>
</g>
<!-- Node5 -->
<g id="node5" class="node">
<title>Node5</title>
<g id="a_node5"><a xlink:href="Runner_8cpp.html" target="_top" xlink:title=" ">
<polygon fill="white" stroke="black" points="140.5,-0.5 140.5,-30.5 257.5,-30.5 257.5,-0.5 140.5,-0.5"/>
<text text-anchor="start" x="148.5" y="-18.5" font-family="Helvetica,sans-Serif" font-size="10.00">sources/Core/Runner</text>
<text text-anchor="middle" x="199" y="-7.5" font-family="Helvetica,sans-Serif" font-size="10.00">/Runner.cpp</text>
</a>
</g>
</g>
<!-- Node4&#45;&gt;Node5 -->
<g id="edge4" class="edge">
<title>Node4&#45;&gt;Node5</title>
<path fill="none" stroke="midnightblue" d="M199,-124.02C199,-96.51 199,-52.79 199,-30.52"/>
<polygon fill="midnightblue" stroke="midnightblue" points="195.5,-124.37 199,-134.37 202.5,-124.37 195.5,-124.37"/>
</g>
<!-- Node6 -->
<g id="node6" class="node">
<title>Node6</title>
<g id="a_node6"><a xlink:href="Menu_8hpp.html" target="_top" xlink:title=" ">
<polygon fill="white" stroke="black" points="49,-67.5 49,-97.5 171,-97.5 171,-67.5 49,-67.5"/>
<text text-anchor="start" x="57" y="-85.5" font-family="Helvetica,sans-Serif" font-size="10.00">sources/Games/Menu</text>
<text text-anchor="middle" x="110" y="-74.5" font-family="Helvetica,sans-Serif" font-size="10.00">/Menu.hpp</text>
</a>
</g>
</g>
<!-- Node4&#45;&gt;Node6 -->
<g id="edge5" class="edge">
<title>Node4&#45;&gt;Node6</title>
<path fill="none" stroke="midnightblue" d="M171.55,-128.45C157.86,-118.45 141.63,-106.6 129.27,-97.58"/>
<polygon fill="midnightblue" stroke="midnightblue" points="169.55,-131.32 179.69,-134.4 173.68,-125.67 169.55,-131.32"/>
</g>
<!-- Node8 -->
<g id="node8" class="node">
<title>Node8</title>
<g id="a_node8"><a xlink:href="main_8cpp.html" target="_top" xlink:title=" ">
<polygon fill="white" stroke="black" points="227,-73 227,-92 329,-92 329,-73 227,-73"/>
<text text-anchor="middle" x="278" y="-80" font-family="Helvetica,sans-Serif" font-size="10.00">sources/main.cpp</text>
</a>
</g>
</g>
<!-- Node4&#45;&gt;Node8 -->
<g id="edge8" class="edge">
<title>Node4&#45;&gt;Node8</title>
<path fill="none" stroke="midnightblue" d="M223.91,-128.01C238.57,-115.94 256.36,-101.3 267.43,-92.19"/>
<polygon fill="midnightblue" stroke="midnightblue" points="221.64,-125.34 216.14,-134.4 226.09,-130.75 221.64,-125.34"/>
</g>
<!-- Node6&#45;&gt;Node5 -->
<g id="edge6" class="edge">
<title>Node6&#45;&gt;Node5</title>
<path fill="none" stroke="midnightblue" d="M137.45,-61.45C151.14,-51.45 167.37,-39.6 179.73,-30.58"/>
<polygon fill="midnightblue" stroke="midnightblue" points="135.32,-58.67 129.31,-67.4 139.45,-64.32 135.32,-58.67"/>
</g>
<!-- Node7 -->
<g id="node7" class="node">
<title>Node7</title>
<g id="a_node7"><a xlink:href="Menu_8cpp.html" target="_top" xlink:title=" ">
<polygon fill="white" stroke="black" points="0,-0.5 0,-30.5 122,-30.5 122,-0.5 0,-0.5"/>
<text text-anchor="start" x="8" y="-18.5" font-family="Helvetica,sans-Serif" font-size="10.00">sources/Games/Menu</text>
<text text-anchor="middle" x="61" y="-7.5" font-family="Helvetica,sans-Serif" font-size="10.00">/Menu.cpp</text>
</a>
</g>
</g>
<!-- Node6&#45;&gt;Node7 -->
<g id="edge7" class="edge">
<title>Node6&#45;&gt;Node7</title>
<path fill="none" stroke="midnightblue" d="M93.16,-59.16C86.01,-49.68 77.9,-38.92 71.61,-30.58"/>
<polygon fill="midnightblue" stroke="midnightblue" points="90.55,-61.52 99.37,-67.4 96.14,-57.3 90.55,-61.52"/>
</g>
<!-- Node10 -->
<g id="node10" class="node">
<title>Node10</title>
<g id="a_node10"><a xlink:href="NcursesDisplay_8cpp.html" target="_top" xlink:title=" ">
<polygon fill="white" stroke="black" points="1300,-67.5 1300,-97.5 1456,-97.5 1456,-67.5 1300,-67.5"/>
<text text-anchor="start" x="1308" y="-85.5" font-family="Helvetica,sans-Serif" font-size="10.00">sources/DisplayModules</text>
<text text-anchor="middle" x="1378" y="-74.5" font-family="Helvetica,sans-Serif" font-size="10.00">/Ncurses/NcursesDisplay.cpp</text>
</a>
</g>
</g>
<!-- Node9&#45;&gt;Node10 -->
<g id="edge10" class="edge">
<title>Node9&#45;&gt;Node10</title>
<path fill="none" stroke="midnightblue" d="M1378,-124.11C1378,-115.15 1378,-105.32 1378,-97.58"/>
<polygon fill="midnightblue" stroke="midnightblue" points="1374.5,-124.4 1378,-134.4 1381.5,-124.4 1374.5,-124.4"/>
</g>
<!-- Node12 -->
<g id="node12" class="node">
<title>Node12</title>
<g id="a_node12"><a xlink:href="SDLDisplay_8cpp.html" target="_top" xlink:title=" ">
<polygon fill="white" stroke="black" points="993.5,-67.5 993.5,-97.5 1128.5,-97.5 1128.5,-67.5 993.5,-67.5"/>
<text text-anchor="start" x="1001.5" y="-85.5" font-family="Helvetica,sans-Serif" font-size="10.00">sources/DisplayModules</text>
<text text-anchor="middle" x="1061" y="-74.5" font-family="Helvetica,sans-Serif" font-size="10.00">/SDL/SDLDisplay.cpp</text>
</a>
</g>
</g>
<!-- Node11&#45;&gt;Node12 -->
<g id="edge12" class="edge">
<title>Node11&#45;&gt;Node12</title>
<path fill="none" stroke="midnightblue" d="M1061,-124.11C1061,-115.15 1061,-105.32 1061,-97.58"/>
<polygon fill="midnightblue" stroke="midnightblue" points="1057.5,-124.4 1061,-134.4 1064.5,-124.4 1057.5,-124.4"/>
</g>
<!-- Node14 -->
<g id="node14" class="node">
<title>Node14</title>
<g id="a_node14"><a xlink:href="SFMLDisplay_8cpp.html" target="_top" xlink:title=" ">
<polygon fill="white" stroke="black" points="1146.5,-67.5 1146.5,-97.5 1281.5,-97.5 1281.5,-67.5 1146.5,-67.5"/>
<text text-anchor="start" x="1154.5" y="-85.5" font-family="Helvetica,sans-Serif" font-size="10.00">sources/DisplayModules</text>
<text text-anchor="middle" x="1214" y="-74.5" font-family="Helvetica,sans-Serif" font-size="10.00">/SFML/SFMLDisplay.cpp</text>
</a>
</g>
</g>
<!-- Node13&#45;&gt;Node14 -->
<g id="edge14" class="edge">
<title>Node13&#45;&gt;Node14</title>
<path fill="none" stroke="midnightblue" d="M1214,-124.11C1214,-115.15 1214,-105.32 1214,-97.58"/>
<polygon fill="midnightblue" stroke="midnightblue" points="1210.5,-124.4 1214,-134.4 1217.5,-124.4 1210.5,-124.4"/>
</g>
<!-- Node15&#45;&gt;Node16 -->
<g id="edge16" class="edge">
<title>Node15&#45;&gt;Node16</title>
<path fill="none" stroke="midnightblue" d="M524.19,-199.73C576.1,-188.85 644.43,-174.52 693.99,-164.13"/>
<polygon fill="midnightblue" stroke="midnightblue" points="523.43,-196.32 514.36,-201.79 524.87,-203.17 523.43,-196.32"/>
</g>
<!-- Node17&#45;&gt;Node18 -->
<g id="edge19" class="edge">
<title>Node17&#45;&gt;Node18</title>
<path fill="none" stroke="midnightblue" d="M675.52,-199.46C726.69,-188.73 793.35,-174.75 842.34,-164.48"/>
<polygon fill="midnightblue" stroke="midnightblue" points="674.57,-196.08 665.5,-201.56 676.01,-202.93 674.57,-196.08"/>
</g>
<!-- Node20&#45;&gt;Node3 -->
<g id="edge23" class="edge">
<title>Node20&#45;&gt;Node3</title>
<path fill="none" stroke="midnightblue" d="M648.34,-267.84C768.41,-250.49 896.25,-235.15 975.3,-226.03"/>
<polygon fill="midnightblue" stroke="midnightblue" points="647.62,-264.41 638.23,-269.31 648.63,-271.33 647.62,-264.41"/>
</g>
<!-- Node20&#45;&gt;Node15 -->
<g id="edge25" class="edge">
<title>Node20&#45;&gt;Node15</title>
<path fill="none" stroke="midnightblue" d="M527.2,-263.3C509.84,-253.12 488.88,-240.85 473.04,-231.58"/>
<polygon fill="midnightblue" stroke="midnightblue" points="525.52,-266.36 535.91,-268.4 529.05,-260.32 525.52,-266.36"/>
</g>
<!-- Node20&#45;&gt;Node16 -->
<g id="edge24" class="edge">
<title>Node20&#45;&gt;Node16</title>
<path fill="none" stroke="midnightblue" d="M471.87,-272.16C408.63,-261.27 340.22,-240.07 375,-201 420.97,-149.37 615.68,-175.57 684,-165 687.15,-164.51 690.36,-163.99 693.6,-163.44"/>
<polygon fill="midnightblue" stroke="midnightblue" points="471.52,-275.65 481.96,-273.83 472.66,-268.75 471.52,-275.65"/>
</g>
<!-- Node20&#45;&gt;Node17 -->
<g id="edge27" class="edge">
<title>Node20&#45;&gt;Node17</title>
<path fill="none" stroke="midnightblue" d="M573.75,-259.58C579.36,-250.24 585.65,-239.75 590.55,-231.58"/>
<polygon fill="midnightblue" stroke="midnightblue" points="570.61,-258.02 568.46,-268.4 576.61,-261.62 570.61,-258.02"/>
</g>
<!-- Node20&#45;&gt;Node18 -->
<g id="edge26" class="edge">
<title>Node20&#45;&gt;Node18</title>
<path fill="none" stroke="midnightblue" d="M606.48,-264.92C676.52,-238.43 807.73,-188.8 871.84,-164.56"/>
<polygon fill="midnightblue" stroke="midnightblue" points="605.13,-261.69 597.02,-268.5 607.61,-268.23 605.13,-261.69"/>
</g>
<!-- Node21 -->
<g id="node21" class="node">
<title>Node21</title>
<g id="a_node21"><a xlink:href="Qix_8hpp.html" target="_top" xlink:title=" ">
<polygon fill="white" stroke="black" points="176,-207 176,-226 328,-226 328,-207 176,-207"/>
<text text-anchor="middle" x="252" y="-214" font-family="Helvetica,sans-Serif" font-size="10.00">sources/Games/Qix/Qix.hpp</text>
</a>
</g>
</g>
<!-- Node20&#45;&gt;Node21 -->
<g id="edge28" class="edge">
<title>Node20&#45;&gt;Node21</title>
<path fill="none" stroke="midnightblue" d="M483.65,-266.39C423.1,-253.61 340.86,-236.25 292.41,-226.03"/>
<polygon fill="midnightblue" stroke="midnightblue" points="483.04,-269.84 493.55,-268.48 484.49,-262.99 483.04,-269.84"/>
</g>
<!-- Node21&#45;&gt;Node19 -->
<g id="edge29" class="edge">
<title>Node21&#45;&gt;Node19</title>
<path fill="none" stroke="midnightblue" d="M308.02,-205.04C376.46,-192.25 490.95,-170.87 554.32,-159.03"/>
<polygon fill="midnightblue" stroke="midnightblue" points="307.04,-201.66 297.85,-206.94 308.33,-208.54 307.04,-201.66"/>
</g>
<!-- Node22&#45;&gt;Node3 -->
<g id="edge31" class="edge">
<title>Node22&#45;&gt;Node3</title>
<path fill="none" stroke="midnightblue" d="M948.41,-264.13C975.93,-251.62 1011.09,-235.64 1032.28,-226.01"/>
<polygon fill="midnightblue" stroke="midnightblue" points="946.68,-261.07 939.03,-268.4 949.58,-267.44 946.68,-261.07"/>
</g>
<!-- Node22&#45;&gt;Node16 -->
<g id="edge32" class="edge">
<title>Node22&#45;&gt;Node16</title>
<path fill="none" stroke="midnightblue" d="M898.51,-258.84C890.42,-241.11 877.36,-217.21 860,-201 842.8,-184.95 819.54,-172.85 799.67,-164.52"/>
<polygon fill="midnightblue" stroke="midnightblue" points="895.49,-260.69 902.68,-268.47 901.91,-257.9 895.49,-260.69"/>
</g>
<!-- Node22&#45;&gt;Node18 -->
<g id="edge33" class="edge">
<title>Node22&#45;&gt;Node18</title>
<path fill="none" stroke="midnightblue" d="M908.19,-258.02C908.39,-230.51 908.73,-186.79 908.89,-164.52"/>
<polygon fill="midnightblue" stroke="midnightblue" points="904.68,-258.35 908.11,-268.37 911.68,-258.4 904.68,-258.35"/>
</g>
<!-- Node22&#45;&gt;Node19 -->
<g id="edge34" class="edge">
<title>Node22&#45;&gt;Node19</title>
<path fill="none" stroke="midnightblue" d="M865.88,-264.45C798.67,-235.64 669.69,-180.37 620.11,-159.12"/>
<polygon fill="midnightblue" stroke="midnightblue" points="864.76,-267.78 875.33,-268.5 867.52,-261.34 864.76,-267.78"/>
</g>
<!-- Node23&#45;&gt;Node3 -->
<g id="edge36" class="edge">
<title>Node23&#45;&gt;Node3</title>
<path fill="none" stroke="midnightblue" d="M1070.93,-259.29C1065.45,-247.8 1059.17,-234.63 1055.15,-226.19"/>
<polygon fill="midnightblue" stroke="midnightblue" points="1067.81,-260.88 1075.27,-268.4 1074.13,-257.86 1067.81,-260.88"/>
</g>
<!-- Node23&#45;&gt;Node16 -->
<g id="edge37" class="edge">
<title>Node23&#45;&gt;Node16</title>
<path fill="none" stroke="midnightblue" d="M1121.31,-263.62C1150.04,-247.35 1180.79,-223.08 1161,-201 1112.06,-146.4 905.49,-176.06 833,-165 830.15,-164.57 827.25,-164.1 824.32,-163.61"/>
<polygon fill="midnightblue" stroke="midnightblue" points="1119.64,-260.54 1112.52,-268.4 1122.98,-266.69 1119.64,-260.54"/>
</g>
<!-- Node23&#45;&gt;Node18 -->
<g id="edge38" class="edge">
<title>Node23&#45;&gt;Node18</title>
<path fill="none" stroke="midnightblue" d="M1139.43,-264.91C1177.46,-250.32 1216.51,-227.69 1194,-201 1163.48,-164.8 1030.58,-173.49 984,-165 981.26,-164.5 978.47,-163.99 975.64,-163.46"/>
<polygon fill="midnightblue" stroke="midnightblue" points="1138,-261.71 1129.83,-268.45 1140.42,-268.28 1138,-261.71"/>
</g>
<!-- Node24&#45;&gt;Node3 -->
<g id="edge40" class="edge">
<title>Node24&#45;&gt;Node3</title>
<path fill="none" stroke="midnightblue" d="M1202.16,-265.43C1162.19,-252.75 1109.35,-236 1077.9,-226.03"/>
<polygon fill="midnightblue" stroke="midnightblue" points="1201.18,-268.79 1211.77,-268.48 1203.3,-262.12 1201.18,-268.79"/>
</g>
<!-- Node24&#45;&gt;Node16 -->
<g id="edge41" class="edge">
<title>Node24&#45;&gt;Node16</title>
<path fill="none" stroke="midnightblue" d="M1241.48,-260.13C1227.66,-240.89 1204.99,-214.23 1178,-201 1039.56,-133.16 985.46,-187.85 833,-165 830.15,-164.57 827.25,-164.11 824.31,-163.63"/>
<polygon fill="midnightblue" stroke="midnightblue" points="1238.62,-262.14 1247.19,-268.36 1244.37,-258.15 1238.62,-262.14"/>
</g>
<!-- Node24&#45;&gt;Node18 -->
<g id="edge42" class="edge">
<title>Node24&#45;&gt;Node18</title>
<path fill="none" stroke="midnightblue" d="M1269.22,-258.98C1277.36,-241.01 1283.86,-216.72 1270,-201 1227.63,-152.96 1047.26,-175.09 984,-165 981.25,-164.56 978.45,-164.1 975.62,-163.61"/>
<polygon fill="midnightblue" stroke="midnightblue" points="1265.94,-257.71 1264.64,-268.23 1272.22,-260.82 1265.94,-257.71"/>
</g>
<!-- Node25&#45;&gt;Node4 -->
<g id="edge44" class="edge">
<title>Node25&#45;&gt;Node4</title>
<path fill="none" stroke="midnightblue" d="M225.93,-271.09C203.12,-263.71 180.9,-251.65 167,-232 152.08,-210.9 171.08,-181.89 185.54,-164.77"/>
<polygon fill="midnightblue" stroke="midnightblue" points="225.14,-274.51 235.73,-273.97 227.12,-267.79 225.14,-274.51"/>
</g>
<!-- Node25&#45;&gt;Node6 -->
<g id="edge45" class="edge">
<title>Node25&#45;&gt;Node6</title>
<path fill="none" stroke="midnightblue" d="M236.37,-271.5C208.98,-264.2 179.39,-252.1 158,-232 119.1,-195.45 111.64,-127.21 110.27,-97.7"/>
<polygon fill="midnightblue" stroke="midnightblue" points="235.79,-274.96 246.34,-273.97 237.48,-268.17 235.79,-274.96"/>
</g>
<!-- Node25&#45;&gt;Node15 -->
<g id="edge46" class="edge">
<title>Node25&#45;&gt;Node15</title>
<path fill="none" stroke="midnightblue" d="M337.54,-269.62C361.06,-258.63 394.81,-242.84 419,-231.53"/>
<polygon fill="midnightblue" stroke="midnightblue" points="336.03,-266.46 328.46,-273.87 339,-272.8 336.03,-266.46"/>
</g>
<!-- Node25&#45;&gt;Node17 -->
<g id="edge47" class="edge">
<title>Node25&#45;&gt;Node17</title>
<path fill="none" stroke="midnightblue" d="M358.08,-271.69C406.98,-260.69 482.95,-243.6 536.49,-231.56"/>
<polygon fill="midnightblue" stroke="midnightblue" points="357.07,-268.33 348.08,-273.94 358.6,-275.16 357.07,-268.33"/>
</g>
<!-- Node25&#45;&gt;Node21 -->
<g id="edge48" class="edge">
<title>Node25&#45;&gt;Node21</title>
<path fill="none" stroke="midnightblue" d="M295.4,-266.13C284.05,-253.42 268.77,-236.3 259.7,-226.13"/>
<polygon fill="midnightblue" stroke="midnightblue" points="292.91,-268.6 302.18,-273.73 298.13,-263.94 292.91,-268.6"/>
</g>
</g>
</svg>
