<?xml version="1.0" encoding="UTF-8" standalone="no"?>
<!DOCTYPE svg PUBLIC "-//W3C//DTD SVG 1.1//EN"
 "http://www.w3.org/Graphics/SVG/1.1/DTD/svg11.dtd">
<!-- Generated by graphviz version 2.43.0 (0)
 -->
<!-- Title: Arcade::Pacman::Pacman Pages: 1 -->
<svg width="696pt" height="1023pt"
 viewBox="0.00 0.00 695.50 1023.00" xmlns="http://www.w3.org/2000/svg" xmlns:xlink="http://www.w3.org/1999/xlink">
<g id="graph0" class="graph" transform="scale(1 1) rotate(0) translate(4 1019)">
<title>Arcade::Pacman::Pacman</title>
<polygon fill="white" stroke="transparent" points="-4,4 -4,-1019 691.5,-1019 691.5,4 -4,4"/>
<!-- Node1 -->
<g id="node1" class="node">
<title>Node1</title>
<g id="a_node1"><a xlink:title="!">
<polygon fill="#bfbfbf" stroke="black" points="240,-0.5 240,-475.5 397,-475.5 397,-0.5 240,-0.5"/>
<text text-anchor="middle" x="318.5" y="-463.5" font-family="Helvetica,sans-Serif" font-size="10.00">Arcade::Pacman::Pacman</text>
<polyline fill="none" stroke="black" points="240,-456.5 397,-456.5 "/>
<text text-anchor="start" x="248" y="-444.5" font-family="Helvetica,sans-Serif" font-size="10.00">&#45; _playerPosition</text>
<text text-anchor="start" x="248" y="-433.5" font-family="Helvetica,sans-Serif" font-size="10.00">&#45; _playerMovement</text>
<text text-anchor="start" x="248" y="-422.5" font-family="Helvetica,sans-Serif" font-size="10.00">&#45; _shouldClose</text>
<text text-anchor="start" x="248" y="-411.5" font-family="Helvetica,sans-Serif" font-size="10.00">&#45; _gameScore</text>
<text text-anchor="start" x="248" y="-400.5" font-family="Helvetica,sans-Serif" font-size="10.00">&#45; _resources</text>
<text text-anchor="start" x="248" y="-389.5" font-family="Helvetica,sans-Serif" font-size="10.00">&#45; _drawables</text>
<text text-anchor="start" x="248" y="-378.5" font-family="Helvetica,sans-Serif" font-size="10.00">&#45; _sounds</text>
<text text-anchor="start" x="248" y="-367.5" font-family="Helvetica,sans-Serif" font-size="10.00">&#45; _map</text>
<text text-anchor="start" x="248" y="-356.5" font-family="Helvetica,sans-Serif" font-size="10.00">&#45; mapTileLength</text>
<text text-anchor="start" x="248" y="-345.5" font-family="Helvetica,sans-Serif" font-size="10.00">&#45; mapOffsetTileX</text>
<text text-anchor="start" x="248" y="-334.5" font-family="Helvetica,sans-Serif" font-size="10.00">&#45; mapOffsetTileY</text>
<text text-anchor="start" x="248" y="-323.5" font-family="Helvetica,sans-Serif" font-size="10.00">&#45; mapWallColor</text>
<text text-anchor="start" x="248" y="-312.5" font-family="Helvetica,sans-Serif" font-size="10.00">&#45; pacmanSpeed</text>
<text text-anchor="start" x="248" y="-301.5" font-family="Helvetica,sans-Serif" font-size="10.00">&#45; largePacgumFilename</text>
<text text-anchor="start" x="248" y="-290.5" font-family="Helvetica,sans-Serif" font-size="10.00">&#45; smallPacgumFilename</text>
<polyline fill="none" stroke="black" points="240,-283.5 397,-283.5 "/>
<text text-anchor="start" x="248" y="-271.5" font-family="Helvetica,sans-Serif" font-size="10.00">+ init()</text>
<text text-anchor="start" x="248" y="-260.5" font-family="Helvetica,sans-Serif" font-size="10.00">+ close()</text>
<text text-anchor="start" x="248" y="-249.5" font-family="Helvetica,sans-Serif" font-size="10.00">+ shouldClose()</text>
<text text-anchor="start" x="248" y="-238.5" font-family="Helvetica,sans-Serif" font-size="10.00">+ getType()</text>
<text text-anchor="start" x="248" y="-227.5" font-family="Helvetica,sans-Serif" font-size="10.00">+ getResources()</text>
<text text-anchor="start" x="248" y="-216.5" font-family="Helvetica,sans-Serif" font-size="10.00">+ getDrawables()</text>
<text text-anchor="start" x="248" y="-205.5" font-family="Helvetica,sans-Serif" font-size="10.00">+ getSounds()</text>
<text text-anchor="start" x="248" y="-194.5" font-family="Helvetica,sans-Serif" font-size="10.00">+ addTicks()</text>
<text text-anchor="start" x="248" y="-183.5" font-family="Helvetica,sans-Serif" font-size="10.00">+ restart()</text>
<text text-anchor="start" x="248" y="-172.5" font-family="Helvetica,sans-Serif" font-size="10.00">+ handleEvent()</text>
<text text-anchor="start" x="248" y="-161.5" font-family="Helvetica,sans-Serif" font-size="10.00">+ getScore()</text>
<text text-anchor="start" x="248" y="-150.5" font-family="Helvetica,sans-Serif" font-size="10.00">+ Pacman()</text>
<text text-anchor="start" x="248" y="-139.5" font-family="Helvetica,sans-Serif" font-size="10.00">+ Pacman()</text>
<text text-anchor="start" x="248" y="-128.5" font-family="Helvetica,sans-Serif" font-size="10.00">+ ~Pacman()</text>
<text text-anchor="start" x="248" y="-117.5" font-family="Helvetica,sans-Serif" font-size="10.00">+ operator=()</text>
<text text-anchor="start" x="248" y="-106.5" font-family="Helvetica,sans-Serif" font-size="10.00">&#45; _createMapFromVector()</text>
<text text-anchor="start" x="248" y="-95.5" font-family="Helvetica,sans-Serif" font-size="10.00">&#45; _getRectangleFromChar()</text>
<text text-anchor="start" x="248" y="-84.5" font-family="Helvetica,sans-Serif" font-size="10.00">&#45; _collideWithWallMap()</text>
<text text-anchor="start" x="248" y="-73.5" font-family="Helvetica,sans-Serif" font-size="10.00">&#45; _getSpriteFromChar()</text>
<text text-anchor="start" x="248" y="-62.5" font-family="Helvetica,sans-Serif" font-size="10.00">&#45; _getCircleFromChar()</text>
<text text-anchor="start" x="248" y="-51.5" font-family="Helvetica,sans-Serif" font-size="10.00">&#45; _collideWithPacgumMap()</text>
<text text-anchor="start" x="248" y="-40.5" font-family="Helvetica,sans-Serif" font-size="10.00">&#45; _processPlayerMovement()</text>
<text text-anchor="start" x="248" y="-29.5" font-family="Helvetica,sans-Serif" font-size="10.00">&#45; _processScore()</text>
<text text-anchor="start" x="248" y="-18.5" font-family="Helvetica,sans-Serif" font-size="10.00">&#45; _startGame()</text>
<text text-anchor="start" x="248" y="-7.5" font-family="Helvetica,sans-Serif" font-size="10.00">&#45; _isGameEnded()</text>
</a>
</g>
</g>
<!-- Node2 -->
<g id="node2" class="node">
<title>Node2</title>
<g id="a_node2"><a xlink:href="classArcade_1_1IGameModule.html" target="_top" xlink:title="The interface of all games.">
<polygon fill="white" stroke="black" points="0,-523.5 0,-657.5 125,-657.5 125,-523.5 0,-523.5"/>
<text text-anchor="middle" x="62.5" y="-645.5" font-family="Helvetica,sans-Serif" font-size="10.00">Arcade::IGameModule</text>
<polyline fill="none" stroke="black" points="0,-638.5 125,-638.5 "/>
<text text-anchor="middle" x="62.5" y="-626.5" font-family="Helvetica,sans-Serif" font-size="10.00"> </text>
<polyline fill="none" stroke="black" points="0,-619.5 125,-619.5 "/>
<text text-anchor="start" x="8" y="-607.5" font-family="Helvetica,sans-Serif" font-size="10.00">+ ~IGameModule()</text>
<text text-anchor="start" x="8" y="-596.5" font-family="Helvetica,sans-Serif" font-size="10.00">+ getResources()</text>
<text text-anchor="start" x="8" y="-585.5" font-family="Helvetica,sans-Serif" font-size="10.00">+ getDrawables()</text>
<text text-anchor="start" x="8" y="-574.5" font-family="Helvetica,sans-Serif" font-size="10.00">+ getSounds()</text>
<text text-anchor="start" x="8" y="-563.5" font-family="Helvetica,sans-Serif" font-size="10.00">+ addTicks()</text>
<text text-anchor="start" x="8" y="-552.5" font-family="Helvetica,sans-Serif" font-size="10.00">+ restart()</text>
<text text-anchor="start" x="8" y="-541.5" font-family="Helvetica,sans-Serif" font-size="10.00">+ handleEvent()</text>
<text text-anchor="start" x="8" y="-530.5" font-family="Helvetica,sans-Serif" font-size="10.00">+ getScore()</text>
</a>
</g>
</g>
<!-- Node2&#45;&gt;Node1 -->
<g id="edge1" class="edge">
<title>Node2&#45;&gt;Node1</title>
<path fill="none" stroke="midnightblue" d="M117.03,-514.84C152.76,-465.92 200.03,-401.21 239.8,-346.75"/>
<polygon fill="none" stroke="midnightblue" points="114.02,-513.02 110.95,-523.16 119.68,-517.15 114.02,-513.02"/>
</g>
<!-- Node3 -->
<g id="node3" class="node">
<title>Node3</title>
<g id="a_node3"><a xlink:href="classArcade_1_1IModule.html" target="_top" xlink:title="A base module interface.">
<polygon fill="white" stroke="black" points="15,-774.5 15,-875.5 110,-875.5 110,-774.5 15,-774.5"/>
<text text-anchor="middle" x="62.5" y="-863.5" font-family="Helvetica,sans-Serif" font-size="10.00">Arcade::IModule</text>
<polyline fill="none" stroke="black" points="15,-856.5 110,-856.5 "/>
<text text-anchor="middle" x="62.5" y="-844.5" font-family="Helvetica,sans-Serif" font-size="10.00"> </text>
<polyline fill="none" stroke="black" points="15,-837.5 110,-837.5 "/>
<text text-anchor="start" x="23" y="-825.5" font-family="Helvetica,sans-Serif" font-size="10.00">+ ~IModule()</text>
<text text-anchor="start" x="23" y="-814.5" font-family="Helvetica,sans-Serif" font-size="10.00">+ init()</text>
<text text-anchor="start" x="23" y="-803.5" font-family="Helvetica,sans-Serif" font-size="10.00">+ close()</text>
<text text-anchor="start" x="23" y="-792.5" font-family="Helvetica,sans-Serif" font-size="10.00">+ shouldClose()</text>
<text text-anchor="start" x="23" y="-781.5" font-family="Helvetica,sans-Serif" font-size="10.00">+ getType()</text>
</a>
</g>
</g>
<!-- Node3&#45;&gt;Node2 -->
<g id="edge2" class="edge">
<title>Node3&#45;&gt;Node2</title>
<path fill="none" stroke="midnightblue" d="M62.5,-764.13C62.5,-731.59 62.5,-691.27 62.5,-657.78"/>
<polygon fill="none" stroke="midnightblue" points="59,-764.41 62.5,-774.41 66,-764.41 59,-764.41"/>
</g>
<!-- Node4 -->
<g id="node4" class="node">
<title>Node4</title>
<g id="a_node4"><a xlink:href="structArcade_1_1Pacman_1_1Pacman_1_1PendingMoves.html" target="_top" xlink:title="Struct used to keep pending moves.">
<polygon fill="white" stroke="black" points="143,-551 143,-630 282,-630 282,-551 143,-551"/>
<text text-anchor="start" x="151" y="-618" font-family="Helvetica,sans-Serif" font-size="10.00">Arcade::Pacman::Pacman</text>
<text text-anchor="middle" x="212.5" y="-607" font-family="Helvetica,sans-Serif" font-size="10.00">::PendingMoves</text>
<polyline fill="none" stroke="black" points="143,-600 282,-600 "/>
<text text-anchor="start" x="151" y="-588" font-family="Helvetica,sans-Serif" font-size="10.00">+ moveX</text>
<text text-anchor="start" x="151" y="-577" font-family="Helvetica,sans-Serif" font-size="10.00">+ moveY</text>
<polyline fill="none" stroke="black" points="143,-570 282,-570 "/>
<text text-anchor="middle" x="212.5" y="-558" font-family="Helvetica,sans-Serif" font-size="10.00"> </text>
</a>
</g>
</g>
<!-- Node4&#45;&gt;Node1 -->
<g id="edge3" class="edge">
<title>Node4&#45;&gt;Node1</title>
<path fill="none" stroke="#404040" d="M224.15,-550.99C229.37,-533.72 236.01,-511.77 243.33,-487.55"/>
<polygon fill="none" stroke="#404040" points="243.39,-487.36 241.3,-480.46 246.86,-475.88 248.95,-482.78 243.39,-487.36"/>
<text text-anchor="middle" x="264.5" y="-497" font-family="Helvetica,sans-Serif" font-size="10.00"> &#45;_moves</text>
</g>
<!-- Node5 -->
<g id="node5" class="node">
<title>Node5</title>
<g id="a_node5"><a xlink:href="structArcade_1_1Pacman_1_1Pacman_1_1Ghost.html" target="_top" xlink:title="The ghost struct.">
<polygon fill="white" stroke="black" points="427,-556.5 427,-624.5 566,-624.5 566,-556.5 427,-556.5"/>
<text text-anchor="start" x="435" y="-612.5" font-family="Helvetica,sans-Serif" font-size="10.00">Arcade::Pacman::Pacman</text>
<text text-anchor="middle" x="496.5" y="-601.5" font-family="Helvetica,sans-Serif" font-size="10.00">::Ghost</text>
<polyline fill="none" stroke="black" points="427,-594.5 566,-594.5 "/>
<text text-anchor="start" x="435" y="-582.5" font-family="Helvetica,sans-Serif" font-size="10.00">+ speed</text>
<polyline fill="none" stroke="black" points="427,-575.5 566,-575.5 "/>
<text text-anchor="middle" x="496.5" y="-563.5" font-family="Helvetica,sans-Serif" font-size="10.00"> </text>
</a>
</g>
</g>
<!-- Node5&#45;&gt;Node1 -->
<g id="edge4" class="edge">
<title>Node5&#45;&gt;Node1</title>
<path fill="none" stroke="#404040" d="M479.59,-556.21C461.58,-520.74 431.69,-461.89 402.52,-404.45"/>
<polygon fill="none" stroke="#404040" points="402.52,-404.44 396.24,-400.91 397.09,-393.74 403.37,-397.28 402.52,-404.44"/>
<text text-anchor="middle" x="476" y="-497" font-family="Helvetica,sans-Serif" font-size="10.00"> &#45;_ghosts</text>
</g>
<!-- Node6 -->
<g id="node6" class="node">
<title>Node6</title>
<g id="a_node6"><a xlink:href="structArcade_1_1Drawables_1_1Sprite.html" target="_top" xlink:title="A Sprite game object.">
<polygon fill="white" stroke="black" points="416.5,-774.5 416.5,-875.5 530.5,-875.5 530.5,-774.5 416.5,-774.5"/>
<text text-anchor="start" x="424.5" y="-863.5" font-family="Helvetica,sans-Serif" font-size="10.00">Arcade::Drawables::</text>
<text text-anchor="middle" x="473.5" y="-852.5" font-family="Helvetica,sans-Serif" font-size="10.00">Sprite</text>
<polyline fill="none" stroke="black" points="416.5,-845.5 530.5,-845.5 "/>
<text text-anchor="start" x="424.5" y="-833.5" font-family="Helvetica,sans-Serif" font-size="10.00">+ sizeX</text>
<text text-anchor="start" x="424.5" y="-822.5" font-family="Helvetica,sans-Serif" font-size="10.00">+ sizeY</text>
<text text-anchor="start" x="424.5" y="-811.5" font-family="Helvetica,sans-Serif" font-size="10.00">+ rotation</text>
<text text-anchor="start" x="424.5" y="-800.5" font-family="Helvetica,sans-Serif" font-size="10.00">+ path</text>
<polyline fill="none" stroke="black" points="416.5,-793.5 530.5,-793.5 "/>
<text text-anchor="middle" x="473.5" y="-781.5" font-family="Helvetica,sans-Serif" font-size="10.00"> </text>
</a>
</g>
</g>
<!-- Node6&#45;&gt;Node1 -->
<g id="edge9" class="edge">
<title>Node6&#45;&gt;Node1</title>
<path fill="none" stroke="#404040" d="M416.49,-777.77C383.84,-747.54 345.82,-705.03 327.5,-658 306.85,-604.99 297.98,-545.27 295.61,-487.9"/>
<polygon fill="none" stroke="#404040" points="295.6,-487.68 291.4,-481.82 295.2,-475.69 299.4,-481.55 295.6,-487.68"/>
<text text-anchor="middle" x="372.5" y="-588" font-family="Helvetica,sans-Serif" font-size="10.00"> &#45;_playerDrawable</text>
</g>
<!-- Node6&#45;&gt;Node5 -->
<g id="edge5" class="edge">
<title>Node6&#45;&gt;Node5</title>
<path fill="none" stroke="#404040" d="M470.24,-774.25C469.93,-768.11 469.67,-761.91 469.5,-756 468.46,-720.46 464.02,-711.13 469.5,-676 471.55,-662.85 475.29,-648.96 479.35,-636.31"/>
<polygon fill="none" stroke="#404040" points="479.45,-636.01 477.58,-629.05 483.29,-624.64 485.16,-631.61 479.45,-636.01"/>
<text text-anchor="middle" x="498" y="-713.5" font-family="Helvetica,sans-Serif" font-size="10.00"> +drawable</text>
</g>
<!-- Node7 -->
<g id="node7" class="node">
<title>Node7</title>
<g id="a_node7"><a xlink:href="structArcade_1_1Drawables_1_1ADrawable.html" target="_top" xlink:title="A base struct for every objects in the game.">
<polygon fill="white" stroke="black" points="469.5,-913.5 469.5,-1014.5 583.5,-1014.5 583.5,-913.5 469.5,-913.5"/>
<text text-anchor="start" x="477.5" y="-1002.5" font-family="Helvetica,sans-Serif" font-size="10.00">Arcade::Drawables::</text>
<text text-anchor="middle" x="526.5" y="-991.5" font-family="Helvetica,sans-Serif" font-size="10.00">ADrawable</text>
<polyline fill="none" stroke="black" points="469.5,-984.5 583.5,-984.5 "/>
<text text-anchor="start" x="477.5" y="-972.5" font-family="Helvetica,sans-Serif" font-size="10.00">+ x</text>
<text text-anchor="start" x="477.5" y="-961.5" font-family="Helvetica,sans-Serif" font-size="10.00">+ y</text>
<text text-anchor="start" x="477.5" y="-950.5" font-family="Helvetica,sans-Serif" font-size="10.00">+ color</text>
<text text-anchor="start" x="477.5" y="-939.5" font-family="Helvetica,sans-Serif" font-size="10.00">+ fallback</text>
<polyline fill="none" stroke="black" points="469.5,-932.5 583.5,-932.5 "/>
<text text-anchor="start" x="477.5" y="-920.5" font-family="Helvetica,sans-Serif" font-size="10.00">+ ~ADrawable()</text>
</a>
</g>
</g>
<!-- Node7&#45;&gt;Node6 -->
<g id="edge6" class="edge">
<title>Node7&#45;&gt;Node6</title>
<path fill="none" stroke="midnightblue" d="M503.5,-903.54C499.89,-894.21 496.19,-884.66 492.68,-875.58"/>
<polygon fill="none" stroke="midnightblue" points="500.34,-905.09 507.22,-913.15 506.87,-902.56 500.34,-905.09"/>
</g>
<!-- Node8 -->
<g id="node8" class="node">
<title>Node8</title>
<g id="a_node8"><a xlink:href="structArcade_1_1Drawables_1_1Text.html" target="_top" xlink:title="A text object.">
<polygon fill="white" stroke="black" points="535.5,-676.5 535.5,-755.5 669.5,-755.5 669.5,-676.5 535.5,-676.5"/>
<text text-anchor="middle" x="602.5" y="-743.5" font-family="Helvetica,sans-Serif" font-size="10.00">Arcade::Drawables::Text</text>
<polyline fill="none" stroke="black" points="535.5,-736.5 669.5,-736.5 "/>
<text text-anchor="start" x="543.5" y="-724.5" font-family="Helvetica,sans-Serif" font-size="10.00">+ text</text>
<text text-anchor="start" x="543.5" y="-713.5" font-family="Helvetica,sans-Serif" font-size="10.00">+ fontSize</text>
<text text-anchor="start" x="543.5" y="-702.5" font-family="Helvetica,sans-Serif" font-size="10.00">+ path</text>
<polyline fill="none" stroke="black" points="535.5,-695.5 669.5,-695.5 "/>
<text text-anchor="middle" x="602.5" y="-683.5" font-family="Helvetica,sans-Serif" font-size="10.00"> </text>
</a>
</g>
</g>
<!-- Node7&#45;&gt;Node8 -->
<g id="edge8" class="edge">
<title>Node7&#45;&gt;Node8</title>
<path fill="none" stroke="midnightblue" d="M544.91,-903.4C559.09,-857.52 578.26,-795.45 590.51,-755.81"/>
<polygon fill="none" stroke="midnightblue" points="541.49,-902.63 541.88,-913.22 548.18,-904.7 541.49,-902.63"/>
</g>
<!-- Node8&#45;&gt;Node1 -->
<g id="edge7" class="edge">
<title>Node8&#45;&gt;Node1</title>
<path fill="none" stroke="#404040" d="M603.6,-676.33C603.28,-636.16 598.61,-572.39 575.5,-523 536.45,-439.53 464.36,-363.2 406.45,-310.75"/>
<polygon fill="none" stroke="#404040" points="406.22,-310.54 399.08,-309.52 397.28,-302.54 404.42,-303.56 406.22,-310.54"/>
<text text-anchor="middle" x="645" y="-588" font-family="Helvetica,sans-Serif" font-size="10.00"> &#45;_scoreDrawable</text>
</g>
</g>
</svg>
