<?xml version="1.0" encoding="UTF-8" standalone="no"?>
<!DOCTYPE svg PUBLIC "-//W3C//DTD SVG 1.1//EN"
 "http://www.w3.org/Graphics/SVG/1.1/DTD/svg11.dtd">
<!-- Generated by graphviz version 2.43.0 (0)
 -->
<!-- Title: Arcade::IGameModule Pages: 1 -->
<svg width="133pt" height="281pt"
 viewBox="0.00 0.00 133.00 281.00" xmlns="http://www.w3.org/2000/svg" xmlns:xlink="http://www.w3.org/1999/xlink">
<g id="graph0" class="graph" transform="scale(1 1) rotate(0) translate(4 277)">
<title>Arcade::IGameModule</title>
<polygon fill="white" stroke="transparent" points="-4,4 -4,-277 129,-277 129,4 -4,4"/>
<!-- Node1 -->
<g id="node1" class="node">
<title>Node1</title>
<g id="a_node1"><a xlink:title="The interface of all games.">
<polygon fill="#bfbfbf" stroke="black" points="0,-0.5 0,-134.5 125,-134.5 125,-0.5 0,-0.5"/>
<text text-anchor="middle" x="62.5" y="-122.5" font-family="Helvetica,sans-Serif" font-size="10.00">Arcade::IGameModule</text>
<polyline fill="none" stroke="black" points="0,-115.5 125,-115.5 "/>
<text text-anchor="middle" x="62.5" y="-103.5" font-family="Helvetica,sans-Serif" font-size="10.00"> </text>
<polyline fill="none" stroke="black" points="0,-96.5 125,-96.5 "/>
<text text-anchor="start" x="8" y="-84.5" font-family="Helvetica,sans-Serif" font-size="10.00">+ ~IGameModule()</text>
<text text-anchor="start" x="8" y="-73.5" font-family="Helvetica,sans-Serif" font-size="10.00">+ getResources()</text>
<text text-anchor="start" x="8" y="-62.5" font-family="Helvetica,sans-Serif" font-size="10.00">+ getDrawables()</text>
<text text-anchor="start" x="8" y="-51.5" font-family="Helvetica,sans-Serif" font-size="10.00">+ getSounds()</text>
<text text-anchor="start" x="8" y="-40.5" font-family="Helvetica,sans-Serif" font-size="10.00">+ addTicks()</text>
<text text-anchor="start" x="8" y="-29.5" font-family="Helvetica,sans-Serif" font-size="10.00">+ restart()</text>
<text text-anchor="start" x="8" y="-18.5" font-family="Helvetica,sans-Serif" font-size="10.00">+ handleEvent()</text>
<text text-anchor="start" x="8" y="-7.5" font-family="Helvetica,sans-Serif" font-size="10.00">+ getScore()</text>
</a>
</g>
</g>
<!-- Node2 -->
<g id="node2" class="node">
<title>Node2</title>
<g id="a_node2"><a xlink:href="classArcade_1_1IModule.html" target="_top" xlink:title="A base module interface.">
<polygon fill="white" stroke="black" points="15,-171.5 15,-272.5 110,-272.5 110,-171.5 15,-171.5"/>
<text text-anchor="middle" x="62.5" y="-260.5" font-family="Helvetica,sans-Serif" font-size="10.00">Arcade::IModule</text>
<polyline fill="none" stroke="black" points="15,-253.5 110,-253.5 "/>
<text text-anchor="middle" x="62.5" y="-241.5" font-family="Helvetica,sans-Serif" font-size="10.00"> </text>
<polyline fill="none" stroke="black" points="15,-234.5 110,-234.5 "/>
<text text-anchor="start" x="23" y="-222.5" font-family="Helvetica,sans-Serif" font-size="10.00">+ ~IModule()</text>
<text text-anchor="start" x="23" y="-211.5" font-family="Helvetica,sans-Serif" font-size="10.00">+ init()</text>
<text text-anchor="start" x="23" y="-200.5" font-family="Helvetica,sans-Serif" font-size="10.00">+ close()</text>
<text text-anchor="start" x="23" y="-189.5" font-family="Helvetica,sans-Serif" font-size="10.00">+ shouldClose()</text>
<text text-anchor="start" x="23" y="-178.5" font-family="Helvetica,sans-Serif" font-size="10.00">+ getType()</text>
</a>
</g>
</g>
<!-- Node2&#45;&gt;Node1 -->
<g id="edge1" class="edge">
<title>Node2&#45;&gt;Node1</title>
<path fill="none" stroke="midnightblue" d="M62.5,-161.38C62.5,-152.63 62.5,-143.56 62.5,-134.69"/>
<polygon fill="none" stroke="midnightblue" points="59,-161.49 62.5,-171.49 66,-161.49 59,-161.49"/>
</g>
</g>
</svg>
