<?xml version="1.0" encoding="UTF-8" standalone="no"?>
<!DOCTYPE svg PUBLIC "-//W3C//DTD SVG 1.1//EN"
 "http://www.w3.org/Graphics/SVG/1.1/DTD/svg11.dtd">
<!-- Generated by graphviz version 2.43.0 (0)
 -->
<!-- Title: Arcade::Qix::Qix Pages: 1 -->
<svg width="424pt" height="640pt"
 viewBox="0.00 0.00 423.50 640.00" xmlns="http://www.w3.org/2000/svg" xmlns:xlink="http://www.w3.org/1999/xlink">
<g id="graph0" class="graph" transform="scale(1 1) rotate(0) translate(4 636)">
<title>Arcade::Qix::Qix</title>
<polygon fill="white" stroke="transparent" points="-4,4 -4,-636 419.5,-636 419.5,4 -4,4"/>
<!-- Node1 -->
<g id="node1" class="node">
<title>Node1</title>
<g id="a_node1"><a xlink:title="!">
<polygon fill="#bfbfbf" stroke="black" points="162,-0.5 162,-310.5 265,-310.5 265,-0.5 162,-0.5"/>
<text text-anchor="middle" x="213.5" y="-298.5" font-family="Helvetica,sans-Serif" font-size="10.00">Arcade::Qix::Qix</text>
<polyline fill="none" stroke="black" points="162,-291.5 265,-291.5 "/>
<text text-anchor="start" x="170" y="-279.5" font-family="Helvetica,sans-Serif" font-size="10.00">&#45; _playerPosition</text>
<text text-anchor="start" x="170" y="-268.5" font-family="Helvetica,sans-Serif" font-size="10.00">&#45; _drawType</text>
<text text-anchor="start" x="170" y="-257.5" font-family="Helvetica,sans-Serif" font-size="10.00">&#45; _moveSpeeds</text>
<text text-anchor="start" x="170" y="-246.5" font-family="Helvetica,sans-Serif" font-size="10.00">&#45; _lines</text>
<text text-anchor="start" x="170" y="-235.5" font-family="Helvetica,sans-Serif" font-size="10.00">&#45; _zones</text>
<text text-anchor="start" x="170" y="-224.5" font-family="Helvetica,sans-Serif" font-size="10.00">&#45; _resources</text>
<text text-anchor="start" x="170" y="-213.5" font-family="Helvetica,sans-Serif" font-size="10.00">&#45; _drawables</text>
<text text-anchor="start" x="170" y="-202.5" font-family="Helvetica,sans-Serif" font-size="10.00">&#45; _sounds</text>
<polyline fill="none" stroke="black" points="162,-195.5 265,-195.5 "/>
<text text-anchor="start" x="170" y="-183.5" font-family="Helvetica,sans-Serif" font-size="10.00">+ init()</text>
<text text-anchor="start" x="170" y="-172.5" font-family="Helvetica,sans-Serif" font-size="10.00">+ close()</text>
<text text-anchor="start" x="170" y="-161.5" font-family="Helvetica,sans-Serif" font-size="10.00">+ shouldClose()</text>
<text text-anchor="start" x="170" y="-150.5" font-family="Helvetica,sans-Serif" font-size="10.00">+ getType()</text>
<text text-anchor="start" x="170" y="-139.5" font-family="Helvetica,sans-Serif" font-size="10.00">+ getResources()</text>
<text text-anchor="start" x="170" y="-128.5" font-family="Helvetica,sans-Serif" font-size="10.00">+ getDrawables()</text>
<text text-anchor="start" x="170" y="-117.5" font-family="Helvetica,sans-Serif" font-size="10.00">+ getSounds()</text>
<text text-anchor="start" x="170" y="-106.5" font-family="Helvetica,sans-Serif" font-size="10.00">+ addTicks()</text>
<text text-anchor="start" x="170" y="-95.5" font-family="Helvetica,sans-Serif" font-size="10.00">+ restart()</text>
<text text-anchor="start" x="170" y="-84.5" font-family="Helvetica,sans-Serif" font-size="10.00">+ handleEvent()</text>
<text text-anchor="start" x="170" y="-73.5" font-family="Helvetica,sans-Serif" font-size="10.00">+ getScore()</text>
<text text-anchor="start" x="170" y="-62.5" font-family="Helvetica,sans-Serif" font-size="10.00">+ Qix()</text>
<text text-anchor="start" x="170" y="-51.5" font-family="Helvetica,sans-Serif" font-size="10.00">+ Qix()</text>
<text text-anchor="start" x="170" y="-40.5" font-family="Helvetica,sans-Serif" font-size="10.00">+ ~Qix()</text>
<text text-anchor="start" x="170" y="-29.5" font-family="Helvetica,sans-Serif" font-size="10.00">+ operator=()</text>
<text text-anchor="start" x="170" y="-18.5" font-family="Helvetica,sans-Serif" font-size="10.00">&#45; _startLine()</text>
<text text-anchor="start" x="170" y="-7.5" font-family="Helvetica,sans-Serif" font-size="10.00">&#45; _closeZone()</text>
</a>
</g>
</g>
<!-- Node2 -->
<g id="node2" class="node">
<title>Node2</title>
<g id="a_node2"><a xlink:href="classArcade_1_1IGameModule.html" target="_top" xlink:title="The interface of all games.">
<polygon fill="white" stroke="black" points="0,-358.5 0,-492.5 125,-492.5 125,-358.5 0,-358.5"/>
<text text-anchor="middle" x="62.5" y="-480.5" font-family="Helvetica,sans-Serif" font-size="10.00">Arcade::IGameModule</text>
<polyline fill="none" stroke="black" points="0,-473.5 125,-473.5 "/>
<text text-anchor="middle" x="62.5" y="-461.5" font-family="Helvetica,sans-Serif" font-size="10.00"> </text>
<polyline fill="none" stroke="black" points="0,-454.5 125,-454.5 "/>
<text text-anchor="start" x="8" y="-442.5" font-family="Helvetica,sans-Serif" font-size="10.00">+ ~IGameModule()</text>
<text text-anchor="start" x="8" y="-431.5" font-family="Helvetica,sans-Serif" font-size="10.00">+ getResources()</text>
<text text-anchor="start" x="8" y="-420.5" font-family="Helvetica,sans-Serif" font-size="10.00">+ getDrawables()</text>
<text text-anchor="start" x="8" y="-409.5" font-family="Helvetica,sans-Serif" font-size="10.00">+ getSounds()</text>
<text text-anchor="start" x="8" y="-398.5" font-family="Helvetica,sans-Serif" font-size="10.00">+ addTicks()</text>
<text text-anchor="start" x="8" y="-387.5" font-family="Helvetica,sans-Serif" font-size="10.00">+ restart()</text>
<text text-anchor="start" x="8" y="-376.5" font-family="Helvetica,sans-Serif" font-size="10.00">+ handleEvent()</text>
<text text-anchor="start" x="8" y="-365.5" font-family="Helvetica,sans-Serif" font-size="10.00">+ getScore()</text>
</a>
</g>
</g>
<!-- Node2&#45;&gt;Node1 -->
<g id="edge1" class="edge">
<title>Node2&#45;&gt;Node1</title>
<path fill="none" stroke="midnightblue" d="M104.75,-349.52C122.49,-318.03 143.3,-281.09 161.94,-248.01"/>
<polygon fill="none" stroke="midnightblue" points="101.69,-347.82 99.83,-358.25 107.78,-351.26 101.69,-347.82"/>
</g>
<!-- Node3 -->
<g id="node3" class="node">
<title>Node3</title>
<g id="a_node3"><a xlink:href="classArcade_1_1IModule.html" target="_top" xlink:title="A base module interface.">
<polygon fill="white" stroke="black" points="15,-530.5 15,-631.5 110,-631.5 110,-530.5 15,-530.5"/>
<text text-anchor="middle" x="62.5" y="-619.5" font-family="Helvetica,sans-Serif" font-size="10.00">Arcade::IModule</text>
<polyline fill="none" stroke="black" points="15,-612.5 110,-612.5 "/>
<text text-anchor="middle" x="62.5" y="-600.5" font-family="Helvetica,sans-Serif" font-size="10.00"> </text>
<polyline fill="none" stroke="black" points="15,-593.5 110,-593.5 "/>
<text text-anchor="start" x="23" y="-581.5" font-family="Helvetica,sans-Serif" font-size="10.00">+ ~IModule()</text>
<text text-anchor="start" x="23" y="-570.5" font-family="Helvetica,sans-Serif" font-size="10.00">+ init()</text>
<text text-anchor="start" x="23" y="-559.5" font-family="Helvetica,sans-Serif" font-size="10.00">+ close()</text>
<text text-anchor="start" x="23" y="-548.5" font-family="Helvetica,sans-Serif" font-size="10.00">+ shouldClose()</text>
<text text-anchor="start" x="23" y="-537.5" font-family="Helvetica,sans-Serif" font-size="10.00">+ getType()</text>
</a>
</g>
</g>
<!-- Node3&#45;&gt;Node2 -->
<g id="edge2" class="edge">
<title>Node3&#45;&gt;Node2</title>
<path fill="none" stroke="midnightblue" d="M62.5,-520.13C62.5,-511.09 62.5,-501.73 62.5,-492.57"/>
<polygon fill="none" stroke="midnightblue" points="59,-520.16 62.5,-530.16 66,-520.16 59,-520.16"/>
</g>
<!-- Node4 -->
<g id="node4" class="node">
<title>Node4</title>
<g id="a_node4"><a xlink:href="structArcade_1_1Qix_1_1Qix_1_1PendingMoves.html" target="_top" xlink:title="Struct used to keep pending moves.">
<polygon fill="white" stroke="black" points="143.5,-380.5 143.5,-470.5 283.5,-470.5 283.5,-380.5 143.5,-380.5"/>
<text text-anchor="start" x="151.5" y="-458.5" font-family="Helvetica,sans-Serif" font-size="10.00">Arcade::Qix::Qix::Pending</text>
<text text-anchor="middle" x="213.5" y="-447.5" font-family="Helvetica,sans-Serif" font-size="10.00">Moves</text>
<polyline fill="none" stroke="black" points="143.5,-440.5 283.5,-440.5 "/>
<text text-anchor="start" x="151.5" y="-428.5" font-family="Helvetica,sans-Serif" font-size="10.00">+ moveX</text>
<text text-anchor="start" x="151.5" y="-417.5" font-family="Helvetica,sans-Serif" font-size="10.00">+ moveY</text>
<text text-anchor="start" x="151.5" y="-406.5" font-family="Helvetica,sans-Serif" font-size="10.00">+ draw</text>
<polyline fill="none" stroke="black" points="143.5,-399.5 283.5,-399.5 "/>
<text text-anchor="middle" x="213.5" y="-387.5" font-family="Helvetica,sans-Serif" font-size="10.00"> </text>
</a>
</g>
</g>
<!-- Node4&#45;&gt;Node1 -->
<g id="edge3" class="edge">
<title>Node4&#45;&gt;Node1</title>
<path fill="none" stroke="#404040" d="M213.5,-380.25C213.5,-363.7 213.5,-343.78 213.5,-322.73"/>
<polygon fill="none" stroke="#404040" points="213.5,-322.58 209.5,-316.58 213.5,-310.58 217.5,-316.58 213.5,-322.58"/>
<text text-anchor="middle" x="236.5" y="-332" font-family="Helvetica,sans-Serif" font-size="10.00"> &#45;_moves</text>
</g>
<!-- Node5 -->
<g id="node5" class="node">
<title>Node5</title>
<g id="a_node5"><a xlink:href="structArcade_1_1Drawables_1_1Circle.html" target="_top" xlink:title="A circle game objecct.">
<polygon fill="white" stroke="black" points="301.5,-391.5 301.5,-459.5 415.5,-459.5 415.5,-391.5 301.5,-391.5"/>
<text text-anchor="start" x="309.5" y="-447.5" font-family="Helvetica,sans-Serif" font-size="10.00">Arcade::Drawables::</text>
<text text-anchor="middle" x="358.5" y="-436.5" font-family="Helvetica,sans-Serif" font-size="10.00">Circle</text>
<polyline fill="none" stroke="black" points="301.5,-429.5 415.5,-429.5 "/>
<text text-anchor="start" x="309.5" y="-417.5" font-family="Helvetica,sans-Serif" font-size="10.00">+ size</text>
<polyline fill="none" stroke="black" points="301.5,-410.5 415.5,-410.5 "/>
<text text-anchor="middle" x="358.5" y="-398.5" font-family="Helvetica,sans-Serif" font-size="10.00"> </text>
</a>
</g>
</g>
<!-- Node5&#45;&gt;Node1 -->
<g id="edge4" class="edge">
<title>Node5&#45;&gt;Node1</title>
<path fill="none" stroke="#404040" d="M340.57,-391.37C323.14,-359.15 295.72,-308.46 270.8,-262.4"/>
<polygon fill="none" stroke="#404040" points="270.74,-262.29 264.36,-258.92 265.03,-251.74 271.4,-255.11 270.74,-262.29"/>
<text text-anchor="middle" x="357.5" y="-332" font-family="Helvetica,sans-Serif" font-size="10.00"> &#45;_playerDrawable</text>
</g>
<!-- Node6 -->
<g id="node6" class="node">
<title>Node6</title>
<g id="a_node6"><a xlink:href="structArcade_1_1Drawables_1_1ADrawable.html" target="_top" xlink:title="A base struct for every objects in the game.">
<polygon fill="white" stroke="black" points="301.5,-530.5 301.5,-631.5 415.5,-631.5 415.5,-530.5 301.5,-530.5"/>
<text text-anchor="start" x="309.5" y="-619.5" font-family="Helvetica,sans-Serif" font-size="10.00">Arcade::Drawables::</text>
<text text-anchor="middle" x="358.5" y="-608.5" font-family="Helvetica,sans-Serif" font-size="10.00">ADrawable</text>
<polyline fill="none" stroke="black" points="301.5,-601.5 415.5,-601.5 "/>
<text text-anchor="start" x="309.5" y="-589.5" font-family="Helvetica,sans-Serif" font-size="10.00">+ x</text>
<text text-anchor="start" x="309.5" y="-578.5" font-family="Helvetica,sans-Serif" font-size="10.00">+ y</text>
<text text-anchor="start" x="309.5" y="-567.5" font-family="Helvetica,sans-Serif" font-size="10.00">+ color</text>
<text text-anchor="start" x="309.5" y="-556.5" font-family="Helvetica,sans-Serif" font-size="10.00">+ fallback</text>
<polyline fill="none" stroke="black" points="301.5,-549.5 415.5,-549.5 "/>
<text text-anchor="start" x="309.5" y="-537.5" font-family="Helvetica,sans-Serif" font-size="10.00">+ ~ADrawable()</text>
</a>
</g>
</g>
<!-- Node6&#45;&gt;Node5 -->
<g id="edge5" class="edge">
<title>Node6&#45;&gt;Node5</title>
<path fill="none" stroke="midnightblue" d="M358.5,-519.94C358.5,-499.42 358.5,-477.24 358.5,-459.64"/>
<polygon fill="none" stroke="midnightblue" points="355,-520.16 358.5,-530.16 362,-520.16 355,-520.16"/>
</g>
</g>
</svg>
