<?xml version="1.0" encoding="UTF-8" standalone="no"?>
<!DOCTYPE svg PUBLIC "-//W3C//DTD SVG 1.1//EN"
 "http://www.w3.org/Graphics/SVG/1.1/DTD/svg11.dtd">
<!-- Generated by graphviz version 2.43.0 (0)
 -->
<!-- Title: Arcade::ResourceCreationFailure Pages: 1 -->
<svg width="170pt" height="193pt"
 viewBox="0.00 0.00 170.00 193.00" xmlns="http://www.w3.org/2000/svg" xmlns:xlink="http://www.w3.org/1999/xlink">
<g id="graph0" class="graph" transform="scale(1 1) rotate(0) translate(4 189)">
<title>Arcade::ResourceCreationFailure</title>
<polygon fill="white" stroke="transparent" points="-4,4 -4,-189 166,-189 166,4 -4,4"/>
<!-- Node1 -->
<g id="node1" class="node">
<title>Node1</title>
<g id="a_node1"><a xlink:title=" ">
<polygon fill="#bfbfbf" stroke="black" points="0,-0.5 0,-90.5 162,-90.5 162,-0.5 0,-0.5"/>
<text text-anchor="start" x="8" y="-78.5" font-family="Helvetica,sans-Serif" font-size="10.00">Arcade::ResourceCreation</text>
<text text-anchor="middle" x="81" y="-67.5" font-family="Helvetica,sans-Serif" font-size="10.00">Failure</text>
<polyline fill="none" stroke="black" points="0,-60.5 162,-60.5 "/>
<text text-anchor="middle" x="81" y="-48.5" font-family="Helvetica,sans-Serif" font-size="10.00"> </text>
<polyline fill="none" stroke="black" points="0,-41.5 162,-41.5 "/>
<text text-anchor="start" x="8" y="-29.5" font-family="Helvetica,sans-Serif" font-size="10.00">+ ResourceCreationFailure()</text>
<text text-anchor="start" x="8" y="-18.5" font-family="Helvetica,sans-Serif" font-size="10.00">+ ResourceCreationFailure()</text>
<text text-anchor="start" x="8" y="-7.5" font-family="Helvetica,sans-Serif" font-size="10.00">+ ~ResourceCreationFailure()</text>
</a>
</g>
</g>
<!-- Node2 -->
<g id="node2" class="node">
<title>Node2</title>
<g id="a_node2"><a xlink:title=" ">
<polygon fill="white" stroke="#bfbfbf" points="29,-127.5 29,-184.5 133,-184.5 133,-127.5 29,-127.5"/>
<text text-anchor="middle" x="81" y="-172.5" font-family="Helvetica,sans-Serif" font-size="10.00">std::runtime_error</text>
<polyline fill="none" stroke="#bfbfbf" points="29,-165.5 133,-165.5 "/>
<text text-anchor="middle" x="81" y="-153.5" font-family="Helvetica,sans-Serif" font-size="10.00"> </text>
<polyline fill="none" stroke="#bfbfbf" points="29,-146.5 133,-146.5 "/>
<text text-anchor="middle" x="81" y="-134.5" font-family="Helvetica,sans-Serif" font-size="10.00"> </text>
</a>
</g>
</g>
<!-- Node2&#45;&gt;Node1 -->
<g id="edge1" class="edge">
<title>Node2&#45;&gt;Node1</title>
<path fill="none" stroke="midnightblue" d="M81,-117.21C81,-108.61 81,-99.39 81,-90.55"/>
<polygon fill="none" stroke="midnightblue" points="77.5,-117.34 81,-127.34 84.5,-117.34 77.5,-117.34"/>
</g>
</g>
</svg>
