<?xml version="1.0" encoding="UTF-8" standalone="no"?>
<!DOCTYPE svg PUBLIC "-//W3C//DTD SVG 1.1//EN"
 "http://www.w3.org/Graphics/SVG/1.1/DTD/svg11.dtd">
<!-- Generated by graphviz version 2.43.0 (0)
 -->
<!-- Title: Arcade::Menu::Menu Pages: 1 -->
<svg width="133pt" height="573pt"
 viewBox="0.00 0.00 133.00 573.00" xmlns="http://www.w3.org/2000/svg" xmlns:xlink="http://www.w3.org/1999/xlink">
<g id="graph0" class="graph" transform="scale(1 1) rotate(0) translate(4 569)">
<title>Arcade::Menu::Menu</title>
<polygon fill="white" stroke="transparent" points="-4,4 -4,-569 129,-569 129,4 -4,4"/>
<!-- Node1 -->
<g id="node1" class="node">
<title>Node1</title>
<g id="a_node1"><a xlink:title="A menu that allow the user to select a game and a display module.">
<polygon fill="#bfbfbf" stroke="black" points="4.5,-0.5 4.5,-255.5 120.5,-255.5 120.5,-0.5 4.5,-0.5"/>
<text text-anchor="middle" x="62.5" y="-243.5" font-family="Helvetica,sans-Serif" font-size="10.00">Arcade::Menu::Menu</text>
<polyline fill="none" stroke="black" points="4.5,-236.5 120.5,-236.5 "/>
<text text-anchor="start" x="12.5" y="-224.5" font-family="Helvetica,sans-Serif" font-size="10.00">&#45; _runner</text>
<text text-anchor="start" x="12.5" y="-213.5" font-family="Helvetica,sans-Serif" font-size="10.00">&#45; _drawables</text>
<text text-anchor="start" x="12.5" y="-202.5" font-family="Helvetica,sans-Serif" font-size="10.00">&#45; _resources</text>
<text text-anchor="start" x="12.5" y="-191.5" font-family="Helvetica,sans-Serif" font-size="10.00">&#45; _sounds</text>
<text text-anchor="start" x="12.5" y="-180.5" font-family="Helvetica,sans-Serif" font-size="10.00">&#45; _shouldClose</text>
<polyline fill="none" stroke="black" points="4.5,-173.5 120.5,-173.5 "/>
<text text-anchor="start" x="12.5" y="-161.5" font-family="Helvetica,sans-Serif" font-size="10.00">+ init()</text>
<text text-anchor="start" x="12.5" y="-150.5" font-family="Helvetica,sans-Serif" font-size="10.00">+ close()</text>
<text text-anchor="start" x="12.5" y="-139.5" font-family="Helvetica,sans-Serif" font-size="10.00">+ shouldClose()</text>
<text text-anchor="start" x="12.5" y="-128.5" font-family="Helvetica,sans-Serif" font-size="10.00">+ getType()</text>
<text text-anchor="start" x="12.5" y="-117.5" font-family="Helvetica,sans-Serif" font-size="10.00">+ getResources()</text>
<text text-anchor="start" x="12.5" y="-106.5" font-family="Helvetica,sans-Serif" font-size="10.00">+ getDrawables()</text>
<text text-anchor="start" x="12.5" y="-95.5" font-family="Helvetica,sans-Serif" font-size="10.00">+ getSounds()</text>
<text text-anchor="start" x="12.5" y="-84.5" font-family="Helvetica,sans-Serif" font-size="10.00">+ addTicks()</text>
<text text-anchor="start" x="12.5" y="-73.5" font-family="Helvetica,sans-Serif" font-size="10.00">+ restart()</text>
<text text-anchor="start" x="12.5" y="-62.5" font-family="Helvetica,sans-Serif" font-size="10.00">+ handleEvent()</text>
<text text-anchor="start" x="12.5" y="-51.5" font-family="Helvetica,sans-Serif" font-size="10.00">+ getScore()</text>
<text text-anchor="start" x="12.5" y="-40.5" font-family="Helvetica,sans-Serif" font-size="10.00">+ Menu()</text>
<text text-anchor="start" x="12.5" y="-29.5" font-family="Helvetica,sans-Serif" font-size="10.00">+ Menu()</text>
<text text-anchor="start" x="12.5" y="-18.5" font-family="Helvetica,sans-Serif" font-size="10.00">+ ~Menu()</text>
<text text-anchor="start" x="12.5" y="-7.5" font-family="Helvetica,sans-Serif" font-size="10.00">+ operator=()</text>
</a>
</g>
</g>
<!-- Node2 -->
<g id="node2" class="node">
<title>Node2</title>
<g id="a_node2"><a xlink:href="classArcade_1_1IGameModule.html" target="_top" xlink:title="The interface of all games.">
<polygon fill="white" stroke="black" points="0,-292.5 0,-426.5 125,-426.5 125,-292.5 0,-292.5"/>
<text text-anchor="middle" x="62.5" y="-414.5" font-family="Helvetica,sans-Serif" font-size="10.00">Arcade::IGameModule</text>
<polyline fill="none" stroke="black" points="0,-407.5 125,-407.5 "/>
<text text-anchor="middle" x="62.5" y="-395.5" font-family="Helvetica,sans-Serif" font-size="10.00"> </text>
<polyline fill="none" stroke="black" points="0,-388.5 125,-388.5 "/>
<text text-anchor="start" x="8" y="-376.5" font-family="Helvetica,sans-Serif" font-size="10.00">+ ~IGameModule()</text>
<text text-anchor="start" x="8" y="-365.5" font-family="Helvetica,sans-Serif" font-size="10.00">+ getResources()</text>
<text text-anchor="start" x="8" y="-354.5" font-family="Helvetica,sans-Serif" font-size="10.00">+ getDrawables()</text>
<text text-anchor="start" x="8" y="-343.5" font-family="Helvetica,sans-Serif" font-size="10.00">+ getSounds()</text>
<text text-anchor="start" x="8" y="-332.5" font-family="Helvetica,sans-Serif" font-size="10.00">+ addTicks()</text>
<text text-anchor="start" x="8" y="-321.5" font-family="Helvetica,sans-Serif" font-size="10.00">+ restart()</text>
<text text-anchor="start" x="8" y="-310.5" font-family="Helvetica,sans-Serif" font-size="10.00">+ handleEvent()</text>
<text text-anchor="start" x="8" y="-299.5" font-family="Helvetica,sans-Serif" font-size="10.00">+ getScore()</text>
</a>
</g>
</g>
<!-- Node2&#45;&gt;Node1 -->
<g id="edge1" class="edge">
<title>Node2&#45;&gt;Node1</title>
<path fill="none" stroke="midnightblue" d="M62.5,-282.41C62.5,-273.74 62.5,-264.74 62.5,-255.63"/>
<polygon fill="none" stroke="midnightblue" points="59,-282.43 62.5,-292.43 66,-282.43 59,-282.43"/>
</g>
<!-- Node3 -->
<g id="node3" class="node">
<title>Node3</title>
<g id="a_node3"><a xlink:href="classArcade_1_1IModule.html" target="_top" xlink:title="A base module interface.">
<polygon fill="white" stroke="black" points="15,-463.5 15,-564.5 110,-564.5 110,-463.5 15,-463.5"/>
<text text-anchor="middle" x="62.5" y="-552.5" font-family="Helvetica,sans-Serif" font-size="10.00">Arcade::IModule</text>
<polyline fill="none" stroke="black" points="15,-545.5 110,-545.5 "/>
<text text-anchor="middle" x="62.5" y="-533.5" font-family="Helvetica,sans-Serif" font-size="10.00"> </text>
<polyline fill="none" stroke="black" points="15,-526.5 110,-526.5 "/>
<text text-anchor="start" x="23" y="-514.5" font-family="Helvetica,sans-Serif" font-size="10.00">+ ~IModule()</text>
<text text-anchor="start" x="23" y="-503.5" font-family="Helvetica,sans-Serif" font-size="10.00">+ init()</text>
<text text-anchor="start" x="23" y="-492.5" font-family="Helvetica,sans-Serif" font-size="10.00">+ close()</text>
<text text-anchor="start" x="23" y="-481.5" font-family="Helvetica,sans-Serif" font-size="10.00">+ shouldClose()</text>
<text text-anchor="start" x="23" y="-470.5" font-family="Helvetica,sans-Serif" font-size="10.00">+ getType()</text>
</a>
</g>
</g>
<!-- Node3&#45;&gt;Node2 -->
<g id="edge2" class="edge">
<title>Node3&#45;&gt;Node2</title>
<path fill="none" stroke="midnightblue" d="M62.5,-453.38C62.5,-444.63 62.5,-435.56 62.5,-426.69"/>
<polygon fill="none" stroke="midnightblue" points="59,-453.49 62.5,-463.49 66,-453.49 59,-453.49"/>
</g>
</g>
</svg>
