<?xml version="1.0" encoding="UTF-8" standalone="no"?>
<!DOCTYPE svg PUBLIC "-//W3C//DTD SVG 1.1//EN"
 "http://www.w3.org/Graphics/SVG/1.1/DTD/svg11.dtd">
<!-- Generated by graphviz version 2.43.0 (0)
 -->
<!-- Title: Arcade::Nibbler::Nibbler Pages: 1 -->
<svg width="569pt" height="937pt"
 viewBox="0.00 0.00 569.00 937.00" xmlns="http://www.w3.org/2000/svg" xmlns:xlink="http://www.w3.org/1999/xlink">
<g id="graph0" class="graph" transform="scale(1 1) rotate(0) translate(4 933)">
<title>Arcade::Nibbler::Nibbler</title>
<polygon fill="white" stroke="transparent" points="-4,4 -4,-933 565,-933 565,4 -4,4"/>
<!-- Node1 -->
<g id="node1" class="node">
<title>Node1</title>
<g id="a_node1"><a xlink:title="!">
<polygon fill="#bfbfbf" stroke="black" points="204.5,-0.5 204.5,-596.5 356.5,-596.5 356.5,-0.5 204.5,-0.5"/>
<text text-anchor="middle" x="280.5" y="-584.5" font-family="Helvetica,sans-Serif" font-size="10.00">Arcade::Nibbler::Nibbler</text>
<polyline fill="none" stroke="black" points="204.5,-577.5 356.5,-577.5 "/>
<text text-anchor="start" x="212.5" y="-565.5" font-family="Helvetica,sans-Serif" font-size="10.00">&#45; _playerPosition</text>
<text text-anchor="start" x="212.5" y="-554.5" font-family="Helvetica,sans-Serif" font-size="10.00">&#45; _playerMovement</text>
<text text-anchor="start" x="212.5" y="-543.5" font-family="Helvetica,sans-Serif" font-size="10.00">&#45; _snake</text>
<text text-anchor="start" x="212.5" y="-532.5" font-family="Helvetica,sans-Serif" font-size="10.00">&#45; _food</text>
<text text-anchor="start" x="212.5" y="-521.5" font-family="Helvetica,sans-Serif" font-size="10.00">&#45; _internalClock</text>
<text text-anchor="start" x="212.5" y="-510.5" font-family="Helvetica,sans-Serif" font-size="10.00">&#45; _ticksPerFrame</text>
<text text-anchor="start" x="212.5" y="-499.5" font-family="Helvetica,sans-Serif" font-size="10.00">&#45; _diffClock</text>
<text text-anchor="start" x="212.5" y="-488.5" font-family="Helvetica,sans-Serif" font-size="10.00">&#45; _shouldClose</text>
<text text-anchor="start" x="212.5" y="-477.5" font-family="Helvetica,sans-Serif" font-size="10.00">&#45; _gameScore</text>
<text text-anchor="start" x="212.5" y="-466.5" font-family="Helvetica,sans-Serif" font-size="10.00">&#45; _resources</text>
<text text-anchor="start" x="212.5" y="-455.5" font-family="Helvetica,sans-Serif" font-size="10.00">&#45; _drawables</text>
<text text-anchor="start" x="212.5" y="-444.5" font-family="Helvetica,sans-Serif" font-size="10.00">&#45; _sounds</text>
<text text-anchor="start" x="212.5" y="-433.5" font-family="Helvetica,sans-Serif" font-size="10.00">&#45; _map</text>
<text text-anchor="start" x="212.5" y="-422.5" font-family="Helvetica,sans-Serif" font-size="10.00">&#45; mapTileLength</text>
<text text-anchor="start" x="212.5" y="-411.5" font-family="Helvetica,sans-Serif" font-size="10.00">&#45; mapOffsetTileX</text>
<text text-anchor="start" x="212.5" y="-400.5" font-family="Helvetica,sans-Serif" font-size="10.00">&#45; mapOffsetTileY</text>
<text text-anchor="start" x="212.5" y="-389.5" font-family="Helvetica,sans-Serif" font-size="10.00">&#45; mapBushColor</text>
<text text-anchor="start" x="212.5" y="-378.5" font-family="Helvetica,sans-Serif" font-size="10.00">&#45; snakeSpeed</text>
<text text-anchor="start" x="212.5" y="-367.5" font-family="Helvetica,sans-Serif" font-size="10.00">&#45; largeFoodFilename</text>
<text text-anchor="start" x="212.5" y="-356.5" font-family="Helvetica,sans-Serif" font-size="10.00">&#45; smallFoodFilename</text>
<text text-anchor="start" x="212.5" y="-345.5" font-family="Helvetica,sans-Serif" font-size="10.00">&#45; snakeCorpFilename</text>
<text text-anchor="start" x="212.5" y="-334.5" font-family="Helvetica,sans-Serif" font-size="10.00">&#45; snakeHeadFilename</text>
<text text-anchor="start" x="212.5" y="-323.5" font-family="Helvetica,sans-Serif" font-size="10.00">&#45; snakeTailFilename</text>
<text text-anchor="start" x="212.5" y="-312.5" font-family="Helvetica,sans-Serif" font-size="10.00">&#45; snakeTurn1Filename</text>
<text text-anchor="start" x="212.5" y="-301.5" font-family="Helvetica,sans-Serif" font-size="10.00">&#45; snakeTurn2Filename</text>
<polyline fill="none" stroke="black" points="204.5,-294.5 356.5,-294.5 "/>
<text text-anchor="start" x="212.5" y="-282.5" font-family="Helvetica,sans-Serif" font-size="10.00">+ init()</text>
<text text-anchor="start" x="212.5" y="-271.5" font-family="Helvetica,sans-Serif" font-size="10.00">+ close()</text>
<text text-anchor="start" x="212.5" y="-260.5" font-family="Helvetica,sans-Serif" font-size="10.00">+ shouldClose()</text>
<text text-anchor="start" x="212.5" y="-249.5" font-family="Helvetica,sans-Serif" font-size="10.00">+ getType()</text>
<text text-anchor="start" x="212.5" y="-238.5" font-family="Helvetica,sans-Serif" font-size="10.00">+ getResources()</text>
<text text-anchor="start" x="212.5" y="-227.5" font-family="Helvetica,sans-Serif" font-size="10.00">+ getDrawables()</text>
<text text-anchor="start" x="212.5" y="-216.5" font-family="Helvetica,sans-Serif" font-size="10.00">+ getSounds()</text>
<text text-anchor="start" x="212.5" y="-205.5" font-family="Helvetica,sans-Serif" font-size="10.00">+ addTicks()</text>
<text text-anchor="start" x="212.5" y="-194.5" font-family="Helvetica,sans-Serif" font-size="10.00">+ restart()</text>
<text text-anchor="start" x="212.5" y="-183.5" font-family="Helvetica,sans-Serif" font-size="10.00">+ handleEvent()</text>
<text text-anchor="start" x="212.5" y="-172.5" font-family="Helvetica,sans-Serif" font-size="10.00">+ getScore()</text>
<text text-anchor="start" x="212.5" y="-161.5" font-family="Helvetica,sans-Serif" font-size="10.00">+ Nibbler()</text>
<text text-anchor="start" x="212.5" y="-150.5" font-family="Helvetica,sans-Serif" font-size="10.00">+ Nibbler()</text>
<text text-anchor="start" x="212.5" y="-139.5" font-family="Helvetica,sans-Serif" font-size="10.00">+ ~Nibbler()</text>
<text text-anchor="start" x="212.5" y="-128.5" font-family="Helvetica,sans-Serif" font-size="10.00">+ operator=()</text>
<text text-anchor="start" x="212.5" y="-117.5" font-family="Helvetica,sans-Serif" font-size="10.00">&#45; _createMapFromVector()</text>
<text text-anchor="start" x="212.5" y="-106.5" font-family="Helvetica,sans-Serif" font-size="10.00">&#45; _getRectangleFromChar()</text>
<text text-anchor="start" x="212.5" y="-95.5" font-family="Helvetica,sans-Serif" font-size="10.00">&#45; _collideWithWallMap()</text>
<text text-anchor="start" x="212.5" y="-84.5" font-family="Helvetica,sans-Serif" font-size="10.00">&#45; _getSpriteFromChar()</text>
<text text-anchor="start" x="212.5" y="-73.5" font-family="Helvetica,sans-Serif" font-size="10.00">&#45; _getCircleFromChar()</text>
<text text-anchor="start" x="212.5" y="-62.5" font-family="Helvetica,sans-Serif" font-size="10.00">&#45; _collideWithPacgumFood()</text>
<text text-anchor="start" x="212.5" y="-51.5" font-family="Helvetica,sans-Serif" font-size="10.00">&#45; _processMovement()</text>
<text text-anchor="start" x="212.5" y="-40.5" font-family="Helvetica,sans-Serif" font-size="10.00">&#45; _processScore()</text>
<text text-anchor="start" x="212.5" y="-29.5" font-family="Helvetica,sans-Serif" font-size="10.00">&#45; _startGame()</text>
<text text-anchor="start" x="212.5" y="-18.5" font-family="Helvetica,sans-Serif" font-size="10.00">&#45; _isGameEnded()</text>
<text text-anchor="start" x="212.5" y="-7.5" font-family="Helvetica,sans-Serif" font-size="10.00">and 10 more...</text>
</a>
</g>
</g>
<!-- Node2 -->
<g id="node2" class="node">
<title>Node2</title>
<g id="a_node2"><a xlink:href="classArcade_1_1IGameModule.html" target="_top" xlink:title="The interface of all games.">
<polygon fill="white" stroke="black" points="0,-655.5 0,-789.5 125,-789.5 125,-655.5 0,-655.5"/>
<text text-anchor="middle" x="62.5" y="-777.5" font-family="Helvetica,sans-Serif" font-size="10.00">Arcade::IGameModule</text>
<polyline fill="none" stroke="black" points="0,-770.5 125,-770.5 "/>
<text text-anchor="middle" x="62.5" y="-758.5" font-family="Helvetica,sans-Serif" font-size="10.00"> </text>
<polyline fill="none" stroke="black" points="0,-751.5 125,-751.5 "/>
<text text-anchor="start" x="8" y="-739.5" font-family="Helvetica,sans-Serif" font-size="10.00">+ ~IGameModule()</text>
<text text-anchor="start" x="8" y="-728.5" font-family="Helvetica,sans-Serif" font-size="10.00">+ getResources()</text>
<text text-anchor="start" x="8" y="-717.5" font-family="Helvetica,sans-Serif" font-size="10.00">+ getDrawables()</text>
<text text-anchor="start" x="8" y="-706.5" font-family="Helvetica,sans-Serif" font-size="10.00">+ getSounds()</text>
<text text-anchor="start" x="8" y="-695.5" font-family="Helvetica,sans-Serif" font-size="10.00">+ addTicks()</text>
<text text-anchor="start" x="8" y="-684.5" font-family="Helvetica,sans-Serif" font-size="10.00">+ restart()</text>
<text text-anchor="start" x="8" y="-673.5" font-family="Helvetica,sans-Serif" font-size="10.00">+ handleEvent()</text>
<text text-anchor="start" x="8" y="-662.5" font-family="Helvetica,sans-Serif" font-size="10.00">+ getScore()</text>
</a>
</g>
</g>
<!-- Node2&#45;&gt;Node1 -->
<g id="edge1" class="edge">
<title>Node2&#45;&gt;Node1</title>
<path fill="none" stroke="midnightblue" d="M101.46,-646.07C130.01,-590.81 169.68,-514.03 204.42,-446.78"/>
<polygon fill="none" stroke="midnightblue" points="98.28,-644.61 96.8,-655.1 104.5,-647.82 98.28,-644.61"/>
</g>
<!-- Node3 -->
<g id="node3" class="node">
<title>Node3</title>
<g id="a_node3"><a xlink:href="classArcade_1_1IModule.html" target="_top" xlink:title="A base module interface.">
<polygon fill="white" stroke="black" points="15,-827.5 15,-928.5 110,-928.5 110,-827.5 15,-827.5"/>
<text text-anchor="middle" x="62.5" y="-916.5" font-family="Helvetica,sans-Serif" font-size="10.00">Arcade::IModule</text>
<polyline fill="none" stroke="black" points="15,-909.5 110,-909.5 "/>
<text text-anchor="middle" x="62.5" y="-897.5" font-family="Helvetica,sans-Serif" font-size="10.00"> </text>
<polyline fill="none" stroke="black" points="15,-890.5 110,-890.5 "/>
<text text-anchor="start" x="23" y="-878.5" font-family="Helvetica,sans-Serif" font-size="10.00">+ ~IModule()</text>
<text text-anchor="start" x="23" y="-867.5" font-family="Helvetica,sans-Serif" font-size="10.00">+ init()</text>
<text text-anchor="start" x="23" y="-856.5" font-family="Helvetica,sans-Serif" font-size="10.00">+ close()</text>
<text text-anchor="start" x="23" y="-845.5" font-family="Helvetica,sans-Serif" font-size="10.00">+ shouldClose()</text>
<text text-anchor="start" x="23" y="-834.5" font-family="Helvetica,sans-Serif" font-size="10.00">+ getType()</text>
</a>
</g>
</g>
<!-- Node3&#45;&gt;Node2 -->
<g id="edge2" class="edge">
<title>Node3&#45;&gt;Node2</title>
<path fill="none" stroke="midnightblue" d="M62.5,-817.13C62.5,-808.09 62.5,-798.73 62.5,-789.57"/>
<polygon fill="none" stroke="midnightblue" points="59,-817.16 62.5,-827.16 66,-817.16 59,-817.16"/>
</g>
<!-- Node4 -->
<g id="node4" class="node">
<title>Node4</title>
<g id="a_node4"><a xlink:href="structArcade_1_1Drawables_1_1Text.html" target="_top" xlink:title="A text object.">
<polygon fill="white" stroke="black" points="143.5,-683 143.5,-762 277.5,-762 277.5,-683 143.5,-683"/>
<text text-anchor="middle" x="210.5" y="-750" font-family="Helvetica,sans-Serif" font-size="10.00">Arcade::Drawables::Text</text>
<polyline fill="none" stroke="black" points="143.5,-743 277.5,-743 "/>
<text text-anchor="start" x="151.5" y="-731" font-family="Helvetica,sans-Serif" font-size="10.00">+ text</text>
<text text-anchor="start" x="151.5" y="-720" font-family="Helvetica,sans-Serif" font-size="10.00">+ fontSize</text>
<text text-anchor="start" x="151.5" y="-709" font-family="Helvetica,sans-Serif" font-size="10.00">+ path</text>
<polyline fill="none" stroke="black" points="143.5,-702 277.5,-702 "/>
<text text-anchor="middle" x="210.5" y="-690" font-family="Helvetica,sans-Serif" font-size="10.00"> </text>
</a>
</g>
</g>
<!-- Node4&#45;&gt;Node1 -->
<g id="edge3" class="edge">
<title>Node4&#45;&gt;Node1</title>
<path fill="none" stroke="#404040" d="M216.9,-682.93C220.15,-663.35 224.42,-637.58 229.22,-608.65"/>
<polygon fill="none" stroke="#404040" points="229.27,-608.35 226.3,-601.78 231.23,-596.51 234.2,-603.09 229.27,-608.35"/>
<text text-anchor="middle" x="270" y="-623.5" font-family="Helvetica,sans-Serif" font-size="10.00"> &#45;_scoreDrawable</text>
</g>
<!-- Node5 -->
<g id="node5" class="node">
<title>Node5</title>
<g id="a_node5"><a xlink:href="structArcade_1_1Drawables_1_1ADrawable.html" target="_top" xlink:title="A base struct for every objects in the game.">
<polygon fill="white" stroke="black" points="224.5,-827.5 224.5,-928.5 338.5,-928.5 338.5,-827.5 224.5,-827.5"/>
<text text-anchor="start" x="232.5" y="-916.5" font-family="Helvetica,sans-Serif" font-size="10.00">Arcade::Drawables::</text>
<text text-anchor="middle" x="281.5" y="-905.5" font-family="Helvetica,sans-Serif" font-size="10.00">ADrawable</text>
<polyline fill="none" stroke="black" points="224.5,-898.5 338.5,-898.5 "/>
<text text-anchor="start" x="232.5" y="-886.5" font-family="Helvetica,sans-Serif" font-size="10.00">+ x</text>
<text text-anchor="start" x="232.5" y="-875.5" font-family="Helvetica,sans-Serif" font-size="10.00">+ y</text>
<text text-anchor="start" x="232.5" y="-864.5" font-family="Helvetica,sans-Serif" font-size="10.00">+ color</text>
<text text-anchor="start" x="232.5" y="-853.5" font-family="Helvetica,sans-Serif" font-size="10.00">+ fallback</text>
<polyline fill="none" stroke="black" points="224.5,-846.5 338.5,-846.5 "/>
<text text-anchor="start" x="232.5" y="-834.5" font-family="Helvetica,sans-Serif" font-size="10.00">+ ~ADrawable()</text>
</a>
</g>
</g>
<!-- Node5&#45;&gt;Node4 -->
<g id="edge4" class="edge">
<title>Node5&#45;&gt;Node4</title>
<path fill="none" stroke="midnightblue" d="M254.16,-817.88C245.55,-799.28 236.27,-779.22 228.49,-762.4"/>
<polygon fill="none" stroke="midnightblue" points="251.07,-819.56 258.45,-827.16 257.43,-816.62 251.07,-819.56"/>
</g>
<!-- Node7 -->
<g id="node7" class="node">
<title>Node7</title>
<g id="a_node7"><a xlink:href="structArcade_1_1Drawables_1_1Sprite.html" target="_top" xlink:title="A Sprite game object.">
<polygon fill="white" stroke="black" points="295.5,-672 295.5,-773 409.5,-773 409.5,-672 295.5,-672"/>
<text text-anchor="start" x="303.5" y="-761" font-family="Helvetica,sans-Serif" font-size="10.00">Arcade::Drawables::</text>
<text text-anchor="middle" x="352.5" y="-750" font-family="Helvetica,sans-Serif" font-size="10.00">Sprite</text>
<polyline fill="none" stroke="black" points="295.5,-743 409.5,-743 "/>
<text text-anchor="start" x="303.5" y="-731" font-family="Helvetica,sans-Serif" font-size="10.00">+ sizeX</text>
<text text-anchor="start" x="303.5" y="-720" font-family="Helvetica,sans-Serif" font-size="10.00">+ sizeY</text>
<text text-anchor="start" x="303.5" y="-709" font-family="Helvetica,sans-Serif" font-size="10.00">+ rotation</text>
<text text-anchor="start" x="303.5" y="-698" font-family="Helvetica,sans-Serif" font-size="10.00">+ path</text>
<polyline fill="none" stroke="black" points="295.5,-691 409.5,-691 "/>
<text text-anchor="middle" x="352.5" y="-679" font-family="Helvetica,sans-Serif" font-size="10.00"> </text>
</a>
</g>
</g>
<!-- Node5&#45;&gt;Node7 -->
<g id="edge7" class="edge">
<title>Node5&#45;&gt;Node7</title>
<path fill="none" stroke="midnightblue" d="M308.76,-818.06C315.63,-803.21 322.93,-787.42 329.56,-773.09"/>
<polygon fill="none" stroke="midnightblue" points="305.57,-816.62 304.55,-827.16 311.93,-819.56 305.57,-816.62"/>
</g>
<!-- Node6 -->
<g id="node6" class="node">
<title>Node6</title>
<g id="a_node6"><a xlink:href="structArcade_1_1Nibbler_1_1Nibbler_1_1PendingMoves.html" target="_top" xlink:title="Struct used to keep pending moves.">
<polygon fill="white" stroke="black" points="428,-683 428,-762 561,-762 561,-683 428,-683"/>
<text text-anchor="start" x="436" y="-750" font-family="Helvetica,sans-Serif" font-size="10.00">Arcade::Nibbler::Nibbler</text>
<text text-anchor="middle" x="494.5" y="-739" font-family="Helvetica,sans-Serif" font-size="10.00">::PendingMoves</text>
<polyline fill="none" stroke="black" points="428,-732 561,-732 "/>
<text text-anchor="start" x="436" y="-720" font-family="Helvetica,sans-Serif" font-size="10.00">+ moveX</text>
<text text-anchor="start" x="436" y="-709" font-family="Helvetica,sans-Serif" font-size="10.00">+ moveY</text>
<polyline fill="none" stroke="black" points="428,-702 561,-702 "/>
<text text-anchor="middle" x="494.5" y="-690" font-family="Helvetica,sans-Serif" font-size="10.00"> </text>
</a>
</g>
</g>
<!-- Node6&#45;&gt;Node1 -->
<g id="edge5" class="edge">
<title>Node6&#45;&gt;Node1</title>
<path fill="none" stroke="#404040" d="M474.94,-682.93C449.42,-632.6 403.16,-541.38 362.17,-460.55"/>
<polygon fill="none" stroke="#404040" points="362.11,-460.43 355.83,-456.89 356.68,-449.73 362.96,-453.27 362.11,-460.43"/>
<text text-anchor="middle" x="470.5" y="-623.5" font-family="Helvetica,sans-Serif" font-size="10.00"> &#45;_moves</text>
</g>
<!-- Node7&#45;&gt;Node1 -->
<g id="edge6" class="edge">
<title>Node7&#45;&gt;Node1</title>
<path fill="none" stroke="#404040" d="M344.03,-671.85C340.98,-653.97 337.27,-632.25 333.2,-608.39"/>
<polygon fill="none" stroke="#404040" points="333.19,-608.34 328.24,-603.1 331.18,-596.51 336.13,-601.75 333.19,-608.34"/>
<text text-anchor="middle" x="381.5" y="-629" font-family="Helvetica,sans-Serif" font-size="10.00"> &#45;_playerDrawable</text>
<text text-anchor="middle" x="381.5" y="-618" font-family="Helvetica,sans-Serif" font-size="10.00">&#45;_background</text>
</g>
</g>
</svg>
