<?xml version="1.0" encoding="UTF-8" standalone="no"?>
<!DOCTYPE svg PUBLIC "-//W3C//DTD SVG 1.1//EN"
 "http://www.w3.org/Graphics/SVG/1.1/DTD/svg11.dtd">
<!-- Generated by graphviz version 2.43.0 (0)
 -->
<!-- Title: sources/Games/Nibbler Pages: 1 -->
<svg width="188pt" height="183pt"
 viewBox="0.00 0.00 187.50 183.00" xmlns="http://www.w3.org/2000/svg" xmlns:xlink="http://www.w3.org/1999/xlink">
<g id="graph0" class="graph" transform="scale(1 1) rotate(0) translate(4 179)">
<title>sources/Games/Nibbler</title>
<polygon fill="white" stroke="transparent" points="-4,4 -4,-179 183.5,-179 183.5,4 -4,4"/>
<g id="clust1" class="cluster">
<title>clusterdir_697949f2b0a75a6dc572347107047e31</title>
<g id="a_clust1"><a xlink:href="dir_697949f2b0a75a6dc572347107047e31.html" target="_top" xlink:title="Games">
<polygon fill="#ddddee" stroke="black" points="8,-8 8,-167 110,-167 110,-8 8,-8"/>
<text text-anchor="middle" x="59" y="-155" font-family="Helvetica,sans-Serif" font-size="10.00">Games</text>
</a>
</g>
</g>
<g id="clust2" class="cluster">
<title>clusterdir_b093db2ffcfb196e03909bce5b662560</title>
<g id="a_clust2"><a xlink:href="dir_b093db2ffcfb196e03909bce5b662560.html" target="_top">
<polygon fill="#eeeeff" stroke="black" points="16,-16 16,-140 102,-140 102,-16 16,-16"/>
</a>
</g>
</g>
<!-- dir_b093db2ffcfb196e03909bce5b662560 -->
<g id="node1" class="node">
<title>dir_b093db2ffcfb196e03909bce5b662560</title>
<text text-anchor="middle" x="63" y="-111.5" font-family="Helvetica,sans-Serif" font-size="10.00">Nibbler</text>
</g>
<!-- dir_26de509ba3fd7af1984100a3571f3b1e -->
<g id="node2" class="node">
<title>dir_26de509ba3fd7af1984100a3571f3b1e</title>
<g id="a_node2"><a xlink:href="dir_26de509ba3fd7af1984100a3571f3b1e.html" target="_top" xlink:title="Exceptions">
<polygon fill="white" stroke="black" points="94,-60 24,-60 24,-24 94,-24 94,-60"/>
<text text-anchor="middle" x="59" y="-39.5" font-family="Helvetica,sans-Serif" font-size="10.00">Exceptions</text>
</a>
</g>
</g>
<!-- dir_b093db2ffcfb196e03909bce5b662560&#45;&gt;dir_26de509ba3fd7af1984100a3571f3b1e -->
<g id="edge2" class="edge">
<title>dir_b093db2ffcfb196e03909bce5b662560&#45;&gt;dir_26de509ba3fd7af1984100a3571f3b1e</title>
<path fill="none" stroke="black" d="M62.01,-95.7C61.57,-87.98 61.04,-78.71 60.55,-70.11"/>
<polygon fill="black" stroke="black" points="64.04,-69.89 59.98,-60.1 57.05,-70.29 64.04,-69.89"/>
<g id="a_edge2&#45;headlabel"><a xlink:href="dir_000015_000016.html" target="_top" xlink:title="1">
<text text-anchor="middle" x="67.08" y="-70.82" font-family="Helvetica,sans-Serif" font-size="10.00">1</text>
</a>
</g>
</g>
<!-- dir_22691ba3b49dad9081dfd67ea807bdbf -->
<g id="node3" class="node">
<title>dir_22691ba3b49dad9081dfd67ea807bdbf</title>
<g id="a_node3"><a xlink:href="dir_22691ba3b49dad9081dfd67ea807bdbf.html" target="_top" xlink:title="Common">
<polygon fill="white" stroke="red" points="179.5,-60 118.5,-60 118.5,-24 179.5,-24 179.5,-60"/>
<text text-anchor="middle" x="149" y="-39.5" font-family="Helvetica,sans-Serif" font-size="10.00">Common</text>
</a>
</g>
</g>
<!-- dir_b093db2ffcfb196e03909bce5b662560&#45;&gt;dir_22691ba3b49dad9081dfd67ea807bdbf -->
<g id="edge1" class="edge">
<title>dir_b093db2ffcfb196e03909bce5b662560&#45;&gt;dir_22691ba3b49dad9081dfd67ea807bdbf</title>
<path fill="none" stroke="black" d="M84.26,-95.7C95.09,-86.88 108.42,-76.03 120.16,-66.47"/>
<polygon fill="black" stroke="black" points="122.44,-69.13 127.99,-60.1 118.02,-63.7 122.44,-69.13"/>
<g id="a_edge1&#45;headlabel"><a xlink:href="dir_000015_000001.html" target="_top" xlink:title="9">
<text text-anchor="middle" x="121.44" y="-71.1" font-family="Helvetica,sans-Serif" font-size="10.00">9</text>
</a>
</g>
</g>
</g>
</svg>
