<?xml version="1.0" encoding="UTF-8" standalone="no"?>
<!DOCTYPE svg PUBLIC "-//W3C//DTD SVG 1.1//EN"
 "http://www.w3.org/Graphics/SVG/1.1/DTD/svg11.dtd">
<!-- Generated by graphviz version 2.43.0 (0)
 -->
<!-- Title: sources Pages: 1 -->
<svg width="316pt" height="220pt"
 viewBox="0.00 0.00 316.00 220.00" xmlns="http://www.w3.org/2000/svg" xmlns:xlink="http://www.w3.org/1999/xlink">
<g id="graph0" class="graph" transform="scale(1 1) rotate(0) translate(4 216)">
<title>sources</title>
<polygon fill="white" stroke="transparent" points="-4,4 -4,-216 312,-216 312,4 -4,4"/>
<g id="clust1" class="cluster">
<title>clusterdir_08d237fc27d4ecd563f71c5d52f2fecc</title>
<g id="a_clust1"><a xlink:href="dir_08d237fc27d4ecd563f71c5d52f2fecc.html" target="_top">
<polygon fill="#eeeeff" stroke="black" points="8,-8 8,-204 300,-204 300,-8 8,-8"/>
</a>
</g>
</g>
<!-- dir_08d237fc27d4ecd563f71c5d52f2fecc -->
<g id="node1" class="node">
<title>dir_08d237fc27d4ecd563f71c5d52f2fecc</title>
<text text-anchor="middle" x="263" y="-175.5" font-family="Helvetica,sans-Serif" font-size="10.00">sources</text>
</g>
<!-- dir_22691ba3b49dad9081dfd67ea807bdbf -->
<g id="node2" class="node">
<title>dir_22691ba3b49dad9081dfd67ea807bdbf</title>
<g id="a_node2"><a xlink:href="dir_22691ba3b49dad9081dfd67ea807bdbf.html" target="_top" xlink:title="Common">
<polygon fill="white" stroke="red" points="161.5,-52 100.5,-52 100.5,-16 161.5,-16 161.5,-52"/>
<text text-anchor="middle" x="131" y="-31.5" font-family="Helvetica,sans-Serif" font-size="10.00">Common</text>
</a>
</g>
</g>
<!-- dir_407a341dfc1ab98d6ef3a4f1b7c76942 -->
<g id="node3" class="node">
<title>dir_407a341dfc1ab98d6ef3a4f1b7c76942</title>
<g id="a_node3"><a xlink:href="dir_407a341dfc1ab98d6ef3a4f1b7c76942.html" target="_top" xlink:title="Core">
<polygon fill="white" stroke="red" points="214,-196 160,-196 160,-160 214,-160 214,-196"/>
<text text-anchor="middle" x="187" y="-175.5" font-family="Helvetica,sans-Serif" font-size="10.00">Core</text>
</a>
</g>
</g>
<!-- dir_407a341dfc1ab98d6ef3a4f1b7c76942&#45;&gt;dir_22691ba3b49dad9081dfd67ea807bdbf -->
<g id="edge4" class="edge">
<title>dir_407a341dfc1ab98d6ef3a4f1b7c76942&#45;&gt;dir_22691ba3b49dad9081dfd67ea807bdbf</title>
<path fill="none" stroke="black" d="M167.29,-159.83C157.7,-150.29 146.97,-137.61 141,-124 132.48,-104.57 130.2,-80.57 129.93,-62.39"/>
<polygon fill="black" stroke="black" points="133.43,-62.19 129.98,-52.17 126.43,-62.16 133.43,-62.19"/>
<g id="a_edge4&#45;headlabel"><a xlink:href="dir_000004_000001.html" target="_top" xlink:title="6">
<text text-anchor="middle" x="136.25" y="-63.3" font-family="Helvetica,sans-Serif" font-size="10.00">6</text>
</a>
</g>
</g>
<!-- dir_5da686cefd6752aaaa3bcabf1d868d88 -->
<g id="node5" class="node">
<title>dir_5da686cefd6752aaaa3bcabf1d868d88</title>
<g id="a_node5"><a xlink:href="dir_5da686cefd6752aaaa3bcabf1d868d88.html" target="_top" xlink:title="Exceptions">
<polygon fill="white" stroke="black" points="220,-124 150,-124 150,-88 220,-88 220,-124"/>
<text text-anchor="middle" x="185" y="-103.5" font-family="Helvetica,sans-Serif" font-size="10.00">Exceptions</text>
</a>
</g>
</g>
<!-- dir_407a341dfc1ab98d6ef3a4f1b7c76942&#45;&gt;dir_5da686cefd6752aaaa3bcabf1d868d88 -->
<g id="edge6" class="edge">
<title>dir_407a341dfc1ab98d6ef3a4f1b7c76942&#45;&gt;dir_5da686cefd6752aaaa3bcabf1d868d88</title>
<path fill="none" stroke="black" d="M186.51,-159.7C186.29,-151.98 186.02,-142.71 185.77,-134.11"/>
<polygon fill="black" stroke="black" points="189.27,-134 185.49,-124.1 182.28,-134.2 189.27,-134"/>
<g id="a_edge6&#45;headlabel"><a xlink:href="dir_000004_000012.html" target="_top" xlink:title="3">
<text text-anchor="middle" x="192.21" y="-135.01" font-family="Helvetica,sans-Serif" font-size="10.00">3</text>
</a>
</g>
</g>
<!-- dir_697949f2b0a75a6dc572347107047e31 -->
<g id="node6" class="node">
<title>dir_697949f2b0a75a6dc572347107047e31</title>
<g id="a_node6"><a xlink:href="dir_697949f2b0a75a6dc572347107047e31.html" target="_top" xlink:title="Games">
<polygon fill="white" stroke="red" points="292,-124 238,-124 238,-88 292,-88 292,-124"/>
<text text-anchor="middle" x="265" y="-103.5" font-family="Helvetica,sans-Serif" font-size="10.00">Games</text>
</a>
</g>
</g>
<!-- dir_407a341dfc1ab98d6ef3a4f1b7c76942&#45;&gt;dir_697949f2b0a75a6dc572347107047e31 -->
<g id="edge5" class="edge">
<title>dir_407a341dfc1ab98d6ef3a4f1b7c76942&#45;&gt;dir_697949f2b0a75a6dc572347107047e31</title>
<path fill="none" stroke="black" d="M200.37,-159.7C209.19,-150.97 220.97,-140.24 232.11,-130.75"/>
<polygon fill="black" stroke="black" points="234.62,-133.21 240.05,-124.1 230.13,-127.84 234.62,-133.21"/>
<g id="a_edge5&#45;headlabel"><a xlink:href="dir_000004_000013.html" target="_top" xlink:title="1">
<text text-anchor="middle" x="233.69" y="-135.19" font-family="Helvetica,sans-Serif" font-size="10.00">1</text>
</a>
</g>
</g>
<!-- dir_c338243f3b89c3e4da0d09baa75c4e76 -->
<g id="node4" class="node">
<title>dir_c338243f3b89c3e4da0d09baa75c4e76</title>
<g id="a_node4"><a xlink:href="dir_c338243f3b89c3e4da0d09baa75c4e76.html" target="_top" xlink:title="DisplayModules">
<polygon fill="white" stroke="red" points="111.5,-124 16.5,-124 16.5,-88 111.5,-88 111.5,-124"/>
<text text-anchor="middle" x="64" y="-103.5" font-family="Helvetica,sans-Serif" font-size="10.00">DisplayModules</text>
</a>
</g>
</g>
<!-- dir_c338243f3b89c3e4da0d09baa75c4e76&#45;&gt;dir_22691ba3b49dad9081dfd67ea807bdbf -->
<g id="edge3" class="edge">
<title>dir_c338243f3b89c3e4da0d09baa75c4e76&#45;&gt;dir_22691ba3b49dad9081dfd67ea807bdbf</title>
<path fill="none" stroke="black" d="M80.56,-87.7C88.68,-79.22 98.59,-68.86 107.47,-59.58"/>
<polygon fill="black" stroke="black" points="110.24,-61.75 114.63,-52.1 105.19,-56.91 110.24,-61.75"/>
<g id="a_edge3&#45;headlabel"><a xlink:href="dir_000007_000001.html" target="_top" xlink:title="26">
<text text-anchor="middle" x="109.81" y="-63.81" font-family="Helvetica,sans-Serif" font-size="10.00">26</text>
</a>
</g>
</g>
<!-- dir_697949f2b0a75a6dc572347107047e31&#45;&gt;dir_22691ba3b49dad9081dfd67ea807bdbf -->
<g id="edge1" class="edge">
<title>dir_697949f2b0a75a6dc572347107047e31&#45;&gt;dir_22691ba3b49dad9081dfd67ea807bdbf</title>
<path fill="none" stroke="black" d="M237.88,-90.83C218.61,-80.77 192.42,-67.08 170.79,-55.78"/>
<polygon fill="black" stroke="black" points="172.31,-52.63 161.83,-51.1 169.07,-58.84 172.31,-52.63"/>
<g id="a_edge1&#45;headlabel"><a xlink:href="dir_000013_000001.html" target="_top" xlink:title="26">
<text text-anchor="middle" x="176.81" y="-49.28" font-family="Helvetica,sans-Serif" font-size="10.00">26</text>
</a>
</g>
</g>
<!-- dir_697949f2b0a75a6dc572347107047e31&#45;&gt;dir_407a341dfc1ab98d6ef3a4f1b7c76942 -->
<g id="edge2" class="edge">
<title>dir_697949f2b0a75a6dc572347107047e31&#45;&gt;dir_407a341dfc1ab98d6ef3a4f1b7c76942</title>
<path fill="none" stroke="black" d="M251.84,-124.1C243.05,-132.8 231.29,-143.52 220.15,-153.03"/>
<polygon fill="black" stroke="black" points="217.61,-150.59 212.2,-159.7 222.11,-155.96 217.61,-150.59"/>
<g id="a_edge2&#45;headlabel"><a xlink:href="dir_000013_000004.html" target="_top" xlink:title="1">
<text text-anchor="middle" x="218.54" y="-143.61" font-family="Helvetica,sans-Serif" font-size="10.00">1</text>
</a>
</g>
</g>
</g>
</svg>
