<?xml version="1.0" encoding="UTF-8" standalone="no"?>
<!DOCTYPE svg PUBLIC "-//W3C//DTD SVG 1.1//EN"
 "http://www.w3.org/Graphics/SVG/1.1/DTD/svg11.dtd">
<!-- Generated by graphviz version 2.43.0 (0)
 -->
<!-- Title: sources/Games/Qix Pages: 1 -->
<svg width="94pt" height="151pt"
 viewBox="0.00 0.00 94.00 151.00" xmlns="http://www.w3.org/2000/svg" xmlns:xlink="http://www.w3.org/1999/xlink">
<g id="graph0" class="graph" transform="scale(1 1) rotate(0) translate(4 147)">
<title>sources/Games/Qix</title>
<polygon fill="white" stroke="transparent" points="-4,4 -4,-147 90,-147 90,4 -4,4"/>
<g id="clust1" class="cluster">
<title>clusterdir_697949f2b0a75a6dc572347107047e31</title>
<g id="a_clust1"><a xlink:href="dir_697949f2b0a75a6dc572347107047e31.html" target="_top" xlink:title="Games">
<polygon fill="#ddddee" stroke="black" points="8,-64 8,-135 78,-135 78,-64 8,-64"/>
<text text-anchor="middle" x="43" y="-123" font-family="Helvetica,sans-Serif" font-size="10.00">Games</text>
</a>
</g>
</g>
<!-- dir_deb9294a4d38c03422c660567a97a811 -->
<g id="node1" class="node">
<title>dir_deb9294a4d38c03422c660567a97a811</title>
<g id="a_node1"><a xlink:href="dir_deb9294a4d38c03422c660567a97a811.html" target="_top" xlink:title="Qix">
<polygon fill="#eeeeff" stroke="black" points="70,-108 16,-108 16,-72 70,-72 70,-108"/>
<text text-anchor="middle" x="43" y="-87.5" font-family="Helvetica,sans-Serif" font-size="10.00">Qix</text>
</a>
</g>
</g>
<!-- dir_22691ba3b49dad9081dfd67ea807bdbf -->
<g id="node2" class="node">
<title>dir_22691ba3b49dad9081dfd67ea807bdbf</title>
<g id="a_node2"><a xlink:href="dir_22691ba3b49dad9081dfd67ea807bdbf.html" target="_top" xlink:title="Common">
<polygon fill="white" stroke="red" points="73.5,-36 12.5,-36 12.5,0 73.5,0 73.5,-36"/>
<text text-anchor="middle" x="43" y="-15.5" font-family="Helvetica,sans-Serif" font-size="10.00">Common</text>
</a>
</g>
</g>
<!-- dir_deb9294a4d38c03422c660567a97a811&#45;&gt;dir_22691ba3b49dad9081dfd67ea807bdbf -->
<g id="edge1" class="edge">
<title>dir_deb9294a4d38c03422c660567a97a811&#45;&gt;dir_22691ba3b49dad9081dfd67ea807bdbf</title>
<path fill="none" stroke="black" d="M43,-71.7C43,-63.98 43,-54.71 43,-46.11"/>
<polygon fill="black" stroke="black" points="46.5,-46.1 43,-36.1 39.5,-46.1 46.5,-46.1"/>
<g id="a_edge1&#45;headlabel"><a xlink:href="dir_000019_000001.html" target="_top" xlink:title="5">
<text text-anchor="middle" x="49.34" y="-47.2" font-family="Helvetica,sans-Serif" font-size="10.00">5</text>
</a>
</g>
</g>
</g>
</svg>
