<?xml version="1.0" encoding="UTF-8" standalone="no"?>
<!DOCTYPE svg PUBLIC "-//W3C//DTD SVG 1.1//EN"
 "http://www.w3.org/Graphics/SVG/1.1/DTD/svg11.dtd">
<!-- Generated by graphviz version 2.43.0 (0)
 -->
<!-- Title: sources/Games Pages: 1 -->
<svg width="454pt" height="178pt"
 viewBox="0.00 0.00 454.00 178.06" xmlns="http://www.w3.org/2000/svg" xmlns:xlink="http://www.w3.org/1999/xlink">
<g id="graph0" class="graph" transform="scale(1 1) rotate(0) translate(4 174.06)">
<title>sources/Games</title>
<polygon fill="white" stroke="transparent" points="-4,4 -4,-174.06 450,-174.06 450,4 -4,4"/>
<g id="clust1" class="cluster">
<title>clusterdir_08d237fc27d4ecd563f71c5d52f2fecc</title>
<g id="a_clust1"><a xlink:href="dir_08d237fc27d4ecd563f71c5d52f2fecc.html" target="_top" xlink:title="sources">
<polygon fill="#ddddee" stroke="black" points="8,-56 8,-143 384,-143 384,-56 8,-56"/>
<text text-anchor="middle" x="196" y="-131" font-family="Helvetica,sans-Serif" font-size="10.00">sources</text>
</a>
</g>
</g>
<g id="clust2" class="cluster">
<title>clusterdir_697949f2b0a75a6dc572347107047e31</title>
<g id="a_clust2"><a xlink:href="dir_697949f2b0a75a6dc572347107047e31.html" target="_top">
<polygon fill="#eeeeff" stroke="black" points="16,-64 16,-116 376,-116 376,-64 16,-64"/>
</a>
</g>
</g>
<!-- dir_697949f2b0a75a6dc572347107047e31 -->
<g id="node1" class="node">
<title>dir_697949f2b0a75a6dc572347107047e31</title>
<text text-anchor="middle" x="341" y="-87.5" font-family="Helvetica,sans-Serif" font-size="10.00">Games</text>
</g>
<!-- dir_44a1ee652baf90e048fe7b84528aace1 -->
<g id="node2" class="node">
<title>dir_44a1ee652baf90e048fe7b84528aace1</title>
<g id="a_node2"><a xlink:href="dir_44a1ee652baf90e048fe7b84528aace1.html" target="_top" xlink:title="Menu">
<polygon fill="white" stroke="black" points="296,-108 242,-108 242,-72 296,-72 296,-108"/>
<text text-anchor="middle" x="269" y="-87.5" font-family="Helvetica,sans-Serif" font-size="10.00">Menu</text>
</a>
</g>
</g>
<!-- dir_22691ba3b49dad9081dfd67ea807bdbf -->
<g id="node6" class="node">
<title>dir_22691ba3b49dad9081dfd67ea807bdbf</title>
<g id="a_node6"><a xlink:href="dir_22691ba3b49dad9081dfd67ea807bdbf.html" target="_top" xlink:title="Common">
<polygon fill="white" stroke="red" points="227.5,-36 166.5,-36 166.5,0 227.5,0 227.5,-36"/>
<text text-anchor="middle" x="197" y="-15.5" font-family="Helvetica,sans-Serif" font-size="10.00">Common</text>
</a>
</g>
</g>
<!-- dir_44a1ee652baf90e048fe7b84528aace1&#45;&gt;dir_22691ba3b49dad9081dfd67ea807bdbf -->
<g id="edge3" class="edge">
<title>dir_44a1ee652baf90e048fe7b84528aace1&#45;&gt;dir_22691ba3b49dad9081dfd67ea807bdbf</title>
<path fill="none" stroke="black" d="M251.2,-71.7C242.4,-63.14 231.62,-52.66 222,-43.3"/>
<polygon fill="black" stroke="black" points="224.2,-40.57 214.59,-36.1 219.32,-45.58 224.2,-40.57"/>
<g id="a_edge3&#45;headlabel"><a xlink:href="dir_000014_000001.html" target="_top" xlink:title="3">
<text text-anchor="middle" x="228.76" y="-38.54" font-family="Helvetica,sans-Serif" font-size="10.00">3</text>
</a>
</g>
</g>
<!-- dir_407a341dfc1ab98d6ef3a4f1b7c76942 -->
<g id="node7" class="node">
<title>dir_407a341dfc1ab98d6ef3a4f1b7c76942</title>
<g id="a_node7"><a xlink:href="dir_407a341dfc1ab98d6ef3a4f1b7c76942.html" target="_top" xlink:title="Core">
<polygon fill="white" stroke="red" points="446,-108 392,-108 392,-72 446,-72 446,-108"/>
<text text-anchor="middle" x="419" y="-87.5" font-family="Helvetica,sans-Serif" font-size="10.00">Core</text>
</a>
</g>
</g>
<!-- dir_44a1ee652baf90e048fe7b84528aace1&#45;&gt;dir_407a341dfc1ab98d6ef3a4f1b7c76942 -->
<g id="edge4" class="edge">
<title>dir_44a1ee652baf90e048fe7b84528aace1&#45;&gt;dir_407a341dfc1ab98d6ef3a4f1b7c76942</title>
<path fill="none" stroke="black" d="M274.73,-108.04C281.23,-125.14 293.67,-149.82 314,-161 336.2,-173.21 348.63,-172.88 371,-161 388.3,-151.81 400.51,-133.29 408.28,-117.47"/>
<polygon fill="black" stroke="black" points="411.59,-118.63 412.55,-108.08 405.22,-115.73 411.59,-118.63"/>
<g id="a_edge4&#45;headlabel"><a xlink:href="dir_000014_000004.html" target="_top" xlink:title="1">
<text text-anchor="middle" x="412.69" y="-120.58" font-family="Helvetica,sans-Serif" font-size="10.00">1</text>
</a>
</g>
</g>
<!-- dir_b093db2ffcfb196e03909bce5b662560 -->
<g id="node3" class="node">
<title>dir_b093db2ffcfb196e03909bce5b662560</title>
<g id="a_node3"><a xlink:href="dir_b093db2ffcfb196e03909bce5b662560.html" target="_top" xlink:title="Nibbler">
<polygon fill="white" stroke="red" points="224,-108 170,-108 170,-72 224,-72 224,-108"/>
<text text-anchor="middle" x="197" y="-87.5" font-family="Helvetica,sans-Serif" font-size="10.00">Nibbler</text>
</a>
</g>
</g>
<!-- dir_b093db2ffcfb196e03909bce5b662560&#45;&gt;dir_22691ba3b49dad9081dfd67ea807bdbf -->
<g id="edge2" class="edge">
<title>dir_b093db2ffcfb196e03909bce5b662560&#45;&gt;dir_22691ba3b49dad9081dfd67ea807bdbf</title>
<path fill="none" stroke="black" d="M197,-71.7C197,-63.98 197,-54.71 197,-46.11"/>
<polygon fill="black" stroke="black" points="200.5,-46.1 197,-36.1 193.5,-46.1 200.5,-46.1"/>
<g id="a_edge2&#45;headlabel"><a xlink:href="dir_000015_000001.html" target="_top" xlink:title="9">
<text text-anchor="middle" x="203.34" y="-47.2" font-family="Helvetica,sans-Serif" font-size="10.00">9</text>
</a>
</g>
</g>
<!-- dir_3fb6d67c6f6843a9ba1cc858df6ecf1c -->
<g id="node4" class="node">
<title>dir_3fb6d67c6f6843a9ba1cc858df6ecf1c</title>
<g id="a_node4"><a xlink:href="dir_3fb6d67c6f6843a9ba1cc858df6ecf1c.html" target="_top" xlink:title="Pacman">
<polygon fill="white" stroke="red" points="151.5,-108 96.5,-108 96.5,-72 151.5,-72 151.5,-108"/>
<text text-anchor="middle" x="124" y="-87.5" font-family="Helvetica,sans-Serif" font-size="10.00">Pacman</text>
</a>
</g>
</g>
<!-- dir_3fb6d67c6f6843a9ba1cc858df6ecf1c&#45;&gt;dir_22691ba3b49dad9081dfd67ea807bdbf -->
<g id="edge1" class="edge">
<title>dir_3fb6d67c6f6843a9ba1cc858df6ecf1c&#45;&gt;dir_22691ba3b49dad9081dfd67ea807bdbf</title>
<path fill="none" stroke="black" d="M142.04,-71.7C151.06,-63.05 162.12,-52.45 171.94,-43.03"/>
<polygon fill="black" stroke="black" points="174.37,-45.55 179.16,-36.1 169.52,-40.5 174.37,-45.55"/>
<g id="a_edge1&#45;headlabel"><a xlink:href="dir_000017_000001.html" target="_top" xlink:title="9">
<text text-anchor="middle" x="173.74" y="-47.59" font-family="Helvetica,sans-Serif" font-size="10.00">9</text>
</a>
</g>
</g>
<!-- dir_deb9294a4d38c03422c660567a97a811 -->
<g id="node5" class="node">
<title>dir_deb9294a4d38c03422c660567a97a811</title>
<g id="a_node5"><a xlink:href="dir_deb9294a4d38c03422c660567a97a811.html" target="_top" xlink:title="Qix">
<polygon fill="white" stroke="black" points="78,-108 24,-108 24,-72 78,-72 78,-108"/>
<text text-anchor="middle" x="51" y="-87.5" font-family="Helvetica,sans-Serif" font-size="10.00">Qix</text>
</a>
</g>
</g>
<!-- dir_deb9294a4d38c03422c660567a97a811&#45;&gt;dir_22691ba3b49dad9081dfd67ea807bdbf -->
<g id="edge5" class="edge">
<title>dir_deb9294a4d38c03422c660567a97a811&#45;&gt;dir_22691ba3b49dad9081dfd67ea807bdbf</title>
<path fill="none" stroke="black" d="M67.56,-71.66C73.58,-66.08 80.71,-60.25 88,-56 109.31,-43.58 135.42,-34.53 156.74,-28.49"/>
<polygon fill="black" stroke="black" points="157.73,-31.85 166.47,-25.85 155.9,-25.09 157.73,-31.85"/>
<g id="a_edge5&#45;headlabel"><a xlink:href="dir_000019_000001.html" target="_top" xlink:title="5">
<text text-anchor="middle" x="155.01" y="-33.03" font-family="Helvetica,sans-Serif" font-size="10.00">5</text>
</a>
</g>
</g>
<!-- dir_407a341dfc1ab98d6ef3a4f1b7c76942&#45;&gt;dir_44a1ee652baf90e048fe7b84528aace1 -->
<g id="edge7" class="edge">
<title>dir_407a341dfc1ab98d6ef3a4f1b7c76942&#45;&gt;dir_44a1ee652baf90e048fe7b84528aace1</title>
<path fill="none" stroke="black" d="M412.55,-108.08C405.35,-125.2 391.89,-149.9 371,-161 348.63,-172.88 336.2,-173.21 314,-161 297.16,-151.74 285.74,-133.22 278.62,-117.42"/>
<polygon fill="black" stroke="black" points="281.79,-115.94 274.73,-108.04 275.33,-118.62 281.79,-115.94"/>
<g id="a_edge7&#45;headlabel"><a xlink:href="dir_000004_000014.html" target="_top" xlink:title="1">
<text text-anchor="middle" x="285.79" y="-115.67" font-family="Helvetica,sans-Serif" font-size="10.00">1</text>
</a>
</g>
</g>
<!-- dir_407a341dfc1ab98d6ef3a4f1b7c76942&#45;&gt;dir_22691ba3b49dad9081dfd67ea807bdbf -->
<g id="edge6" class="edge">
<title>dir_407a341dfc1ab98d6ef3a4f1b7c76942&#45;&gt;dir_22691ba3b49dad9081dfd67ea807bdbf</title>
<path fill="none" stroke="black" d="M402.48,-71.82C395.99,-65.98 388.14,-59.94 380,-56 334.4,-33.92 276.26,-25.01 237.9,-21.42"/>
<polygon fill="black" stroke="black" points="237.89,-17.91 227.63,-20.54 237.29,-24.88 237.89,-17.91"/>
<g id="a_edge6&#45;headlabel"><a xlink:href="dir_000004_000001.html" target="_top" xlink:title="6">
<text text-anchor="middle" x="241.71" y="-12.88" font-family="Helvetica,sans-Serif" font-size="10.00">6</text>
</a>
</g>
</g>
</g>
</svg>
