<?xml version="1.0" encoding="UTF-8" standalone="no"?>
<!DOCTYPE svg PUBLIC "-//W3C//DTD SVG 1.1//EN"
 "http://www.w3.org/Graphics/SVG/1.1/DTD/svg11.dtd">
<!-- Generated by graphviz version 2.43.0 (0)
 -->
<!-- Title: sources/Core Pages: 1 -->
<svg width="236pt" height="159pt"
 viewBox="0.00 0.00 236.00 159.00" xmlns="http://www.w3.org/2000/svg" xmlns:xlink="http://www.w3.org/1999/xlink">
<g id="graph0" class="graph" transform="scale(1 1) rotate(0) translate(4 155)">
<title>sources/Core</title>
<polygon fill="white" stroke="transparent" points="-4,4 -4,-155 232,-155 232,4 -4,4"/>
<g id="clust1" class="cluster">
<title>clusterdir_08d237fc27d4ecd563f71c5d52f2fecc</title>
<g id="a_clust1"><a xlink:href="dir_08d237fc27d4ecd563f71c5d52f2fecc.html" target="_top" xlink:title="sources">
<polygon fill="#ddddee" stroke="black" points="62,-56 62,-143 220,-143 220,-56 62,-56"/>
<text text-anchor="middle" x="141" y="-131" font-family="Helvetica,sans-Serif" font-size="10.00">sources</text>
</a>
</g>
</g>
<g id="clust2" class="cluster">
<title>clusterdir_407a341dfc1ab98d6ef3a4f1b7c76942</title>
<g id="a_clust2"><a xlink:href="dir_407a341dfc1ab98d6ef3a4f1b7c76942.html" target="_top">
<polygon fill="#eeeeff" stroke="black" points="70,-64 70,-116 212,-116 212,-64 70,-64"/>
</a>
</g>
</g>
<!-- dir_407a341dfc1ab98d6ef3a4f1b7c76942 -->
<g id="node1" class="node">
<title>dir_407a341dfc1ab98d6ef3a4f1b7c76942</title>
<text text-anchor="middle" x="177" y="-87.5" font-family="Helvetica,sans-Serif" font-size="10.00">Core</text>
</g>
<!-- dir_22691ba3b49dad9081dfd67ea807bdbf -->
<g id="node3" class="node">
<title>dir_22691ba3b49dad9081dfd67ea807bdbf</title>
<g id="a_node3"><a xlink:href="dir_22691ba3b49dad9081dfd67ea807bdbf.html" target="_top" xlink:title="Common">
<polygon fill="white" stroke="red" points="123.5,-36 62.5,-36 62.5,0 123.5,0 123.5,-36"/>
<text text-anchor="middle" x="93" y="-15.5" font-family="Helvetica,sans-Serif" font-size="10.00">Common</text>
</a>
</g>
</g>
<!-- dir_407a341dfc1ab98d6ef3a4f1b7c76942&#45;&gt;dir_22691ba3b49dad9081dfd67ea807bdbf -->
<g id="edge6" class="edge">
<title>dir_407a341dfc1ab98d6ef3a4f1b7c76942&#45;&gt;dir_22691ba3b49dad9081dfd67ea807bdbf</title>
<path fill="none" stroke="black" d="M158.96,-71.9C153.3,-66.7 146.97,-61.02 141,-56 135.7,-51.54 129.95,-46.93 124.33,-42.53"/>
<polygon fill="black" stroke="black" points="126.32,-39.65 116.27,-36.3 122.04,-45.18 126.32,-39.65"/>
<g id="a_edge6&#45;headlabel"><a xlink:href="dir_000004_000001.html" target="_top" xlink:title="6">
<text text-anchor="middle" x="130.9" y="-37.1" font-family="Helvetica,sans-Serif" font-size="10.00">6</text>
</a>
</g>
</g>
<!-- dir_5da686cefd6752aaaa3bcabf1d868d88 -->
<g id="node5" class="node">
<title>dir_5da686cefd6752aaaa3bcabf1d868d88</title>
<g id="a_node5"><a xlink:href="dir_5da686cefd6752aaaa3bcabf1d868d88.html" target="_top" xlink:title="Exceptions">
<polygon fill="none" stroke="black" points="212,-36 142,-36 142,0 212,0 212,-36"/>
<text text-anchor="middle" x="177" y="-15.5" font-family="Helvetica,sans-Serif" font-size="10.00">Exceptions</text>
</a>
</g>
</g>
<!-- dir_407a341dfc1ab98d6ef3a4f1b7c76942&#45;&gt;dir_5da686cefd6752aaaa3bcabf1d868d88 -->
<g id="edge7" class="edge">
<title>dir_407a341dfc1ab98d6ef3a4f1b7c76942&#45;&gt;dir_5da686cefd6752aaaa3bcabf1d868d88</title>
<path fill="none" stroke="black" d="M177,-71.7C177,-63.98 177,-54.71 177,-46.11"/>
<polygon fill="black" stroke="black" points="180.5,-46.1 177,-36.1 173.5,-46.1 180.5,-46.1"/>
<g id="a_edge7&#45;headlabel"><a xlink:href="dir_000004_000012.html" target="_top" xlink:title="3">
<text text-anchor="middle" x="183.34" y="-47.2" font-family="Helvetica,sans-Serif" font-size="10.00">3</text>
</a>
</g>
</g>
<!-- dir_39902defc96b4c1afd9c7fc4d71bc4f4 -->
<g id="node2" class="node">
<title>dir_39902defc96b4c1afd9c7fc4d71bc4f4</title>
<g id="a_node2"><a xlink:href="dir_39902defc96b4c1afd9c7fc4d71bc4f4.html" target="_top" xlink:title="Runner">
<polygon fill="white" stroke="black" points="132,-108 78,-108 78,-72 132,-72 132,-108"/>
<text text-anchor="middle" x="105" y="-87.5" font-family="Helvetica,sans-Serif" font-size="10.00">Runner</text>
</a>
</g>
</g>
<!-- dir_39902defc96b4c1afd9c7fc4d71bc4f4&#45;&gt;dir_22691ba3b49dad9081dfd67ea807bdbf -->
<g id="edge1" class="edge">
<title>dir_39902defc96b4c1afd9c7fc4d71bc4f4&#45;&gt;dir_22691ba3b49dad9081dfd67ea807bdbf</title>
<path fill="none" stroke="black" d="M102.03,-71.7C100.71,-63.98 99.12,-54.71 97.65,-46.11"/>
<polygon fill="black" stroke="black" points="101.07,-45.37 95.93,-36.1 94.17,-46.55 101.07,-45.37"/>
<g id="a_edge1&#45;headlabel"><a xlink:href="dir_000006_000001.html" target="_top" xlink:title="4">
<text text-anchor="middle" x="104.48" y="-45.93" font-family="Helvetica,sans-Serif" font-size="10.00">4</text>
</a>
</g>
</g>
<!-- dir_697949f2b0a75a6dc572347107047e31 -->
<g id="node4" class="node">
<title>dir_697949f2b0a75a6dc572347107047e31</title>
<g id="a_node4"><a xlink:href="dir_697949f2b0a75a6dc572347107047e31.html" target="_top" xlink:title="Games">
<polygon fill="white" stroke="red" points="54,-108 0,-108 0,-72 54,-72 54,-108"/>
<text text-anchor="middle" x="27" y="-87.5" font-family="Helvetica,sans-Serif" font-size="10.00">Games</text>
</a>
</g>
</g>
<!-- dir_39902defc96b4c1afd9c7fc4d71bc4f4&#45;&gt;dir_697949f2b0a75a6dc572347107047e31 -->
<g id="edge2" class="edge">
<title>dir_39902defc96b4c1afd9c7fc4d71bc4f4&#45;&gt;dir_697949f2b0a75a6dc572347107047e31</title>
<path fill="none" stroke="black" d="M77.97,-90C73.37,-90 68.78,-90 64.18,-90"/>
<polygon fill="black" stroke="black" points="64.12,-86.5 54.12,-90 64.12,-93.5 64.12,-86.5"/>
<g id="a_edge2&#45;headlabel"><a xlink:href="dir_000006_000013.html" target="_top" xlink:title="1">
<text text-anchor="middle" x="67.71" y="-81.16" font-family="Helvetica,sans-Serif" font-size="10.00">1</text>
</a>
</g>
</g>
<!-- dir_39902defc96b4c1afd9c7fc4d71bc4f4&#45;&gt;dir_5da686cefd6752aaaa3bcabf1d868d88 -->
<g id="edge3" class="edge">
<title>dir_39902defc96b4c1afd9c7fc4d71bc4f4&#45;&gt;dir_5da686cefd6752aaaa3bcabf1d868d88</title>
<path fill="none" stroke="black" d="M122.8,-71.7C131.6,-63.14 142.38,-52.66 152,-43.3"/>
<polygon fill="black" stroke="black" points="154.68,-45.58 159.41,-36.1 149.8,-40.57 154.68,-45.58"/>
<g id="a_edge3&#45;headlabel"><a xlink:href="dir_000006_000012.html" target="_top" xlink:title="2">
<text text-anchor="middle" x="154.08" y="-47.63" font-family="Helvetica,sans-Serif" font-size="10.00">2</text>
</a>
</g>
</g>
<!-- dir_697949f2b0a75a6dc572347107047e31&#45;&gt;dir_39902defc96b4c1afd9c7fc4d71bc4f4 -->
<g id="edge5" class="edge">
<title>dir_697949f2b0a75a6dc572347107047e31&#45;&gt;dir_39902defc96b4c1afd9c7fc4d71bc4f4</title>
<path fill="none" stroke="black" d="M54.12,-90C58.71,-90 63.31,-90 67.91,-90"/>
<polygon fill="black" stroke="black" points="67.97,-93.5 77.97,-90 67.97,-86.5 67.97,-93.5"/>
<g id="a_edge5&#45;headlabel"><a xlink:href="dir_000013_000006.html" target="_top" xlink:title="1">
<text text-anchor="middle" x="64.37" y="-93.84" font-family="Helvetica,sans-Serif" font-size="10.00">1</text>
</a>
</g>
</g>
<!-- dir_697949f2b0a75a6dc572347107047e31&#45;&gt;dir_22691ba3b49dad9081dfd67ea807bdbf -->
<g id="edge4" class="edge">
<title>dir_697949f2b0a75a6dc572347107047e31&#45;&gt;dir_22691ba3b49dad9081dfd67ea807bdbf</title>
<path fill="none" stroke="black" d="M43.31,-71.7C51.31,-63.22 61.07,-52.86 69.82,-43.58"/>
<polygon fill="black" stroke="black" points="72.56,-45.78 76.87,-36.1 67.47,-40.98 72.56,-45.78"/>
<g id="a_edge4&#45;headlabel"><a xlink:href="dir_000013_000001.html" target="_top" xlink:title="26">
<text text-anchor="middle" x="72.16" y="-47.84" font-family="Helvetica,sans-Serif" font-size="10.00">26</text>
</a>
</g>
</g>
</g>
</svg>
