<?xml version="1.0" encoding="UTF-8" standalone="no"?>
<!DOCTYPE svg PUBLIC "-//W3C//DTD SVG 1.1//EN"
 "http://www.w3.org/Graphics/SVG/1.1/DTD/svg11.dtd">
<!-- Generated by graphviz version 2.43.0 (0)
 -->
<!-- Title: sources/DisplayModules/Ncurses Pages: 1 -->
<svg width="119pt" height="151pt"
 viewBox="0.00 0.00 119.00 151.00" xmlns="http://www.w3.org/2000/svg" xmlns:xlink="http://www.w3.org/1999/xlink">
<g id="graph0" class="graph" transform="scale(1 1) rotate(0) translate(4 147)">
<title>sources/DisplayModules/Ncurses</title>
<polygon fill="white" stroke="transparent" points="-4,4 -4,-147 115,-147 115,4 -4,4"/>
<g id="clust1" class="cluster">
<title>clusterdir_c338243f3b89c3e4da0d09baa75c4e76</title>
<g id="a_clust1"><a xlink:href="dir_c338243f3b89c3e4da0d09baa75c4e76.html" target="_top" xlink:title="DisplayModules">
<polygon fill="#ddddee" stroke="black" points="8,-64 8,-135 103,-135 103,-64 8,-64"/>
<text text-anchor="middle" x="55.5" y="-123" font-family="Helvetica,sans-Serif" font-size="10.00">DisplayModules</text>
</a>
</g>
</g>
<!-- dir_dd129fdbad8c651dc7b629b9558203ce -->
<g id="node1" class="node">
<title>dir_dd129fdbad8c651dc7b629b9558203ce</title>
<g id="a_node1"><a xlink:href="dir_dd129fdbad8c651dc7b629b9558203ce.html" target="_top" xlink:title="Ncurses">
<polygon fill="#eeeeff" stroke="black" points="83,-108 27,-108 27,-72 83,-72 83,-108"/>
<text text-anchor="middle" x="55" y="-87.5" font-family="Helvetica,sans-Serif" font-size="10.00">Ncurses</text>
</a>
</g>
</g>
<!-- dir_22691ba3b49dad9081dfd67ea807bdbf -->
<g id="node2" class="node">
<title>dir_22691ba3b49dad9081dfd67ea807bdbf</title>
<g id="a_node2"><a xlink:href="dir_22691ba3b49dad9081dfd67ea807bdbf.html" target="_top" xlink:title="Common">
<polygon fill="white" stroke="red" points="85.5,-36 24.5,-36 24.5,0 85.5,0 85.5,-36"/>
<text text-anchor="middle" x="55" y="-15.5" font-family="Helvetica,sans-Serif" font-size="10.00">Common</text>
</a>
</g>
</g>
<!-- dir_dd129fdbad8c651dc7b629b9558203ce&#45;&gt;dir_22691ba3b49dad9081dfd67ea807bdbf -->
<g id="edge1" class="edge">
<title>dir_dd129fdbad8c651dc7b629b9558203ce&#45;&gt;dir_22691ba3b49dad9081dfd67ea807bdbf</title>
<path fill="none" stroke="black" d="M55,-71.7C55,-63.98 55,-54.71 55,-46.11"/>
<polygon fill="black" stroke="black" points="58.5,-46.1 55,-36.1 51.5,-46.1 58.5,-46.1"/>
<g id="a_edge1&#45;headlabel"><a xlink:href="dir_000008_000001.html" target="_top" xlink:title="9">
<text text-anchor="middle" x="61.34" y="-47.2" font-family="Helvetica,sans-Serif" font-size="10.00">9</text>
</a>
</g>
</g>
</g>
</svg>
