<?xml version="1.0" encoding="UTF-8" standalone="no"?>
<!DOCTYPE svg PUBLIC "-//W3C//DTD SVG 1.1//EN"
 "http://www.w3.org/Graphics/SVG/1.1/DTD/svg11.dtd">
<!-- Generated by graphviz version 2.43.0 (0)
 -->
<!-- Title: sources/Core/Runner Pages: 1 -->
<svg width="182pt" height="223pt"
 viewBox="0.00 0.00 181.50 223.00" xmlns="http://www.w3.org/2000/svg" xmlns:xlink="http://www.w3.org/1999/xlink">
<g id="graph0" class="graph" transform="scale(1 1) rotate(0) translate(4 219)">
<title>sources/Core/Runner</title>
<polygon fill="white" stroke="transparent" points="-4,4 -4,-219 177.5,-219 177.5,4 -4,4"/>
<g id="clust1" class="cluster">
<title>clusterdir_407a341dfc1ab98d6ef3a4f1b7c76942</title>
<g id="a_clust1"><a xlink:href="dir_407a341dfc1ab98d6ef3a4f1b7c76942.html" target="_top" xlink:title="Core">
<polygon fill="#ddddee" stroke="black" points="23.5,-136 23.5,-207 93.5,-207 93.5,-136 23.5,-136"/>
<text text-anchor="middle" x="58.5" y="-195" font-family="Helvetica,sans-Serif" font-size="10.00">Core</text>
</a>
</g>
</g>
<!-- dir_39902defc96b4c1afd9c7fc4d71bc4f4 -->
<g id="node1" class="node">
<title>dir_39902defc96b4c1afd9c7fc4d71bc4f4</title>
<g id="a_node1"><a xlink:href="dir_39902defc96b4c1afd9c7fc4d71bc4f4.html" target="_top" xlink:title="Runner">
<polygon fill="#eeeeff" stroke="black" points="85.5,-180 31.5,-180 31.5,-144 85.5,-144 85.5,-180"/>
<text text-anchor="middle" x="58.5" y="-159.5" font-family="Helvetica,sans-Serif" font-size="10.00">Runner</text>
</a>
</g>
</g>
<!-- dir_22691ba3b49dad9081dfd67ea807bdbf -->
<g id="node2" class="node">
<title>dir_22691ba3b49dad9081dfd67ea807bdbf</title>
<g id="a_node2"><a xlink:href="dir_22691ba3b49dad9081dfd67ea807bdbf.html" target="_top" xlink:title="Common">
<polygon fill="white" stroke="red" points="61,-36 0,-36 0,0 61,0 61,-36"/>
<text text-anchor="middle" x="30.5" y="-15.5" font-family="Helvetica,sans-Serif" font-size="10.00">Common</text>
</a>
</g>
</g>
<!-- dir_39902defc96b4c1afd9c7fc4d71bc4f4&#45;&gt;dir_22691ba3b49dad9081dfd67ea807bdbf -->
<g id="edge1" class="edge">
<title>dir_39902defc96b4c1afd9c7fc4d71bc4f4&#45;&gt;dir_22691ba3b49dad9081dfd67ea807bdbf</title>
<path fill="none" stroke="black" d="M42.89,-143.77C35.13,-134.03 26.55,-121.18 22.5,-108 16.29,-87.8 18.95,-63.89 22.81,-45.94"/>
<polygon fill="black" stroke="black" points="26.23,-46.67 25.16,-36.13 19.42,-45.04 26.23,-46.67"/>
<g id="a_edge1&#45;headlabel"><a xlink:href="dir_000006_000001.html" target="_top" xlink:title="4">
<text text-anchor="middle" x="28.16" y="-48.33" font-family="Helvetica,sans-Serif" font-size="10.00">4</text>
</a>
</g>
</g>
<!-- dir_697949f2b0a75a6dc572347107047e31 -->
<g id="node3" class="node">
<title>dir_697949f2b0a75a6dc572347107047e31</title>
<g id="a_node3"><a xlink:href="dir_697949f2b0a75a6dc572347107047e31.html" target="_top" xlink:title="Games">
<polygon fill="white" stroke="red" points="85.5,-108 31.5,-108 31.5,-72 85.5,-72 85.5,-108"/>
<text text-anchor="middle" x="58.5" y="-87.5" font-family="Helvetica,sans-Serif" font-size="10.00">Games</text>
</a>
</g>
</g>
<!-- dir_39902defc96b4c1afd9c7fc4d71bc4f4&#45;&gt;dir_697949f2b0a75a6dc572347107047e31 -->
<g id="edge2" class="edge">
<title>dir_39902defc96b4c1afd9c7fc4d71bc4f4&#45;&gt;dir_697949f2b0a75a6dc572347107047e31</title>
<path fill="none" stroke="black" d="M58.5,-143.7C58.5,-135.98 58.5,-126.71 58.5,-118.11"/>
<polygon fill="black" stroke="black" points="62,-118.1 58.5,-108.1 55,-118.1 62,-118.1"/>
<g id="a_edge2&#45;headlabel"><a xlink:href="dir_000006_000013.html" target="_top" xlink:title="1">
<text text-anchor="middle" x="64.84" y="-119.2" font-family="Helvetica,sans-Serif" font-size="10.00">1</text>
</a>
</g>
</g>
<!-- dir_5da686cefd6752aaaa3bcabf1d868d88 -->
<g id="node4" class="node">
<title>dir_5da686cefd6752aaaa3bcabf1d868d88</title>
<g id="a_node4"><a xlink:href="dir_5da686cefd6752aaaa3bcabf1d868d88.html" target="_top" xlink:title="Exceptions">
<polygon fill="none" stroke="black" points="173.5,-108 103.5,-108 103.5,-72 173.5,-72 173.5,-108"/>
<text text-anchor="middle" x="138.5" y="-87.5" font-family="Helvetica,sans-Serif" font-size="10.00">Exceptions</text>
</a>
</g>
</g>
<!-- dir_39902defc96b4c1afd9c7fc4d71bc4f4&#45;&gt;dir_5da686cefd6752aaaa3bcabf1d868d88 -->
<g id="edge3" class="edge">
<title>dir_39902defc96b4c1afd9c7fc4d71bc4f4&#45;&gt;dir_5da686cefd6752aaaa3bcabf1d868d88</title>
<path fill="none" stroke="black" d="M78.28,-143.7C88.25,-134.97 100.51,-124.24 111.36,-114.75"/>
<polygon fill="black" stroke="black" points="113.73,-117.32 118.95,-108.1 109.12,-112.06 113.73,-117.32"/>
<g id="a_edge3&#45;headlabel"><a xlink:href="dir_000006_000012.html" target="_top" xlink:title="2">
<text text-anchor="middle" x="112.9" y="-119.33" font-family="Helvetica,sans-Serif" font-size="10.00">2</text>
</a>
</g>
</g>
<!-- dir_697949f2b0a75a6dc572347107047e31&#45;&gt;dir_22691ba3b49dad9081dfd67ea807bdbf -->
<g id="edge4" class="edge">
<title>dir_697949f2b0a75a6dc572347107047e31&#45;&gt;dir_22691ba3b49dad9081dfd67ea807bdbf</title>
<path fill="none" stroke="black" d="M51.58,-71.7C48.43,-63.81 44.62,-54.3 41.12,-45.55"/>
<polygon fill="black" stroke="black" points="44.31,-44.09 37.34,-36.1 37.81,-46.69 44.31,-44.09"/>
<g id="a_edge4&#45;headlabel"><a xlink:href="dir_000013_000001.html" target="_top" xlink:title="26">
<text text-anchor="middle" x="48.28" y="-43.87" font-family="Helvetica,sans-Serif" font-size="10.00">26</text>
</a>
</g>
</g>
</g>
</svg>
