<?xml version="1.0" encoding="UTF-8" standalone="no"?>
<!DOCTYPE svg PUBLIC "-//W3C//DTD SVG 1.1//EN"
 "http://www.w3.org/Graphics/SVG/1.1/DTD/svg11.dtd">
<!-- Generated by graphviz version 2.43.0 (0)
 -->
<!-- Title: sources/DisplayModules Pages: 1 -->
<svg width="370pt" height="159pt"
 viewBox="0.00 0.00 370.00 159.00" xmlns="http://www.w3.org/2000/svg" xmlns:xlink="http://www.w3.org/1999/xlink">
<g id="graph0" class="graph" transform="scale(1 1) rotate(0) translate(4 155)">
<title>sources/DisplayModules</title>
<polygon fill="white" stroke="transparent" points="-4,4 -4,-155 366,-155 366,4 -4,4"/>
<g id="clust1" class="cluster">
<title>clusterdir_08d237fc27d4ecd563f71c5d52f2fecc</title>
<g id="a_clust1"><a xlink:href="dir_08d237fc27d4ecd563f71c5d52f2fecc.html" target="_top" xlink:title="sources">
<polygon fill="#ddddee" stroke="black" points="8,-56 8,-143 354,-143 354,-56 8,-56"/>
<text text-anchor="middle" x="181" y="-131" font-family="Helvetica,sans-Serif" font-size="10.00">sources</text>
</a>
</g>
</g>
<g id="clust2" class="cluster">
<title>clusterdir_c338243f3b89c3e4da0d09baa75c4e76</title>
<g id="a_clust2"><a xlink:href="dir_c338243f3b89c3e4da0d09baa75c4e76.html" target="_top">
<polygon fill="#eeeeff" stroke="black" points="16,-64 16,-116 346,-116 346,-64 16,-64"/>
</a>
</g>
</g>
<!-- dir_c338243f3b89c3e4da0d09baa75c4e76 -->
<g id="node1" class="node">
<title>dir_c338243f3b89c3e4da0d09baa75c4e76</title>
<text text-anchor="middle" x="290" y="-87.5" font-family="Helvetica,sans-Serif" font-size="10.00">DisplayModules</text>
</g>
<!-- dir_dd129fdbad8c651dc7b629b9558203ce -->
<g id="node2" class="node">
<title>dir_dd129fdbad8c651dc7b629b9558203ce</title>
<g id="a_node2"><a xlink:href="dir_dd129fdbad8c651dc7b629b9558203ce.html" target="_top" xlink:title="Ncurses">
<polygon fill="white" stroke="black" points="224,-108 168,-108 168,-72 224,-72 224,-108"/>
<text text-anchor="middle" x="196" y="-87.5" font-family="Helvetica,sans-Serif" font-size="10.00">Ncurses</text>
</a>
</g>
</g>
<!-- dir_22691ba3b49dad9081dfd67ea807bdbf -->
<g id="node5" class="node">
<title>dir_22691ba3b49dad9081dfd67ea807bdbf</title>
<g id="a_node5"><a xlink:href="dir_22691ba3b49dad9081dfd67ea807bdbf.html" target="_top" xlink:title="Common">
<polygon fill="white" stroke="red" points="153.5,-36 92.5,-36 92.5,0 153.5,0 153.5,-36"/>
<text text-anchor="middle" x="123" y="-15.5" font-family="Helvetica,sans-Serif" font-size="10.00">Common</text>
</a>
</g>
</g>
<!-- dir_dd129fdbad8c651dc7b629b9558203ce&#45;&gt;dir_22691ba3b49dad9081dfd67ea807bdbf -->
<g id="edge1" class="edge">
<title>dir_dd129fdbad8c651dc7b629b9558203ce&#45;&gt;dir_22691ba3b49dad9081dfd67ea807bdbf</title>
<path fill="none" stroke="black" d="M177.96,-71.7C168.94,-63.05 157.88,-52.45 148.06,-43.03"/>
<polygon fill="black" stroke="black" points="150.48,-40.5 140.84,-36.1 145.63,-45.55 150.48,-40.5"/>
<g id="a_edge1&#45;headlabel"><a xlink:href="dir_000008_000001.html" target="_top" xlink:title="9">
<text text-anchor="middle" x="155.04" y="-38.44" font-family="Helvetica,sans-Serif" font-size="10.00">9</text>
</a>
</g>
</g>
<!-- dir_5243fc4b5ed8123d9d8b89c799851a3c -->
<g id="node3" class="node">
<title>dir_5243fc4b5ed8123d9d8b89c799851a3c</title>
<g id="a_node3"><a xlink:href="dir_5243fc4b5ed8123d9d8b89c799851a3c.html" target="_top" xlink:title="SDL">
<polygon fill="white" stroke="black" points="150,-108 96,-108 96,-72 150,-72 150,-108"/>
<text text-anchor="middle" x="123" y="-87.5" font-family="Helvetica,sans-Serif" font-size="10.00">SDL</text>
</a>
</g>
</g>
<!-- dir_5243fc4b5ed8123d9d8b89c799851a3c&#45;&gt;dir_22691ba3b49dad9081dfd67ea807bdbf -->
<g id="edge3" class="edge">
<title>dir_5243fc4b5ed8123d9d8b89c799851a3c&#45;&gt;dir_22691ba3b49dad9081dfd67ea807bdbf</title>
<path fill="none" stroke="black" d="M123,-71.7C123,-63.98 123,-54.71 123,-46.11"/>
<polygon fill="black" stroke="black" points="126.5,-46.1 123,-36.1 119.5,-46.1 126.5,-46.1"/>
<g id="a_edge3&#45;headlabel"><a xlink:href="dir_000009_000001.html" target="_top" xlink:title="9">
<text text-anchor="middle" x="129.34" y="-47.2" font-family="Helvetica,sans-Serif" font-size="10.00">9</text>
</a>
</g>
</g>
<!-- dir_7dc87bccfbc79c7fa1e2a6c0dc3a28c7 -->
<g id="node4" class="node">
<title>dir_7dc87bccfbc79c7fa1e2a6c0dc3a28c7</title>
<g id="a_node4"><a xlink:href="dir_7dc87bccfbc79c7fa1e2a6c0dc3a28c7.html" target="_top" xlink:title="SFML">
<polygon fill="white" stroke="red" points="78,-108 24,-108 24,-72 78,-72 78,-108"/>
<text text-anchor="middle" x="51" y="-87.5" font-family="Helvetica,sans-Serif" font-size="10.00">SFML</text>
</a>
</g>
</g>
<!-- dir_7dc87bccfbc79c7fa1e2a6c0dc3a28c7&#45;&gt;dir_22691ba3b49dad9081dfd67ea807bdbf -->
<g id="edge2" class="edge">
<title>dir_7dc87bccfbc79c7fa1e2a6c0dc3a28c7&#45;&gt;dir_22691ba3b49dad9081dfd67ea807bdbf</title>
<path fill="none" stroke="black" d="M68.8,-71.7C77.6,-63.14 88.38,-52.66 98,-43.3"/>
<polygon fill="black" stroke="black" points="100.68,-45.58 105.41,-36.1 95.8,-40.57 100.68,-45.58"/>
<g id="a_edge2&#45;headlabel"><a xlink:href="dir_000010_000001.html" target="_top" xlink:title="8">
<text text-anchor="middle" x="100.08" y="-47.63" font-family="Helvetica,sans-Serif" font-size="10.00">8</text>
</a>
</g>
</g>
</g>
</svg>
