<?xml version="1.0" encoding="UTF-8" standalone="no"?>
<!DOCTYPE svg PUBLIC "-//W3C//DTD SVG 1.1//EN"
 "http://www.w3.org/Graphics/SVG/1.1/DTD/svg11.dtd">
<!-- Generated by graphviz version 2.43.0 (0)
 -->
<!-- Title: sources/Common Pages: 1 -->
<svg width="196pt" height="183pt"
 viewBox="0.00 0.00 196.00 183.00" xmlns="http://www.w3.org/2000/svg" xmlns:xlink="http://www.w3.org/1999/xlink">
<g id="graph0" class="graph" transform="scale(1 1) rotate(0) translate(4 179)">
<title>sources/Common</title>
<polygon fill="white" stroke="transparent" points="-4,4 -4,-179 192,-179 192,4 -4,4"/>
<g id="clust1" class="cluster">
<title>clusterdir_08d237fc27d4ecd563f71c5d52f2fecc</title>
<g id="a_clust1"><a xlink:href="dir_08d237fc27d4ecd563f71c5d52f2fecc.html" target="_top" xlink:title="sources">
<polygon fill="#ddddee" stroke="black" points="8,-8 8,-167 180,-167 180,-8 8,-8"/>
<text text-anchor="middle" x="94" y="-155" font-family="Helvetica,sans-Serif" font-size="10.00">sources</text>
</a>
</g>
</g>
<g id="clust2" class="cluster">
<title>clusterdir_22691ba3b49dad9081dfd67ea807bdbf</title>
<g id="a_clust2"><a xlink:href="dir_22691ba3b49dad9081dfd67ea807bdbf.html" target="_top">
<polygon fill="#eeeeff" stroke="black" points="16,-16 16,-140 172,-140 172,-16 16,-16"/>
</a>
</g>
</g>
<!-- dir_22691ba3b49dad9081dfd67ea807bdbf -->
<g id="node1" class="node">
<title>dir_22691ba3b49dad9081dfd67ea807bdbf</title>
<text text-anchor="middle" x="95" y="-111.5" font-family="Helvetica,sans-Serif" font-size="10.00">Common</text>
</g>
<!-- dir_bc01cb18fce859332af8c7df7860743e -->
<g id="node2" class="node">
<title>dir_bc01cb18fce859332af8c7df7860743e</title>
<g id="a_node2"><a xlink:href="dir_bc01cb18fce859332af8c7df7860743e.html" target="_top" xlink:title="Drawables">
<polygon fill="white" stroke="black" points="92,-60 24,-60 24,-24 92,-24 92,-60"/>
<text text-anchor="middle" x="58" y="-39.5" font-family="Helvetica,sans-Serif" font-size="10.00">Drawables</text>
</a>
</g>
</g>
<!-- dir_22691ba3b49dad9081dfd67ea807bdbf&#45;&gt;dir_bc01cb18fce859332af8c7df7860743e -->
<g id="edge2" class="edge">
<title>dir_22691ba3b49dad9081dfd67ea807bdbf&#45;&gt;dir_bc01cb18fce859332af8c7df7860743e</title>
<path fill="none" stroke="black" d="M85.85,-95.7C81.6,-87.64 76.44,-77.89 71.73,-68.98"/>
<polygon fill="black" stroke="black" points="74.81,-67.31 67.04,-60.1 68.62,-70.58 74.81,-67.31"/>
<g id="a_edge2&#45;headlabel"><a xlink:href="dir_000001_000002.html" target="_top" xlink:title="6">
<text text-anchor="middle" x="79" y="-66.66" font-family="Helvetica,sans-Serif" font-size="10.00">6</text>
</a>
</g>
</g>
<!-- dir_60b123b52d4602ba6b52bb9c9c056038 -->
<g id="node3" class="node">
<title>dir_60b123b52d4602ba6b52bb9c9c056038</title>
<g id="a_node3"><a xlink:href="dir_60b123b52d4602ba6b52bb9c9c056038.html" target="_top" xlink:title="Events">
<polygon fill="white" stroke="black" points="164,-60 110,-60 110,-24 164,-24 164,-60"/>
<text text-anchor="middle" x="137" y="-39.5" font-family="Helvetica,sans-Serif" font-size="10.00">Events</text>
</a>
</g>
</g>
<!-- dir_22691ba3b49dad9081dfd67ea807bdbf&#45;&gt;dir_60b123b52d4602ba6b52bb9c9c056038 -->
<g id="edge1" class="edge">
<title>dir_22691ba3b49dad9081dfd67ea807bdbf&#45;&gt;dir_60b123b52d4602ba6b52bb9c9c056038</title>
<path fill="none" stroke="black" d="M105.38,-95.7C110.26,-87.56 116.19,-77.69 121.58,-68.7"/>
<polygon fill="black" stroke="black" points="124.59,-70.48 126.74,-60.1 118.59,-66.88 124.59,-70.48"/>
<g id="a_edge1&#45;headlabel"><a xlink:href="dir_000001_000003.html" target="_top" xlink:title="2">
<text text-anchor="middle" x="125.18" y="-72.52" font-family="Helvetica,sans-Serif" font-size="10.00">2</text>
</a>
</g>
</g>
</g>
</svg>
