<?xml version="1.0" encoding="UTF-8" standalone="no"?>
<!DOCTYPE svg PUBLIC "-//W3C//DTD SVG 1.1//EN"
 "http://www.w3.org/Graphics/SVG/1.1/DTD/svg11.dtd">
<!-- Generated by graphviz version 2.43.0 (0)
 -->
<!-- Title: sources/Common/Events/Event.hpp Pages: 1 -->
<svg width="1577pt" height="307pt"
 viewBox="0.00 0.00 1576.78 307.00" xmlns="http://www.w3.org/2000/svg" xmlns:xlink="http://www.w3.org/1999/xlink">
<g id="graph0" class="graph" transform="scale(1 1) rotate(0) translate(4 303)">
<title>sources/Common/Events/Event.hpp</title>
<polygon fill="white" stroke="transparent" points="-4,4 -4,-303 1572.78,-303 1572.78,4 -4,4"/>
<!-- Node1 -->
<g id="node1" class="node">
<title>Node1</title>
<g id="a_node1"><a xlink:title=" ">
<polygon fill="#bfbfbf" stroke="black" points="256.78,-268.5 256.78,-298.5 393.78,-298.5 393.78,-268.5 256.78,-268.5"/>
<text text-anchor="start" x="264.78" y="-286.5" font-family="Helvetica,sans-Serif" font-size="10.00">sources/Common/Events</text>
<text text-anchor="middle" x="325.28" y="-275.5" font-family="Helvetica,sans-Serif" font-size="10.00">/Event.hpp</text>
</a>
</g>
</g>
<!-- Node2 -->
<g id="node2" class="node">
<title>Node2</title>
<g id="a_node2"><a xlink:href="KeyBoardEvent_8hpp.html" target="_top" xlink:title=" ">
<polygon fill="white" stroke="black" points="669.78,-201.5 669.78,-231.5 806.78,-231.5 806.78,-201.5 669.78,-201.5"/>
<text text-anchor="start" x="677.78" y="-219.5" font-family="Helvetica,sans-Serif" font-size="10.00">sources/Common/Events</text>
<text text-anchor="middle" x="738.28" y="-208.5" font-family="Helvetica,sans-Serif" font-size="10.00">/KeyBoardEvent.hpp</text>
</a>
</g>
</g>
<!-- Node1&#45;&gt;Node2 -->
<g id="edge1" class="edge">
<title>Node1&#45;&gt;Node2</title>
<path fill="none" stroke="midnightblue" d="M403.97,-270.94C470.87,-260.99 569.46,-246.06 655.28,-232 659.9,-231.24 664.66,-230.45 669.45,-229.64"/>
<polygon fill="midnightblue" stroke="midnightblue" points="403.3,-267.5 393.92,-272.43 404.32,-274.42 403.3,-267.5"/>
</g>
<!-- Node4 -->
<g id="node4" class="node">
<title>Node4</title>
<g id="a_node4"><a xlink:href="NcursesDisplay_8hpp.html" target="_top" xlink:title=" ">
<polygon fill="white" stroke="black" points="119.78,-134.5 119.78,-164.5 276.78,-164.5 276.78,-134.5 119.78,-134.5"/>
<text text-anchor="start" x="127.78" y="-152.5" font-family="Helvetica,sans-Serif" font-size="10.00">sources/DisplayModules</text>
<text text-anchor="middle" x="198.28" y="-141.5" font-family="Helvetica,sans-Serif" font-size="10.00">/Ncurses/NcursesDisplay.hpp</text>
</a>
</g>
</g>
<!-- Node1&#45;&gt;Node4 -->
<g id="edge47" class="edge">
<title>Node1&#45;&gt;Node4</title>
<path fill="none" stroke="midnightblue" d="M281.83,-263.77C266.66,-255.66 250.41,-245.01 238.28,-232 219.79,-212.17 208.09,-182.2 202.4,-164.66"/>
<polygon fill="midnightblue" stroke="midnightblue" points="280.59,-267.07 291.09,-268.49 283.77,-260.83 280.59,-267.07"/>
</g>
<!-- Node5 -->
<g id="node5" class="node">
<title>Node5</title>
<g id="a_node5"><a xlink:href="NcursesDisplay_8cpp.html" target="_top" xlink:title=" ">
<polygon fill="white" stroke="black" points="25.28,-67.5 25.28,-97.5 181.28,-97.5 181.28,-67.5 25.28,-67.5"/>
<text text-anchor="start" x="33.28" y="-85.5" font-family="Helvetica,sans-Serif" font-size="10.00">sources/DisplayModules</text>
<text text-anchor="middle" x="103.28" y="-74.5" font-family="Helvetica,sans-Serif" font-size="10.00">/Ncurses/NcursesDisplay.cpp</text>
</a>
</g>
</g>
<!-- Node1&#45;&gt;Node5 -->
<g id="edge48" class="edge">
<title>Node1&#45;&gt;Node5</title>
<path fill="none" stroke="midnightblue" d="M246.66,-281.31C162.39,-278.18 36.59,-267.49 6.28,-232 -14.09,-208.16 22.45,-145.42 31.28,-134 43.04,-118.78 60.67,-106.31 75.54,-97.57"/>
<polygon fill="midnightblue" stroke="midnightblue" points="246.61,-284.81 256.72,-281.66 246.85,-277.82 246.61,-284.81"/>
</g>
<!-- Node6 -->
<g id="node6" class="node">
<title>Node6</title>
<g id="a_node6"><a xlink:href="SDLDisplay_8hpp.html" target="_top" xlink:title=" ">
<polygon fill="white" stroke="black" points="294.78,-134.5 294.78,-164.5 429.78,-164.5 429.78,-134.5 294.78,-134.5"/>
<text text-anchor="start" x="302.78" y="-152.5" font-family="Helvetica,sans-Serif" font-size="10.00">sources/DisplayModules</text>
<text text-anchor="middle" x="362.28" y="-141.5" font-family="Helvetica,sans-Serif" font-size="10.00">/SDL/SDLDisplay.hpp</text>
</a>
</g>
</g>
<!-- Node1&#45;&gt;Node6 -->
<g id="edge49" class="edge">
<title>Node1&#45;&gt;Node6</title>
<path fill="none" stroke="midnightblue" d="M279.91,-263.49C267.03,-255.72 254.54,-245.36 247.28,-232 240.69,-219.9 239.74,-212.54 247.28,-201 258.66,-183.56 277.56,-172.11 296.78,-164.6"/>
<polygon fill="midnightblue" stroke="midnightblue" points="278.39,-266.65 288.83,-268.46 281.8,-260.54 278.39,-266.65"/>
</g>
<!-- Node7 -->
<g id="node7" class="node">
<title>Node7</title>
<g id="a_node7"><a xlink:href="SDLDisplay_8cpp.html" target="_top" xlink:title=" ">
<polygon fill="white" stroke="black" points="294.78,-67.5 294.78,-97.5 429.78,-97.5 429.78,-67.5 294.78,-67.5"/>
<text text-anchor="start" x="302.78" y="-85.5" font-family="Helvetica,sans-Serif" font-size="10.00">sources/DisplayModules</text>
<text text-anchor="middle" x="362.28" y="-74.5" font-family="Helvetica,sans-Serif" font-size="10.00">/SDL/SDLDisplay.cpp</text>
</a>
</g>
</g>
<!-- Node1&#45;&gt;Node7 -->
<g id="edge50" class="edge">
<title>Node1&#45;&gt;Node7</title>
<path fill="none" stroke="midnightblue" d="M246.47,-280.88C164.59,-277.33 44.4,-266.25 15.28,-232 6.35,-221.5 10.87,-214.06 15.28,-201 27.24,-165.54 34.27,-153.39 66.28,-134 103.73,-111.31 219.5,-96.65 294.67,-89.26"/>
<polygon fill="midnightblue" stroke="midnightblue" points="246.37,-284.38 256.51,-281.28 246.66,-277.38 246.37,-284.38"/>
</g>
<!-- Node8 -->
<g id="node8" class="node">
<title>Node8</title>
<g id="a_node8"><a xlink:href="SFMLDisplay_8hpp.html" target="_top" xlink:title=" ">
<polygon fill="white" stroke="black" points="447.78,-134.5 447.78,-164.5 582.78,-164.5 582.78,-134.5 447.78,-134.5"/>
<text text-anchor="start" x="455.78" y="-152.5" font-family="Helvetica,sans-Serif" font-size="10.00">sources/DisplayModules</text>
<text text-anchor="middle" x="515.28" y="-141.5" font-family="Helvetica,sans-Serif" font-size="10.00">/SFML/SFMLDisplay.hpp</text>
</a>
</g>
</g>
<!-- Node1&#45;&gt;Node8 -->
<g id="edge51" class="edge">
<title>Node1&#45;&gt;Node8</title>
<path fill="none" stroke="midnightblue" d="M404.37,-280.14C482.45,-275.95 594.01,-264.32 621.28,-232 645.08,-203.79 598.43,-179.18 559.65,-164.59"/>
<polygon fill="midnightblue" stroke="midnightblue" points="403.87,-276.66 394.06,-280.66 404.23,-283.66 403.87,-276.66"/>
</g>
<!-- Node9 -->
<g id="node9" class="node">
<title>Node9</title>
<g id="a_node9"><a xlink:href="SFMLDisplay_8cpp.html" target="_top" xlink:title=" ">
<polygon fill="white" stroke="black" points="476.78,-67.5 476.78,-97.5 611.78,-97.5 611.78,-67.5 476.78,-67.5"/>
<text text-anchor="start" x="484.78" y="-85.5" font-family="Helvetica,sans-Serif" font-size="10.00">sources/DisplayModules</text>
<text text-anchor="middle" x="544.28" y="-74.5" font-family="Helvetica,sans-Serif" font-size="10.00">/SFML/SFMLDisplay.cpp</text>
</a>
</g>
</g>
<!-- Node1&#45;&gt;Node9 -->
<g id="edge52" class="edge">
<title>Node1&#45;&gt;Node9</title>
<path fill="none" stroke="midnightblue" d="M404.21,-280.05C535.79,-275.14 788.3,-261.9 815.28,-232 824.51,-221.77 822.27,-212.87 815.28,-201 791.71,-161.02 666,-118.84 594.36,-97.55"/>
<polygon fill="midnightblue" stroke="midnightblue" points="404.04,-276.55 394.18,-280.41 404.3,-283.55 404.04,-276.55"/>
</g>
<!-- Node14 -->
<g id="node14" class="node">
<title>Node14</title>
<g id="a_node14"><a xlink:href="MouseClickEvent_8hpp.html" target="_top" xlink:title=" ">
<polygon fill="white" stroke="black" points="24.78,-201.5 24.78,-231.5 161.78,-231.5 161.78,-201.5 24.78,-201.5"/>
<text text-anchor="start" x="32.78" y="-219.5" font-family="Helvetica,sans-Serif" font-size="10.00">sources/Common/Events</text>
<text text-anchor="middle" x="93.28" y="-208.5" font-family="Helvetica,sans-Serif" font-size="10.00">/MouseClickEvent.hpp</text>
</a>
</g>
</g>
<!-- Node1&#45;&gt;Node14 -->
<g id="edge16" class="edge">
<title>Node1&#45;&gt;Node14</title>
<path fill="none" stroke="midnightblue" d="M265.37,-265.71C227.61,-255.14 179.42,-241.63 143.64,-231.61"/>
<polygon fill="midnightblue" stroke="midnightblue" points="264.65,-269.15 275.22,-268.48 266.54,-262.41 264.65,-269.15"/>
</g>
<!-- Node15 -->
<g id="node15" class="node">
<title>Node15</title>
<g id="a_node15"><a xlink:href="MouseMoveEvent_8hpp.html" target="_top" xlink:title=" ">
<polygon fill="white" stroke="black" points="256.78,-201.5 256.78,-231.5 393.78,-231.5 393.78,-201.5 256.78,-201.5"/>
<text text-anchor="start" x="264.78" y="-219.5" font-family="Helvetica,sans-Serif" font-size="10.00">sources/Common/Events</text>
<text text-anchor="middle" x="325.28" y="-208.5" font-family="Helvetica,sans-Serif" font-size="10.00">/MouseMoveEvent.hpp</text>
</a>
</g>
</g>
<!-- Node1&#45;&gt;Node15 -->
<g id="edge24" class="edge">
<title>Node1&#45;&gt;Node15</title>
<path fill="none" stroke="midnightblue" d="M325.28,-258.11C325.28,-249.15 325.28,-239.32 325.28,-231.58"/>
<polygon fill="midnightblue" stroke="midnightblue" points="321.78,-258.4 325.28,-268.4 328.78,-258.4 321.78,-258.4"/>
</g>
<!-- Node16 -->
<g id="node16" class="node">
<title>Node16</title>
<g id="a_node16"><a xlink:href="IDisplayModule_8hpp.html" target="_top" xlink:title=" ">
<polygon fill="white" stroke="black" points="411.78,-207 411.78,-226 612.78,-226 612.78,-207 411.78,-207"/>
<text text-anchor="middle" x="512.28" y="-214" font-family="Helvetica,sans-Serif" font-size="10.00">sources/Common/IDisplayModule.hpp</text>
</a>
</g>
</g>
<!-- Node1&#45;&gt;Node16 -->
<g id="edge28" class="edge">
<title>Node1&#45;&gt;Node16</title>
<path fill="none" stroke="midnightblue" d="M375.31,-265.11C411.69,-252.46 459.36,-235.89 487.8,-226.01"/>
<polygon fill="midnightblue" stroke="midnightblue" points="374.15,-261.81 365.85,-268.4 376.45,-268.42 374.15,-261.81"/>
</g>
<!-- Node20 -->
<g id="node20" class="node">
<title>Node20</title>
<g id="a_node20"><a xlink:href="IGameModule_8hpp.html" target="_top" xlink:title=" ">
<polygon fill="white" stroke="black" points="937.28,-207 937.28,-226 1131.28,-226 1131.28,-207 937.28,-207"/>
<text text-anchor="middle" x="1034.28" y="-214" font-family="Helvetica,sans-Serif" font-size="10.00">sources/Common/IGameModule.hpp</text>
</a>
</g>
</g>
<!-- Node1&#45;&gt;Node20 -->
<g id="edge38" class="edge">
<title>Node1&#45;&gt;Node20</title>
<path fill="none" stroke="midnightblue" d="M403.93,-275.29C535.77,-263.2 800.7,-238.91 941.45,-226.01"/>
<polygon fill="midnightblue" stroke="midnightblue" points="403.54,-271.81 393.9,-276.21 404.18,-278.78 403.54,-271.81"/>
</g>
<!-- Node3 -->
<g id="node3" class="node">
<title>Node3</title>
<g id="a_node3"><a xlink:href="Runner_8cpp.html" target="_top" xlink:title=" ">
<polygon fill="white" stroke="black" points="908.78,-0.5 908.78,-30.5 1025.78,-30.5 1025.78,-0.5 908.78,-0.5"/>
<text text-anchor="start" x="916.78" y="-18.5" font-family="Helvetica,sans-Serif" font-size="10.00">sources/Core/Runner</text>
<text text-anchor="middle" x="967.28" y="-7.5" font-family="Helvetica,sans-Serif" font-size="10.00">/Runner.cpp</text>
</a>
</g>
</g>
<!-- Node2&#45;&gt;Node3 -->
<g id="edge2" class="edge">
<title>Node2&#45;&gt;Node3</title>
<path fill="none" stroke="midnightblue" d="M816.92,-206.16C870.84,-198.15 935.99,-184.72 955.28,-165 990.9,-128.56 978.8,-60.27 971.33,-30.72"/>
<polygon fill="midnightblue" stroke="midnightblue" points="816.39,-202.7 806.99,-207.6 817.39,-209.63 816.39,-202.7"/>
</g>
<!-- Node2&#45;&gt;Node4 -->
<g id="edge3" class="edge">
<title>Node2&#45;&gt;Node4</title>
<path fill="none" stroke="midnightblue" d="M659.48,-205.55C646.71,-203.99 633.63,-202.43 621.28,-201 472.08,-183.76 434.08,-185.35 285.28,-165 282.55,-164.63 279.77,-164.23 276.97,-163.83"/>
<polygon fill="midnightblue" stroke="midnightblue" points="659.28,-209.05 669.63,-206.8 660.13,-202.11 659.28,-209.05"/>
</g>
<!-- Node2&#45;&gt;Node5 -->
<g id="edge5" class="edge">
<title>Node2&#45;&gt;Node5</title>
<path fill="none" stroke="midnightblue" d="M689.27,-197.61C668.72,-189.11 645.06,-177.96 625.28,-165 608.17,-153.8 609.94,-142.36 591.28,-134 572.88,-125.76 314.65,-102.07 181.49,-90.31"/>
<polygon fill="midnightblue" stroke="midnightblue" points="688.19,-200.95 698.77,-201.45 690.81,-194.46 688.19,-200.95"/>
</g>
<!-- Node2&#45;&gt;Node6 -->
<g id="edge6" class="edge">
<title>Node2&#45;&gt;Node6</title>
<path fill="none" stroke="midnightblue" d="M659.82,-202.77C599.24,-192.83 513.37,-178.48 438.28,-165 435.5,-164.5 432.67,-163.99 429.81,-163.46"/>
<polygon fill="midnightblue" stroke="midnightblue" points="659.26,-206.23 669.69,-204.39 660.39,-199.32 659.26,-206.23"/>
</g>
<!-- Node2&#45;&gt;Node7 -->
<g id="edge8" class="edge">
<title>Node2&#45;&gt;Node7</title>
<path fill="none" stroke="midnightblue" d="M707.62,-195.78C693.86,-186.69 677.55,-175.59 663.28,-165 645.77,-152.01 645.02,-143.22 625.28,-134 591.37,-118.16 496.09,-102.27 430.04,-92.66"/>
<polygon fill="midnightblue" stroke="midnightblue" points="705.97,-198.88 716.25,-201.43 709.81,-193.02 705.97,-198.88"/>
</g>
<!-- Node2&#45;&gt;Node8 -->
<g id="edge9" class="edge">
<title>Node2&#45;&gt;Node8</title>
<path fill="none" stroke="midnightblue" d="M680.23,-198.58C644.01,-188.02 597.93,-174.59 563.69,-164.61"/>
<polygon fill="midnightblue" stroke="midnightblue" points="679.58,-202.04 690.16,-201.48 681.54,-195.32 679.58,-202.04"/>
</g>
<!-- Node2&#45;&gt;Node9 -->
<g id="edge11" class="edge">
<title>Node2&#45;&gt;Node9</title>
<path fill="none" stroke="midnightblue" d="M722.1,-193.22C708.16,-175.3 686.64,-150.47 663.28,-134 640.9,-118.22 612.82,-106.01 589.56,-97.56"/>
<polygon fill="midnightblue" stroke="midnightblue" points="719.48,-195.55 728.31,-201.4 725.05,-191.32 719.48,-195.55"/>
</g>
<!-- Node10 -->
<g id="node10" class="node">
<title>Node10</title>
<g id="a_node10"><a xlink:href="Menu_8cpp.html" target="_top" xlink:title=" ">
<polygon fill="white" stroke="black" points="608.28,-0.5 608.28,-30.5 730.28,-30.5 730.28,-0.5 608.28,-0.5"/>
<text text-anchor="start" x="616.28" y="-18.5" font-family="Helvetica,sans-Serif" font-size="10.00">sources/Games/Menu</text>
<text text-anchor="middle" x="669.28" y="-7.5" font-family="Helvetica,sans-Serif" font-size="10.00">/Menu.cpp</text>
</a>
</g>
</g>
<!-- Node2&#45;&gt;Node10 -->
<g id="edge12" class="edge">
<title>Node2&#45;&gt;Node10</title>
<path fill="none" stroke="midnightblue" d="M726.95,-192.22C715.91,-168.84 699.24,-131.56 688.28,-98 680.7,-74.8 674.88,-46.95 671.78,-30.55"/>
<polygon fill="midnightblue" stroke="midnightblue" points="723.83,-193.82 731.3,-201.34 730.15,-190.8 723.83,-193.82"/>
</g>
<!-- Node11 -->
<g id="node11" class="node">
<title>Node11</title>
<g id="a_node11"><a xlink:href="Nibbler_8cpp.html" target="_top" xlink:title=" ">
<polygon fill="white" stroke="black" points="1037.28,-67.5 1037.28,-97.5 1167.28,-97.5 1167.28,-67.5 1037.28,-67.5"/>
<text text-anchor="start" x="1045.28" y="-85.5" font-family="Helvetica,sans-Serif" font-size="10.00">sources/Games/Nibbler</text>
<text text-anchor="middle" x="1102.28" y="-74.5" font-family="Helvetica,sans-Serif" font-size="10.00">/Nibbler.cpp</text>
</a>
</g>
</g>
<!-- Node2&#45;&gt;Node11 -->
<g id="edge13" class="edge">
<title>Node2&#45;&gt;Node11</title>
<path fill="none" stroke="midnightblue" d="M816.9,-208.38C867.72,-201.7 934.38,-188.97 989.28,-165 989.44,-164.93 1050.31,-121.01 1082.63,-97.68"/>
<polygon fill="midnightblue" stroke="midnightblue" points="816.44,-204.91 806.96,-209.63 817.32,-211.85 816.44,-204.91"/>
</g>
<!-- Node12 -->
<g id="node12" class="node">
<title>Node12</title>
<g id="a_node12"><a xlink:href="Pacman_8cpp.html" target="_top" xlink:title=" ">
<polygon fill="white" stroke="black" points="1405.78,-67.5 1405.78,-97.5 1538.78,-97.5 1538.78,-67.5 1405.78,-67.5"/>
<text text-anchor="start" x="1413.78" y="-85.5" font-family="Helvetica,sans-Serif" font-size="10.00">sources/Games/Pacman</text>
<text text-anchor="middle" x="1472.28" y="-74.5" font-family="Helvetica,sans-Serif" font-size="10.00">/Pacman.cpp</text>
</a>
</g>
</g>
<!-- Node2&#45;&gt;Node12 -->
<g id="edge14" class="edge">
<title>Node2&#45;&gt;Node12</title>
<path fill="none" stroke="midnightblue" d="M817.07,-209.46C989.81,-196.22 1386.66,-165.73 1388.28,-165 1405.22,-157.35 1440.87,-118.99 1459.82,-97.74"/>
<polygon fill="midnightblue" stroke="midnightblue" points="816.72,-205.98 807.02,-210.23 817.26,-212.96 816.72,-205.98"/>
</g>
<!-- Node13 -->
<g id="node13" class="node">
<title>Node13</title>
<g id="a_node13"><a xlink:href="Qix_8cpp.html" target="_top" xlink:title=" ">
<polygon fill="white" stroke="black" points="1206.78,-73 1206.78,-92 1357.78,-92 1357.78,-73 1206.78,-73"/>
<text text-anchor="middle" x="1282.28" y="-80" font-family="Helvetica,sans-Serif" font-size="10.00">sources/Games/Qix/Qix.cpp</text>
</a>
</g>
</g>
<!-- Node2&#45;&gt;Node13 -->
<g id="edge15" class="edge">
<title>Node2&#45;&gt;Node13</title>
<path fill="none" stroke="midnightblue" d="M816.88,-208.94C934.91,-198.72 1147.65,-178.76 1180.28,-165 1200.36,-156.53 1201.28,-147.64 1218.28,-134 1236.82,-119.12 1258.59,-102.02 1271.36,-92.02"/>
<polygon fill="midnightblue" stroke="midnightblue" points="816.47,-205.46 806.81,-209.81 817.07,-212.44 816.47,-205.46"/>
</g>
<!-- Node4&#45;&gt;Node5 -->
<g id="edge4" class="edge">
<title>Node4&#45;&gt;Node5</title>
<path fill="none" stroke="midnightblue" d="M169.39,-128.73C154.69,-118.68 137.16,-106.68 123.85,-97.58"/>
<polygon fill="midnightblue" stroke="midnightblue" points="167.43,-131.64 177.66,-134.4 171.39,-125.86 167.43,-131.64"/>
</g>
<!-- Node6&#45;&gt;Node7 -->
<g id="edge7" class="edge">
<title>Node6&#45;&gt;Node7</title>
<path fill="none" stroke="midnightblue" d="M362.28,-124.11C362.28,-115.15 362.28,-105.32 362.28,-97.58"/>
<polygon fill="midnightblue" stroke="midnightblue" points="358.78,-124.4 362.28,-134.4 365.78,-124.4 358.78,-124.4"/>
</g>
<!-- Node8&#45;&gt;Node9 -->
<g id="edge10" class="edge">
<title>Node8&#45;&gt;Node9</title>
<path fill="none" stroke="midnightblue" d="M525.77,-124.99C529.86,-115.8 534.43,-105.58 538,-97.58"/>
<polygon fill="midnightblue" stroke="midnightblue" points="522.45,-123.84 521.57,-134.4 528.84,-126.69 522.45,-123.84"/>
</g>
<!-- Node14&#45;&gt;Node4 -->
<g id="edge17" class="edge">
<title>Node14&#45;&gt;Node4</title>
<path fill="none" stroke="midnightblue" d="M124.75,-196.02C141.09,-185.9 160.69,-173.77 175.54,-164.58"/>
<polygon fill="midnightblue" stroke="midnightblue" points="122.72,-193.16 116.06,-201.4 126.41,-199.11 122.72,-193.16"/>
</g>
<!-- Node14&#45;&gt;Node5 -->
<g id="edge18" class="edge">
<title>Node14&#45;&gt;Node5</title>
<path fill="none" stroke="midnightblue" d="M63.03,-195.02C53.6,-186.9 44.35,-176.68 39.28,-165 33.79,-152.36 33.27,-146.4 39.28,-134 46.87,-118.33 61.94,-106.06 75.55,-97.54"/>
<polygon fill="midnightblue" stroke="midnightblue" points="60.92,-197.81 70.9,-201.35 65.3,-192.36 60.92,-197.81"/>
</g>
<!-- Node14&#45;&gt;Node6 -->
<g id="edge19" class="edge">
<title>Node14&#45;&gt;Node6</title>
<path fill="none" stroke="midnightblue" d="M161.07,-199.12C205.09,-188.48 261.87,-174.76 303.88,-164.61"/>
<polygon fill="midnightblue" stroke="midnightblue" points="160.21,-195.73 151.31,-201.48 161.86,-202.53 160.21,-195.73"/>
</g>
<!-- Node14&#45;&gt;Node7 -->
<g id="edge20" class="edge">
<title>Node14&#45;&gt;Node7</title>
<path fill="none" stroke="midnightblue" d="M79.46,-192.21C70.85,-174.36 63.75,-150.13 77.28,-134 91.14,-117.47 214.68,-100.39 294.5,-90.94"/>
<polygon fill="midnightblue" stroke="midnightblue" points="76.52,-194.15 84.27,-201.38 82.72,-190.9 76.52,-194.15"/>
</g>
<!-- Node14&#45;&gt;Node8 -->
<g id="edge21" class="edge">
<title>Node14&#45;&gt;Node8</title>
<path fill="none" stroke="midnightblue" d="M171.88,-204.92C241.9,-195.28 347.09,-180.25 438.28,-165 441.36,-164.48 444.52,-163.94 447.7,-163.39"/>
<polygon fill="midnightblue" stroke="midnightblue" points="171.24,-201.48 161.81,-206.31 172.19,-208.41 171.24,-201.48"/>
</g>
<!-- Node14&#45;&gt;Node9 -->
<g id="edge22" class="edge">
<title>Node14&#45;&gt;Node9</title>
<path fill="none" stroke="midnightblue" d="M91.34,-191.26C91.31,-172.8 94.62,-148.21 110.28,-134 164.56,-84.71 365.5,-106.97 438.28,-98 450.72,-96.47 463.97,-94.73 476.74,-93.01"/>
<polygon fill="midnightblue" stroke="midnightblue" points="87.85,-191.42 91.68,-201.29 94.84,-191.18 87.85,-191.42"/>
</g>
<!-- Node14&#45;&gt;Node10 -->
<g id="edge23" class="edge">
<title>Node14&#45;&gt;Node10</title>
<path fill="none" stroke="midnightblue" d="M60.79,-195.54C49.9,-187.34 38.67,-176.95 31.28,-165 8.11,-127.52 -13.65,-99.34 16.28,-67 56.01,-24.08 453.68,-17.53 608.27,-16.61"/>
<polygon fill="midnightblue" stroke="midnightblue" points="58.8,-198.43 68.98,-201.38 62.86,-192.72 58.8,-198.43"/>
</g>
<!-- Node15&#45;&gt;Node4 -->
<g id="edge25" class="edge">
<title>Node15&#45;&gt;Node4</title>
<path fill="none" stroke="midnightblue" d="M288.57,-196.71C268.54,-186.46 244.16,-173.98 225.78,-164.58"/>
<polygon fill="midnightblue" stroke="midnightblue" points="287.22,-199.96 297.72,-201.4 290.41,-193.72 287.22,-199.96"/>
</g>
<!-- Node15&#45;&gt;Node6 -->
<g id="edge26" class="edge">
<title>Node15&#45;&gt;Node6</title>
<path fill="none" stroke="midnightblue" d="M338.33,-192.58C343.64,-183.24 349.61,-172.75 354.26,-164.58"/>
<polygon fill="midnightblue" stroke="midnightblue" points="335.21,-190.97 333.31,-201.4 341.29,-194.44 335.21,-190.97"/>
</g>
<!-- Node15&#45;&gt;Node8 -->
<g id="edge27" class="edge">
<title>Node15&#45;&gt;Node8</title>
<path fill="none" stroke="midnightblue" d="M376.16,-198.09C406.83,-187.6 445.39,-174.41 474.13,-164.58"/>
<polygon fill="midnightblue" stroke="midnightblue" points="374.83,-194.85 366.5,-201.4 377.1,-201.47 374.83,-194.85"/>
</g>
<!-- Node16&#45;&gt;Node4 -->
<g id="edge35" class="edge">
<title>Node16&#45;&gt;Node4</title>
<path fill="none" stroke="midnightblue" d="M461.03,-204.89C407.95,-193.9 324.73,-176.68 266.19,-164.56"/>
<polygon fill="midnightblue" stroke="midnightblue" points="460.4,-208.34 470.9,-206.94 461.82,-201.48 460.4,-208.34"/>
</g>
<!-- Node16&#45;&gt;Node6 -->
<g id="edge36" class="edge">
<title>Node16&#45;&gt;Node6</title>
<path fill="none" stroke="midnightblue" d="M482.89,-202.77C457.51,-191.77 420.87,-175.89 394.65,-164.53"/>
<polygon fill="midnightblue" stroke="midnightblue" points="481.79,-206.1 492.36,-206.87 484.57,-199.68 481.79,-206.1"/>
</g>
<!-- Node16&#45;&gt;Node8 -->
<g id="edge37" class="edge">
<title>Node16&#45;&gt;Node8</title>
<path fill="none" stroke="midnightblue" d="M513.14,-196.74C513.62,-186.49 514.19,-174 514.63,-164.59"/>
<polygon fill="midnightblue" stroke="midnightblue" points="509.65,-196.58 512.68,-206.73 516.64,-196.91 509.65,-196.58"/>
</g>
<!-- Node17 -->
<g id="node17" class="node">
<title>Node17</title>
<g id="a_node17"><a xlink:href="Runner_8hpp.html" target="_top" xlink:title=" ">
<polygon fill="white" stroke="black" points="829.78,-134.5 829.78,-164.5 946.78,-164.5 946.78,-134.5 829.78,-134.5"/>
<text text-anchor="start" x="837.78" y="-152.5" font-family="Helvetica,sans-Serif" font-size="10.00">sources/Core/Runner</text>
<text text-anchor="middle" x="888.28" y="-141.5" font-family="Helvetica,sans-Serif" font-size="10.00">/Runner.hpp</text>
</a>
</g>
</g>
<!-- Node16&#45;&gt;Node17 -->
<g id="edge29" class="edge">
<title>Node16&#45;&gt;Node17</title>
<path fill="none" stroke="midnightblue" d="M571.89,-205.19C642.53,-192.98 759.46,-172.77 829.66,-160.63"/>
<polygon fill="midnightblue" stroke="midnightblue" points="571.08,-201.78 561.82,-206.94 572.27,-208.68 571.08,-201.78"/>
</g>
<!-- Node17&#45;&gt;Node3 -->
<g id="edge30" class="edge">
<title>Node17&#45;&gt;Node3</title>
<path fill="none" stroke="midnightblue" d="M919.72,-128.27C930.23,-120.06 941.09,-109.72 948.28,-98 961.19,-76.94 965.33,-47.91 966.66,-30.78"/>
<polygon fill="midnightblue" stroke="midnightblue" points="917.4,-125.63 911.44,-134.39 921.57,-131.26 917.4,-125.63"/>
</g>
<!-- Node18 -->
<g id="node18" class="node">
<title>Node18</title>
<g id="a_node18"><a xlink:href="Menu_8hpp.html" target="_top" xlink:title=" ">
<polygon fill="white" stroke="black" points="697.28,-67.5 697.28,-97.5 819.28,-97.5 819.28,-67.5 697.28,-67.5"/>
<text text-anchor="start" x="705.28" y="-85.5" font-family="Helvetica,sans-Serif" font-size="10.00">sources/Games/Menu</text>
<text text-anchor="middle" x="758.28" y="-74.5" font-family="Helvetica,sans-Serif" font-size="10.00">/Menu.hpp</text>
</a>
</g>
</g>
<!-- Node17&#45;&gt;Node18 -->
<g id="edge31" class="edge">
<title>Node17&#45;&gt;Node18</title>
<path fill="none" stroke="midnightblue" d="M850.98,-129.85C830.43,-119.58 805.33,-107.03 786.43,-97.58"/>
<polygon fill="midnightblue" stroke="midnightblue" points="849.56,-133.05 860.07,-134.4 852.69,-126.79 849.56,-133.05"/>
</g>
<!-- Node19 -->
<g id="node19" class="node">
<title>Node19</title>
<g id="a_node19"><a xlink:href="main_8cpp.html" target="_top" xlink:title=" ">
<polygon fill="white" stroke="black" points="837.28,-73 837.28,-92 939.28,-92 939.28,-73 837.28,-73"/>
<text text-anchor="middle" x="888.28" y="-80" font-family="Helvetica,sans-Serif" font-size="10.00">sources/main.cpp</text>
</a>
</g>
</g>
<!-- Node17&#45;&gt;Node19 -->
<g id="edge34" class="edge">
<title>Node17&#45;&gt;Node19</title>
<path fill="none" stroke="midnightblue" d="M888.28,-124.25C888.28,-113.02 888.28,-100.38 888.28,-92.19"/>
<polygon fill="midnightblue" stroke="midnightblue" points="884.78,-124.4 888.28,-134.4 891.78,-124.4 884.78,-124.4"/>
</g>
<!-- Node18&#45;&gt;Node3 -->
<g id="edge32" class="edge">
<title>Node18&#45;&gt;Node3</title>
<path fill="none" stroke="midnightblue" d="M813.12,-64.44C847,-53.91 889.95,-40.55 921.91,-30.61"/>
<polygon fill="midnightblue" stroke="midnightblue" points="811.88,-61.16 803.37,-67.48 813.96,-67.85 811.88,-61.16"/>
</g>
<!-- Node18&#45;&gt;Node10 -->
<g id="edge33" class="edge">
<title>Node18&#45;&gt;Node10</title>
<path fill="none" stroke="midnightblue" d="M730.83,-61.45C717.13,-51.45 700.91,-39.6 688.55,-30.58"/>
<polygon fill="midnightblue" stroke="midnightblue" points="728.83,-64.32 738.97,-67.4 732.95,-58.67 728.83,-64.32"/>
</g>
<!-- Node20&#45;&gt;Node17 -->
<g id="edge39" class="edge">
<title>Node20&#45;&gt;Node17</title>
<path fill="none" stroke="midnightblue" d="M1005.68,-202.77C980.97,-191.77 945.31,-175.89 919.79,-164.53"/>
<polygon fill="midnightblue" stroke="midnightblue" points="1004.33,-206 1014.89,-206.87 1007.18,-199.6 1004.33,-206"/>
</g>
<!-- Node20&#45;&gt;Node18 -->
<g id="edge40" class="edge">
<title>Node20&#45;&gt;Node18</title>
<path fill="none" stroke="midnightblue" d="M927.49,-205.08C891.29,-197.85 852.03,-185.62 820.28,-165 794.19,-148.05 774.79,-116.19 765.13,-97.72"/>
<polygon fill="midnightblue" stroke="midnightblue" points="927.13,-208.58 937.61,-207 928.43,-201.7 927.13,-208.58"/>
</g>
<!-- Node21 -->
<g id="node21" class="node">
<title>Node21</title>
<g id="a_node21"><a xlink:href="Nibbler_8hpp.html" target="_top" xlink:title=" ">
<polygon fill="white" stroke="black" points="1041.28,-134.5 1041.28,-164.5 1171.28,-164.5 1171.28,-134.5 1041.28,-134.5"/>
<text text-anchor="start" x="1049.28" y="-152.5" font-family="Helvetica,sans-Serif" font-size="10.00">sources/Games/Nibbler</text>
<text text-anchor="middle" x="1106.28" y="-141.5" font-family="Helvetica,sans-Serif" font-size="10.00">/Nibbler.hpp</text>
</a>
</g>
</g>
<!-- Node20&#45;&gt;Node21 -->
<g id="edge41" class="edge">
<title>Node20&#45;&gt;Node21</title>
<path fill="none" stroke="midnightblue" d="M1051.53,-199.93C1063.43,-189.18 1079.14,-175 1090.67,-164.59"/>
<polygon fill="midnightblue" stroke="midnightblue" points="1049.06,-197.43 1043.99,-206.73 1053.76,-202.63 1049.06,-197.43"/>
</g>
<!-- Node22 -->
<g id="node22" class="node">
<title>Node22</title>
<g id="a_node22"><a xlink:href="Pacman_8hpp.html" target="_top" xlink:title=" ">
<polygon fill="white" stroke="black" points="1435.78,-134.5 1435.78,-164.5 1568.78,-164.5 1568.78,-134.5 1435.78,-134.5"/>
<text text-anchor="start" x="1443.78" y="-152.5" font-family="Helvetica,sans-Serif" font-size="10.00">sources/Games/Pacman</text>
<text text-anchor="middle" x="1502.28" y="-141.5" font-family="Helvetica,sans-Serif" font-size="10.00">/Pacman.hpp</text>
</a>
</g>
</g>
<!-- Node20&#45;&gt;Node22 -->
<g id="edge43" class="edge">
<title>Node20&#45;&gt;Node22</title>
<path fill="none" stroke="midnightblue" d="M1117.85,-205.75C1196.34,-196.33 1316.98,-181.13 1421.28,-165 1425.94,-164.28 1430.74,-163.5 1435.57,-162.7"/>
<polygon fill="midnightblue" stroke="midnightblue" points="1117.05,-202.33 1107.54,-206.99 1117.88,-209.28 1117.05,-202.33"/>
</g>
<!-- Node23 -->
<g id="node23" class="node">
<title>Node23</title>
<g id="a_node23"><a xlink:href="Qix_8hpp.html" target="_top" xlink:title=" ">
<polygon fill="white" stroke="black" points="1227.28,-140 1227.28,-159 1379.28,-159 1379.28,-140 1227.28,-140"/>
<text text-anchor="middle" x="1303.28" y="-147" font-family="Helvetica,sans-Serif" font-size="10.00">sources/Games/Qix/Qix.hpp</text>
</a>
</g>
</g>
<!-- Node20&#45;&gt;Node23 -->
<g id="edge45" class="edge">
<title>Node20&#45;&gt;Node23</title>
<path fill="none" stroke="midnightblue" d="M1079.53,-204.56C1132.57,-191.75 1219.33,-170.78 1267.75,-159.08"/>
<polygon fill="midnightblue" stroke="midnightblue" points="1078.62,-201.18 1069.72,-206.94 1080.26,-207.99 1078.62,-201.18"/>
</g>
<!-- Node21&#45;&gt;Node11 -->
<g id="edge42" class="edge">
<title>Node21&#45;&gt;Node11</title>
<path fill="none" stroke="midnightblue" d="M1104.79,-124.4C1104.24,-115.37 1103.63,-105.41 1103.14,-97.58"/>
<polygon fill="midnightblue" stroke="midnightblue" points="1101.3,-124.63 1105.41,-134.4 1108.29,-124.2 1101.3,-124.63"/>
</g>
<!-- Node22&#45;&gt;Node12 -->
<g id="edge44" class="edge">
<title>Node22&#45;&gt;Node12</title>
<path fill="none" stroke="midnightblue" d="M1491.56,-125.28C1487.29,-116.02 1482.51,-105.66 1478.77,-97.58"/>
<polygon fill="midnightblue" stroke="midnightblue" points="1488.4,-126.78 1495.77,-134.4 1494.75,-123.85 1488.4,-126.78"/>
</g>
<!-- Node23&#45;&gt;Node13 -->
<g id="edge46" class="edge">
<title>Node23&#45;&gt;Node13</title>
<path fill="none" stroke="midnightblue" d="M1297.27,-129.91C1293.26,-117.49 1288.16,-101.72 1285.06,-92.13"/>
<polygon fill="midnightblue" stroke="midnightblue" points="1294.04,-131.29 1300.45,-139.73 1300.7,-129.14 1294.04,-131.29"/>
</g>
</g>
</svg>
