<?xml version="1.0" encoding="UTF-8" standalone="no"?>
<!DOCTYPE svg PUBLIC "-//W3C//DTD SVG 1.1//EN"
 "http://www.w3.org/Graphics/SVG/1.1/DTD/svg11.dtd">
<!-- Generated by graphviz version 2.43.0 (0)
 -->
<!-- Title: sources/Common/IDisplayModule.hpp Pages: 1 -->
<svg width="1340pt" height="196pt"
 viewBox="0.00 0.00 1340.03 196.00" xmlns="http://www.w3.org/2000/svg" xmlns:xlink="http://www.w3.org/1999/xlink">
<g id="graph0" class="graph" transform="scale(1 1) rotate(0) translate(4 192)">
<title>sources/Common/IDisplayModule.hpp</title>
<polygon fill="white" stroke="transparent" points="-4,4 -4,-192 1336.03,-192 1336.03,4 -4,4"/>
<!-- Node1 -->
<g id="node1" class="node">
<title>Node1</title>
<g id="a_node1"><a xlink:title=" ">
<polygon fill="#bfbfbf" stroke="black" points="662.53,-168.5 662.53,-187.5 863.53,-187.5 863.53,-168.5 662.53,-168.5"/>
<text text-anchor="middle" x="763.03" y="-175.5" font-family="Helvetica,sans-Serif" font-size="10.00">sources/Common/IDisplayModule.hpp</text>
</a>
</g>
</g>
<!-- Node2 -->
<g id="node2" class="node">
<title>Node2</title>
<g id="a_node2"><a xlink:href="Module_8hpp.html" target="_top" xlink:title=" ">
<polygon fill="white" stroke="black" points="1160.53,-112.5 1160.53,-131.5 1281.53,-131.5 1281.53,-112.5 1160.53,-112.5"/>
<text text-anchor="middle" x="1221.03" y="-119.5" font-family="Helvetica,sans-Serif" font-size="10.00">Common/Module.hpp</text>
</a>
</g>
</g>
<!-- Node1&#45;&gt;Node2 -->
<g id="edge1" class="edge">
<title>Node1&#45;&gt;Node2</title>
<path fill="none" stroke="midnightblue" d="M839.47,-168.49C915.71,-159.93 1036.49,-146.15 1150.51,-132.17"/>
<polygon fill="midnightblue" stroke="midnightblue" points="1150.96,-135.65 1160.46,-130.95 1150.11,-128.7 1150.96,-135.65"/>
</g>
<!-- Node5 -->
<g id="node5" class="node">
<title>Node5</title>
<g id="a_node5"><a xlink:href="Line_8hpp.html" target="_top" xlink:title=" ">
<polygon fill="white" stroke="black" points="208.03,-112.5 208.03,-131.5 368.03,-131.5 368.03,-112.5 208.03,-112.5"/>
<text text-anchor="middle" x="288.03" y="-119.5" font-family="Helvetica,sans-Serif" font-size="10.00">Common/Drawables/Line.hpp</text>
</a>
</g>
</g>
<!-- Node1&#45;&gt;Node5 -->
<g id="edge4" class="edge">
<title>Node1&#45;&gt;Node5</title>
<path fill="none" stroke="midnightblue" d="M688.03,-168.47C602.44,-158.74 462.77,-142.86 373.16,-132.68"/>
<polygon fill="midnightblue" stroke="midnightblue" points="373.37,-129.18 363.03,-131.53 372.58,-136.13 373.37,-129.18"/>
</g>
<!-- Node7 -->
<g id="node7" class="node">
<title>Node7</title>
<g id="a_node7"><a xlink:title=" ">
<polygon fill="white" stroke="#bfbfbf" points="209.03,-0.5 209.03,-19.5 267.03,-19.5 267.03,-0.5 209.03,-0.5"/>
<text text-anchor="middle" x="238.03" y="-7.5" font-family="Helvetica,sans-Serif" font-size="10.00">memory</text>
</a>
</g>
</g>
<!-- Node1&#45;&gt;Node7 -->
<g id="edge21" class="edge">
<title>Node1&#45;&gt;Node7</title>
<path fill="none" stroke="midnightblue" d="M662.36,-174.58C462.94,-169.28 34.94,-155.26 13.03,-132 -47.06,-68.19 119.72,-30.79 198.9,-17.05"/>
<polygon fill="midnightblue" stroke="midnightblue" points="199.73,-20.46 209.01,-15.34 198.56,-13.56 199.73,-20.46"/>
</g>
<!-- Node8 -->
<g id="node8" class="node">
<title>Node8</title>
<g id="a_node8"><a xlink:href="Rectangle_8hpp.html" target="_top" xlink:title=" ">
<polygon fill="white" stroke="black" points="386.03,-112.5 386.03,-131.5 574.03,-131.5 574.03,-112.5 386.03,-112.5"/>
<text text-anchor="middle" x="480.03" y="-119.5" font-family="Helvetica,sans-Serif" font-size="10.00">Common/Drawables/Rectangle.hpp</text>
</a>
</g>
</g>
<!-- Node1&#45;&gt;Node8 -->
<g id="edge7" class="edge">
<title>Node1&#45;&gt;Node8</title>
<path fill="none" stroke="midnightblue" d="M718.19,-168.44C668.41,-158.94 588.05,-143.61 534.64,-133.42"/>
<polygon fill="midnightblue" stroke="midnightblue" points="535.14,-129.95 524.67,-131.52 533.83,-136.83 535.14,-129.95"/>
</g>
<!-- Node9 -->
<g id="node9" class="node">
<title>Node9</title>
<g id="a_node9"><a xlink:href="Circle_8hpp.html" target="_top" xlink:title=" ">
<polygon fill="white" stroke="black" points="22.53,-112.5 22.53,-131.5 189.53,-131.5 189.53,-112.5 22.53,-112.5"/>
<text text-anchor="middle" x="106.03" y="-119.5" font-family="Helvetica,sans-Serif" font-size="10.00">Common/Drawables/Circle.hpp</text>
</a>
</g>
</g>
<!-- Node1&#45;&gt;Node9 -->
<g id="edge9" class="edge">
<title>Node1&#45;&gt;Node9</title>
<path fill="none" stroke="midnightblue" d="M662.38,-169.48C551.74,-161.1 368.43,-146.87 199.74,-132.05"/>
<polygon fill="midnightblue" stroke="midnightblue" points="199.95,-128.55 189.68,-131.16 199.33,-135.53 199.95,-128.55"/>
</g>
<!-- Node10 -->
<g id="node10" class="node">
<title>Node10</title>
<g id="a_node10"><a xlink:href="Sprite_8hpp.html" target="_top" xlink:title=" ">
<polygon fill="white" stroke="black" points="770.03,-112.5 770.03,-131.5 938.03,-131.5 938.03,-112.5 770.03,-112.5"/>
<text text-anchor="middle" x="854.03" y="-119.5" font-family="Helvetica,sans-Serif" font-size="10.00">Common/Drawables/Sprite.hpp</text>
</a>
</g>
</g>
<!-- Node1&#45;&gt;Node10 -->
<g id="edge11" class="edge">
<title>Node1&#45;&gt;Node10</title>
<path fill="none" stroke="midnightblue" d="M777.65,-168.32C791.98,-159.82 814.05,-146.73 830.78,-136.8"/>
<polygon fill="midnightblue" stroke="midnightblue" points="832.64,-139.77 839.45,-131.65 829.06,-133.75 832.64,-139.77"/>
</g>
<!-- Node11 -->
<g id="node11" class="node">
<title>Node11</title>
<g id="a_node11"><a xlink:href="Text_8hpp.html" target="_top" xlink:title=" ">
<polygon fill="white" stroke="black" points="592.03,-112.5 592.03,-131.5 752.03,-131.5 752.03,-112.5 592.03,-112.5"/>
<text text-anchor="middle" x="672.03" y="-119.5" font-family="Helvetica,sans-Serif" font-size="10.00">Common/Drawables/Text.hpp</text>
</a>
</g>
</g>
<!-- Node1&#45;&gt;Node11 -->
<g id="edge14" class="edge">
<title>Node1&#45;&gt;Node11</title>
<path fill="none" stroke="midnightblue" d="M748.41,-168.32C734.08,-159.82 712.02,-146.73 695.28,-136.8"/>
<polygon fill="midnightblue" stroke="midnightblue" points="697,-133.75 686.62,-131.65 693.43,-139.77 697,-133.75"/>
</g>
<!-- Node12 -->
<g id="node12" class="node">
<title>Node12</title>
<g id="a_node12"><a xlink:href="Event_8hpp.html" target="_top" xlink:title=" ">
<polygon fill="white" stroke="black" points="993.53,-112.5 993.53,-131.5 1142.53,-131.5 1142.53,-112.5 993.53,-112.5"/>
<text text-anchor="middle" x="1068.03" y="-119.5" font-family="Helvetica,sans-Serif" font-size="10.00">Common/Events/Event.hpp</text>
</a>
</g>
</g>
<!-- Node1&#45;&gt;Node12 -->
<g id="edge17" class="edge">
<title>Node1&#45;&gt;Node12</title>
<path fill="none" stroke="midnightblue" d="M811.36,-168.44C865.24,-158.9 952.34,-143.48 1009.9,-133.29"/>
<polygon fill="midnightblue" stroke="midnightblue" points="1010.69,-136.71 1019.93,-131.52 1009.47,-129.81 1010.69,-136.71"/>
</g>
<!-- Node13 -->
<g id="node13" class="node">
<title>Node13</title>
<g id="a_node13"><a xlink:href="Sound_8hpp.html" target="_top" xlink:title=" ">
<polygon fill="white" stroke="black" points="901.53,-56.5 901.53,-75.5 1016.53,-75.5 1016.53,-56.5 901.53,-56.5"/>
<text text-anchor="middle" x="959.03" y="-63.5" font-family="Helvetica,sans-Serif" font-size="10.00">Common/Sound.hpp</text>
</a>
</g>
</g>
<!-- Node1&#45;&gt;Node13 -->
<g id="edge18" class="edge">
<title>Node1&#45;&gt;Node13</title>
<path fill="none" stroke="midnightblue" d="M829.5,-168.43C875.37,-161.13 930.89,-149.1 947.03,-132 958.47,-119.89 960.8,-100.61 960.66,-86.18"/>
<polygon fill="midnightblue" stroke="midnightblue" points="964.15,-85.71 960.16,-75.89 957.15,-86.05 964.15,-85.71"/>
</g>
<!-- Node14 -->
<g id="node14" class="node">
<title>Node14</title>
<g id="a_node14"><a xlink:title=" ">
<polygon fill="white" stroke="#bfbfbf" points="1300.03,-112.5 1300.03,-131.5 1332.03,-131.5 1332.03,-112.5 1300.03,-112.5"/>
<text text-anchor="middle" x="1316.03" y="-119.5" font-family="Helvetica,sans-Serif" font-size="10.00">list</text>
</a>
</g>
</g>
<!-- Node1&#45;&gt;Node14 -->
<g id="edge20" class="edge">
<title>Node1&#45;&gt;Node14</title>
<path fill="none" stroke="midnightblue" d="M863.94,-176.17C968.77,-173.55 1137.33,-164.39 1289.79,-131.72"/>
<polygon fill="midnightblue" stroke="midnightblue" points="1290.78,-135.08 1299.81,-129.53 1289.29,-128.24 1290.78,-135.08"/>
</g>
<!-- Node3 -->
<g id="node3" class="node">
<title>Node3</title>
<g id="a_node3"><a xlink:href="ModInfo_8hpp.html" target="_top" xlink:title=" ">
<polygon fill="white" stroke="black" points="1099.53,-56.5 1099.53,-75.5 1224.53,-75.5 1224.53,-56.5 1099.53,-56.5"/>
<text text-anchor="middle" x="1162.03" y="-63.5" font-family="Helvetica,sans-Serif" font-size="10.00">Common/ModInfo.hpp</text>
</a>
</g>
</g>
<!-- Node2&#45;&gt;Node3 -->
<g id="edge2" class="edge">
<title>Node2&#45;&gt;Node3</title>
<path fill="none" stroke="midnightblue" d="M1211.55,-112.32C1202.83,-104.34 1189.69,-92.31 1179.14,-82.65"/>
<polygon fill="midnightblue" stroke="midnightblue" points="1181.43,-80 1171.69,-75.83 1176.7,-85.17 1181.43,-80"/>
</g>
<!-- Node4 -->
<g id="node4" class="node">
<title>Node4</title>
<g id="a_node4"><a xlink:title=" ">
<polygon fill="white" stroke="#bfbfbf" points="887.03,-0.5 887.03,-19.5 931.03,-19.5 931.03,-0.5 887.03,-0.5"/>
<text text-anchor="middle" x="909.03" y="-7.5" font-family="Helvetica,sans-Serif" font-size="10.00">string</text>
</a>
</g>
</g>
<!-- Node3&#45;&gt;Node4 -->
<g id="edge3" class="edge">
<title>Node3&#45;&gt;Node4</title>
<path fill="none" stroke="midnightblue" d="M1121.94,-56.44C1071.92,-45.77 987.36,-27.72 941.3,-17.89"/>
<polygon fill="midnightblue" stroke="midnightblue" points="941.78,-14.41 931.27,-15.75 940.32,-21.26 941.78,-14.41"/>
</g>
<!-- Node6 -->
<g id="node6" class="node">
<title>Node6</title>
<g id="a_node6"><a xlink:href="ADrawable_8hpp.html" target="_top" xlink:title=" ">
<polygon fill="white" stroke="black" points="287.53,-56.5 287.53,-75.5 480.53,-75.5 480.53,-56.5 287.53,-56.5"/>
<text text-anchor="middle" x="384.03" y="-63.5" font-family="Helvetica,sans-Serif" font-size="10.00">Common/Drawables/ADrawable.hpp</text>
</a>
</g>
</g>
<!-- Node5&#45;&gt;Node6 -->
<g id="edge5" class="edge">
<title>Node5&#45;&gt;Node6</title>
<path fill="none" stroke="midnightblue" d="M303.46,-112.32C318.57,-103.82 341.85,-90.73 359.5,-80.8"/>
<polygon fill="midnightblue" stroke="midnightblue" points="361.65,-83.61 368.65,-75.65 358.22,-77.51 361.65,-83.61"/>
</g>
<!-- Node6&#45;&gt;Node7 -->
<g id="edge6" class="edge">
<title>Node6&#45;&gt;Node7</title>
<path fill="none" stroke="midnightblue" d="M360.9,-56.44C336.55,-47.44 298.03,-33.19 270.61,-23.05"/>
<polygon fill="midnightblue" stroke="midnightblue" points="271.65,-19.7 261.06,-19.52 269.22,-26.27 271.65,-19.7"/>
</g>
<!-- Node8&#45;&gt;Node6 -->
<g id="edge8" class="edge">
<title>Node8&#45;&gt;Node6</title>
<path fill="none" stroke="midnightblue" d="M464.61,-112.32C449.49,-103.82 426.22,-90.73 408.56,-80.8"/>
<polygon fill="midnightblue" stroke="midnightblue" points="409.85,-77.51 399.42,-75.65 406.42,-83.61 409.85,-77.51"/>
</g>
<!-- Node9&#45;&gt;Node6 -->
<g id="edge10" class="edge">
<title>Node9&#45;&gt;Node6</title>
<path fill="none" stroke="midnightblue" d="M150.08,-112.44C198.88,-102.96 277.6,-87.67 330.06,-77.48"/>
<polygon fill="midnightblue" stroke="midnightblue" points="331.04,-80.86 340.19,-75.52 329.71,-73.99 331.04,-80.86"/>
</g>
<!-- Node10&#45;&gt;Node4 -->
<g id="edge13" class="edge">
<title>Node10&#45;&gt;Node4</title>
<path fill="none" stroke="midnightblue" d="M858.35,-112.37C867.35,-94.38 888.26,-52.55 900.22,-28.63"/>
<polygon fill="midnightblue" stroke="midnightblue" points="903.4,-30.1 904.74,-19.59 897.13,-26.97 903.4,-30.1"/>
</g>
<!-- Node10&#45;&gt;Node6 -->
<g id="edge12" class="edge">
<title>Node10&#45;&gt;Node6</title>
<path fill="none" stroke="midnightblue" d="M779.82,-112.47C695.13,-102.74 556.93,-86.86 468.27,-76.68"/>
<polygon fill="midnightblue" stroke="midnightblue" points="468.58,-73.19 458.24,-75.53 467.78,-80.15 468.58,-73.19"/>
</g>
<!-- Node11&#45;&gt;Node4 -->
<g id="edge16" class="edge">
<title>Node11&#45;&gt;Node4</title>
<path fill="none" stroke="midnightblue" d="M690.63,-112.37C732.08,-93.13 832.23,-46.65 881.17,-23.93"/>
<polygon fill="midnightblue" stroke="midnightblue" points="882.93,-26.98 890.52,-19.59 879.98,-20.63 882.93,-26.98"/>
</g>
<!-- Node11&#45;&gt;Node6 -->
<g id="edge15" class="edge">
<title>Node11&#45;&gt;Node6</title>
<path fill="none" stroke="midnightblue" d="M626.4,-112.44C575.74,-102.94 493.96,-87.61 439.61,-77.42"/>
<polygon fill="midnightblue" stroke="midnightblue" points="439.93,-73.92 429.45,-75.52 438.64,-80.8 439.93,-73.92"/>
</g>
<!-- Node13&#45;&gt;Node4 -->
<g id="edge19" class="edge">
<title>Node13&#45;&gt;Node4</title>
<path fill="none" stroke="midnightblue" d="M950.78,-56.08C943.57,-48.3 932.92,-36.8 924.19,-27.37"/>
<polygon fill="midnightblue" stroke="midnightblue" points="926.5,-24.71 917.14,-19.75 921.36,-29.47 926.5,-24.71"/>
</g>
</g>
</svg>
