<?xml version="1.0" encoding="UTF-8" standalone="no"?>
<!DOCTYPE svg PUBLIC "-//W3C//DTD SVG 1.1//EN"
 "http://www.w3.org/Graphics/SVG/1.1/DTD/svg11.dtd">
<!-- Generated by graphviz version 2.43.0 (0)
 -->
<!-- Title: sources/Common/IGameModule.hpp Pages: 1 -->
<svg width="702pt" height="196pt"
 viewBox="0.00 0.00 701.68 196.00" xmlns="http://www.w3.org/2000/svg" xmlns:xlink="http://www.w3.org/1999/xlink">
<g id="graph0" class="graph" transform="scale(1 1) rotate(0) translate(4 192)">
<title>sources/Common/IGameModule.hpp</title>
<polygon fill="white" stroke="transparent" points="-4,4 -4,-192 697.68,-192 697.68,4 -4,4"/>
<!-- Node1 -->
<g id="node1" class="node">
<title>Node1</title>
<g id="a_node1"><a xlink:title=" ">
<polygon fill="#bfbfbf" stroke="black" points="254.18,-168.5 254.18,-187.5 448.18,-187.5 448.18,-168.5 254.18,-168.5"/>
<text text-anchor="middle" x="351.18" y="-175.5" font-family="Helvetica,sans-Serif" font-size="10.00">sources/Common/IGameModule.hpp</text>
</a>
</g>
</g>
<!-- Node2 -->
<g id="node2" class="node">
<title>Node2</title>
<g id="a_node2"><a xlink:href="ModInfo_8hpp.html" target="_top" xlink:title=" ">
<polygon fill="white" stroke="black" points="10.68,-56.5 10.68,-75.5 135.68,-75.5 135.68,-56.5 10.68,-56.5"/>
<text text-anchor="middle" x="73.18" y="-63.5" font-family="Helvetica,sans-Serif" font-size="10.00">Common/ModInfo.hpp</text>
</a>
</g>
</g>
<!-- Node1&#45;&gt;Node2 -->
<g id="edge1" class="edge">
<title>Node1&#45;&gt;Node2</title>
<path fill="none" stroke="midnightblue" d="M253.82,-170.84C157.29,-163.72 21.47,-150.55 5.18,-132 -11.81,-112.66 17.91,-92.49 43.25,-79.85"/>
<polygon fill="midnightblue" stroke="midnightblue" points="44.77,-83 52.3,-75.54 41.77,-76.68 44.77,-83"/>
</g>
<!-- Node3 -->
<g id="node3" class="node">
<title>Node3</title>
<g id="a_node3"><a xlink:title=" ">
<polygon fill="white" stroke="#bfbfbf" points="142.18,-0.5 142.18,-19.5 186.18,-19.5 186.18,-0.5 142.18,-0.5"/>
<text text-anchor="middle" x="164.18" y="-7.5" font-family="Helvetica,sans-Serif" font-size="10.00">string</text>
</a>
</g>
</g>
<!-- Node1&#45;&gt;Node3 -->
<g id="edge12" class="edge">
<title>Node1&#45;&gt;Node3</title>
<path fill="none" stroke="midnightblue" d="M293.82,-168.45C251.21,-160.89 198.02,-148.5 183.18,-132 157.79,-103.77 158.58,-56.04 161.37,-29.76"/>
<polygon fill="midnightblue" stroke="midnightblue" points="164.87,-30 162.67,-19.63 157.93,-29.11 164.87,-30"/>
</g>
<!-- Node4 -->
<g id="node4" class="node">
<title>Node4</title>
<g id="a_node4"><a xlink:href="ADrawable_8hpp.html" target="_top" xlink:title=" ">
<polygon fill="white" stroke="black" points="192.68,-112.5 192.68,-131.5 385.68,-131.5 385.68,-112.5 192.68,-112.5"/>
<text text-anchor="middle" x="289.18" y="-119.5" font-family="Helvetica,sans-Serif" font-size="10.00">Common/Drawables/ADrawable.hpp</text>
</a>
</g>
</g>
<!-- Node1&#45;&gt;Node4 -->
<g id="edge3" class="edge">
<title>Node1&#45;&gt;Node4</title>
<path fill="none" stroke="midnightblue" d="M341.22,-168.32C332.05,-160.34 318.24,-148.31 307.15,-138.65"/>
<polygon fill="midnightblue" stroke="midnightblue" points="309.16,-135.76 299.32,-131.83 304.56,-141.04 309.16,-135.76"/>
</g>
<!-- Node5 -->
<g id="node5" class="node">
<title>Node5</title>
<g id="a_node5"><a xlink:title=" ">
<polygon fill="white" stroke="#bfbfbf" points="316.18,-56.5 316.18,-75.5 374.18,-75.5 374.18,-56.5 316.18,-56.5"/>
<text text-anchor="middle" x="345.18" y="-63.5" font-family="Helvetica,sans-Serif" font-size="10.00">memory</text>
</a>
</g>
</g>
<!-- Node1&#45;&gt;Node5 -->
<g id="edge11" class="edge">
<title>Node1&#45;&gt;Node5</title>
<path fill="none" stroke="midnightblue" d="M364.24,-168.34C380.48,-156.42 404.94,-133.91 395.18,-112 389.61,-99.5 378.66,-89.01 368.43,-81.32"/>
<polygon fill="midnightblue" stroke="midnightblue" points="370.33,-78.38 360.13,-75.53 366.33,-84.12 370.33,-78.38"/>
</g>
<!-- Node6 -->
<g id="node6" class="node">
<title>Node6</title>
<g id="a_node6"><a xlink:href="Module_8hpp.html" target="_top" xlink:title=" ">
<polygon fill="white" stroke="black" points="14.68,-112.5 14.68,-131.5 135.68,-131.5 135.68,-112.5 14.68,-112.5"/>
<text text-anchor="middle" x="75.18" y="-119.5" font-family="Helvetica,sans-Serif" font-size="10.00">Common/Module.hpp</text>
</a>
</g>
</g>
<!-- Node1&#45;&gt;Node6 -->
<g id="edge5" class="edge">
<title>Node1&#45;&gt;Node6</title>
<path fill="none" stroke="midnightblue" d="M307.45,-168.44C259,-158.96 180.85,-143.67 128.76,-133.48"/>
<polygon fill="midnightblue" stroke="midnightblue" points="129.19,-130 118.71,-131.52 127.85,-136.87 129.19,-130"/>
</g>
<!-- Node7 -->
<g id="node7" class="node">
<title>Node7</title>
<g id="a_node7"><a xlink:href="Event_8hpp.html" target="_top" xlink:title=" ">
<polygon fill="white" stroke="black" points="441.68,-112.5 441.68,-131.5 590.68,-131.5 590.68,-112.5 441.68,-112.5"/>
<text text-anchor="middle" x="516.18" y="-119.5" font-family="Helvetica,sans-Serif" font-size="10.00">Common/Events/Event.hpp</text>
</a>
</g>
</g>
<!-- Node1&#45;&gt;Node7 -->
<g id="edge7" class="edge">
<title>Node1&#45;&gt;Node7</title>
<path fill="none" stroke="midnightblue" d="M377.32,-168.44C405.2,-159.32 449.53,-144.81 480.58,-134.65"/>
<polygon fill="midnightblue" stroke="midnightblue" points="481.74,-137.95 490.16,-131.52 479.56,-131.3 481.74,-137.95"/>
</g>
<!-- Node8 -->
<g id="node8" class="node">
<title>Node8</title>
<g id="a_node8"><a xlink:href="Sound_8hpp.html" target="_top" xlink:title=" ">
<polygon fill="white" stroke="black" points="504.68,-56.5 504.68,-75.5 619.68,-75.5 619.68,-56.5 504.68,-56.5"/>
<text text-anchor="middle" x="562.18" y="-63.5" font-family="Helvetica,sans-Serif" font-size="10.00">Common/Sound.hpp</text>
</a>
</g>
</g>
<!-- Node1&#45;&gt;Node8 -->
<g id="edge8" class="edge">
<title>Node1&#45;&gt;Node8</title>
<path fill="none" stroke="midnightblue" d="M448.4,-171.99C509.65,-166.56 580.71,-155.3 600.18,-132 613.17,-116.45 596.5,-95.91 581.33,-82.11"/>
<polygon fill="midnightblue" stroke="midnightblue" points="583.57,-79.42 573.69,-75.58 579.01,-84.74 583.57,-79.42"/>
</g>
<!-- Node9 -->
<g id="node9" class="node">
<title>Node9</title>
<g id="a_node9"><a xlink:title=" ">
<polygon fill="white" stroke="#bfbfbf" points="646.68,-112.5 646.68,-131.5 693.68,-131.5 693.68,-112.5 646.68,-112.5"/>
<text text-anchor="middle" x="670.18" y="-119.5" font-family="Helvetica,sans-Serif" font-size="10.00">vector</text>
</a>
</g>
</g>
<!-- Node1&#45;&gt;Node9 -->
<g id="edge10" class="edge">
<title>Node1&#45;&gt;Node9</title>
<path fill="none" stroke="midnightblue" d="M412.81,-168.47C469.89,-160.25 557.06,-146.89 632.18,-132 633.63,-131.71 635.12,-131.41 636.61,-131.09"/>
<polygon fill="midnightblue" stroke="midnightblue" points="637.52,-134.47 646.52,-128.89 636,-127.64 637.52,-134.47"/>
</g>
<!-- Node2&#45;&gt;Node3 -->
<g id="edge2" class="edge">
<title>Node2&#45;&gt;Node3</title>
<path fill="none" stroke="midnightblue" d="M87.8,-56.32C102.13,-47.82 124.19,-34.73 140.93,-24.8"/>
<polygon fill="midnightblue" stroke="midnightblue" points="142.78,-27.77 149.59,-19.65 139.21,-21.75 142.78,-27.77"/>
</g>
<!-- Node4&#45;&gt;Node5 -->
<g id="edge4" class="edge">
<title>Node4&#45;&gt;Node5</title>
<path fill="none" stroke="midnightblue" d="M298.18,-112.32C306.37,-104.42 318.68,-92.55 328.65,-82.94"/>
<polygon fill="midnightblue" stroke="midnightblue" points="331.25,-85.29 336.02,-75.83 326.39,-80.26 331.25,-85.29"/>
</g>
<!-- Node6&#45;&gt;Node2 -->
<g id="edge6" class="edge">
<title>Node6&#45;&gt;Node2</title>
<path fill="none" stroke="midnightblue" d="M74.85,-112.08C74.59,-105.01 74.21,-94.86 73.88,-85.99"/>
<polygon fill="midnightblue" stroke="midnightblue" points="77.37,-85.61 73.5,-75.75 70.38,-85.87 77.37,-85.61"/>
</g>
<!-- Node8&#45;&gt;Node3 -->
<g id="edge9" class="edge">
<title>Node8&#45;&gt;Node3</title>
<path fill="none" stroke="midnightblue" d="M504.31,-57.15C419.38,-45.63 263.8,-24.52 196.55,-15.39"/>
<polygon fill="midnightblue" stroke="midnightblue" points="196.92,-11.91 186.54,-14.03 195.98,-18.85 196.92,-11.91"/>
</g>
</g>
</svg>
