<?xml version="1.0" encoding="UTF-8" standalone="no"?>
<!DOCTYPE svg PUBLIC "-//W3C//DTD SVG 1.1//EN"
 "http://www.w3.org/Graphics/SVG/1.1/DTD/svg11.dtd">
<!-- Generated by graphviz version 2.43.0 (0)
 -->
<!-- Title: sources/Common/IGameModule.hpp Pages: 1 -->
<svg width="770pt" height="229pt"
 viewBox="0.00 0.00 769.50 229.00" xmlns="http://www.w3.org/2000/svg" xmlns:xlink="http://www.w3.org/1999/xlink">
<g id="graph0" class="graph" transform="scale(1 1) rotate(0) translate(4 225)">
<title>sources/Common/IGameModule.hpp</title>
<polygon fill="white" stroke="transparent" points="-4,4 -4,-225 765.5,-225 765.5,4 -4,4"/>
<!-- Node1 -->
<g id="node1" class="node">
<title>Node1</title>
<g id="a_node1"><a xlink:title=" ">
<polygon fill="#bfbfbf" stroke="black" points="277.5,-201.5 277.5,-220.5 471.5,-220.5 471.5,-201.5 277.5,-201.5"/>
<text text-anchor="middle" x="374.5" y="-208.5" font-family="Helvetica,sans-Serif" font-size="10.00">sources/Common/IGameModule.hpp</text>
</a>
</g>
</g>
<!-- Node2 -->
<g id="node2" class="node">
<title>Node2</title>
<g id="a_node2"><a xlink:href="Runner_8hpp.html" target="_top" xlink:title=" ">
<polygon fill="white" stroke="black" points="90,-134.5 90,-164.5 207,-164.5 207,-134.5 90,-134.5"/>
<text text-anchor="start" x="98" y="-152.5" font-family="Helvetica,sans-Serif" font-size="10.00">sources/Core/Runner</text>
<text text-anchor="middle" x="148.5" y="-141.5" font-family="Helvetica,sans-Serif" font-size="10.00">/Runner.hpp</text>
</a>
</g>
</g>
<!-- Node1&#45;&gt;Node2 -->
<g id="edge1" class="edge">
<title>Node1&#45;&gt;Node2</title>
<path fill="none" stroke="midnightblue" d="M332.18,-198.86C295.28,-189.14 241.58,-175.01 201.76,-164.52"/>
<polygon fill="midnightblue" stroke="midnightblue" points="331.56,-202.31 342.12,-201.48 333.34,-195.54 331.56,-202.31"/>
</g>
<!-- Node4 -->
<g id="node4" class="node">
<title>Node4</title>
<g id="a_node4"><a xlink:href="Menu_8hpp.html" target="_top" xlink:title=" ">
<polygon fill="white" stroke="black" points="170.5,-67.5 170.5,-97.5 292.5,-97.5 292.5,-67.5 170.5,-67.5"/>
<text text-anchor="start" x="178.5" y="-85.5" font-family="Helvetica,sans-Serif" font-size="10.00">sources/Games/Menu</text>
<text text-anchor="middle" x="231.5" y="-74.5" font-family="Helvetica,sans-Serif" font-size="10.00">/Menu.hpp</text>
</a>
</g>
</g>
<!-- Node1&#45;&gt;Node4 -->
<g id="edge7" class="edge">
<title>Node1&#45;&gt;Node4</title>
<path fill="none" stroke="midnightblue" d="M347.89,-196.56C333.15,-188.46 314.94,-177.34 300.5,-165 276.4,-144.4 253.71,-114.96 241.3,-97.68"/>
<polygon fill="midnightblue" stroke="midnightblue" points="346.53,-199.8 357,-201.43 349.83,-193.63 346.53,-199.8"/>
</g>
<!-- Node7 -->
<g id="node7" class="node">
<title>Node7</title>
<g id="a_node7"><a xlink:href="Nibbler_8hpp.html" target="_top" xlink:title=" ">
<polygon fill="white" stroke="black" points="309.5,-134.5 309.5,-164.5 439.5,-164.5 439.5,-134.5 309.5,-134.5"/>
<text text-anchor="start" x="317.5" y="-152.5" font-family="Helvetica,sans-Serif" font-size="10.00">sources/Games/Nibbler</text>
<text text-anchor="middle" x="374.5" y="-141.5" font-family="Helvetica,sans-Serif" font-size="10.00">/Nibbler.hpp</text>
</a>
</g>
</g>
<!-- Node1&#45;&gt;Node7 -->
<g id="edge8" class="edge">
<title>Node1&#45;&gt;Node7</title>
<path fill="none" stroke="midnightblue" d="M374.5,-191.23C374.5,-182.59 374.5,-172.5 374.5,-164.52"/>
<polygon fill="midnightblue" stroke="midnightblue" points="371,-191.48 374.5,-201.48 378,-191.48 371,-191.48"/>
</g>
<!-- Node9 -->
<g id="node9" class="node">
<title>Node9</title>
<g id="a_node9"><a xlink:href="Pacman_8hpp.html" target="_top" xlink:title=" ">
<polygon fill="white" stroke="black" points="458,-134.5 458,-164.5 591,-164.5 591,-134.5 458,-134.5"/>
<text text-anchor="start" x="466" y="-152.5" font-family="Helvetica,sans-Serif" font-size="10.00">sources/Games/Pacman</text>
<text text-anchor="middle" x="524.5" y="-141.5" font-family="Helvetica,sans-Serif" font-size="10.00">/Pacman.hpp</text>
</a>
</g>
</g>
<!-- Node1&#45;&gt;Node9 -->
<g id="edge10" class="edge">
<title>Node1&#45;&gt;Node9</title>
<path fill="none" stroke="midnightblue" d="M405.46,-197.72C429.81,-188.06 463.74,-174.6 489.15,-164.52"/>
<polygon fill="midnightblue" stroke="midnightblue" points="404,-194.53 395.99,-201.48 406.58,-201.04 404,-194.53"/>
</g>
<!-- Node11 -->
<g id="node11" class="node">
<title>Node11</title>
<g id="a_node11"><a xlink:href="Qix_8hpp.html" target="_top" xlink:title=" ">
<polygon fill="white" stroke="black" points="609.5,-140 609.5,-159 761.5,-159 761.5,-140 609.5,-140"/>
<text text-anchor="middle" x="685.5" y="-147" font-family="Helvetica,sans-Serif" font-size="10.00">sources/Games/Qix/Qix.hpp</text>
</a>
</g>
</g>
<!-- Node1&#45;&gt;Node11 -->
<g id="edge12" class="edge">
<title>Node1&#45;&gt;Node11</title>
<path fill="none" stroke="midnightblue" d="M429.14,-199.55C489.4,-188.02 585.18,-169.69 641.02,-159.01"/>
<polygon fill="midnightblue" stroke="midnightblue" points="428.22,-196.16 419.06,-201.48 429.54,-203.03 428.22,-196.16"/>
</g>
<!-- Node3 -->
<g id="node3" class="node">
<title>Node3</title>
<g id="a_node3"><a xlink:href="Runner_8cpp.html" target="_top" xlink:title=" ">
<polygon fill="white" stroke="black" points="0,-0.5 0,-30.5 117,-30.5 117,-0.5 0,-0.5"/>
<text text-anchor="start" x="8" y="-18.5" font-family="Helvetica,sans-Serif" font-size="10.00">sources/Core/Runner</text>
<text text-anchor="middle" x="58.5" y="-7.5" font-family="Helvetica,sans-Serif" font-size="10.00">/Runner.cpp</text>
</a>
</g>
</g>
<!-- Node2&#45;&gt;Node3 -->
<g id="edge2" class="edge">
<title>Node2&#45;&gt;Node3</title>
<path fill="none" stroke="midnightblue" d="M80.78,-130.37C65.29,-122.92 50.69,-112.5 41.5,-98 28.27,-77.12 40.3,-47.77 49.75,-30.58"/>
<polygon fill="midnightblue" stroke="midnightblue" points="79.41,-133.59 89.98,-134.43 82.24,-127.19 79.41,-133.59"/>
</g>
<!-- Node2&#45;&gt;Node4 -->
<g id="edge3" class="edge">
<title>Node2&#45;&gt;Node4</title>
<path fill="none" stroke="midnightblue" d="M174.46,-128.17C187.15,-118.23 202.11,-106.51 213.53,-97.58"/>
<polygon fill="midnightblue" stroke="midnightblue" points="172.22,-125.47 166.51,-134.4 176.54,-130.99 172.22,-125.47"/>
</g>
<!-- Node6 -->
<g id="node6" class="node">
<title>Node6</title>
<g id="a_node6"><a xlink:href="main_8cpp.html" target="_top" xlink:title=" ">
<polygon fill="white" stroke="black" points="50.5,-73 50.5,-92 152.5,-92 152.5,-73 50.5,-73"/>
<text text-anchor="middle" x="101.5" y="-80" font-family="Helvetica,sans-Serif" font-size="10.00">sources/main.cpp</text>
</a>
</g>
</g>
<!-- Node2&#45;&gt;Node6 -->
<g id="edge6" class="edge">
<title>Node2&#45;&gt;Node6</title>
<path fill="none" stroke="midnightblue" d="M132.21,-125.97C123.79,-114.33 114.01,-100.8 107.79,-92.19"/>
<polygon fill="midnightblue" stroke="midnightblue" points="129.61,-128.34 138.3,-134.4 135.28,-124.24 129.61,-128.34"/>
</g>
<!-- Node4&#45;&gt;Node3 -->
<g id="edge4" class="edge">
<title>Node4&#45;&gt;Node3</title>
<path fill="none" stroke="midnightblue" d="M184.44,-63.82C156.63,-53.37 121.91,-40.32 95.97,-30.58"/>
<polygon fill="midnightblue" stroke="midnightblue" points="183.37,-67.16 193.96,-67.4 185.83,-60.6 183.37,-67.16"/>
</g>
<!-- Node5 -->
<g id="node5" class="node">
<title>Node5</title>
<g id="a_node5"><a xlink:href="Menu_8cpp.html" target="_top" xlink:title=" ">
<polygon fill="white" stroke="black" points="170.5,-0.5 170.5,-30.5 292.5,-30.5 292.5,-0.5 170.5,-0.5"/>
<text text-anchor="start" x="178.5" y="-18.5" font-family="Helvetica,sans-Serif" font-size="10.00">sources/Games/Menu</text>
<text text-anchor="middle" x="231.5" y="-7.5" font-family="Helvetica,sans-Serif" font-size="10.00">/Menu.cpp</text>
</a>
</g>
</g>
<!-- Node4&#45;&gt;Node5 -->
<g id="edge5" class="edge">
<title>Node4&#45;&gt;Node5</title>
<path fill="none" stroke="midnightblue" d="M231.5,-57.11C231.5,-48.15 231.5,-38.32 231.5,-30.58"/>
<polygon fill="midnightblue" stroke="midnightblue" points="228,-57.4 231.5,-67.4 235,-57.4 228,-57.4"/>
</g>
<!-- Node8 -->
<g id="node8" class="node">
<title>Node8</title>
<g id="a_node8"><a xlink:href="Nibbler_8cpp.html" target="_top" xlink:title=" ">
<polygon fill="white" stroke="black" points="310.5,-67.5 310.5,-97.5 440.5,-97.5 440.5,-67.5 310.5,-67.5"/>
<text text-anchor="start" x="318.5" y="-85.5" font-family="Helvetica,sans-Serif" font-size="10.00">sources/Games/Nibbler</text>
<text text-anchor="middle" x="375.5" y="-74.5" font-family="Helvetica,sans-Serif" font-size="10.00">/Nibbler.cpp</text>
</a>
</g>
</g>
<!-- Node7&#45;&gt;Node8 -->
<g id="edge9" class="edge">
<title>Node7&#45;&gt;Node8</title>
<path fill="none" stroke="midnightblue" d="M374.88,-124.11C375.01,-115.15 375.16,-105.32 375.28,-97.58"/>
<polygon fill="midnightblue" stroke="midnightblue" points="371.37,-124.34 374.72,-134.4 378.37,-124.45 371.37,-124.34"/>
</g>
<!-- Node10 -->
<g id="node10" class="node">
<title>Node10</title>
<g id="a_node10"><a xlink:href="Pacman_8cpp.html" target="_top" xlink:title=" ">
<polygon fill="white" stroke="black" points="459,-67.5 459,-97.5 592,-97.5 592,-67.5 459,-67.5"/>
<text text-anchor="start" x="467" y="-85.5" font-family="Helvetica,sans-Serif" font-size="10.00">sources/Games/Pacman</text>
<text text-anchor="middle" x="525.5" y="-74.5" font-family="Helvetica,sans-Serif" font-size="10.00">/Pacman.cpp</text>
</a>
</g>
</g>
<!-- Node9&#45;&gt;Node10 -->
<g id="edge11" class="edge">
<title>Node9&#45;&gt;Node10</title>
<path fill="none" stroke="midnightblue" d="M524.88,-124.11C525.01,-115.15 525.16,-105.32 525.28,-97.58"/>
<polygon fill="midnightblue" stroke="midnightblue" points="521.37,-124.34 524.72,-134.4 528.37,-124.45 521.37,-124.34"/>
</g>
<!-- Node12 -->
<g id="node12" class="node">
<title>Node12</title>
<g id="a_node12"><a xlink:href="Qix_8cpp.html" target="_top" xlink:title=" ">
<polygon fill="white" stroke="black" points="610,-73 610,-92 761,-92 761,-73 610,-73"/>
<text text-anchor="middle" x="685.5" y="-80" font-family="Helvetica,sans-Serif" font-size="10.00">sources/Games/Qix/Qix.cpp</text>
</a>
</g>
</g>
<!-- Node11&#45;&gt;Node12 -->
<g id="edge13" class="edge">
<title>Node11&#45;&gt;Node12</title>
<path fill="none" stroke="midnightblue" d="M685.5,-129.54C685.5,-117.17 685.5,-101.62 685.5,-92.13"/>
<polygon fill="midnightblue" stroke="midnightblue" points="682,-129.73 685.5,-139.73 689,-129.73 682,-129.73"/>
</g>
</g>
</svg>
