<?xml version="1.0" encoding="UTF-8" standalone="no"?>
<!DOCTYPE svg PUBLIC "-//W3C//DTD SVG 1.1//EN"
 "http://www.w3.org/Graphics/SVG/1.1/DTD/svg11.dtd">
<!-- Generated by graphviz version 2.43.0 (0)
 -->
<!-- Title: Graphical Class Hierarchy Pages: 1 -->
<svg width="292pt" height="215pt"
 viewBox="0.00 0.00 292.00 214.50" xmlns="http://www.w3.org/2000/svg" xmlns:xlink="http://www.w3.org/1999/xlink">
<g id="graph0" class="graph" transform="scale(1 1) rotate(0) translate(4 210.5)">
<title>Graphical Class Hierarchy</title>
<polygon fill="white" stroke="transparent" points="-4,4 -4,-210.5 288,-210.5 288,4 -4,4"/>
<!-- Node0 -->
<g id="node1" class="node">
<title>Node0</title>
<g id="a_node1"><a xlink:href="structArcade_1_1Drawables_1_1ADrawable.html" target="_top" xlink:title="A base struct for every objects in the game.">
<polygon fill="white" stroke="black" points="0,-88 0,-118 114,-118 114,-88 0,-88"/>
<text text-anchor="start" x="8" y="-106" font-family="Helvetica,sans-Serif" font-size="10.00">Arcade::Drawables::</text>
<text text-anchor="middle" x="57" y="-95" font-family="Helvetica,sans-Serif" font-size="10.00">ADrawable</text>
</a>
</g>
</g>
<!-- Node1 -->
<g id="node2" class="node">
<title>Node1</title>
<g id="a_node2"><a xlink:href="structArcade_1_1Drawables_1_1Circle.html" target="_top" xlink:title="A circle game objecct.">
<polygon fill="white" stroke="black" points="160,-176 160,-206 274,-206 274,-176 160,-176"/>
<text text-anchor="start" x="168" y="-194" font-family="Helvetica,sans-Serif" font-size="10.00">Arcade::Drawables::</text>
<text text-anchor="middle" x="217" y="-183" font-family="Helvetica,sans-Serif" font-size="10.00">Circle</text>
</a>
</g>
</g>
<!-- Node0&#45;&gt;Node1 -->
<g id="edge1" class="edge">
<title>Node0&#45;&gt;Node1</title>
<path fill="none" stroke="midnightblue" d="M85.42,-124.34C103.16,-137.49 127.14,-154.06 150,-166 156.84,-169.57 164.31,-172.9 171.69,-175.89"/>
<polygon fill="midnightblue" stroke="midnightblue" points="87.34,-121.41 77.24,-118.2 83.13,-127 87.34,-121.41"/>
</g>
<!-- Node2 -->
<g id="node3" class="node">
<title>Node2</title>
<g id="a_node3"><a xlink:href="structArcade_1_1Drawables_1_1Line.html" target="_top" xlink:title="A line.">
<polygon fill="white" stroke="black" points="150,-137.5 150,-156.5 284,-156.5 284,-137.5 150,-137.5"/>
<text text-anchor="middle" x="217" y="-144.5" font-family="Helvetica,sans-Serif" font-size="10.00">Arcade::Drawables::Line</text>
</a>
</g>
</g>
<!-- Node0&#45;&gt;Node2 -->
<g id="edge2" class="edge">
<title>Node0&#45;&gt;Node2</title>
<path fill="none" stroke="midnightblue" d="M121.83,-120.77C142.26,-126.47 164.11,-132.55 181.61,-137.42"/>
<polygon fill="midnightblue" stroke="midnightblue" points="122.51,-117.33 111.93,-118.02 120.63,-124.07 122.51,-117.33"/>
</g>
<!-- Node3 -->
<g id="node4" class="node">
<title>Node3</title>
<g id="a_node4"><a xlink:href="structArcade_1_1Drawables_1_1Rectangle.html" target="_top" xlink:title="A rectangle object.">
<polygon fill="white" stroke="black" points="160,-88 160,-118 274,-118 274,-88 160,-88"/>
<text text-anchor="start" x="168" y="-106" font-family="Helvetica,sans-Serif" font-size="10.00">Arcade::Drawables::</text>
<text text-anchor="middle" x="217" y="-95" font-family="Helvetica,sans-Serif" font-size="10.00">Rectangle</text>
</a>
</g>
</g>
<!-- Node0&#45;&gt;Node3 -->
<g id="edge3" class="edge">
<title>Node0&#45;&gt;Node3</title>
<path fill="none" stroke="midnightblue" d="M124.37,-103C136.15,-103 148.3,-103 159.77,-103"/>
<polygon fill="midnightblue" stroke="midnightblue" points="124.15,-99.5 114.15,-103 124.15,-106.5 124.15,-99.5"/>
</g>
<!-- Node4 -->
<g id="node5" class="node">
<title>Node4</title>
<g id="a_node5"><a xlink:href="structArcade_1_1Drawables_1_1Sprite.html" target="_top" xlink:title="A Sprite game object.">
<polygon fill="white" stroke="black" points="160,-39 160,-69 274,-69 274,-39 160,-39"/>
<text text-anchor="start" x="168" y="-57" font-family="Helvetica,sans-Serif" font-size="10.00">Arcade::Drawables::</text>
<text text-anchor="middle" x="217" y="-46" font-family="Helvetica,sans-Serif" font-size="10.00">Sprite</text>
</a>
</g>
</g>
<!-- Node0&#45;&gt;Node4 -->
<g id="edge4" class="edge">
<title>Node0&#45;&gt;Node4</title>
<path fill="none" stroke="midnightblue" d="M116.4,-84.89C133.2,-79.68 151.33,-74.05 167.47,-69.05"/>
<polygon fill="midnightblue" stroke="midnightblue" points="115.21,-81.59 106.69,-87.9 117.28,-88.28 115.21,-81.59"/>
</g>
<!-- Node5 -->
<g id="node6" class="node">
<title>Node5</title>
<g id="a_node6"><a xlink:href="structArcade_1_1Drawables_1_1Text.html" target="_top" xlink:title="A text object.">
<polygon fill="white" stroke="black" points="150,-0.5 150,-19.5 284,-19.5 284,-0.5 150,-0.5"/>
<text text-anchor="middle" x="217" y="-7.5" font-family="Helvetica,sans-Serif" font-size="10.00">Arcade::Drawables::Text</text>
</a>
</g>
</g>
<!-- Node0&#45;&gt;Node5 -->
<g id="edge5" class="edge">
<title>Node0&#45;&gt;Node5</title>
<path fill="none" stroke="midnightblue" d="M80.82,-80.82C98.46,-64.75 124.16,-43.54 150,-30 157.95,-25.83 166.91,-22.39 175.6,-19.61"/>
<polygon fill="midnightblue" stroke="midnightblue" points="78.25,-78.43 73.31,-87.8 83.02,-83.56 78.25,-78.43"/>
</g>
</g>
</svg>
