<?xml version="1.0" encoding="UTF-8" standalone="no"?>
<!DOCTYPE svg PUBLIC "-//W3C//DTD SVG 1.1//EN"
 "http://www.w3.org/Graphics/SVG/1.1/DTD/svg11.dtd">
<!-- Generated by graphviz version 2.43.0 (0)
 -->
<!-- Title: Graphical Class Hierarchy Pages: 1 -->
<svg width="303pt" height="116pt"
 viewBox="0.00 0.00 303.00 115.50" xmlns="http://www.w3.org/2000/svg" xmlns:xlink="http://www.w3.org/1999/xlink">
<g id="graph0" class="graph" transform="scale(1 1) rotate(0) translate(4 111.5)">
<title>Graphical Class Hierarchy</title>
<polygon fill="white" stroke="transparent" points="-4,4 -4,-111.5 299,-111.5 299,4 -4,4"/>
<!-- Node2 -->
<g id="node1" class="node">
<title>Node2</title>
<g id="a_node1"><a xlink:title=" ">
<polygon fill="white" stroke="#bfbfbf" points="0,-50 0,-69 83,-69 83,-50 0,-50"/>
<text text-anchor="middle" x="41.5" y="-57" font-family="Helvetica,sans-Serif" font-size="10.00">runtime_error</text>
</a>
</g>
</g>
<!-- Node0 -->
<g id="node2" class="node">
<title>Node0</title>
<g id="a_node2"><a xlink:href="classArcade_1_1Nibbler_1_1WrongMapChar.html" target="_top" xlink:title=" ">
<polygon fill="white" stroke="black" points="120.5,-88 120.5,-107 293.5,-107 293.5,-88 120.5,-88"/>
<text text-anchor="middle" x="207" y="-95" font-family="Helvetica,sans-Serif" font-size="10.00">Arcade::Nibbler::WrongMapChar</text>
</a>
</g>
</g>
<!-- Node2&#45;&gt;Node0 -->
<g id="edge1" class="edge">
<title>Node2&#45;&gt;Node0</title>
<path fill="none" stroke="midnightblue" d="M89.99,-71.52C99.58,-73.88 109.6,-76.31 119,-78.5 132.7,-81.7 147.65,-85.02 161.24,-87.98"/>
<polygon fill="midnightblue" stroke="midnightblue" points="90.74,-68.1 80.19,-69.09 89.06,-74.89 90.74,-68.1"/>
</g>
<!-- Node4 -->
<g id="node3" class="node">
<title>Node4</title>
<g id="a_node3"><a xlink:href="classArcade_1_1Pacman_1_1WrongMapChar.html" target="_top" xlink:title=" ">
<polygon fill="white" stroke="black" points="119,-50 119,-69 295,-69 295,-50 119,-50"/>
<text text-anchor="middle" x="207" y="-57" font-family="Helvetica,sans-Serif" font-size="10.00">Arcade::Pacman::WrongMapChar</text>
</a>
</g>
</g>
<!-- Node2&#45;&gt;Node4 -->
<g id="edge2" class="edge">
<title>Node2&#45;&gt;Node4</title>
<path fill="none" stroke="midnightblue" d="M93.34,-59.5C101.46,-59.5 110.06,-59.5 118.74,-59.5"/>
<polygon fill="midnightblue" stroke="midnightblue" points="93.34,-56 83.34,-59.5 93.34,-63 93.34,-56"/>
</g>
<!-- Node5 -->
<g id="node4" class="node">
<title>Node5</title>
<g id="a_node4"><a xlink:href="classArcade_1_1ResourceCreationFailure.html" target="_top" xlink:title=" ">
<polygon fill="white" stroke="black" points="135.5,-0.5 135.5,-30.5 278.5,-30.5 278.5,-0.5 135.5,-0.5"/>
<text text-anchor="start" x="143.5" y="-18.5" font-family="Helvetica,sans-Serif" font-size="10.00">Arcade::ResourceCreation</text>
<text text-anchor="middle" x="207" y="-7.5" font-family="Helvetica,sans-Serif" font-size="10.00">Failure</text>
</a>
</g>
</g>
<!-- Node2&#45;&gt;Node5 -->
<g id="edge3" class="edge">
<title>Node2&#45;&gt;Node5</title>
<path fill="none" stroke="midnightblue" d="M87.72,-47.33C107,-42.14 129.69,-36.04 150.02,-30.57"/>
<polygon fill="midnightblue" stroke="midnightblue" points="86.72,-43.97 77.98,-49.95 88.54,-50.73 86.72,-43.97"/>
</g>
</g>
</svg>
