<?xml version="1.0" encoding="UTF-8" standalone="no"?>
<!DOCTYPE svg PUBLIC "-//W3C//DTD SVG 1.1//EN"
 "http://www.w3.org/Graphics/SVG/1.1/DTD/svg11.dtd">
<!-- Generated by graphviz version 2.43.0 (0)
 -->
<!-- Title: Graphical Class Hierarchy Pages: 1 -->
<svg width="283pt" height="137pt"
 viewBox="0.00 0.00 283.00 137.00" xmlns="http://www.w3.org/2000/svg" xmlns:xlink="http://www.w3.org/1999/xlink">
<g id="graph0" class="graph" transform="scale(1 1) rotate(0) translate(4 133)">
<title>Graphical Class Hierarchy</title>
<polygon fill="white" stroke="transparent" points="-4,4 -4,-133 279,-133 279,4 -4,4"/>
<!-- Node0 -->
<g id="node1" class="node">
<title>Node0</title>
<g id="a_node1"><a xlink:href="structArcade_1_1Event.html" target="_top" xlink:title="An empty event used as a base class.">
<polygon fill="white" stroke="black" points="0,-55 0,-74 84,-74 84,-55 0,-55"/>
<text text-anchor="middle" x="42" y="-62" font-family="Helvetica,sans-Serif" font-size="10.00">Arcade::Event</text>
</a>
</g>
</g>
<!-- Node1 -->
<g id="node2" class="node">
<title>Node1</title>
<g id="a_node2"><a xlink:href="structArcade_1_1Events_1_1KeyboardEvent.html" target="_top" xlink:title="Event of a keyboard interaction.">
<polygon fill="white" stroke="black" points="127,-98.5 127,-128.5 268,-128.5 268,-98.5 127,-98.5"/>
<text text-anchor="start" x="135" y="-116.5" font-family="Helvetica,sans-Serif" font-size="10.00">Arcade::Events::Keyboard</text>
<text text-anchor="middle" x="197.5" y="-105.5" font-family="Helvetica,sans-Serif" font-size="10.00">Event</text>
</a>
</g>
</g>
<!-- Node0&#45;&gt;Node1 -->
<g id="edge1" class="edge">
<title>Node0&#45;&gt;Node1</title>
<path fill="none" stroke="midnightblue" d="M82.07,-77.27C94.22,-81.22 107.66,-85.56 120,-89.5 129.15,-92.42 138.92,-95.51 148.32,-98.47"/>
<polygon fill="midnightblue" stroke="midnightblue" points="82.82,-73.83 72.23,-74.07 80.65,-80.49 82.82,-73.83"/>
</g>
<!-- Node2 -->
<g id="node3" class="node">
<title>Node2</title>
<g id="a_node3"><a xlink:href="structArcade_1_1Events_1_1MouseClickEvent.html" target="_top" xlink:title="Event called after the mouse clicked (KeyDown, Hold or KeyUp)">
<polygon fill="white" stroke="black" points="121.5,-49.5 121.5,-79.5 273.5,-79.5 273.5,-49.5 121.5,-49.5"/>
<text text-anchor="start" x="129.5" y="-67.5" font-family="Helvetica,sans-Serif" font-size="10.00">Arcade::Events::MouseClick</text>
<text text-anchor="middle" x="197.5" y="-56.5" font-family="Helvetica,sans-Serif" font-size="10.00">Event</text>
</a>
</g>
</g>
<!-- Node0&#45;&gt;Node2 -->
<g id="edge2" class="edge">
<title>Node0&#45;&gt;Node2</title>
<path fill="none" stroke="midnightblue" d="M94.17,-64.5C102.95,-64.5 112.22,-64.5 121.47,-64.5"/>
<polygon fill="midnightblue" stroke="midnightblue" points="94.14,-61 84.14,-64.5 94.14,-68 94.14,-61"/>
</g>
<!-- Node3 -->
<g id="node4" class="node">
<title>Node3</title>
<g id="a_node4"><a xlink:href="structArcade_1_1Events_1_1MouseMoveEvent.html" target="_top" xlink:title="Event called when the mouse moved.">
<polygon fill="white" stroke="black" points="120,-0.5 120,-30.5 275,-30.5 275,-0.5 120,-0.5"/>
<text text-anchor="start" x="128" y="-18.5" font-family="Helvetica,sans-Serif" font-size="10.00">Arcade::Events::MouseMove</text>
<text text-anchor="middle" x="197.5" y="-7.5" font-family="Helvetica,sans-Serif" font-size="10.00">Event</text>
</a>
</g>
</g>
<!-- Node0&#45;&gt;Node3 -->
<g id="edge3" class="edge">
<title>Node0&#45;&gt;Node3</title>
<path fill="none" stroke="midnightblue" d="M82.57,-51.87C102.97,-45.36 128,-37.37 149.39,-30.54"/>
<polygon fill="midnightblue" stroke="midnightblue" points="81.42,-48.56 72.96,-54.94 83.55,-55.23 81.42,-48.56"/>
</g>
</g>
</svg>
