<?xml version="1.0" encoding="UTF-8" standalone="no"?>
<!DOCTYPE svg PUBLIC "-//W3C//DTD SVG 1.1//EN"
 "http://www.w3.org/Graphics/SVG/1.1/DTD/svg11.dtd">
<!-- Generated by graphviz version 2.43.0 (0)
 -->
<!-- Title: Graphical Class Hierarchy Pages: 1 -->
<svg width="446pt" height="256pt"
 viewBox="0.00 0.00 446.00 256.00" xmlns="http://www.w3.org/2000/svg" xmlns:xlink="http://www.w3.org/1999/xlink">
<g id="graph0" class="graph" transform="scale(1 1) rotate(0) translate(4 252)">
<title>Graphical Class Hierarchy</title>
<polygon fill="white" stroke="transparent" points="-4,4 -4,-252 442,-252 442,4 -4,4"/>
<!-- Node0 -->
<g id="node1" class="node">
<title>Node0</title>
<g id="a_node1"><a xlink:href="classArcade_1_1IModule.html" target="_top" xlink:title="A base module interface.">
<polygon fill="white" stroke="black" points="0,-114.5 0,-133.5 95,-133.5 95,-114.5 0,-114.5"/>
<text text-anchor="middle" x="47.5" y="-121.5" font-family="Helvetica,sans-Serif" font-size="10.00">Arcade::IModule</text>
</a>
</g>
</g>
<!-- Node1 -->
<g id="node2" class="node">
<title>Node1</title>
<g id="a_node2"><a xlink:href="classArcade_1_1IDisplayModule.html" target="_top" xlink:title="The interface of every display modules.">
<polygon fill="white" stroke="black" points="131,-171.5 131,-190.5 263,-190.5 263,-171.5 131,-171.5"/>
<text text-anchor="middle" x="197" y="-178.5" font-family="Helvetica,sans-Serif" font-size="10.00">Arcade::IDisplayModule</text>
</a>
</g>
</g>
<!-- Node0&#45;&gt;Node1 -->
<g id="edge1" class="edge">
<title>Node0&#45;&gt;Node1</title>
<path fill="none" stroke="midnightblue" d="M82.67,-137.2C109.75,-147.67 146.95,-162.05 171.23,-171.43"/>
<polygon fill="midnightblue" stroke="midnightblue" points="83.78,-133.88 73.19,-133.54 81.25,-140.41 83.78,-133.88"/>
</g>
<!-- Node5 -->
<g id="node6" class="node">
<title>Node5</title>
<g id="a_node6"><a xlink:href="classArcade_1_1IGameModule.html" target="_top" xlink:title="The interface of all games.">
<polygon fill="white" stroke="black" points="134.5,-76.5 134.5,-95.5 259.5,-95.5 259.5,-76.5 134.5,-76.5"/>
<text text-anchor="middle" x="197" y="-83.5" font-family="Helvetica,sans-Serif" font-size="10.00">Arcade::IGameModule</text>
</a>
</g>
</g>
<!-- Node0&#45;&gt;Node5 -->
<g id="edge5" class="edge">
<title>Node0&#45;&gt;Node5</title>
<path fill="none" stroke="midnightblue" d="M95.51,-111.89C116.06,-106.6 139.8,-100.48 159.05,-95.52"/>
<polygon fill="midnightblue" stroke="midnightblue" points="94.53,-108.53 85.72,-114.41 96.28,-115.31 94.53,-108.53"/>
</g>
<!-- Node2 -->
<g id="node3" class="node">
<title>Node2</title>
<g id="a_node3"><a xlink:href="classArcade_1_1NcursesDisplay.html" target="_top" xlink:title="Implementation of the ncurses Graphic Library.">
<polygon fill="white" stroke="black" points="302.5,-228.5 302.5,-247.5 434.5,-247.5 434.5,-228.5 302.5,-228.5"/>
<text text-anchor="middle" x="368.5" y="-235.5" font-family="Helvetica,sans-Serif" font-size="10.00">Arcade::NcursesDisplay</text>
</a>
</g>
</g>
<!-- Node1&#45;&gt;Node2 -->
<g id="edge2" class="edge">
<title>Node1&#45;&gt;Node2</title>
<path fill="none" stroke="midnightblue" d="M230.86,-194.21C250.49,-201.89 275.99,-211.5 299,-219 309.21,-222.33 320.39,-225.59 330.7,-228.44"/>
<polygon fill="midnightblue" stroke="midnightblue" points="232.05,-190.92 221.46,-190.51 229.48,-197.43 232.05,-190.92"/>
</g>
<!-- Node3 -->
<g id="node4" class="node">
<title>Node3</title>
<g id="a_node4"><a xlink:href="classArcade_1_1SDLDisplay.html" target="_top" xlink:title="Implementation of the SDL Graphic Library.">
<polygon fill="white" stroke="black" points="312.5,-190.5 312.5,-209.5 424.5,-209.5 424.5,-190.5 312.5,-190.5"/>
<text text-anchor="middle" x="368.5" y="-197.5" font-family="Helvetica,sans-Serif" font-size="10.00">Arcade::SDLDisplay</text>
</a>
</g>
</g>
<!-- Node1&#45;&gt;Node3 -->
<g id="edge3" class="edge">
<title>Node1&#45;&gt;Node3</title>
<path fill="none" stroke="midnightblue" d="M273.05,-189.41C286.24,-190.89 299.75,-192.41 312.28,-193.81"/>
<polygon fill="midnightblue" stroke="midnightblue" points="273.38,-185.93 263.05,-188.29 272.6,-192.88 273.38,-185.93"/>
</g>
<!-- Node4 -->
<g id="node5" class="node">
<title>Node4</title>
<g id="a_node5"><a xlink:href="classArcade_1_1SFMLDisplay.html" target="_top" xlink:title="Implementation of the SDL Graphic Library.">
<polygon fill="white" stroke="black" points="309,-152.5 309,-171.5 428,-171.5 428,-152.5 309,-152.5"/>
<text text-anchor="middle" x="368.5" y="-159.5" font-family="Helvetica,sans-Serif" font-size="10.00">Arcade::SFMLDisplay</text>
</a>
</g>
</g>
<!-- Node1&#45;&gt;Node4 -->
<g id="edge4" class="edge">
<title>Node1&#45;&gt;Node4</title>
<path fill="none" stroke="midnightblue" d="M273.02,-172.59C284.98,-171.25 297.21,-169.88 308.73,-168.59"/>
<polygon fill="midnightblue" stroke="midnightblue" points="272.6,-169.12 263.05,-173.71 273.38,-176.07 272.6,-169.12"/>
</g>
<!-- Node6 -->
<g id="node7" class="node">
<title>Node6</title>
<g id="a_node7"><a xlink:href="classArcade_1_1Menu_1_1Menu.html" target="_top" xlink:title="A menu that allow the user to select a game and a display module.">
<polygon fill="white" stroke="black" points="310.5,-114.5 310.5,-133.5 426.5,-133.5 426.5,-114.5 310.5,-114.5"/>
<text text-anchor="middle" x="368.5" y="-121.5" font-family="Helvetica,sans-Serif" font-size="10.00">Arcade::Menu::Menu</text>
</a>
</g>
</g>
<!-- Node5&#45;&gt;Node6 -->
<g id="edge6" class="edge">
<title>Node5&#45;&gt;Node6</title>
<path fill="none" stroke="midnightblue" d="M250.74,-97.82C274.64,-103.18 302.52,-109.43 325.04,-114.48"/>
<polygon fill="midnightblue" stroke="midnightblue" points="251.3,-94.36 240.77,-95.59 249.76,-101.19 251.3,-94.36"/>
</g>
<!-- Node7 -->
<g id="node8" class="node">
<title>Node7</title>
<g id="a_node8"><a xlink:href="classArcade_1_1Nibbler_1_1Nibbler.html" target="_top" xlink:title="!">
<polygon fill="white" stroke="black" points="302,-76.5 302,-95.5 435,-95.5 435,-76.5 302,-76.5"/>
<text text-anchor="middle" x="368.5" y="-83.5" font-family="Helvetica,sans-Serif" font-size="10.00">Arcade::Nibbler::Nibbler</text>
</a>
</g>
</g>
<!-- Node5&#45;&gt;Node7 -->
<g id="edge7" class="edge">
<title>Node5&#45;&gt;Node7</title>
<path fill="none" stroke="midnightblue" d="M269.78,-86C280.43,-86 291.36,-86 301.87,-86"/>
<polygon fill="midnightblue" stroke="midnightblue" points="269.67,-82.5 259.67,-86 269.67,-89.5 269.67,-82.5"/>
</g>
<!-- Node8 -->
<g id="node9" class="node">
<title>Node8</title>
<g id="a_node9"><a xlink:href="classArcade_1_1Pacman_1_1Pacman.html" target="_top" xlink:title="!">
<polygon fill="white" stroke="black" points="299,-38.5 299,-57.5 438,-57.5 438,-38.5 299,-38.5"/>
<text text-anchor="middle" x="368.5" y="-45.5" font-family="Helvetica,sans-Serif" font-size="10.00">Arcade::Pacman::Pacman</text>
</a>
</g>
</g>
<!-- Node5&#45;&gt;Node8 -->
<g id="edge8" class="edge">
<title>Node5&#45;&gt;Node8</title>
<path fill="none" stroke="midnightblue" d="M250.74,-74.18C274.64,-68.82 302.52,-62.57 325.04,-57.52"/>
<polygon fill="midnightblue" stroke="midnightblue" points="249.76,-70.81 240.77,-76.41 251.3,-77.64 249.76,-70.81"/>
</g>
<!-- Node9 -->
<g id="node10" class="node">
<title>Node9</title>
<g id="a_node10"><a xlink:href="classArcade_1_1Qix_1_1Qix.html" target="_top" xlink:title="!">
<polygon fill="white" stroke="black" points="321,-0.5 321,-19.5 416,-19.5 416,-0.5 321,-0.5"/>
<text text-anchor="middle" x="368.5" y="-7.5" font-family="Helvetica,sans-Serif" font-size="10.00">Arcade::Qix::Qix</text>
</a>
</g>
</g>
<!-- Node5&#45;&gt;Node9 -->
<g id="edge9" class="edge">
<title>Node5&#45;&gt;Node9</title>
<path fill="none" stroke="midnightblue" d="M221.17,-70.77C241.13,-58.18 271.05,-40.56 299,-29 307.78,-25.37 317.48,-22.2 326.74,-19.55"/>
<polygon fill="midnightblue" stroke="midnightblue" points="219.02,-67.99 212.48,-76.32 222.79,-73.88 219.02,-67.99"/>
</g>
</g>
</svg>
