<?xml version="1.0" encoding="UTF-8" standalone="no"?>
<!DOCTYPE svg PUBLIC "-//W3C//DTD SVG 1.1//EN"
 "http://www.w3.org/Graphics/SVG/1.1/DTD/svg11.dtd">
<!-- Generated by graphviz version 2.43.0 (0)
 -->
<!-- Title: sources/Exceptions/InvalidLibraryException.hpp Pages: 1 -->
<svg width="477pt" height="296pt"
 viewBox="0.00 0.00 476.65 296.00" xmlns="http://www.w3.org/2000/svg" xmlns:xlink="http://www.w3.org/1999/xlink">
<g id="graph0" class="graph" transform="scale(1 1) rotate(0) translate(4 292)">
<title>sources/Exceptions/InvalidLibraryException.hpp</title>
<polygon fill="white" stroke="transparent" points="-4,4 -4,-292 472.65,-292 472.65,4 -4,4"/>
<!-- Node1 -->
<g id="node1" class="node">
<title>Node1</title>
<g id="a_node1"><a xlink:title=" ">
<polygon fill="#bfbfbf" stroke="black" points="288.5,-257.5 288.5,-287.5 443.5,-287.5 443.5,-257.5 288.5,-257.5"/>
<text text-anchor="start" x="296.5" y="-275.5" font-family="Helvetica,sans-Serif" font-size="10.00">sources/Exceptions</text>
<text text-anchor="middle" x="366" y="-264.5" font-family="Helvetica,sans-Serif" font-size="10.00">/InvalidLibraryException.hpp</text>
</a>
</g>
</g>
<!-- Node2 -->
<g id="node2" class="node">
<title>Node2</title>
<g id="a_node2"><a xlink:href="Library_8hpp.html" target="_top" xlink:title=" ">
<polygon fill="white" stroke="black" points="250,-201.5 250,-220.5 386,-220.5 386,-201.5 250,-201.5"/>
<text text-anchor="middle" x="318" y="-208.5" font-family="Helvetica,sans-Serif" font-size="10.00">sources/Core/Library.hpp</text>
</a>
</g>
</g>
<!-- Node1&#45;&gt;Node2 -->
<g id="edge1" class="edge">
<title>Node1&#45;&gt;Node2</title>
<path fill="none" stroke="midnightblue" d="M348.17,-249.4C340.11,-239.41 331.05,-228.18 324.98,-220.66"/>
<polygon fill="midnightblue" stroke="midnightblue" points="345.62,-251.81 354.62,-257.4 351.07,-247.42 345.62,-251.81"/>
</g>
<!-- Node5 -->
<g id="node5" class="node">
<title>Node5</title>
<g id="a_node5"><a xlink:href="Runner_8cpp.html" target="_top" xlink:title=" ">
<polygon fill="white" stroke="black" points="211.5,-0.5 211.5,-30.5 328.5,-30.5 328.5,-0.5 211.5,-0.5"/>
<text text-anchor="start" x="219.5" y="-18.5" font-family="Helvetica,sans-Serif" font-size="10.00">sources/Core/Runner</text>
<text text-anchor="middle" x="270" y="-7.5" font-family="Helvetica,sans-Serif" font-size="10.00">/Runner.cpp</text>
</a>
</g>
</g>
<!-- Node1&#45;&gt;Node5 -->
<g id="edge10" class="edge">
<title>Node1&#45;&gt;Node5</title>
<path fill="none" stroke="midnightblue" d="M397.13,-251.63C433.77,-225.6 486.71,-178.09 462,-134 431.34,-79.28 363.65,-46.99 317.42,-30.51"/>
<polygon fill="midnightblue" stroke="midnightblue" points="394.92,-248.9 388.67,-257.46 398.89,-254.66 394.92,-248.9"/>
</g>
<!-- Node3 -->
<g id="node3" class="node">
<title>Node3</title>
<g id="a_node3"><a xlink:href="sources_2Core_2Library_8cpp.html" target="_top" xlink:title=" ">
<polygon fill="white" stroke="black" points="317.5,-140 317.5,-159 452.5,-159 452.5,-140 317.5,-140"/>
<text text-anchor="middle" x="385" y="-147" font-family="Helvetica,sans-Serif" font-size="10.00">sources/Core/Library.cpp</text>
</a>
</g>
</g>
<!-- Node2&#45;&gt;Node3 -->
<g id="edge2" class="edge">
<title>Node2&#45;&gt;Node3</title>
<path fill="none" stroke="midnightblue" d="M335.29,-194.65C348.06,-183.31 364.98,-168.28 375.42,-159.01"/>
<polygon fill="midnightblue" stroke="midnightblue" points="332.75,-192.22 327.6,-201.48 337.4,-197.45 332.75,-192.22"/>
</g>
<!-- Node4 -->
<g id="node4" class="node">
<title>Node4</title>
<g id="a_node4"><a xlink:href="Runner_8hpp.html" target="_top" xlink:title=" ">
<polygon fill="white" stroke="black" points="67.5,-134.5 67.5,-164.5 184.5,-164.5 184.5,-134.5 67.5,-134.5"/>
<text text-anchor="start" x="75.5" y="-152.5" font-family="Helvetica,sans-Serif" font-size="10.00">sources/Core/Runner</text>
<text text-anchor="middle" x="126" y="-141.5" font-family="Helvetica,sans-Serif" font-size="10.00">/Runner.hpp</text>
</a>
</g>
</g>
<!-- Node2&#45;&gt;Node4 -->
<g id="edge3" class="edge">
<title>Node2&#45;&gt;Node4</title>
<path fill="none" stroke="midnightblue" d="M280.84,-198.48C249.53,-188.78 204.64,-174.87 171.25,-164.52"/>
<polygon fill="midnightblue" stroke="midnightblue" points="279.9,-201.86 290.49,-201.48 281.98,-195.17 279.9,-201.86"/>
</g>
<!-- Node9 -->
<g id="node9" class="node">
<title>Node9</title>
<g id="a_node9"><a xlink:href="tests_2Library_8cpp.html" target="_top" xlink:title=" ">
<polygon fill="white" stroke="black" points="203,-140 203,-159 299,-159 299,-140 203,-140"/>
<text text-anchor="middle" x="251" y="-147" font-family="Helvetica,sans-Serif" font-size="10.00">tests/Library.cpp</text>
</a>
</g>
</g>
<!-- Node2&#45;&gt;Node9 -->
<g id="edge9" class="edge">
<title>Node2&#45;&gt;Node9</title>
<path fill="none" stroke="midnightblue" d="M300.71,-194.65C287.94,-183.31 271.02,-168.28 260.58,-159.01"/>
<polygon fill="midnightblue" stroke="midnightblue" points="298.6,-197.45 308.4,-201.48 303.25,-192.22 298.6,-197.45"/>
</g>
<!-- Node4&#45;&gt;Node5 -->
<g id="edge4" class="edge">
<title>Node4&#45;&gt;Node5</title>
<path fill="none" stroke="midnightblue" d="M182.69,-131.27C211.09,-121.57 241.43,-109.18 251,-98 267.34,-78.91 270.28,-48.4 270.46,-30.62"/>
<polygon fill="midnightblue" stroke="midnightblue" points="181.55,-127.97 173.17,-134.46 183.77,-134.61 181.55,-127.97"/>
</g>
<!-- Node6 -->
<g id="node6" class="node">
<title>Node6</title>
<g id="a_node6"><a xlink:href="Menu_8hpp.html" target="_top" xlink:title=" ">
<polygon fill="white" stroke="black" points="0,-67.5 0,-97.5 122,-97.5 122,-67.5 0,-67.5"/>
<text text-anchor="start" x="8" y="-85.5" font-family="Helvetica,sans-Serif" font-size="10.00">sources/Games/Menu</text>
<text text-anchor="middle" x="61" y="-74.5" font-family="Helvetica,sans-Serif" font-size="10.00">/Menu.hpp</text>
</a>
</g>
</g>
<!-- Node4&#45;&gt;Node6 -->
<g id="edge5" class="edge">
<title>Node4&#45;&gt;Node6</title>
<path fill="none" stroke="midnightblue" d="M104.81,-127.31C95.06,-117.56 83.76,-106.26 75.08,-97.58"/>
<polygon fill="midnightblue" stroke="midnightblue" points="102.35,-129.8 111.9,-134.4 107.3,-124.85 102.35,-129.8"/>
</g>
<!-- Node8 -->
<g id="node8" class="node">
<title>Node8</title>
<g id="a_node8"><a xlink:href="main_8cpp.html" target="_top" xlink:title=" ">
<polygon fill="white" stroke="black" points="140,-73 140,-92 242,-92 242,-73 140,-73"/>
<text text-anchor="middle" x="191" y="-80" font-family="Helvetica,sans-Serif" font-size="10.00">sources/main.cpp</text>
</a>
</g>
</g>
<!-- Node4&#45;&gt;Node8 -->
<g id="edge8" class="edge">
<title>Node4&#45;&gt;Node8</title>
<path fill="none" stroke="midnightblue" d="M147.5,-127C159.37,-115.13 173.45,-101.05 182.31,-92.19"/>
<polygon fill="midnightblue" stroke="midnightblue" points="144.7,-124.85 140.1,-134.4 149.65,-129.8 144.7,-124.85"/>
</g>
<!-- Node6&#45;&gt;Node5 -->
<g id="edge6" class="edge">
<title>Node6&#45;&gt;Node5</title>
<path fill="none" stroke="midnightblue" d="M115.84,-64.44C149.72,-53.91 192.67,-40.55 224.63,-30.61"/>
<polygon fill="midnightblue" stroke="midnightblue" points="114.6,-61.16 106.09,-67.48 116.68,-67.85 114.6,-61.16"/>
</g>
<!-- Node7 -->
<g id="node7" class="node">
<title>Node7</title>
<g id="a_node7"><a xlink:href="Menu_8cpp.html" target="_top" xlink:title=" ">
<polygon fill="white" stroke="black" points="0,-0.5 0,-30.5 122,-30.5 122,-0.5 0,-0.5"/>
<text text-anchor="start" x="8" y="-18.5" font-family="Helvetica,sans-Serif" font-size="10.00">sources/Games/Menu</text>
<text text-anchor="middle" x="61" y="-7.5" font-family="Helvetica,sans-Serif" font-size="10.00">/Menu.cpp</text>
</a>
</g>
</g>
<!-- Node6&#45;&gt;Node7 -->
<g id="edge7" class="edge">
<title>Node6&#45;&gt;Node7</title>
<path fill="none" stroke="midnightblue" d="M61,-57.11C61,-48.15 61,-38.32 61,-30.58"/>
<polygon fill="midnightblue" stroke="midnightblue" points="57.5,-57.4 61,-67.4 64.5,-57.4 57.5,-57.4"/>
</g>
</g>
</svg>
