<?xml version="1.0" encoding="UTF-8" standalone="no"?>
<!DOCTYPE svg PUBLIC "-//W3C//DTD SVG 1.1//EN"
 "http://www.w3.org/Graphics/SVG/1.1/DTD/svg11.dtd">
<!-- Generated by graphviz version 2.43.0 (0)
 -->
<!-- Title: sources/Common/Events/KeyBoardEvent.hpp Pages: 1 -->
<svg width="1331pt" height="173pt"
 viewBox="0.00 0.00 1331.00 173.00" xmlns="http://www.w3.org/2000/svg" xmlns:xlink="http://www.w3.org/1999/xlink">
<g id="graph0" class="graph" transform="scale(1 1) rotate(0) translate(4 169)">
<title>sources/Common/Events/KeyBoardEvent.hpp</title>
<polygon fill="white" stroke="transparent" points="-4,4 -4,-169 1327,-169 1327,4 -4,4"/>
<!-- Node1 -->
<g id="node1" class="node">
<title>Node1</title>
<g id="a_node1"><a xlink:title=" ">
<polygon fill="#bfbfbf" stroke="black" points="540,-134.5 540,-164.5 677,-164.5 677,-134.5 540,-134.5"/>
<text text-anchor="start" x="548" y="-152.5" font-family="Helvetica,sans-Serif" font-size="10.00">sources/Common/Events</text>
<text text-anchor="middle" x="608.5" y="-141.5" font-family="Helvetica,sans-Serif" font-size="10.00">/KeyBoardEvent.hpp</text>
</a>
</g>
</g>
<!-- Node2 -->
<g id="node2" class="node">
<title>Node2</title>
<g id="a_node2"><a xlink:href="Runner_8cpp.html" target="_top" xlink:title=" ">
<polygon fill="white" stroke="black" points="0,-67.5 0,-97.5 117,-97.5 117,-67.5 0,-67.5"/>
<text text-anchor="start" x="8" y="-85.5" font-family="Helvetica,sans-Serif" font-size="10.00">sources/Core/Runner</text>
<text text-anchor="middle" x="58.5" y="-74.5" font-family="Helvetica,sans-Serif" font-size="10.00">/Runner.cpp</text>
</a>
</g>
</g>
<!-- Node1&#45;&gt;Node2 -->
<g id="edge1" class="edge">
<title>Node1&#45;&gt;Node2</title>
<path fill="none" stroke="midnightblue" d="M529.6,-142.91C433.69,-135.49 267.07,-120.65 125.5,-98 122.8,-97.57 120.04,-97.1 117.26,-96.6"/>
<polygon fill="midnightblue" stroke="midnightblue" points="529.57,-146.41 539.8,-143.69 530.1,-139.43 529.57,-146.41"/>
</g>
<!-- Node3 -->
<g id="node3" class="node">
<title>Node3</title>
<g id="a_node3"><a xlink:href="NcursesDisplay_8hpp.html" target="_top" xlink:title=" ">
<polygon fill="white" stroke="black" points="135,-67.5 135,-97.5 292,-97.5 292,-67.5 135,-67.5"/>
<text text-anchor="start" x="143" y="-85.5" font-family="Helvetica,sans-Serif" font-size="10.00">sources/DisplayModules</text>
<text text-anchor="middle" x="213.5" y="-74.5" font-family="Helvetica,sans-Serif" font-size="10.00">/Ncurses/NcursesDisplay.hpp</text>
</a>
</g>
</g>
<!-- Node1&#45;&gt;Node3 -->
<g id="edge2" class="edge">
<title>Node1&#45;&gt;Node3</title>
<path fill="none" stroke="midnightblue" d="M529.74,-135.54C460.73,-124.18 360.96,-107.77 292.02,-96.42"/>
<polygon fill="midnightblue" stroke="midnightblue" points="529.26,-139.01 539.7,-137.18 530.4,-132.1 529.26,-139.01"/>
</g>
<!-- Node4 -->
<g id="node4" class="node">
<title>Node4</title>
<g id="a_node4"><a xlink:href="NcursesDisplay_8cpp.html" target="_top" xlink:title=" ">
<polygon fill="white" stroke="black" points="174.5,-0.5 174.5,-30.5 330.5,-30.5 330.5,-0.5 174.5,-0.5"/>
<text text-anchor="start" x="182.5" y="-18.5" font-family="Helvetica,sans-Serif" font-size="10.00">sources/DisplayModules</text>
<text text-anchor="middle" x="252.5" y="-7.5" font-family="Helvetica,sans-Serif" font-size="10.00">/Ncurses/NcursesDisplay.cpp</text>
</a>
</g>
</g>
<!-- Node1&#45;&gt;Node4 -->
<g id="edge4" class="edge">
<title>Node1&#45;&gt;Node4</title>
<path fill="none" stroke="midnightblue" d="M529.73,-145.35C474.01,-140.41 398.95,-128.14 339.5,-98 322.61,-89.44 285.41,-51.47 265.57,-30.51"/>
<polygon fill="midnightblue" stroke="midnightblue" points="529.65,-148.85 539.9,-146.19 530.22,-141.87 529.65,-148.85"/>
</g>
<!-- Node5 -->
<g id="node5" class="node">
<title>Node5</title>
<g id="a_node5"><a xlink:href="SDLDisplay_8hpp.html" target="_top" xlink:title=" ">
<polygon fill="white" stroke="black" points="349,-67.5 349,-97.5 484,-97.5 484,-67.5 349,-67.5"/>
<text text-anchor="start" x="357" y="-85.5" font-family="Helvetica,sans-Serif" font-size="10.00">sources/DisplayModules</text>
<text text-anchor="middle" x="416.5" y="-74.5" font-family="Helvetica,sans-Serif" font-size="10.00">/SDL/SDLDisplay.hpp</text>
</a>
</g>
</g>
<!-- Node1&#45;&gt;Node5 -->
<g id="edge5" class="edge">
<title>Node1&#45;&gt;Node5</title>
<path fill="none" stroke="midnightblue" d="M557.08,-131.09C526.08,-120.6 487.12,-107.41 458.08,-97.58"/>
<polygon fill="midnightblue" stroke="midnightblue" points="556.24,-134.5 566.84,-134.4 558.49,-127.87 556.24,-134.5"/>
</g>
<!-- Node6 -->
<g id="node6" class="node">
<title>Node6</title>
<g id="a_node6"><a xlink:href="SDLDisplay_8cpp.html" target="_top" xlink:title=" ">
<polygon fill="white" stroke="black" points="368,-0.5 368,-30.5 503,-30.5 503,-0.5 368,-0.5"/>
<text text-anchor="start" x="376" y="-18.5" font-family="Helvetica,sans-Serif" font-size="10.00">sources/DisplayModules</text>
<text text-anchor="middle" x="435.5" y="-7.5" font-family="Helvetica,sans-Serif" font-size="10.00">/SDL/SDLDisplay.cpp</text>
</a>
</g>
</g>
<!-- Node1&#45;&gt;Node6 -->
<g id="edge7" class="edge">
<title>Node1&#45;&gt;Node6</title>
<path fill="none" stroke="midnightblue" d="M576.57,-128.81C562.48,-119.81 545.89,-108.76 531.5,-98 501.91,-75.87 469.55,-47.44 450.97,-30.67"/>
<polygon fill="midnightblue" stroke="midnightblue" points="575.1,-132.02 585.42,-134.41 578.84,-126.11 575.1,-132.02"/>
</g>
<!-- Node7 -->
<g id="node7" class="node">
<title>Node7</title>
<g id="a_node7"><a xlink:href="SFMLDisplay_8hpp.html" target="_top" xlink:title=" ">
<polygon fill="white" stroke="black" points="541,-67.5 541,-97.5 676,-97.5 676,-67.5 541,-67.5"/>
<text text-anchor="start" x="549" y="-85.5" font-family="Helvetica,sans-Serif" font-size="10.00">sources/DisplayModules</text>
<text text-anchor="middle" x="608.5" y="-74.5" font-family="Helvetica,sans-Serif" font-size="10.00">/SFML/SFMLDisplay.hpp</text>
</a>
</g>
</g>
<!-- Node1&#45;&gt;Node7 -->
<g id="edge8" class="edge">
<title>Node1&#45;&gt;Node7</title>
<path fill="none" stroke="midnightblue" d="M608.5,-124.11C608.5,-115.15 608.5,-105.32 608.5,-97.58"/>
<polygon fill="midnightblue" stroke="midnightblue" points="605,-124.4 608.5,-134.4 612,-124.4 605,-124.4"/>
</g>
<!-- Node8 -->
<g id="node8" class="node">
<title>Node8</title>
<g id="a_node8"><a xlink:href="SFMLDisplay_8cpp.html" target="_top" xlink:title=" ">
<polygon fill="white" stroke="black" points="589,-0.5 589,-30.5 724,-30.5 724,-0.5 589,-0.5"/>
<text text-anchor="start" x="597" y="-18.5" font-family="Helvetica,sans-Serif" font-size="10.00">sources/DisplayModules</text>
<text text-anchor="middle" x="656.5" y="-7.5" font-family="Helvetica,sans-Serif" font-size="10.00">/SFML/SFMLDisplay.cpp</text>
</a>
</g>
</g>
<!-- Node1&#45;&gt;Node8 -->
<g id="edge10" class="edge">
<title>Node1&#45;&gt;Node8</title>
<path fill="none" stroke="midnightblue" d="M653.3,-129.37C666.02,-121.6 678.34,-111.26 685.5,-98 697.56,-75.67 681.06,-47.3 668.45,-30.6"/>
<polygon fill="midnightblue" stroke="midnightblue" points="651.48,-126.38 644.49,-134.35 654.92,-132.48 651.48,-126.38"/>
</g>
<!-- Node9 -->
<g id="node9" class="node">
<title>Node9</title>
<g id="a_node9"><a xlink:href="Menu_8cpp.html" target="_top" xlink:title=" ">
<polygon fill="white" stroke="black" points="732.5,-67.5 732.5,-97.5 854.5,-97.5 854.5,-67.5 732.5,-67.5"/>
<text text-anchor="start" x="740.5" y="-85.5" font-family="Helvetica,sans-Serif" font-size="10.00">sources/Games/Menu</text>
<text text-anchor="middle" x="793.5" y="-74.5" font-family="Helvetica,sans-Serif" font-size="10.00">/Menu.cpp</text>
</a>
</g>
</g>
<!-- Node1&#45;&gt;Node9 -->
<g id="edge11" class="edge">
<title>Node1&#45;&gt;Node9</title>
<path fill="none" stroke="midnightblue" d="M658.44,-130.96C688.24,-120.48 725.57,-107.37 753.44,-97.58"/>
<polygon fill="midnightblue" stroke="midnightblue" points="656.92,-127.78 648.64,-134.4 659.24,-134.38 656.92,-127.78"/>
</g>
<!-- Node10 -->
<g id="node10" class="node">
<title>Node10</title>
<g id="a_node10"><a xlink:href="Nibbler_8cpp.html" target="_top" xlink:title=" ">
<polygon fill="white" stroke="black" points="872.5,-67.5 872.5,-97.5 1002.5,-97.5 1002.5,-67.5 872.5,-67.5"/>
<text text-anchor="start" x="880.5" y="-85.5" font-family="Helvetica,sans-Serif" font-size="10.00">sources/Games/Nibbler</text>
<text text-anchor="middle" x="937.5" y="-74.5" font-family="Helvetica,sans-Serif" font-size="10.00">/Nibbler.cpp</text>
</a>
</g>
</g>
<!-- Node1&#45;&gt;Node10 -->
<g id="edge12" class="edge">
<title>Node1&#45;&gt;Node10</title>
<path fill="none" stroke="midnightblue" d="M687.05,-132.98C743.65,-121.8 819.13,-106.89 872.38,-96.37"/>
<polygon fill="midnightblue" stroke="midnightblue" points="686.2,-129.58 677.07,-134.95 687.56,-136.45 686.2,-129.58"/>
</g>
<!-- Node11 -->
<g id="node11" class="node">
<title>Node11</title>
<g id="a_node11"><a xlink:href="Pacman_8cpp.html" target="_top" xlink:title=" ">
<polygon fill="white" stroke="black" points="1021,-67.5 1021,-97.5 1154,-97.5 1154,-67.5 1021,-67.5"/>
<text text-anchor="start" x="1029" y="-85.5" font-family="Helvetica,sans-Serif" font-size="10.00">sources/Games/Pacman</text>
<text text-anchor="middle" x="1087.5" y="-74.5" font-family="Helvetica,sans-Serif" font-size="10.00">/Pacman.cpp</text>
</a>
</g>
</g>
<!-- Node1&#45;&gt;Node11 -->
<g id="edge13" class="edge">
<title>Node1&#45;&gt;Node11</title>
<path fill="none" stroke="midnightblue" d="M687.31,-140.13C768.7,-131.13 899.29,-115.72 1011.5,-98 1014.55,-97.52 1017.67,-97.01 1020.81,-96.47"/>
<polygon fill="midnightblue" stroke="midnightblue" points="686.7,-136.68 677.14,-141.25 687.46,-143.63 686.7,-136.68"/>
</g>
<!-- Node12 -->
<g id="node12" class="node">
<title>Node12</title>
<g id="a_node12"><a xlink:href="Qix_8cpp.html" target="_top" xlink:title=" ">
<polygon fill="white" stroke="black" points="1172,-73 1172,-92 1323,-92 1323,-73 1172,-73"/>
<text text-anchor="middle" x="1247.5" y="-80" font-family="Helvetica,sans-Serif" font-size="10.00">sources/Games/Qix/Qix.cpp</text>
</a>
</g>
</g>
<!-- Node1&#45;&gt;Node12 -->
<g id="edge14" class="edge">
<title>Node1&#45;&gt;Node12</title>
<path fill="none" stroke="midnightblue" d="M687.19,-143.34C794.95,-135.81 994.37,-120.26 1163.5,-98 1175.97,-96.36 1189.42,-94.21 1201.83,-92.07"/>
<polygon fill="midnightblue" stroke="midnightblue" points="686.78,-139.86 677.05,-144.04 687.27,-146.84 686.78,-139.86"/>
</g>
<!-- Node3&#45;&gt;Node4 -->
<g id="edge3" class="edge">
<title>Node3&#45;&gt;Node4</title>
<path fill="none" stroke="midnightblue" d="M227.25,-58.58C232.86,-49.24 239.15,-38.75 244.05,-30.58"/>
<polygon fill="midnightblue" stroke="midnightblue" points="224.11,-57.02 221.96,-67.4 230.11,-60.62 224.11,-57.02"/>
</g>
<!-- Node5&#45;&gt;Node6 -->
<g id="edge6" class="edge">
<title>Node5&#45;&gt;Node6</title>
<path fill="none" stroke="midnightblue" d="M423.46,-57.7C426.12,-48.59 429.07,-38.49 431.39,-30.58"/>
<polygon fill="midnightblue" stroke="midnightblue" points="420.07,-56.82 420.62,-67.4 426.79,-58.78 420.07,-56.82"/>
</g>
<!-- Node7&#45;&gt;Node8 -->
<g id="edge9" class="edge">
<title>Node7&#45;&gt;Node8</title>
<path fill="none" stroke="midnightblue" d="M625,-59.16C632,-49.68 639.94,-38.92 646.11,-30.58"/>
<polygon fill="midnightblue" stroke="midnightblue" points="622.04,-57.27 618.92,-67.4 627.67,-61.43 622.04,-57.27"/>
</g>
</g>
</svg>
