<?xml version="1.0" encoding="UTF-8" standalone="no"?>
<!DOCTYPE svg PUBLIC "-//W3C//DTD SVG 1.1//EN"
 "http://www.w3.org/Graphics/SVG/1.1/DTD/svg11.dtd">
<!-- Generated by graphviz version 2.43.0 (0)
 -->
<!-- Title: sources/Core/Library.hpp Pages: 1 -->
<svg width="470pt" height="207pt"
 viewBox="0.00 0.00 469.50 207.00" xmlns="http://www.w3.org/2000/svg" xmlns:xlink="http://www.w3.org/1999/xlink">
<g id="graph0" class="graph" transform="scale(1 1) rotate(0) translate(4 203)">
<title>sources/Core/Library.hpp</title>
<polygon fill="white" stroke="transparent" points="-4,4 -4,-203 465.5,-203 465.5,4 -4,4"/>
<!-- Node1 -->
<g id="node1" class="node">
<title>Node1</title>
<g id="a_node1"><a xlink:title=" ">
<polygon fill="#bfbfbf" stroke="black" points="179.5,-179.5 179.5,-198.5 315.5,-198.5 315.5,-179.5 179.5,-179.5"/>
<text text-anchor="middle" x="247.5" y="-186.5" font-family="Helvetica,sans-Serif" font-size="10.00">sources/Core/Library.hpp</text>
</a>
</g>
</g>
<!-- Node2 -->
<g id="node2" class="node">
<title>Node2</title>
<g id="a_node2"><a xlink:href="Module_8hpp.html" target="_top" xlink:title=" ">
<polygon fill="white" stroke="black" points="0,-118 0,-137 121,-137 121,-118 0,-118"/>
<text text-anchor="middle" x="60.5" y="-125" font-family="Helvetica,sans-Serif" font-size="10.00">Common/Module.hpp</text>
</a>
</g>
</g>
<!-- Node1&#45;&gt;Node2 -->
<g id="edge1" class="edge">
<title>Node1&#45;&gt;Node2</title>
<path fill="none" stroke="midnightblue" d="M220.71,-179.48C188.21,-169.14 133.29,-151.66 96.96,-140.1"/>
<polygon fill="midnightblue" stroke="midnightblue" points="97.83,-136.71 87.24,-137.01 95.71,-143.38 97.83,-136.71"/>
</g>
<!-- Node3 -->
<g id="node3" class="node">
<title>Node3</title>
<g id="a_node3"><a xlink:href="ModInfo_8hpp.html" target="_top" xlink:title=" ">
<polygon fill="white" stroke="black" points="35,-56.5 35,-75.5 160,-75.5 160,-56.5 35,-56.5"/>
<text text-anchor="middle" x="97.5" y="-63.5" font-family="Helvetica,sans-Serif" font-size="10.00">Common/ModInfo.hpp</text>
</a>
</g>
</g>
<!-- Node1&#45;&gt;Node3 -->
<g id="edge4" class="edge">
<title>Node1&#45;&gt;Node3</title>
<path fill="none" stroke="midnightblue" d="M228.95,-179.44C212.29,-171.29 187.57,-158.07 168.5,-143 146.02,-125.25 124.14,-100.31 110.75,-83.92"/>
<polygon fill="midnightblue" stroke="midnightblue" points="113.21,-81.4 104.23,-75.78 107.75,-85.78 113.21,-81.4"/>
</g>
<!-- Node5 -->
<g id="node5" class="node">
<title>Node5</title>
<g id="a_node5"><a xlink:href="InvalidLibraryException_8hpp.html" target="_top" xlink:title=" ">
<polygon fill="white" stroke="black" points="177.5,-112.5 177.5,-142.5 317.5,-142.5 317.5,-112.5 177.5,-112.5"/>
<text text-anchor="start" x="185.5" y="-130.5" font-family="Helvetica,sans-Serif" font-size="10.00">Exceptions/InvalidLibrary</text>
<text text-anchor="middle" x="247.5" y="-119.5" font-family="Helvetica,sans-Serif" font-size="10.00">Exception.hpp</text>
</a>
</g>
</g>
<!-- Node1&#45;&gt;Node5 -->
<g id="edge5" class="edge">
<title>Node1&#45;&gt;Node5</title>
<path fill="none" stroke="midnightblue" d="M247.5,-179.48C247.5,-172.47 247.5,-162.19 247.5,-152.7"/>
<polygon fill="midnightblue" stroke="midnightblue" points="251,-152.52 247.5,-142.52 244,-152.52 251,-152.52"/>
</g>
<!-- Node7 -->
<g id="node7" class="node">
<title>Node7</title>
<g id="a_node7"><a xlink:title=" ">
<polygon fill="white" stroke="#bfbfbf" points="335.5,-118 335.5,-137 393.5,-137 393.5,-118 335.5,-118"/>
<text text-anchor="middle" x="364.5" y="-125" font-family="Helvetica,sans-Serif" font-size="10.00">memory</text>
</a>
</g>
</g>
<!-- Node1&#45;&gt;Node7 -->
<g id="edge7" class="edge">
<title>Node1&#45;&gt;Node7</title>
<path fill="none" stroke="midnightblue" d="M264.26,-179.48C283.72,-169.58 316.05,-153.14 338.71,-141.62"/>
<polygon fill="midnightblue" stroke="midnightblue" points="340.44,-144.66 347.77,-137.01 337.27,-138.42 340.44,-144.66"/>
</g>
<!-- Node8 -->
<g id="node8" class="node">
<title>Node8</title>
<g id="a_node8"><a xlink:title=" ">
<polygon fill="white" stroke="#bfbfbf" points="411.5,-118 411.5,-137 461.5,-137 461.5,-118 411.5,-118"/>
<text text-anchor="middle" x="436.5" y="-125" font-family="Helvetica,sans-Serif" font-size="10.00">dlfcn.h</text>
</a>
</g>
</g>
<!-- Node1&#45;&gt;Node8 -->
<g id="edge8" class="edge">
<title>Node1&#45;&gt;Node8</title>
<path fill="none" stroke="midnightblue" d="M281.13,-179.49C312.78,-171.19 361.33,-157.69 402.5,-143 404.36,-142.34 406.26,-141.62 408.17,-140.88"/>
<polygon fill="midnightblue" stroke="midnightblue" points="409.66,-144.05 417.6,-137.04 407.02,-137.57 409.66,-144.05"/>
</g>
<!-- Node2&#45;&gt;Node3 -->
<g id="edge2" class="edge">
<title>Node2&#45;&gt;Node3</title>
<path fill="none" stroke="midnightblue" d="M65.8,-117.98C71.24,-109.23 79.86,-95.37 86.74,-84.31"/>
<polygon fill="midnightblue" stroke="midnightblue" points="89.9,-85.85 92.21,-75.51 83.96,-82.15 89.9,-85.85"/>
</g>
<!-- Node4 -->
<g id="node4" class="node">
<title>Node4</title>
<g id="a_node4"><a xlink:title=" ">
<polygon fill="white" stroke="#bfbfbf" points="75.5,-0.5 75.5,-19.5 119.5,-19.5 119.5,-0.5 75.5,-0.5"/>
<text text-anchor="middle" x="97.5" y="-7.5" font-family="Helvetica,sans-Serif" font-size="10.00">string</text>
</a>
</g>
</g>
<!-- Node3&#45;&gt;Node4 -->
<g id="edge3" class="edge">
<title>Node3&#45;&gt;Node4</title>
<path fill="none" stroke="midnightblue" d="M97.5,-56.08C97.5,-49.01 97.5,-38.86 97.5,-29.99"/>
<polygon fill="midnightblue" stroke="midnightblue" points="101,-29.75 97.5,-19.75 94,-29.75 101,-29.75"/>
</g>
<!-- Node6 -->
<g id="node6" class="node">
<title>Node6</title>
<g id="a_node6"><a xlink:title=" ">
<polygon fill="white" stroke="#bfbfbf" points="215,-56.5 215,-75.5 280,-75.5 280,-56.5 215,-56.5"/>
<text text-anchor="middle" x="247.5" y="-63.5" font-family="Helvetica,sans-Serif" font-size="10.00">stdexcept</text>
</a>
</g>
</g>
<!-- Node5&#45;&gt;Node6 -->
<g id="edge6" class="edge">
<title>Node5&#45;&gt;Node6</title>
<path fill="none" stroke="midnightblue" d="M247.5,-112.4C247.5,-104.47 247.5,-94.46 247.5,-85.86"/>
<polygon fill="midnightblue" stroke="midnightblue" points="251,-85.66 247.5,-75.66 244,-85.66 251,-85.66"/>
</g>
</g>
</svg>
