<?xml version="1.0" encoding="UTF-8" standalone="no"?>
<!DOCTYPE svg PUBLIC "-//W3C//DTD SVG 1.1//EN"
 "http://www.w3.org/Graphics/SVG/1.1/DTD/svg11.dtd">
<!-- Generated by graphviz version 2.43.0 (0)
 -->
<!-- Title: sources/Core/Library.hpp Pages: 1 -->
<svg width="401pt" height="229pt"
 viewBox="0.00 0.00 400.50 229.00" xmlns="http://www.w3.org/2000/svg" xmlns:xlink="http://www.w3.org/1999/xlink">
<g id="graph0" class="graph" transform="scale(1 1) rotate(0) translate(4 225)">
<title>sources/Core/Library.hpp</title>
<polygon fill="white" stroke="transparent" points="-4,4 -4,-225 396.5,-225 396.5,4 -4,4"/>
<!-- Node1 -->
<g id="node1" class="node">
<title>Node1</title>
<g id="a_node1"><a xlink:title=" ">
<polygon fill="#bfbfbf" stroke="black" points="143.5,-201.5 143.5,-220.5 279.5,-220.5 279.5,-201.5 143.5,-201.5"/>
<text text-anchor="middle" x="211.5" y="-208.5" font-family="Helvetica,sans-Serif" font-size="10.00">sources/Core/Library.hpp</text>
</a>
</g>
</g>
<!-- Node2 -->
<g id="node2" class="node">
<title>Node2</title>
<g id="a_node2"><a xlink:href="sources_2Core_2Library_8cpp.html" target="_top" xlink:title=" ">
<polygon fill="white" stroke="black" points="0,-140 0,-159 135,-159 135,-140 0,-140"/>
<text text-anchor="middle" x="67.5" y="-147" font-family="Helvetica,sans-Serif" font-size="10.00">sources/Core/Library.cpp</text>
</a>
</g>
</g>
<!-- Node1&#45;&gt;Node2 -->
<g id="edge1" class="edge">
<title>Node1&#45;&gt;Node2</title>
<path fill="none" stroke="midnightblue" d="M181.57,-197.63C153.59,-186.07 112.56,-169.12 88.09,-159.01"/>
<polygon fill="midnightblue" stroke="midnightblue" points="180.29,-200.89 190.87,-201.48 182.96,-194.42 180.29,-200.89"/>
</g>
<!-- Node3 -->
<g id="node3" class="node">
<title>Node3</title>
<g id="a_node3"><a xlink:href="Runner_8hpp.html" target="_top" xlink:title=" ">
<polygon fill="white" stroke="black" points="153,-134.5 153,-164.5 270,-164.5 270,-134.5 153,-134.5"/>
<text text-anchor="start" x="161" y="-152.5" font-family="Helvetica,sans-Serif" font-size="10.00">sources/Core/Runner</text>
<text text-anchor="middle" x="211.5" y="-141.5" font-family="Helvetica,sans-Serif" font-size="10.00">/Runner.hpp</text>
</a>
</g>
</g>
<!-- Node1&#45;&gt;Node3 -->
<g id="edge2" class="edge">
<title>Node1&#45;&gt;Node3</title>
<path fill="none" stroke="midnightblue" d="M211.5,-191.23C211.5,-182.59 211.5,-172.5 211.5,-164.52"/>
<polygon fill="midnightblue" stroke="midnightblue" points="208,-191.48 211.5,-201.48 215,-191.48 208,-191.48"/>
</g>
<!-- Node8 -->
<g id="node8" class="node">
<title>Node8</title>
<g id="a_node8"><a xlink:href="tests_2Library_8cpp.html" target="_top" xlink:title=" ">
<polygon fill="white" stroke="black" points="288.5,-140 288.5,-159 384.5,-159 384.5,-140 288.5,-140"/>
<text text-anchor="middle" x="336.5" y="-147" font-family="Helvetica,sans-Serif" font-size="10.00">tests/Library.cpp</text>
</a>
</g>
</g>
<!-- Node1&#45;&gt;Node8 -->
<g id="edge8" class="edge">
<title>Node1&#45;&gt;Node8</title>
<path fill="none" stroke="midnightblue" d="M238.44,-197.17C262.7,-185.63 297.66,-168.99 318.62,-159.01"/>
<polygon fill="midnightblue" stroke="midnightblue" points="236.93,-194.02 229.41,-201.48 239.94,-200.34 236.93,-194.02"/>
</g>
<!-- Node4 -->
<g id="node4" class="node">
<title>Node4</title>
<g id="a_node4"><a xlink:href="Runner_8cpp.html" target="_top" xlink:title=" ">
<polygon fill="white" stroke="black" points="64,-0.5 64,-30.5 181,-30.5 181,-0.5 64,-0.5"/>
<text text-anchor="start" x="72" y="-18.5" font-family="Helvetica,sans-Serif" font-size="10.00">sources/Core/Runner</text>
<text text-anchor="middle" x="122.5" y="-7.5" font-family="Helvetica,sans-Serif" font-size="10.00">/Runner.cpp</text>
</a>
</g>
</g>
<!-- Node3&#45;&gt;Node4 -->
<g id="edge3" class="edge">
<title>Node3&#45;&gt;Node4</title>
<path fill="none" stroke="midnightblue" d="M174.37,-128.94C162.25,-120.86 149.79,-110.45 141.5,-98 127.73,-77.32 123.88,-47.9 122.84,-30.65"/>
<polygon fill="midnightblue" stroke="midnightblue" points="172.74,-132.05 183.07,-134.4 176.47,-126.12 172.74,-132.05"/>
</g>
<!-- Node5 -->
<g id="node5" class="node">
<title>Node5</title>
<g id="a_node5"><a xlink:href="Menu_8hpp.html" target="_top" xlink:title=" ">
<polygon fill="white" stroke="black" points="150.5,-67.5 150.5,-97.5 272.5,-97.5 272.5,-67.5 150.5,-67.5"/>
<text text-anchor="start" x="158.5" y="-85.5" font-family="Helvetica,sans-Serif" font-size="10.00">sources/Games/Menu</text>
<text text-anchor="middle" x="211.5" y="-74.5" font-family="Helvetica,sans-Serif" font-size="10.00">/Menu.hpp</text>
</a>
</g>
</g>
<!-- Node3&#45;&gt;Node5 -->
<g id="edge4" class="edge">
<title>Node3&#45;&gt;Node5</title>
<path fill="none" stroke="midnightblue" d="M211.5,-124.11C211.5,-115.15 211.5,-105.32 211.5,-97.58"/>
<polygon fill="midnightblue" stroke="midnightblue" points="208,-124.4 211.5,-134.4 215,-124.4 208,-124.4"/>
</g>
<!-- Node7 -->
<g id="node7" class="node">
<title>Node7</title>
<g id="a_node7"><a xlink:href="main_8cpp.html" target="_top" xlink:title=" ">
<polygon fill="white" stroke="black" points="290.5,-73 290.5,-92 392.5,-92 392.5,-73 290.5,-73"/>
<text text-anchor="middle" x="341.5" y="-80" font-family="Helvetica,sans-Serif" font-size="10.00">sources/main.cpp</text>
</a>
</g>
</g>
<!-- Node3&#45;&gt;Node7 -->
<g id="edge7" class="edge">
<title>Node3&#45;&gt;Node7</title>
<path fill="none" stroke="midnightblue" d="M248.89,-129.8C273.82,-117.34 305.39,-101.56 324.49,-92.01"/>
<polygon fill="midnightblue" stroke="midnightblue" points="247.09,-126.79 239.71,-134.4 250.22,-133.05 247.09,-126.79"/>
</g>
<!-- Node5&#45;&gt;Node4 -->
<g id="edge5" class="edge">
<title>Node5&#45;&gt;Node4</title>
<path fill="none" stroke="midnightblue" d="M184.05,-61.45C170.36,-51.45 154.13,-39.6 141.77,-30.58"/>
<polygon fill="midnightblue" stroke="midnightblue" points="182.05,-64.32 192.19,-67.4 186.18,-58.67 182.05,-64.32"/>
</g>
<!-- Node6 -->
<g id="node6" class="node">
<title>Node6</title>
<g id="a_node6"><a xlink:href="Menu_8cpp.html" target="_top" xlink:title=" ">
<polygon fill="white" stroke="black" points="199.5,-0.5 199.5,-30.5 321.5,-30.5 321.5,-0.5 199.5,-0.5"/>
<text text-anchor="start" x="207.5" y="-18.5" font-family="Helvetica,sans-Serif" font-size="10.00">sources/Games/Menu</text>
<text text-anchor="middle" x="260.5" y="-7.5" font-family="Helvetica,sans-Serif" font-size="10.00">/Menu.cpp</text>
</a>
</g>
</g>
<!-- Node5&#45;&gt;Node6 -->
<g id="edge6" class="edge">
<title>Node5&#45;&gt;Node6</title>
<path fill="none" stroke="midnightblue" d="M228.34,-59.16C235.49,-49.68 243.6,-38.92 249.89,-30.58"/>
<polygon fill="midnightblue" stroke="midnightblue" points="225.36,-57.3 222.13,-67.4 230.95,-61.52 225.36,-57.3"/>
</g>
</g>
</svg>
