<?xml version="1.0" encoding="UTF-8" standalone="no"?>
<!DOCTYPE svg PUBLIC "-//W3C//DTD SVG 1.1//EN"
 "http://www.w3.org/Graphics/SVG/1.1/DTD/svg11.dtd">
<!-- Generated by graphviz version 2.43.0 (0)
 -->
<!-- Title: sources/Common/Drawables/Line.hpp Pages: 1 -->
<svg width="1326pt" height="307pt"
 viewBox="0.00 0.00 1325.50 307.00" xmlns="http://www.w3.org/2000/svg" xmlns:xlink="http://www.w3.org/1999/xlink">
<g id="graph0" class="graph" transform="scale(1 1) rotate(0) translate(4 303)">
<title>sources/Common/Drawables/Line.hpp</title>
<polygon fill="white" stroke="transparent" points="-4,4 -4,-303 1321.5,-303 1321.5,4 -4,4"/>
<!-- Node1 -->
<g id="node1" class="node">
<title>Node1</title>
<g id="a_node1"><a xlink:title=" ">
<polygon fill="#bfbfbf" stroke="black" points="860.5,-268.5 860.5,-298.5 1016.5,-298.5 1016.5,-268.5 860.5,-268.5"/>
<text text-anchor="start" x="868.5" y="-286.5" font-family="Helvetica,sans-Serif" font-size="10.00">sources/Common/Drawables</text>
<text text-anchor="middle" x="938.5" y="-275.5" font-family="Helvetica,sans-Serif" font-size="10.00">/Line.hpp</text>
</a>
</g>
</g>
<!-- Node2 -->
<g id="node2" class="node">
<title>Node2</title>
<g id="a_node2"><a xlink:href="IDisplayModule_8hpp.html" target="_top" xlink:title=" ">
<polygon fill="white" stroke="black" points="488,-207 488,-226 689,-226 689,-207 488,-207"/>
<text text-anchor="middle" x="588.5" y="-214" font-family="Helvetica,sans-Serif" font-size="10.00">sources/Common/IDisplayModule.hpp</text>
</a>
</g>
</g>
<!-- Node1&#45;&gt;Node2 -->
<g id="edge1" class="edge">
<title>Node1&#45;&gt;Node2</title>
<path fill="none" stroke="midnightblue" d="M853.01,-266.62C784.09,-253.82 689.82,-236.32 634.42,-226.03"/>
<polygon fill="midnightblue" stroke="midnightblue" points="852.52,-270.09 862.99,-268.48 853.79,-263.21 852.52,-270.09"/>
</g>
<!-- Node14 -->
<g id="node14" class="node">
<title>Node14</title>
<g id="a_node14"><a xlink:href="Nibbler_8cpp.html" target="_top" xlink:title=" ">
<polygon fill="white" stroke="black" points="827.5,-134.5 827.5,-164.5 957.5,-164.5 957.5,-134.5 827.5,-134.5"/>
<text text-anchor="start" x="835.5" y="-152.5" font-family="Helvetica,sans-Serif" font-size="10.00">sources/Games/Nibbler</text>
<text text-anchor="middle" x="892.5" y="-141.5" font-family="Helvetica,sans-Serif" font-size="10.00">/Nibbler.cpp</text>
</a>
</g>
</g>
<!-- Node1&#45;&gt;Node14 -->
<g id="edge14" class="edge">
<title>Node1&#45;&gt;Node14</title>
<path fill="none" stroke="midnightblue" d="M859.12,-264.44C843.1,-257.04 828.22,-246.64 818.5,-232 810.88,-220.52 812.06,-213.18 818.5,-201 827.07,-184.77 843.46,-172.77 858.65,-164.56"/>
<polygon fill="midnightblue" stroke="midnightblue" points="858.07,-267.79 868.65,-268.45 860.79,-261.34 858.07,-267.79"/>
</g>
<!-- Node15 -->
<g id="node15" class="node">
<title>Node15</title>
<g id="a_node15"><a xlink:href="Nibbler_8hpp.html" target="_top" xlink:title=" ">
<polygon fill="white" stroke="black" points="827.5,-201.5 827.5,-231.5 957.5,-231.5 957.5,-201.5 827.5,-201.5"/>
<text text-anchor="start" x="835.5" y="-219.5" font-family="Helvetica,sans-Serif" font-size="10.00">sources/Games/Nibbler</text>
<text text-anchor="middle" x="892.5" y="-208.5" font-family="Helvetica,sans-Serif" font-size="10.00">/Nibbler.hpp</text>
</a>
</g>
</g>
<!-- Node1&#45;&gt;Node15 -->
<g id="edge15" class="edge">
<title>Node1&#45;&gt;Node15</title>
<path fill="none" stroke="midnightblue" d="M922.69,-260.16C915.98,-250.68 908.37,-239.92 902.46,-231.58"/>
<polygon fill="midnightblue" stroke="midnightblue" points="919.88,-262.26 928.52,-268.4 925.6,-258.21 919.88,-262.26"/>
</g>
<!-- Node16 -->
<g id="node16" class="node">
<title>Node16</title>
<g id="a_node16"><a xlink:href="Pacman_8cpp.html" target="_top" xlink:title=" ">
<polygon fill="white" stroke="black" points="995,-134.5 995,-164.5 1128,-164.5 1128,-134.5 995,-134.5"/>
<text text-anchor="start" x="1003" y="-152.5" font-family="Helvetica,sans-Serif" font-size="10.00">sources/Games/Pacman</text>
<text text-anchor="middle" x="1061.5" y="-141.5" font-family="Helvetica,sans-Serif" font-size="10.00">/Pacman.cpp</text>
</a>
</g>
</g>
<!-- Node1&#45;&gt;Node16 -->
<g id="edge17" class="edge">
<title>Node1&#45;&gt;Node16</title>
<path fill="none" stroke="midnightblue" d="M954.96,-260.2C967.78,-243.34 986.39,-219.93 1004.5,-201 1017.02,-187.91 1032.46,-174.37 1044.12,-164.61"/>
<polygon fill="midnightblue" stroke="midnightblue" points="952.03,-258.27 948.82,-268.36 957.63,-262.48 952.03,-258.27"/>
</g>
<!-- Node17 -->
<g id="node17" class="node">
<title>Node17</title>
<g id="a_node17"><a xlink:href="Pacman_8hpp.html" target="_top" xlink:title=" ">
<polygon fill="white" stroke="black" points="1014,-201.5 1014,-231.5 1147,-231.5 1147,-201.5 1014,-201.5"/>
<text text-anchor="start" x="1022" y="-219.5" font-family="Helvetica,sans-Serif" font-size="10.00">sources/Games/Pacman</text>
<text text-anchor="middle" x="1080.5" y="-208.5" font-family="Helvetica,sans-Serif" font-size="10.00">/Pacman.hpp</text>
</a>
</g>
</g>
<!-- Node1&#45;&gt;Node17 -->
<g id="edge18" class="edge">
<title>Node1&#45;&gt;Node17</title>
<path fill="none" stroke="midnightblue" d="M978.63,-264.13C1001.19,-253.8 1028.92,-241.11 1049.75,-231.58"/>
<polygon fill="midnightblue" stroke="midnightblue" points="976.95,-261.05 969.31,-268.4 979.86,-267.42 976.95,-261.05"/>
</g>
<!-- Node18 -->
<g id="node18" class="node">
<title>Node18</title>
<g id="a_node18"><a xlink:href="Qix_8hpp.html" target="_top" xlink:title=" ">
<polygon fill="white" stroke="black" points="1165.5,-207 1165.5,-226 1317.5,-226 1317.5,-207 1165.5,-207"/>
<text text-anchor="middle" x="1241.5" y="-214" font-family="Helvetica,sans-Serif" font-size="10.00">sources/Games/Qix/Qix.hpp</text>
</a>
</g>
</g>
<!-- Node1&#45;&gt;Node18 -->
<g id="edge20" class="edge">
<title>Node1&#45;&gt;Node18</title>
<path fill="none" stroke="midnightblue" d="M1013.98,-266.31C1073.51,-253.54 1154.18,-236.23 1201.74,-226.03"/>
<polygon fill="midnightblue" stroke="midnightblue" points="1012.92,-262.96 1003.87,-268.48 1014.39,-269.8 1012.92,-262.96"/>
</g>
<!-- Node3 -->
<g id="node3" class="node">
<title>Node3</title>
<g id="a_node3"><a xlink:href="Runner_8hpp.html" target="_top" xlink:title=" ">
<polygon fill="white" stroke="black" points="150,-134.5 150,-164.5 267,-164.5 267,-134.5 150,-134.5"/>
<text text-anchor="start" x="158" y="-152.5" font-family="Helvetica,sans-Serif" font-size="10.00">sources/Core/Runner</text>
<text text-anchor="middle" x="208.5" y="-141.5" font-family="Helvetica,sans-Serif" font-size="10.00">/Runner.hpp</text>
</a>
</g>
</g>
<!-- Node2&#45;&gt;Node3 -->
<g id="edge2" class="edge">
<title>Node2&#45;&gt;Node3</title>
<path fill="none" stroke="midnightblue" d="M528.22,-205.19C456.61,-192.94 337.96,-172.64 267.1,-160.52"/>
<polygon fill="midnightblue" stroke="midnightblue" points="527.98,-208.7 538.43,-206.94 529.16,-201.8 527.98,-208.7"/>
</g>
<!-- Node8 -->
<g id="node8" class="node">
<title>Node8</title>
<g id="a_node8"><a xlink:href="NcursesDisplay_8hpp.html" target="_top" xlink:title=" ">
<polygon fill="white" stroke="black" points="346,-134.5 346,-164.5 503,-164.5 503,-134.5 346,-134.5"/>
<text text-anchor="start" x="354" y="-152.5" font-family="Helvetica,sans-Serif" font-size="10.00">sources/DisplayModules</text>
<text text-anchor="middle" x="424.5" y="-141.5" font-family="Helvetica,sans-Serif" font-size="10.00">/Ncurses/NcursesDisplay.hpp</text>
</a>
</g>
</g>
<!-- Node2&#45;&gt;Node8 -->
<g id="edge8" class="edge">
<title>Node2&#45;&gt;Node8</title>
<path fill="none" stroke="midnightblue" d="M557.11,-203.06C529.33,-192.05 488.82,-175.99 459.89,-164.53"/>
<polygon fill="midnightblue" stroke="midnightblue" points="556.14,-206.44 566.72,-206.87 558.72,-199.93 556.14,-206.44"/>
</g>
<!-- Node10 -->
<g id="node10" class="node">
<title>Node10</title>
<g id="a_node10"><a xlink:href="SDLDisplay_8hpp.html" target="_top" xlink:title=" ">
<polygon fill="white" stroke="black" points="521,-134.5 521,-164.5 656,-164.5 656,-134.5 521,-134.5"/>
<text text-anchor="start" x="529" y="-152.5" font-family="Helvetica,sans-Serif" font-size="10.00">sources/DisplayModules</text>
<text text-anchor="middle" x="588.5" y="-141.5" font-family="Helvetica,sans-Serif" font-size="10.00">/SDL/SDLDisplay.hpp</text>
</a>
</g>
</g>
<!-- Node2&#45;&gt;Node10 -->
<g id="edge10" class="edge">
<title>Node2&#45;&gt;Node10</title>
<path fill="none" stroke="midnightblue" d="M588.5,-196.41C588.5,-186.22 588.5,-173.9 588.5,-164.59"/>
<polygon fill="midnightblue" stroke="midnightblue" points="585,-196.73 588.5,-206.73 592,-196.73 585,-196.73"/>
</g>
<!-- Node12 -->
<g id="node12" class="node">
<title>Node12</title>
<g id="a_node12"><a xlink:href="SFMLDisplay_8hpp.html" target="_top" xlink:title=" ">
<polygon fill="white" stroke="black" points="674,-134.5 674,-164.5 809,-164.5 809,-134.5 674,-134.5"/>
<text text-anchor="start" x="682" y="-152.5" font-family="Helvetica,sans-Serif" font-size="10.00">sources/DisplayModules</text>
<text text-anchor="middle" x="741.5" y="-141.5" font-family="Helvetica,sans-Serif" font-size="10.00">/SFML/SFMLDisplay.hpp</text>
</a>
</g>
</g>
<!-- Node2&#45;&gt;Node12 -->
<g id="edge12" class="edge">
<title>Node2&#45;&gt;Node12</title>
<path fill="none" stroke="midnightblue" d="M618.13,-202.91C644.04,-191.91 681.61,-175.94 708.48,-164.53"/>
<polygon fill="midnightblue" stroke="midnightblue" points="616.65,-199.74 608.82,-206.87 619.39,-206.18 616.65,-199.74"/>
</g>
<!-- Node4 -->
<g id="node4" class="node">
<title>Node4</title>
<g id="a_node4"><a xlink:href="Runner_8cpp.html" target="_top" xlink:title=" ">
<polygon fill="white" stroke="black" points="0,-0.5 0,-30.5 117,-30.5 117,-0.5 0,-0.5"/>
<text text-anchor="start" x="8" y="-18.5" font-family="Helvetica,sans-Serif" font-size="10.00">sources/Core/Runner</text>
<text text-anchor="middle" x="58.5" y="-7.5" font-family="Helvetica,sans-Serif" font-size="10.00">/Runner.cpp</text>
</a>
</g>
</g>
<!-- Node3&#45;&gt;Node4 -->
<g id="edge3" class="edge">
<title>Node3&#45;&gt;Node4</title>
<path fill="none" stroke="midnightblue" d="M140.1,-135.72C117.28,-128.26 93.6,-116.5 77.5,-98 61,-79.04 58.13,-48.48 57.99,-30.67"/>
<polygon fill="midnightblue" stroke="midnightblue" points="139.21,-139.11 149.8,-138.66 141.24,-132.41 139.21,-139.11"/>
</g>
<!-- Node5 -->
<g id="node5" class="node">
<title>Node5</title>
<g id="a_node5"><a xlink:href="Menu_8hpp.html" target="_top" xlink:title=" ">
<polygon fill="white" stroke="black" points="86.5,-67.5 86.5,-97.5 208.5,-97.5 208.5,-67.5 86.5,-67.5"/>
<text text-anchor="start" x="94.5" y="-85.5" font-family="Helvetica,sans-Serif" font-size="10.00">sources/Games/Menu</text>
<text text-anchor="middle" x="147.5" y="-74.5" font-family="Helvetica,sans-Serif" font-size="10.00">/Menu.hpp</text>
</a>
</g>
</g>
<!-- Node3&#45;&gt;Node5 -->
<g id="edge4" class="edge">
<title>Node3&#45;&gt;Node5</title>
<path fill="none" stroke="midnightblue" d="M188.35,-127.02C179.26,-117.34 168.78,-106.17 160.71,-97.58"/>
<polygon fill="midnightblue" stroke="midnightblue" points="185.87,-129.5 195.26,-134.4 190.97,-124.71 185.87,-129.5"/>
</g>
<!-- Node7 -->
<g id="node7" class="node">
<title>Node7</title>
<g id="a_node7"><a xlink:href="main_8cpp.html" target="_top" xlink:title=" ">
<polygon fill="white" stroke="black" points="226.5,-73 226.5,-92 328.5,-92 328.5,-73 226.5,-73"/>
<text text-anchor="middle" x="277.5" y="-80" font-family="Helvetica,sans-Serif" font-size="10.00">sources/main.cpp</text>
</a>
</g>
</g>
<!-- Node3&#45;&gt;Node7 -->
<g id="edge7" class="edge">
<title>Node3&#45;&gt;Node7</title>
<path fill="none" stroke="midnightblue" d="M230.97,-127.34C243.64,-115.4 258.78,-101.14 268.27,-92.19"/>
<polygon fill="midnightblue" stroke="midnightblue" points="228.35,-124.99 223.47,-134.4 233.15,-130.09 228.35,-124.99"/>
</g>
<!-- Node5&#45;&gt;Node4 -->
<g id="edge5" class="edge">
<title>Node5&#45;&gt;Node4</title>
<path fill="none" stroke="midnightblue" d="M120.05,-61.45C106.36,-51.45 90.13,-39.6 77.77,-30.58"/>
<polygon fill="midnightblue" stroke="midnightblue" points="118.05,-64.32 128.19,-67.4 122.18,-58.67 118.05,-64.32"/>
</g>
<!-- Node6 -->
<g id="node6" class="node">
<title>Node6</title>
<g id="a_node6"><a xlink:href="Menu_8cpp.html" target="_top" xlink:title=" ">
<polygon fill="white" stroke="black" points="135.5,-0.5 135.5,-30.5 257.5,-30.5 257.5,-0.5 135.5,-0.5"/>
<text text-anchor="start" x="143.5" y="-18.5" font-family="Helvetica,sans-Serif" font-size="10.00">sources/Games/Menu</text>
<text text-anchor="middle" x="196.5" y="-7.5" font-family="Helvetica,sans-Serif" font-size="10.00">/Menu.cpp</text>
</a>
</g>
</g>
<!-- Node5&#45;&gt;Node6 -->
<g id="edge6" class="edge">
<title>Node5&#45;&gt;Node6</title>
<path fill="none" stroke="midnightblue" d="M164.34,-59.16C171.49,-49.68 179.6,-38.92 185.89,-30.58"/>
<polygon fill="midnightblue" stroke="midnightblue" points="161.36,-57.3 158.13,-67.4 166.95,-61.52 161.36,-57.3"/>
</g>
<!-- Node9 -->
<g id="node9" class="node">
<title>Node9</title>
<g id="a_node9"><a xlink:href="NcursesDisplay_8cpp.html" target="_top" xlink:title=" ">
<polygon fill="white" stroke="black" points="346.5,-67.5 346.5,-97.5 502.5,-97.5 502.5,-67.5 346.5,-67.5"/>
<text text-anchor="start" x="354.5" y="-85.5" font-family="Helvetica,sans-Serif" font-size="10.00">sources/DisplayModules</text>
<text text-anchor="middle" x="424.5" y="-74.5" font-family="Helvetica,sans-Serif" font-size="10.00">/Ncurses/NcursesDisplay.cpp</text>
</a>
</g>
</g>
<!-- Node8&#45;&gt;Node9 -->
<g id="edge9" class="edge">
<title>Node8&#45;&gt;Node9</title>
<path fill="none" stroke="midnightblue" d="M424.5,-124.11C424.5,-115.15 424.5,-105.32 424.5,-97.58"/>
<polygon fill="midnightblue" stroke="midnightblue" points="421,-124.4 424.5,-134.4 428,-124.4 421,-124.4"/>
</g>
<!-- Node11 -->
<g id="node11" class="node">
<title>Node11</title>
<g id="a_node11"><a xlink:href="SDLDisplay_8cpp.html" target="_top" xlink:title=" ">
<polygon fill="white" stroke="black" points="521,-67.5 521,-97.5 656,-97.5 656,-67.5 521,-67.5"/>
<text text-anchor="start" x="529" y="-85.5" font-family="Helvetica,sans-Serif" font-size="10.00">sources/DisplayModules</text>
<text text-anchor="middle" x="588.5" y="-74.5" font-family="Helvetica,sans-Serif" font-size="10.00">/SDL/SDLDisplay.cpp</text>
</a>
</g>
</g>
<!-- Node10&#45;&gt;Node11 -->
<g id="edge11" class="edge">
<title>Node10&#45;&gt;Node11</title>
<path fill="none" stroke="midnightblue" d="M588.5,-124.11C588.5,-115.15 588.5,-105.32 588.5,-97.58"/>
<polygon fill="midnightblue" stroke="midnightblue" points="585,-124.4 588.5,-134.4 592,-124.4 585,-124.4"/>
</g>
<!-- Node13 -->
<g id="node13" class="node">
<title>Node13</title>
<g id="a_node13"><a xlink:href="SFMLDisplay_8cpp.html" target="_top" xlink:title=" ">
<polygon fill="white" stroke="black" points="674,-67.5 674,-97.5 809,-97.5 809,-67.5 674,-67.5"/>
<text text-anchor="start" x="682" y="-85.5" font-family="Helvetica,sans-Serif" font-size="10.00">sources/DisplayModules</text>
<text text-anchor="middle" x="741.5" y="-74.5" font-family="Helvetica,sans-Serif" font-size="10.00">/SFML/SFMLDisplay.cpp</text>
</a>
</g>
</g>
<!-- Node12&#45;&gt;Node13 -->
<g id="edge13" class="edge">
<title>Node12&#45;&gt;Node13</title>
<path fill="none" stroke="midnightblue" d="M741.5,-124.11C741.5,-115.15 741.5,-105.32 741.5,-97.58"/>
<polygon fill="midnightblue" stroke="midnightblue" points="738,-124.4 741.5,-134.4 745,-124.4 738,-124.4"/>
</g>
<!-- Node15&#45;&gt;Node14 -->
<g id="edge16" class="edge">
<title>Node15&#45;&gt;Node14</title>
<path fill="none" stroke="midnightblue" d="M892.5,-191.11C892.5,-182.15 892.5,-172.32 892.5,-164.58"/>
<polygon fill="midnightblue" stroke="midnightblue" points="889,-191.4 892.5,-201.4 896,-191.4 889,-191.4"/>
</g>
<!-- Node17&#45;&gt;Node16 -->
<g id="edge19" class="edge">
<title>Node17&#45;&gt;Node16</title>
<path fill="none" stroke="midnightblue" d="M1073.54,-191.7C1070.88,-182.59 1067.93,-172.49 1065.61,-164.58"/>
<polygon fill="midnightblue" stroke="midnightblue" points="1070.21,-192.78 1076.38,-201.4 1076.93,-190.82 1070.21,-192.78"/>
</g>
<!-- Node19 -->
<g id="node19" class="node">
<title>Node19</title>
<g id="a_node19"><a xlink:href="Qix_8cpp.html" target="_top" xlink:title=" ">
<polygon fill="white" stroke="black" points="1166,-140 1166,-159 1317,-159 1317,-140 1166,-140"/>
<text text-anchor="middle" x="1241.5" y="-147" font-family="Helvetica,sans-Serif" font-size="10.00">sources/Games/Qix/Qix.cpp</text>
</a>
</g>
</g>
<!-- Node18&#45;&gt;Node19 -->
<g id="edge21" class="edge">
<title>Node18&#45;&gt;Node19</title>
<path fill="none" stroke="midnightblue" d="M1241.5,-196.54C1241.5,-184.17 1241.5,-168.62 1241.5,-159.13"/>
<polygon fill="midnightblue" stroke="midnightblue" points="1238,-196.73 1241.5,-206.73 1245,-196.73 1238,-196.73"/>
</g>
</g>
</svg>
