<?xml version="1.0" encoding="UTF-8" standalone="no"?>
<!DOCTYPE svg PUBLIC "-//W3C//DTD SVG 1.1//EN"
 "http://www.w3.org/Graphics/SVG/1.1/DTD/svg11.dtd">
<!-- Generated by graphviz version 2.43.0 (0)
 -->
<!-- Title: sources/main.cpp Pages: 1 -->
<svg width="2014pt" height="319pt"
 viewBox="0.00 0.00 2014.05 319.00" xmlns="http://www.w3.org/2000/svg" xmlns:xlink="http://www.w3.org/1999/xlink">
<g id="graph0" class="graph" transform="scale(1 1) rotate(0) translate(4 315)">
<title>sources/main.cpp</title>
<polygon fill="white" stroke="transparent" points="-4,4 -4,-315 2010.05,-315 2010.05,4 -4,4"/>
<!-- Node1 -->
<g id="node1" class="node">
<title>Node1</title>
<g id="a_node1"><a xlink:title=" ">
<polygon fill="#bfbfbf" stroke="black" points="84.76,-291.5 84.76,-310.5 186.76,-310.5 186.76,-291.5 84.76,-291.5"/>
<text text-anchor="middle" x="135.76" y="-298.5" font-family="Helvetica,sans-Serif" font-size="10.00">sources/main.cpp</text>
</a>
</g>
</g>
<!-- Node2 -->
<g id="node2" class="node">
<title>Node2</title>
<g id="a_node2"><a xlink:title=" ">
<polygon fill="white" stroke="#bfbfbf" points="48.76,-235.5 48.76,-254.5 108.76,-254.5 108.76,-235.5 48.76,-235.5"/>
<text text-anchor="middle" x="78.76" y="-242.5" font-family="Helvetica,sans-Serif" font-size="10.00">iostream</text>
</a>
</g>
</g>
<!-- Node1&#45;&gt;Node2 -->
<g id="edge1" class="edge">
<title>Node1&#45;&gt;Node2</title>
<path fill="none" stroke="midnightblue" d="M126.6,-291.32C118.25,-283.42 105.72,-271.55 95.58,-261.94"/>
<polygon fill="midnightblue" stroke="midnightblue" points="97.75,-259.17 88.08,-254.83 92.93,-264.25 97.75,-259.17"/>
</g>
<!-- Node3 -->
<g id="node3" class="node">
<title>Node3</title>
<g id="a_node3"><a xlink:href="Runner_8hpp.html" target="_top" xlink:title=" ">
<polygon fill="white" stroke="black" points="126.76,-235.5 126.76,-254.5 260.76,-254.5 260.76,-235.5 126.76,-235.5"/>
<text text-anchor="middle" x="193.76" y="-242.5" font-family="Helvetica,sans-Serif" font-size="10.00">Core/Runner/Runner.hpp</text>
</a>
</g>
</g>
<!-- Node1&#45;&gt;Node3 -->
<g id="edge2" class="edge">
<title>Node1&#45;&gt;Node3</title>
<path fill="none" stroke="midnightblue" d="M145.07,-291.32C153.65,-283.34 166.57,-271.31 176.94,-261.65"/>
<polygon fill="midnightblue" stroke="midnightblue" points="179.33,-264.21 184.27,-254.83 174.56,-259.09 179.33,-264.21"/>
</g>
<!-- Node4 -->
<g id="node4" class="node">
<title>Node4</title>
<g id="a_node4"><a xlink:title=" ">
<polygon fill="white" stroke="#bfbfbf" points="165.76,-0.5 165.76,-19.5 209.76,-19.5 209.76,-0.5 165.76,-0.5"/>
<text text-anchor="middle" x="187.76" y="-7.5" font-family="Helvetica,sans-Serif" font-size="10.00">string</text>
</a>
</g>
</g>
<!-- Node3&#45;&gt;Node4 -->
<g id="edge3" class="edge">
<title>Node3&#45;&gt;Node4</title>
<path fill="none" stroke="midnightblue" d="M138.36,-235.43C94.73,-227.63 38.57,-214.91 21.76,-199 2.77,-181.03 7.8,-168.83 3.76,-143 1.62,-129.39 -3.26,-123.86 3.76,-112 36.75,-56.26 112.63,-29.23 155.94,-17.92"/>
<polygon fill="midnightblue" stroke="midnightblue" points="156.83,-21.3 165.69,-15.49 155.14,-14.51 156.83,-21.3"/>
</g>
<!-- Node5 -->
<g id="node5" class="node">
<title>Node5</title>
<g id="a_node5"><a xlink:title=" ">
<polygon fill="white" stroke="#bfbfbf" points="28.26,-118 28.26,-137 75.26,-137 75.26,-118 28.26,-118"/>
<text text-anchor="middle" x="51.76" y="-125" font-family="Helvetica,sans-Serif" font-size="10.00">vector</text>
</a>
</g>
</g>
<!-- Node3&#45;&gt;Node5 -->
<g id="edge4" class="edge">
<title>Node3&#45;&gt;Node5</title>
<path fill="none" stroke="midnightblue" d="M151.14,-235.42C115.47,-227.31 68.57,-214.15 56.76,-199 45.47,-184.52 45.67,-162.87 47.78,-147.39"/>
<polygon fill="midnightblue" stroke="midnightblue" points="51.26,-147.85 49.53,-137.39 44.36,-146.64 51.26,-147.85"/>
</g>
<!-- Node6 -->
<g id="node6" class="node">
<title>Node6</title>
<g id="a_node6"><a xlink:title=" ">
<polygon fill="white" stroke="#bfbfbf" points="1686.76,-0.5 1686.76,-19.5 1744.76,-19.5 1744.76,-0.5 1686.76,-0.5"/>
<text text-anchor="middle" x="1715.76" y="-7.5" font-family="Helvetica,sans-Serif" font-size="10.00">memory</text>
</a>
</g>
</g>
<!-- Node3&#45;&gt;Node6 -->
<g id="edge5" class="edge">
<title>Node3&#45;&gt;Node6</title>
<path fill="none" stroke="midnightblue" d="M260.94,-242.87C581.17,-237.14 1939.73,-209.03 1998.76,-143 2026.15,-112.36 1964.14,-57.58 1961.76,-56 1928.37,-33.94 1815.52,-20.32 1754.95,-14.42"/>
<polygon fill="midnightblue" stroke="midnightblue" points="1755.27,-10.93 1744.99,-13.47 1754.61,-17.9 1755.27,-10.93"/>
</g>
<!-- Node7 -->
<g id="node7" class="node">
<title>Node7</title>
<g id="a_node7"><a xlink:title=" ">
<polygon fill="white" stroke="#bfbfbf" points="65.76,-179.5 65.76,-198.5 103.76,-198.5 103.76,-179.5 65.76,-179.5"/>
<text text-anchor="middle" x="84.76" y="-186.5" font-family="Helvetica,sans-Serif" font-size="10.00">map</text>
</a>
</g>
</g>
<!-- Node3&#45;&gt;Node7 -->
<g id="edge6" class="edge">
<title>Node3&#45;&gt;Node7</title>
<path fill="none" stroke="midnightblue" d="M176.24,-235.32C158.68,-226.62 131.42,-213.12 111.22,-203.11"/>
<polygon fill="midnightblue" stroke="midnightblue" points="112.74,-199.96 102.23,-198.65 109.63,-206.23 112.74,-199.96"/>
</g>
<!-- Node8 -->
<g id="node8" class="node">
<title>Node8</title>
<g id="a_node8"><a xlink:title=" ">
<polygon fill="white" stroke="#bfbfbf" points="122.26,-179.5 122.26,-198.5 187.26,-198.5 187.26,-179.5 122.26,-179.5"/>
<text text-anchor="middle" x="154.76" y="-186.5" font-family="Helvetica,sans-Serif" font-size="10.00">functional</text>
</a>
</g>
</g>
<!-- Node3&#45;&gt;Node8 -->
<g id="edge7" class="edge">
<title>Node3&#45;&gt;Node8</title>
<path fill="none" stroke="midnightblue" d="M187.32,-235.08C181.81,-227.46 173.72,-216.26 166.99,-206.94"/>
<polygon fill="midnightblue" stroke="midnightblue" points="169.77,-204.81 161.08,-198.75 164.09,-208.91 169.77,-204.81"/>
</g>
<!-- Node9 -->
<g id="node9" class="node">
<title>Node9</title>
<g id="a_node9"><a xlink:title=" ">
<polygon fill="white" stroke="#bfbfbf" points="205.26,-179.5 205.26,-198.5 260.26,-198.5 260.26,-179.5 205.26,-179.5"/>
<text text-anchor="middle" x="232.76" y="-186.5" font-family="Helvetica,sans-Serif" font-size="10.00">fstream</text>
</a>
</g>
</g>
<!-- Node3&#45;&gt;Node9 -->
<g id="edge8" class="edge">
<title>Node3&#45;&gt;Node9</title>
<path fill="none" stroke="midnightblue" d="M200.2,-235.08C205.7,-227.46 213.79,-216.26 220.52,-206.94"/>
<polygon fill="midnightblue" stroke="midnightblue" points="223.42,-208.91 226.44,-198.75 217.74,-204.81 223.42,-208.91"/>
</g>
<!-- Node10 -->
<g id="node10" class="node">
<title>Node10</title>
<g id="a_node10"><a xlink:href="IGameModule_8hpp.html" target="_top" xlink:title=" ">
<polygon fill="white" stroke="black" points="278.26,-179.5 278.26,-198.5 431.26,-198.5 431.26,-179.5 278.26,-179.5"/>
<text text-anchor="middle" x="354.76" y="-186.5" font-family="Helvetica,sans-Serif" font-size="10.00">Common/IGameModule.hpp</text>
</a>
</g>
</g>
<!-- Node3&#45;&gt;Node10 -->
<g id="edge9" class="edge">
<title>Node3&#45;&gt;Node10</title>
<path fill="none" stroke="midnightblue" d="M219.27,-235.44C246.35,-226.36 289.35,-211.94 319.62,-201.78"/>
<polygon fill="midnightblue" stroke="midnightblue" points="321,-205.01 329.36,-198.52 318.77,-198.38 321,-205.01"/>
</g>
<!-- Node11 -->
<g id="node11" class="node">
<title>Node11</title>
<g id="a_node11"><a xlink:href="ModInfo_8hpp.html" target="_top" xlink:title=" ">
<polygon fill="white" stroke="black" points="170.26,-56.5 170.26,-75.5 295.26,-75.5 295.26,-56.5 170.26,-56.5"/>
<text text-anchor="middle" x="232.76" y="-63.5" font-family="Helvetica,sans-Serif" font-size="10.00">Common/ModInfo.hpp</text>
</a>
</g>
</g>
<!-- Node3&#45;&gt;Node11 -->
<g id="edge47" class="edge">
<title>Node3&#45;&gt;Node11</title>
<path fill="none" stroke="midnightblue" d="M126.68,-236.05C98.71,-229.83 67.51,-218.75 44.76,-199 14.28,-172.55 -6.68,-143.34 18.76,-112 36.46,-90.18 105.25,-78.55 160.12,-72.62"/>
<polygon fill="midnightblue" stroke="midnightblue" points="160.6,-76.09 170.19,-71.58 159.88,-69.12 160.6,-76.09"/>
</g>
<!-- Node16 -->
<g id="node16" class="node">
<title>Node16</title>
<g id="a_node16"><a xlink:href="IDisplayModule_8hpp.html" target="_top" xlink:title=" ">
<polygon fill="white" stroke="black" points="904.26,-179.5 904.26,-198.5 1065.26,-198.5 1065.26,-179.5 904.26,-179.5"/>
<text text-anchor="middle" x="984.76" y="-186.5" font-family="Helvetica,sans-Serif" font-size="10.00">Common/IDisplayModule.hpp</text>
</a>
</g>
</g>
<!-- Node3&#45;&gt;Node16 -->
<g id="edge22" class="edge">
<title>Node3&#45;&gt;Node16</title>
<path fill="none" stroke="midnightblue" d="M260.86,-239.42C402.67,-229.74 732.97,-207.19 893.68,-196.22"/>
<polygon fill="midnightblue" stroke="midnightblue" points="894.28,-199.69 904.02,-195.51 893.8,-192.7 894.28,-199.69"/>
</g>
<!-- Node23 -->
<g id="node23" class="node">
<title>Node23</title>
<g id="a_node23"><a xlink:href="Library_8hpp.html" target="_top" xlink:title=" ">
<polygon fill="white" stroke="black" points="1395.26,-179.5 1395.26,-198.5 1490.26,-198.5 1490.26,-179.5 1395.26,-179.5"/>
<text text-anchor="middle" x="1442.76" y="-186.5" font-family="Helvetica,sans-Serif" font-size="10.00">Core/Library.hpp</text>
</a>
</g>
</g>
<!-- Node3&#45;&gt;Node23 -->
<g id="edge40" class="edge">
<title>Node3&#45;&gt;Node23</title>
<path fill="none" stroke="midnightblue" d="M260.91,-241.1C481.15,-231.57 1179.22,-201.39 1385.08,-192.49"/>
<polygon fill="midnightblue" stroke="midnightblue" points="1385.24,-195.99 1395.08,-192.06 1384.94,-189 1385.24,-195.99"/>
</g>
<!-- Node10&#45;&gt;Node4 -->
<g id="edge21" class="edge">
<title>Node10&#45;&gt;Node4</title>
<path fill="none" stroke="midnightblue" d="M278.24,-179.99C229.54,-173.19 172.71,-161.53 156.76,-143 131.48,-113.65 138.94,-92.55 151.76,-56 155.54,-45.21 163.12,-35.08 170.36,-27.18"/>
<polygon fill="midnightblue" stroke="midnightblue" points="173.08,-29.4 177.59,-19.81 168.09,-24.49 173.08,-29.4"/>
</g>
<!-- Node10&#45;&gt;Node5 -->
<g id="edge19" class="edge">
<title>Node10&#45;&gt;Node5</title>
<path fill="none" stroke="midnightblue" d="M281.37,-179.48C227.7,-172.3 153.46,-160.38 89.76,-143 87.1,-142.28 84.37,-141.44 81.66,-140.53"/>
<polygon fill="midnightblue" stroke="midnightblue" points="82.62,-137.16 72.02,-137.08 80.25,-143.75 82.62,-137.16"/>
</g>
<!-- Node10&#45;&gt;Node6 -->
<g id="edge20" class="edge">
<title>Node10&#45;&gt;Node6</title>
<path fill="none" stroke="midnightblue" d="M312.77,-179.47C264.36,-167.88 195.14,-144.76 225.76,-112 276.78,-57.4 1444.78,-19.22 1676.14,-12.17"/>
<polygon fill="midnightblue" stroke="midnightblue" points="1676.55,-15.66 1686.44,-11.86 1676.34,-8.67 1676.55,-15.66"/>
</g>
<!-- Node10&#45;&gt;Node11 -->
<g id="edge10" class="edge">
<title>Node10&#45;&gt;Node11</title>
<path fill="none" stroke="midnightblue" d="M278.48,-179.47C232.42,-172.57 179.97,-161 165.76,-143 157.22,-132.19 159.28,-124.16 165.76,-112 173.31,-97.83 187.52,-87.33 200.91,-80.06"/>
<polygon fill="midnightblue" stroke="midnightblue" points="202.59,-83.13 209.97,-75.53 199.46,-76.87 202.59,-83.13"/>
</g>
<!-- Node12 -->
<g id="node12" class="node">
<title>Node12</title>
<g id="a_node12"><a xlink:href="ADrawable_8hpp.html" target="_top" xlink:title=" ">
<polygon fill="white" stroke="black" points="1120.26,-56.5 1120.26,-75.5 1313.26,-75.5 1313.26,-56.5 1120.26,-56.5"/>
<text text-anchor="middle" x="1216.76" y="-63.5" font-family="Helvetica,sans-Serif" font-size="10.00">Common/Drawables/ADrawable.hpp</text>
</a>
</g>
</g>
<!-- Node10&#45;&gt;Node12 -->
<g id="edge12" class="edge">
<title>Node10&#45;&gt;Node12</title>
<path fill="none" stroke="midnightblue" d="M293.15,-179.42C271.33,-173.08 248.94,-162.08 235.76,-143 227.92,-131.66 226.24,-121.96 235.76,-112 265.56,-80.8 861.7,-70.81 1109.83,-67.99"/>
<polygon fill="midnightblue" stroke="midnightblue" points="1109.98,-71.49 1119.94,-67.88 1109.91,-64.49 1109.98,-71.49"/>
</g>
<!-- Node13 -->
<g id="node13" class="node">
<title>Node13</title>
<g id="a_node13"><a xlink:href="Module_8hpp.html" target="_top" xlink:title=" ">
<polygon fill="white" stroke="black" points="545.26,-118 545.26,-137 666.26,-137 666.26,-118 545.26,-118"/>
<text text-anchor="middle" x="605.76" y="-125" font-family="Helvetica,sans-Serif" font-size="10.00">Common/Module.hpp</text>
</a>
</g>
</g>
<!-- Node10&#45;&gt;Node13 -->
<g id="edge14" class="edge">
<title>Node10&#45;&gt;Node13</title>
<path fill="none" stroke="midnightblue" d="M390.72,-179.48C435.26,-168.92 511.22,-150.91 559.91,-139.37"/>
<polygon fill="midnightblue" stroke="midnightblue" points="560.94,-142.72 569.86,-137.01 559.32,-135.91 560.94,-142.72"/>
</g>
<!-- Node14 -->
<g id="node14" class="node">
<title>Node14</title>
<g id="a_node14"><a xlink:href="Event_8hpp.html" target="_top" xlink:title=" ">
<polygon fill="white" stroke="black" points="245.26,-118 245.26,-137 394.26,-137 394.26,-118 245.26,-118"/>
<text text-anchor="middle" x="319.76" y="-125" font-family="Helvetica,sans-Serif" font-size="10.00">Common/Events/Event.hpp</text>
</a>
</g>
</g>
<!-- Node10&#45;&gt;Node14 -->
<g id="edge16" class="edge">
<title>Node10&#45;&gt;Node14</title>
<path fill="none" stroke="midnightblue" d="M349.74,-179.48C344.6,-170.73 336.44,-156.87 329.94,-145.81"/>
<polygon fill="midnightblue" stroke="midnightblue" points="332.85,-143.85 324.76,-137.01 326.81,-147.4 332.85,-143.85"/>
</g>
<!-- Node15 -->
<g id="node15" class="node">
<title>Node15</title>
<g id="a_node15"><a xlink:href="Sound_8hpp.html" target="_top" xlink:title=" ">
<polygon fill="white" stroke="black" points="412.26,-118 412.26,-137 527.26,-137 527.26,-118 412.26,-118"/>
<text text-anchor="middle" x="469.76" y="-125" font-family="Helvetica,sans-Serif" font-size="10.00">Common/Sound.hpp</text>
</a>
</g>
</g>
<!-- Node10&#45;&gt;Node15 -->
<g id="edge17" class="edge">
<title>Node10&#45;&gt;Node15</title>
<path fill="none" stroke="midnightblue" d="M371.23,-179.48C390.36,-169.58 422.13,-153.14 444.41,-141.62"/>
<polygon fill="midnightblue" stroke="midnightblue" points="446.04,-144.71 453.31,-137.01 442.82,-138.5 446.04,-144.71"/>
</g>
<!-- Node11&#45;&gt;Node4 -->
<g id="edge11" class="edge">
<title>Node11&#45;&gt;Node4</title>
<path fill="none" stroke="midnightblue" d="M225.33,-56.08C218.9,-48.38 209.45,-37.03 201.63,-27.65"/>
<polygon fill="midnightblue" stroke="midnightblue" points="204.14,-25.19 195.05,-19.75 198.76,-29.67 204.14,-25.19"/>
</g>
<!-- Node12&#45;&gt;Node6 -->
<g id="edge13" class="edge">
<title>Node12&#45;&gt;Node6</title>
<path fill="none" stroke="midnightblue" d="M1295.55,-56.47C1403.82,-44.76 1594.48,-24.12 1676.47,-15.25"/>
<polygon fill="midnightblue" stroke="midnightblue" points="1677.04,-18.71 1686.6,-14.15 1676.29,-11.75 1677.04,-18.71"/>
</g>
<!-- Node13&#45;&gt;Node11 -->
<g id="edge15" class="edge">
<title>Node13&#45;&gt;Node11</title>
<path fill="none" stroke="midnightblue" d="M566.59,-117.98C556.56,-115.91 545.78,-113.78 535.76,-112 457.26,-98.05 366.8,-85.01 305.3,-76.59"/>
<polygon fill="midnightblue" stroke="midnightblue" points="305.69,-73.11 295.31,-75.23 304.74,-80.05 305.69,-73.11"/>
</g>
<!-- Node15&#45;&gt;Node4 -->
<g id="edge18" class="edge">
<title>Node15&#45;&gt;Node4</title>
<path fill="none" stroke="midnightblue" d="M432.28,-117.94C422.68,-115.87 412.36,-113.75 402.76,-112 349.27,-102.24 196.26,-117.18 160.76,-76 148.62,-61.92 160.44,-41.62 172.04,-27.46"/>
<polygon fill="midnightblue" stroke="midnightblue" points="174.68,-29.75 178.65,-19.93 169.42,-25.13 174.68,-29.75"/>
</g>
<!-- Node16&#45;&gt;Node6 -->
<g id="edge39" class="edge">
<title>Node16&#45;&gt;Node6</title>
<path fill="none" stroke="midnightblue" d="M1065.51,-185.62C1247.35,-179.9 1674.91,-164.25 1697.76,-143 1728.86,-114.08 1724.6,-58.73 1719.71,-29.75"/>
<polygon fill="midnightblue" stroke="midnightblue" points="1723.11,-28.9 1717.81,-19.73 1716.23,-30.2 1723.11,-28.9"/>
</g>
<!-- Node16&#45;&gt;Node13 -->
<g id="edge23" class="edge">
<title>Node16&#45;&gt;Node13</title>
<path fill="none" stroke="midnightblue" d="M921.75,-179.5C860.18,-170.99 763.85,-157.18 680.76,-143 673.39,-141.74 665.64,-140.34 658.02,-138.91"/>
<polygon fill="midnightblue" stroke="midnightblue" points="658.61,-135.46 648.14,-137.03 657.31,-142.34 658.61,-135.46"/>
</g>
<!-- Node16&#45;&gt;Node14 -->
<g id="edge36" class="edge">
<title>Node16&#45;&gt;Node14</title>
<path fill="none" stroke="midnightblue" d="M904.01,-184.21C791.42,-178.36 580.98,-165.41 402.76,-143 393.48,-141.83 383.67,-140.35 374.16,-138.77"/>
<polygon fill="midnightblue" stroke="midnightblue" points="374.45,-135.27 364,-137.04 373.27,-142.17 374.45,-135.27"/>
</g>
<!-- Node16&#45;&gt;Node15 -->
<g id="edge37" class="edge">
<title>Node16&#45;&gt;Node15</title>
<path fill="none" stroke="midnightblue" d="M904.1,-182.76C813.94,-176.24 663.8,-163.41 535.76,-143 528.98,-141.92 521.86,-140.58 514.91,-139.15"/>
<polygon fill="midnightblue" stroke="midnightblue" points="515.4,-135.68 504.89,-137.01 513.94,-142.52 515.4,-135.68"/>
</g>
<!-- Node17 -->
<g id="node17" class="node">
<title>Node17</title>
<g id="a_node17"><a xlink:href="Line_8hpp.html" target="_top" xlink:title=" ">
<polygon fill="white" stroke="black" points="1136.76,-118 1136.76,-137 1296.76,-137 1296.76,-118 1136.76,-118"/>
<text text-anchor="middle" x="1216.76" y="-125" font-family="Helvetica,sans-Serif" font-size="10.00">Common/Drawables/Line.hpp</text>
</a>
</g>
</g>
<!-- Node16&#45;&gt;Node17 -->
<g id="edge24" class="edge">
<title>Node16&#45;&gt;Node17</title>
<path fill="none" stroke="midnightblue" d="M1018,-179.48C1059,-168.96 1128.79,-151.06 1173.81,-139.51"/>
<polygon fill="midnightblue" stroke="midnightblue" points="1174.76,-142.88 1183.58,-137.01 1173.02,-136.1 1174.76,-142.88"/>
</g>
<!-- Node18 -->
<g id="node18" class="node">
<title>Node18</title>
<g id="a_node18"><a xlink:href="Rectangle_8hpp.html" target="_top" xlink:title=" ">
<polygon fill="white" stroke="black" points="1314.76,-118 1314.76,-137 1502.76,-137 1502.76,-118 1314.76,-118"/>
<text text-anchor="middle" x="1408.76" y="-125" font-family="Helvetica,sans-Serif" font-size="10.00">Common/Drawables/Rectangle.hpp</text>
</a>
</g>
</g>
<!-- Node16&#45;&gt;Node18 -->
<g id="edge26" class="edge">
<title>Node16&#45;&gt;Node18</title>
<path fill="none" stroke="midnightblue" d="M1045.7,-179.47C1110.27,-170.42 1215.2,-155.72 1305.76,-143 1316.3,-141.52 1327.45,-139.95 1338.36,-138.41"/>
<polygon fill="midnightblue" stroke="midnightblue" points="1338.89,-141.88 1348.3,-137.02 1337.91,-134.94 1338.89,-141.88"/>
</g>
<!-- Node19 -->
<g id="node19" class="node">
<title>Node19</title>
<g id="a_node19"><a xlink:href="Circle_8hpp.html" target="_top" xlink:title=" ">
<polygon fill="white" stroke="black" points="1521.26,-118 1521.26,-137 1688.26,-137 1688.26,-118 1521.26,-118"/>
<text text-anchor="middle" x="1604.76" y="-125" font-family="Helvetica,sans-Serif" font-size="10.00">Common/Drawables/Circle.hpp</text>
</a>
</g>
</g>
<!-- Node16&#45;&gt;Node19 -->
<g id="edge28" class="edge">
<title>Node16&#45;&gt;Node19</title>
<path fill="none" stroke="midnightblue" d="M1065.29,-182.87C1168.82,-175.87 1354.04,-162.01 1511.76,-143 1522.21,-141.74 1533.29,-140.2 1544.02,-138.59"/>
<polygon fill="midnightblue" stroke="midnightblue" points="1544.81,-142.01 1554.16,-137.04 1543.75,-135.09 1544.81,-142.01"/>
</g>
<!-- Node20 -->
<g id="node20" class="node">
<title>Node20</title>
<g id="a_node20"><a xlink:href="Sprite_8hpp.html" target="_top" xlink:title=" ">
<polygon fill="white" stroke="black" points="900.76,-118 900.76,-137 1068.76,-137 1068.76,-118 900.76,-118"/>
<text text-anchor="middle" x="984.76" y="-125" font-family="Helvetica,sans-Serif" font-size="10.00">Common/Drawables/Sprite.hpp</text>
</a>
</g>
</g>
<!-- Node16&#45;&gt;Node20 -->
<g id="edge30" class="edge">
<title>Node16&#45;&gt;Node20</title>
<path fill="none" stroke="midnightblue" d="M984.76,-179.48C984.76,-171.08 984.76,-157.98 984.76,-147.16"/>
<polygon fill="midnightblue" stroke="midnightblue" points="988.26,-147.01 984.76,-137.01 981.26,-147.01 988.26,-147.01"/>
</g>
<!-- Node21 -->
<g id="node21" class="node">
<title>Node21</title>
<g id="a_node21"><a xlink:href="Text_8hpp.html" target="_top" xlink:title=" ">
<polygon fill="white" stroke="black" points="722.76,-118 722.76,-137 882.76,-137 882.76,-118 722.76,-118"/>
<text text-anchor="middle" x="802.76" y="-125" font-family="Helvetica,sans-Serif" font-size="10.00">Common/Drawables/Text.hpp</text>
</a>
</g>
</g>
<!-- Node16&#45;&gt;Node21 -->
<g id="edge33" class="edge">
<title>Node16&#45;&gt;Node21</title>
<path fill="none" stroke="midnightblue" d="M958.68,-179.48C927.19,-169.18 874.06,-151.81 838.7,-140.25"/>
<polygon fill="midnightblue" stroke="midnightblue" points="839.38,-136.79 828.78,-137.01 837.2,-143.44 839.38,-136.79"/>
</g>
<!-- Node22 -->
<g id="node22" class="node">
<title>Node22</title>
<g id="a_node22"><a xlink:title=" ">
<polygon fill="white" stroke="#bfbfbf" points="1086.76,-118 1086.76,-137 1118.76,-137 1118.76,-118 1086.76,-118"/>
<text text-anchor="middle" x="1102.76" y="-125" font-family="Helvetica,sans-Serif" font-size="10.00">list</text>
</a>
</g>
</g>
<!-- Node16&#45;&gt;Node22 -->
<g id="edge38" class="edge">
<title>Node16&#45;&gt;Node22</title>
<path fill="none" stroke="midnightblue" d="M1003.49,-179.44C1022.42,-170.67 1052.41,-156.46 1077.76,-143 1078.3,-142.71 1078.84,-142.42 1079.39,-142.12"/>
<polygon fill="midnightblue" stroke="midnightblue" points="1081.31,-145.06 1088.32,-137.12 1077.88,-138.96 1081.31,-145.06"/>
</g>
<!-- Node17&#45;&gt;Node12 -->
<g id="edge25" class="edge">
<title>Node17&#45;&gt;Node12</title>
<path fill="none" stroke="midnightblue" d="M1216.76,-117.98C1216.76,-109.58 1216.76,-96.48 1216.76,-85.66"/>
<polygon fill="midnightblue" stroke="midnightblue" points="1220.26,-85.51 1216.76,-75.51 1213.26,-85.51 1220.26,-85.51"/>
</g>
<!-- Node18&#45;&gt;Node12 -->
<g id="edge27" class="edge">
<title>Node18&#45;&gt;Node12</title>
<path fill="none" stroke="midnightblue" d="M1381.25,-117.98C1347.88,-107.64 1291.49,-90.16 1254.19,-78.6"/>
<polygon fill="midnightblue" stroke="midnightblue" points="1254.8,-75.13 1244.21,-75.51 1252.73,-81.81 1254.8,-75.13"/>
</g>
<!-- Node19&#45;&gt;Node12 -->
<g id="edge29" class="edge">
<title>Node19&#45;&gt;Node12</title>
<path fill="none" stroke="midnightblue" d="M1550.18,-117.96C1537.56,-115.99 1524.19,-113.92 1511.76,-112 1433.22,-99.89 1342.9,-86.14 1283.11,-77.06"/>
<polygon fill="midnightblue" stroke="midnightblue" points="1283.46,-73.57 1273.04,-75.53 1282.4,-80.49 1283.46,-73.57"/>
</g>
<!-- Node20&#45;&gt;Node4 -->
<g id="edge32" class="edge">
<title>Node20&#45;&gt;Node4</title>
<path fill="none" stroke="midnightblue" d="M930.68,-117.95C917.92,-115.97 904.36,-113.89 891.76,-112 632.85,-73.25 319.9,-29.4 220.02,-15.49"/>
<polygon fill="midnightblue" stroke="midnightblue" points="220.35,-12 209.96,-14.09 219.39,-18.93 220.35,-12"/>
</g>
<!-- Node20&#45;&gt;Node12 -->
<g id="edge31" class="edge">
<title>Node20&#45;&gt;Node12</title>
<path fill="none" stroke="midnightblue" d="M1018,-117.98C1059,-107.46 1128.79,-89.56 1173.81,-78.01"/>
<polygon fill="midnightblue" stroke="midnightblue" points="1174.76,-81.38 1183.58,-75.51 1173.02,-74.6 1174.76,-81.38"/>
</g>
<!-- Node21&#45;&gt;Node4 -->
<g id="edge35" class="edge">
<title>Node21&#45;&gt;Node4</title>
<path fill="none" stroke="midnightblue" d="M757.28,-117.96C638.66,-95.68 321.92,-36.2 219.9,-17.04"/>
<polygon fill="midnightblue" stroke="midnightblue" points="220.37,-13.56 209.89,-15.16 219.08,-20.44 220.37,-13.56"/>
</g>
<!-- Node21&#45;&gt;Node12 -->
<g id="edge34" class="edge">
<title>Node21&#45;&gt;Node12</title>
<path fill="none" stroke="midnightblue" d="M854.02,-117.93C866.37,-115.93 879.53,-113.84 891.76,-112 977.3,-99.11 1075.73,-85.68 1141.65,-76.88"/>
<polygon fill="midnightblue" stroke="midnightblue" points="1142.49,-80.3 1151.94,-75.51 1141.57,-73.36 1142.49,-80.3"/>
</g>
<!-- Node23&#45;&gt;Node6 -->
<g id="edge45" class="edge">
<title>Node23&#45;&gt;Node6</title>
<path fill="none" stroke="midnightblue" d="M1490.34,-187.7C1563.79,-186.12 1699.51,-178.36 1729.76,-143 1757.25,-110.86 1738.12,-56.95 1725.09,-29.01"/>
<polygon fill="midnightblue" stroke="midnightblue" points="1728.06,-27.11 1720.51,-19.67 1721.77,-30.19 1728.06,-27.11"/>
</g>
<!-- Node23&#45;&gt;Node11 -->
<g id="edge42" class="edge">
<title>Node23&#45;&gt;Node11</title>
<path fill="none" stroke="midnightblue" d="M1395.18,-186.72C1243.41,-182.41 777.05,-167.3 713.76,-143 693.09,-135.06 695.26,-120.35 674.76,-112 609.7,-85.52 413.5,-73.94 305.68,-69.46"/>
<polygon fill="midnightblue" stroke="midnightblue" points="305.67,-65.96 295.53,-69.05 305.38,-72.96 305.67,-65.96"/>
</g>
<!-- Node23&#45;&gt;Node13 -->
<g id="edge41" class="edge">
<title>Node23&#45;&gt;Node13</title>
<path fill="none" stroke="midnightblue" d="M1394.85,-187.36C1274.4,-185.29 949.32,-176.74 680.76,-143 672.24,-141.93 663.25,-140.48 654.55,-138.9"/>
<polygon fill="midnightblue" stroke="midnightblue" points="655,-135.42 644.53,-137.01 653.7,-142.3 655,-135.42"/>
</g>
<!-- Node24 -->
<g id="node24" class="node">
<title>Node24</title>
<g id="a_node24"><a xlink:href="InvalidLibraryException_8hpp.html" target="_top" xlink:title=" ">
<polygon fill="white" stroke="black" points="1849.76,-112.5 1849.76,-142.5 1989.76,-142.5 1989.76,-112.5 1849.76,-112.5"/>
<text text-anchor="start" x="1857.76" y="-130.5" font-family="Helvetica,sans-Serif" font-size="10.00">Exceptions/InvalidLibrary</text>
<text text-anchor="middle" x="1919.76" y="-119.5" font-family="Helvetica,sans-Serif" font-size="10.00">Exception.hpp</text>
</a>
</g>
</g>
<!-- Node23&#45;&gt;Node24 -->
<g id="edge43" class="edge">
<title>Node23&#45;&gt;Node24</title>
<path fill="none" stroke="midnightblue" d="M1490.37,-183.69C1563.35,-176.84 1707.45,-162.4 1839.68,-143.1"/>
<polygon fill="midnightblue" stroke="midnightblue" points="1840.2,-146.56 1849.59,-141.64 1839.18,-139.63 1840.2,-146.56"/>
</g>
<!-- Node26 -->
<g id="node26" class="node">
<title>Node26</title>
<g id="a_node26"><a xlink:title=" ">
<polygon fill="white" stroke="#bfbfbf" points="1781.76,-118 1781.76,-137 1831.76,-137 1831.76,-118 1781.76,-118"/>
<text text-anchor="middle" x="1806.76" y="-125" font-family="Helvetica,sans-Serif" font-size="10.00">dlfcn.h</text>
</a>
</g>
</g>
<!-- Node23&#45;&gt;Node26 -->
<g id="edge46" class="edge">
<title>Node23&#45;&gt;Node26</title>
<path fill="none" stroke="midnightblue" d="M1490.47,-184.67C1554.38,-179.47 1670.95,-167.38 1767.76,-143 1770.74,-142.25 1773.81,-141.34 1776.86,-140.36"/>
<polygon fill="midnightblue" stroke="midnightblue" points="1778.09,-143.64 1786.38,-137.03 1775.78,-137.03 1778.09,-143.64"/>
</g>
<!-- Node25 -->
<g id="node25" class="node">
<title>Node25</title>
<g id="a_node25"><a xlink:title=" ">
<polygon fill="white" stroke="#bfbfbf" points="1887.26,-56.5 1887.26,-75.5 1952.26,-75.5 1952.26,-56.5 1887.26,-56.5"/>
<text text-anchor="middle" x="1919.76" y="-63.5" font-family="Helvetica,sans-Serif" font-size="10.00">stdexcept</text>
</a>
</g>
</g>
<!-- Node24&#45;&gt;Node25 -->
<g id="edge44" class="edge">
<title>Node24&#45;&gt;Node25</title>
<path fill="none" stroke="midnightblue" d="M1919.76,-112.4C1919.76,-104.47 1919.76,-94.46 1919.76,-85.86"/>
<polygon fill="midnightblue" stroke="midnightblue" points="1923.26,-85.66 1919.76,-75.66 1916.26,-85.66 1923.26,-85.66"/>
</g>
</g>
</svg>
