<?xml version="1.0" encoding="UTF-8" standalone="no"?>
<!DOCTYPE svg PUBLIC "-//W3C//DTD SVG 1.1//EN"
 "http://www.w3.org/Graphics/SVG/1.1/DTD/svg11.dtd">
<!-- Generated by graphviz version 2.43.0 (0)
 -->
<!-- Title: sources/Games/Menu/Menu.hpp Pages: 1 -->
<svg width="2048pt" height="330pt"
 viewBox="0.00 0.00 2048.22 330.00" xmlns="http://www.w3.org/2000/svg" xmlns:xlink="http://www.w3.org/1999/xlink">
<g id="graph0" class="graph" transform="scale(1 1) rotate(0) translate(4 326)">
<title>sources/Games/Menu/Menu.hpp</title>
<polygon fill="white" stroke="transparent" points="-4,4 -4,-326 2044.22,-326 2044.22,4 -4,4"/>
<!-- Node1 -->
<g id="node1" class="node">
<title>Node1</title>
<g id="a_node1"><a xlink:title=" ">
<polygon fill="#bfbfbf" stroke="black" points="499.35,-291.5 499.35,-321.5 621.35,-321.5 621.35,-291.5 499.35,-291.5"/>
<text text-anchor="start" x="507.35" y="-309.5" font-family="Helvetica,sans-Serif" font-size="10.00">sources/Games/Menu</text>
<text text-anchor="middle" x="560.35" y="-298.5" font-family="Helvetica,sans-Serif" font-size="10.00">/Menu.hpp</text>
</a>
</g>
</g>
<!-- Node2 -->
<g id="node2" class="node">
<title>Node2</title>
<g id="a_node2"><a xlink:href="Runner_8hpp.html" target="_top" xlink:title=" ">
<polygon fill="white" stroke="black" points="763.35,-235.5 763.35,-254.5 897.35,-254.5 897.35,-235.5 763.35,-235.5"/>
<text text-anchor="middle" x="830.35" y="-242.5" font-family="Helvetica,sans-Serif" font-size="10.00">Core/Runner/Runner.hpp</text>
</a>
</g>
</g>
<!-- Node1&#45;&gt;Node2 -->
<g id="edge1" class="edge">
<title>Node1&#45;&gt;Node2</title>
<path fill="none" stroke="midnightblue" d="M621.61,-292C670.07,-281.32 736.81,-266.61 781.66,-256.73"/>
<polygon fill="midnightblue" stroke="midnightblue" points="782.43,-260.14 791.44,-254.57 780.92,-253.31 782.43,-260.14"/>
</g>
<!-- Node9 -->
<g id="node9" class="node">
<title>Node9</title>
<g id="a_node9"><a xlink:href="IGameModule_8hpp.html" target="_top" xlink:title=" ">
<polygon fill="white" stroke="black" points="177.85,-179.5 177.85,-198.5 330.85,-198.5 330.85,-179.5 177.85,-179.5"/>
<text text-anchor="middle" x="254.35" y="-186.5" font-family="Helvetica,sans-Serif" font-size="10.00">Common/IGameModule.hpp</text>
</a>
</g>
</g>
<!-- Node1&#45;&gt;Node9 -->
<g id="edge47" class="edge">
<title>Node1&#45;&gt;Node9</title>
<path fill="none" stroke="midnightblue" d="M523.13,-291.45C462.58,-268.6 343.76,-223.75 286.58,-202.17"/>
<polygon fill="midnightblue" stroke="midnightblue" points="287.57,-198.8 276.98,-198.54 285.1,-205.35 287.57,-198.8"/>
</g>
<!-- Node3 -->
<g id="node3" class="node">
<title>Node3</title>
<g id="a_node3"><a xlink:title=" ">
<polygon fill="white" stroke="#bfbfbf" points="680.35,-0.5 680.35,-19.5 724.35,-19.5 724.35,-0.5 680.35,-0.5"/>
<text text-anchor="middle" x="702.35" y="-7.5" font-family="Helvetica,sans-Serif" font-size="10.00">string</text>
</a>
</g>
</g>
<!-- Node2&#45;&gt;Node3 -->
<g id="edge2" class="edge">
<title>Node2&#45;&gt;Node3</title>
<path fill="none" stroke="midnightblue" d="M798.15,-235.48C778.82,-228.71 755.35,-217.28 741.35,-199 702.02,-147.66 699.9,-66.16 701.18,-29.7"/>
<polygon fill="midnightblue" stroke="midnightblue" points="704.69,-29.7 701.67,-19.54 697.69,-29.36 704.69,-29.7"/>
</g>
<!-- Node4 -->
<g id="node4" class="node">
<title>Node4</title>
<g id="a_node4"><a xlink:title=" ">
<polygon fill="white" stroke="#bfbfbf" points="15.85,-118 15.85,-137 62.85,-137 62.85,-118 15.85,-118"/>
<text text-anchor="middle" x="39.35" y="-125" font-family="Helvetica,sans-Serif" font-size="10.00">vector</text>
</a>
</g>
</g>
<!-- Node2&#45;&gt;Node4 -->
<g id="edge3" class="edge">
<title>Node2&#45;&gt;Node4</title>
<path fill="none" stroke="midnightblue" d="M763.14,-243.08C617.79,-240.51 278.44,-231.14 168.35,-199 126.85,-186.89 83.8,-159.95 59.41,-143.1"/>
<polygon fill="midnightblue" stroke="midnightblue" points="61.21,-140.08 51.02,-137.19 57.18,-145.81 61.21,-140.08"/>
</g>
<!-- Node5 -->
<g id="node5" class="node">
<title>Node5</title>
<g id="a_node5"><a xlink:title=" ">
<polygon fill="white" stroke="#bfbfbf" points="1713.35,-0.5 1713.35,-19.5 1771.35,-19.5 1771.35,-0.5 1713.35,-0.5"/>
<text text-anchor="middle" x="1742.35" y="-7.5" font-family="Helvetica,sans-Serif" font-size="10.00">memory</text>
</a>
</g>
</g>
<!-- Node2&#45;&gt;Node5 -->
<g id="edge4" class="edge">
<title>Node2&#45;&gt;Node5</title>
<path fill="none" stroke="midnightblue" d="M897.36,-243.58C1138.24,-241.36 1949.96,-227.63 2025.35,-143 2098.94,-60.38 1875.31,-25.6 1781.6,-14.89"/>
<polygon fill="midnightblue" stroke="midnightblue" points="1781.96,-11.41 1771.63,-13.78 1781.19,-18.36 1781.96,-11.41"/>
</g>
<!-- Node6 -->
<g id="node6" class="node">
<title>Node6</title>
<g id="a_node6"><a xlink:title=" ">
<polygon fill="white" stroke="#bfbfbf" points="929.35,-179.5 929.35,-198.5 967.35,-198.5 967.35,-179.5 929.35,-179.5"/>
<text text-anchor="middle" x="948.35" y="-186.5" font-family="Helvetica,sans-Serif" font-size="10.00">map</text>
</a>
</g>
</g>
<!-- Node2&#45;&gt;Node6 -->
<g id="edge5" class="edge">
<title>Node2&#45;&gt;Node6</title>
<path fill="none" stroke="midnightblue" d="M849.04,-235.44C868.29,-226.64 898.5,-212.81 920.55,-202.72"/>
<polygon fill="midnightblue" stroke="midnightblue" points="922.1,-205.86 929.74,-198.52 919.19,-199.5 922.1,-205.86"/>
</g>
<!-- Node7 -->
<g id="node7" class="node">
<title>Node7</title>
<g id="a_node7"><a xlink:title=" ">
<polygon fill="white" stroke="#bfbfbf" points="985.85,-179.5 985.85,-198.5 1050.85,-198.5 1050.85,-179.5 985.85,-179.5"/>
<text text-anchor="middle" x="1018.35" y="-186.5" font-family="Helvetica,sans-Serif" font-size="10.00">functional</text>
</a>
</g>
</g>
<!-- Node2&#45;&gt;Node7 -->
<g id="edge6" class="edge">
<title>Node2&#45;&gt;Node7</title>
<path fill="none" stroke="midnightblue" d="M860.14,-235.44C892.18,-226.24 943.28,-211.56 978.7,-201.39"/>
<polygon fill="midnightblue" stroke="midnightblue" points="980.05,-204.64 988.7,-198.52 978.12,-197.91 980.05,-204.64"/>
</g>
<!-- Node8 -->
<g id="node8" class="node">
<title>Node8</title>
<g id="a_node8"><a xlink:title=" ">
<polygon fill="white" stroke="#bfbfbf" points="1068.85,-179.5 1068.85,-198.5 1123.85,-198.5 1123.85,-179.5 1068.85,-179.5"/>
<text text-anchor="middle" x="1096.35" y="-186.5" font-family="Helvetica,sans-Serif" font-size="10.00">fstream</text>
</a>
</g>
</g>
<!-- Node2&#45;&gt;Node8 -->
<g id="edge7" class="edge">
<title>Node2&#45;&gt;Node8</title>
<path fill="none" stroke="midnightblue" d="M877.63,-235.49C922.05,-227.33 990.6,-214.31 1058.47,-199.34"/>
<polygon fill="midnightblue" stroke="midnightblue" points="1059.47,-202.7 1068.47,-197.12 1057.95,-195.87 1059.47,-202.7"/>
</g>
<!-- Node2&#45;&gt;Node9 -->
<g id="edge8" class="edge">
<title>Node2&#45;&gt;Node9</title>
<path fill="none" stroke="midnightblue" d="M763.14,-237.7C658.58,-227.9 456.95,-208.99 341.39,-198.16"/>
<polygon fill="midnightblue" stroke="midnightblue" points="341.45,-194.65 331.17,-197.2 340.8,-201.62 341.45,-194.65"/>
</g>
<!-- Node10 -->
<g id="node10" class="node">
<title>Node10</title>
<g id="a_node10"><a xlink:href="ModInfo_8hpp.html" target="_top" xlink:title=" ">
<polygon fill="white" stroke="black" points="529.85,-56.5 529.85,-75.5 654.85,-75.5 654.85,-56.5 529.85,-56.5"/>
<text text-anchor="middle" x="592.35" y="-63.5" font-family="Helvetica,sans-Serif" font-size="10.00">Common/ModInfo.hpp</text>
</a>
</g>
</g>
<!-- Node2&#45;&gt;Node10 -->
<g id="edge46" class="edge">
<title>Node2&#45;&gt;Node10</title>
<path fill="none" stroke="midnightblue" d="M763.17,-243.23C609.63,-240.92 236.98,-231.99 116.35,-199 63.43,-184.53 35.02,-189.77 6.35,-143 -0.85,-131.25 -3.02,-122.11 6.35,-112 40.54,-75.08 369.99,-68.34 519.36,-67.19"/>
<polygon fill="midnightblue" stroke="midnightblue" points="519.82,-70.69 529.8,-67.12 519.77,-63.69 519.82,-70.69"/>
</g>
<!-- Node15 -->
<g id="node15" class="node">
<title>Node15</title>
<g id="a_node15"><a xlink:href="IDisplayModule_8hpp.html" target="_top" xlink:title=" ">
<polygon fill="white" stroke="black" points="749.85,-179.5 749.85,-198.5 910.85,-198.5 910.85,-179.5 749.85,-179.5"/>
<text text-anchor="middle" x="830.35" y="-186.5" font-family="Helvetica,sans-Serif" font-size="10.00">Common/IDisplayModule.hpp</text>
</a>
</g>
</g>
<!-- Node2&#45;&gt;Node15 -->
<g id="edge21" class="edge">
<title>Node2&#45;&gt;Node15</title>
<path fill="none" stroke="midnightblue" d="M830.35,-235.08C830.35,-228.01 830.35,-217.86 830.35,-208.99"/>
<polygon fill="midnightblue" stroke="midnightblue" points="833.85,-208.75 830.35,-198.75 826.85,-208.75 833.85,-208.75"/>
</g>
<!-- Node22 -->
<g id="node22" class="node">
<title>Node22</title>
<g id="a_node22"><a xlink:href="Library_8hpp.html" target="_top" xlink:title=" ">
<polygon fill="white" stroke="black" points="1437.85,-179.5 1437.85,-198.5 1532.85,-198.5 1532.85,-179.5 1437.85,-179.5"/>
<text text-anchor="middle" x="1485.35" y="-186.5" font-family="Helvetica,sans-Serif" font-size="10.00">Core/Library.hpp</text>
</a>
</g>
</g>
<!-- Node2&#45;&gt;Node22 -->
<g id="edge39" class="edge">
<title>Node2&#45;&gt;Node22</title>
<path fill="none" stroke="midnightblue" d="M897.36,-238.47C1026.15,-227.86 1306.17,-204.77 1427.43,-194.77"/>
<polygon fill="midnightblue" stroke="midnightblue" points="1427.94,-198.24 1437.62,-193.93 1427.37,-191.27 1427.94,-198.24"/>
</g>
<!-- Node9&#45;&gt;Node3 -->
<g id="edge20" class="edge">
<title>Node9&#45;&gt;Node3</title>
<path fill="none" stroke="midnightblue" d="M200.27,-179.47C178.82,-173.15 156.24,-162.14 143.35,-143 135.65,-131.57 134.51,-122.57 143.35,-112 211.5,-30.43 561.26,-14.62 670.02,-11.66"/>
<polygon fill="midnightblue" stroke="midnightblue" points="670.16,-15.16 680.07,-11.4 669.98,-8.16 670.16,-15.16"/>
</g>
<!-- Node9&#45;&gt;Node4 -->
<g id="edge18" class="edge">
<title>Node9&#45;&gt;Node4</title>
<path fill="none" stroke="midnightblue" d="M215.31,-179.44C179.2,-171.21 124.2,-157.84 77.35,-143 74.93,-142.24 72.45,-141.4 69.96,-140.53"/>
<polygon fill="midnightblue" stroke="midnightblue" points="71.09,-137.22 60.5,-137.07 68.69,-143.79 71.09,-137.22"/>
</g>
<!-- Node9&#45;&gt;Node5 -->
<g id="edge19" class="edge">
<title>Node9&#45;&gt;Node5</title>
<path fill="none" stroke="midnightblue" d="M243.79,-179.31C226.58,-164.14 196.19,-132.46 215.35,-112 221.91,-104.99 1464.7,-28.1 1703.07,-13.42"/>
<polygon fill="midnightblue" stroke="midnightblue" points="1703.57,-16.89 1713.34,-12.78 1703.14,-9.91 1703.57,-16.89"/>
</g>
<!-- Node9&#45;&gt;Node10 -->
<g id="edge9" class="edge">
<title>Node9&#45;&gt;Node10</title>
<path fill="none" stroke="midnightblue" d="M208.69,-179.43C188.1,-173.04 165.68,-162 153.35,-143 145.84,-131.44 144.11,-122.23 153.35,-112 177.38,-85.37 401.22,-73.62 519.65,-69.23"/>
<polygon fill="midnightblue" stroke="midnightblue" points="519.86,-72.72 529.72,-68.86 519.6,-65.73 519.86,-72.72"/>
</g>
<!-- Node11 -->
<g id="node11" class="node">
<title>Node11</title>
<g id="a_node11"><a xlink:href="ADrawable_8hpp.html" target="_top" xlink:title=" ">
<polygon fill="white" stroke="black" points="1149.85,-56.5 1149.85,-75.5 1342.85,-75.5 1342.85,-56.5 1149.85,-56.5"/>
<text text-anchor="middle" x="1246.35" y="-63.5" font-family="Helvetica,sans-Serif" font-size="10.00">Common/Drawables/ADrawable.hpp</text>
</a>
</g>
</g>
<!-- Node9&#45;&gt;Node11 -->
<g id="edge11" class="edge">
<title>Node9&#45;&gt;Node11</title>
<path fill="none" stroke="midnightblue" d="M245.86,-179.32C231.76,-163.86 206.8,-131.39 225.35,-112 241,-95.64 880.97,-76.76 1139.58,-69.78"/>
<polygon fill="midnightblue" stroke="midnightblue" points="1139.83,-73.27 1149.74,-69.5 1139.65,-66.27 1139.83,-73.27"/>
</g>
<!-- Node12 -->
<g id="node12" class="node">
<title>Node12</title>
<g id="a_node12"><a xlink:href="Module_8hpp.html" target="_top" xlink:title=" ">
<polygon fill="white" stroke="black" points="533.85,-118 533.85,-137 654.85,-137 654.85,-118 533.85,-118"/>
<text text-anchor="middle" x="594.35" y="-125" font-family="Helvetica,sans-Serif" font-size="10.00">Common/Module.hpp</text>
</a>
</g>
</g>
<!-- Node9&#45;&gt;Node12 -->
<g id="edge13" class="edge">
<title>Node9&#45;&gt;Node12</title>
<path fill="none" stroke="midnightblue" d="M310,-179.47C364.87,-170.89 451.05,-156.97 525.35,-143 531.66,-141.81 538.29,-140.5 544.83,-139.17"/>
<polygon fill="midnightblue" stroke="midnightblue" points="545.91,-142.52 555,-137.07 544.49,-135.67 545.91,-142.52"/>
</g>
<!-- Node13 -->
<g id="node13" class="node">
<title>Node13</title>
<g id="a_node13"><a xlink:href="Event_8hpp.html" target="_top" xlink:title=" ">
<polygon fill="white" stroke="black" points="366.85,-118 366.85,-137 515.85,-137 515.85,-118 366.85,-118"/>
<text text-anchor="middle" x="441.35" y="-125" font-family="Helvetica,sans-Serif" font-size="10.00">Common/Events/Event.hpp</text>
</a>
</g>
</g>
<!-- Node9&#45;&gt;Node13 -->
<g id="edge15" class="edge">
<title>Node9&#45;&gt;Node13</title>
<path fill="none" stroke="midnightblue" d="M281.14,-179.48C313.63,-169.14 368.55,-151.66 404.88,-140.1"/>
<polygon fill="midnightblue" stroke="midnightblue" points="406.14,-143.38 414.6,-137.01 404.01,-136.71 406.14,-143.38"/>
</g>
<!-- Node14 -->
<g id="node14" class="node">
<title>Node14</title>
<g id="a_node14"><a xlink:href="Sound_8hpp.html" target="_top" xlink:title=" ">
<polygon fill="white" stroke="black" points="233.85,-118 233.85,-137 348.85,-137 348.85,-118 233.85,-118"/>
<text text-anchor="middle" x="291.35" y="-125" font-family="Helvetica,sans-Serif" font-size="10.00">Common/Sound.hpp</text>
</a>
</g>
</g>
<!-- Node9&#45;&gt;Node14 -->
<g id="edge16" class="edge">
<title>Node9&#45;&gt;Node14</title>
<path fill="none" stroke="midnightblue" d="M259.65,-179.48C265.09,-170.73 273.7,-156.87 280.58,-145.81"/>
<polygon fill="midnightblue" stroke="midnightblue" points="283.75,-147.35 286.05,-137.01 277.8,-143.65 283.75,-147.35"/>
</g>
<!-- Node10&#45;&gt;Node3 -->
<g id="edge10" class="edge">
<title>Node10&#45;&gt;Node3</title>
<path fill="none" stroke="midnightblue" d="M610.02,-56.32C627.74,-47.62 655.25,-34.12 675.63,-24.11"/>
<polygon fill="midnightblue" stroke="midnightblue" points="677.28,-27.2 684.72,-19.65 674.2,-20.92 677.28,-27.2"/>
</g>
<!-- Node11&#45;&gt;Node5 -->
<g id="edge12" class="edge">
<title>Node11&#45;&gt;Node5</title>
<path fill="none" stroke="midnightblue" d="M1324.67,-56.47C1432.04,-44.78 1620.95,-24.22 1702.74,-15.31"/>
<polygon fill="midnightblue" stroke="midnightblue" points="1703.53,-18.75 1713.1,-14.18 1702.78,-11.79 1703.53,-18.75"/>
</g>
<!-- Node12&#45;&gt;Node10 -->
<g id="edge14" class="edge">
<title>Node12&#45;&gt;Node10</title>
<path fill="none" stroke="midnightblue" d="M594.06,-117.98C593.78,-109.58 593.34,-96.48 592.97,-85.66"/>
<polygon fill="midnightblue" stroke="midnightblue" points="596.47,-85.39 592.63,-75.51 589.47,-85.62 596.47,-85.39"/>
</g>
<!-- Node14&#45;&gt;Node3 -->
<g id="edge17" class="edge">
<title>Node14&#45;&gt;Node3</title>
<path fill="none" stroke="midnightblue" d="M327.74,-117.96C337.63,-115.82 348.37,-113.66 358.35,-112 425.88,-100.75 607.05,-113.49 664.35,-76 680.72,-65.29 690.93,-44.88 696.6,-29.78"/>
<polygon fill="midnightblue" stroke="midnightblue" points="700.04,-30.53 699.94,-19.94 693.41,-28.28 700.04,-30.53"/>
</g>
<!-- Node15&#45;&gt;Node5 -->
<g id="edge38" class="edge">
<title>Node15&#45;&gt;Node5</title>
<path fill="none" stroke="midnightblue" d="M911.28,-179.7C914.34,-179.45 917.37,-179.22 920.35,-179 964.89,-175.78 1690.26,-172.99 1723.35,-143 1754.85,-114.45 1750.93,-58.94 1746.2,-29.84"/>
<polygon fill="midnightblue" stroke="midnightblue" points="1749.6,-28.98 1744.36,-19.77 1742.72,-30.24 1749.6,-28.98"/>
</g>
<!-- Node15&#45;&gt;Node12 -->
<g id="edge22" class="edge">
<title>Node15&#45;&gt;Node12</title>
<path fill="none" stroke="midnightblue" d="M796.53,-179.48C754.82,-168.96 683.83,-151.06 638.03,-139.51"/>
<polygon fill="midnightblue" stroke="midnightblue" points="638.65,-136.06 628.1,-137.01 636.94,-142.85 638.65,-136.06"/>
</g>
<!-- Node15&#45;&gt;Node13 -->
<g id="edge35" class="edge">
<title>Node15&#45;&gt;Node13</title>
<path fill="none" stroke="midnightblue" d="M769.52,-179.47C707.91,-170.73 609.91,-156.53 525.35,-143 517.05,-141.67 508.3,-140.22 499.71,-138.76"/>
<polygon fill="midnightblue" stroke="midnightblue" points="500.18,-135.29 489.73,-137.06 499,-142.19 500.18,-135.29"/>
</g>
<!-- Node15&#45;&gt;Node14 -->
<g id="edge36" class="edge">
<title>Node15&#45;&gt;Node14</title>
<path fill="none" stroke="midnightblue" d="M749.81,-183.23C655.57,-176.97 495,-164.23 358.35,-143 351.47,-141.93 344.24,-140.6 337.18,-139.17"/>
<polygon fill="midnightblue" stroke="midnightblue" points="337.52,-135.66 327.01,-137.04 336.08,-142.52 337.52,-135.66"/>
</g>
<!-- Node16 -->
<g id="node16" class="node">
<title>Node16</title>
<g id="a_node16"><a xlink:href="Line_8hpp.html" target="_top" xlink:title=" ">
<polygon fill="white" stroke="black" points="1348.35,-118 1348.35,-137 1508.35,-137 1508.35,-118 1348.35,-118"/>
<text text-anchor="middle" x="1428.35" y="-125" font-family="Helvetica,sans-Serif" font-size="10.00">Common/Drawables/Line.hpp</text>
</a>
</g>
</g>
<!-- Node15&#45;&gt;Node16 -->
<g id="edge23" class="edge">
<title>Node15&#45;&gt;Node16</title>
<path fill="none" stroke="midnightblue" d="M911.29,-179.85C914.35,-179.56 917.38,-179.28 920.35,-179 1106.45,-161.7 1153.86,-166.04 1339.35,-143 1349.25,-141.77 1359.74,-140.25 1369.91,-138.67"/>
<polygon fill="midnightblue" stroke="midnightblue" points="1370.62,-142.1 1379.94,-137.07 1369.52,-135.19 1370.62,-142.1"/>
</g>
<!-- Node17 -->
<g id="node17" class="node">
<title>Node17</title>
<g id="a_node17"><a xlink:href="Rectangle_8hpp.html" target="_top" xlink:title=" ">
<polygon fill="white" stroke="black" points="1526.35,-118 1526.35,-137 1714.35,-137 1714.35,-118 1526.35,-118"/>
<text text-anchor="middle" x="1620.35" y="-125" font-family="Helvetica,sans-Serif" font-size="10.00">Common/Drawables/Rectangle.hpp</text>
</a>
</g>
</g>
<!-- Node15&#45;&gt;Node17 -->
<g id="edge25" class="edge">
<title>Node15&#45;&gt;Node17</title>
<path fill="none" stroke="midnightblue" d="M911.29,-179.75C914.34,-179.49 917.37,-179.24 920.35,-179 1185.31,-157.77 1252.86,-169.55 1517.35,-143 1529.75,-141.75 1542.96,-140.13 1555.63,-138.41"/>
<polygon fill="midnightblue" stroke="midnightblue" points="1556.23,-141.86 1565.65,-137.02 1555.27,-134.93 1556.23,-141.86"/>
</g>
<!-- Node18 -->
<g id="node18" class="node">
<title>Node18</title>
<g id="a_node18"><a xlink:href="Circle_8hpp.html" target="_top" xlink:title=" ">
<polygon fill="white" stroke="black" points="1162.85,-118 1162.85,-137 1329.85,-137 1329.85,-118 1162.85,-118"/>
<text text-anchor="middle" x="1246.35" y="-125" font-family="Helvetica,sans-Serif" font-size="10.00">Common/Drawables/Circle.hpp</text>
</a>
</g>
</g>
<!-- Node15&#45;&gt;Node18 -->
<g id="edge27" class="edge">
<title>Node15&#45;&gt;Node18</title>
<path fill="none" stroke="midnightblue" d="M894.33,-179.47C959.72,-170.66 1064.18,-156.37 1154.35,-143 1163.72,-141.61 1173.63,-140.1 1183.34,-138.59"/>
<polygon fill="midnightblue" stroke="midnightblue" points="1184,-142.03 1193.34,-137.02 1182.92,-135.11 1184,-142.03"/>
</g>
<!-- Node19 -->
<g id="node19" class="node">
<title>Node19</title>
<g id="a_node19"><a xlink:href="Sprite_8hpp.html" target="_top" xlink:title=" ">
<polygon fill="white" stroke="black" points="977.35,-118 977.35,-137 1145.35,-137 1145.35,-118 977.35,-118"/>
<text text-anchor="middle" x="1061.35" y="-125" font-family="Helvetica,sans-Serif" font-size="10.00">Common/Drawables/Sprite.hpp</text>
</a>
</g>
</g>
<!-- Node15&#45;&gt;Node19 -->
<g id="edge29" class="edge">
<title>Node15&#45;&gt;Node19</title>
<path fill="none" stroke="midnightblue" d="M863.44,-179.48C904.27,-168.96 973.75,-151.06 1018.59,-139.51"/>
<polygon fill="midnightblue" stroke="midnightblue" points="1019.5,-142.89 1028.31,-137.01 1017.75,-136.11 1019.5,-142.89"/>
</g>
<!-- Node20 -->
<g id="node20" class="node">
<title>Node20</title>
<g id="a_node20"><a xlink:href="Text_8hpp.html" target="_top" xlink:title=" ">
<polygon fill="white" stroke="black" points="749.35,-118 749.35,-137 909.35,-137 909.35,-118 749.35,-118"/>
<text text-anchor="middle" x="829.35" y="-125" font-family="Helvetica,sans-Serif" font-size="10.00">Common/Drawables/Text.hpp</text>
</a>
</g>
</g>
<!-- Node15&#45;&gt;Node20 -->
<g id="edge32" class="edge">
<title>Node15&#45;&gt;Node20</title>
<path fill="none" stroke="midnightblue" d="M830.2,-179.48C830.06,-171.08 829.84,-157.98 829.66,-147.16"/>
<polygon fill="midnightblue" stroke="midnightblue" points="833.16,-146.95 829.49,-137.01 826.16,-147.07 833.16,-146.95"/>
</g>
<!-- Node21 -->
<g id="node21" class="node">
<title>Node21</title>
<g id="a_node21"><a xlink:title=" ">
<polygon fill="white" stroke="#bfbfbf" points="927.35,-118 927.35,-137 959.35,-137 959.35,-118 927.35,-118"/>
<text text-anchor="middle" x="943.35" y="-125" font-family="Helvetica,sans-Serif" font-size="10.00">list</text>
</a>
</g>
</g>
<!-- Node15&#45;&gt;Node21 -->
<g id="edge37" class="edge">
<title>Node15&#45;&gt;Node21</title>
<path fill="none" stroke="midnightblue" d="M847.69,-179.47C865.54,-170.61 894.09,-156.22 918.35,-143 918.88,-142.71 919.43,-142.41 919.97,-142.11"/>
<polygon fill="midnightblue" stroke="midnightblue" points="921.9,-145.04 928.88,-137.06 918.45,-138.95 921.9,-145.04"/>
</g>
<!-- Node16&#45;&gt;Node11 -->
<g id="edge24" class="edge">
<title>Node16&#45;&gt;Node11</title>
<path fill="none" stroke="midnightblue" d="M1402.27,-117.98C1370.78,-107.68 1317.65,-90.31 1282.29,-78.75"/>
<polygon fill="midnightblue" stroke="midnightblue" points="1282.97,-75.29 1272.37,-75.51 1280.79,-81.94 1282.97,-75.29"/>
</g>
<!-- Node17&#45;&gt;Node11 -->
<g id="edge26" class="edge">
<title>Node17&#45;&gt;Node11</title>
<path fill="none" stroke="midnightblue" d="M1566.76,-117.98C1498.86,-107.17 1381.98,-88.58 1309.72,-77.08"/>
<polygon fill="midnightblue" stroke="midnightblue" points="1310.26,-73.62 1299.83,-75.51 1309.16,-80.54 1310.26,-73.62"/>
</g>
<!-- Node18&#45;&gt;Node11 -->
<g id="edge28" class="edge">
<title>Node18&#45;&gt;Node11</title>
<path fill="none" stroke="midnightblue" d="M1246.35,-117.98C1246.35,-109.58 1246.35,-96.48 1246.35,-85.66"/>
<polygon fill="midnightblue" stroke="midnightblue" points="1249.85,-85.51 1246.35,-75.51 1242.85,-85.51 1249.85,-85.51"/>
</g>
<!-- Node19&#45;&gt;Node3 -->
<g id="edge31" class="edge">
<title>Node19&#45;&gt;Node3</title>
<path fill="none" stroke="midnightblue" d="M1034.66,-117.91C969.76,-97.03 803.93,-43.68 734.1,-21.22"/>
<polygon fill="midnightblue" stroke="midnightblue" points="735.11,-17.86 724.52,-18.13 732.96,-24.53 735.11,-17.86"/>
</g>
<!-- Node19&#45;&gt;Node11 -->
<g id="edge30" class="edge">
<title>Node19&#45;&gt;Node11</title>
<path fill="none" stroke="midnightblue" d="M1087.85,-117.98C1120,-107.64 1174.33,-90.16 1210.27,-78.6"/>
<polygon fill="midnightblue" stroke="midnightblue" points="1211.44,-81.9 1219.89,-75.51 1209.3,-75.24 1211.44,-81.9"/>
</g>
<!-- Node20&#45;&gt;Node3 -->
<g id="edge34" class="edge">
<title>Node20&#45;&gt;Node3</title>
<path fill="none" stroke="midnightblue" d="M819.8,-117.82C798.47,-98.42 746.69,-51.33 719.57,-26.66"/>
<polygon fill="midnightblue" stroke="midnightblue" points="721.76,-23.92 712,-19.78 717.05,-29.1 721.76,-23.92"/>
</g>
<!-- Node20&#45;&gt;Node11 -->
<g id="edge33" class="edge">
<title>Node20&#45;&gt;Node11</title>
<path fill="none" stroke="midnightblue" d="M880.14,-118C892.62,-115.97 905.96,-113.86 918.35,-112 1004.72,-99.04 1104.11,-85.61 1170.64,-76.84"/>
<polygon fill="midnightblue" stroke="midnightblue" points="1171.16,-80.3 1180.62,-75.52 1170.25,-73.36 1171.16,-80.3"/>
</g>
<!-- Node22&#45;&gt;Node5 -->
<g id="edge44" class="edge">
<title>Node22&#45;&gt;Node5</title>
<path fill="none" stroke="midnightblue" d="M1532.86,-187.2C1602.81,-184.91 1728.24,-176.15 1756.35,-143 1783.7,-110.73 1764.63,-56.88 1751.65,-28.98"/>
<polygon fill="midnightblue" stroke="midnightblue" points="1754.62,-27.1 1747.08,-19.66 1748.34,-30.18 1754.62,-27.1"/>
</g>
<!-- Node22&#45;&gt;Node10 -->
<g id="edge41" class="edge">
<title>Node22&#45;&gt;Node10</title>
<path fill="none" stroke="midnightblue" d="M1437.71,-186.26C1284,-180.5 807.28,-161.34 740.35,-143 691.79,-129.7 640.75,-99.28 613.11,-81.22"/>
<polygon fill="midnightblue" stroke="midnightblue" points="614.94,-78.23 604.67,-75.61 611.06,-84.06 614.94,-78.23"/>
</g>
<!-- Node22&#45;&gt;Node12 -->
<g id="edge40" class="edge">
<title>Node22&#45;&gt;Node12</title>
<path fill="none" stroke="midnightblue" d="M1437.77,-186.23C1286.81,-180.47 819.66,-161.59 669.35,-143 660.83,-141.95 651.83,-140.5 643.14,-138.93"/>
<polygon fill="midnightblue" stroke="midnightblue" points="643.59,-135.45 633.11,-137.04 642.29,-142.33 643.59,-135.45"/>
</g>
<!-- Node23 -->
<g id="node23" class="node">
<title>Node23</title>
<g id="a_node23"><a xlink:href="InvalidLibraryException_8hpp.html" target="_top" xlink:title=" ">
<polygon fill="white" stroke="black" points="1808.35,-112.5 1808.35,-142.5 1948.35,-142.5 1948.35,-112.5 1808.35,-112.5"/>
<text text-anchor="start" x="1816.35" y="-130.5" font-family="Helvetica,sans-Serif" font-size="10.00">Exceptions/InvalidLibrary</text>
<text text-anchor="middle" x="1878.35" y="-119.5" font-family="Helvetica,sans-Serif" font-size="10.00">Exception.hpp</text>
</a>
</g>
</g>
<!-- Node22&#45;&gt;Node23 -->
<g id="edge42" class="edge">
<title>Node22&#45;&gt;Node23</title>
<path fill="none" stroke="midnightblue" d="M1533.05,-181.45C1593.8,-173.02 1701.99,-157.69 1794.35,-143 1795.62,-142.8 1796.91,-142.59 1798.2,-142.38"/>
<polygon fill="midnightblue" stroke="midnightblue" points="1798.94,-145.81 1808.24,-140.74 1797.81,-138.9 1798.94,-145.81"/>
</g>
<!-- Node25 -->
<g id="node25" class="node">
<title>Node25</title>
<g id="a_node25"><a xlink:title=" ">
<polygon fill="white" stroke="#bfbfbf" points="1966.35,-118 1966.35,-137 2016.35,-137 2016.35,-118 1966.35,-118"/>
<text text-anchor="middle" x="1991.35" y="-125" font-family="Helvetica,sans-Serif" font-size="10.00">dlfcn.h</text>
</a>
</g>
</g>
<!-- Node22&#45;&gt;Node25 -->
<g id="edge45" class="edge">
<title>Node22&#45;&gt;Node25</title>
<path fill="none" stroke="midnightblue" d="M1533.06,-188.26C1619.19,-187.67 1805.77,-181.56 1957.35,-143 1959.71,-142.4 1962.12,-141.66 1964.51,-140.83"/>
<polygon fill="midnightblue" stroke="midnightblue" points="1966.02,-143.99 1974.06,-137.09 1963.47,-137.48 1966.02,-143.99"/>
</g>
<!-- Node24 -->
<g id="node24" class="node">
<title>Node24</title>
<g id="a_node24"><a xlink:title=" ">
<polygon fill="white" stroke="#bfbfbf" points="1845.85,-56.5 1845.85,-75.5 1910.85,-75.5 1910.85,-56.5 1845.85,-56.5"/>
<text text-anchor="middle" x="1878.35" y="-63.5" font-family="Helvetica,sans-Serif" font-size="10.00">stdexcept</text>
</a>
</g>
</g>
<!-- Node23&#45;&gt;Node24 -->
<g id="edge43" class="edge">
<title>Node23&#45;&gt;Node24</title>
<path fill="none" stroke="midnightblue" d="M1878.35,-112.4C1878.35,-104.47 1878.35,-94.46 1878.35,-85.86"/>
<polygon fill="midnightblue" stroke="midnightblue" points="1881.85,-85.66 1878.35,-75.66 1874.85,-85.66 1881.85,-85.66"/>
</g>
</g>
</svg>
