<?xml version="1.0" encoding="UTF-8" standalone="no"?>
<!DOCTYPE svg PUBLIC "-//W3C//DTD SVG 1.1//EN"
 "http://www.w3.org/Graphics/SVG/1.1/DTD/svg11.dtd">
<!-- Generated by graphviz version 2.43.0 (0)
 -->
<!-- Title: sources/Games/Menu/Menu.cpp Pages: 1 -->
<svg width="2031pt" height="397pt"
 viewBox="0.00 0.00 2030.53 397.00" xmlns="http://www.w3.org/2000/svg" xmlns:xlink="http://www.w3.org/1999/xlink">
<g id="graph0" class="graph" transform="scale(1 1) rotate(0) translate(4 393)">
<title>sources/Games/Menu/Menu.cpp</title>
<polygon fill="white" stroke="transparent" points="-4,4 -4,-393 2026.53,-393 2026.53,4 -4,4"/>
<!-- Node1 -->
<g id="node1" class="node">
<title>Node1</title>
<g id="a_node1"><a xlink:title=" ">
<polygon fill="#bfbfbf" stroke="black" points="161.5,-358.5 161.5,-388.5 283.5,-388.5 283.5,-358.5 161.5,-358.5"/>
<text text-anchor="start" x="169.5" y="-376.5" font-family="Helvetica,sans-Serif" font-size="10.00">sources/Games/Menu</text>
<text text-anchor="middle" x="222.5" y="-365.5" font-family="Helvetica,sans-Serif" font-size="10.00">/Menu.cpp</text>
</a>
</g>
</g>
<!-- Node2 -->
<g id="node2" class="node">
<title>Node2</title>
<g id="a_node2"><a xlink:href="KeyBoardEvent_8hpp.html" target="_top" xlink:title=" ">
<polygon fill="white" stroke="black" points="0,-235.5 0,-254.5 195,-254.5 195,-235.5 0,-235.5"/>
<text text-anchor="middle" x="97.5" y="-242.5" font-family="Helvetica,sans-Serif" font-size="10.00">Common/Events/KeyBoardEvent.hpp</text>
</a>
</g>
</g>
<!-- Node1&#45;&gt;Node2 -->
<g id="edge1" class="edge">
<title>Node1&#45;&gt;Node2</title>
<path fill="none" stroke="midnightblue" d="M188.36,-358.45C170.87,-349.92 150.21,-337.66 135.5,-322 119.92,-305.42 109.32,-281.24 103.36,-264.63"/>
<polygon fill="midnightblue" stroke="midnightblue" points="106.61,-263.32 100.1,-254.96 99.98,-265.55 106.61,-263.32"/>
</g>
<!-- Node4 -->
<g id="node4" class="node">
<title>Node4</title>
<g id="a_node4"><a xlink:href="MouseClickEvent_8hpp.html" target="_top" xlink:title=" ">
<polygon fill="white" stroke="black" points="144.5,-291.5 144.5,-321.5 300.5,-321.5 300.5,-291.5 144.5,-291.5"/>
<text text-anchor="start" x="152.5" y="-309.5" font-family="Helvetica,sans-Serif" font-size="10.00">Common/Events/MouseClick</text>
<text text-anchor="middle" x="222.5" y="-298.5" font-family="Helvetica,sans-Serif" font-size="10.00">Event.hpp</text>
</a>
</g>
</g>
<!-- Node1&#45;&gt;Node4 -->
<g id="edge3" class="edge">
<title>Node1&#45;&gt;Node4</title>
<path fill="none" stroke="midnightblue" d="M222.5,-358.4C222.5,-350.64 222.5,-340.81 222.5,-331.86"/>
<polygon fill="midnightblue" stroke="midnightblue" points="226,-331.58 222.5,-321.58 219,-331.58 226,-331.58"/>
</g>
<!-- Node5 -->
<g id="node5" class="node">
<title>Node5</title>
<g id="a_node5"><a xlink:href="Menu_8hpp.html" target="_top" xlink:title=" ">
<polygon fill="white" stroke="black" points="333,-297 333,-316 398,-316 398,-297 333,-297"/>
<text text-anchor="middle" x="365.5" y="-304" font-family="Helvetica,sans-Serif" font-size="10.00">Menu.hpp</text>
</a>
</g>
</g>
<!-- Node1&#45;&gt;Node5 -->
<g id="edge5" class="edge">
<title>Node1&#45;&gt;Node5</title>
<path fill="none" stroke="midnightblue" d="M253.53,-358.4C278.51,-347.04 313.32,-331.22 337.46,-320.24"/>
<polygon fill="midnightblue" stroke="midnightblue" points="339.13,-323.33 346.78,-316.01 336.23,-316.96 339.13,-323.33"/>
</g>
<!-- Node3 -->
<g id="node3" class="node">
<title>Node3</title>
<g id="a_node3"><a xlink:href="Event_8hpp.html" target="_top" xlink:title=" ">
<polygon fill="white" stroke="black" points="41,-118 41,-137 190,-137 190,-118 41,-118"/>
<text text-anchor="middle" x="115.5" y="-125" font-family="Helvetica,sans-Serif" font-size="10.00">Common/Events/Event.hpp</text>
</a>
</g>
</g>
<!-- Node2&#45;&gt;Node3 -->
<g id="edge2" class="edge">
<title>Node2&#45;&gt;Node3</title>
<path fill="none" stroke="midnightblue" d="M98.85,-235.32C101.75,-216.76 108.59,-172.84 112.54,-147.47"/>
<polygon fill="midnightblue" stroke="midnightblue" points="116.05,-147.7 114.13,-137.28 109.13,-146.62 116.05,-147.7"/>
</g>
<!-- Node4&#45;&gt;Node3 -->
<g id="edge4" class="edge">
<title>Node4&#45;&gt;Node3</title>
<path fill="none" stroke="midnightblue" d="M220.51,-291.34C218.03,-276.63 212.93,-253.24 203.5,-235 184.82,-198.85 152.26,-163.85 132.41,-144.35"/>
<polygon fill="midnightblue" stroke="midnightblue" points="134.63,-141.62 125,-137.2 129.78,-146.66 134.63,-141.62"/>
</g>
<!-- Node6 -->
<g id="node6" class="node">
<title>Node6</title>
<g id="a_node6"><a xlink:href="Runner_8hpp.html" target="_top" xlink:title=" ">
<polygon fill="white" stroke="black" points="1087.5,-235.5 1087.5,-254.5 1221.5,-254.5 1221.5,-235.5 1087.5,-235.5"/>
<text text-anchor="middle" x="1154.5" y="-242.5" font-family="Helvetica,sans-Serif" font-size="10.00">Core/Runner/Runner.hpp</text>
</a>
</g>
</g>
<!-- Node5&#45;&gt;Node6 -->
<g id="edge6" class="edge">
<title>Node5&#45;&gt;Node6</title>
<path fill="none" stroke="midnightblue" d="M398.4,-303.02C514.79,-294.24 909.14,-264.5 1077.4,-251.81"/>
<polygon fill="midnightblue" stroke="midnightblue" points="1077.71,-255.3 1087.42,-251.06 1077.18,-248.32 1077.71,-255.3"/>
</g>
<!-- Node13 -->
<g id="node13" class="node">
<title>Node13</title>
<g id="a_node13"><a xlink:href="IGameModule_8hpp.html" target="_top" xlink:title=" ">
<polygon fill="white" stroke="black" points="289,-179.5 289,-198.5 442,-198.5 442,-179.5 289,-179.5"/>
<text text-anchor="middle" x="365.5" y="-186.5" font-family="Helvetica,sans-Serif" font-size="10.00">Common/IGameModule.hpp</text>
</a>
</g>
</g>
<!-- Node5&#45;&gt;Node13 -->
<g id="edge52" class="edge">
<title>Node5&#45;&gt;Node13</title>
<path fill="none" stroke="midnightblue" d="M365.5,-296.82C365.5,-278.26 365.5,-234.34 365.5,-208.97"/>
<polygon fill="midnightblue" stroke="midnightblue" points="369,-208.78 365.5,-198.78 362,-208.78 369,-208.78"/>
</g>
<!-- Node7 -->
<g id="node7" class="node">
<title>Node7</title>
<g id="a_node7"><a xlink:title=" ">
<polygon fill="white" stroke="#bfbfbf" points="1476.5,-0.5 1476.5,-19.5 1520.5,-19.5 1520.5,-0.5 1476.5,-0.5"/>
<text text-anchor="middle" x="1498.5" y="-7.5" font-family="Helvetica,sans-Serif" font-size="10.00">string</text>
</a>
</g>
</g>
<!-- Node6&#45;&gt;Node7 -->
<g id="edge7" class="edge">
<title>Node6&#45;&gt;Node7</title>
<path fill="none" stroke="midnightblue" d="M1221.63,-243.76C1381.43,-242.57 1780.61,-235.89 1908.5,-199 1958.19,-184.67 1984.16,-187.51 2010.5,-143 2063.15,-54.03 1927.13,-70.49 1870.5,-56 1747.52,-24.54 1595.88,-14.89 1530.73,-12.09"/>
<polygon fill="midnightblue" stroke="midnightblue" points="1530.8,-8.59 1520.67,-11.68 1530.52,-15.58 1530.8,-8.59"/>
</g>
<!-- Node8 -->
<g id="node8" class="node">
<title>Node8</title>
<g id="a_node8"><a xlink:title=" ">
<polygon fill="white" stroke="#bfbfbf" points="208,-118 208,-137 255,-137 255,-118 208,-118"/>
<text text-anchor="middle" x="231.5" y="-125" font-family="Helvetica,sans-Serif" font-size="10.00">vector</text>
</a>
</g>
</g>
<!-- Node6&#45;&gt;Node8 -->
<g id="edge8" class="edge">
<title>Node6&#45;&gt;Node8</title>
<path fill="none" stroke="midnightblue" d="M1087.33,-243.96C894.61,-243.36 349.19,-238.19 279.5,-199 259.08,-187.52 245.57,-163.31 238.23,-146.49"/>
<polygon fill="midnightblue" stroke="midnightblue" points="241.44,-145.1 234.44,-137.15 234.95,-147.73 241.44,-145.1"/>
</g>
<!-- Node9 -->
<g id="node9" class="node">
<title>Node9</title>
<g id="a_node9"><a xlink:title=" ">
<polygon fill="white" stroke="#bfbfbf" points="719.5,-0.5 719.5,-19.5 777.5,-19.5 777.5,-0.5 719.5,-0.5"/>
<text text-anchor="middle" x="748.5" y="-7.5" font-family="Helvetica,sans-Serif" font-size="10.00">memory</text>
</a>
</g>
</g>
<!-- Node6&#45;&gt;Node9 -->
<g id="edge9" class="edge">
<title>Node6&#45;&gt;Node9</title>
<path fill="none" stroke="midnightblue" d="M1087.19,-243.5C854.78,-241.03 96.61,-226.58 31.5,-143 -54.8,-32.23 547.1,-14.31 709.08,-11.51"/>
<polygon fill="midnightblue" stroke="midnightblue" points="709.16,-15.01 719.1,-11.34 709.05,-8.01 709.16,-15.01"/>
</g>
<!-- Node10 -->
<g id="node10" class="node">
<title>Node10</title>
<g id="a_node10"><a xlink:title=" ">
<polygon fill="white" stroke="#bfbfbf" points="1135.5,-179.5 1135.5,-198.5 1173.5,-198.5 1173.5,-179.5 1135.5,-179.5"/>
<text text-anchor="middle" x="1154.5" y="-186.5" font-family="Helvetica,sans-Serif" font-size="10.00">map</text>
</a>
</g>
</g>
<!-- Node6&#45;&gt;Node10 -->
<g id="edge10" class="edge">
<title>Node6&#45;&gt;Node10</title>
<path fill="none" stroke="midnightblue" d="M1154.5,-235.08C1154.5,-228.01 1154.5,-217.86 1154.5,-208.99"/>
<polygon fill="midnightblue" stroke="midnightblue" points="1158,-208.75 1154.5,-198.75 1151,-208.75 1158,-208.75"/>
</g>
<!-- Node11 -->
<g id="node11" class="node">
<title>Node11</title>
<g id="a_node11"><a xlink:title=" ">
<polygon fill="white" stroke="#bfbfbf" points="1192,-179.5 1192,-198.5 1257,-198.5 1257,-179.5 1192,-179.5"/>
<text text-anchor="middle" x="1224.5" y="-186.5" font-family="Helvetica,sans-Serif" font-size="10.00">functional</text>
</a>
</g>
</g>
<!-- Node6&#45;&gt;Node11 -->
<g id="edge11" class="edge">
<title>Node6&#45;&gt;Node11</title>
<path fill="none" stroke="midnightblue" d="M1165.75,-235.32C1176.3,-227.18 1192.3,-214.84 1204.94,-205.09"/>
<polygon fill="midnightblue" stroke="midnightblue" points="1207.27,-207.71 1213.05,-198.83 1202.99,-202.17 1207.27,-207.71"/>
</g>
<!-- Node12 -->
<g id="node12" class="node">
<title>Node12</title>
<g id="a_node12"><a xlink:title=" ">
<polygon fill="white" stroke="#bfbfbf" points="1275,-179.5 1275,-198.5 1330,-198.5 1330,-179.5 1275,-179.5"/>
<text text-anchor="middle" x="1302.5" y="-186.5" font-family="Helvetica,sans-Serif" font-size="10.00">fstream</text>
</a>
</g>
</g>
<!-- Node6&#45;&gt;Node12 -->
<g id="edge12" class="edge">
<title>Node6&#45;&gt;Node12</title>
<path fill="none" stroke="midnightblue" d="M1177.95,-235.44C1202.63,-226.44 1241.69,-212.19 1269.48,-202.05"/>
<polygon fill="midnightblue" stroke="midnightblue" points="1270.96,-205.23 1279.16,-198.52 1268.56,-198.66 1270.96,-205.23"/>
</g>
<!-- Node6&#45;&gt;Node13 -->
<g id="edge13" class="edge">
<title>Node6&#45;&gt;Node13</title>
<path fill="none" stroke="midnightblue" d="M1087.23,-239.4C944.38,-229.62 610.87,-206.79 452.26,-195.94"/>
<polygon fill="midnightblue" stroke="midnightblue" points="452.29,-192.43 442.07,-195.24 451.81,-199.42 452.29,-192.43"/>
</g>
<!-- Node14 -->
<g id="node14" class="node">
<title>Node14</title>
<g id="a_node14"><a xlink:href="ModInfo_8hpp.html" target="_top" xlink:title=" ">
<polygon fill="white" stroke="black" points="1630,-56.5 1630,-75.5 1755,-75.5 1755,-56.5 1630,-56.5"/>
<text text-anchor="middle" x="1692.5" y="-63.5" font-family="Helvetica,sans-Serif" font-size="10.00">Common/ModInfo.hpp</text>
</a>
</g>
</g>
<!-- Node6&#45;&gt;Node14 -->
<g id="edge51" class="edge">
<title>Node6&#45;&gt;Node14</title>
<path fill="none" stroke="midnightblue" d="M1221.72,-241.93C1369.84,-236.98 1720.38,-223.05 1836.5,-199 1909.04,-183.97 1950.81,-203.55 1993.5,-143 2001.44,-131.74 2002.49,-122.44 1993.5,-112 1986.07,-103.37 1852.1,-85.95 1765.42,-75.5"/>
<polygon fill="midnightblue" stroke="midnightblue" points="1765.7,-72.01 1755.36,-74.29 1764.87,-78.96 1765.7,-72.01"/>
</g>
<!-- Node18 -->
<g id="node18" class="node">
<title>Node18</title>
<g id="a_node18"><a xlink:href="IDisplayModule_8hpp.html" target="_top" xlink:title=" ">
<polygon fill="white" stroke="black" points="956,-179.5 956,-198.5 1117,-198.5 1117,-179.5 956,-179.5"/>
<text text-anchor="middle" x="1036.5" y="-186.5" font-family="Helvetica,sans-Serif" font-size="10.00">Common/IDisplayModule.hpp</text>
</a>
</g>
</g>
<!-- Node6&#45;&gt;Node18 -->
<g id="edge26" class="edge">
<title>Node6&#45;&gt;Node18</title>
<path fill="none" stroke="midnightblue" d="M1135.8,-235.44C1116.56,-226.64 1086.35,-212.81 1064.3,-202.72"/>
<polygon fill="midnightblue" stroke="midnightblue" points="1065.66,-199.5 1055.11,-198.52 1062.75,-205.86 1065.66,-199.5"/>
</g>
<!-- Node25 -->
<g id="node25" class="node">
<title>Node25</title>
<g id="a_node25"><a xlink:href="Library_8hpp.html" target="_top" xlink:title=" ">
<polygon fill="white" stroke="black" points="1732,-179.5 1732,-198.5 1827,-198.5 1827,-179.5 1732,-179.5"/>
<text text-anchor="middle" x="1779.5" y="-186.5" font-family="Helvetica,sans-Serif" font-size="10.00">Core/Library.hpp</text>
</a>
</g>
</g>
<!-- Node6&#45;&gt;Node25 -->
<g id="edge44" class="edge">
<title>Node6&#45;&gt;Node25</title>
<path fill="none" stroke="midnightblue" d="M1221.68,-238.2C1345.02,-227.54 1605.52,-205.03 1721.59,-195"/>
<polygon fill="midnightblue" stroke="midnightblue" points="1722.03,-198.48 1731.7,-194.13 1721.43,-191.5 1722.03,-198.48"/>
</g>
<!-- Node13&#45;&gt;Node3 -->
<g id="edge20" class="edge">
<title>Node13&#45;&gt;Node3</title>
<path fill="none" stroke="midnightblue" d="M329.68,-179.48C285.31,-168.92 209.66,-150.91 161.17,-139.37"/>
<polygon fill="midnightblue" stroke="midnightblue" points="161.79,-135.92 151.25,-137.01 160.17,-142.73 161.79,-135.92"/>
</g>
<!-- Node13&#45;&gt;Node7 -->
<g id="edge25" class="edge">
<title>Node13&#45;&gt;Node7</title>
<path fill="none" stroke="midnightblue" d="M361.49,-179.32C355.03,-163.87 344.55,-131.41 360.5,-112 441.89,-12.93 516.27,-71.85 643.5,-56 962.51,-16.25 1352.74,-11.55 1466.17,-11.04"/>
<polygon fill="midnightblue" stroke="midnightblue" points="1466.28,-14.54 1476.27,-11.01 1466.26,-7.54 1466.28,-14.54"/>
</g>
<!-- Node13&#45;&gt;Node8 -->
<g id="edge23" class="edge">
<title>Node13&#45;&gt;Node8</title>
<path fill="none" stroke="midnightblue" d="M346.3,-179.48C323.71,-169.45 286,-152.7 260,-141.15"/>
<polygon fill="midnightblue" stroke="midnightblue" points="261.22,-137.87 250.66,-137.01 258.38,-144.27 261.22,-137.87"/>
</g>
<!-- Node13&#45;&gt;Node9 -->
<g id="edge24" class="edge">
<title>Node13&#45;&gt;Node9</title>
<path fill="none" stroke="midnightblue" d="M347.11,-179.47C333.4,-172 315.69,-159.71 307.5,-143 290.49,-108.28 281.58,-84.7 307.5,-56 334.18,-26.45 605.86,-15.27 709.04,-12.07"/>
<polygon fill="midnightblue" stroke="midnightblue" points="709.45,-15.56 719.34,-11.76 709.24,-8.56 709.45,-15.56"/>
</g>
<!-- Node13&#45;&gt;Node14 -->
<g id="edge14" class="edge">
<title>Node13&#45;&gt;Node14</title>
<path fill="none" stroke="midnightblue" d="M442.04,-186.32C672.22,-181.04 1348.33,-163.93 1445.5,-143 1481.56,-135.23 1487.49,-123.63 1522.5,-112 1563.37,-98.42 1610.82,-86.14 1645.19,-77.85"/>
<polygon fill="midnightblue" stroke="midnightblue" points="1646.05,-81.25 1654.97,-75.52 1644.43,-74.44 1646.05,-81.25"/>
</g>
<!-- Node15 -->
<g id="node15" class="node">
<title>Node15</title>
<g id="a_node15"><a xlink:href="ADrawable_8hpp.html" target="_top" xlink:title=" ">
<polygon fill="white" stroke="black" points="652,-56.5 652,-75.5 845,-75.5 845,-56.5 652,-56.5"/>
<text text-anchor="middle" x="748.5" y="-63.5" font-family="Helvetica,sans-Serif" font-size="10.00">Common/Drawables/ADrawable.hpp</text>
</a>
</g>
</g>
<!-- Node13&#45;&gt;Node15 -->
<g id="edge16" class="edge">
<title>Node13&#45;&gt;Node15</title>
<path fill="none" stroke="midnightblue" d="M364.04,-179.45C361.88,-163.61 359.89,-129.73 378.5,-112 397.37,-94.02 539.08,-80.85 641.5,-73.55"/>
<polygon fill="midnightblue" stroke="midnightblue" points="641.87,-77.03 651.6,-72.84 641.38,-70.05 641.87,-77.03"/>
</g>
<!-- Node16 -->
<g id="node16" class="node">
<title>Node16</title>
<g id="a_node16"><a xlink:href="Module_8hpp.html" target="_top" xlink:title=" ">
<polygon fill="white" stroke="black" points="1531,-118 1531,-137 1652,-137 1652,-118 1531,-118"/>
<text text-anchor="middle" x="1591.5" y="-125" font-family="Helvetica,sans-Serif" font-size="10.00">Common/Module.hpp</text>
</a>
</g>
</g>
<!-- Node13&#45;&gt;Node16 -->
<g id="edge18" class="edge">
<title>Node13&#45;&gt;Node16</title>
<path fill="none" stroke="midnightblue" d="M442.22,-187.2C623.04,-184.81 1089.96,-175.72 1478.5,-143 1492.83,-141.79 1508.14,-140.1 1522.71,-138.3"/>
<polygon fill="midnightblue" stroke="midnightblue" points="1523.18,-141.77 1532.66,-137.04 1522.3,-134.82 1523.18,-141.77"/>
</g>
<!-- Node17 -->
<g id="node17" class="node">
<title>Node17</title>
<g id="a_node17"><a xlink:href="Sound_8hpp.html" target="_top" xlink:title=" ">
<polygon fill="white" stroke="black" points="1135,-118 1135,-137 1250,-137 1250,-118 1135,-118"/>
<text text-anchor="middle" x="1192.5" y="-125" font-family="Helvetica,sans-Serif" font-size="10.00">Common/Sound.hpp</text>
</a>
</g>
</g>
<!-- Node13&#45;&gt;Node17 -->
<g id="edge21" class="edge">
<title>Node13&#45;&gt;Node17</title>
<path fill="none" stroke="midnightblue" d="M442.2,-187.35C579.74,-185.33 877.18,-177.02 1125.5,-143 1132.8,-142 1140.48,-140.64 1147.94,-139.14"/>
<polygon fill="midnightblue" stroke="midnightblue" points="1148.84,-142.53 1157.91,-137.05 1147.4,-135.68 1148.84,-142.53"/>
</g>
<!-- Node14&#45;&gt;Node7 -->
<g id="edge15" class="edge">
<title>Node14&#45;&gt;Node7</title>
<path fill="none" stroke="midnightblue" d="M1661.76,-56.44C1625.97,-46.48 1567.14,-30.11 1530.73,-19.97"/>
<polygon fill="midnightblue" stroke="midnightblue" points="1531.22,-16.47 1520.65,-17.16 1529.34,-23.22 1531.22,-16.47"/>
</g>
<!-- Node15&#45;&gt;Node9 -->
<g id="edge17" class="edge">
<title>Node15&#45;&gt;Node9</title>
<path fill="none" stroke="midnightblue" d="M748.5,-56.08C748.5,-49.01 748.5,-38.86 748.5,-29.99"/>
<polygon fill="midnightblue" stroke="midnightblue" points="752,-29.75 748.5,-19.75 745,-29.75 752,-29.75"/>
</g>
<!-- Node16&#45;&gt;Node14 -->
<g id="edge19" class="edge">
<title>Node16&#45;&gt;Node14</title>
<path fill="none" stroke="midnightblue" d="M1605.97,-117.98C1622.47,-108.25 1649.68,-92.23 1669.18,-80.74"/>
<polygon fill="midnightblue" stroke="midnightblue" points="1671.22,-83.6 1678.06,-75.51 1667.66,-77.57 1671.22,-83.6"/>
</g>
<!-- Node17&#45;&gt;Node7 -->
<g id="edge22" class="edge">
<title>Node17&#45;&gt;Node7</title>
<path fill="none" stroke="midnightblue" d="M1215.5,-117.82C1269.61,-97.39 1405.06,-46.27 1466.87,-22.94"/>
<polygon fill="midnightblue" stroke="midnightblue" points="1468.36,-26.12 1476.48,-19.31 1465.88,-19.57 1468.36,-26.12"/>
</g>
<!-- Node18&#45;&gt;Node3 -->
<g id="edge40" class="edge">
<title>Node18&#45;&gt;Node3</title>
<path fill="none" stroke="midnightblue" d="M955.92,-186.87C806.25,-184.05 475.36,-174.5 198.5,-143 188.79,-141.9 178.5,-140.38 168.59,-138.74"/>
<polygon fill="midnightblue" stroke="midnightblue" points="168.88,-135.24 158.44,-137.01 167.7,-142.14 168.88,-135.24"/>
</g>
<!-- Node18&#45;&gt;Node9 -->
<g id="edge43" class="edge">
<title>Node18&#45;&gt;Node9</title>
<path fill="none" stroke="midnightblue" d="M1117.13,-179.8C1235.51,-167.67 1442.78,-146.04 1445.5,-143 1454.69,-132.74 1454.52,-122.42 1445.5,-112 1359.12,-12.2 922.68,-8.9 788.08,-10.31"/>
<polygon fill="midnightblue" stroke="midnightblue" points="787.78,-6.82 777.83,-10.44 787.87,-13.81 787.78,-6.82"/>
</g>
<!-- Node18&#45;&gt;Node16 -->
<g id="edge27" class="edge">
<title>Node18&#45;&gt;Node16</title>
<path fill="none" stroke="midnightblue" d="M1117.45,-179.88C1120.51,-179.58 1123.53,-179.29 1126.5,-179 1299.77,-162.34 1344.17,-167.55 1516.5,-143 1524.53,-141.86 1533,-140.43 1541.24,-138.93"/>
<polygon fill="midnightblue" stroke="midnightblue" points="1541.96,-142.35 1551.14,-137.06 1540.67,-135.47 1541.96,-142.35"/>
</g>
<!-- Node18&#45;&gt;Node17 -->
<g id="edge41" class="edge">
<title>Node18&#45;&gt;Node17</title>
<path fill="none" stroke="midnightblue" d="M1058.85,-179.48C1085.49,-169.31 1130.21,-152.26 1160.51,-140.7"/>
<polygon fill="midnightblue" stroke="midnightblue" points="1162.09,-143.84 1170.19,-137.01 1159.6,-137.3 1162.09,-143.84"/>
</g>
<!-- Node19 -->
<g id="node19" class="node">
<title>Node19</title>
<g id="a_node19"><a xlink:href="Line_8hpp.html" target="_top" xlink:title=" ">
<polygon fill="white" stroke="black" points="572.5,-118 572.5,-137 732.5,-137 732.5,-118 572.5,-118"/>
<text text-anchor="middle" x="652.5" y="-125" font-family="Helvetica,sans-Serif" font-size="10.00">Common/Drawables/Line.hpp</text>
</a>
</g>
</g>
<!-- Node18&#45;&gt;Node19 -->
<g id="edge28" class="edge">
<title>Node18&#45;&gt;Node19</title>
<path fill="none" stroke="midnightblue" d="M979.37,-179.46C919.92,-170.53 824.15,-156.04 741.5,-143 732.74,-141.62 723.49,-140.14 714.41,-138.67"/>
<polygon fill="midnightblue" stroke="midnightblue" points="714.69,-135.17 704.25,-137.02 713.56,-142.08 714.69,-135.17"/>
</g>
<!-- Node20 -->
<g id="node20" class="node">
<title>Node20</title>
<g id="a_node20"><a xlink:href="Rectangle_8hpp.html" target="_top" xlink:title=" ">
<polygon fill="white" stroke="black" points="750.5,-118 750.5,-137 938.5,-137 938.5,-118 750.5,-118"/>
<text text-anchor="middle" x="844.5" y="-125" font-family="Helvetica,sans-Serif" font-size="10.00">Common/Drawables/Rectangle.hpp</text>
</a>
</g>
</g>
<!-- Node18&#45;&gt;Node20 -->
<g id="edge30" class="edge">
<title>Node18&#45;&gt;Node20</title>
<path fill="none" stroke="midnightblue" d="M1008.99,-179.48C975.63,-169.14 919.24,-151.66 881.94,-140.1"/>
<polygon fill="midnightblue" stroke="midnightblue" points="882.55,-136.63 871.96,-137.01 880.47,-143.31 882.55,-136.63"/>
</g>
<!-- Node21 -->
<g id="node21" class="node">
<title>Node21</title>
<g id="a_node21"><a xlink:href="Circle_8hpp.html" target="_top" xlink:title=" ">
<polygon fill="white" stroke="black" points="387,-118 387,-137 554,-137 554,-118 387,-118"/>
<text text-anchor="middle" x="470.5" y="-125" font-family="Helvetica,sans-Serif" font-size="10.00">Common/Drawables/Circle.hpp</text>
</a>
</g>
</g>
<!-- Node18&#45;&gt;Node21 -->
<g id="edge32" class="edge">
<title>Node18&#45;&gt;Node21</title>
<path fill="none" stroke="midnightblue" d="M955.99,-181.82C861.74,-174.24 701,-160.24 563.5,-143 553.18,-141.71 542.24,-140.16 531.63,-138.56"/>
<polygon fill="midnightblue" stroke="midnightblue" points="532,-135.08 521.59,-137.03 530.94,-142 532,-135.08"/>
</g>
<!-- Node22 -->
<g id="node22" class="node">
<title>Node22</title>
<g id="a_node22"><a xlink:href="Sprite_8hpp.html" target="_top" xlink:title=" ">
<polygon fill="white" stroke="black" points="1268.5,-118 1268.5,-137 1436.5,-137 1436.5,-118 1268.5,-118"/>
<text text-anchor="middle" x="1352.5" y="-125" font-family="Helvetica,sans-Serif" font-size="10.00">Common/Drawables/Sprite.hpp</text>
</a>
</g>
</g>
<!-- Node18&#45;&gt;Node22 -->
<g id="edge34" class="edge">
<title>Node18&#45;&gt;Node22</title>
<path fill="none" stroke="midnightblue" d="M1081.78,-179.48C1138.68,-168.76 1236.29,-150.38 1297.45,-138.87"/>
<polygon fill="midnightblue" stroke="midnightblue" points="1298.13,-142.3 1307.31,-137.01 1296.83,-135.42 1298.13,-142.3"/>
</g>
<!-- Node23 -->
<g id="node23" class="node">
<title>Node23</title>
<g id="a_node23"><a xlink:href="Text_8hpp.html" target="_top" xlink:title=" ">
<polygon fill="white" stroke="black" points="956.5,-118 956.5,-137 1116.5,-137 1116.5,-118 956.5,-118"/>
<text text-anchor="middle" x="1036.5" y="-125" font-family="Helvetica,sans-Serif" font-size="10.00">Common/Drawables/Text.hpp</text>
</a>
</g>
</g>
<!-- Node18&#45;&gt;Node23 -->
<g id="edge37" class="edge">
<title>Node18&#45;&gt;Node23</title>
<path fill="none" stroke="midnightblue" d="M1036.5,-179.48C1036.5,-171.08 1036.5,-157.98 1036.5,-147.16"/>
<polygon fill="midnightblue" stroke="midnightblue" points="1040,-147.01 1036.5,-137.01 1033,-147.01 1040,-147.01"/>
</g>
<!-- Node24 -->
<g id="node24" class="node">
<title>Node24</title>
<g id="a_node24"><a xlink:title=" ">
<polygon fill="white" stroke="#bfbfbf" points="1670.5,-118 1670.5,-137 1702.5,-137 1702.5,-118 1670.5,-118"/>
<text text-anchor="middle" x="1686.5" y="-125" font-family="Helvetica,sans-Serif" font-size="10.00">list</text>
</a>
</g>
</g>
<!-- Node18&#45;&gt;Node24 -->
<g id="edge42" class="edge">
<title>Node18&#45;&gt;Node24</title>
<path fill="none" stroke="midnightblue" d="M1117.44,-179.78C1120.5,-179.51 1123.53,-179.25 1126.5,-179 1245.24,-169.07 1547.54,-177.8 1661.5,-143 1662.74,-142.62 1663.99,-142.17 1665.22,-141.67"/>
<polygon fill="midnightblue" stroke="midnightblue" points="1666.96,-144.71 1674.3,-137.07 1663.8,-138.47 1666.96,-144.71"/>
</g>
<!-- Node19&#45;&gt;Node15 -->
<g id="edge29" class="edge">
<title>Node19&#45;&gt;Node15</title>
<path fill="none" stroke="midnightblue" d="M666.25,-117.98C681.87,-108.3 707.56,-92.37 726.08,-80.89"/>
<polygon fill="midnightblue" stroke="midnightblue" points="728.12,-83.75 734.77,-75.51 724.43,-77.8 728.12,-83.75"/>
</g>
<!-- Node20&#45;&gt;Node15 -->
<g id="edge31" class="edge">
<title>Node20&#45;&gt;Node15</title>
<path fill="none" stroke="midnightblue" d="M830.75,-117.98C815.13,-108.3 789.44,-92.37 770.92,-80.89"/>
<polygon fill="midnightblue" stroke="midnightblue" points="772.57,-77.8 762.23,-75.51 768.88,-83.75 772.57,-77.8"/>
</g>
<!-- Node21&#45;&gt;Node15 -->
<g id="edge33" class="edge">
<title>Node21&#45;&gt;Node15</title>
<path fill="none" stroke="midnightblue" d="M510.33,-117.98C559.98,-107.35 644.85,-89.18 698.73,-77.65"/>
<polygon fill="midnightblue" stroke="midnightblue" points="699.7,-81.02 708.74,-75.51 698.23,-74.18 699.7,-81.02"/>
</g>
<!-- Node22&#45;&gt;Node7 -->
<g id="edge36" class="edge">
<title>Node22&#45;&gt;Node7</title>
<path fill="none" stroke="midnightblue" d="M1363.47,-117.82C1388.21,-98.25 1448.55,-50.52 1479.5,-26.03"/>
<polygon fill="midnightblue" stroke="midnightblue" points="1481.73,-28.73 1487.4,-19.78 1477.38,-23.24 1481.73,-28.73"/>
</g>
<!-- Node22&#45;&gt;Node15 -->
<g id="edge35" class="edge">
<title>Node22&#45;&gt;Node15</title>
<path fill="none" stroke="midnightblue" d="M1301.91,-117.98C1288.17,-115.84 1273.29,-113.68 1259.5,-112 1120.26,-95.03 958.92,-81.91 855.39,-74.32"/>
<polygon fill="midnightblue" stroke="midnightblue" points="855.47,-70.82 845.24,-73.58 854.96,-77.8 855.47,-70.82"/>
</g>
<!-- Node23&#45;&gt;Node7 -->
<g id="edge39" class="edge">
<title>Node23&#45;&gt;Node7</title>
<path fill="none" stroke="midnightblue" d="M1070.85,-117.91C1157.27,-96.31 1382.79,-39.93 1466.56,-18.98"/>
<polygon fill="midnightblue" stroke="midnightblue" points="1467.43,-22.37 1476.29,-16.55 1465.73,-15.58 1467.43,-22.37"/>
</g>
<!-- Node23&#45;&gt;Node15 -->
<g id="edge38" class="edge">
<title>Node23&#45;&gt;Node15</title>
<path fill="none" stroke="midnightblue" d="M995.24,-117.98C943.7,-107.33 855.52,-89.11 799.71,-77.58"/>
<polygon fill="midnightblue" stroke="midnightblue" points="800.19,-74.1 789.69,-75.51 798.77,-80.96 800.19,-74.1"/>
</g>
<!-- Node25&#45;&gt;Node9 -->
<g id="edge49" class="edge">
<title>Node25&#45;&gt;Node9</title>
<path fill="none" stroke="midnightblue" d="M1774.46,-179.19C1764.65,-162.93 1741.29,-128.37 1711.5,-112 1548.57,-22.5 948.39,-12.26 788.08,-11.13"/>
<polygon fill="midnightblue" stroke="midnightblue" points="787.76,-7.63 777.74,-11.07 787.72,-14.63 787.76,-7.63"/>
</g>
<!-- Node25&#45;&gt;Node14 -->
<g id="edge46" class="edge">
<title>Node25&#45;&gt;Node14</title>
<path fill="none" stroke="midnightblue" d="M1827.06,-185.51C1898.11,-180.08 2019.22,-163.22 1975.5,-112 1961.95,-96.12 1844.54,-81.72 1765.27,-73.69"/>
<polygon fill="midnightblue" stroke="midnightblue" points="1765.62,-70.21 1755.32,-72.69 1764.92,-77.17 1765.62,-70.21"/>
</g>
<!-- Node25&#45;&gt;Node16 -->
<g id="edge45" class="edge">
<title>Node25&#45;&gt;Node16</title>
<path fill="none" stroke="midnightblue" d="M1752.56,-179.48C1719.9,-169.14 1664.68,-151.66 1628.16,-140.1"/>
<polygon fill="midnightblue" stroke="midnightblue" points="1628.98,-136.69 1618.39,-137.01 1626.86,-143.36 1628.98,-136.69"/>
</g>
<!-- Node26 -->
<g id="node26" class="node">
<title>Node26</title>
<g id="a_node26"><a xlink:href="InvalidLibraryException_8hpp.html" target="_top" xlink:title=" ">
<polygon fill="white" stroke="black" points="1758.5,-112.5 1758.5,-142.5 1898.5,-142.5 1898.5,-112.5 1758.5,-112.5"/>
<text text-anchor="start" x="1766.5" y="-130.5" font-family="Helvetica,sans-Serif" font-size="10.00">Exceptions/InvalidLibrary</text>
<text text-anchor="middle" x="1828.5" y="-119.5" font-family="Helvetica,sans-Serif" font-size="10.00">Exception.hpp</text>
</a>
</g>
</g>
<!-- Node25&#45;&gt;Node26 -->
<g id="edge47" class="edge">
<title>Node25&#45;&gt;Node26</title>
<path fill="none" stroke="midnightblue" d="M1786.52,-179.48C1792.78,-171.87 1802.23,-160.4 1810.58,-150.26"/>
<polygon fill="midnightblue" stroke="midnightblue" points="1813.3,-152.47 1816.95,-142.52 1807.89,-148.02 1813.3,-152.47"/>
</g>
<!-- Node28 -->
<g id="node28" class="node">
<title>Node28</title>
<g id="a_node28"><a xlink:title=" ">
<polygon fill="white" stroke="#bfbfbf" points="1916.5,-118 1916.5,-137 1966.5,-137 1966.5,-118 1916.5,-118"/>
<text text-anchor="middle" x="1941.5" y="-125" font-family="Helvetica,sans-Serif" font-size="10.00">dlfcn.h</text>
</a>
</g>
</g>
<!-- Node25&#45;&gt;Node28 -->
<g id="edge50" class="edge">
<title>Node25&#45;&gt;Node28</title>
<path fill="none" stroke="midnightblue" d="M1805.67,-179.36C1831.67,-170.64 1872.59,-156.56 1907.5,-143 1909.14,-142.36 1910.83,-141.69 1912.52,-141.01"/>
<polygon fill="midnightblue" stroke="midnightblue" points="1914.28,-144.07 1922.17,-137 1911.59,-137.6 1914.28,-144.07"/>
</g>
<!-- Node27 -->
<g id="node27" class="node">
<title>Node27</title>
<g id="a_node27"><a xlink:title=" ">
<polygon fill="white" stroke="#bfbfbf" points="1796,-56.5 1796,-75.5 1861,-75.5 1861,-56.5 1796,-56.5"/>
<text text-anchor="middle" x="1828.5" y="-63.5" font-family="Helvetica,sans-Serif" font-size="10.00">stdexcept</text>
</a>
</g>
</g>
<!-- Node26&#45;&gt;Node27 -->
<g id="edge48" class="edge">
<title>Node26&#45;&gt;Node27</title>
<path fill="none" stroke="midnightblue" d="M1828.5,-112.4C1828.5,-104.47 1828.5,-94.46 1828.5,-85.86"/>
<polygon fill="midnightblue" stroke="midnightblue" points="1832,-85.66 1828.5,-75.66 1825,-85.66 1832,-85.66"/>
</g>
</g>
</svg>
