<?xml version="1.0" encoding="UTF-8" standalone="no"?>
<!DOCTYPE svg PUBLIC "-//W3C//DTD SVG 1.1//EN"
 "http://www.w3.org/Graphics/SVG/1.1/DTD/svg11.dtd">
<!-- Generated by graphviz version 2.43.0 (0)
 -->
<!-- Title: sources/Common/ModInfo.hpp Pages: 1 -->
<svg width="1489pt" height="341pt"
 viewBox="0.00 0.00 1488.50 341.00" xmlns="http://www.w3.org/2000/svg" xmlns:xlink="http://www.w3.org/1999/xlink">
<g id="graph0" class="graph" transform="scale(1 1) rotate(0) translate(4 337)">
<title>sources/Common/ModInfo.hpp</title>
<polygon fill="white" stroke="transparent" points="-4,4 -4,-337 1484.5,-337 1484.5,4 -4,4"/>
<!-- Node1 -->
<g id="node1" class="node">
<title>Node1</title>
<g id="a_node1"><a xlink:title=" ">
<polygon fill="#bfbfbf" stroke="black" points="885,-313.5 885,-332.5 1050,-332.5 1050,-313.5 885,-313.5"/>
<text text-anchor="middle" x="967.5" y="-320.5" font-family="Helvetica,sans-Serif" font-size="10.00">sources/Common/ModInfo.hpp</text>
</a>
</g>
</g>
<!-- Node2 -->
<g id="node2" class="node">
<title>Node2</title>
<g id="a_node2"><a xlink:href="IGameModule_8hpp.html" target="_top" xlink:title=" ">
<polygon fill="white" stroke="black" points="428.5,-201.5 428.5,-220.5 622.5,-220.5 622.5,-201.5 428.5,-201.5"/>
<text text-anchor="middle" x="525.5" y="-208.5" font-family="Helvetica,sans-Serif" font-size="10.00">sources/Common/IGameModule.hpp</text>
</a>
</g>
</g>
<!-- Node1&#45;&gt;Node2 -->
<g id="edge1" class="edge">
<title>Node1&#45;&gt;Node2</title>
<path fill="none" stroke="midnightblue" d="M874.81,-312.6C819.24,-305.64 747.54,-294.31 685.5,-277 631.78,-262.01 571.66,-234.49 542.8,-220.56"/>
<polygon fill="midnightblue" stroke="midnightblue" points="874.64,-316.11 884.99,-313.85 875.5,-309.16 874.64,-316.11"/>
</g>
<!-- Node3 -->
<g id="node3" class="node">
<title>Node3</title>
<g id="a_node3"><a xlink:href="Runner_8hpp.html" target="_top" xlink:title=" ">
<polygon fill="white" stroke="black" points="554,-134.5 554,-164.5 671,-164.5 671,-134.5 554,-134.5"/>
<text text-anchor="start" x="562" y="-152.5" font-family="Helvetica,sans-Serif" font-size="10.00">sources/Core/Runner</text>
<text text-anchor="middle" x="612.5" y="-141.5" font-family="Helvetica,sans-Serif" font-size="10.00">/Runner.hpp</text>
</a>
</g>
</g>
<!-- Node1&#45;&gt;Node3 -->
<g id="edge30" class="edge">
<title>Node1&#45;&gt;Node3</title>
<path fill="none" stroke="midnightblue" d="M898.46,-311.49C863.51,-304.56 821.07,-293.61 785.5,-277 720.77,-246.77 655.82,-190.73 627.39,-164.6"/>
<polygon fill="midnightblue" stroke="midnightblue" points="898.1,-314.98 908.58,-313.43 899.42,-308.11 898.1,-314.98"/>
</g>
<!-- Node14 -->
<g id="node14" class="node">
<title>Node14</title>
<g id="a_node14"><a xlink:href="Module_8hpp.html" target="_top" xlink:title=" ">
<polygon fill="white" stroke="black" points="794,-257.5 794,-276.5 955,-276.5 955,-257.5 794,-257.5"/>
<text text-anchor="middle" x="874.5" y="-264.5" font-family="Helvetica,sans-Serif" font-size="10.00">sources/Common/Module.hpp</text>
</a>
</g>
</g>
<!-- Node1&#45;&gt;Node14 -->
<g id="edge15" class="edge">
<title>Node1&#45;&gt;Node14</title>
<path fill="none" stroke="midnightblue" d="M943.69,-308.18C926.58,-298.24 904.03,-285.15 889.4,-276.65"/>
<polygon fill="midnightblue" stroke="midnightblue" points="942.15,-311.33 952.56,-313.32 945.67,-305.28 942.15,-311.33"/>
</g>
<!-- Node17 -->
<g id="node17" class="node">
<title>Node17</title>
<g id="a_node17"><a xlink:href="NcursesDisplay_8cpp.html" target="_top" xlink:title=" ">
<polygon fill="white" stroke="black" points="1324.5,-67.5 1324.5,-97.5 1480.5,-97.5 1480.5,-67.5 1324.5,-67.5"/>
<text text-anchor="start" x="1332.5" y="-85.5" font-family="Helvetica,sans-Serif" font-size="10.00">sources/DisplayModules</text>
<text text-anchor="middle" x="1402.5" y="-74.5" font-family="Helvetica,sans-Serif" font-size="10.00">/Ncurses/NcursesDisplay.cpp</text>
</a>
</g>
</g>
<!-- Node1&#45;&gt;Node17 -->
<g id="edge31" class="edge">
<title>Node1&#45;&gt;Node17</title>
<path fill="none" stroke="midnightblue" d="M1060.09,-319.81C1129.81,-315.78 1226.82,-305.04 1307.5,-277 1382.44,-250.96 1420.16,-239.84 1446.5,-165 1451.07,-152 1451.33,-146.9 1446.5,-134 1441.2,-119.84 1429.93,-107.04 1420.13,-97.87"/>
<polygon fill="midnightblue" stroke="midnightblue" points="1059.81,-316.32 1050.01,-320.36 1060.18,-323.31 1059.81,-316.32"/>
</g>
<!-- Node19 -->
<g id="node19" class="node">
<title>Node19</title>
<g id="a_node19"><a xlink:href="SDLDisplay_8cpp.html" target="_top" xlink:title=" ">
<polygon fill="white" stroke="black" points="1087,-67.5 1087,-97.5 1222,-97.5 1222,-67.5 1087,-67.5"/>
<text text-anchor="start" x="1095" y="-85.5" font-family="Helvetica,sans-Serif" font-size="10.00">sources/DisplayModules</text>
<text text-anchor="middle" x="1154.5" y="-74.5" font-family="Helvetica,sans-Serif" font-size="10.00">/SDL/SDLDisplay.cpp</text>
</a>
</g>
</g>
<!-- Node1&#45;&gt;Node19 -->
<g id="edge32" class="edge">
<title>Node1&#45;&gt;Node19</title>
<path fill="none" stroke="midnightblue" d="M1060.13,-320.41C1169.03,-312.96 1345.54,-282.2 1429.5,-165 1437.52,-153.8 1438.32,-144.59 1429.5,-134 1416.3,-118.15 1299.36,-101.08 1222.28,-91.4"/>
<polygon fill="midnightblue" stroke="midnightblue" points="1059.9,-316.92 1050.14,-321.04 1060.34,-323.91 1059.9,-316.92"/>
</g>
<!-- Node22 -->
<g id="node22" class="node">
<title>Node22</title>
<g id="a_node22"><a xlink:href="Library_8hpp.html" target="_top" xlink:title=" ">
<polygon fill="white" stroke="black" points="974.5,-201.5 974.5,-220.5 1110.5,-220.5 1110.5,-201.5 974.5,-201.5"/>
<text text-anchor="middle" x="1042.5" y="-208.5" font-family="Helvetica,sans-Serif" font-size="10.00">sources/Core/Library.hpp</text>
</a>
</g>
</g>
<!-- Node1&#45;&gt;Node22 -->
<g id="edge29" class="edge">
<title>Node1&#45;&gt;Node22</title>
<path fill="none" stroke="midnightblue" d="M979.12,-304.96C995.37,-281.12 1024.29,-238.71 1036.64,-220.59"/>
<polygon fill="midnightblue" stroke="midnightblue" points="976.13,-303.13 973.39,-313.37 981.91,-307.08 976.13,-303.13"/>
</g>
<!-- Node2&#45;&gt;Node3 -->
<g id="edge2" class="edge">
<title>Node2&#45;&gt;Node3</title>
<path fill="none" stroke="midnightblue" d="M546.35,-195.74C560.18,-186.28 578.24,-173.93 592,-164.52"/>
<polygon fill="midnightblue" stroke="midnightblue" points="544.24,-192.94 537.96,-201.48 548.2,-198.72 544.24,-192.94"/>
</g>
<!-- Node5 -->
<g id="node5" class="node">
<title>Node5</title>
<g id="a_node5"><a xlink:href="Menu_8hpp.html" target="_top" xlink:title=" ">
<polygon fill="white" stroke="black" points="468.5,-67.5 468.5,-97.5 590.5,-97.5 590.5,-67.5 468.5,-67.5"/>
<text text-anchor="start" x="476.5" y="-85.5" font-family="Helvetica,sans-Serif" font-size="10.00">sources/Games/Menu</text>
<text text-anchor="middle" x="529.5" y="-74.5" font-family="Helvetica,sans-Serif" font-size="10.00">/Menu.hpp</text>
</a>
</g>
</g>
<!-- Node2&#45;&gt;Node5 -->
<g id="edge8" class="edge">
<title>Node2&#45;&gt;Node5</title>
<path fill="none" stroke="midnightblue" d="M526.1,-191.11C526.9,-165.63 528.32,-120.81 529.05,-97.89"/>
<polygon fill="midnightblue" stroke="midnightblue" points="522.59,-191.2 525.77,-201.31 529.59,-191.42 522.59,-191.2"/>
</g>
<!-- Node8 -->
<g id="node8" class="node">
<title>Node8</title>
<g id="a_node8"><a xlink:href="Nibbler_8hpp.html" target="_top" xlink:title=" ">
<polygon fill="white" stroke="black" points="364.5,-134.5 364.5,-164.5 494.5,-164.5 494.5,-134.5 364.5,-134.5"/>
<text text-anchor="start" x="372.5" y="-152.5" font-family="Helvetica,sans-Serif" font-size="10.00">sources/Games/Nibbler</text>
<text text-anchor="middle" x="429.5" y="-141.5" font-family="Helvetica,sans-Serif" font-size="10.00">/Nibbler.hpp</text>
</a>
</g>
</g>
<!-- Node2&#45;&gt;Node8 -->
<g id="edge9" class="edge">
<title>Node2&#45;&gt;Node8</title>
<path fill="none" stroke="midnightblue" d="M502.93,-196.01C487.61,-186.52 467.45,-174.02 452.13,-164.52"/>
<polygon fill="midnightblue" stroke="midnightblue" points="501.4,-199.18 511.75,-201.48 505.09,-193.23 501.4,-199.18"/>
</g>
<!-- Node10 -->
<g id="node10" class="node">
<title>Node10</title>
<g id="a_node10"><a xlink:href="Pacman_8hpp.html" target="_top" xlink:title=" ">
<polygon fill="white" stroke="black" points="25,-134.5 25,-164.5 158,-164.5 158,-134.5 25,-134.5"/>
<text text-anchor="start" x="33" y="-152.5" font-family="Helvetica,sans-Serif" font-size="10.00">sources/Games/Pacman</text>
<text text-anchor="middle" x="91.5" y="-141.5" font-family="Helvetica,sans-Serif" font-size="10.00">/Pacman.hpp</text>
</a>
</g>
</g>
<!-- Node2&#45;&gt;Node10 -->
<g id="edge11" class="edge">
<title>Node2&#45;&gt;Node10</title>
<path fill="none" stroke="midnightblue" d="M444.39,-200.24C374.21,-191.61 270.03,-178.34 179.5,-165 172.61,-163.98 165.42,-162.88 158.25,-161.74"/>
<polygon fill="midnightblue" stroke="midnightblue" points="444.15,-203.74 454.5,-201.48 445,-196.79 444.15,-203.74"/>
</g>
<!-- Node12 -->
<g id="node12" class="node">
<title>Node12</title>
<g id="a_node12"><a xlink:href="Qix_8hpp.html" target="_top" xlink:title=" ">
<polygon fill="white" stroke="black" points="188.5,-140 188.5,-159 340.5,-159 340.5,-140 188.5,-140"/>
<text text-anchor="middle" x="264.5" y="-147" font-family="Helvetica,sans-Serif" font-size="10.00">sources/Games/Qix/Qix.hpp</text>
</a>
</g>
</g>
<!-- Node2&#45;&gt;Node12 -->
<g id="edge13" class="edge">
<title>Node2&#45;&gt;Node12</title>
<path fill="none" stroke="midnightblue" d="M478.06,-199.19C427.42,-187.64 348.21,-169.58 301.83,-159.01"/>
<polygon fill="midnightblue" stroke="midnightblue" points="477.58,-202.66 488.11,-201.48 479.13,-195.84 477.58,-202.66"/>
</g>
<!-- Node4 -->
<g id="node4" class="node">
<title>Node4</title>
<g id="a_node4"><a xlink:href="Runner_8cpp.html" target="_top" xlink:title=" ">
<polygon fill="white" stroke="black" points="560,-0.5 560,-30.5 677,-30.5 677,-0.5 560,-0.5"/>
<text text-anchor="start" x="568" y="-18.5" font-family="Helvetica,sans-Serif" font-size="10.00">sources/Core/Runner</text>
<text text-anchor="middle" x="618.5" y="-7.5" font-family="Helvetica,sans-Serif" font-size="10.00">/Runner.cpp</text>
</a>
</g>
</g>
<!-- Node3&#45;&gt;Node4 -->
<g id="edge3" class="edge">
<title>Node3&#45;&gt;Node4</title>
<path fill="none" stroke="midnightblue" d="M613.61,-124.02C614.86,-96.51 616.85,-52.79 617.86,-30.52"/>
<polygon fill="midnightblue" stroke="midnightblue" points="610.1,-124.23 613.14,-134.37 617.09,-124.54 610.1,-124.23"/>
</g>
<!-- Node3&#45;&gt;Node5 -->
<g id="edge4" class="edge">
<title>Node3&#45;&gt;Node5</title>
<path fill="none" stroke="midnightblue" d="M586.54,-128.17C573.85,-118.23 558.89,-106.51 547.47,-97.58"/>
<polygon fill="midnightblue" stroke="midnightblue" points="584.46,-130.99 594.49,-134.4 588.78,-125.47 584.46,-130.99"/>
</g>
<!-- Node7 -->
<g id="node7" class="node">
<title>Node7</title>
<g id="a_node7"><a xlink:href="main_8cpp.html" target="_top" xlink:title=" ">
<polygon fill="white" stroke="black" points="646.5,-73 646.5,-92 748.5,-92 748.5,-73 646.5,-73"/>
<text text-anchor="middle" x="697.5" y="-80" font-family="Helvetica,sans-Serif" font-size="10.00">sources/main.cpp</text>
</a>
</g>
</g>
<!-- Node3&#45;&gt;Node7 -->
<g id="edge7" class="edge">
<title>Node3&#45;&gt;Node7</title>
<path fill="none" stroke="midnightblue" d="M639.3,-128.01C655.08,-115.94 674.22,-101.3 686.13,-92.19"/>
<polygon fill="midnightblue" stroke="midnightblue" points="636.76,-125.54 630.94,-134.4 641.01,-131.1 636.76,-125.54"/>
</g>
<!-- Node5&#45;&gt;Node4 -->
<g id="edge5" class="edge">
<title>Node5&#45;&gt;Node4</title>
<path fill="none" stroke="midnightblue" d="M556.95,-61.45C570.64,-51.45 586.87,-39.6 599.23,-30.58"/>
<polygon fill="midnightblue" stroke="midnightblue" points="554.82,-58.67 548.81,-67.4 558.95,-64.32 554.82,-58.67"/>
</g>
<!-- Node6 -->
<g id="node6" class="node">
<title>Node6</title>
<g id="a_node6"><a xlink:href="Menu_8cpp.html" target="_top" xlink:title=" ">
<polygon fill="white" stroke="black" points="419.5,-0.5 419.5,-30.5 541.5,-30.5 541.5,-0.5 419.5,-0.5"/>
<text text-anchor="start" x="427.5" y="-18.5" font-family="Helvetica,sans-Serif" font-size="10.00">sources/Games/Menu</text>
<text text-anchor="middle" x="480.5" y="-7.5" font-family="Helvetica,sans-Serif" font-size="10.00">/Menu.cpp</text>
</a>
</g>
</g>
<!-- Node5&#45;&gt;Node6 -->
<g id="edge6" class="edge">
<title>Node5&#45;&gt;Node6</title>
<path fill="none" stroke="midnightblue" d="M512.66,-59.16C505.51,-49.68 497.4,-38.92 491.11,-30.58"/>
<polygon fill="midnightblue" stroke="midnightblue" points="510.05,-61.52 518.87,-67.4 515.64,-57.3 510.05,-61.52"/>
</g>
<!-- Node9 -->
<g id="node9" class="node">
<title>Node9</title>
<g id="a_node9"><a xlink:href="Nibbler_8cpp.html" target="_top" xlink:title=" ">
<polygon fill="white" stroke="black" points="320.5,-67.5 320.5,-97.5 450.5,-97.5 450.5,-67.5 320.5,-67.5"/>
<text text-anchor="start" x="328.5" y="-85.5" font-family="Helvetica,sans-Serif" font-size="10.00">sources/Games/Nibbler</text>
<text text-anchor="middle" x="385.5" y="-74.5" font-family="Helvetica,sans-Serif" font-size="10.00">/Nibbler.cpp</text>
</a>
</g>
</g>
<!-- Node8&#45;&gt;Node9 -->
<g id="edge10" class="edge">
<title>Node8&#45;&gt;Node9</title>
<path fill="none" stroke="midnightblue" d="M414.18,-125.87C407.81,-116.46 400.62,-105.83 395.03,-97.58"/>
<polygon fill="midnightblue" stroke="midnightblue" points="411.45,-128.08 419.95,-134.4 417.25,-124.15 411.45,-128.08"/>
</g>
<!-- Node11 -->
<g id="node11" class="node">
<title>Node11</title>
<g id="a_node11"><a xlink:href="Pacman_8cpp.html" target="_top" xlink:title=" ">
<polygon fill="white" stroke="black" points="0,-67.5 0,-97.5 133,-97.5 133,-67.5 0,-67.5"/>
<text text-anchor="start" x="8" y="-85.5" font-family="Helvetica,sans-Serif" font-size="10.00">sources/Games/Pacman</text>
<text text-anchor="middle" x="66.5" y="-74.5" font-family="Helvetica,sans-Serif" font-size="10.00">/Pacman.cpp</text>
</a>
</g>
</g>
<!-- Node10&#45;&gt;Node11 -->
<g id="edge12" class="edge">
<title>Node10&#45;&gt;Node11</title>
<path fill="none" stroke="midnightblue" d="M82.46,-124.99C78.92,-115.8 74.99,-105.58 71.91,-97.58"/>
<polygon fill="midnightblue" stroke="midnightblue" points="79.22,-126.32 86.08,-134.4 85.75,-123.81 79.22,-126.32"/>
</g>
<!-- Node13 -->
<g id="node13" class="node">
<title>Node13</title>
<g id="a_node13"><a xlink:href="Qix_8cpp.html" target="_top" xlink:title=" ">
<polygon fill="white" stroke="black" points="151,-73 151,-92 302,-92 302,-73 151,-73"/>
<text text-anchor="middle" x="226.5" y="-80" font-family="Helvetica,sans-Serif" font-size="10.00">sources/Games/Qix/Qix.cpp</text>
</a>
</g>
</g>
<!-- Node12&#45;&gt;Node13 -->
<g id="edge14" class="edge">
<title>Node12&#45;&gt;Node13</title>
<path fill="none" stroke="midnightblue" d="M254.29,-131.03C246.93,-118.45 237.32,-102.01 231.54,-92.13"/>
<polygon fill="midnightblue" stroke="midnightblue" points="251.31,-132.87 259.38,-139.73 257.35,-129.33 251.31,-132.87"/>
</g>
<!-- Node14&#45;&gt;Node2 -->
<g id="edge24" class="edge">
<title>Node14&#45;&gt;Node2</title>
<path fill="none" stroke="midnightblue" d="M808.93,-255.85C742.98,-245.65 642.46,-230.1 580.54,-220.52"/>
<polygon fill="midnightblue" stroke="midnightblue" points="808.78,-259.37 819.2,-257.44 809.85,-252.46 808.78,-259.37"/>
</g>
<!-- Node15 -->
<g id="node15" class="node">
<title>Node15</title>
<g id="a_node15"><a xlink:href="IDisplayModule_8hpp.html" target="_top" xlink:title=" ">
<polygon fill="white" stroke="black" points="755,-201.5 755,-220.5 956,-220.5 956,-201.5 755,-201.5"/>
<text text-anchor="middle" x="855.5" y="-208.5" font-family="Helvetica,sans-Serif" font-size="10.00">sources/Common/IDisplayModule.hpp</text>
</a>
</g>
</g>
<!-- Node14&#45;&gt;Node15 -->
<g id="edge16" class="edge">
<title>Node14&#45;&gt;Node15</title>
<path fill="none" stroke="midnightblue" d="M867.95,-247.4C864.78,-238.36 861.11,-227.94 858.58,-220.75"/>
<polygon fill="midnightblue" stroke="midnightblue" points="864.74,-248.81 871.36,-257.08 871.35,-246.49 864.74,-248.81"/>
</g>
<!-- Node14&#45;&gt;Node22 -->
<g id="edge25" class="edge">
<title>Node14&#45;&gt;Node22</title>
<path fill="none" stroke="midnightblue" d="M910.89,-254.3C942.54,-244.13 987.67,-229.62 1016,-220.52"/>
<polygon fill="midnightblue" stroke="midnightblue" points="909.57,-251.05 901.12,-257.44 911.71,-257.72 909.57,-251.05"/>
</g>
<!-- Node15&#45;&gt;Node3 -->
<g id="edge17" class="edge">
<title>Node15&#45;&gt;Node3</title>
<path fill="none" stroke="midnightblue" d="M810.76,-199.05C771.07,-189.33 712.86,-175.07 669.77,-164.52"/>
<polygon fill="midnightblue" stroke="midnightblue" points="810.14,-202.5 820.68,-201.48 811.8,-195.7 810.14,-202.5"/>
</g>
<!-- Node16 -->
<g id="node16" class="node">
<title>Node16</title>
<g id="a_node16"><a xlink:href="NcursesDisplay_8hpp.html" target="_top" xlink:title=" ">
<polygon fill="white" stroke="black" points="995,-134.5 995,-164.5 1152,-164.5 1152,-134.5 995,-134.5"/>
<text text-anchor="start" x="1003" y="-152.5" font-family="Helvetica,sans-Serif" font-size="10.00">sources/DisplayModules</text>
<text text-anchor="middle" x="1073.5" y="-141.5" font-family="Helvetica,sans-Serif" font-size="10.00">/Ncurses/NcursesDisplay.hpp</text>
</a>
</g>
</g>
<!-- Node15&#45;&gt;Node16 -->
<g id="edge18" class="edge">
<title>Node15&#45;&gt;Node16</title>
<path fill="none" stroke="midnightblue" d="M896.78,-198.73C932.36,-189.02 983.88,-174.96 1022.12,-164.52"/>
<polygon fill="midnightblue" stroke="midnightblue" points="895.46,-195.47 886.73,-201.48 897.3,-202.22 895.46,-195.47"/>
</g>
<!-- Node18 -->
<g id="node18" class="node">
<title>Node18</title>
<g id="a_node18"><a xlink:href="SDLDisplay_8hpp.html" target="_top" xlink:title=" ">
<polygon fill="white" stroke="black" points="842,-134.5 842,-164.5 977,-164.5 977,-134.5 842,-134.5"/>
<text text-anchor="start" x="850" y="-152.5" font-family="Helvetica,sans-Serif" font-size="10.00">sources/DisplayModules</text>
<text text-anchor="middle" x="909.5" y="-141.5" font-family="Helvetica,sans-Serif" font-size="10.00">/SDL/SDLDisplay.hpp</text>
</a>
</g>
</g>
<!-- Node15&#45;&gt;Node18 -->
<g id="edge20" class="edge">
<title>Node15&#45;&gt;Node18</title>
<path fill="none" stroke="midnightblue" d="M870.19,-193.81C878.51,-184.65 888.8,-173.3 896.77,-164.52"/>
<polygon fill="midnightblue" stroke="midnightblue" points="867.37,-191.72 863.24,-201.48 872.55,-196.42 867.37,-191.72"/>
</g>
<!-- Node20 -->
<g id="node20" class="node">
<title>Node20</title>
<g id="a_node20"><a xlink:href="SFMLDisplay_8hpp.html" target="_top" xlink:title=" ">
<polygon fill="white" stroke="black" points="689,-134.5 689,-164.5 824,-164.5 824,-134.5 689,-134.5"/>
<text text-anchor="start" x="697" y="-152.5" font-family="Helvetica,sans-Serif" font-size="10.00">sources/DisplayModules</text>
<text text-anchor="middle" x="756.5" y="-141.5" font-family="Helvetica,sans-Serif" font-size="10.00">/SFML/SFMLDisplay.hpp</text>
</a>
</g>
</g>
<!-- Node15&#45;&gt;Node20 -->
<g id="edge22" class="edge">
<title>Node15&#45;&gt;Node20</title>
<path fill="none" stroke="midnightblue" d="M832.67,-196.28C816.82,-186.75 795.78,-174.11 779.83,-164.52"/>
<polygon fill="midnightblue" stroke="midnightblue" points="830.94,-199.32 841.32,-201.48 834.55,-193.32 830.94,-199.32"/>
</g>
<!-- Node16&#45;&gt;Node17 -->
<g id="edge19" class="edge">
<title>Node16&#45;&gt;Node17</title>
<path fill="none" stroke="midnightblue" d="M1154.4,-132.52C1208.61,-121.81 1279.31,-107.84 1331.36,-97.55"/>
<polygon fill="midnightblue" stroke="midnightblue" points="1153.62,-129.1 1144.48,-134.48 1154.97,-135.97 1153.62,-129.1"/>
</g>
<!-- Node18&#45;&gt;Node19 -->
<g id="edge21" class="edge">
<title>Node18&#45;&gt;Node19</title>
<path fill="none" stroke="midnightblue" d="M972.26,-131.85C1012.2,-121.25 1063.37,-107.68 1101.31,-97.61"/>
<polygon fill="midnightblue" stroke="midnightblue" points="971.13,-128.53 962.36,-134.48 972.92,-135.29 971.13,-128.53"/>
</g>
<!-- Node21 -->
<g id="node21" class="node">
<title>Node21</title>
<g id="a_node21"><a xlink:href="SFMLDisplay_8cpp.html" target="_top" xlink:title=" ">
<polygon fill="white" stroke="black" points="767,-67.5 767,-97.5 902,-97.5 902,-67.5 767,-67.5"/>
<text text-anchor="start" x="775" y="-85.5" font-family="Helvetica,sans-Serif" font-size="10.00">sources/DisplayModules</text>
<text text-anchor="middle" x="834.5" y="-74.5" font-family="Helvetica,sans-Serif" font-size="10.00">/SFML/SFMLDisplay.cpp</text>
</a>
</g>
</g>
<!-- Node20&#45;&gt;Node21 -->
<g id="edge23" class="edge">
<title>Node20&#45;&gt;Node21</title>
<path fill="none" stroke="midnightblue" d="M781.24,-127.88C793.09,-118.01 806.98,-106.43 817.61,-97.58"/>
<polygon fill="midnightblue" stroke="midnightblue" points="778.87,-125.31 773.42,-134.4 783.35,-130.68 778.87,-125.31"/>
</g>
<!-- Node22&#45;&gt;Node3 -->
<g id="edge27" class="edge">
<title>Node22&#45;&gt;Node3</title>
<path fill="none" stroke="midnightblue" d="M964.2,-200.63C866.18,-188.85 707.76,-169.59 680.5,-165 677.41,-164.48 674.24,-163.91 671.04,-163.32"/>
<polygon fill="midnightblue" stroke="midnightblue" points="964.02,-204.14 974.37,-201.85 964.86,-197.19 964.02,-204.14"/>
</g>
<!-- Node23 -->
<g id="node23" class="node">
<title>Node23</title>
<g id="a_node23"><a xlink:href="sources_2Core_2Library_8cpp.html" target="_top" xlink:title=" ">
<polygon fill="white" stroke="black" points="1285,-140 1285,-159 1420,-159 1420,-140 1285,-140"/>
<text text-anchor="middle" x="1352.5" y="-147" font-family="Helvetica,sans-Serif" font-size="10.00">sources/Core/Library.cpp</text>
</a>
</g>
</g>
<!-- Node22&#45;&gt;Node23 -->
<g id="edge26" class="edge">
<title>Node22&#45;&gt;Node23</title>
<path fill="none" stroke="midnightblue" d="M1096.97,-199.55C1157.03,-188.02 1252.5,-169.69 1308.17,-159.01"/>
<polygon fill="midnightblue" stroke="midnightblue" points="1096.08,-196.15 1086.92,-201.48 1097.4,-203.03 1096.08,-196.15"/>
</g>
<!-- Node24 -->
<g id="node24" class="node">
<title>Node24</title>
<g id="a_node24"><a xlink:href="tests_2Library_8cpp.html" target="_top" xlink:title=" ">
<polygon fill="white" stroke="black" points="1170.5,-140 1170.5,-159 1266.5,-159 1266.5,-140 1170.5,-140"/>
<text text-anchor="middle" x="1218.5" y="-147" font-family="Helvetica,sans-Serif" font-size="10.00">tests/Library.cpp</text>
</a>
</g>
</g>
<!-- Node22&#45;&gt;Node24 -->
<g id="edge28" class="edge">
<title>Node22&#45;&gt;Node24</title>
<path fill="none" stroke="midnightblue" d="M1077.31,-198.23C1111.52,-186.67 1162.9,-169.3 1193.33,-159.01"/>
<polygon fill="midnightblue" stroke="midnightblue" points="1076.07,-194.96 1067.72,-201.48 1078.31,-201.59 1076.07,-194.96"/>
</g>
</g>
</svg>
