<?xml version="1.0" encoding="UTF-8" standalone="no"?>
<!DOCTYPE svg PUBLIC "-//W3C//DTD SVG 1.1//EN"
 "http://www.w3.org/Graphics/SVG/1.1/DTD/svg11.dtd">
<!-- Generated by graphviz version 2.43.0 (0)
 -->
<!-- Title: sources/Common/Module.hpp Pages: 1 -->
<svg width="1383pt" height="285pt"
 viewBox="0.00 0.00 1382.50 285.00" xmlns="http://www.w3.org/2000/svg" xmlns:xlink="http://www.w3.org/1999/xlink">
<g id="graph0" class="graph" transform="scale(1 1) rotate(0) translate(4 281)">
<title>sources/Common/Module.hpp</title>
<polygon fill="white" stroke="transparent" points="-4,4 -4,-281 1378.5,-281 1378.5,4 -4,4"/>
<!-- Node1 -->
<g id="node1" class="node">
<title>Node1</title>
<g id="a_node1"><a xlink:title=" ">
<polygon fill="#bfbfbf" stroke="black" points="630.5,-257.5 630.5,-276.5 791.5,-276.5 791.5,-257.5 630.5,-257.5"/>
<text text-anchor="middle" x="711" y="-264.5" font-family="Helvetica,sans-Serif" font-size="10.00">sources/Common/Module.hpp</text>
</a>
</g>
</g>
<!-- Node2 -->
<g id="node2" class="node">
<title>Node2</title>
<g id="a_node2"><a xlink:href="IDisplayModule_8hpp.html" target="_top" xlink:title=" ">
<polygon fill="white" stroke="black" points="889.5,-201.5 889.5,-220.5 1090.5,-220.5 1090.5,-201.5 889.5,-201.5"/>
<text text-anchor="middle" x="990" y="-208.5" font-family="Helvetica,sans-Serif" font-size="10.00">sources/Common/IDisplayModule.hpp</text>
</a>
</g>
</g>
<!-- Node1&#45;&gt;Node2 -->
<g id="edge1" class="edge">
<title>Node1&#45;&gt;Node2</title>
<path fill="none" stroke="midnightblue" d="M765.06,-255.54C817.79,-245.33 897,-230 946,-220.52"/>
<polygon fill="midnightblue" stroke="midnightblue" points="764.36,-252.11 755.21,-257.44 765.69,-258.98 764.36,-252.11"/>
</g>
<!-- Node14 -->
<g id="node14" class="node">
<title>Node14</title>
<g id="a_node14"><a xlink:href="IGameModule_8hpp.html" target="_top" xlink:title=" ">
<polygon fill="white" stroke="black" points="336,-201.5 336,-220.5 530,-220.5 530,-201.5 336,-201.5"/>
<text text-anchor="middle" x="433" y="-208.5" font-family="Helvetica,sans-Serif" font-size="10.00">sources/Common/IGameModule.hpp</text>
</a>
</g>
</g>
<!-- Node1&#45;&gt;Node14 -->
<g id="edge14" class="edge">
<title>Node1&#45;&gt;Node14</title>
<path fill="none" stroke="midnightblue" d="M656.81,-255.47C604.27,-245.27 525.56,-229.98 476.84,-220.52"/>
<polygon fill="midnightblue" stroke="midnightblue" points="656.47,-258.97 666.95,-257.44 657.8,-252.1 656.47,-258.97"/>
</g>
<!-- Node21 -->
<g id="node21" class="node">
<title>Node21</title>
<g id="a_node21"><a xlink:href="Library_8hpp.html" target="_top" xlink:title=" ">
<polygon fill="white" stroke="black" points="643,-201.5 643,-220.5 779,-220.5 779,-201.5 643,-201.5"/>
<text text-anchor="middle" x="711" y="-208.5" font-family="Helvetica,sans-Serif" font-size="10.00">sources/Core/Library.hpp</text>
</a>
</g>
</g>
<!-- Node1&#45;&gt;Node21 -->
<g id="edge23" class="edge">
<title>Node1&#45;&gt;Node21</title>
<path fill="none" stroke="midnightblue" d="M711,-246.8C711,-237.91 711,-227.78 711,-220.75"/>
<polygon fill="midnightblue" stroke="midnightblue" points="707.5,-247.08 711,-257.08 714.5,-247.08 707.5,-247.08"/>
</g>
<!-- Node3 -->
<g id="node3" class="node">
<title>Node3</title>
<g id="a_node3"><a xlink:href="Runner_8hpp.html" target="_top" xlink:title=" ">
<polygon fill="white" stroke="black" points="508.5,-134.5 508.5,-164.5 625.5,-164.5 625.5,-134.5 508.5,-134.5"/>
<text text-anchor="start" x="516.5" y="-152.5" font-family="Helvetica,sans-Serif" font-size="10.00">sources/Core/Runner</text>
<text text-anchor="middle" x="567" y="-141.5" font-family="Helvetica,sans-Serif" font-size="10.00">/Runner.hpp</text>
</a>
</g>
</g>
<!-- Node2&#45;&gt;Node3 -->
<g id="edge2" class="edge">
<title>Node2&#45;&gt;Node3</title>
<path fill="none" stroke="midnightblue" d="M895.94,-200.38C823.98,-192.47 722.41,-180.12 634,-165 631.3,-164.54 628.55,-164.04 625.77,-163.52"/>
<polygon fill="midnightblue" stroke="midnightblue" points="895.58,-203.86 905.9,-201.47 896.33,-196.9 895.58,-203.86"/>
</g>
<!-- Node8 -->
<g id="node8" class="node">
<title>Node8</title>
<g id="a_node8"><a xlink:href="NcursesDisplay_8hpp.html" target="_top" xlink:title=" ">
<polygon fill="white" stroke="black" points="911.5,-134.5 911.5,-164.5 1068.5,-164.5 1068.5,-134.5 911.5,-134.5"/>
<text text-anchor="start" x="919.5" y="-152.5" font-family="Helvetica,sans-Serif" font-size="10.00">sources/DisplayModules</text>
<text text-anchor="middle" x="990" y="-141.5" font-family="Helvetica,sans-Serif" font-size="10.00">/Ncurses/NcursesDisplay.hpp</text>
</a>
</g>
</g>
<!-- Node2&#45;&gt;Node8 -->
<g id="edge8" class="edge">
<title>Node2&#45;&gt;Node8</title>
<path fill="none" stroke="midnightblue" d="M990,-191.23C990,-182.59 990,-172.5 990,-164.52"/>
<polygon fill="midnightblue" stroke="midnightblue" points="986.5,-191.48 990,-201.48 993.5,-191.48 986.5,-191.48"/>
</g>
<!-- Node10 -->
<g id="node10" class="node">
<title>Node10</title>
<g id="a_node10"><a xlink:href="SDLDisplay_8hpp.html" target="_top" xlink:title=" ">
<polygon fill="white" stroke="black" points="1086.5,-134.5 1086.5,-164.5 1221.5,-164.5 1221.5,-134.5 1086.5,-134.5"/>
<text text-anchor="start" x="1094.5" y="-152.5" font-family="Helvetica,sans-Serif" font-size="10.00">sources/DisplayModules</text>
<text text-anchor="middle" x="1154" y="-141.5" font-family="Helvetica,sans-Serif" font-size="10.00">/SDL/SDLDisplay.hpp</text>
</a>
</g>
</g>
<!-- Node2&#45;&gt;Node10 -->
<g id="edge10" class="edge">
<title>Node2&#45;&gt;Node10</title>
<path fill="none" stroke="midnightblue" d="M1023.14,-197.98C1049.81,-188.3 1087.32,-174.69 1115.35,-164.52"/>
<polygon fill="midnightblue" stroke="midnightblue" points="1021.7,-194.77 1013.5,-201.48 1024.09,-201.35 1021.7,-194.77"/>
</g>
<!-- Node12 -->
<g id="node12" class="node">
<title>Node12</title>
<g id="a_node12"><a xlink:href="SFMLDisplay_8hpp.html" target="_top" xlink:title=" ">
<polygon fill="white" stroke="black" points="1239.5,-134.5 1239.5,-164.5 1374.5,-164.5 1374.5,-134.5 1239.5,-134.5"/>
<text text-anchor="start" x="1247.5" y="-152.5" font-family="Helvetica,sans-Serif" font-size="10.00">sources/DisplayModules</text>
<text text-anchor="middle" x="1307" y="-141.5" font-family="Helvetica,sans-Serif" font-size="10.00">/SFML/SFMLDisplay.hpp</text>
</a>
</g>
</g>
<!-- Node2&#45;&gt;Node12 -->
<g id="edge12" class="edge">
<title>Node2&#45;&gt;Node12</title>
<path fill="none" stroke="midnightblue" d="M1046.26,-199.56C1095.11,-190.48 1167.74,-176.94 1231,-165 1233.77,-164.48 1236.6,-163.94 1239.46,-163.4"/>
<polygon fill="midnightblue" stroke="midnightblue" points="1045.4,-196.16 1036.21,-201.43 1046.68,-203.04 1045.4,-196.16"/>
</g>
<!-- Node4 -->
<g id="node4" class="node">
<title>Node4</title>
<g id="a_node4"><a xlink:href="Runner_8cpp.html" target="_top" xlink:title=" ">
<polygon fill="white" stroke="black" points="645.5,-0.5 645.5,-30.5 762.5,-30.5 762.5,-0.5 645.5,-0.5"/>
<text text-anchor="start" x="653.5" y="-18.5" font-family="Helvetica,sans-Serif" font-size="10.00">sources/Core/Runner</text>
<text text-anchor="middle" x="704" y="-7.5" font-family="Helvetica,sans-Serif" font-size="10.00">/Runner.cpp</text>
</a>
</g>
</g>
<!-- Node3&#45;&gt;Node4 -->
<g id="edge3" class="edge">
<title>Node3&#45;&gt;Node4</title>
<path fill="none" stroke="midnightblue" d="M629.68,-131.69C669.73,-120.32 715.22,-105.97 721,-98 735.59,-77.87 722.9,-48 713,-30.56"/>
<polygon fill="midnightblue" stroke="midnightblue" points="628.59,-128.36 619.91,-134.44 630.48,-135.1 628.59,-128.36"/>
</g>
<!-- Node5 -->
<g id="node5" class="node">
<title>Node5</title>
<g id="a_node5"><a xlink:href="Menu_8hpp.html" target="_top" xlink:title=" ">
<polygon fill="white" stroke="black" points="470,-67.5 470,-97.5 592,-97.5 592,-67.5 470,-67.5"/>
<text text-anchor="start" x="478" y="-85.5" font-family="Helvetica,sans-Serif" font-size="10.00">sources/Games/Menu</text>
<text text-anchor="middle" x="531" y="-74.5" font-family="Helvetica,sans-Serif" font-size="10.00">/Menu.hpp</text>
</a>
</g>
</g>
<!-- Node3&#45;&gt;Node5 -->
<g id="edge4" class="edge">
<title>Node3&#45;&gt;Node5</title>
<path fill="none" stroke="midnightblue" d="M554.3,-125.58C549.13,-116.24 543.32,-105.75 538.8,-97.58"/>
<polygon fill="midnightblue" stroke="midnightblue" points="551.28,-127.34 559.19,-134.4 557.41,-123.95 551.28,-127.34"/>
</g>
<!-- Node7 -->
<g id="node7" class="node">
<title>Node7</title>
<g id="a_node7"><a xlink:href="main_8cpp.html" target="_top" xlink:title=" ">
<polygon fill="white" stroke="black" points="610,-73 610,-92 712,-92 712,-73 610,-73"/>
<text text-anchor="middle" x="661" y="-80" font-family="Helvetica,sans-Serif" font-size="10.00">sources/main.cpp</text>
</a>
</g>
</g>
<!-- Node3&#45;&gt;Node7 -->
<g id="edge7" class="edge">
<title>Node3&#45;&gt;Node7</title>
<path fill="none" stroke="midnightblue" d="M595.72,-128.64C613.46,-116.37 635.31,-101.26 648.7,-92.01"/>
<polygon fill="midnightblue" stroke="midnightblue" points="593.63,-125.83 587.4,-134.4 597.61,-131.59 593.63,-125.83"/>
</g>
<!-- Node5&#45;&gt;Node4 -->
<g id="edge5" class="edge">
<title>Node5&#45;&gt;Node4</title>
<path fill="none" stroke="midnightblue" d="M578.06,-63.82C605.87,-53.37 640.59,-40.32 666.53,-30.58"/>
<polygon fill="midnightblue" stroke="midnightblue" points="576.67,-60.6 568.54,-67.4 579.13,-67.16 576.67,-60.6"/>
</g>
<!-- Node6 -->
<g id="node6" class="node">
<title>Node6</title>
<g id="a_node6"><a xlink:href="Menu_8cpp.html" target="_top" xlink:title=" ">
<polygon fill="white" stroke="black" points="470,-0.5 470,-30.5 592,-30.5 592,-0.5 470,-0.5"/>
<text text-anchor="start" x="478" y="-18.5" font-family="Helvetica,sans-Serif" font-size="10.00">sources/Games/Menu</text>
<text text-anchor="middle" x="531" y="-7.5" font-family="Helvetica,sans-Serif" font-size="10.00">/Menu.cpp</text>
</a>
</g>
</g>
<!-- Node5&#45;&gt;Node6 -->
<g id="edge6" class="edge">
<title>Node5&#45;&gt;Node6</title>
<path fill="none" stroke="midnightblue" d="M531,-57.11C531,-48.15 531,-38.32 531,-30.58"/>
<polygon fill="midnightblue" stroke="midnightblue" points="527.5,-57.4 531,-67.4 534.5,-57.4 527.5,-57.4"/>
</g>
<!-- Node9 -->
<g id="node9" class="node">
<title>Node9</title>
<g id="a_node9"><a xlink:href="NcursesDisplay_8cpp.html" target="_top" xlink:title=" ">
<polygon fill="white" stroke="black" points="912,-67.5 912,-97.5 1068,-97.5 1068,-67.5 912,-67.5"/>
<text text-anchor="start" x="920" y="-85.5" font-family="Helvetica,sans-Serif" font-size="10.00">sources/DisplayModules</text>
<text text-anchor="middle" x="990" y="-74.5" font-family="Helvetica,sans-Serif" font-size="10.00">/Ncurses/NcursesDisplay.cpp</text>
</a>
</g>
</g>
<!-- Node8&#45;&gt;Node9 -->
<g id="edge9" class="edge">
<title>Node8&#45;&gt;Node9</title>
<path fill="none" stroke="midnightblue" d="M990,-124.11C990,-115.15 990,-105.32 990,-97.58"/>
<polygon fill="midnightblue" stroke="midnightblue" points="986.5,-124.4 990,-134.4 993.5,-124.4 986.5,-124.4"/>
</g>
<!-- Node11 -->
<g id="node11" class="node">
<title>Node11</title>
<g id="a_node11"><a xlink:href="SDLDisplay_8cpp.html" target="_top" xlink:title=" ">
<polygon fill="white" stroke="black" points="1086.5,-67.5 1086.5,-97.5 1221.5,-97.5 1221.5,-67.5 1086.5,-67.5"/>
<text text-anchor="start" x="1094.5" y="-85.5" font-family="Helvetica,sans-Serif" font-size="10.00">sources/DisplayModules</text>
<text text-anchor="middle" x="1154" y="-74.5" font-family="Helvetica,sans-Serif" font-size="10.00">/SDL/SDLDisplay.cpp</text>
</a>
</g>
</g>
<!-- Node10&#45;&gt;Node11 -->
<g id="edge11" class="edge">
<title>Node10&#45;&gt;Node11</title>
<path fill="none" stroke="midnightblue" d="M1154,-124.11C1154,-115.15 1154,-105.32 1154,-97.58"/>
<polygon fill="midnightblue" stroke="midnightblue" points="1150.5,-124.4 1154,-134.4 1157.5,-124.4 1150.5,-124.4"/>
</g>
<!-- Node13 -->
<g id="node13" class="node">
<title>Node13</title>
<g id="a_node13"><a xlink:href="SFMLDisplay_8cpp.html" target="_top" xlink:title=" ">
<polygon fill="white" stroke="black" points="1239.5,-67.5 1239.5,-97.5 1374.5,-97.5 1374.5,-67.5 1239.5,-67.5"/>
<text text-anchor="start" x="1247.5" y="-85.5" font-family="Helvetica,sans-Serif" font-size="10.00">sources/DisplayModules</text>
<text text-anchor="middle" x="1307" y="-74.5" font-family="Helvetica,sans-Serif" font-size="10.00">/SFML/SFMLDisplay.cpp</text>
</a>
</g>
</g>
<!-- Node12&#45;&gt;Node13 -->
<g id="edge13" class="edge">
<title>Node12&#45;&gt;Node13</title>
<path fill="none" stroke="midnightblue" d="M1307,-124.11C1307,-115.15 1307,-105.32 1307,-97.58"/>
<polygon fill="midnightblue" stroke="midnightblue" points="1303.5,-124.4 1307,-134.4 1310.5,-124.4 1303.5,-124.4"/>
</g>
<!-- Node14&#45;&gt;Node3 -->
<g id="edge15" class="edge">
<title>Node14&#45;&gt;Node3</title>
<path fill="none" stroke="midnightblue" d="M461.53,-197.33C483.21,-187.7 513.02,-174.47 535.42,-164.52"/>
<polygon fill="midnightblue" stroke="midnightblue" points="459.92,-194.22 452.2,-201.48 462.76,-200.62 459.92,-194.22"/>
</g>
<!-- Node14&#45;&gt;Node5 -->
<g id="edge16" class="edge">
<title>Node14&#45;&gt;Node5</title>
<path fill="none" stroke="midnightblue" d="M446.07,-193.13C465.49,-168.07 501.61,-121.43 519.85,-97.89"/>
<polygon fill="midnightblue" stroke="midnightblue" points="443.09,-191.26 439.74,-201.31 448.63,-195.54 443.09,-191.26"/>
</g>
<!-- Node15 -->
<g id="node15" class="node">
<title>Node15</title>
<g id="a_node15"><a xlink:href="Nibbler_8hpp.html" target="_top" xlink:title=" ">
<polygon fill="white" stroke="black" points="170,-134.5 170,-164.5 300,-164.5 300,-134.5 170,-134.5"/>
<text text-anchor="start" x="178" y="-152.5" font-family="Helvetica,sans-Serif" font-size="10.00">sources/Games/Nibbler</text>
<text text-anchor="middle" x="235" y="-141.5" font-family="Helvetica,sans-Serif" font-size="10.00">/Nibbler.hpp</text>
</a>
</g>
</g>
<!-- Node14&#45;&gt;Node15 -->
<g id="edge17" class="edge">
<title>Node14&#45;&gt;Node15</title>
<path fill="none" stroke="midnightblue" d="M394.68,-198.48C362.39,-188.78 316.1,-174.87 281.66,-164.52"/>
<polygon fill="midnightblue" stroke="midnightblue" points="394.05,-201.95 404.63,-201.48 396.06,-195.25 394.05,-201.95"/>
</g>
<!-- Node17 -->
<g id="node17" class="node">
<title>Node17</title>
<g id="a_node17"><a xlink:href="Pacman_8hpp.html" target="_top" xlink:title=" ">
<polygon fill="white" stroke="black" points="318.5,-134.5 318.5,-164.5 451.5,-164.5 451.5,-134.5 318.5,-134.5"/>
<text text-anchor="start" x="326.5" y="-152.5" font-family="Helvetica,sans-Serif" font-size="10.00">sources/Games/Pacman</text>
<text text-anchor="middle" x="385" y="-141.5" font-family="Helvetica,sans-Serif" font-size="10.00">/Pacman.hpp</text>
</a>
</g>
</g>
<!-- Node14&#45;&gt;Node17 -->
<g id="edge19" class="edge">
<title>Node14&#45;&gt;Node17</title>
<path fill="none" stroke="midnightblue" d="M419.71,-193.53C412.36,-184.42 403.32,-173.21 396.31,-164.52"/>
<polygon fill="midnightblue" stroke="midnightblue" points="417.12,-195.89 426.12,-201.48 422.57,-191.49 417.12,-195.89"/>
</g>
<!-- Node19 -->
<g id="node19" class="node">
<title>Node19</title>
<g id="a_node19"><a xlink:href="Qix_8hpp.html" target="_top" xlink:title=" ">
<polygon fill="white" stroke="black" points="0,-140 0,-159 152,-159 152,-140 0,-140"/>
<text text-anchor="middle" x="76" y="-147" font-family="Helvetica,sans-Serif" font-size="10.00">sources/Games/Qix/Qix.hpp</text>
</a>
</g>
</g>
<!-- Node14&#45;&gt;Node19 -->
<g id="edge21" class="edge">
<title>Node14&#45;&gt;Node19</title>
<path fill="none" stroke="midnightblue" d="M371.13,-199.86C315.99,-190.79 233.1,-177.11 161,-165 149.63,-163.09 137.41,-161.02 125.88,-159.05"/>
<polygon fill="midnightblue" stroke="midnightblue" points="370.66,-203.32 381.1,-201.49 371.8,-196.42 370.66,-203.32"/>
</g>
<!-- Node16 -->
<g id="node16" class="node">
<title>Node16</title>
<g id="a_node16"><a xlink:href="Nibbler_8cpp.html" target="_top" xlink:title=" ">
<polygon fill="white" stroke="black" points="170,-67.5 170,-97.5 300,-97.5 300,-67.5 170,-67.5"/>
<text text-anchor="start" x="178" y="-85.5" font-family="Helvetica,sans-Serif" font-size="10.00">sources/Games/Nibbler</text>
<text text-anchor="middle" x="235" y="-74.5" font-family="Helvetica,sans-Serif" font-size="10.00">/Nibbler.cpp</text>
</a>
</g>
</g>
<!-- Node15&#45;&gt;Node16 -->
<g id="edge18" class="edge">
<title>Node15&#45;&gt;Node16</title>
<path fill="none" stroke="midnightblue" d="M235,-124.11C235,-115.15 235,-105.32 235,-97.58"/>
<polygon fill="midnightblue" stroke="midnightblue" points="231.5,-124.4 235,-134.4 238.5,-124.4 231.5,-124.4"/>
</g>
<!-- Node18 -->
<g id="node18" class="node">
<title>Node18</title>
<g id="a_node18"><a xlink:href="Pacman_8cpp.html" target="_top" xlink:title=" ">
<polygon fill="white" stroke="black" points="318.5,-67.5 318.5,-97.5 451.5,-97.5 451.5,-67.5 318.5,-67.5"/>
<text text-anchor="start" x="326.5" y="-85.5" font-family="Helvetica,sans-Serif" font-size="10.00">sources/Games/Pacman</text>
<text text-anchor="middle" x="385" y="-74.5" font-family="Helvetica,sans-Serif" font-size="10.00">/Pacman.cpp</text>
</a>
</g>
</g>
<!-- Node17&#45;&gt;Node18 -->
<g id="edge20" class="edge">
<title>Node17&#45;&gt;Node18</title>
<path fill="none" stroke="midnightblue" d="M385,-124.11C385,-115.15 385,-105.32 385,-97.58"/>
<polygon fill="midnightblue" stroke="midnightblue" points="381.5,-124.4 385,-134.4 388.5,-124.4 381.5,-124.4"/>
</g>
<!-- Node20 -->
<g id="node20" class="node">
<title>Node20</title>
<g id="a_node20"><a xlink:href="Qix_8cpp.html" target="_top" xlink:title=" ">
<polygon fill="white" stroke="black" points="0.5,-73 0.5,-92 151.5,-92 151.5,-73 0.5,-73"/>
<text text-anchor="middle" x="76" y="-80" font-family="Helvetica,sans-Serif" font-size="10.00">sources/Games/Qix/Qix.cpp</text>
</a>
</g>
</g>
<!-- Node19&#45;&gt;Node20 -->
<g id="edge22" class="edge">
<title>Node19&#45;&gt;Node20</title>
<path fill="none" stroke="midnightblue" d="M76,-129.54C76,-117.17 76,-101.62 76,-92.13"/>
<polygon fill="midnightblue" stroke="midnightblue" points="72.5,-129.73 76,-139.73 79.5,-129.73 72.5,-129.73"/>
</g>
<!-- Node21&#45;&gt;Node3 -->
<g id="edge25" class="edge">
<title>Node21&#45;&gt;Node3</title>
<path fill="none" stroke="midnightblue" d="M680.97,-197.59C657.62,-187.94 625.22,-174.56 600.94,-164.52"/>
<polygon fill="midnightblue" stroke="midnightblue" points="679.79,-200.89 690.37,-201.48 682.46,-194.42 679.79,-200.89"/>
</g>
<!-- Node22 -->
<g id="node22" class="node">
<title>Node22</title>
<g id="a_node22"><a xlink:href="sources_2Core_2Library_8cpp.html" target="_top" xlink:title=" ">
<polygon fill="white" stroke="black" points="643.5,-140 643.5,-159 778.5,-159 778.5,-140 643.5,-140"/>
<text text-anchor="middle" x="711" y="-147" font-family="Helvetica,sans-Serif" font-size="10.00">sources/Core/Library.cpp</text>
</a>
</g>
</g>
<!-- Node21&#45;&gt;Node22 -->
<g id="edge24" class="edge">
<title>Node21&#45;&gt;Node22</title>
<path fill="none" stroke="midnightblue" d="M711,-191.32C711,-180.5 711,-167.4 711,-159.01"/>
<polygon fill="midnightblue" stroke="midnightblue" points="707.5,-191.48 711,-201.48 714.5,-191.48 707.5,-191.48"/>
</g>
<!-- Node23 -->
<g id="node23" class="node">
<title>Node23</title>
<g id="a_node23"><a xlink:href="tests_2Library_8cpp.html" target="_top" xlink:title=" ">
<polygon fill="white" stroke="black" points="797,-140 797,-159 893,-159 893,-140 797,-140"/>
<text text-anchor="middle" x="845" y="-147" font-family="Helvetica,sans-Serif" font-size="10.00">tests/Library.cpp</text>
</a>
</g>
</g>
<!-- Node21&#45;&gt;Node23 -->
<g id="edge26" class="edge">
<title>Node21&#45;&gt;Node23</title>
<path fill="none" stroke="midnightblue" d="M739.54,-197.33C765.55,-185.78 803.26,-169.03 825.84,-159.01"/>
<polygon fill="midnightblue" stroke="midnightblue" points="737.92,-194.22 730.2,-201.48 740.76,-200.62 737.92,-194.22"/>
</g>
</g>
</svg>
