<?xml version="1.0" encoding="UTF-8" standalone="no"?>
<!DOCTYPE svg PUBLIC "-//W3C//DTD SVG 1.1//EN"
 "http://www.w3.org/Graphics/SVG/1.1/DTD/svg11.dtd">
<!-- Generated by graphviz version 2.43.0 (0)
 -->
<!-- Title: sources/Common/Events/MouseClickEvent.hpp Pages: 1 -->
<svg width="728pt" height="173pt"
 viewBox="0.00 0.00 727.50 173.00" xmlns="http://www.w3.org/2000/svg" xmlns:xlink="http://www.w3.org/1999/xlink">
<g id="graph0" class="graph" transform="scale(1 1) rotate(0) translate(4 169)">
<title>sources/Common/Events/MouseClickEvent.hpp</title>
<polygon fill="white" stroke="transparent" points="-4,4 -4,-169 723.5,-169 723.5,4 -4,4"/>
<!-- Node1 -->
<g id="node1" class="node">
<title>Node1</title>
<g id="a_node1"><a xlink:title=" ">
<polygon fill="#bfbfbf" stroke="black" points="309,-134.5 309,-164.5 446,-164.5 446,-134.5 309,-134.5"/>
<text text-anchor="start" x="317" y="-152.5" font-family="Helvetica,sans-Serif" font-size="10.00">sources/Common/Events</text>
<text text-anchor="middle" x="377.5" y="-141.5" font-family="Helvetica,sans-Serif" font-size="10.00">/MouseClickEvent.hpp</text>
</a>
</g>
</g>
<!-- Node2 -->
<g id="node2" class="node">
<title>Node2</title>
<g id="a_node2"><a xlink:href="NcursesDisplay_8hpp.html" target="_top" xlink:title=" ">
<polygon fill="white" stroke="black" points="0,-67.5 0,-97.5 157,-97.5 157,-67.5 0,-67.5"/>
<text text-anchor="start" x="8" y="-85.5" font-family="Helvetica,sans-Serif" font-size="10.00">sources/DisplayModules</text>
<text text-anchor="middle" x="78.5" y="-74.5" font-family="Helvetica,sans-Serif" font-size="10.00">/Ncurses/NcursesDisplay.hpp</text>
</a>
</g>
</g>
<!-- Node1&#45;&gt;Node2 -->
<g id="edge1" class="edge">
<title>Node1&#45;&gt;Node2</title>
<path fill="none" stroke="midnightblue" d="M303.05,-132.32C253.91,-121.63 190.16,-107.77 143.15,-97.55"/>
<polygon fill="midnightblue" stroke="midnightblue" points="302.47,-135.77 312.99,-134.48 303.96,-128.93 302.47,-135.77"/>
</g>
<!-- Node3 -->
<g id="node3" class="node">
<title>Node3</title>
<g id="a_node3"><a xlink:href="NcursesDisplay_8cpp.html" target="_top" xlink:title=" ">
<polygon fill="white" stroke="black" points="39.5,-0.5 39.5,-30.5 195.5,-30.5 195.5,-0.5 39.5,-0.5"/>
<text text-anchor="start" x="47.5" y="-18.5" font-family="Helvetica,sans-Serif" font-size="10.00">sources/DisplayModules</text>
<text text-anchor="middle" x="117.5" y="-7.5" font-family="Helvetica,sans-Serif" font-size="10.00">/Ncurses/NcursesDisplay.cpp</text>
</a>
</g>
</g>
<!-- Node1&#45;&gt;Node3 -->
<g id="edge3" class="edge">
<title>Node1&#45;&gt;Node3</title>
<path fill="none" stroke="midnightblue" d="M299,-133.83C268.23,-126.02 233.44,-114.51 204.5,-98 188.14,-88.67 151.07,-51.41 131,-30.65"/>
<polygon fill="midnightblue" stroke="midnightblue" points="298.3,-137.26 308.84,-136.24 299.96,-130.47 298.3,-137.26"/>
</g>
<!-- Node4 -->
<g id="node4" class="node">
<title>Node4</title>
<g id="a_node4"><a xlink:href="SDLDisplay_8hpp.html" target="_top" xlink:title=" ">
<polygon fill="white" stroke="black" points="214,-67.5 214,-97.5 349,-97.5 349,-67.5 214,-67.5"/>
<text text-anchor="start" x="222" y="-85.5" font-family="Helvetica,sans-Serif" font-size="10.00">sources/DisplayModules</text>
<text text-anchor="middle" x="281.5" y="-74.5" font-family="Helvetica,sans-Serif" font-size="10.00">/SDL/SDLDisplay.hpp</text>
</a>
</g>
</g>
<!-- Node1&#45;&gt;Node4 -->
<g id="edge4" class="edge">
<title>Node1&#45;&gt;Node4</title>
<path fill="none" stroke="midnightblue" d="M348.31,-128.73C333.45,-118.68 315.74,-106.68 302.29,-97.58"/>
<polygon fill="midnightblue" stroke="midnightblue" points="346.43,-131.69 356.67,-134.4 350.35,-125.89 346.43,-131.69"/>
</g>
<!-- Node5 -->
<g id="node5" class="node">
<title>Node5</title>
<g id="a_node5"><a xlink:href="SDLDisplay_8cpp.html" target="_top" xlink:title=" ">
<polygon fill="white" stroke="black" points="233,-0.5 233,-30.5 368,-30.5 368,-0.5 233,-0.5"/>
<text text-anchor="start" x="241" y="-18.5" font-family="Helvetica,sans-Serif" font-size="10.00">sources/DisplayModules</text>
<text text-anchor="middle" x="300.5" y="-7.5" font-family="Helvetica,sans-Serif" font-size="10.00">/SDL/SDLDisplay.cpp</text>
</a>
</g>
</g>
<!-- Node1&#45;&gt;Node5 -->
<g id="edge6" class="edge">
<title>Node1&#45;&gt;Node5</title>
<path fill="none" stroke="midnightblue" d="M375.37,-124.02C373,-107.02 368,-84.39 357.5,-67 348.68,-52.4 334.28,-39.69 322.16,-30.67"/>
<polygon fill="midnightblue" stroke="midnightblue" points="371.93,-124.75 376.58,-134.27 378.88,-123.92 371.93,-124.75"/>
</g>
<!-- Node6 -->
<g id="node6" class="node">
<title>Node6</title>
<g id="a_node6"><a xlink:href="SFMLDisplay_8hpp.html" target="_top" xlink:title=" ">
<polygon fill="white" stroke="black" points="406,-67.5 406,-97.5 541,-97.5 541,-67.5 406,-67.5"/>
<text text-anchor="start" x="414" y="-85.5" font-family="Helvetica,sans-Serif" font-size="10.00">sources/DisplayModules</text>
<text text-anchor="middle" x="473.5" y="-74.5" font-family="Helvetica,sans-Serif" font-size="10.00">/SFML/SFMLDisplay.hpp</text>
</a>
</g>
</g>
<!-- Node1&#45;&gt;Node6 -->
<g id="edge7" class="edge">
<title>Node1&#45;&gt;Node6</title>
<path fill="none" stroke="midnightblue" d="M406.69,-128.73C421.55,-118.68 439.26,-106.68 452.71,-97.58"/>
<polygon fill="midnightblue" stroke="midnightblue" points="404.65,-125.89 398.33,-134.4 408.57,-131.69 404.65,-125.89"/>
</g>
<!-- Node7 -->
<g id="node7" class="node">
<title>Node7</title>
<g id="a_node7"><a xlink:href="SFMLDisplay_8cpp.html" target="_top" xlink:title=" ">
<polygon fill="white" stroke="black" points="454,-0.5 454,-30.5 589,-30.5 589,-0.5 454,-0.5"/>
<text text-anchor="start" x="462" y="-18.5" font-family="Helvetica,sans-Serif" font-size="10.00">sources/DisplayModules</text>
<text text-anchor="middle" x="521.5" y="-7.5" font-family="Helvetica,sans-Serif" font-size="10.00">/SFML/SFMLDisplay.cpp</text>
</a>
</g>
</g>
<!-- Node1&#45;&gt;Node7 -->
<g id="edge9" class="edge">
<title>Node1&#45;&gt;Node7</title>
<path fill="none" stroke="midnightblue" d="M455.91,-135.07C495.89,-126.45 538.58,-113.9 550.5,-98 565.91,-77.45 547.79,-47.99 534.06,-30.69"/>
<polygon fill="midnightblue" stroke="midnightblue" points="455.17,-131.65 446.09,-137.12 456.6,-138.5 455.17,-131.65"/>
</g>
<!-- Node8 -->
<g id="node8" class="node">
<title>Node8</title>
<g id="a_node8"><a xlink:href="Menu_8cpp.html" target="_top" xlink:title=" ">
<polygon fill="white" stroke="black" points="597.5,-67.5 597.5,-97.5 719.5,-97.5 719.5,-67.5 597.5,-67.5"/>
<text text-anchor="start" x="605.5" y="-85.5" font-family="Helvetica,sans-Serif" font-size="10.00">sources/Games/Menu</text>
<text text-anchor="middle" x="658.5" y="-74.5" font-family="Helvetica,sans-Serif" font-size="10.00">/Menu.cpp</text>
</a>
</g>
</g>
<!-- Node1&#45;&gt;Node8 -->
<g id="edge10" class="edge">
<title>Node1&#45;&gt;Node8</title>
<path fill="none" stroke="midnightblue" d="M448.03,-132.19C494.05,-121.54 553.52,-107.78 597.5,-97.61"/>
<polygon fill="midnightblue" stroke="midnightblue" points="447.08,-128.81 438.13,-134.48 448.66,-135.63 447.08,-128.81"/>
</g>
<!-- Node2&#45;&gt;Node3 -->
<g id="edge2" class="edge">
<title>Node2&#45;&gt;Node3</title>
<path fill="none" stroke="midnightblue" d="M92.25,-58.58C97.86,-49.24 104.15,-38.75 109.05,-30.58"/>
<polygon fill="midnightblue" stroke="midnightblue" points="89.11,-57.02 86.96,-67.4 95.11,-60.62 89.11,-57.02"/>
</g>
<!-- Node4&#45;&gt;Node5 -->
<g id="edge5" class="edge">
<title>Node4&#45;&gt;Node5</title>
<path fill="none" stroke="midnightblue" d="M288.46,-57.7C291.12,-48.59 294.07,-38.49 296.39,-30.58"/>
<polygon fill="midnightblue" stroke="midnightblue" points="285.07,-56.82 285.62,-67.4 291.79,-58.78 285.07,-56.82"/>
</g>
<!-- Node6&#45;&gt;Node7 -->
<g id="edge8" class="edge">
<title>Node6&#45;&gt;Node7</title>
<path fill="none" stroke="midnightblue" d="M490,-59.16C497,-49.68 504.94,-38.92 511.11,-30.58"/>
<polygon fill="midnightblue" stroke="midnightblue" points="487.04,-57.27 483.92,-67.4 492.67,-61.43 487.04,-57.27"/>
</g>
</g>
</svg>
