<?xml version="1.0" encoding="UTF-8" standalone="no"?>
<!DOCTYPE svg PUBLIC "-//W3C//DTD SVG 1.1//EN"
 "http://www.w3.org/Graphics/SVG/1.1/DTD/svg11.dtd">
<!-- Generated by graphviz version 2.43.0 (0)
 -->
<!-- Title: sources/DisplayModules/Ncurses/NcursesDisplay.hpp Pages: 1 -->
<svg width="1765pt" height="274pt"
 viewBox="0.00 0.00 1764.54 274.00" xmlns="http://www.w3.org/2000/svg" xmlns:xlink="http://www.w3.org/1999/xlink">
<g id="graph0" class="graph" transform="scale(1 1) rotate(0) translate(4 270)">
<title>sources/DisplayModules/Ncurses/NcursesDisplay.hpp</title>
<polygon fill="white" stroke="transparent" points="-4,4 -4,-270 1760.54,-270 1760.54,4 -4,4"/>
<!-- Node1 -->
<g id="node1" class="node">
<title>Node1</title>
<g id="a_node1"><a xlink:title=" ">
<polygon fill="#bfbfbf" stroke="black" points="1346.04,-235.5 1346.04,-265.5 1503.04,-265.5 1503.04,-235.5 1346.04,-235.5"/>
<text text-anchor="start" x="1354.04" y="-253.5" font-family="Helvetica,sans-Serif" font-size="10.00">sources/DisplayModules</text>
<text text-anchor="middle" x="1424.54" y="-242.5" font-family="Helvetica,sans-Serif" font-size="10.00">/Ncurses/NcursesDisplay.hpp</text>
</a>
</g>
</g>
<!-- Node2 -->
<g id="node2" class="node">
<title>Node2</title>
<g id="a_node2"><a xlink:title=" ">
<polygon fill="white" stroke="#bfbfbf" points="192.54,-0.5 192.54,-19.5 236.54,-19.5 236.54,-0.5 192.54,-0.5"/>
<text text-anchor="middle" x="214.54" y="-7.5" font-family="Helvetica,sans-Serif" font-size="10.00">string</text>
</a>
</g>
</g>
<!-- Node1&#45;&gt;Node2 -->
<g id="edge1" class="edge">
<title>Node1&#45;&gt;Node2</title>
<path fill="none" stroke="midnightblue" d="M1345.83,-247.35C1068.32,-239.15 146.39,-206.51 38.54,-132 8.8,-111.45 -13.11,-84.17 9.54,-56 30.86,-29.5 130.06,-17.72 182.25,-13.28"/>
<polygon fill="midnightblue" stroke="midnightblue" points="182.64,-16.76 192.32,-12.47 182.07,-9.79 182.64,-16.76"/>
</g>
<!-- Node3 -->
<g id="node3" class="node">
<title>Node3</title>
<g id="a_node3"><a xlink:href="IDisplayModule_8hpp.html" target="_top" xlink:title=" ">
<polygon fill="white" stroke="black" points="621.04,-174 621.04,-193 782.04,-193 782.04,-174 621.04,-174"/>
<text text-anchor="middle" x="701.54" y="-181" font-family="Helvetica,sans-Serif" font-size="10.00">Common/IDisplayModule.hpp</text>
</a>
</g>
</g>
<!-- Node1&#45;&gt;Node3 -->
<g id="edge2" class="edge">
<title>Node1&#45;&gt;Node3</title>
<path fill="none" stroke="midnightblue" d="M1345.89,-245.26C1226,-238.33 990.48,-222.92 791.54,-199 781.3,-197.77 770.44,-196.22 759.94,-194.61"/>
<polygon fill="midnightblue" stroke="midnightblue" points="760.44,-191.14 750.02,-193.04 759.35,-198.06 760.44,-191.14"/>
</g>
<!-- Node13 -->
<g id="node13" class="node">
<title>Node13</title>
<g id="a_node13"><a xlink:href="Event_8hpp.html" target="_top" xlink:title=" ">
<polygon fill="white" stroke="black" points="1218.04,-112.5 1218.04,-131.5 1367.04,-131.5 1367.04,-112.5 1218.04,-112.5"/>
<text text-anchor="middle" x="1292.54" y="-119.5" font-family="Helvetica,sans-Serif" font-size="10.00">Common/Events/Event.hpp</text>
</a>
</g>
</g>
<!-- Node1&#45;&gt;Node13 -->
<g id="edge30" class="edge">
<title>Node1&#45;&gt;Node13</title>
<path fill="none" stroke="midnightblue" d="M1425.02,-235.36C1424.85,-217.57 1421.94,-187.05 1405.54,-168 1391.46,-151.63 1370.6,-141.16 1350.62,-134.48"/>
<polygon fill="midnightblue" stroke="midnightblue" points="1351.5,-131.09 1340.91,-131.5 1349.45,-137.78 1351.5,-131.09"/>
</g>
<!-- Node16 -->
<g id="node16" class="node">
<title>Node16</title>
<g id="a_node16"><a xlink:href="MouseClickEvent_8hpp.html" target="_top" xlink:title=" ">
<polygon fill="white" stroke="black" points="800.54,-168.5 800.54,-198.5 956.54,-198.5 956.54,-168.5 800.54,-168.5"/>
<text text-anchor="start" x="808.54" y="-186.5" font-family="Helvetica,sans-Serif" font-size="10.00">Common/Events/MouseClick</text>
<text text-anchor="middle" x="878.54" y="-175.5" font-family="Helvetica,sans-Serif" font-size="10.00">Event.hpp</text>
</a>
</g>
</g>
<!-- Node1&#45;&gt;Node16 -->
<g id="edge24" class="edge">
<title>Node1&#45;&gt;Node16</title>
<path fill="none" stroke="midnightblue" d="M1345.77,-242.11C1256.54,-233.44 1106.53,-217.99 966.77,-198.98"/>
<polygon fill="midnightblue" stroke="midnightblue" points="967.1,-195.49 956.72,-197.6 966.15,-202.43 967.1,-195.49"/>
</g>
<!-- Node17 -->
<g id="node17" class="node">
<title>Node17</title>
<g id="a_node17"><a xlink:href="KeyBoardEvent_8hpp.html" target="_top" xlink:title=" ">
<polygon fill="white" stroke="black" points="975.04,-174 975.04,-193 1170.04,-193 1170.04,-174 975.04,-174"/>
<text text-anchor="middle" x="1072.54" y="-181" font-family="Helvetica,sans-Serif" font-size="10.00">Common/Events/KeyBoardEvent.hpp</text>
</a>
</g>
</g>
<!-- Node1&#45;&gt;Node17 -->
<g id="edge26" class="edge">
<title>Node1&#45;&gt;Node17</title>
<path fill="none" stroke="midnightblue" d="M1348.6,-235.48C1282.49,-223.27 1188.19,-205.86 1128.69,-194.87"/>
<polygon fill="midnightblue" stroke="midnightblue" points="1129.2,-191.4 1118.73,-193.03 1127.93,-198.29 1129.2,-191.4"/>
</g>
<!-- Node18 -->
<g id="node18" class="node">
<title>Node18</title>
<g id="a_node18"><a xlink:href="MouseMoveEvent_8hpp.html" target="_top" xlink:title=" ">
<polygon fill="white" stroke="black" points="1188.54,-174 1188.54,-193 1396.54,-193 1396.54,-174 1188.54,-174"/>
<text text-anchor="middle" x="1292.54" y="-181" font-family="Helvetica,sans-Serif" font-size="10.00">Common/Events/MouseMoveEvent.hpp</text>
</a>
</g>
</g>
<!-- Node1&#45;&gt;Node18 -->
<g id="edge28" class="edge">
<title>Node1&#45;&gt;Node18</title>
<path fill="none" stroke="midnightblue" d="M1395.9,-235.4C1373.05,-224.14 1341.28,-208.5 1319.02,-197.54"/>
<polygon fill="midnightblue" stroke="midnightblue" points="1320.34,-194.28 1309.82,-193.01 1317.25,-200.56 1320.34,-194.28"/>
</g>
<!-- Node19 -->
<g id="node19" class="node">
<title>Node19</title>
<g id="a_node19"><a xlink:title=" ">
<polygon fill="white" stroke="#bfbfbf" points="1452.54,-174 1452.54,-193 1490.54,-193 1490.54,-174 1452.54,-174"/>
<text text-anchor="middle" x="1471.54" y="-181" font-family="Helvetica,sans-Serif" font-size="10.00">map</text>
</a>
</g>
</g>
<!-- Node1&#45;&gt;Node19 -->
<g id="edge31" class="edge">
<title>Node1&#45;&gt;Node19</title>
<path fill="none" stroke="midnightblue" d="M1434.74,-235.4C1441.93,-225.46 1451.58,-212.11 1459.2,-201.57"/>
<polygon fill="midnightblue" stroke="midnightblue" points="1462.23,-203.35 1465.26,-193.19 1456.56,-199.25 1462.23,-203.35"/>
</g>
<!-- Node20 -->
<g id="node20" class="node">
<title>Node20</title>
<g id="a_node20"><a xlink:title=" ">
<polygon fill="white" stroke="#bfbfbf" points="1509.04,-174 1509.04,-193 1556.04,-193 1556.04,-174 1509.04,-174"/>
<text text-anchor="middle" x="1532.54" y="-181" font-family="Helvetica,sans-Serif" font-size="10.00">vector</text>
</a>
</g>
</g>
<!-- Node1&#45;&gt;Node20 -->
<g id="edge32" class="edge">
<title>Node1&#45;&gt;Node20</title>
<path fill="none" stroke="midnightblue" d="M1447.98,-235.4C1466.26,-224.39 1491.5,-209.2 1509.65,-198.28"/>
<polygon fill="midnightblue" stroke="midnightblue" points="1511.65,-201.16 1518.41,-193.01 1508.04,-195.16 1511.65,-201.16"/>
</g>
<!-- Node21 -->
<g id="node21" class="node">
<title>Node21</title>
<g id="a_node21"><a xlink:title=" ">
<polygon fill="white" stroke="#bfbfbf" points="1574.54,-174 1574.54,-193 1606.54,-193 1606.54,-174 1574.54,-174"/>
<text text-anchor="middle" x="1590.54" y="-181" font-family="Helvetica,sans-Serif" font-size="10.00">set</text>
</a>
</g>
</g>
<!-- Node1&#45;&gt;Node21 -->
<g id="edge33" class="edge">
<title>Node1&#45;&gt;Node21</title>
<path fill="none" stroke="midnightblue" d="M1470.47,-235.4C1498.45,-226.23 1534.65,-213.35 1565.54,-199 1566.24,-198.68 1566.95,-198.34 1567.66,-197.99"/>
<polygon fill="midnightblue" stroke="midnightblue" points="1569.62,-200.91 1576.77,-193.09 1566.3,-194.74 1569.62,-200.91"/>
</g>
<!-- Node22 -->
<g id="node22" class="node">
<title>Node22</title>
<g id="a_node22"><a xlink:title=" ">
<polygon fill="white" stroke="#bfbfbf" points="1625.04,-174 1625.04,-193 1688.04,-193 1688.04,-174 1625.04,-174"/>
<text text-anchor="middle" x="1656.54" y="-181" font-family="Helvetica,sans-Serif" font-size="10.00">ncurses.h</text>
</a>
</g>
</g>
<!-- Node1&#45;&gt;Node22 -->
<g id="edge34" class="edge">
<title>Node1&#45;&gt;Node22</title>
<path fill="none" stroke="midnightblue" d="M1482.56,-235.47C1520.6,-225.95 1571.3,-212.65 1615.54,-199 1618.16,-198.19 1620.86,-197.32 1623.56,-196.43"/>
<polygon fill="midnightblue" stroke="midnightblue" points="1624.91,-199.66 1633.24,-193.11 1622.64,-193.04 1624.91,-199.66"/>
</g>
<!-- Node23 -->
<g id="node23" class="node">
<title>Node23</title>
<g id="a_node23"><a xlink:title=" ">
<polygon fill="white" stroke="#bfbfbf" points="1706.54,-174 1706.54,-193 1756.54,-193 1756.54,-174 1706.54,-174"/>
<text text-anchor="middle" x="1731.54" y="-181" font-family="Helvetica,sans-Serif" font-size="10.00">chrono</text>
</a>
</g>
</g>
<!-- Node1&#45;&gt;Node23 -->
<g id="edge35" class="edge">
<title>Node1&#45;&gt;Node23</title>
<path fill="none" stroke="midnightblue" d="M1503.3,-239.62C1558.43,-231.58 1633.4,-218.35 1697.54,-199 1699.69,-198.35 1701.88,-197.61 1704.07,-196.81"/>
<polygon fill="midnightblue" stroke="midnightblue" points="1705.47,-200.03 1713.47,-193.08 1702.88,-193.52 1705.47,-200.03"/>
</g>
<!-- Node4 -->
<g id="node4" class="node">
<title>Node4</title>
<g id="a_node4"><a xlink:href="Module_8hpp.html" target="_top" xlink:title=" ">
<polygon fill="white" stroke="black" points="57.04,-112.5 57.04,-131.5 178.04,-131.5 178.04,-112.5 57.04,-112.5"/>
<text text-anchor="middle" x="117.54" y="-119.5" font-family="Helvetica,sans-Serif" font-size="10.00">Common/Module.hpp</text>
</a>
</g>
</g>
<!-- Node3&#45;&gt;Node4 -->
<g id="edge3" class="edge">
<title>Node3&#45;&gt;Node4</title>
<path fill="none" stroke="midnightblue" d="M620.9,-175.33C521.69,-166.34 347.88,-150.04 188.24,-132.05"/>
<polygon fill="midnightblue" stroke="midnightblue" points="188.57,-128.56 178.24,-130.92 187.78,-135.52 188.57,-128.56"/>
</g>
<!-- Node6 -->
<g id="node6" class="node">
<title>Node6</title>
<g id="a_node6"><a xlink:href="Line_8hpp.html" target="_top" xlink:title=" ">
<polygon fill="white" stroke="black" points="1002.54,-112.5 1002.54,-131.5 1162.54,-131.5 1162.54,-112.5 1002.54,-112.5"/>
<text text-anchor="middle" x="1082.54" y="-119.5" font-family="Helvetica,sans-Serif" font-size="10.00">Common/Drawables/Line.hpp</text>
</a>
</g>
</g>
<!-- Node3&#45;&gt;Node6 -->
<g id="edge6" class="edge">
<title>Node3&#45;&gt;Node6</title>
<path fill="none" stroke="midnightblue" d="M754.36,-173.93C766.57,-171.97 779.51,-169.9 791.54,-168 868.87,-155.79 957.82,-142.09 1016.81,-133.04"/>
<polygon fill="midnightblue" stroke="midnightblue" points="1017.39,-136.5 1026.74,-131.52 1016.33,-129.58 1017.39,-136.5"/>
</g>
<!-- Node8 -->
<g id="node8" class="node">
<title>Node8</title>
<g id="a_node8"><a xlink:title=" ">
<polygon fill="white" stroke="#bfbfbf" points="1016.54,-0.5 1016.54,-19.5 1074.54,-19.5 1074.54,-0.5 1016.54,-0.5"/>
<text text-anchor="middle" x="1045.54" y="-7.5" font-family="Helvetica,sans-Serif" font-size="10.00">memory</text>
</a>
</g>
</g>
<!-- Node3&#45;&gt;Node8 -->
<g id="edge23" class="edge">
<title>Node3&#45;&gt;Node8</title>
<path fill="none" stroke="midnightblue" d="M750.97,-173.94C764.13,-171.83 778.36,-169.69 791.54,-168 833.61,-162.62 1143,-163.37 1171.54,-132 1209.64,-90.13 1125.21,-45 1076.67,-23.61"/>
<polygon fill="midnightblue" stroke="midnightblue" points="1077.77,-20.28 1067.2,-19.54 1075,-26.71 1077.77,-20.28"/>
</g>
<!-- Node9 -->
<g id="node9" class="node">
<title>Node9</title>
<g id="a_node9"><a xlink:href="Rectangle_8hpp.html" target="_top" xlink:title=" ">
<polygon fill="white" stroke="black" points="610.54,-112.5 610.54,-131.5 798.54,-131.5 798.54,-112.5 610.54,-112.5"/>
<text text-anchor="middle" x="704.54" y="-119.5" font-family="Helvetica,sans-Serif" font-size="10.00">Common/Drawables/Rectangle.hpp</text>
</a>
</g>
</g>
<!-- Node3&#45;&gt;Node9 -->
<g id="edge9" class="edge">
<title>Node3&#45;&gt;Node9</title>
<path fill="none" stroke="midnightblue" d="M701.97,-173.98C702.4,-165.58 703.06,-152.48 703.6,-141.66"/>
<polygon fill="midnightblue" stroke="midnightblue" points="707.11,-141.67 704.12,-131.51 700.12,-141.32 707.11,-141.67"/>
</g>
<!-- Node10 -->
<g id="node10" class="node">
<title>Node10</title>
<g id="a_node10"><a xlink:href="Circle_8hpp.html" target="_top" xlink:title=" ">
<polygon fill="white" stroke="black" points="817.04,-112.5 817.04,-131.5 984.04,-131.5 984.04,-112.5 817.04,-112.5"/>
<text text-anchor="middle" x="900.54" y="-119.5" font-family="Helvetica,sans-Serif" font-size="10.00">Common/Drawables/Circle.hpp</text>
</a>
</g>
</g>
<!-- Node3&#45;&gt;Node10 -->
<g id="edge11" class="edge">
<title>Node3&#45;&gt;Node10</title>
<path fill="none" stroke="midnightblue" d="M730.06,-173.98C764.78,-163.59 823.58,-146.01 862.24,-134.45"/>
<polygon fill="midnightblue" stroke="midnightblue" points="863.51,-137.73 872.09,-131.51 861.5,-131.02 863.51,-137.73"/>
</g>
<!-- Node11 -->
<g id="node11" class="node">
<title>Node11</title>
<g id="a_node11"><a xlink:href="Sprite_8hpp.html" target="_top" xlink:title=" ">
<polygon fill="white" stroke="black" points="424.54,-112.5 424.54,-131.5 592.54,-131.5 592.54,-112.5 424.54,-112.5"/>
<text text-anchor="middle" x="508.54" y="-119.5" font-family="Helvetica,sans-Serif" font-size="10.00">Common/Drawables/Sprite.hpp</text>
</a>
</g>
</g>
<!-- Node3&#45;&gt;Node11 -->
<g id="edge13" class="edge">
<title>Node3&#45;&gt;Node11</title>
<path fill="none" stroke="midnightblue" d="M673.89,-173.98C640.36,-163.64 583.67,-146.16 546.18,-134.6"/>
<polygon fill="midnightblue" stroke="midnightblue" points="546.73,-131.11 536.15,-131.51 544.67,-137.8 546.73,-131.11"/>
</g>
<!-- Node12 -->
<g id="node12" class="node">
<title>Node12</title>
<g id="a_node12"><a xlink:href="Text_8hpp.html" target="_top" xlink:title=" ">
<polygon fill="white" stroke="black" points="246.54,-112.5 246.54,-131.5 406.54,-131.5 406.54,-112.5 246.54,-112.5"/>
<text text-anchor="middle" x="326.54" y="-119.5" font-family="Helvetica,sans-Serif" font-size="10.00">Common/Drawables/Text.hpp</text>
</a>
</g>
</g>
<!-- Node3&#45;&gt;Node12 -->
<g id="edge16" class="edge">
<title>Node3&#45;&gt;Node12</title>
<path fill="none" stroke="midnightblue" d="M647.82,-173.98C579.73,-163.17 462.54,-144.58 390.09,-133.08"/>
<polygon fill="midnightblue" stroke="midnightblue" points="390.6,-129.62 380.17,-131.51 389.5,-136.53 390.6,-129.62"/>
</g>
<!-- Node3&#45;&gt;Node13 -->
<g id="edge19" class="edge">
<title>Node3&#45;&gt;Node13</title>
<path fill="none" stroke="midnightblue" d="M750.5,-173.95C763.79,-171.81 778.19,-169.66 791.54,-168 974.4,-145.33 1021.11,-149.37 1204.54,-132 1205.48,-131.91 1206.42,-131.82 1207.37,-131.73"/>
<polygon fill="midnightblue" stroke="midnightblue" points="1208.04,-135.18 1217.66,-130.74 1207.37,-128.22 1208.04,-135.18"/>
</g>
<!-- Node14 -->
<g id="node14" class="node">
<title>Node14</title>
<g id="a_node14"><a xlink:href="Sound_8hpp.html" target="_top" xlink:title=" ">
<polygon fill="white" stroke="black" points="19.04,-56.5 19.04,-75.5 134.04,-75.5 134.04,-56.5 19.04,-56.5"/>
<text text-anchor="middle" x="76.54" y="-63.5" font-family="Helvetica,sans-Serif" font-size="10.00">Common/Sound.hpp</text>
</a>
</g>
</g>
<!-- Node3&#45;&gt;Node14 -->
<g id="edge20" class="edge">
<title>Node3&#45;&gt;Node14</title>
<path fill="none" stroke="midnightblue" d="M621,-182.26C454.72,-180.92 85.77,-173.29 47.54,-132 34.63,-118.05 47.71,-97.4 60.2,-83.14"/>
<polygon fill="midnightblue" stroke="midnightblue" points="63,-85.26 67.29,-75.57 57.89,-80.48 63,-85.26"/>
</g>
<!-- Node15 -->
<g id="node15" class="node">
<title>Node15</title>
<g id="a_node15"><a xlink:title=" ">
<polygon fill="white" stroke="#bfbfbf" points="196.54,-112.5 196.54,-131.5 228.54,-131.5 228.54,-112.5 196.54,-112.5"/>
<text text-anchor="middle" x="212.54" y="-119.5" font-family="Helvetica,sans-Serif" font-size="10.00">list</text>
</a>
</g>
</g>
<!-- Node3&#45;&gt;Node15 -->
<g id="edge22" class="edge">
<title>Node3&#45;&gt;Node15</title>
<path fill="none" stroke="midnightblue" d="M620.94,-179.52C529.81,-174.85 377.15,-163.11 238.72,-131.76"/>
<polygon fill="midnightblue" stroke="midnightblue" points="239.31,-128.31 228.78,-129.47 237.74,-135.13 239.31,-128.31"/>
</g>
<!-- Node5 -->
<g id="node5" class="node">
<title>Node5</title>
<g id="a_node5"><a xlink:href="ModInfo_8hpp.html" target="_top" xlink:title=" ">
<polygon fill="white" stroke="black" points="152.04,-56.5 152.04,-75.5 277.04,-75.5 277.04,-56.5 152.04,-56.5"/>
<text text-anchor="middle" x="214.54" y="-63.5" font-family="Helvetica,sans-Serif" font-size="10.00">Common/ModInfo.hpp</text>
</a>
</g>
</g>
<!-- Node4&#45;&gt;Node5 -->
<g id="edge4" class="edge">
<title>Node4&#45;&gt;Node5</title>
<path fill="none" stroke="midnightblue" d="M133.13,-112.32C148.54,-103.74 172.36,-90.49 190.25,-80.52"/>
<polygon fill="midnightblue" stroke="midnightblue" points="191.96,-83.58 199,-75.65 188.56,-77.46 191.96,-83.58"/>
</g>
<!-- Node5&#45;&gt;Node2 -->
<g id="edge5" class="edge">
<title>Node5&#45;&gt;Node2</title>
<path fill="none" stroke="midnightblue" d="M214.54,-56.08C214.54,-49.01 214.54,-38.86 214.54,-29.99"/>
<polygon fill="midnightblue" stroke="midnightblue" points="218.04,-29.75 214.54,-19.75 211.04,-29.75 218.04,-29.75"/>
</g>
<!-- Node7 -->
<g id="node7" class="node">
<title>Node7</title>
<g id="a_node7"><a xlink:href="ADrawable_8hpp.html" target="_top" xlink:title=" ">
<polygon fill="white" stroke="black" points="706.04,-56.5 706.04,-75.5 899.04,-75.5 899.04,-56.5 706.04,-56.5"/>
<text text-anchor="middle" x="802.54" y="-63.5" font-family="Helvetica,sans-Serif" font-size="10.00">Common/Drawables/ADrawable.hpp</text>
</a>
</g>
</g>
<!-- Node6&#45;&gt;Node7 -->
<g id="edge7" class="edge">
<title>Node6&#45;&gt;Node7</title>
<path fill="none" stroke="midnightblue" d="M1038.18,-112.44C988.92,-102.94 909.42,-87.61 856.57,-77.42"/>
<polygon fill="midnightblue" stroke="midnightblue" points="857.19,-73.97 846.7,-75.52 855.86,-80.85 857.19,-73.97"/>
</g>
<!-- Node7&#45;&gt;Node8 -->
<g id="edge8" class="edge">
<title>Node7&#45;&gt;Node8</title>
<path fill="none" stroke="midnightblue" d="M841.05,-56.44C886.34,-46.38 961.09,-29.77 1006.58,-19.66"/>
<polygon fill="midnightblue" stroke="midnightblue" points="1007.37,-23.07 1016.37,-17.48 1005.85,-16.24 1007.37,-23.07"/>
</g>
<!-- Node9&#45;&gt;Node7 -->
<g id="edge10" class="edge">
<title>Node9&#45;&gt;Node7</title>
<path fill="none" stroke="midnightblue" d="M720.29,-112.32C735.86,-103.74 759.92,-90.49 778,-80.52"/>
<polygon fill="midnightblue" stroke="midnightblue" points="779.77,-83.55 786.84,-75.65 776.39,-77.42 779.77,-83.55"/>
</g>
<!-- Node10&#45;&gt;Node7 -->
<g id="edge12" class="edge">
<title>Node10&#45;&gt;Node7</title>
<path fill="none" stroke="midnightblue" d="M884.8,-112.32C869.23,-103.74 845.17,-90.49 827.08,-80.52"/>
<polygon fill="midnightblue" stroke="midnightblue" points="828.7,-77.42 818.25,-75.65 825.32,-83.55 828.7,-77.42"/>
</g>
<!-- Node11&#45;&gt;Node2 -->
<g id="edge15" class="edge">
<title>Node11&#45;&gt;Node2</title>
<path fill="none" stroke="midnightblue" d="M485.47,-112.37C433.27,-92.83 305.97,-45.21 246.34,-22.9"/>
<polygon fill="midnightblue" stroke="midnightblue" points="247.29,-19.52 236.7,-19.29 244.84,-26.07 247.29,-19.52"/>
</g>
<!-- Node11&#45;&gt;Node7 -->
<g id="edge14" class="edge">
<title>Node11&#45;&gt;Node7</title>
<path fill="none" stroke="midnightblue" d="M555.13,-112.44C606.95,-102.92 690.68,-87.55 746.16,-77.36"/>
<polygon fill="midnightblue" stroke="midnightblue" points="746.97,-80.77 756.18,-75.52 745.71,-73.88 746.97,-80.77"/>
</g>
<!-- Node12&#45;&gt;Node2 -->
<g id="edge18" class="edge">
<title>Node12&#45;&gt;Node2</title>
<path fill="none" stroke="midnightblue" d="M322.71,-112.14C316.59,-98.75 303.54,-73.11 286.54,-56 273.68,-43.04 256.41,-32.09 242,-24.24"/>
<polygon fill="midnightblue" stroke="midnightblue" points="243.51,-21.07 233.03,-19.53 240.26,-27.27 243.51,-21.07"/>
</g>
<!-- Node12&#45;&gt;Node7 -->
<g id="edge17" class="edge">
<title>Node12&#45;&gt;Node7</title>
<path fill="none" stroke="midnightblue" d="M401.71,-112.47C487.47,-102.74 627.44,-86.86 717.23,-76.68"/>
<polygon fill="midnightblue" stroke="midnightblue" points="717.84,-80.13 727.39,-75.53 717.05,-73.18 717.84,-80.13"/>
</g>
<!-- Node14&#45;&gt;Node2 -->
<g id="edge21" class="edge">
<title>Node14&#45;&gt;Node2</title>
<path fill="none" stroke="midnightblue" d="M98.41,-56.44C121.32,-47.48 157.52,-33.31 183.41,-23.18"/>
<polygon fill="midnightblue" stroke="midnightblue" points="184.74,-26.42 192.78,-19.52 182.19,-19.9 184.74,-26.42"/>
</g>
<!-- Node16&#45;&gt;Node13 -->
<g id="edge25" class="edge">
<title>Node16&#45;&gt;Node13</title>
<path fill="none" stroke="midnightblue" d="M956.74,-169.51C960.05,-168.99 963.33,-168.49 966.54,-168 1052.38,-155.01 1151.17,-141.58 1217.3,-132.82"/>
<polygon fill="midnightblue" stroke="midnightblue" points="1217.76,-136.29 1227.22,-131.51 1216.85,-129.35 1217.76,-136.29"/>
</g>
<!-- Node17&#45;&gt;Node13 -->
<g id="edge27" class="edge">
<title>Node17&#45;&gt;Node13</title>
<path fill="none" stroke="midnightblue" d="M1104.06,-173.98C1142.78,-163.5 1208.57,-145.71 1251.28,-134.16"/>
<polygon fill="midnightblue" stroke="midnightblue" points="1252.34,-137.5 1261.08,-131.51 1250.52,-130.74 1252.34,-137.5"/>
</g>
<!-- Node18&#45;&gt;Node13 -->
<g id="edge29" class="edge">
<title>Node18&#45;&gt;Node13</title>
<path fill="none" stroke="midnightblue" d="M1292.54,-173.98C1292.54,-165.58 1292.54,-152.48 1292.54,-141.66"/>
<polygon fill="midnightblue" stroke="midnightblue" points="1296.04,-141.51 1292.54,-131.51 1289.04,-141.51 1296.04,-141.51"/>
</g>
</g>
</svg>
