<?xml version="1.0" encoding="UTF-8" standalone="no"?>
<!DOCTYPE svg PUBLIC "-//W3C//DTD SVG 1.1//EN"
 "http://www.w3.org/Graphics/SVG/1.1/DTD/svg11.dtd">
<!-- Generated by graphviz version 2.43.0 (0)
 -->
<!-- Title: sources/DisplayModules/Ncurses/NcursesDisplay.cpp Pages: 1 -->
<svg width="1575pt" height="330pt"
 viewBox="0.00 0.00 1575.00 330.00" xmlns="http://www.w3.org/2000/svg" xmlns:xlink="http://www.w3.org/1999/xlink">
<g id="graph0" class="graph" transform="scale(1 1) rotate(0) translate(4 326)">
<title>sources/DisplayModules/Ncurses/NcursesDisplay.cpp</title>
<polygon fill="white" stroke="transparent" points="-4,4 -4,-326 1571,-326 1571,4 -4,4"/>
<!-- Node1 -->
<g id="node1" class="node">
<title>Node1</title>
<g id="a_node1"><a xlink:title=" ">
<polygon fill="#bfbfbf" stroke="black" points="1044.5,-291.5 1044.5,-321.5 1200.5,-321.5 1200.5,-291.5 1044.5,-291.5"/>
<text text-anchor="start" x="1052.5" y="-309.5" font-family="Helvetica,sans-Serif" font-size="10.00">sources/DisplayModules</text>
<text text-anchor="middle" x="1122.5" y="-298.5" font-family="Helvetica,sans-Serif" font-size="10.00">/Ncurses/NcursesDisplay.cpp</text>
</a>
</g>
</g>
<!-- Node2 -->
<g id="node2" class="node">
<title>Node2</title>
<g id="a_node2"><a xlink:href="NcursesDisplay_8hpp.html" target="_top" xlink:title=" ">
<polygon fill="white" stroke="black" points="812.5,-235.5 812.5,-254.5 924.5,-254.5 924.5,-235.5 812.5,-235.5"/>
<text text-anchor="middle" x="868.5" y="-242.5" font-family="Helvetica,sans-Serif" font-size="10.00">NcursesDisplay.hpp</text>
</a>
</g>
</g>
<!-- Node1&#45;&gt;Node2 -->
<g id="edge1" class="edge">
<title>Node1&#45;&gt;Node2</title>
<path fill="none" stroke="midnightblue" d="M1062.63,-291.47C1017.37,-280.87 956.16,-266.53 914.66,-256.81"/>
<polygon fill="midnightblue" stroke="midnightblue" points="915.35,-253.38 904.81,-254.51 913.75,-260.19 915.35,-253.38"/>
</g>
<!-- Node6 -->
<g id="node6" class="node">
<title>Node6</title>
<g id="a_node6"><a xlink:href="ModInfo_8hpp.html" target="_top" xlink:title=" ">
<polygon fill="white" stroke="black" points="1264,-56.5 1264,-75.5 1389,-75.5 1389,-56.5 1264,-56.5"/>
<text text-anchor="middle" x="1326.5" y="-63.5" font-family="Helvetica,sans-Serif" font-size="10.00">Common/ModInfo.hpp</text>
</a>
</g>
</g>
<!-- Node1&#45;&gt;Node6 -->
<g id="edge45" class="edge">
<title>Node1&#45;&gt;Node6</title>
<path fill="none" stroke="midnightblue" d="M1169.25,-291.44C1233.47,-269.29 1346.5,-219.55 1394.5,-132 1406.3,-110.48 1380.81,-91.82 1357.74,-80.09"/>
<polygon fill="midnightblue" stroke="midnightblue" points="1358.98,-76.8 1348.45,-75.64 1355.96,-83.11 1358.98,-76.8"/>
</g>
<!-- Node14 -->
<g id="node14" class="node">
<title>Node14</title>
<g id="a_node14"><a xlink:href="Event_8hpp.html" target="_top" xlink:title=" ">
<polygon fill="white" stroke="black" points="0,-112.5 0,-131.5 149,-131.5 149,-112.5 0,-112.5"/>
<text text-anchor="middle" x="74.5" y="-119.5" font-family="Helvetica,sans-Serif" font-size="10.00">Common/Events/Event.hpp</text>
</a>
</g>
</g>
<!-- Node1&#45;&gt;Node14 -->
<g id="edge44" class="edge">
<title>Node1&#45;&gt;Node14</title>
<path fill="none" stroke="midnightblue" d="M1044.15,-303.58C810.58,-297.05 131.24,-271.89 66.5,-199 52.64,-183.39 58.84,-158.26 65.68,-141.21"/>
<polygon fill="midnightblue" stroke="midnightblue" points="69,-142.35 69.84,-131.79 62.59,-139.52 69,-142.35"/>
</g>
<!-- Node17 -->
<g id="node17" class="node">
<title>Node17</title>
<g id="a_node17"><a xlink:href="MouseClickEvent_8hpp.html" target="_top" xlink:title=" ">
<polygon fill="white" stroke="black" points="289.5,-168.5 289.5,-198.5 445.5,-198.5 445.5,-168.5 289.5,-168.5"/>
<text text-anchor="start" x="297.5" y="-186.5" font-family="Helvetica,sans-Serif" font-size="10.00">Common/Events/MouseClick</text>
<text text-anchor="middle" x="367.5" y="-175.5" font-family="Helvetica,sans-Serif" font-size="10.00">Event.hpp</text>
</a>
</g>
</g>
<!-- Node1&#45;&gt;Node17 -->
<g id="edge42" class="edge">
<title>Node1&#45;&gt;Node17</title>
<path fill="none" stroke="midnightblue" d="M1044.48,-293.22C979.89,-283.04 885.72,-268.16 803.5,-255 683.02,-235.72 543.87,-213.17 455.81,-198.87"/>
<polygon fill="midnightblue" stroke="midnightblue" points="456.29,-195.4 445.86,-197.25 455.16,-202.31 456.29,-195.4"/>
</g>
<!-- Node18 -->
<g id="node18" class="node">
<title>Node18</title>
<g id="a_node18"><a xlink:href="KeyBoardEvent_8hpp.html" target="_top" xlink:title=" ">
<polygon fill="white" stroke="black" points="76,-174 76,-193 271,-193 271,-174 76,-174"/>
<text text-anchor="middle" x="173.5" y="-181" font-family="Helvetica,sans-Serif" font-size="10.00">Common/Events/KeyBoardEvent.hpp</text>
</a>
</g>
</g>
<!-- Node1&#45;&gt;Node18 -->
<g id="edge43" class="edge">
<title>Node1&#45;&gt;Node18</title>
<path fill="none" stroke="midnightblue" d="M1044.19,-297.14C955.78,-287.56 807.69,-271.11 680.5,-255 523.18,-235.08 338.86,-208.68 241.6,-194.51"/>
<polygon fill="midnightblue" stroke="midnightblue" points="242.01,-191.03 231.61,-193.05 241,-197.96 242.01,-191.03"/>
</g>
<!-- Node22 -->
<g id="node22" class="node">
<title>Node22</title>
<g id="a_node22"><a xlink:title=" ">
<polygon fill="white" stroke="#bfbfbf" points="1066.5,-174 1066.5,-193 1098.5,-193 1098.5,-174 1066.5,-174"/>
<text text-anchor="middle" x="1082.5" y="-181" font-family="Helvetica,sans-Serif" font-size="10.00">set</text>
</a>
</g>
</g>
<!-- Node1&#45;&gt;Node22 -->
<g id="edge41" class="edge">
<title>Node1&#45;&gt;Node22</title>
<path fill="none" stroke="midnightblue" d="M1117.75,-291.14C1110.47,-269.1 1096.53,-226.95 1088.54,-202.76"/>
<polygon fill="midnightblue" stroke="midnightblue" points="1091.79,-201.45 1085.33,-193.05 1085.14,-203.65 1091.79,-201.45"/>
</g>
<!-- Node23 -->
<g id="node23" class="node">
<title>Node23</title>
<g id="a_node23"><a xlink:title=" ">
<polygon fill="white" stroke="#bfbfbf" points="1117,-174 1117,-193 1180,-193 1180,-174 1117,-174"/>
<text text-anchor="middle" x="1148.5" y="-181" font-family="Helvetica,sans-Serif" font-size="10.00">ncurses.h</text>
</a>
</g>
</g>
<!-- Node1&#45;&gt;Node23 -->
<g id="edge37" class="edge">
<title>Node1&#45;&gt;Node23</title>
<path fill="none" stroke="midnightblue" d="M1125.58,-291.14C1130.3,-269.2 1139.3,-227.33 1144.51,-203.09"/>
<polygon fill="midnightblue" stroke="midnightblue" points="1147.98,-203.56 1146.66,-193.05 1141.14,-202.09 1147.98,-203.56"/>
</g>
<!-- Node24 -->
<g id="node24" class="node">
<title>Node24</title>
<g id="a_node24"><a xlink:title=" ">
<polygon fill="white" stroke="#bfbfbf" points="1198.5,-174 1198.5,-193 1248.5,-193 1248.5,-174 1198.5,-174"/>
<text text-anchor="middle" x="1223.5" y="-181" font-family="Helvetica,sans-Serif" font-size="10.00">chrono</text>
</a>
</g>
</g>
<!-- Node1&#45;&gt;Node24 -->
<g id="edge40" class="edge">
<title>Node1&#45;&gt;Node24</title>
<path fill="none" stroke="midnightblue" d="M1134.48,-291.14C1153.38,-268.51 1189.98,-224.65 1209.86,-200.84"/>
<polygon fill="midnightblue" stroke="midnightblue" points="1212.64,-202.97 1216.36,-193.05 1207.27,-198.49 1212.64,-202.97"/>
</g>
<!-- Node25 -->
<g id="node25" class="node">
<title>Node25</title>
<g id="a_node25"><a xlink:title=" ">
<polygon fill="white" stroke="#bfbfbf" points="1441.5,-235.5 1441.5,-254.5 1501.5,-254.5 1501.5,-235.5 1441.5,-235.5"/>
<text text-anchor="middle" x="1471.5" y="-242.5" font-family="Helvetica,sans-Serif" font-size="10.00">iostream</text>
</a>
</g>
</g>
<!-- Node1&#45;&gt;Node25 -->
<g id="edge38" class="edge">
<title>Node1&#45;&gt;Node25</title>
<path fill="none" stroke="midnightblue" d="M1200.68,-293.39C1262.38,-283.63 1350.58,-269.23 1427.5,-255 1428.75,-254.77 1430.02,-254.53 1431.3,-254.29"/>
<polygon fill="midnightblue" stroke="midnightblue" points="1432.09,-257.7 1441.23,-252.35 1430.75,-250.83 1432.09,-257.7"/>
</g>
<!-- Node26 -->
<g id="node26" class="node">
<title>Node26</title>
<g id="a_node26"><a xlink:title=" ">
<polygon fill="white" stroke="#bfbfbf" points="1520,-235.5 1520,-254.5 1567,-254.5 1567,-235.5 1520,-235.5"/>
<text text-anchor="middle" x="1543.5" y="-242.5" font-family="Helvetica,sans-Serif" font-size="10.00">cmath</text>
</a>
</g>
</g>
<!-- Node1&#45;&gt;Node26 -->
<g id="edge39" class="edge">
<title>Node1&#45;&gt;Node26</title>
<path fill="none" stroke="midnightblue" d="M1200.68,-298.5C1277.17,-290.92 1397.07,-277.14 1509.95,-254.85"/>
<polygon fill="midnightblue" stroke="midnightblue" points="1510.68,-258.27 1519.8,-252.88 1509.31,-251.41 1510.68,-258.27"/>
</g>
<!-- Node3 -->
<g id="node3" class="node">
<title>Node3</title>
<g id="a_node3"><a xlink:title=" ">
<polygon fill="white" stroke="#bfbfbf" points="1127.5,-0.5 1127.5,-19.5 1171.5,-19.5 1171.5,-0.5 1127.5,-0.5"/>
<text text-anchor="middle" x="1149.5" y="-7.5" font-family="Helvetica,sans-Serif" font-size="10.00">string</text>
</a>
</g>
</g>
<!-- Node2&#45;&gt;Node3 -->
<g id="edge2" class="edge">
<title>Node2&#45;&gt;Node3</title>
<path fill="none" stroke="midnightblue" d="M912.54,-235.44C943.36,-228.35 984.89,-216.57 1018.5,-199 1038.12,-188.75 1037.7,-177.91 1057.5,-168 1113.79,-139.81 1147.78,-174.19 1194.5,-132 1220.51,-108.51 1231.87,-86.98 1215.5,-56 1208.02,-41.85 1193.88,-31.32 1180.6,-24.01"/>
<polygon fill="midnightblue" stroke="midnightblue" points="1182.14,-20.87 1171.63,-19.47 1178.97,-27.11 1182.14,-20.87"/>
</g>
<!-- Node4 -->
<g id="node4" class="node">
<title>Node4</title>
<g id="a_node4"><a xlink:href="IDisplayModule_8hpp.html" target="_top" xlink:title=" ">
<polygon fill="white" stroke="black" points="849,-174 849,-193 1010,-193 1010,-174 849,-174"/>
<text text-anchor="middle" x="929.5" y="-181" font-family="Helvetica,sans-Serif" font-size="10.00">Common/IDisplayModule.hpp</text>
</a>
</g>
</g>
<!-- Node2&#45;&gt;Node4 -->
<g id="edge3" class="edge">
<title>Node2&#45;&gt;Node4</title>
<path fill="none" stroke="midnightblue" d="M877.24,-235.48C886.66,-226.28 901.86,-211.46 913.45,-200.16"/>
<polygon fill="midnightblue" stroke="midnightblue" points="916.06,-202.5 920.78,-193.01 911.17,-197.49 916.06,-202.5"/>
</g>
<!-- Node2&#45;&gt;Node14 -->
<g id="edge31" class="edge">
<title>Node2&#45;&gt;Node14</title>
<path fill="none" stroke="midnightblue" d="M812.14,-239C714.44,-230.08 521.24,-211.21 492.5,-199 472.44,-190.48 474.57,-176.51 454.5,-168 441.08,-162.31 267.3,-143.25 159.45,-131.85"/>
<polygon fill="midnightblue" stroke="midnightblue" points="159.54,-128.34 149.23,-130.77 158.81,-135.3 159.54,-128.34"/>
</g>
<!-- Node2&#45;&gt;Node17 -->
<g id="edge25" class="edge">
<title>Node2&#45;&gt;Node17</title>
<path fill="none" stroke="midnightblue" d="M812.5,-238.68C733.62,-230.98 585.36,-215.83 459.5,-199 458.24,-198.83 456.97,-198.66 455.69,-198.48"/>
<polygon fill="midnightblue" stroke="midnightblue" points="456.15,-195.01 445.76,-197.09 455.18,-201.95 456.15,-195.01"/>
</g>
<!-- Node2&#45;&gt;Node18 -->
<g id="edge27" class="edge">
<title>Node2&#45;&gt;Node18</title>
<path fill="none" stroke="midnightblue" d="M812.46,-240.8C707.78,-234.59 475.47,-219.65 280.5,-199 268,-197.68 254.7,-196.05 241.89,-194.37"/>
<polygon fill="midnightblue" stroke="midnightblue" points="242.11,-190.87 231.73,-193.02 241.18,-197.81 242.11,-190.87"/>
</g>
<!-- Node19 -->
<g id="node19" class="node">
<title>Node19</title>
<g id="a_node19"><a xlink:href="MouseMoveEvent_8hpp.html" target="_top" xlink:title=" ">
<polygon fill="white" stroke="black" points="501.5,-174 501.5,-193 709.5,-193 709.5,-174 501.5,-174"/>
<text text-anchor="middle" x="605.5" y="-181" font-family="Helvetica,sans-Serif" font-size="10.00">Common/Events/MouseMoveEvent.hpp</text>
</a>
</g>
</g>
<!-- Node2&#45;&gt;Node19 -->
<g id="edge29" class="edge">
<title>Node2&#45;&gt;Node19</title>
<path fill="none" stroke="midnightblue" d="M830.82,-235.48C783.95,-224.87 703.89,-206.76 652.9,-195.22"/>
<polygon fill="midnightblue" stroke="midnightblue" points="653.64,-191.8 643.11,-193.01 652.09,-198.63 653.64,-191.8"/>
</g>
<!-- Node20 -->
<g id="node20" class="node">
<title>Node20</title>
<g id="a_node20"><a xlink:title=" ">
<polygon fill="white" stroke="#bfbfbf" points="727.5,-174 727.5,-193 765.5,-193 765.5,-174 727.5,-174"/>
<text text-anchor="middle" x="746.5" y="-181" font-family="Helvetica,sans-Serif" font-size="10.00">map</text>
</a>
</g>
</g>
<!-- Node2&#45;&gt;Node20 -->
<g id="edge32" class="edge">
<title>Node2&#45;&gt;Node20</title>
<path fill="none" stroke="midnightblue" d="M850.05,-235.37C831.03,-226.44 800.57,-211.99 774.5,-199 773.66,-198.58 772.81,-198.16 771.96,-197.73"/>
<polygon fill="midnightblue" stroke="midnightblue" points="773.24,-194.45 762.74,-193.02 770.06,-200.69 773.24,-194.45"/>
</g>
<!-- Node21 -->
<g id="node21" class="node">
<title>Node21</title>
<g id="a_node21"><a xlink:title=" ">
<polygon fill="white" stroke="#bfbfbf" points="784,-174 784,-193 831,-193 831,-174 784,-174"/>
<text text-anchor="middle" x="807.5" y="-181" font-family="Helvetica,sans-Serif" font-size="10.00">vector</text>
</a>
</g>
</g>
<!-- Node2&#45;&gt;Node21 -->
<g id="edge33" class="edge">
<title>Node2&#45;&gt;Node21</title>
<path fill="none" stroke="midnightblue" d="M859.76,-235.48C850.34,-226.28 835.14,-211.46 823.55,-200.16"/>
<polygon fill="midnightblue" stroke="midnightblue" points="825.83,-197.49 816.22,-193.01 820.94,-202.5 825.83,-197.49"/>
</g>
<!-- Node2&#45;&gt;Node22 -->
<g id="edge34" class="edge">
<title>Node2&#45;&gt;Node22</title>
<path fill="none" stroke="midnightblue" d="M915.04,-235.44C952.72,-227.85 1006.85,-215.41 1052.5,-199 1053.93,-198.49 1055.38,-197.93 1056.83,-197.33"/>
<polygon fill="midnightblue" stroke="midnightblue" points="1058.56,-200.39 1066.26,-193.12 1055.71,-194 1058.56,-200.39"/>
</g>
<!-- Node2&#45;&gt;Node23 -->
<g id="edge35" class="edge">
<title>Node2&#45;&gt;Node23</title>
<path fill="none" stroke="midnightblue" d="M924.58,-235.94C973.37,-228.34 1045.73,-215.63 1107.5,-199 1110.47,-198.2 1113.53,-197.29 1116.57,-196.32"/>
<polygon fill="midnightblue" stroke="midnightblue" points="1117.78,-199.61 1126.14,-193.11 1115.55,-192.98 1117.78,-199.61"/>
</g>
<!-- Node2&#45;&gt;Node24 -->
<g id="edge36" class="edge">
<title>Node2&#45;&gt;Node24</title>
<path fill="none" stroke="midnightblue" d="M924.5,-240.64C989.29,-235.72 1098.69,-224.25 1189.5,-199 1191.8,-198.36 1194.14,-197.6 1196.47,-196.77"/>
<polygon fill="midnightblue" stroke="midnightblue" points="1197.8,-200.01 1205.82,-193.08 1195.23,-193.5 1197.8,-200.01"/>
</g>
<!-- Node5 -->
<g id="node5" class="node">
<title>Node5</title>
<g id="a_node5"><a xlink:href="Module_8hpp.html" target="_top" xlink:title=" ">
<polygon fill="white" stroke="black" points="1264,-112.5 1264,-131.5 1385,-131.5 1385,-112.5 1264,-112.5"/>
<text text-anchor="middle" x="1324.5" y="-119.5" font-family="Helvetica,sans-Serif" font-size="10.00">Common/Module.hpp</text>
</a>
</g>
</g>
<!-- Node4&#45;&gt;Node5 -->
<g id="edge4" class="edge">
<title>Node4&#45;&gt;Node5</title>
<path fill="none" stroke="midnightblue" d="M986.09,-173.98C1057.96,-163.15 1181.75,-144.5 1258.03,-133.01"/>
<polygon fill="midnightblue" stroke="midnightblue" points="1258.64,-136.46 1268.01,-131.51 1257.6,-129.54 1258.64,-136.46"/>
</g>
<!-- Node7 -->
<g id="node7" class="node">
<title>Node7</title>
<g id="a_node7"><a xlink:href="Line_8hpp.html" target="_top" xlink:title=" ">
<polygon fill="white" stroke="black" points="204.5,-112.5 204.5,-131.5 364.5,-131.5 364.5,-112.5 204.5,-112.5"/>
<text text-anchor="middle" x="284.5" y="-119.5" font-family="Helvetica,sans-Serif" font-size="10.00">Common/Drawables/Line.hpp</text>
</a>
</g>
</g>
<!-- Node4&#45;&gt;Node7 -->
<g id="edge7" class="edge">
<title>Node4&#45;&gt;Node7</title>
<path fill="none" stroke="midnightblue" d="M881.03,-173.94C867.61,-171.77 853.02,-169.61 839.5,-168 636.45,-143.84 582.1,-150.24 374.55,-132.07"/>
<polygon fill="midnightblue" stroke="midnightblue" points="374.81,-128.58 364.55,-131.18 374.2,-135.55 374.81,-128.58"/>
</g>
<!-- Node9 -->
<g id="node9" class="node">
<title>Node9</title>
<g id="a_node9"><a xlink:title=" ">
<polygon fill="white" stroke="#bfbfbf" points="293.5,-0.5 293.5,-19.5 351.5,-19.5 351.5,-0.5 293.5,-0.5"/>
<text text-anchor="middle" x="322.5" y="-7.5" font-family="Helvetica,sans-Serif" font-size="10.00">memory</text>
</a>
</g>
</g>
<!-- Node4&#45;&gt;Node9 -->
<g id="edge24" class="edge">
<title>Node4&#45;&gt;Node9</title>
<path fill="none" stroke="midnightblue" d="M882.45,-173.97C868.65,-171.73 853.5,-169.52 839.5,-168 768.25,-160.29 244.74,-184.07 195.5,-132 156.36,-90.62 242.2,-45.12 291.29,-23.6"/>
<polygon fill="midnightblue" stroke="midnightblue" points="292.76,-26.78 300.57,-19.63 290,-20.35 292.76,-26.78"/>
</g>
<!-- Node10 -->
<g id="node10" class="node">
<title>Node10</title>
<g id="a_node10"><a xlink:href="Rectangle_8hpp.html" target="_top" xlink:title=" ">
<polygon fill="white" stroke="black" points="617.5,-112.5 617.5,-131.5 805.5,-131.5 805.5,-112.5 617.5,-112.5"/>
<text text-anchor="middle" x="711.5" y="-119.5" font-family="Helvetica,sans-Serif" font-size="10.00">Common/Drawables/Rectangle.hpp</text>
</a>
</g>
</g>
<!-- Node4&#45;&gt;Node10 -->
<g id="edge10" class="edge">
<title>Node4&#45;&gt;Node10</title>
<path fill="none" stroke="midnightblue" d="M898.27,-173.98C859.9,-163.5 794.71,-145.71 752.39,-134.16"/>
<polygon fill="midnightblue" stroke="midnightblue" points="753.24,-130.77 742.68,-131.51 751.4,-137.52 753.24,-130.77"/>
</g>
<!-- Node11 -->
<g id="node11" class="node">
<title>Node11</title>
<g id="a_node11"><a xlink:href="Circle_8hpp.html" target="_top" xlink:title=" ">
<polygon fill="white" stroke="black" points="383,-112.5 383,-131.5 550,-131.5 550,-112.5 383,-112.5"/>
<text text-anchor="middle" x="466.5" y="-119.5" font-family="Helvetica,sans-Serif" font-size="10.00">Common/Drawables/Circle.hpp</text>
</a>
</g>
</g>
<!-- Node4&#45;&gt;Node11 -->
<g id="edge12" class="edge">
<title>Node4&#45;&gt;Node11</title>
<path fill="none" stroke="midnightblue" d="M878.62,-173.94C865.87,-171.9 852.19,-169.79 839.5,-168 742.3,-154.31 630.48,-141.17 554.81,-132.66"/>
<polygon fill="midnightblue" stroke="midnightblue" points="555.17,-129.17 544.85,-131.54 554.39,-136.13 555.17,-129.17"/>
</g>
<!-- Node12 -->
<g id="node12" class="node">
<title>Node12</title>
<g id="a_node12"><a xlink:href="Sprite_8hpp.html" target="_top" xlink:title=" ">
<polygon fill="white" stroke="black" points="1001.5,-112.5 1001.5,-131.5 1169.5,-131.5 1169.5,-112.5 1001.5,-112.5"/>
<text text-anchor="middle" x="1085.5" y="-119.5" font-family="Helvetica,sans-Serif" font-size="10.00">Common/Drawables/Sprite.hpp</text>
</a>
</g>
</g>
<!-- Node4&#45;&gt;Node12 -->
<g id="edge14" class="edge">
<title>Node4&#45;&gt;Node12</title>
<path fill="none" stroke="midnightblue" d="M951.85,-173.98C978.49,-163.81 1023.21,-146.76 1053.51,-135.2"/>
<polygon fill="midnightblue" stroke="midnightblue" points="1055.09,-138.34 1063.19,-131.51 1052.6,-131.8 1055.09,-138.34"/>
</g>
<!-- Node13 -->
<g id="node13" class="node">
<title>Node13</title>
<g id="a_node13"><a xlink:href="Text_8hpp.html" target="_top" xlink:title=" ">
<polygon fill="white" stroke="black" points="823.5,-112.5 823.5,-131.5 983.5,-131.5 983.5,-112.5 823.5,-112.5"/>
<text text-anchor="middle" x="903.5" y="-119.5" font-family="Helvetica,sans-Serif" font-size="10.00">Common/Drawables/Text.hpp</text>
</a>
</g>
</g>
<!-- Node4&#45;&gt;Node13 -->
<g id="edge17" class="edge">
<title>Node4&#45;&gt;Node13</title>
<path fill="none" stroke="midnightblue" d="M925.77,-173.98C922.03,-165.4 916.14,-151.93 911.36,-140.98"/>
<polygon fill="midnightblue" stroke="midnightblue" points="914.43,-139.27 907.22,-131.51 908.02,-142.07 914.43,-139.27"/>
</g>
<!-- Node4&#45;&gt;Node14 -->
<g id="edge20" class="edge">
<title>Node4&#45;&gt;Node14</title>
<path fill="none" stroke="midnightblue" d="M882.45,-173.95C868.65,-171.7 853.51,-169.5 839.5,-168 539.89,-135.99 462.91,-155.34 162.5,-132 161.56,-131.93 160.62,-131.85 159.67,-131.78"/>
<polygon fill="midnightblue" stroke="midnightblue" points="159.63,-128.26 149.37,-130.91 159.04,-135.24 159.63,-128.26"/>
</g>
<!-- Node15 -->
<g id="node15" class="node">
<title>Node15</title>
<g id="a_node15"><a xlink:href="Sound_8hpp.html" target="_top" xlink:title=" ">
<polygon fill="white" stroke="black" points="1092,-56.5 1092,-75.5 1207,-75.5 1207,-56.5 1092,-56.5"/>
<text text-anchor="middle" x="1149.5" y="-63.5" font-family="Helvetica,sans-Serif" font-size="10.00">Common/Sound.hpp</text>
</a>
</g>
</g>
<!-- Node4&#45;&gt;Node15 -->
<g id="edge21" class="edge">
<title>Node4&#45;&gt;Node15</title>
<path fill="none" stroke="midnightblue" d="M979.76,-173.97C1050.66,-161.71 1172.19,-139.72 1178.5,-132 1190.4,-117.45 1177.91,-97.23 1165.82,-83.23"/>
<polygon fill="midnightblue" stroke="midnightblue" points="1168.3,-80.75 1158.94,-75.79 1163.16,-85.51 1168.3,-80.75"/>
</g>
<!-- Node16 -->
<g id="node16" class="node">
<title>Node16</title>
<g id="a_node16"><a xlink:title=" ">
<polygon fill="white" stroke="#bfbfbf" points="567.5,-112.5 567.5,-131.5 599.5,-131.5 599.5,-112.5 567.5,-112.5"/>
<text text-anchor="middle" x="583.5" y="-119.5" font-family="Helvetica,sans-Serif" font-size="10.00">list</text>
</a>
</g>
</g>
<!-- Node4&#45;&gt;Node16 -->
<g id="edge23" class="edge">
<title>Node4&#45;&gt;Node16</title>
<path fill="none" stroke="midnightblue" d="M876.68,-173.94C864.47,-171.98 851.54,-169.91 839.5,-168 739.98,-152.23 710.92,-157.37 609.48,-131.84"/>
<polygon fill="midnightblue" stroke="midnightblue" points="610.32,-128.45 599.77,-129.36 608.59,-135.23 610.32,-128.45"/>
</g>
<!-- Node5&#45;&gt;Node6 -->
<g id="edge5" class="edge">
<title>Node5&#45;&gt;Node6</title>
<path fill="none" stroke="midnightblue" d="M1324.83,-112.08C1325.09,-105.01 1325.47,-94.86 1325.8,-85.99"/>
<polygon fill="midnightblue" stroke="midnightblue" points="1329.3,-85.87 1326.18,-75.75 1322.31,-85.61 1329.3,-85.87"/>
</g>
<!-- Node6&#45;&gt;Node3 -->
<g id="edge6" class="edge">
<title>Node6&#45;&gt;Node3</title>
<path fill="none" stroke="midnightblue" d="M1298.45,-56.44C1266.56,-46.71 1214.61,-30.86 1181.26,-20.69"/>
<polygon fill="midnightblue" stroke="midnightblue" points="1182.13,-17.3 1171.54,-17.73 1180.09,-23.99 1182.13,-17.3"/>
</g>
<!-- Node8 -->
<g id="node8" class="node">
<title>Node8</title>
<g id="a_node8"><a xlink:href="ADrawable_8hpp.html" target="_top" xlink:title=" ">
<polygon fill="white" stroke="black" points="493,-56.5 493,-75.5 686,-75.5 686,-56.5 493,-56.5"/>
<text text-anchor="middle" x="589.5" y="-63.5" font-family="Helvetica,sans-Serif" font-size="10.00">Common/Drawables/ADrawable.hpp</text>
</a>
</g>
</g>
<!-- Node7&#45;&gt;Node8 -->
<g id="edge8" class="edge">
<title>Node7&#45;&gt;Node8</title>
<path fill="none" stroke="midnightblue" d="M332.83,-112.44C386.7,-102.9 473.81,-87.48 531.36,-77.29"/>
<polygon fill="midnightblue" stroke="midnightblue" points="532.16,-80.71 541.4,-75.52 530.94,-73.81 532.16,-80.71"/>
</g>
<!-- Node8&#45;&gt;Node9 -->
<g id="edge9" class="edge">
<title>Node8&#45;&gt;Node9</title>
<path fill="none" stroke="midnightblue" d="M547.19,-56.44C496.26,-46.14 411.41,-28.98 361.84,-18.96"/>
<polygon fill="midnightblue" stroke="midnightblue" points="362.32,-15.48 351.82,-16.93 360.93,-22.34 362.32,-15.48"/>
</g>
<!-- Node10&#45;&gt;Node8 -->
<g id="edge11" class="edge">
<title>Node10&#45;&gt;Node8</title>
<path fill="none" stroke="midnightblue" d="M692.17,-112.44C672.18,-103.6 640.76,-89.69 617.94,-79.59"/>
<polygon fill="midnightblue" stroke="midnightblue" points="619.3,-76.36 608.74,-75.52 616.47,-82.76 619.3,-76.36"/>
</g>
<!-- Node11&#45;&gt;Node8 -->
<g id="edge13" class="edge">
<title>Node11&#45;&gt;Node8</title>
<path fill="none" stroke="midnightblue" d="M485.99,-112.44C506.14,-103.6 537.82,-89.69 560.83,-79.59"/>
<polygon fill="midnightblue" stroke="midnightblue" points="562.35,-82.74 570.1,-75.52 559.54,-76.33 562.35,-82.74"/>
</g>
<!-- Node12&#45;&gt;Node3 -->
<g id="edge16" class="edge">
<title>Node12&#45;&gt;Node3</title>
<path fill="none" stroke="midnightblue" d="M1082.47,-112.39C1078.43,-99.34 1072.83,-74.14 1082.5,-56 1090.16,-41.63 1104.67,-31.04 1118.23,-23.75"/>
<polygon fill="midnightblue" stroke="midnightblue" points="1119.96,-26.8 1127.37,-19.23 1116.86,-20.52 1119.96,-26.8"/>
</g>
<!-- Node12&#45;&gt;Node8 -->
<g id="edge15" class="edge">
<title>Node12&#45;&gt;Node8</title>
<path fill="none" stroke="midnightblue" d="M1007.18,-112.47C917.63,-102.72 771.37,-86.8 677.83,-76.62"/>
<polygon fill="midnightblue" stroke="midnightblue" points="678.14,-73.13 667.82,-75.53 677.38,-80.09 678.14,-73.13"/>
</g>
<!-- Node13&#45;&gt;Node3 -->
<g id="edge19" class="edge">
<title>Node13&#45;&gt;Node3</title>
<path fill="none" stroke="midnightblue" d="M922.8,-112.37C965.92,-93.09 1070.21,-46.45 1120.9,-23.79"/>
<polygon fill="midnightblue" stroke="midnightblue" points="1122.59,-26.87 1130.29,-19.59 1119.73,-20.48 1122.59,-26.87"/>
</g>
<!-- Node13&#45;&gt;Node8 -->
<g id="edge18" class="edge">
<title>Node13&#45;&gt;Node8</title>
<path fill="none" stroke="midnightblue" d="M853.75,-112.44C798.17,-102.89 708.24,-87.42 648.98,-77.23"/>
<polygon fill="midnightblue" stroke="midnightblue" points="649.47,-73.76 639.02,-75.52 648.28,-80.66 649.47,-73.76"/>
</g>
<!-- Node15&#45;&gt;Node3 -->
<g id="edge22" class="edge">
<title>Node15&#45;&gt;Node3</title>
<path fill="none" stroke="midnightblue" d="M1149.5,-56.08C1149.5,-49.01 1149.5,-38.86 1149.5,-29.99"/>
<polygon fill="midnightblue" stroke="midnightblue" points="1153,-29.75 1149.5,-19.75 1146,-29.75 1153,-29.75"/>
</g>
<!-- Node17&#45;&gt;Node14 -->
<g id="edge26" class="edge">
<title>Node17&#45;&gt;Node14</title>
<path fill="none" stroke="midnightblue" d="M298.43,-168.47C245.68,-157.76 174.12,-143.23 126.23,-133.51"/>
<polygon fill="midnightblue" stroke="midnightblue" points="126.89,-130.07 116.39,-131.51 125.49,-136.93 126.89,-130.07"/>
</g>
<!-- Node18&#45;&gt;Node14 -->
<g id="edge28" class="edge">
<title>Node18&#45;&gt;Node14</title>
<path fill="none" stroke="midnightblue" d="M159.32,-173.98C143.14,-164.25 116.47,-148.23 97.36,-136.74"/>
<polygon fill="midnightblue" stroke="midnightblue" points="99.03,-133.66 88.66,-131.51 95.43,-139.66 99.03,-133.66"/>
</g>
<!-- Node19&#45;&gt;Node14 -->
<g id="edge30" class="edge">
<title>Node19&#45;&gt;Node14</title>
<path fill="none" stroke="midnightblue" d="M537.51,-173.98C521.13,-171.98 503.7,-169.88 487.5,-168 374.02,-154.85 242.86,-140.74 159.34,-131.9"/>
<polygon fill="midnightblue" stroke="midnightblue" points="159.46,-128.39 149.14,-130.82 158.72,-135.35 159.46,-128.39"/>
</g>
</g>
</svg>
