<?xml version="1.0" encoding="UTF-8" standalone="no"?>
<!DOCTYPE svg PUBLIC "-//W3C//DTD SVG 1.1//EN"
 "http://www.w3.org/Graphics/SVG/1.1/DTD/svg11.dtd">
<!-- Generated by graphviz version 2.43.0 (0)
 -->
<!-- Title: sources/Games/Nibbler/Nibbler.cpp Pages: 1 -->
<svg width="1308pt" height="319pt"
 viewBox="0.00 0.00 1308.00 319.00" xmlns="http://www.w3.org/2000/svg" xmlns:xlink="http://www.w3.org/1999/xlink">
<g id="graph0" class="graph" transform="scale(1 1) rotate(0) translate(4 315)">
<title>sources/Games/Nibbler/Nibbler.cpp</title>
<polygon fill="white" stroke="transparent" points="-4,4 -4,-315 1304,-315 1304,4 -4,4"/>
<!-- Node1 -->
<g id="node1" class="node">
<title>Node1</title>
<g id="a_node1"><a xlink:title=" ">
<polygon fill="#bfbfbf" stroke="black" points="608,-280.5 608,-310.5 738,-310.5 738,-280.5 608,-280.5"/>
<text text-anchor="start" x="616" y="-298.5" font-family="Helvetica,sans-Serif" font-size="10.00">sources/Games/Nibbler</text>
<text text-anchor="middle" x="673" y="-287.5" font-family="Helvetica,sans-Serif" font-size="10.00">/Nibbler.cpp</text>
</a>
</g>
</g>
<!-- Node2 -->
<g id="node2" class="node">
<title>Node2</title>
<g id="a_node2"><a xlink:href="Rectangle_8hpp.html" target="_top" xlink:title=" ">
<polygon fill="white" stroke="black" points="0,-224.5 0,-243.5 188,-243.5 188,-224.5 0,-224.5"/>
<text text-anchor="middle" x="94" y="-231.5" font-family="Helvetica,sans-Serif" font-size="10.00">Common/Drawables/Rectangle.hpp</text>
</a>
</g>
</g>
<!-- Node1&#45;&gt;Node2 -->
<g id="edge1" class="edge">
<title>Node1&#45;&gt;Node2</title>
<path fill="none" stroke="midnightblue" d="M607.99,-287.82C505.22,-277.26 304.84,-256.67 186.92,-244.55"/>
<polygon fill="midnightblue" stroke="midnightblue" points="187.13,-241.05 176.82,-243.51 186.41,-248.02 187.13,-241.05"/>
</g>
<!-- Node5 -->
<g id="node5" class="node">
<title>Node5</title>
<g id="a_node5"><a xlink:href="Sprite_8hpp.html" target="_top" xlink:title=" ">
<polygon fill="white" stroke="black" points="47,-168.5 47,-187.5 215,-187.5 215,-168.5 47,-168.5"/>
<text text-anchor="middle" x="131" y="-175.5" font-family="Helvetica,sans-Serif" font-size="10.00">Common/Drawables/Sprite.hpp</text>
</a>
</g>
</g>
<!-- Node1&#45;&gt;Node5 -->
<g id="edge4" class="edge">
<title>Node1&#45;&gt;Node5</title>
<path fill="none" stroke="midnightblue" d="M607.89,-280.63C498.41,-257.3 279.79,-210.71 181.23,-189.7"/>
<polygon fill="midnightblue" stroke="midnightblue" points="181.74,-186.23 171.23,-187.57 180.28,-193.08 181.74,-186.23"/>
</g>
<!-- Node7 -->
<g id="node7" class="node">
<title>Node7</title>
<g id="a_node7"><a xlink:href="Text_8hpp.html" target="_top" xlink:title=" ">
<polygon fill="white" stroke="black" points="233,-168.5 233,-187.5 393,-187.5 393,-168.5 233,-168.5"/>
<text text-anchor="middle" x="313" y="-175.5" font-family="Helvetica,sans-Serif" font-size="10.00">Common/Drawables/Text.hpp</text>
</a>
</g>
</g>
<!-- Node1&#45;&gt;Node7 -->
<g id="edge7" class="edge">
<title>Node1&#45;&gt;Node7</title>
<path fill="none" stroke="midnightblue" d="M629.22,-280.45C557.39,-257.41 415.87,-212 349.27,-190.64"/>
<polygon fill="midnightblue" stroke="midnightblue" points="350.22,-187.26 339.63,-187.54 348.08,-193.93 350.22,-187.26"/>
</g>
<!-- Node8 -->
<g id="node8" class="node">
<title>Node8</title>
<g id="a_node8"><a xlink:href="Line_8hpp.html" target="_top" xlink:title=" ">
<polygon fill="white" stroke="black" points="411,-168.5 411,-187.5 571,-187.5 571,-168.5 411,-168.5"/>
<text text-anchor="middle" x="491" y="-175.5" font-family="Helvetica,sans-Serif" font-size="10.00">Common/Drawables/Line.hpp</text>
</a>
</g>
</g>
<!-- Node1&#45;&gt;Node8 -->
<g id="edge10" class="edge">
<title>Node1&#45;&gt;Node8</title>
<path fill="none" stroke="midnightblue" d="M650.68,-280.34C615.66,-258.11 548.17,-215.28 513.21,-193.09"/>
<polygon fill="midnightblue" stroke="midnightblue" points="514.98,-190.07 504.66,-187.67 511.23,-195.98 514.98,-190.07"/>
</g>
<!-- Node9 -->
<g id="node9" class="node">
<title>Node9</title>
<g id="a_node9"><a xlink:href="Nibbler_8hpp.html" target="_top" xlink:title=" ">
<polygon fill="white" stroke="black" points="669,-224.5 669,-243.5 741,-243.5 741,-224.5 669,-224.5"/>
<text text-anchor="middle" x="705" y="-231.5" font-family="Helvetica,sans-Serif" font-size="10.00">Nibbler.hpp</text>
</a>
</g>
</g>
<!-- Node1&#45;&gt;Node9 -->
<g id="edge12" class="edge">
<title>Node1&#45;&gt;Node9</title>
<path fill="none" stroke="midnightblue" d="M680.58,-280.4C685.04,-272.11 690.72,-261.55 695.48,-252.71"/>
<polygon fill="midnightblue" stroke="midnightblue" points="698.69,-254.12 700.34,-243.66 692.52,-250.81 698.69,-254.12"/>
</g>
<!-- Node17 -->
<g id="node17" class="node">
<title>Node17</title>
<g id="a_node17"><a xlink:href="Circle_8hpp.html" target="_top" xlink:title=" ">
<polygon fill="white" stroke="black" points="589.5,-168.5 589.5,-187.5 756.5,-187.5 756.5,-168.5 589.5,-168.5"/>
<text text-anchor="middle" x="673" y="-175.5" font-family="Helvetica,sans-Serif" font-size="10.00">Common/Drawables/Circle.hpp</text>
</a>
</g>
</g>
<!-- Node1&#45;&gt;Node17 -->
<g id="edge35" class="edge">
<title>Node1&#45;&gt;Node17</title>
<path fill="none" stroke="midnightblue" d="M667.62,-280.24C662.91,-266.04 657.23,-243.59 660,-224 661.27,-215.04 663.89,-205.37 666.45,-197.3"/>
<polygon fill="midnightblue" stroke="midnightblue" points="669.77,-198.4 669.66,-187.8 663.14,-196.16 669.77,-198.4"/>
</g>
<!-- Node19 -->
<g id="node19" class="node">
<title>Node19</title>
<g id="a_node19"><a xlink:href="KeyBoardEvent_8hpp.html" target="_top" xlink:title=" ">
<polygon fill="white" stroke="black" points="759.5,-224.5 759.5,-243.5 954.5,-243.5 954.5,-224.5 759.5,-224.5"/>
<text text-anchor="middle" x="857" y="-231.5" font-family="Helvetica,sans-Serif" font-size="10.00">Common/Events/KeyBoardEvent.hpp</text>
</a>
</g>
</g>
<!-- Node1&#45;&gt;Node19 -->
<g id="edge30" class="edge">
<title>Node1&#45;&gt;Node19</title>
<path fill="none" stroke="midnightblue" d="M716.61,-280.4C748.4,-270.12 790.97,-256.35 820.87,-246.68"/>
<polygon fill="midnightblue" stroke="midnightblue" points="822.06,-249.98 830.49,-243.57 819.9,-243.32 822.06,-249.98"/>
</g>
<!-- Node20 -->
<g id="node20" class="node">
<title>Node20</title>
<g id="a_node20"><a xlink:href="Nibbler_2Exceptions_2WrongMapChar_8hpp.html" target="_top" xlink:title=" ">
<polygon fill="white" stroke="black" points="972,-224.5 972,-243.5 1140,-243.5 1140,-224.5 972,-224.5"/>
<text text-anchor="middle" x="1056" y="-231.5" font-family="Helvetica,sans-Serif" font-size="10.00">Exceptions/WrongMapChar.hpp</text>
</a>
</g>
</g>
<!-- Node1&#45;&gt;Node20 -->
<g id="edge32" class="edge">
<title>Node1&#45;&gt;Node20</title>
<path fill="none" stroke="midnightblue" d="M738.4,-284.34C808.96,-273.38 920.64,-256.03 991.03,-245.09"/>
<polygon fill="midnightblue" stroke="midnightblue" points="991.76,-248.52 1001.11,-243.53 990.69,-241.6 991.76,-248.52"/>
</g>
<!-- Node22 -->
<g id="node22" class="node">
<title>Node22</title>
<g id="a_node22"><a xlink:title=" ">
<polygon fill="white" stroke="#bfbfbf" points="1158,-224.5 1158,-243.5 1218,-243.5 1218,-224.5 1158,-224.5"/>
<text text-anchor="middle" x="1188" y="-231.5" font-family="Helvetica,sans-Serif" font-size="10.00">iostream</text>
</a>
</g>
</g>
<!-- Node1&#45;&gt;Node22 -->
<g id="edge34" class="edge">
<title>Node1&#45;&gt;Node22</title>
<path fill="none" stroke="midnightblue" d="M738.01,-290.11C828,-283.48 995.71,-269.11 1147.84,-244.01"/>
<polygon fill="midnightblue" stroke="midnightblue" points="1148.55,-247.44 1157.84,-242.34 1147.4,-240.53 1148.55,-247.44"/>
</g>
<!-- Node23 -->
<g id="node23" class="node">
<title>Node23</title>
<g id="a_node23"><a xlink:title=" ">
<polygon fill="white" stroke="#bfbfbf" points="1236,-224.5 1236,-243.5 1300,-243.5 1300,-224.5 1236,-224.5"/>
<text text-anchor="middle" x="1268" y="-231.5" font-family="Helvetica,sans-Serif" font-size="10.00">algorithm</text>
</a>
</g>
</g>
<!-- Node1&#45;&gt;Node23 -->
<g id="edge36" class="edge">
<title>Node1&#45;&gt;Node23</title>
<path fill="none" stroke="midnightblue" d="M738.14,-291.21C840.14,-285.48 1043.85,-271.68 1225.82,-244"/>
<polygon fill="midnightblue" stroke="midnightblue" points="1226.49,-247.44 1235.84,-242.46 1225.43,-240.52 1226.49,-247.44"/>
</g>
<!-- Node3 -->
<g id="node3" class="node">
<title>Node3</title>
<g id="a_node3"><a xlink:href="ADrawable_8hpp.html" target="_top" xlink:title=" ">
<polygon fill="white" stroke="black" points="394.5,-112.5 394.5,-131.5 587.5,-131.5 587.5,-112.5 394.5,-112.5"/>
<text text-anchor="middle" x="491" y="-119.5" font-family="Helvetica,sans-Serif" font-size="10.00">Common/Drawables/ADrawable.hpp</text>
</a>
</g>
</g>
<!-- Node2&#45;&gt;Node3 -->
<g id="edge2" class="edge">
<title>Node2&#45;&gt;Node3</title>
<path fill="none" stroke="midnightblue" d="M77.37,-224.47C55,-211.93 20,-187.87 38,-168 60.82,-142.8 257.67,-131.14 384.25,-126.21"/>
<polygon fill="midnightblue" stroke="midnightblue" points="384.52,-129.7 394.38,-125.83 384.25,-122.71 384.52,-129.7"/>
</g>
<!-- Node4 -->
<g id="node4" class="node">
<title>Node4</title>
<g id="a_node4"><a xlink:title=" ">
<polygon fill="white" stroke="#bfbfbf" points="754,-56.5 754,-75.5 812,-75.5 812,-56.5 754,-56.5"/>
<text text-anchor="middle" x="783" y="-63.5" font-family="Helvetica,sans-Serif" font-size="10.00">memory</text>
</a>
</g>
</g>
<!-- Node3&#45;&gt;Node4 -->
<g id="edge3" class="edge">
<title>Node3&#45;&gt;Node4</title>
<path fill="none" stroke="midnightblue" d="M544.2,-112.49C593.49,-104.39 669.09,-91.46 743.92,-76.13"/>
<polygon fill="midnightblue" stroke="midnightblue" points="744.91,-79.5 753.99,-74.05 743.49,-72.64 744.91,-79.5"/>
</g>
<!-- Node5&#45;&gt;Node3 -->
<g id="edge5" class="edge">
<title>Node5&#45;&gt;Node3</title>
<path fill="none" stroke="midnightblue" d="M188.04,-168.44C252.16,-158.83 356.15,-143.23 424.06,-133.04"/>
<polygon fill="midnightblue" stroke="midnightblue" points="424.85,-136.46 434.22,-131.52 423.82,-129.54 424.85,-136.46"/>
</g>
<!-- Node6 -->
<g id="node6" class="node">
<title>Node6</title>
<g id="a_node6"><a xlink:title=" ">
<polygon fill="white" stroke="#bfbfbf" points="656,-0.5 656,-19.5 700,-19.5 700,-0.5 656,-0.5"/>
<text text-anchor="middle" x="678" y="-7.5" font-family="Helvetica,sans-Serif" font-size="10.00">string</text>
</a>
</g>
</g>
<!-- Node5&#45;&gt;Node6 -->
<g id="edge6" class="edge">
<title>Node5&#45;&gt;Node6</title>
<path fill="none" stroke="midnightblue" d="M150.92,-168.41C201.44,-146.89 338.97,-89.98 458,-56 523.8,-37.22 602.8,-23.03 645.96,-15.98"/>
<polygon fill="midnightblue" stroke="midnightblue" points="646.56,-19.42 655.87,-14.38 645.44,-12.51 646.56,-19.42"/>
</g>
<!-- Node7&#45;&gt;Node3 -->
<g id="edge8" class="edge">
<title>Node7&#45;&gt;Node3</title>
<path fill="none" stroke="midnightblue" d="M341.2,-168.44C371.41,-159.28 419.51,-144.69 453.03,-134.52"/>
<polygon fill="midnightblue" stroke="midnightblue" points="454.37,-137.77 462.93,-131.52 452.34,-131.07 454.37,-137.77"/>
</g>
<!-- Node7&#45;&gt;Node6 -->
<g id="edge9" class="edge">
<title>Node7&#45;&gt;Node6</title>
<path fill="none" stroke="midnightblue" d="M320.55,-168.2C332.79,-154.44 358.31,-127.75 385,-112 472.28,-60.49 589.75,-30.1 645.72,-17.64"/>
<polygon fill="midnightblue" stroke="midnightblue" points="646.73,-21 655.76,-15.45 645.24,-14.16 646.73,-21"/>
</g>
<!-- Node8&#45;&gt;Node3 -->
<g id="edge11" class="edge">
<title>Node8&#45;&gt;Node3</title>
<path fill="none" stroke="midnightblue" d="M491,-168.08C491,-161.01 491,-150.86 491,-141.99"/>
<polygon fill="midnightblue" stroke="midnightblue" points="494.5,-141.75 491,-131.75 487.5,-141.75 494.5,-141.75"/>
</g>
<!-- Node9&#45;&gt;Node8 -->
<g id="edge26" class="edge">
<title>Node9&#45;&gt;Node8</title>
<path fill="none" stroke="midnightblue" d="M671.09,-224.44C634.15,-215.12 574.95,-200.18 534.58,-190"/>
<polygon fill="midnightblue" stroke="midnightblue" points="535.3,-186.57 524.75,-187.52 533.59,-193.36 535.3,-186.57"/>
</g>
<!-- Node10 -->
<g id="node10" class="node">
<title>Node10</title>
<g id="a_node10"><a xlink:title=" ">
<polygon fill="white" stroke="#bfbfbf" points="774,-168.5 774,-187.5 812,-187.5 812,-168.5 774,-168.5"/>
<text text-anchor="middle" x="793" y="-175.5" font-family="Helvetica,sans-Serif" font-size="10.00">map</text>
</a>
</g>
</g>
<!-- Node9&#45;&gt;Node10 -->
<g id="edge13" class="edge">
<title>Node9&#45;&gt;Node10</title>
<path fill="none" stroke="midnightblue" d="M719.14,-224.32C732.87,-215.9 753.94,-202.97 770.06,-193.07"/>
<polygon fill="midnightblue" stroke="midnightblue" points="772.2,-195.87 778.9,-187.65 768.54,-189.9 772.2,-195.87"/>
</g>
<!-- Node11 -->
<g id="node11" class="node">
<title>Node11</title>
<g id="a_node11"><a xlink:href="IGameModule_8hpp.html" target="_top" xlink:title=" ">
<polygon fill="white" stroke="black" points="890.5,-168.5 890.5,-187.5 1043.5,-187.5 1043.5,-168.5 890.5,-168.5"/>
<text text-anchor="middle" x="967" y="-175.5" font-family="Helvetica,sans-Serif" font-size="10.00">Common/IGameModule.hpp</text>
</a>
</g>
</g>
<!-- Node9&#45;&gt;Node11 -->
<g id="edge14" class="edge">
<title>Node9&#45;&gt;Node11</title>
<path fill="none" stroke="midnightblue" d="M741.15,-225.55C786.43,-216.22 864.27,-200.17 915.69,-189.57"/>
<polygon fill="midnightblue" stroke="midnightblue" points="916.52,-192.98 925.61,-187.53 915.11,-186.12 916.52,-192.98"/>
</g>
<!-- Node9&#45;&gt;Node17 -->
<g id="edge27" class="edge">
<title>Node9&#45;&gt;Node17</title>
<path fill="none" stroke="midnightblue" d="M699.72,-224.08C695.29,-216.61 688.84,-205.72 683.38,-196.52"/>
<polygon fill="midnightblue" stroke="midnightblue" points="686.29,-194.57 678.19,-187.75 680.27,-198.14 686.29,-194.57"/>
</g>
<!-- Node18 -->
<g id="node18" class="node">
<title>Node18</title>
<g id="a_node18"><a xlink:title=" ">
<polygon fill="white" stroke="#bfbfbf" points="830,-168.5 830,-187.5 872,-187.5 872,-168.5 830,-168.5"/>
<text text-anchor="middle" x="851" y="-175.5" font-family="Helvetica,sans-Serif" font-size="10.00">array</text>
</a>
</g>
</g>
<!-- Node9&#45;&gt;Node18 -->
<g id="edge29" class="edge">
<title>Node9&#45;&gt;Node18</title>
<path fill="none" stroke="midnightblue" d="M728.13,-224.44C753.06,-215.23 792.83,-200.52 820.34,-190.34"/>
<polygon fill="midnightblue" stroke="midnightblue" points="821.71,-193.57 829.87,-186.82 819.28,-187 821.71,-193.57"/>
</g>
<!-- Node11&#45;&gt;Node3 -->
<g id="edge17" class="edge">
<title>Node11&#45;&gt;Node3</title>
<path fill="none" stroke="midnightblue" d="M891.84,-168.47C806.07,-158.74 666.1,-142.86 576.31,-132.68"/>
<polygon fill="midnightblue" stroke="midnightblue" points="576.49,-129.18 566.16,-131.53 575.7,-136.13 576.49,-129.18"/>
</g>
<!-- Node11&#45;&gt;Node4 -->
<g id="edge24" class="edge">
<title>Node11&#45;&gt;Node4</title>
<path fill="none" stroke="midnightblue" d="M912.1,-168.46C884.2,-162.02 851,-150.91 826,-132 809.85,-119.78 797.89,-99.63 790.73,-85"/>
<polygon fill="midnightblue" stroke="midnightblue" points="793.73,-83.15 786.38,-75.52 787.37,-86.07 793.73,-83.15"/>
</g>
<!-- Node11&#45;&gt;Node6 -->
<g id="edge25" class="edge">
<title>Node11&#45;&gt;Node6</title>
<path fill="none" stroke="midnightblue" d="M948.89,-168.41C932.62,-160.25 908.52,-147.02 890,-132 854.56,-103.27 859.43,-80.59 821,-56 786.58,-33.98 740.6,-22.04 710.18,-16.1"/>
<polygon fill="midnightblue" stroke="midnightblue" points="710.58,-12.62 700.11,-14.25 709.31,-19.5 710.58,-12.62"/>
</g>
<!-- Node12 -->
<g id="node12" class="node">
<title>Node12</title>
<g id="a_node12"><a xlink:href="ModInfo_8hpp.html" target="_top" xlink:title=" ">
<polygon fill="white" stroke="black" points="868.5,-56.5 868.5,-75.5 993.5,-75.5 993.5,-56.5 868.5,-56.5"/>
<text text-anchor="middle" x="931" y="-63.5" font-family="Helvetica,sans-Serif" font-size="10.00">Common/ModInfo.hpp</text>
</a>
</g>
</g>
<!-- Node11&#45;&gt;Node12 -->
<g id="edge15" class="edge">
<title>Node11&#45;&gt;Node12</title>
<path fill="none" stroke="midnightblue" d="M943.21,-168.5C927.28,-161.41 907.54,-149.61 898,-132 889.11,-115.6 901.4,-96.53 913.43,-83.31"/>
<polygon fill="midnightblue" stroke="midnightblue" points="916.18,-85.5 920.69,-75.91 911.19,-80.6 916.18,-85.5"/>
</g>
<!-- Node13 -->
<g id="node13" class="node">
<title>Node13</title>
<g id="a_node13"><a xlink:href="Module_8hpp.html" target="_top" xlink:title=" ">
<polygon fill="white" stroke="black" points="906.5,-112.5 906.5,-131.5 1027.5,-131.5 1027.5,-112.5 906.5,-112.5"/>
<text text-anchor="middle" x="967" y="-119.5" font-family="Helvetica,sans-Serif" font-size="10.00">Common/Module.hpp</text>
</a>
</g>
</g>
<!-- Node11&#45;&gt;Node13 -->
<g id="edge18" class="edge">
<title>Node11&#45;&gt;Node13</title>
<path fill="none" stroke="midnightblue" d="M967,-168.08C967,-161.01 967,-150.86 967,-141.99"/>
<polygon fill="midnightblue" stroke="midnightblue" points="970.5,-141.75 967,-131.75 963.5,-141.75 970.5,-141.75"/>
</g>
<!-- Node14 -->
<g id="node14" class="node">
<title>Node14</title>
<g id="a_node14"><a xlink:href="Event_8hpp.html" target="_top" xlink:title=" ">
<polygon fill="white" stroke="black" points="1045.5,-112.5 1045.5,-131.5 1194.5,-131.5 1194.5,-112.5 1045.5,-112.5"/>
<text text-anchor="middle" x="1120" y="-119.5" font-family="Helvetica,sans-Serif" font-size="10.00">Common/Events/Event.hpp</text>
</a>
</g>
</g>
<!-- Node11&#45;&gt;Node14 -->
<g id="edge20" class="edge">
<title>Node11&#45;&gt;Node14</title>
<path fill="none" stroke="midnightblue" d="M991.24,-168.44C1016.87,-159.4 1057.49,-145.06 1086.24,-134.92"/>
<polygon fill="midnightblue" stroke="midnightblue" points="1087.61,-138.15 1095.87,-131.52 1085.28,-131.54 1087.61,-138.15"/>
</g>
<!-- Node15 -->
<g id="node15" class="node">
<title>Node15</title>
<g id="a_node15"><a xlink:href="Sound_8hpp.html" target="_top" xlink:title=" ">
<polygon fill="white" stroke="black" points="620.5,-56.5 620.5,-75.5 735.5,-75.5 735.5,-56.5 620.5,-56.5"/>
<text text-anchor="middle" x="678" y="-63.5" font-family="Helvetica,sans-Serif" font-size="10.00">Common/Sound.hpp</text>
</a>
</g>
</g>
<!-- Node11&#45;&gt;Node15 -->
<g id="edge21" class="edge">
<title>Node11&#45;&gt;Node15</title>
<path fill="none" stroke="midnightblue" d="M904.97,-168.48C836.32,-158.63 733.28,-142.43 718,-132 701.62,-120.82 690.72,-100.49 684.49,-85.54"/>
<polygon fill="midnightblue" stroke="midnightblue" points="687.61,-83.9 680.77,-75.81 681.07,-86.4 687.61,-83.9"/>
</g>
<!-- Node16 -->
<g id="node16" class="node">
<title>Node16</title>
<g id="a_node16"><a xlink:title=" ">
<polygon fill="white" stroke="#bfbfbf" points="726.5,-112.5 726.5,-131.5 773.5,-131.5 773.5,-112.5 726.5,-112.5"/>
<text text-anchor="middle" x="750" y="-119.5" font-family="Helvetica,sans-Serif" font-size="10.00">vector</text>
</a>
</g>
</g>
<!-- Node11&#45;&gt;Node16 -->
<g id="edge23" class="edge">
<title>Node11&#45;&gt;Node16</title>
<path fill="none" stroke="midnightblue" d="M932.62,-168.44C891.72,-158.27 823.91,-141.39 783.44,-131.32"/>
<polygon fill="midnightblue" stroke="midnightblue" points="784.07,-127.87 773.52,-128.85 782.38,-134.66 784.07,-127.87"/>
</g>
<!-- Node12&#45;&gt;Node6 -->
<g id="edge16" class="edge">
<title>Node12&#45;&gt;Node6</title>
<path fill="none" stroke="midnightblue" d="M890.91,-56.44C840.89,-45.77 756.32,-27.72 710.26,-17.89"/>
<polygon fill="midnightblue" stroke="midnightblue" points="710.74,-14.41 700.23,-15.75 709.28,-21.26 710.74,-14.41"/>
</g>
<!-- Node13&#45;&gt;Node12 -->
<g id="edge19" class="edge">
<title>Node13&#45;&gt;Node12</title>
<path fill="none" stroke="midnightblue" d="M961.06,-112.08C956.02,-104.53 948.66,-93.49 942.49,-84.23"/>
<polygon fill="midnightblue" stroke="midnightblue" points="945.29,-82.13 936.83,-75.75 939.47,-86.01 945.29,-82.13"/>
</g>
<!-- Node15&#45;&gt;Node6 -->
<g id="edge22" class="edge">
<title>Node15&#45;&gt;Node6</title>
<path fill="none" stroke="midnightblue" d="M678,-56.08C678,-49.01 678,-38.86 678,-29.99"/>
<polygon fill="midnightblue" stroke="midnightblue" points="681.5,-29.75 678,-19.75 674.5,-29.75 681.5,-29.75"/>
</g>
<!-- Node17&#45;&gt;Node3 -->
<g id="edge28" class="edge">
<title>Node17&#45;&gt;Node3</title>
<path fill="none" stroke="midnightblue" d="M644.16,-168.44C613.14,-159.24 563.67,-144.56 529.38,-134.39"/>
<polygon fill="midnightblue" stroke="midnightblue" points="530.29,-131.01 519.7,-131.52 528.29,-137.72 530.29,-131.01"/>
</g>
<!-- Node19&#45;&gt;Node14 -->
<g id="edge31" class="edge">
<title>Node19&#45;&gt;Node14</title>
<path fill="none" stroke="midnightblue" d="M938.26,-224.45C974.97,-218.11 1017.88,-207.09 1053,-188 1075.14,-175.96 1095.1,-154.57 1107.36,-139.63"/>
<polygon fill="midnightblue" stroke="midnightblue" points="1110.18,-141.7 1113.65,-131.69 1104.7,-137.36 1110.18,-141.7"/>
</g>
<!-- Node21 -->
<g id="node21" class="node">
<title>Node21</title>
<g id="a_node21"><a xlink:title=" ">
<polygon fill="white" stroke="#bfbfbf" points="1100.5,-168.5 1100.5,-187.5 1165.5,-187.5 1165.5,-168.5 1100.5,-168.5"/>
<text text-anchor="middle" x="1133" y="-175.5" font-family="Helvetica,sans-Serif" font-size="10.00">stdexcept</text>
</a>
</g>
</g>
<!-- Node20&#45;&gt;Node21 -->
<g id="edge33" class="edge">
<title>Node20&#45;&gt;Node21</title>
<path fill="none" stroke="midnightblue" d="M1068.37,-224.32C1080.16,-216.06 1098.13,-203.45 1112.14,-193.63"/>
<polygon fill="midnightblue" stroke="midnightblue" points="1114.48,-196.26 1120.66,-187.65 1110.46,-190.53 1114.48,-196.26"/>
</g>
</g>
</svg>
