<?xml version="1.0" encoding="UTF-8" standalone="no"?>
<!DOCTYPE svg PUBLIC "-//W3C//DTD SVG 1.1//EN"
 "http://www.w3.org/Graphics/SVG/1.1/DTD/svg11.dtd">
<!-- Generated by graphviz version 2.43.0 (0)
 -->
<!-- Title: sources/Games/Pacman/Pacman.cpp Pages: 1 -->
<svg width="1249pt" height="319pt"
 viewBox="0.00 0.00 1249.00 319.00" xmlns="http://www.w3.org/2000/svg" xmlns:xlink="http://www.w3.org/1999/xlink">
<g id="graph0" class="graph" transform="scale(1 1) rotate(0) translate(4 315)">
<title>sources/Games/Pacman/Pacman.cpp</title>
<polygon fill="white" stroke="transparent" points="-4,4 -4,-315 1245,-315 1245,4 -4,4"/>
<!-- Node1 -->
<g id="node1" class="node">
<title>Node1</title>
<g id="a_node1"><a xlink:title=" ">
<polygon fill="#bfbfbf" stroke="black" points="593.5,-280.5 593.5,-310.5 726.5,-310.5 726.5,-280.5 593.5,-280.5"/>
<text text-anchor="start" x="601.5" y="-298.5" font-family="Helvetica,sans-Serif" font-size="10.00">sources/Games/Pacman</text>
<text text-anchor="middle" x="660" y="-287.5" font-family="Helvetica,sans-Serif" font-size="10.00">/Pacman.cpp</text>
</a>
</g>
</g>
<!-- Node2 -->
<g id="node2" class="node">
<title>Node2</title>
<g id="a_node2"><a xlink:href="Rectangle_8hpp.html" target="_top" xlink:title=" ">
<polygon fill="white" stroke="black" points="0,-224.5 0,-243.5 188,-243.5 188,-224.5 0,-224.5"/>
<text text-anchor="middle" x="94" y="-231.5" font-family="Helvetica,sans-Serif" font-size="10.00">Common/Drawables/Rectangle.hpp</text>
</a>
</g>
</g>
<!-- Node1&#45;&gt;Node2 -->
<g id="edge1" class="edge">
<title>Node1&#45;&gt;Node2</title>
<path fill="none" stroke="midnightblue" d="M593.41,-287.5C492.14,-276.85 299.17,-256.57 185.03,-244.57"/>
<polygon fill="midnightblue" stroke="midnightblue" points="185.23,-241.07 174.91,-243.51 184.49,-248.03 185.23,-241.07"/>
</g>
<!-- Node5 -->
<g id="node5" class="node">
<title>Node5</title>
<g id="a_node5"><a xlink:href="Sprite_8hpp.html" target="_top" xlink:title=" ">
<polygon fill="white" stroke="black" points="67,-168.5 67,-187.5 235,-187.5 235,-168.5 67,-168.5"/>
<text text-anchor="middle" x="151" y="-175.5" font-family="Helvetica,sans-Serif" font-size="10.00">Common/Drawables/Sprite.hpp</text>
</a>
</g>
</g>
<!-- Node1&#45;&gt;Node5 -->
<g id="edge4" class="edge">
<title>Node1&#45;&gt;Node5</title>
<path fill="none" stroke="midnightblue" d="M598.1,-280.45C495.18,-257.1 291.08,-210.79 198.57,-189.79"/>
<polygon fill="midnightblue" stroke="midnightblue" points="199.17,-186.34 188.65,-187.54 197.62,-193.17 199.17,-186.34"/>
</g>
<!-- Node7 -->
<g id="node7" class="node">
<title>Node7</title>
<g id="a_node7"><a xlink:href="Text_8hpp.html" target="_top" xlink:title=" ">
<polygon fill="white" stroke="black" points="253,-168.5 253,-187.5 413,-187.5 413,-168.5 253,-168.5"/>
<text text-anchor="middle" x="333" y="-175.5" font-family="Helvetica,sans-Serif" font-size="10.00">Common/Drawables/Text.hpp</text>
</a>
</g>
</g>
<!-- Node1&#45;&gt;Node7 -->
<g id="edge7" class="edge">
<title>Node1&#45;&gt;Node7</title>
<path fill="none" stroke="midnightblue" d="M620.23,-280.45C555.25,-257.5 427.49,-212.38 366.69,-190.9"/>
<polygon fill="midnightblue" stroke="midnightblue" points="367.78,-187.57 357.18,-187.54 365.45,-194.17 367.78,-187.57"/>
</g>
<!-- Node8 -->
<g id="node8" class="node">
<title>Node8</title>
<g id="a_node8"><a xlink:href="Line_8hpp.html" target="_top" xlink:title=" ">
<polygon fill="white" stroke="black" points="431,-168.5 431,-187.5 591,-187.5 591,-168.5 431,-168.5"/>
<text text-anchor="middle" x="511" y="-175.5" font-family="Helvetica,sans-Serif" font-size="10.00">Common/Drawables/Line.hpp</text>
</a>
</g>
</g>
<!-- Node1&#45;&gt;Node8 -->
<g id="edge10" class="edge">
<title>Node1&#45;&gt;Node8</title>
<path fill="none" stroke="midnightblue" d="M641.73,-280.34C613.42,-258.39 559.21,-216.37 530.29,-193.95"/>
<polygon fill="midnightblue" stroke="midnightblue" points="532.23,-191.03 522.18,-187.67 527.94,-196.56 532.23,-191.03"/>
</g>
<!-- Node9 -->
<g id="node9" class="node">
<title>Node9</title>
<g id="a_node9"><a xlink:href="Pacman_8hpp.html" target="_top" xlink:title=" ">
<polygon fill="white" stroke="black" points="688,-224.5 688,-243.5 764,-243.5 764,-224.5 688,-224.5"/>
<text text-anchor="middle" x="726" y="-231.5" font-family="Helvetica,sans-Serif" font-size="10.00">Pacman.hpp</text>
</a>
</g>
</g>
<!-- Node1&#45;&gt;Node9 -->
<g id="edge12" class="edge">
<title>Node1&#45;&gt;Node9</title>
<path fill="none" stroke="midnightblue" d="M675.64,-280.4C685.63,-271.4 698.58,-259.72 708.85,-250.47"/>
<polygon fill="midnightblue" stroke="midnightblue" points="711.31,-252.95 716.4,-243.66 706.63,-247.75 711.31,-252.95"/>
</g>
<!-- Node17 -->
<g id="node17" class="node">
<title>Node17</title>
<g id="a_node17"><a xlink:href="Circle_8hpp.html" target="_top" xlink:title=" ">
<polygon fill="white" stroke="black" points="609.5,-168.5 609.5,-187.5 776.5,-187.5 776.5,-168.5 609.5,-168.5"/>
<text text-anchor="middle" x="693" y="-175.5" font-family="Helvetica,sans-Serif" font-size="10.00">Common/Drawables/Circle.hpp</text>
</a>
</g>
</g>
<!-- Node1&#45;&gt;Node17 -->
<g id="edge35" class="edge">
<title>Node1&#45;&gt;Node17</title>
<path fill="none" stroke="midnightblue" d="M663.63,-280.41C667.34,-266.15 673.35,-243.48 679,-224 681.57,-215.15 684.59,-205.37 687.16,-197.2"/>
<polygon fill="midnightblue" stroke="midnightblue" points="690.52,-198.19 690.22,-187.6 683.85,-196.07 690.52,-198.19"/>
</g>
<!-- Node19 -->
<g id="node19" class="node">
<title>Node19</title>
<g id="a_node19"><a xlink:href="KeyBoardEvent_8hpp.html" target="_top" xlink:title=" ">
<polygon fill="white" stroke="black" points="782.5,-224.5 782.5,-243.5 977.5,-243.5 977.5,-224.5 782.5,-224.5"/>
<text text-anchor="middle" x="880" y="-231.5" font-family="Helvetica,sans-Serif" font-size="10.00">Common/Events/KeyBoardEvent.hpp</text>
</a>
</g>
</g>
<!-- Node1&#45;&gt;Node19 -->
<g id="edge30" class="edge">
<title>Node1&#45;&gt;Node19</title>
<path fill="none" stroke="midnightblue" d="M711.86,-280.47C750.64,-269.99 802.96,-255.84 838.88,-246.12"/>
<polygon fill="midnightblue" stroke="midnightblue" points="839.81,-249.5 848.55,-243.51 837.98,-242.74 839.81,-249.5"/>
</g>
<!-- Node20 -->
<g id="node20" class="node">
<title>Node20</title>
<g id="a_node20"><a xlink:href="Pacman_2Exceptions_2WrongMapChar_8hpp.html" target="_top" xlink:title=" ">
<polygon fill="white" stroke="black" points="995,-224.5 995,-243.5 1163,-243.5 1163,-224.5 995,-224.5"/>
<text text-anchor="middle" x="1079" y="-231.5" font-family="Helvetica,sans-Serif" font-size="10.00">Exceptions/WrongMapChar.hpp</text>
</a>
</g>
</g>
<!-- Node1&#45;&gt;Node20 -->
<g id="edge32" class="edge">
<title>Node1&#45;&gt;Node20</title>
<path fill="none" stroke="midnightblue" d="M726.86,-285.01C803.91,-274.06 930.01,-256.16 1008.55,-245"/>
<polygon fill="midnightblue" stroke="midnightblue" points="1009.43,-248.41 1018.84,-243.54 1008.44,-241.48 1009.43,-248.41"/>
</g>
<!-- Node22 -->
<g id="node22" class="node">
<title>Node22</title>
<g id="a_node22"><a xlink:title=" ">
<polygon fill="white" stroke="#bfbfbf" points="1181,-224.5 1181,-243.5 1241,-243.5 1241,-224.5 1181,-224.5"/>
<text text-anchor="middle" x="1211" y="-231.5" font-family="Helvetica,sans-Serif" font-size="10.00">iostream</text>
</a>
</g>
</g>
<!-- Node1&#45;&gt;Node22 -->
<g id="edge34" class="edge">
<title>Node1&#45;&gt;Node22</title>
<path fill="none" stroke="midnightblue" d="M726.63,-290.67C822.66,-284.54 1005.64,-270.61 1170.51,-244.05"/>
<polygon fill="midnightblue" stroke="midnightblue" points="1171.54,-247.43 1180.84,-242.36 1170.41,-240.52 1171.54,-247.43"/>
</g>
<!-- Node3 -->
<g id="node3" class="node">
<title>Node3</title>
<g id="a_node3"><a xlink:href="ADrawable_8hpp.html" target="_top" xlink:title=" ">
<polygon fill="white" stroke="black" points="414.5,-112.5 414.5,-131.5 607.5,-131.5 607.5,-112.5 414.5,-112.5"/>
<text text-anchor="middle" x="511" y="-119.5" font-family="Helvetica,sans-Serif" font-size="10.00">Common/Drawables/ADrawable.hpp</text>
</a>
</g>
</g>
<!-- Node2&#45;&gt;Node3 -->
<g id="edge2" class="edge">
<title>Node2&#45;&gt;Node3</title>
<path fill="none" stroke="midnightblue" d="M83.02,-224.43C67.36,-211.19 42.15,-185.5 58,-168 80.82,-142.8 277.67,-131.14 404.25,-126.21"/>
<polygon fill="midnightblue" stroke="midnightblue" points="404.52,-129.7 414.38,-125.83 404.25,-122.71 404.52,-129.7"/>
</g>
<!-- Node4 -->
<g id="node4" class="node">
<title>Node4</title>
<g id="a_node4"><a xlink:title=" ">
<polygon fill="white" stroke="#bfbfbf" points="774,-56.5 774,-75.5 832,-75.5 832,-56.5 774,-56.5"/>
<text text-anchor="middle" x="803" y="-63.5" font-family="Helvetica,sans-Serif" font-size="10.00">memory</text>
</a>
</g>
</g>
<!-- Node3&#45;&gt;Node4 -->
<g id="edge3" class="edge">
<title>Node3&#45;&gt;Node4</title>
<path fill="none" stroke="midnightblue" d="M564.2,-112.49C613.49,-104.39 689.09,-91.46 763.92,-76.13"/>
<polygon fill="midnightblue" stroke="midnightblue" points="764.91,-79.5 773.99,-74.05 763.49,-72.64 764.91,-79.5"/>
</g>
<!-- Node5&#45;&gt;Node3 -->
<g id="edge5" class="edge">
<title>Node5&#45;&gt;Node3</title>
<path fill="none" stroke="midnightblue" d="M208.04,-168.44C272.16,-158.83 376.15,-143.23 444.06,-133.04"/>
<polygon fill="midnightblue" stroke="midnightblue" points="444.85,-136.46 454.22,-131.52 443.82,-129.54 444.85,-136.46"/>
</g>
<!-- Node6 -->
<g id="node6" class="node">
<title>Node6</title>
<g id="a_node6"><a xlink:title=" ">
<polygon fill="white" stroke="#bfbfbf" points="676,-0.5 676,-19.5 720,-19.5 720,-0.5 676,-0.5"/>
<text text-anchor="middle" x="698" y="-7.5" font-family="Helvetica,sans-Serif" font-size="10.00">string</text>
</a>
</g>
</g>
<!-- Node5&#45;&gt;Node6 -->
<g id="edge6" class="edge">
<title>Node5&#45;&gt;Node6</title>
<path fill="none" stroke="midnightblue" d="M170.92,-168.41C221.44,-146.89 358.97,-89.98 478,-56 543.8,-37.22 622.8,-23.03 665.96,-15.98"/>
<polygon fill="midnightblue" stroke="midnightblue" points="666.56,-19.42 675.87,-14.38 665.44,-12.51 666.56,-19.42"/>
</g>
<!-- Node7&#45;&gt;Node3 -->
<g id="edge8" class="edge">
<title>Node7&#45;&gt;Node3</title>
<path fill="none" stroke="midnightblue" d="M361.2,-168.44C391.41,-159.28 439.51,-144.69 473.03,-134.52"/>
<polygon fill="midnightblue" stroke="midnightblue" points="474.37,-137.77 482.93,-131.52 472.34,-131.07 474.37,-137.77"/>
</g>
<!-- Node7&#45;&gt;Node6 -->
<g id="edge9" class="edge">
<title>Node7&#45;&gt;Node6</title>
<path fill="none" stroke="midnightblue" d="M340.55,-168.2C352.79,-154.44 378.31,-127.75 405,-112 492.28,-60.49 609.75,-30.1 665.72,-17.64"/>
<polygon fill="midnightblue" stroke="midnightblue" points="666.73,-21 675.76,-15.45 665.24,-14.16 666.73,-21"/>
</g>
<!-- Node8&#45;&gt;Node3 -->
<g id="edge11" class="edge">
<title>Node8&#45;&gt;Node3</title>
<path fill="none" stroke="midnightblue" d="M511,-168.08C511,-161.01 511,-150.86 511,-141.99"/>
<polygon fill="midnightblue" stroke="midnightblue" points="514.5,-141.75 511,-131.75 507.5,-141.75 514.5,-141.75"/>
</g>
<!-- Node9&#45;&gt;Node8 -->
<g id="edge26" class="edge">
<title>Node9&#45;&gt;Node8</title>
<path fill="none" stroke="midnightblue" d="M691.93,-224.44C654.82,-215.12 595.34,-200.18 554.79,-190"/>
<polygon fill="midnightblue" stroke="midnightblue" points="555.46,-186.56 544.91,-187.52 553.75,-193.35 555.46,-186.56"/>
</g>
<!-- Node10 -->
<g id="node10" class="node">
<title>Node10</title>
<g id="a_node10"><a xlink:title=" ">
<polygon fill="white" stroke="#bfbfbf" points="794,-168.5 794,-187.5 832,-187.5 832,-168.5 794,-168.5"/>
<text text-anchor="middle" x="813" y="-175.5" font-family="Helvetica,sans-Serif" font-size="10.00">map</text>
</a>
</g>
</g>
<!-- Node9&#45;&gt;Node10 -->
<g id="edge13" class="edge">
<title>Node9&#45;&gt;Node10</title>
<path fill="none" stroke="midnightblue" d="M739.98,-224.32C753.55,-215.9 774.38,-202.97 790.32,-193.07"/>
<polygon fill="midnightblue" stroke="midnightblue" points="792.41,-195.9 799.06,-187.65 788.71,-189.95 792.41,-195.9"/>
</g>
<!-- Node11 -->
<g id="node11" class="node">
<title>Node11</title>
<g id="a_node11"><a xlink:href="IGameModule_8hpp.html" target="_top" xlink:title=" ">
<polygon fill="white" stroke="black" points="910.5,-168.5 910.5,-187.5 1063.5,-187.5 1063.5,-168.5 910.5,-168.5"/>
<text text-anchor="middle" x="987" y="-175.5" font-family="Helvetica,sans-Serif" font-size="10.00">Common/IGameModule.hpp</text>
</a>
</g>
</g>
<!-- Node9&#45;&gt;Node11 -->
<g id="edge14" class="edge">
<title>Node9&#45;&gt;Node11</title>
<path fill="none" stroke="midnightblue" d="M764.23,-225.09C809.53,-215.72 885.21,-200.06 935.61,-189.63"/>
<polygon fill="midnightblue" stroke="midnightblue" points="936.56,-193.01 945.65,-187.56 935.15,-186.15 936.56,-193.01"/>
</g>
<!-- Node9&#45;&gt;Node17 -->
<g id="edge27" class="edge">
<title>Node9&#45;&gt;Node17</title>
<path fill="none" stroke="midnightblue" d="M720.55,-224.08C715.99,-216.61 709.33,-205.72 703.71,-196.52"/>
<polygon fill="midnightblue" stroke="midnightblue" points="706.55,-194.46 698.35,-187.75 700.58,-198.11 706.55,-194.46"/>
</g>
<!-- Node18 -->
<g id="node18" class="node">
<title>Node18</title>
<g id="a_node18"><a xlink:title=" ">
<polygon fill="white" stroke="#bfbfbf" points="850,-168.5 850,-187.5 892,-187.5 892,-168.5 850,-168.5"/>
<text text-anchor="middle" x="871" y="-175.5" font-family="Helvetica,sans-Serif" font-size="10.00">array</text>
</a>
</g>
</g>
<!-- Node9&#45;&gt;Node18 -->
<g id="edge29" class="edge">
<title>Node9&#45;&gt;Node18</title>
<path fill="none" stroke="midnightblue" d="M748.98,-224.44C773.58,-215.28 812.77,-200.68 840.08,-190.52"/>
<polygon fill="midnightblue" stroke="midnightblue" points="841.4,-193.76 849.55,-186.99 838.96,-187.2 841.4,-193.76"/>
</g>
<!-- Node11&#45;&gt;Node3 -->
<g id="edge17" class="edge">
<title>Node11&#45;&gt;Node3</title>
<path fill="none" stroke="midnightblue" d="M911.84,-168.47C826.07,-158.74 686.1,-142.86 596.31,-132.68"/>
<polygon fill="midnightblue" stroke="midnightblue" points="596.49,-129.18 586.16,-131.53 595.7,-136.13 596.49,-129.18"/>
</g>
<!-- Node11&#45;&gt;Node4 -->
<g id="edge24" class="edge">
<title>Node11&#45;&gt;Node4</title>
<path fill="none" stroke="midnightblue" d="M932.1,-168.46C904.2,-162.02 871,-150.91 846,-132 829.85,-119.78 817.89,-99.63 810.73,-85"/>
<polygon fill="midnightblue" stroke="midnightblue" points="813.73,-83.15 806.38,-75.52 807.37,-86.07 813.73,-83.15"/>
</g>
<!-- Node11&#45;&gt;Node6 -->
<g id="edge25" class="edge">
<title>Node11&#45;&gt;Node6</title>
<path fill="none" stroke="midnightblue" d="M968.89,-168.41C952.62,-160.25 928.52,-147.02 910,-132 874.56,-103.27 879.43,-80.59 841,-56 806.58,-33.98 760.6,-22.04 730.18,-16.1"/>
<polygon fill="midnightblue" stroke="midnightblue" points="730.58,-12.62 720.11,-14.25 729.31,-19.5 730.58,-12.62"/>
</g>
<!-- Node12 -->
<g id="node12" class="node">
<title>Node12</title>
<g id="a_node12"><a xlink:href="ModInfo_8hpp.html" target="_top" xlink:title=" ">
<polygon fill="white" stroke="black" points="888.5,-56.5 888.5,-75.5 1013.5,-75.5 1013.5,-56.5 888.5,-56.5"/>
<text text-anchor="middle" x="951" y="-63.5" font-family="Helvetica,sans-Serif" font-size="10.00">Common/ModInfo.hpp</text>
</a>
</g>
</g>
<!-- Node11&#45;&gt;Node12 -->
<g id="edge15" class="edge">
<title>Node11&#45;&gt;Node12</title>
<path fill="none" stroke="midnightblue" d="M963.21,-168.5C947.28,-161.41 927.54,-149.61 918,-132 909.11,-115.6 921.4,-96.53 933.43,-83.31"/>
<polygon fill="midnightblue" stroke="midnightblue" points="936.18,-85.5 940.69,-75.91 931.19,-80.6 936.18,-85.5"/>
</g>
<!-- Node13 -->
<g id="node13" class="node">
<title>Node13</title>
<g id="a_node13"><a xlink:href="Module_8hpp.html" target="_top" xlink:title=" ">
<polygon fill="white" stroke="black" points="926.5,-112.5 926.5,-131.5 1047.5,-131.5 1047.5,-112.5 926.5,-112.5"/>
<text text-anchor="middle" x="987" y="-119.5" font-family="Helvetica,sans-Serif" font-size="10.00">Common/Module.hpp</text>
</a>
</g>
</g>
<!-- Node11&#45;&gt;Node13 -->
<g id="edge18" class="edge">
<title>Node11&#45;&gt;Node13</title>
<path fill="none" stroke="midnightblue" d="M987,-168.08C987,-161.01 987,-150.86 987,-141.99"/>
<polygon fill="midnightblue" stroke="midnightblue" points="990.5,-141.75 987,-131.75 983.5,-141.75 990.5,-141.75"/>
</g>
<!-- Node14 -->
<g id="node14" class="node">
<title>Node14</title>
<g id="a_node14"><a xlink:href="Event_8hpp.html" target="_top" xlink:title=" ">
<polygon fill="white" stroke="black" points="1065.5,-112.5 1065.5,-131.5 1214.5,-131.5 1214.5,-112.5 1065.5,-112.5"/>
<text text-anchor="middle" x="1140" y="-119.5" font-family="Helvetica,sans-Serif" font-size="10.00">Common/Events/Event.hpp</text>
</a>
</g>
</g>
<!-- Node11&#45;&gt;Node14 -->
<g id="edge20" class="edge">
<title>Node11&#45;&gt;Node14</title>
<path fill="none" stroke="midnightblue" d="M1011.24,-168.44C1036.87,-159.4 1077.49,-145.06 1106.24,-134.92"/>
<polygon fill="midnightblue" stroke="midnightblue" points="1107.61,-138.15 1115.87,-131.52 1105.28,-131.54 1107.61,-138.15"/>
</g>
<!-- Node15 -->
<g id="node15" class="node">
<title>Node15</title>
<g id="a_node15"><a xlink:href="Sound_8hpp.html" target="_top" xlink:title=" ">
<polygon fill="white" stroke="black" points="640.5,-56.5 640.5,-75.5 755.5,-75.5 755.5,-56.5 640.5,-56.5"/>
<text text-anchor="middle" x="698" y="-63.5" font-family="Helvetica,sans-Serif" font-size="10.00">Common/Sound.hpp</text>
</a>
</g>
</g>
<!-- Node11&#45;&gt;Node15 -->
<g id="edge21" class="edge">
<title>Node11&#45;&gt;Node15</title>
<path fill="none" stroke="midnightblue" d="M924.97,-168.48C856.32,-158.63 753.28,-142.43 738,-132 721.62,-120.82 710.72,-100.49 704.49,-85.54"/>
<polygon fill="midnightblue" stroke="midnightblue" points="707.61,-83.9 700.77,-75.81 701.07,-86.4 707.61,-83.9"/>
</g>
<!-- Node16 -->
<g id="node16" class="node">
<title>Node16</title>
<g id="a_node16"><a xlink:title=" ">
<polygon fill="white" stroke="#bfbfbf" points="746.5,-112.5 746.5,-131.5 793.5,-131.5 793.5,-112.5 746.5,-112.5"/>
<text text-anchor="middle" x="770" y="-119.5" font-family="Helvetica,sans-Serif" font-size="10.00">vector</text>
</a>
</g>
</g>
<!-- Node11&#45;&gt;Node16 -->
<g id="edge23" class="edge">
<title>Node11&#45;&gt;Node16</title>
<path fill="none" stroke="midnightblue" d="M952.62,-168.44C911.72,-158.27 843.91,-141.39 803.44,-131.32"/>
<polygon fill="midnightblue" stroke="midnightblue" points="804.07,-127.87 793.52,-128.85 802.38,-134.66 804.07,-127.87"/>
</g>
<!-- Node12&#45;&gt;Node6 -->
<g id="edge16" class="edge">
<title>Node12&#45;&gt;Node6</title>
<path fill="none" stroke="midnightblue" d="M910.91,-56.44C860.89,-45.77 776.32,-27.72 730.26,-17.89"/>
<polygon fill="midnightblue" stroke="midnightblue" points="730.74,-14.41 720.23,-15.75 729.28,-21.26 730.74,-14.41"/>
</g>
<!-- Node13&#45;&gt;Node12 -->
<g id="edge19" class="edge">
<title>Node13&#45;&gt;Node12</title>
<path fill="none" stroke="midnightblue" d="M981.06,-112.08C976.02,-104.53 968.66,-93.49 962.49,-84.23"/>
<polygon fill="midnightblue" stroke="midnightblue" points="965.29,-82.13 956.83,-75.75 959.47,-86.01 965.29,-82.13"/>
</g>
<!-- Node15&#45;&gt;Node6 -->
<g id="edge22" class="edge">
<title>Node15&#45;&gt;Node6</title>
<path fill="none" stroke="midnightblue" d="M698,-56.08C698,-49.01 698,-38.86 698,-29.99"/>
<polygon fill="midnightblue" stroke="midnightblue" points="701.5,-29.75 698,-19.75 694.5,-29.75 701.5,-29.75"/>
</g>
<!-- Node17&#45;&gt;Node3 -->
<g id="edge28" class="edge">
<title>Node17&#45;&gt;Node3</title>
<path fill="none" stroke="midnightblue" d="M664.16,-168.44C633.14,-159.24 583.67,-144.56 549.38,-134.39"/>
<polygon fill="midnightblue" stroke="midnightblue" points="550.29,-131.01 539.7,-131.52 548.29,-137.72 550.29,-131.01"/>
</g>
<!-- Node19&#45;&gt;Node14 -->
<g id="edge31" class="edge">
<title>Node19&#45;&gt;Node14</title>
<path fill="none" stroke="midnightblue" d="M959.07,-224.42C995.43,-218.06 1038.12,-207.04 1073,-188 1095.12,-175.93 1115.08,-154.54 1127.35,-139.61"/>
<polygon fill="midnightblue" stroke="midnightblue" points="1130.17,-141.69 1133.65,-131.68 1124.69,-137.34 1130.17,-141.69"/>
</g>
<!-- Node21 -->
<g id="node21" class="node">
<title>Node21</title>
<g id="a_node21"><a xlink:title=" ">
<polygon fill="white" stroke="#bfbfbf" points="1120.5,-168.5 1120.5,-187.5 1185.5,-187.5 1185.5,-168.5 1120.5,-168.5"/>
<text text-anchor="middle" x="1153" y="-175.5" font-family="Helvetica,sans-Serif" font-size="10.00">stdexcept</text>
</a>
</g>
</g>
<!-- Node20&#45;&gt;Node21 -->
<g id="edge33" class="edge">
<title>Node20&#45;&gt;Node21</title>
<path fill="none" stroke="midnightblue" d="M1090.89,-224.32C1102.15,-216.11 1119.29,-203.6 1132.71,-193.81"/>
<polygon fill="midnightblue" stroke="midnightblue" points="1134.88,-196.56 1140.89,-187.83 1130.75,-190.9 1134.88,-196.56"/>
</g>
</g>
</svg>
