<?xml version="1.0" encoding="UTF-8" standalone="no"?>
<!DOCTYPE svg PUBLIC "-//W3C//DTD SVG 1.1//EN"
 "http://www.w3.org/Graphics/SVG/1.1/DTD/svg11.dtd">
<!-- Generated by graphviz version 2.43.0 (0)
 -->
<!-- Title: sources/Games/Pacman/Pacman.hpp Pages: 1 -->
<svg width="772pt" height="263pt"
 viewBox="0.00 0.00 771.85 263.00" xmlns="http://www.w3.org/2000/svg" xmlns:xlink="http://www.w3.org/1999/xlink">
<g id="graph0" class="graph" transform="scale(1 1) rotate(0) translate(4 259)">
<title>sources/Games/Pacman/Pacman.hpp</title>
<polygon fill="white" stroke="transparent" points="-4,4 -4,-259 767.85,-259 767.85,4 -4,4"/>
<!-- Node1 -->
<g id="node1" class="node">
<title>Node1</title>
<g id="a_node1"><a xlink:title=" ">
<polygon fill="#bfbfbf" stroke="black" points="254.5,-224.5 254.5,-254.5 387.5,-254.5 387.5,-224.5 254.5,-224.5"/>
<text text-anchor="start" x="262.5" y="-242.5" font-family="Helvetica,sans-Serif" font-size="10.00">sources/Games/Pacman</text>
<text text-anchor="middle" x="321" y="-231.5" font-family="Helvetica,sans-Serif" font-size="10.00">/Pacman.hpp</text>
</a>
</g>
</g>
<!-- Node2 -->
<g id="node2" class="node">
<title>Node2</title>
<g id="a_node2"><a xlink:title=" ">
<polygon fill="white" stroke="#bfbfbf" points="0,-168.5 0,-187.5 38,-187.5 38,-168.5 0,-168.5"/>
<text text-anchor="middle" x="19" y="-175.5" font-family="Helvetica,sans-Serif" font-size="10.00">map</text>
</a>
</g>
</g>
<!-- Node1&#45;&gt;Node2 -->
<g id="edge1" class="edge">
<title>Node1&#45;&gt;Node2</title>
<path fill="none" stroke="midnightblue" d="M254.31,-228.94C200.67,-220.63 123.28,-207.28 48.18,-188.32"/>
<polygon fill="midnightblue" stroke="midnightblue" points="48.63,-184.82 38.08,-185.73 46.89,-191.6 48.63,-184.82"/>
</g>
<!-- Node3 -->
<g id="node3" class="node">
<title>Node3</title>
<g id="a_node3"><a xlink:href="IGameModule_8hpp.html" target="_top" xlink:title=" ">
<polygon fill="white" stroke="black" points="419.5,-168.5 419.5,-187.5 572.5,-187.5 572.5,-168.5 419.5,-168.5"/>
<text text-anchor="middle" x="496" y="-175.5" font-family="Helvetica,sans-Serif" font-size="10.00">Common/IGameModule.hpp</text>
</a>
</g>
</g>
<!-- Node1&#45;&gt;Node3 -->
<g id="edge2" class="edge">
<title>Node1&#45;&gt;Node3</title>
<path fill="none" stroke="midnightblue" d="M362.47,-224.4C392.58,-214.16 432.85,-200.47 461.27,-190.81"/>
<polygon fill="midnightblue" stroke="midnightblue" points="462.45,-194.1 470.79,-187.57 460.2,-187.48 462.45,-194.1"/>
</g>
<!-- Node12 -->
<g id="node12" class="node">
<title>Node12</title>
<g id="a_node12"><a xlink:href="Line_8hpp.html" target="_top" xlink:title=" ">
<polygon fill="white" stroke="black" points="241,-168.5 241,-187.5 401,-187.5 401,-168.5 241,-168.5"/>
<text text-anchor="middle" x="321" y="-175.5" font-family="Helvetica,sans-Serif" font-size="10.00">Common/Drawables/Line.hpp</text>
</a>
</g>
</g>
<!-- Node1&#45;&gt;Node12 -->
<g id="edge15" class="edge">
<title>Node1&#45;&gt;Node12</title>
<path fill="none" stroke="midnightblue" d="M321,-224.4C321,-216.47 321,-206.46 321,-197.86"/>
<polygon fill="midnightblue" stroke="midnightblue" points="324.5,-197.66 321,-187.66 317.5,-197.66 324.5,-197.66"/>
</g>
<!-- Node13 -->
<g id="node13" class="node">
<title>Node13</title>
<g id="a_node13"><a xlink:href="Circle_8hpp.html" target="_top" xlink:title=" ">
<polygon fill="white" stroke="black" points="55.5,-168.5 55.5,-187.5 222.5,-187.5 222.5,-168.5 55.5,-168.5"/>
<text text-anchor="middle" x="139" y="-175.5" font-family="Helvetica,sans-Serif" font-size="10.00">Common/Drawables/Circle.hpp</text>
</a>
</g>
</g>
<!-- Node1&#45;&gt;Node13 -->
<g id="edge17" class="edge">
<title>Node1&#45;&gt;Node13</title>
<path fill="none" stroke="midnightblue" d="M277.87,-224.4C246.42,-214.12 204.31,-200.35 174.73,-190.68"/>
<polygon fill="midnightblue" stroke="midnightblue" points="175.81,-187.35 165.22,-187.57 173.63,-194.01 175.81,-187.35"/>
</g>
<!-- Node14 -->
<g id="node14" class="node">
<title>Node14</title>
<g id="a_node14"><a xlink:title=" ">
<polygon fill="white" stroke="#bfbfbf" points="591,-168.5 591,-187.5 633,-187.5 633,-168.5 591,-168.5"/>
<text text-anchor="middle" x="612" y="-175.5" font-family="Helvetica,sans-Serif" font-size="10.00">array</text>
</a>
</g>
</g>
<!-- Node1&#45;&gt;Node14 -->
<g id="edge19" class="edge">
<title>Node1&#45;&gt;Node14</title>
<path fill="none" stroke="midnightblue" d="M387.64,-227.51C438.24,-218.72 509.69,-205.39 580.75,-188.12"/>
<polygon fill="midnightblue" stroke="midnightblue" points="581.89,-191.44 590.77,-185.66 580.22,-184.65 581.89,-191.44"/>
</g>
<!-- Node4 -->
<g id="node4" class="node">
<title>Node4</title>
<g id="a_node4"><a xlink:href="ModInfo_8hpp.html" target="_top" xlink:title=" ">
<polygon fill="white" stroke="black" points="406.5,-56.5 406.5,-75.5 531.5,-75.5 531.5,-56.5 406.5,-56.5"/>
<text text-anchor="middle" x="469" y="-63.5" font-family="Helvetica,sans-Serif" font-size="10.00">Common/ModInfo.hpp</text>
</a>
</g>
</g>
<!-- Node3&#45;&gt;Node4 -->
<g id="edge3" class="edge">
<title>Node3&#45;&gt;Node4</title>
<path fill="none" stroke="midnightblue" d="M493.88,-168.37C489.52,-150.62 479.47,-109.67 473.56,-85.6"/>
<polygon fill="midnightblue" stroke="midnightblue" points="476.89,-84.47 471.11,-75.59 470.09,-86.14 476.89,-84.47"/>
</g>
<!-- Node5 -->
<g id="node5" class="node">
<title>Node5</title>
<g id="a_node5"><a xlink:title=" ">
<polygon fill="white" stroke="#bfbfbf" points="651,-0.5 651,-19.5 695,-19.5 695,-0.5 651,-0.5"/>
<text text-anchor="middle" x="673" y="-7.5" font-family="Helvetica,sans-Serif" font-size="10.00">string</text>
</a>
</g>
</g>
<!-- Node3&#45;&gt;Node5 -->
<g id="edge14" class="edge">
<title>Node3&#45;&gt;Node5</title>
<path fill="none" stroke="midnightblue" d="M572.52,-168.88C645.49,-160.34 746.03,-146.2 758,-132 772.56,-114.73 756.1,-77.39 740,-56 729.94,-42.63 714.68,-31.94 701.26,-24.34"/>
<polygon fill="midnightblue" stroke="midnightblue" points="702.83,-21.21 692.36,-19.58 699.53,-27.38 702.83,-21.21"/>
</g>
<!-- Node6 -->
<g id="node6" class="node">
<title>Node6</title>
<g id="a_node6"><a xlink:href="ADrawable_8hpp.html" target="_top" xlink:title=" ">
<polygon fill="white" stroke="black" points="69.5,-112.5 69.5,-131.5 262.5,-131.5 262.5,-112.5 69.5,-112.5"/>
<text text-anchor="middle" x="166" y="-119.5" font-family="Helvetica,sans-Serif" font-size="10.00">Common/Drawables/ADrawable.hpp</text>
</a>
</g>
</g>
<!-- Node3&#45;&gt;Node6 -->
<g id="edge5" class="edge">
<title>Node3&#45;&gt;Node6</title>
<path fill="none" stroke="midnightblue" d="M443.71,-168.44C385.18,-158.87 290.4,-143.36 228.13,-133.17"/>
<polygon fill="midnightblue" stroke="midnightblue" points="228.48,-129.68 218.04,-131.52 227.35,-136.59 228.48,-129.68"/>
</g>
<!-- Node7 -->
<g id="node7" class="node">
<title>Node7</title>
<g id="a_node7"><a xlink:title=" ">
<polygon fill="white" stroke="#bfbfbf" points="200,-56.5 200,-75.5 258,-75.5 258,-56.5 200,-56.5"/>
<text text-anchor="middle" x="229" y="-63.5" font-family="Helvetica,sans-Serif" font-size="10.00">memory</text>
</a>
</g>
</g>
<!-- Node3&#45;&gt;Node7 -->
<g id="edge13" class="edge">
<title>Node3&#45;&gt;Node7</title>
<path fill="none" stroke="midnightblue" d="M432.01,-168.43C395.27,-161.82 349.02,-150.57 311,-132 285.15,-119.37 259.89,-97.49 244.4,-82.63"/>
<polygon fill="midnightblue" stroke="midnightblue" points="246.82,-80.11 237.23,-75.6 241.91,-85.1 246.82,-80.11"/>
</g>
<!-- Node8 -->
<g id="node8" class="node">
<title>Node8</title>
<g id="a_node8"><a xlink:href="Module_8hpp.html" target="_top" xlink:title=" ">
<polygon fill="white" stroke="black" points="319.5,-112.5 319.5,-131.5 440.5,-131.5 440.5,-112.5 319.5,-112.5"/>
<text text-anchor="middle" x="380" y="-119.5" font-family="Helvetica,sans-Serif" font-size="10.00">Common/Module.hpp</text>
</a>
</g>
</g>
<!-- Node3&#45;&gt;Node8 -->
<g id="edge7" class="edge">
<title>Node3&#45;&gt;Node8</title>
<path fill="none" stroke="midnightblue" d="M477.62,-168.44C458.78,-159.68 429.27,-145.94 407.62,-135.86"/>
<polygon fill="midnightblue" stroke="midnightblue" points="408.84,-132.56 398.29,-131.52 405.88,-138.91 408.84,-132.56"/>
</g>
<!-- Node9 -->
<g id="node9" class="node">
<title>Node9</title>
<g id="a_node9"><a xlink:href="Event_8hpp.html" target="_top" xlink:title=" ">
<polygon fill="white" stroke="black" points="496.5,-112.5 496.5,-131.5 645.5,-131.5 645.5,-112.5 496.5,-112.5"/>
<text text-anchor="middle" x="571" y="-119.5" font-family="Helvetica,sans-Serif" font-size="10.00">Common/Events/Event.hpp</text>
</a>
</g>
</g>
<!-- Node3&#45;&gt;Node9 -->
<g id="edge9" class="edge">
<title>Node3&#45;&gt;Node9</title>
<path fill="none" stroke="midnightblue" d="M508.05,-168.32C519.46,-160.11 536.83,-147.6 550.43,-137.81"/>
<polygon fill="midnightblue" stroke="midnightblue" points="552.66,-140.52 558.73,-131.83 548.57,-134.84 552.66,-140.52"/>
</g>
<!-- Node10 -->
<g id="node10" class="node">
<title>Node10</title>
<g id="a_node10"><a xlink:href="Sound_8hpp.html" target="_top" xlink:title=" ">
<polygon fill="white" stroke="black" points="615.5,-56.5 615.5,-75.5 730.5,-75.5 730.5,-56.5 615.5,-56.5"/>
<text text-anchor="middle" x="673" y="-63.5" font-family="Helvetica,sans-Serif" font-size="10.00">Common/Sound.hpp</text>
</a>
</g>
</g>
<!-- Node3&#45;&gt;Node10 -->
<g id="edge10" class="edge">
<title>Node3&#45;&gt;Node10</title>
<path fill="none" stroke="midnightblue" d="M545.39,-168.49C586.11,-160.51 639.58,-147.51 655,-132 666.99,-119.94 671.17,-100.66 672.54,-86.22"/>
<polygon fill="midnightblue" stroke="midnightblue" points="676.05,-86.09 673.13,-75.91 669.06,-85.69 676.05,-86.09"/>
</g>
<!-- Node11 -->
<g id="node11" class="node">
<title>Node11</title>
<g id="a_node11"><a xlink:title=" ">
<polygon fill="white" stroke="#bfbfbf" points="701.5,-112.5 701.5,-131.5 748.5,-131.5 748.5,-112.5 701.5,-112.5"/>
<text text-anchor="middle" x="725" y="-119.5" font-family="Helvetica,sans-Serif" font-size="10.00">vector</text>
</a>
</g>
</g>
<!-- Node3&#45;&gt;Node11 -->
<g id="edge12" class="edge">
<title>Node3&#45;&gt;Node11</title>
<path fill="none" stroke="midnightblue" d="M532.26,-168.47C570.69,-159.43 633.12,-144.73 687,-132 688.44,-131.66 689.92,-131.31 691.41,-130.96"/>
<polygon fill="midnightblue" stroke="midnightblue" points="692.36,-134.33 701.28,-128.62 690.75,-127.52 692.36,-134.33"/>
</g>
<!-- Node4&#45;&gt;Node5 -->
<g id="edge4" class="edge">
<title>Node4&#45;&gt;Node5</title>
<path fill="none" stroke="midnightblue" d="M501.32,-56.44C539.53,-46.33 602.71,-29.61 640.84,-19.51"/>
<polygon fill="midnightblue" stroke="midnightblue" points="642.12,-22.8 650.89,-16.85 640.32,-16.03 642.12,-22.8"/>
</g>
<!-- Node6&#45;&gt;Node7 -->
<g id="edge6" class="edge">
<title>Node6&#45;&gt;Node7</title>
<path fill="none" stroke="midnightblue" d="M176.12,-112.32C185.53,-104.26 199.74,-92.08 211.07,-82.37"/>
<polygon fill="midnightblue" stroke="midnightblue" points="213.38,-85 218.69,-75.83 208.82,-79.68 213.38,-85"/>
</g>
<!-- Node8&#45;&gt;Node4 -->
<g id="edge8" class="edge">
<title>Node8&#45;&gt;Node4</title>
<path fill="none" stroke="midnightblue" d="M394.3,-112.32C408.18,-103.9 429.49,-90.97 445.8,-81.07"/>
<polygon fill="midnightblue" stroke="midnightblue" points="448,-83.83 454.74,-75.65 444.37,-77.85 448,-83.83"/>
</g>
<!-- Node10&#45;&gt;Node5 -->
<g id="edge11" class="edge">
<title>Node10&#45;&gt;Node5</title>
<path fill="none" stroke="midnightblue" d="M673,-56.08C673,-49.01 673,-38.86 673,-29.99"/>
<polygon fill="midnightblue" stroke="midnightblue" points="676.5,-29.75 673,-19.75 669.5,-29.75 676.5,-29.75"/>
</g>
<!-- Node12&#45;&gt;Node6 -->
<g id="edge16" class="edge">
<title>Node12&#45;&gt;Node6</title>
<path fill="none" stroke="midnightblue" d="M296.44,-168.44C270.48,-159.4 229.33,-145.06 200.2,-134.92"/>
<polygon fill="midnightblue" stroke="midnightblue" points="201.04,-131.5 190.45,-131.52 198.74,-138.11 201.04,-131.5"/>
</g>
<!-- Node13&#45;&gt;Node6 -->
<g id="edge18" class="edge">
<title>Node13&#45;&gt;Node6</title>
<path fill="none" stroke="midnightblue" d="M143.46,-168.08C147.15,-160.69 152.52,-149.95 157.09,-140.81"/>
<polygon fill="midnightblue" stroke="midnightblue" points="160.28,-142.26 161.62,-131.75 154.02,-139.13 160.28,-142.26"/>
</g>
</g>
</svg>
