<?xml version="1.0" encoding="UTF-8" standalone="no"?>
<!DOCTYPE svg PUBLIC "-//W3C//DTD SVG 1.1//EN"
 "http://www.w3.org/Graphics/SVG/1.1/DTD/svg11.dtd">
<!-- Generated by graphviz version 2.43.0 (0)
 -->
<!-- Title: sources/Games/Qix/Qix.hpp Pages: 1 -->
<svg width="708pt" height="252pt"
 viewBox="0.00 0.00 707.90 252.00" xmlns="http://www.w3.org/2000/svg" xmlns:xlink="http://www.w3.org/1999/xlink">
<g id="graph0" class="graph" transform="scale(1 1) rotate(0) translate(4 248)">
<title>sources/Games/Qix/Qix.hpp</title>
<polygon fill="white" stroke="transparent" points="-4,4 -4,-248 703.9,-248 703.9,4 -4,4"/>
<!-- Node1 -->
<g id="node1" class="node">
<title>Node1</title>
<g id="a_node1"><a xlink:title=" ">
<polygon fill="#bfbfbf" stroke="black" points="171.4,-224.5 171.4,-243.5 323.4,-243.5 323.4,-224.5 171.4,-224.5"/>
<text text-anchor="middle" x="247.4" y="-231.5" font-family="Helvetica,sans-Serif" font-size="10.00">sources/Games/Qix/Qix.hpp</text>
</a>
</g>
</g>
<!-- Node2 -->
<g id="node2" class="node">
<title>Node2</title>
<g id="a_node2"><a xlink:title=" ">
<polygon fill="white" stroke="#bfbfbf" points="114.4,-168.5 114.4,-187.5 152.4,-187.5 152.4,-168.5 114.4,-168.5"/>
<text text-anchor="middle" x="133.4" y="-175.5" font-family="Helvetica,sans-Serif" font-size="10.00">map</text>
</a>
</g>
</g>
<!-- Node1&#45;&gt;Node2 -->
<g id="edge1" class="edge">
<title>Node1&#45;&gt;Node2</title>
<path fill="none" stroke="midnightblue" d="M229.33,-224.44C210.82,-215.68 181.82,-201.94 160.54,-191.86"/>
<polygon fill="midnightblue" stroke="midnightblue" points="161.91,-188.63 151.38,-187.52 158.92,-194.96 161.91,-188.63"/>
</g>
<!-- Node3 -->
<g id="node3" class="node">
<title>Node3</title>
<g id="a_node3"><a xlink:href="IGameModule_8hpp.html" target="_top" xlink:title=" ">
<polygon fill="white" stroke="black" points="170.9,-168.5 170.9,-187.5 323.9,-187.5 323.9,-168.5 170.9,-168.5"/>
<text text-anchor="middle" x="247.4" y="-175.5" font-family="Helvetica,sans-Serif" font-size="10.00">Common/IGameModule.hpp</text>
</a>
</g>
</g>
<!-- Node1&#45;&gt;Node3 -->
<g id="edge2" class="edge">
<title>Node1&#45;&gt;Node3</title>
<path fill="none" stroke="midnightblue" d="M247.4,-224.08C247.4,-217.01 247.4,-206.86 247.4,-197.99"/>
<polygon fill="midnightblue" stroke="midnightblue" points="250.9,-197.75 247.4,-187.75 243.9,-197.75 250.9,-197.75"/>
</g>
<!-- Node12 -->
<g id="node12" class="node">
<title>Node12</title>
<g id="a_node12"><a xlink:href="Line_8hpp.html" target="_top" xlink:title=" ">
<polygon fill="white" stroke="black" points="432.4,-168.5 432.4,-187.5 592.4,-187.5 592.4,-168.5 432.4,-168.5"/>
<text text-anchor="middle" x="512.4" y="-175.5" font-family="Helvetica,sans-Serif" font-size="10.00">Common/Drawables/Line.hpp</text>
</a>
</g>
</g>
<!-- Node1&#45;&gt;Node12 -->
<g id="edge15" class="edge">
<title>Node1&#45;&gt;Node12</title>
<path fill="none" stroke="midnightblue" d="M289.39,-224.44C335.81,-214.98 410.63,-199.74 460.64,-189.55"/>
<polygon fill="midnightblue" stroke="midnightblue" points="461.5,-192.94 470.6,-187.52 460.11,-186.08 461.5,-192.94"/>
</g>
<!-- Node4 -->
<g id="node4" class="node">
<title>Node4</title>
<g id="a_node4"><a xlink:href="ModInfo_8hpp.html" target="_top" xlink:title=" ">
<polygon fill="white" stroke="black" points="15.9,-56.5 15.9,-75.5 140.9,-75.5 140.9,-56.5 15.9,-56.5"/>
<text text-anchor="middle" x="78.4" y="-63.5" font-family="Helvetica,sans-Serif" font-size="10.00">Common/ModInfo.hpp</text>
</a>
</g>
</g>
<!-- Node3&#45;&gt;Node4 -->
<g id="edge3" class="edge">
<title>Node3&#45;&gt;Node4</title>
<path fill="none" stroke="midnightblue" d="M170.83,-169.3C122.17,-162.65 65.57,-151.03 50.4,-132 38.85,-117.52 50.61,-97.56 62.23,-83.59"/>
<polygon fill="midnightblue" stroke="midnightblue" points="65.17,-85.55 69.24,-75.77 59.96,-80.88 65.17,-85.55"/>
</g>
<!-- Node5 -->
<g id="node5" class="node">
<title>Node5</title>
<g id="a_node5"><a xlink:title=" ">
<polygon fill="white" stroke="#bfbfbf" points="56.4,-0.5 56.4,-19.5 100.4,-19.5 100.4,-0.5 56.4,-0.5"/>
<text text-anchor="middle" x="78.4" y="-7.5" font-family="Helvetica,sans-Serif" font-size="10.00">string</text>
</a>
</g>
</g>
<!-- Node3&#45;&gt;Node5 -->
<g id="edge14" class="edge">
<title>Node3&#45;&gt;Node5</title>
<path fill="none" stroke="midnightblue" d="M183.88,-168.47C132.47,-160.59 65.02,-147.74 42.4,-132 11.72,-110.66 -11.72,-88.69 6.4,-56 15.01,-40.45 31.49,-29.57 46.51,-22.4"/>
<polygon fill="midnightblue" stroke="midnightblue" points="48.31,-25.43 56.07,-18.22 45.5,-19.02 48.31,-25.43"/>
</g>
<!-- Node6 -->
<g id="node6" class="node">
<title>Node6</title>
<g id="a_node6"><a xlink:href="ADrawable_8hpp.html" target="_top" xlink:title=" ">
<polygon fill="white" stroke="black" points="506.9,-112.5 506.9,-131.5 699.9,-131.5 699.9,-112.5 506.9,-112.5"/>
<text text-anchor="middle" x="603.4" y="-119.5" font-family="Helvetica,sans-Serif" font-size="10.00">Common/Drawables/ADrawable.hpp</text>
</a>
</g>
</g>
<!-- Node3&#45;&gt;Node6 -->
<g id="edge5" class="edge">
<title>Node3&#45;&gt;Node6</title>
<path fill="none" stroke="midnightblue" d="M303.81,-168.44C367.21,-158.83 470.05,-143.23 537.2,-133.04"/>
<polygon fill="midnightblue" stroke="midnightblue" points="537.89,-136.48 547.25,-131.52 536.84,-129.56 537.89,-136.48"/>
</g>
<!-- Node7 -->
<g id="node7" class="node">
<title>Node7</title>
<g id="a_node7"><a xlink:title=" ">
<polygon fill="white" stroke="#bfbfbf" points="433.4,-56.5 433.4,-75.5 491.4,-75.5 491.4,-56.5 433.4,-56.5"/>
<text text-anchor="middle" x="462.4" y="-63.5" font-family="Helvetica,sans-Serif" font-size="10.00">memory</text>
</a>
</g>
</g>
<!-- Node3&#45;&gt;Node7 -->
<g id="edge13" class="edge">
<title>Node3&#45;&gt;Node7</title>
<path fill="none" stroke="midnightblue" d="M247.17,-168.45C247.28,-154.54 249.65,-127.05 265.4,-112 287.7,-90.69 372.35,-77.42 423.15,-71.2"/>
<polygon fill="midnightblue" stroke="midnightblue" points="423.61,-74.67 433.13,-70.02 422.79,-67.72 423.61,-74.67"/>
</g>
<!-- Node8 -->
<g id="node8" class="node">
<title>Node8</title>
<g id="a_node8"><a xlink:href="Module_8hpp.html" target="_top" xlink:title=" ">
<polygon fill="white" stroke="black" points="59.9,-112.5 59.9,-131.5 180.9,-131.5 180.9,-112.5 59.9,-112.5"/>
<text text-anchor="middle" x="120.4" y="-119.5" font-family="Helvetica,sans-Serif" font-size="10.00">Common/Module.hpp</text>
</a>
</g>
</g>
<!-- Node3&#45;&gt;Node8 -->
<g id="edge7" class="edge">
<title>Node3&#45;&gt;Node8</title>
<path fill="none" stroke="midnightblue" d="M227.27,-168.44C206.37,-159.56 173.46,-145.56 149.68,-135.45"/>
<polygon fill="midnightblue" stroke="midnightblue" points="151,-132.21 140.43,-131.52 148.26,-138.65 151,-132.21"/>
</g>
<!-- Node9 -->
<g id="node9" class="node">
<title>Node9</title>
<g id="a_node9"><a xlink:href="Event_8hpp.html" target="_top" xlink:title=" ">
<polygon fill="white" stroke="black" points="274.9,-112.5 274.9,-131.5 423.9,-131.5 423.9,-112.5 274.9,-112.5"/>
<text text-anchor="middle" x="349.4" y="-119.5" font-family="Helvetica,sans-Serif" font-size="10.00">Common/Events/Event.hpp</text>
</a>
</g>
</g>
<!-- Node3&#45;&gt;Node9 -->
<g id="edge9" class="edge">
<title>Node3&#45;&gt;Node9</title>
<path fill="none" stroke="midnightblue" d="M263.79,-168.32C280.07,-159.7 305.27,-146.36 324.11,-136.39"/>
<polygon fill="midnightblue" stroke="midnightblue" points="325.85,-139.43 333.05,-131.65 322.57,-133.24 325.85,-139.43"/>
</g>
<!-- Node10 -->
<g id="node10" class="node">
<title>Node10</title>
<g id="a_node10"><a xlink:href="Sound_8hpp.html" target="_top" xlink:title=" ">
<polygon fill="white" stroke="black" points="158.9,-56.5 158.9,-75.5 273.9,-75.5 273.9,-56.5 158.9,-56.5"/>
<text text-anchor="middle" x="216.4" y="-63.5" font-family="Helvetica,sans-Serif" font-size="10.00">Common/Sound.hpp</text>
</a>
</g>
</g>
<!-- Node3&#45;&gt;Node10 -->
<g id="edge10" class="edge">
<title>Node3&#45;&gt;Node10</title>
<path fill="none" stroke="midnightblue" d="M244.6,-168.41C241.68,-159.38 237.04,-144.74 233.4,-132 228.98,-116.56 224.4,-98.93 221.1,-85.93"/>
<polygon fill="midnightblue" stroke="midnightblue" points="224.41,-84.71 218.58,-75.87 217.62,-86.42 224.41,-84.71"/>
</g>
<!-- Node11 -->
<g id="node11" class="node">
<title>Node11</title>
<g id="a_node11"><a xlink:title=" ">
<polygon fill="white" stroke="#bfbfbf" points="441.9,-112.5 441.9,-131.5 488.9,-131.5 488.9,-112.5 441.9,-112.5"/>
<text text-anchor="middle" x="465.4" y="-119.5" font-family="Helvetica,sans-Serif" font-size="10.00">vector</text>
</a>
</g>
</g>
<!-- Node3&#45;&gt;Node11 -->
<g id="edge12" class="edge">
<title>Node3&#45;&gt;Node11</title>
<path fill="none" stroke="midnightblue" d="M283.63,-168.5C318.94,-160.15 374.38,-146.85 431.67,-132.13"/>
<polygon fill="midnightblue" stroke="midnightblue" points="432.82,-135.45 441.63,-129.57 431.07,-128.67 432.82,-135.45"/>
</g>
<!-- Node4&#45;&gt;Node5 -->
<g id="edge4" class="edge">
<title>Node4&#45;&gt;Node5</title>
<path fill="none" stroke="midnightblue" d="M78.4,-56.08C78.4,-49.01 78.4,-38.86 78.4,-29.99"/>
<polygon fill="midnightblue" stroke="midnightblue" points="81.9,-29.75 78.4,-19.75 74.9,-29.75 81.9,-29.75"/>
</g>
<!-- Node6&#45;&gt;Node7 -->
<g id="edge6" class="edge">
<title>Node6&#45;&gt;Node7</title>
<path fill="none" stroke="midnightblue" d="M581.06,-112.44C557.64,-103.48 520.66,-89.31 494.21,-79.18"/>
<polygon fill="midnightblue" stroke="midnightblue" points="495.23,-75.82 484.64,-75.52 492.72,-82.36 495.23,-75.82"/>
</g>
<!-- Node8&#45;&gt;Node4 -->
<g id="edge8" class="edge">
<title>Node8&#45;&gt;Node4</title>
<path fill="none" stroke="midnightblue" d="M113.46,-112.08C107.47,-104.38 98.65,-93.03 91.35,-83.65"/>
<polygon fill="midnightblue" stroke="midnightblue" points="94.11,-81.5 85.2,-75.75 88.58,-85.79 94.11,-81.5"/>
</g>
<!-- Node10&#45;&gt;Node5 -->
<g id="edge11" class="edge">
<title>Node10&#45;&gt;Node5</title>
<path fill="none" stroke="midnightblue" d="M194.53,-56.44C171.62,-47.48 135.42,-33.31 109.53,-23.18"/>
<polygon fill="midnightblue" stroke="midnightblue" points="110.75,-19.9 100.16,-19.52 108.2,-26.42 110.75,-19.9"/>
</g>
<!-- Node12&#45;&gt;Node6 -->
<g id="edge16" class="edge">
<title>Node12&#45;&gt;Node6</title>
<path fill="none" stroke="midnightblue" d="M527.02,-168.32C541.35,-159.82 563.41,-146.73 580.15,-136.8"/>
<polygon fill="midnightblue" stroke="midnightblue" points="582,-139.77 588.81,-131.65 578.43,-133.75 582,-139.77"/>
</g>
</g>
</svg>
