<?xml version="1.0" encoding="UTF-8" standalone="no"?>
<!DOCTYPE svg PUBLIC "-//W3C//DTD SVG 1.1//EN"
 "http://www.w3.org/Graphics/SVG/1.1/DTD/svg11.dtd">
<!-- Generated by graphviz version 2.43.0 (0)
 -->
<!-- Title: sources/Games/Qix/Qix.cpp Pages: 1 -->
<svg width="826pt" height="308pt"
 viewBox="0.00 0.00 826.00 308.00" xmlns="http://www.w3.org/2000/svg" xmlns:xlink="http://www.w3.org/1999/xlink">
<g id="graph0" class="graph" transform="scale(1 1) rotate(0) translate(4 304)">
<title>sources/Games/Qix/Qix.cpp</title>
<polygon fill="white" stroke="transparent" points="-4,4 -4,-304 822,-304 822,4 -4,4"/>
<!-- Node1 -->
<g id="node1" class="node">
<title>Node1</title>
<g id="a_node1"><a xlink:title=" ">
<polygon fill="#bfbfbf" stroke="black" points="267,-280.5 267,-299.5 418,-299.5 418,-280.5 267,-280.5"/>
<text text-anchor="middle" x="342.5" y="-287.5" font-family="Helvetica,sans-Serif" font-size="10.00">sources/Games/Qix/Qix.cpp</text>
</a>
</g>
</g>
<!-- Node2 -->
<g id="node2" class="node">
<title>Node2</title>
<g id="a_node2"><a xlink:href="Circle_8hpp.html" target="_top" xlink:title=" ">
<polygon fill="white" stroke="black" points="0,-168.5 0,-187.5 167,-187.5 167,-168.5 0,-168.5"/>
<text text-anchor="middle" x="83.5" y="-175.5" font-family="Helvetica,sans-Serif" font-size="10.00">Common/Drawables/Circle.hpp</text>
</a>
</g>
</g>
<!-- Node1&#45;&gt;Node2 -->
<g id="edge1" class="edge">
<title>Node1&#45;&gt;Node2</title>
<path fill="none" stroke="midnightblue" d="M266.97,-284.19C204.12,-278.61 121.25,-267.03 97.5,-244 85.34,-232.2 82.52,-212.57 82.33,-197.96"/>
<polygon fill="midnightblue" stroke="midnightblue" points="85.84,-197.66 82.61,-187.57 78.84,-197.47 85.84,-197.66"/>
</g>
<!-- Node5 -->
<g id="node5" class="node">
<title>Node5</title>
<g id="a_node5"><a xlink:href="Rectangle_8hpp.html" target="_top" xlink:title=" ">
<polygon fill="white" stroke="black" points="106.5,-224.5 106.5,-243.5 294.5,-243.5 294.5,-224.5 106.5,-224.5"/>
<text text-anchor="middle" x="200.5" y="-231.5" font-family="Helvetica,sans-Serif" font-size="10.00">Common/Drawables/Rectangle.hpp</text>
</a>
</g>
</g>
<!-- Node1&#45;&gt;Node5 -->
<g id="edge4" class="edge">
<title>Node1&#45;&gt;Node5</title>
<path fill="none" stroke="midnightblue" d="M320,-280.44C296.42,-271.48 259.18,-257.31 232.54,-247.18"/>
<polygon fill="midnightblue" stroke="midnightblue" points="233.49,-243.8 222.9,-243.52 231,-250.34 233.49,-243.8"/>
</g>
<!-- Node6 -->
<g id="node6" class="node">
<title>Node6</title>
<g id="a_node6"><a xlink:title=" ">
<polygon fill="white" stroke="#bfbfbf" points="312.5,-224.5 312.5,-243.5 372.5,-243.5 372.5,-224.5 312.5,-224.5"/>
<text text-anchor="middle" x="342.5" y="-231.5" font-family="Helvetica,sans-Serif" font-size="10.00">iostream</text>
</a>
</g>
</g>
<!-- Node1&#45;&gt;Node6 -->
<g id="edge6" class="edge">
<title>Node1&#45;&gt;Node6</title>
<path fill="none" stroke="midnightblue" d="M342.5,-280.08C342.5,-273.01 342.5,-262.86 342.5,-253.99"/>
<polygon fill="midnightblue" stroke="midnightblue" points="346,-253.75 342.5,-243.75 339,-253.75 346,-253.75"/>
</g>
<!-- Node7 -->
<g id="node7" class="node">
<title>Node7</title>
<g id="a_node7"><a xlink:href="Qix_8hpp.html" target="_top" xlink:title=" ">
<polygon fill="white" stroke="black" points="390.5,-224.5 390.5,-243.5 444.5,-243.5 444.5,-224.5 390.5,-224.5"/>
<text text-anchor="middle" x="417.5" y="-231.5" font-family="Helvetica,sans-Serif" font-size="10.00">Qix.hpp</text>
</a>
</g>
</g>
<!-- Node1&#45;&gt;Node7 -->
<g id="edge7" class="edge">
<title>Node1&#45;&gt;Node7</title>
<path fill="none" stroke="midnightblue" d="M354.55,-280.32C365.96,-272.11 383.33,-259.6 396.93,-249.81"/>
<polygon fill="midnightblue" stroke="midnightblue" points="399.16,-252.52 405.23,-243.83 395.07,-246.84 399.16,-252.52"/>
</g>
<!-- Node17 -->
<g id="node17" class="node">
<title>Node17</title>
<g id="a_node17"><a xlink:href="KeyBoardEvent_8hpp.html" target="_top" xlink:title=" ">
<polygon fill="white" stroke="black" points="552,-224.5 552,-243.5 747,-243.5 747,-224.5 552,-224.5"/>
<text text-anchor="middle" x="649.5" y="-231.5" font-family="Helvetica,sans-Serif" font-size="10.00">Common/Events/KeyBoardEvent.hpp</text>
</a>
</g>
</g>
<!-- Node1&#45;&gt;Node17 -->
<g id="edge23" class="edge">
<title>Node1&#45;&gt;Node17</title>
<path fill="none" stroke="midnightblue" d="M391.15,-280.44C445.37,-270.9 533.05,-255.48 590.98,-245.29"/>
<polygon fill="midnightblue" stroke="midnightblue" points="591.84,-248.7 601.08,-243.52 590.63,-241.8 591.84,-248.7"/>
</g>
<!-- Node3 -->
<g id="node3" class="node">
<title>Node3</title>
<g id="a_node3"><a xlink:href="ADrawable_8hpp.html" target="_top" xlink:title=" ">
<polygon fill="white" stroke="black" points="100,-112.5 100,-131.5 293,-131.5 293,-112.5 100,-112.5"/>
<text text-anchor="middle" x="196.5" y="-119.5" font-family="Helvetica,sans-Serif" font-size="10.00">Common/Drawables/ADrawable.hpp</text>
</a>
</g>
</g>
<!-- Node2&#45;&gt;Node3 -->
<g id="edge2" class="edge">
<title>Node2&#45;&gt;Node3</title>
<path fill="none" stroke="midnightblue" d="M101.41,-168.44C119.75,-159.68 148.51,-145.94 169.59,-135.86"/>
<polygon fill="midnightblue" stroke="midnightblue" points="171.17,-138.99 178.68,-131.52 168.15,-132.67 171.17,-138.99"/>
</g>
<!-- Node4 -->
<g id="node4" class="node">
<title>Node4</title>
<g id="a_node4"><a xlink:title=" ">
<polygon fill="white" stroke="#bfbfbf" points="230.5,-56.5 230.5,-75.5 288.5,-75.5 288.5,-56.5 230.5,-56.5"/>
<text text-anchor="middle" x="259.5" y="-63.5" font-family="Helvetica,sans-Serif" font-size="10.00">memory</text>
</a>
</g>
</g>
<!-- Node3&#45;&gt;Node4 -->
<g id="edge3" class="edge">
<title>Node3&#45;&gt;Node4</title>
<path fill="none" stroke="midnightblue" d="M206.62,-112.32C216.03,-104.26 230.24,-92.08 241.57,-82.37"/>
<polygon fill="midnightblue" stroke="midnightblue" points="243.88,-85 249.19,-75.83 239.32,-79.68 243.88,-85"/>
</g>
<!-- Node5&#45;&gt;Node3 -->
<g id="edge5" class="edge">
<title>Node5&#45;&gt;Node3</title>
<path fill="none" stroke="midnightblue" d="M200.19,-224.37C199.54,-206.62 198.05,-165.67 197.18,-141.6"/>
<polygon fill="midnightblue" stroke="midnightblue" points="200.67,-141.46 196.81,-131.59 193.68,-141.71 200.67,-141.46"/>
</g>
<!-- Node8 -->
<g id="node8" class="node">
<title>Node8</title>
<g id="a_node8"><a xlink:title=" ">
<polygon fill="white" stroke="#bfbfbf" points="226.5,-168.5 226.5,-187.5 264.5,-187.5 264.5,-168.5 226.5,-168.5"/>
<text text-anchor="middle" x="245.5" y="-175.5" font-family="Helvetica,sans-Serif" font-size="10.00">map</text>
</a>
</g>
</g>
<!-- Node7&#45;&gt;Node8 -->
<g id="edge8" class="edge">
<title>Node7&#45;&gt;Node8</title>
<path fill="none" stroke="midnightblue" d="M390.41,-224.61C363.37,-216.21 320.39,-202.83 274.59,-188.33"/>
<polygon fill="midnightblue" stroke="midnightblue" points="275.36,-184.9 264.77,-185.22 273.25,-191.58 275.36,-184.9"/>
</g>
<!-- Node9 -->
<g id="node9" class="node">
<title>Node9</title>
<g id="a_node9"><a xlink:href="IGameModule_8hpp.html" target="_top" xlink:title=" ">
<polygon fill="white" stroke="black" points="461,-168.5 461,-187.5 614,-187.5 614,-168.5 461,-168.5"/>
<text text-anchor="middle" x="537.5" y="-175.5" font-family="Helvetica,sans-Serif" font-size="10.00">Common/IGameModule.hpp</text>
</a>
</g>
</g>
<!-- Node7&#45;&gt;Node9 -->
<g id="edge9" class="edge">
<title>Node7&#45;&gt;Node9</title>
<path fill="none" stroke="midnightblue" d="M436.51,-224.44C456.09,-215.64 486.81,-201.81 509.23,-191.72"/>
<polygon fill="midnightblue" stroke="midnightblue" points="510.89,-194.81 518.57,-187.52 508.02,-188.43 510.89,-194.81"/>
</g>
<!-- Node16 -->
<g id="node16" class="node">
<title>Node16</title>
<g id="a_node16"><a xlink:href="Line_8hpp.html" target="_top" xlink:title=" ">
<polygon fill="white" stroke="black" points="282.5,-168.5 282.5,-187.5 442.5,-187.5 442.5,-168.5 282.5,-168.5"/>
<text text-anchor="middle" x="362.5" y="-175.5" font-family="Helvetica,sans-Serif" font-size="10.00">Common/Drawables/Line.hpp</text>
</a>
</g>
</g>
<!-- Node7&#45;&gt;Node16 -->
<g id="edge21" class="edge">
<title>Node7&#45;&gt;Node16</title>
<path fill="none" stroke="midnightblue" d="M408.42,-224.08C400.33,-216.14 388.3,-204.34 378.59,-194.8"/>
<polygon fill="midnightblue" stroke="midnightblue" points="381,-192.26 371.41,-187.75 376.1,-197.25 381,-192.26"/>
</g>
<!-- Node9&#45;&gt;Node3 -->
<g id="edge12" class="edge">
<title>Node9&#45;&gt;Node3</title>
<path fill="none" stroke="midnightblue" d="M483.47,-168.44C422.86,-158.85 324.64,-143.29 260.3,-133.1"/>
<polygon fill="midnightblue" stroke="midnightblue" points="260.7,-129.62 250.28,-131.52 259.61,-136.54 260.7,-129.62"/>
</g>
<!-- Node9&#45;&gt;Node4 -->
<g id="edge19" class="edge">
<title>Node9&#45;&gt;Node4</title>
<path fill="none" stroke="midnightblue" d="M493.19,-168.44C458.9,-161.02 410.66,-148.81 370.5,-132 337.15,-118.04 301.6,-95.75 279.96,-81.24"/>
<polygon fill="midnightblue" stroke="midnightblue" points="281.82,-78.27 271.58,-75.54 277.89,-84.06 281.82,-78.27"/>
</g>
<!-- Node10 -->
<g id="node10" class="node">
<title>Node10</title>
<g id="a_node10"><a xlink:href="ModInfo_8hpp.html" target="_top" xlink:title=" ">
<polygon fill="white" stroke="black" points="384,-56.5 384,-75.5 509,-75.5 509,-56.5 384,-56.5"/>
<text text-anchor="middle" x="446.5" y="-63.5" font-family="Helvetica,sans-Serif" font-size="10.00">Common/ModInfo.hpp</text>
</a>
</g>
</g>
<!-- Node9&#45;&gt;Node10 -->
<g id="edge10" class="edge">
<title>Node9&#45;&gt;Node10</title>
<path fill="none" stroke="midnightblue" d="M482.42,-168.5C442.01,-161 392.09,-148.67 379.5,-132 364.35,-111.93 392.18,-92.31 416.46,-79.97"/>
<polygon fill="midnightblue" stroke="midnightblue" points="418.01,-83.1 425.49,-75.61 414.96,-76.8 418.01,-83.1"/>
</g>
<!-- Node11 -->
<g id="node11" class="node">
<title>Node11</title>
<g id="a_node11"><a xlink:title=" ">
<polygon fill="white" stroke="#bfbfbf" points="515.5,-0.5 515.5,-19.5 559.5,-19.5 559.5,-0.5 515.5,-0.5"/>
<text text-anchor="middle" x="537.5" y="-7.5" font-family="Helvetica,sans-Serif" font-size="10.00">string</text>
</a>
</g>
</g>
<!-- Node9&#45;&gt;Node11 -->
<g id="edge20" class="edge">
<title>Node9&#45;&gt;Node11</title>
<path fill="none" stroke="midnightblue" d="M537.5,-168.08C537.5,-141.95 537.5,-65.21 537.5,-29.58"/>
<polygon fill="midnightblue" stroke="midnightblue" points="541,-29.57 537.5,-19.57 534,-29.57 541,-29.57"/>
</g>
<!-- Node12 -->
<g id="node12" class="node">
<title>Node12</title>
<g id="a_node12"><a xlink:href="Module_8hpp.html" target="_top" xlink:title=" ">
<polygon fill="white" stroke="black" points="388,-112.5 388,-131.5 509,-131.5 509,-112.5 388,-112.5"/>
<text text-anchor="middle" x="448.5" y="-119.5" font-family="Helvetica,sans-Serif" font-size="10.00">Common/Module.hpp</text>
</a>
</g>
</g>
<!-- Node9&#45;&gt;Node12 -->
<g id="edge13" class="edge">
<title>Node9&#45;&gt;Node12</title>
<path fill="none" stroke="midnightblue" d="M523.2,-168.32C509.32,-159.9 488.01,-146.97 471.7,-137.07"/>
<polygon fill="midnightblue" stroke="midnightblue" points="473.13,-133.85 462.76,-131.65 469.5,-139.83 473.13,-133.85"/>
</g>
<!-- Node13 -->
<g id="node13" class="node">
<title>Node13</title>
<g id="a_node13"><a xlink:href="Event_8hpp.html" target="_top" xlink:title=" ">
<polygon fill="white" stroke="black" points="669,-112.5 669,-131.5 818,-131.5 818,-112.5 669,-112.5"/>
<text text-anchor="middle" x="743.5" y="-119.5" font-family="Helvetica,sans-Serif" font-size="10.00">Common/Events/Event.hpp</text>
</a>
</g>
</g>
<!-- Node9&#45;&gt;Node13 -->
<g id="edge15" class="edge">
<title>Node9&#45;&gt;Node13</title>
<path fill="none" stroke="midnightblue" d="M570.14,-168.44C605.55,-159.16 662.21,-144.31 701.05,-134.13"/>
<polygon fill="midnightblue" stroke="midnightblue" points="702.23,-137.44 711.01,-131.52 700.45,-130.67 702.23,-137.44"/>
</g>
<!-- Node14 -->
<g id="node14" class="node">
<title>Node14</title>
<g id="a_node14"><a xlink:href="Sound_8hpp.html" target="_top" xlink:title=" ">
<polygon fill="white" stroke="black" points="566,-56.5 566,-75.5 681,-75.5 681,-56.5 566,-56.5"/>
<text text-anchor="middle" x="623.5" y="-63.5" font-family="Helvetica,sans-Serif" font-size="10.00">Common/Sound.hpp</text>
</a>
</g>
</g>
<!-- Node9&#45;&gt;Node14 -->
<g id="edge16" class="edge">
<title>Node9&#45;&gt;Node14</title>
<path fill="none" stroke="midnightblue" d="M544.25,-168.37C558.5,-150.14 591.89,-107.43 610.46,-83.68"/>
<polygon fill="midnightblue" stroke="midnightblue" points="613.38,-85.63 616.78,-75.59 607.87,-81.31 613.38,-85.63"/>
</g>
<!-- Node15 -->
<g id="node15" class="node">
<title>Node15</title>
<g id="a_node15"><a xlink:title=" ">
<polygon fill="white" stroke="#bfbfbf" points="604,-112.5 604,-131.5 651,-131.5 651,-112.5 604,-112.5"/>
<text text-anchor="middle" x="627.5" y="-119.5" font-family="Helvetica,sans-Serif" font-size="10.00">vector</text>
</a>
</g>
</g>
<!-- Node9&#45;&gt;Node15 -->
<g id="edge18" class="edge">
<title>Node9&#45;&gt;Node15</title>
<path fill="none" stroke="midnightblue" d="M551.96,-168.32C566,-159.9 587.55,-146.97 604.04,-137.07"/>
<polygon fill="midnightblue" stroke="midnightblue" points="606.3,-139.8 613.08,-131.65 602.7,-133.8 606.3,-139.8"/>
</g>
<!-- Node10&#45;&gt;Node11 -->
<g id="edge11" class="edge">
<title>Node10&#45;&gt;Node11</title>
<path fill="none" stroke="midnightblue" d="M461.12,-56.32C475.45,-47.82 497.51,-34.73 514.25,-24.8"/>
<polygon fill="midnightblue" stroke="midnightblue" points="516.1,-27.77 522.92,-19.65 512.53,-21.75 516.1,-27.77"/>
</g>
<!-- Node12&#45;&gt;Node10 -->
<g id="edge14" class="edge">
<title>Node12&#45;&gt;Node10</title>
<path fill="none" stroke="midnightblue" d="M448.17,-112.08C447.91,-105.01 447.53,-94.86 447.2,-85.99"/>
<polygon fill="midnightblue" stroke="midnightblue" points="450.69,-85.61 446.82,-75.75 443.7,-85.87 450.69,-85.61"/>
</g>
<!-- Node14&#45;&gt;Node11 -->
<g id="edge17" class="edge">
<title>Node14&#45;&gt;Node11</title>
<path fill="none" stroke="midnightblue" d="M609.68,-56.32C596.27,-47.9 575.68,-34.97 559.91,-25.07"/>
<polygon fill="midnightblue" stroke="midnightblue" points="561.61,-22.01 551.28,-19.65 557.89,-27.94 561.61,-22.01"/>
</g>
<!-- Node16&#45;&gt;Node3 -->
<g id="edge22" class="edge">
<title>Node16&#45;&gt;Node3</title>
<path fill="none" stroke="midnightblue" d="M336.2,-168.44C308.15,-159.32 263.56,-144.81 232.32,-134.65"/>
<polygon fill="midnightblue" stroke="midnightblue" points="233.27,-131.28 222.68,-131.52 231.11,-137.94 233.27,-131.28"/>
</g>
<!-- Node17&#45;&gt;Node13 -->
<g id="edge24" class="edge">
<title>Node17&#45;&gt;Node13</title>
<path fill="none" stroke="midnightblue" d="M656.88,-224.37C672.53,-206.05 709.28,-163.05 729.52,-139.36"/>
<polygon fill="midnightblue" stroke="midnightblue" points="732.32,-141.47 736.16,-131.59 727,-136.92 732.32,-141.47"/>
</g>
</g>
</svg>
