<?xml version="1.0" encoding="UTF-8" standalone="no"?>
<!DOCTYPE svg PUBLIC "-//W3C//DTD SVG 1.1//EN"
 "http://www.w3.org/Graphics/SVG/1.1/DTD/svg11.dtd">
<!-- Generated by graphviz version 2.43.0 (0)
 -->
<!-- Title: sources/Common/Drawables/Rectangle.hpp Pages: 1 -->
<svg width="1084pt" height="307pt"
 viewBox="0.00 0.00 1084.00 307.00" xmlns="http://www.w3.org/2000/svg" xmlns:xlink="http://www.w3.org/1999/xlink">
<g id="graph0" class="graph" transform="scale(1 1) rotate(0) translate(4 303)">
<title>sources/Common/Drawables/Rectangle.hpp</title>
<polygon fill="white" stroke="transparent" points="-4,4 -4,-303 1080,-303 1080,4 -4,4"/>
<!-- Node1 -->
<g id="node1" class="node">
<title>Node1</title>
<g id="a_node1"><a xlink:title=" ">
<polygon fill="#bfbfbf" stroke="black" points="687.5,-268.5 687.5,-298.5 843.5,-298.5 843.5,-268.5 687.5,-268.5"/>
<text text-anchor="start" x="695.5" y="-286.5" font-family="Helvetica,sans-Serif" font-size="10.00">sources/Common/Drawables</text>
<text text-anchor="middle" x="765.5" y="-275.5" font-family="Helvetica,sans-Serif" font-size="10.00">/Rectangle.hpp</text>
</a>
</g>
</g>
<!-- Node2 -->
<g id="node2" class="node">
<title>Node2</title>
<g id="a_node2"><a xlink:href="IDisplayModule_8hpp.html" target="_top" xlink:title=" ">
<polygon fill="white" stroke="black" points="406,-207 406,-226 607,-226 607,-207 406,-207"/>
<text text-anchor="middle" x="506.5" y="-214" font-family="Helvetica,sans-Serif" font-size="10.00">sources/Common/IDisplayModule.hpp</text>
</a>
</g>
</g>
<!-- Node1&#45;&gt;Node2 -->
<g id="edge1" class="edge">
<title>Node1&#45;&gt;Node2</title>
<path fill="none" stroke="midnightblue" d="M699.71,-265.99C648.96,-253.25 580.81,-236.15 540.48,-226.03"/>
<polygon fill="midnightblue" stroke="midnightblue" points="699.07,-269.44 709.62,-268.48 700.77,-262.65 699.07,-269.44"/>
</g>
<!-- Node14 -->
<g id="node14" class="node">
<title>Node14</title>
<g id="a_node14"><a xlink:href="Nibbler_8cpp.html" target="_top" xlink:title=" ">
<polygon fill="white" stroke="black" points="625.5,-201.5 625.5,-231.5 755.5,-231.5 755.5,-201.5 625.5,-201.5"/>
<text text-anchor="start" x="633.5" y="-219.5" font-family="Helvetica,sans-Serif" font-size="10.00">sources/Games/Nibbler</text>
<text text-anchor="middle" x="690.5" y="-208.5" font-family="Helvetica,sans-Serif" font-size="10.00">/Nibbler.cpp</text>
</a>
</g>
</g>
<!-- Node1&#45;&gt;Node14 -->
<g id="edge14" class="edge">
<title>Node1&#45;&gt;Node14</title>
<path fill="none" stroke="midnightblue" d="M741.38,-261.6C730.06,-251.78 716.86,-240.34 706.74,-231.58"/>
<polygon fill="midnightblue" stroke="midnightblue" points="739.38,-264.49 749.23,-268.4 743.96,-259.2 739.38,-264.49"/>
</g>
<!-- Node15 -->
<g id="node15" class="node">
<title>Node15</title>
<g id="a_node15"><a xlink:href="Pacman_8cpp.html" target="_top" xlink:title=" ">
<polygon fill="white" stroke="black" points="774,-201.5 774,-231.5 907,-231.5 907,-201.5 774,-201.5"/>
<text text-anchor="start" x="782" y="-219.5" font-family="Helvetica,sans-Serif" font-size="10.00">sources/Games/Pacman</text>
<text text-anchor="middle" x="840.5" y="-208.5" font-family="Helvetica,sans-Serif" font-size="10.00">/Pacman.cpp</text>
</a>
</g>
</g>
<!-- Node1&#45;&gt;Node15 -->
<g id="edge15" class="edge">
<title>Node1&#45;&gt;Node15</title>
<path fill="none" stroke="midnightblue" d="M789.62,-261.6C800.94,-251.78 814.14,-240.34 824.26,-231.58"/>
<polygon fill="midnightblue" stroke="midnightblue" points="787.04,-259.2 781.77,-268.4 791.62,-264.49 787.04,-259.2"/>
</g>
<!-- Node16 -->
<g id="node16" class="node">
<title>Node16</title>
<g id="a_node16"><a xlink:href="Qix_8cpp.html" target="_top" xlink:title=" ">
<polygon fill="white" stroke="black" points="925,-207 925,-226 1076,-226 1076,-207 925,-207"/>
<text text-anchor="middle" x="1000.5" y="-214" font-family="Helvetica,sans-Serif" font-size="10.00">sources/Games/Qix/Qix.cpp</text>
</a>
</g>
</g>
<!-- Node1&#45;&gt;Node16 -->
<g id="edge16" class="edge">
<title>Node1&#45;&gt;Node16</title>
<path fill="none" stroke="midnightblue" d="M826.06,-265.75C872.02,-253.04 933.31,-236.09 969.67,-226.03"/>
<polygon fill="midnightblue" stroke="midnightblue" points="824.91,-262.44 816.2,-268.48 826.77,-269.18 824.91,-262.44"/>
</g>
<!-- Node3 -->
<g id="node3" class="node">
<title>Node3</title>
<g id="a_node3"><a xlink:href="Runner_8hpp.html" target="_top" xlink:title=" ">
<polygon fill="white" stroke="black" points="150,-134.5 150,-164.5 267,-164.5 267,-134.5 150,-134.5"/>
<text text-anchor="start" x="158" y="-152.5" font-family="Helvetica,sans-Serif" font-size="10.00">sources/Core/Runner</text>
<text text-anchor="middle" x="208.5" y="-141.5" font-family="Helvetica,sans-Serif" font-size="10.00">/Runner.hpp</text>
</a>
</g>
</g>
<!-- Node2&#45;&gt;Node3 -->
<g id="edge2" class="edge">
<title>Node2&#45;&gt;Node3</title>
<path fill="none" stroke="midnightblue" d="M457.21,-204.75C405,-193.36 322.6,-175.39 267.1,-163.28"/>
<polygon fill="midnightblue" stroke="midnightblue" points="456.72,-208.22 467.24,-206.94 458.21,-201.38 456.72,-208.22"/>
</g>
<!-- Node8 -->
<g id="node8" class="node">
<title>Node8</title>
<g id="a_node8"><a xlink:href="NcursesDisplay_8hpp.html" target="_top" xlink:title=" ">
<polygon fill="white" stroke="black" points="346,-134.5 346,-164.5 503,-164.5 503,-134.5 346,-134.5"/>
<text text-anchor="start" x="354" y="-152.5" font-family="Helvetica,sans-Serif" font-size="10.00">sources/DisplayModules</text>
<text text-anchor="middle" x="424.5" y="-141.5" font-family="Helvetica,sans-Serif" font-size="10.00">/Ncurses/NcursesDisplay.hpp</text>
</a>
</g>
</g>
<!-- Node2&#45;&gt;Node8 -->
<g id="edge8" class="edge">
<title>Node2&#45;&gt;Node8</title>
<path fill="none" stroke="midnightblue" d="M487.25,-200.24C473.64,-189.45 455.54,-175.1 442.27,-164.59"/>
<polygon fill="midnightblue" stroke="midnightblue" points="485.43,-203.26 495.44,-206.73 489.78,-197.78 485.43,-203.26"/>
</g>
<!-- Node10 -->
<g id="node10" class="node">
<title>Node10</title>
<g id="a_node10"><a xlink:href="SDLDisplay_8hpp.html" target="_top" xlink:title=" ">
<polygon fill="white" stroke="black" points="521,-134.5 521,-164.5 656,-164.5 656,-134.5 521,-134.5"/>
<text text-anchor="start" x="529" y="-152.5" font-family="Helvetica,sans-Serif" font-size="10.00">sources/DisplayModules</text>
<text text-anchor="middle" x="588.5" y="-141.5" font-family="Helvetica,sans-Serif" font-size="10.00">/SDL/SDLDisplay.hpp</text>
</a>
</g>
</g>
<!-- Node2&#45;&gt;Node10 -->
<g id="edge10" class="edge">
<title>Node2&#45;&gt;Node10</title>
<path fill="none" stroke="midnightblue" d="M525.75,-200.24C539.36,-189.45 557.46,-175.1 570.73,-164.59"/>
<polygon fill="midnightblue" stroke="midnightblue" points="523.22,-197.78 517.56,-206.73 527.57,-203.26 523.22,-197.78"/>
</g>
<!-- Node12 -->
<g id="node12" class="node">
<title>Node12</title>
<g id="a_node12"><a xlink:href="SFMLDisplay_8hpp.html" target="_top" xlink:title=" ">
<polygon fill="white" stroke="black" points="674,-134.5 674,-164.5 809,-164.5 809,-134.5 674,-134.5"/>
<text text-anchor="start" x="682" y="-152.5" font-family="Helvetica,sans-Serif" font-size="10.00">sources/DisplayModules</text>
<text text-anchor="middle" x="741.5" y="-141.5" font-family="Helvetica,sans-Serif" font-size="10.00">/SFML/SFMLDisplay.hpp</text>
</a>
</g>
</g>
<!-- Node2&#45;&gt;Node12 -->
<g id="edge12" class="edge">
<title>Node2&#45;&gt;Node12</title>
<path fill="none" stroke="midnightblue" d="M547.36,-204.2C587.2,-193.18 647.88,-176.39 690.78,-164.53"/>
<polygon fill="midnightblue" stroke="midnightblue" points="546.41,-200.83 537.71,-206.87 548.28,-207.58 546.41,-200.83"/>
</g>
<!-- Node4 -->
<g id="node4" class="node">
<title>Node4</title>
<g id="a_node4"><a xlink:href="Runner_8cpp.html" target="_top" xlink:title=" ">
<polygon fill="white" stroke="black" points="0,-0.5 0,-30.5 117,-30.5 117,-0.5 0,-0.5"/>
<text text-anchor="start" x="8" y="-18.5" font-family="Helvetica,sans-Serif" font-size="10.00">sources/Core/Runner</text>
<text text-anchor="middle" x="58.5" y="-7.5" font-family="Helvetica,sans-Serif" font-size="10.00">/Runner.cpp</text>
</a>
</g>
</g>
<!-- Node3&#45;&gt;Node4 -->
<g id="edge3" class="edge">
<title>Node3&#45;&gt;Node4</title>
<path fill="none" stroke="midnightblue" d="M140.1,-135.72C117.28,-128.26 93.6,-116.5 77.5,-98 61,-79.04 58.13,-48.48 57.99,-30.67"/>
<polygon fill="midnightblue" stroke="midnightblue" points="139.21,-139.11 149.8,-138.66 141.24,-132.41 139.21,-139.11"/>
</g>
<!-- Node5 -->
<g id="node5" class="node">
<title>Node5</title>
<g id="a_node5"><a xlink:href="Menu_8hpp.html" target="_top" xlink:title=" ">
<polygon fill="white" stroke="black" points="86.5,-67.5 86.5,-97.5 208.5,-97.5 208.5,-67.5 86.5,-67.5"/>
<text text-anchor="start" x="94.5" y="-85.5" font-family="Helvetica,sans-Serif" font-size="10.00">sources/Games/Menu</text>
<text text-anchor="middle" x="147.5" y="-74.5" font-family="Helvetica,sans-Serif" font-size="10.00">/Menu.hpp</text>
</a>
</g>
</g>
<!-- Node3&#45;&gt;Node5 -->
<g id="edge4" class="edge">
<title>Node3&#45;&gt;Node5</title>
<path fill="none" stroke="midnightblue" d="M188.35,-127.02C179.26,-117.34 168.78,-106.17 160.71,-97.58"/>
<polygon fill="midnightblue" stroke="midnightblue" points="185.87,-129.5 195.26,-134.4 190.97,-124.71 185.87,-129.5"/>
</g>
<!-- Node7 -->
<g id="node7" class="node">
<title>Node7</title>
<g id="a_node7"><a xlink:href="main_8cpp.html" target="_top" xlink:title=" ">
<polygon fill="white" stroke="black" points="226.5,-73 226.5,-92 328.5,-92 328.5,-73 226.5,-73"/>
<text text-anchor="middle" x="277.5" y="-80" font-family="Helvetica,sans-Serif" font-size="10.00">sources/main.cpp</text>
</a>
</g>
</g>
<!-- Node3&#45;&gt;Node7 -->
<g id="edge7" class="edge">
<title>Node3&#45;&gt;Node7</title>
<path fill="none" stroke="midnightblue" d="M230.97,-127.34C243.64,-115.4 258.78,-101.14 268.27,-92.19"/>
<polygon fill="midnightblue" stroke="midnightblue" points="228.35,-124.99 223.47,-134.4 233.15,-130.09 228.35,-124.99"/>
</g>
<!-- Node5&#45;&gt;Node4 -->
<g id="edge5" class="edge">
<title>Node5&#45;&gt;Node4</title>
<path fill="none" stroke="midnightblue" d="M120.05,-61.45C106.36,-51.45 90.13,-39.6 77.77,-30.58"/>
<polygon fill="midnightblue" stroke="midnightblue" points="118.05,-64.32 128.19,-67.4 122.18,-58.67 118.05,-64.32"/>
</g>
<!-- Node6 -->
<g id="node6" class="node">
<title>Node6</title>
<g id="a_node6"><a xlink:href="Menu_8cpp.html" target="_top" xlink:title=" ">
<polygon fill="white" stroke="black" points="135.5,-0.5 135.5,-30.5 257.5,-30.5 257.5,-0.5 135.5,-0.5"/>
<text text-anchor="start" x="143.5" y="-18.5" font-family="Helvetica,sans-Serif" font-size="10.00">sources/Games/Menu</text>
<text text-anchor="middle" x="196.5" y="-7.5" font-family="Helvetica,sans-Serif" font-size="10.00">/Menu.cpp</text>
</a>
</g>
</g>
<!-- Node5&#45;&gt;Node6 -->
<g id="edge6" class="edge">
<title>Node5&#45;&gt;Node6</title>
<path fill="none" stroke="midnightblue" d="M164.34,-59.16C171.49,-49.68 179.6,-38.92 185.89,-30.58"/>
<polygon fill="midnightblue" stroke="midnightblue" points="161.36,-57.3 158.13,-67.4 166.95,-61.52 161.36,-57.3"/>
</g>
<!-- Node9 -->
<g id="node9" class="node">
<title>Node9</title>
<g id="a_node9"><a xlink:href="NcursesDisplay_8cpp.html" target="_top" xlink:title=" ">
<polygon fill="white" stroke="black" points="346.5,-67.5 346.5,-97.5 502.5,-97.5 502.5,-67.5 346.5,-67.5"/>
<text text-anchor="start" x="354.5" y="-85.5" font-family="Helvetica,sans-Serif" font-size="10.00">sources/DisplayModules</text>
<text text-anchor="middle" x="424.5" y="-74.5" font-family="Helvetica,sans-Serif" font-size="10.00">/Ncurses/NcursesDisplay.cpp</text>
</a>
</g>
</g>
<!-- Node8&#45;&gt;Node9 -->
<g id="edge9" class="edge">
<title>Node8&#45;&gt;Node9</title>
<path fill="none" stroke="midnightblue" d="M424.5,-124.11C424.5,-115.15 424.5,-105.32 424.5,-97.58"/>
<polygon fill="midnightblue" stroke="midnightblue" points="421,-124.4 424.5,-134.4 428,-124.4 421,-124.4"/>
</g>
<!-- Node11 -->
<g id="node11" class="node">
<title>Node11</title>
<g id="a_node11"><a xlink:href="SDLDisplay_8cpp.html" target="_top" xlink:title=" ">
<polygon fill="white" stroke="black" points="521,-67.5 521,-97.5 656,-97.5 656,-67.5 521,-67.5"/>
<text text-anchor="start" x="529" y="-85.5" font-family="Helvetica,sans-Serif" font-size="10.00">sources/DisplayModules</text>
<text text-anchor="middle" x="588.5" y="-74.5" font-family="Helvetica,sans-Serif" font-size="10.00">/SDL/SDLDisplay.cpp</text>
</a>
</g>
</g>
<!-- Node10&#45;&gt;Node11 -->
<g id="edge11" class="edge">
<title>Node10&#45;&gt;Node11</title>
<path fill="none" stroke="midnightblue" d="M588.5,-124.11C588.5,-115.15 588.5,-105.32 588.5,-97.58"/>
<polygon fill="midnightblue" stroke="midnightblue" points="585,-124.4 588.5,-134.4 592,-124.4 585,-124.4"/>
</g>
<!-- Node13 -->
<g id="node13" class="node">
<title>Node13</title>
<g id="a_node13"><a xlink:href="SFMLDisplay_8cpp.html" target="_top" xlink:title=" ">
<polygon fill="white" stroke="black" points="674,-67.5 674,-97.5 809,-97.5 809,-67.5 674,-67.5"/>
<text text-anchor="start" x="682" y="-85.5" font-family="Helvetica,sans-Serif" font-size="10.00">sources/DisplayModules</text>
<text text-anchor="middle" x="741.5" y="-74.5" font-family="Helvetica,sans-Serif" font-size="10.00">/SFML/SFMLDisplay.cpp</text>
</a>
</g>
</g>
<!-- Node12&#45;&gt;Node13 -->
<g id="edge13" class="edge">
<title>Node12&#45;&gt;Node13</title>
<path fill="none" stroke="midnightblue" d="M741.5,-124.11C741.5,-115.15 741.5,-105.32 741.5,-97.58"/>
<polygon fill="midnightblue" stroke="midnightblue" points="738,-124.4 741.5,-134.4 745,-124.4 738,-124.4"/>
</g>
</g>
</svg>
