<?xml version="1.0" encoding="UTF-8" standalone="no"?>
<!DOCTYPE svg PUBLIC "-//W3C//DTD SVG 1.1//EN"
 "http://www.w3.org/Graphics/SVG/1.1/DTD/svg11.dtd">
<!-- Generated by graphviz version 2.43.0 (0)
 -->
<!-- Title: sources/DisplayModules/SFML/Exceptions/ResourceCreationFailure.hpp Pages: 1 -->
<svg width="199pt" height="117pt"
 viewBox="0.00 0.00 199.00 117.00" xmlns="http://www.w3.org/2000/svg" xmlns:xlink="http://www.w3.org/1999/xlink">
<g id="graph0" class="graph" transform="scale(1 1) rotate(0) translate(4 113)">
<title>sources/DisplayModules/SFML/Exceptions/ResourceCreationFailure.hpp</title>
<polygon fill="white" stroke="transparent" points="-4,4 -4,-113 195,-113 195,4 -4,4"/>
<!-- Node1 -->
<g id="node1" class="node">
<title>Node1</title>
<g id="a_node1"><a xlink:title=" ">
<polygon fill="#bfbfbf" stroke="black" points="0,-67.5 0,-108.5 191,-108.5 191,-67.5 0,-67.5"/>
<text text-anchor="start" x="8" y="-96.5" font-family="Helvetica,sans-Serif" font-size="10.00">sources/DisplayModules</text>
<text text-anchor="start" x="8" y="-85.5" font-family="Helvetica,sans-Serif" font-size="10.00">/SFML/Exceptions/ResourceCreation</text>
<text text-anchor="middle" x="95.5" y="-74.5" font-family="Helvetica,sans-Serif" font-size="10.00">Failure.hpp</text>
</a>
</g>
</g>
<!-- Node2 -->
<g id="node2" class="node">
<title>Node2</title>
<g id="a_node2"><a xlink:href="SFMLDisplay_8cpp.html" target="_top" xlink:title=" ">
<polygon fill="white" stroke="black" points="28,-0.5 28,-30.5 163,-30.5 163,-0.5 28,-0.5"/>
<text text-anchor="start" x="36" y="-18.5" font-family="Helvetica,sans-Serif" font-size="10.00">sources/DisplayModules</text>
<text text-anchor="middle" x="95.5" y="-7.5" font-family="Helvetica,sans-Serif" font-size="10.00">/SFML/SFMLDisplay.cpp</text>
</a>
</g>
</g>
<!-- Node1&#45;&gt;Node2 -->
<g id="edge1" class="edge">
<title>Node1&#45;&gt;Node2</title>
<path fill="none" stroke="midnightblue" d="M95.5,-57.08C95.5,-48.01 95.5,-38.45 95.5,-30.89"/>
<polygon fill="midnightblue" stroke="midnightblue" points="92,-57.36 95.5,-67.36 99,-57.36 92,-57.36"/>
</g>
</g>
</svg>
