<?xml version="1.0" encoding="UTF-8" standalone="no"?>
<!DOCTYPE svg PUBLIC "-//W3C//DTD SVG 1.1//EN"
 "http://www.w3.org/Graphics/SVG/1.1/DTD/svg11.dtd">
<!-- Generated by graphviz version 2.43.0 (0)
 -->
<!-- Title: sources/Core/Runner/Runner.cpp Pages: 1 -->
<svg width="2124pt" height="397pt"
 viewBox="0.00 0.00 2123.98 397.00" xmlns="http://www.w3.org/2000/svg" xmlns:xlink="http://www.w3.org/1999/xlink">
<g id="graph0" class="graph" transform="scale(1 1) rotate(0) translate(4 393)">
<title>sources/Core/Runner/Runner.cpp</title>
<polygon fill="white" stroke="transparent" points="-4,4 -4,-393 2119.98,-393 2119.98,4 -4,4"/>
<!-- Node1 -->
<g id="node1" class="node">
<title>Node1</title>
<g id="a_node1"><a xlink:title=" ">
<polygon fill="#bfbfbf" stroke="black" points="1752.48,-358.5 1752.48,-388.5 1869.48,-388.5 1869.48,-358.5 1752.48,-358.5"/>
<text text-anchor="start" x="1760.48" y="-376.5" font-family="Helvetica,sans-Serif" font-size="10.00">sources/Core/Runner</text>
<text text-anchor="middle" x="1810.98" y="-365.5" font-family="Helvetica,sans-Serif" font-size="10.00">/Runner.cpp</text>
</a>
</g>
</g>
<!-- Node2 -->
<g id="node2" class="node">
<title>Node2</title>
<g id="a_node2"><a xlink:title=" ">
<polygon fill="white" stroke="#bfbfbf" points="1448.98,-302.5 1448.98,-321.5 1516.98,-321.5 1516.98,-302.5 1448.98,-302.5"/>
<text text-anchor="middle" x="1482.98" y="-309.5" font-family="Helvetica,sans-Serif" font-size="10.00">filesystem</text>
</a>
</g>
</g>
<!-- Node1&#45;&gt;Node2 -->
<g id="edge1" class="edge">
<title>Node1&#45;&gt;Node2</title>
<path fill="none" stroke="midnightblue" d="M1752.48,-362.68C1696.99,-353.24 1611.04,-338.3 1527.18,-322.19"/>
<polygon fill="midnightblue" stroke="midnightblue" points="1527.71,-318.73 1517.23,-320.27 1526.38,-325.6 1527.71,-318.73"/>
</g>
<!-- Node3 -->
<g id="node3" class="node">
<title>Node3</title>
<g id="a_node3"><a xlink:title=" ">
<polygon fill="white" stroke="#bfbfbf" points="1534.98,-302.5 1534.98,-321.5 1594.98,-321.5 1594.98,-302.5 1534.98,-302.5"/>
<text text-anchor="middle" x="1564.98" y="-309.5" font-family="Helvetica,sans-Serif" font-size="10.00">iostream</text>
</a>
</g>
</g>
<!-- Node1&#45;&gt;Node3 -->
<g id="edge2" class="edge">
<title>Node1&#45;&gt;Node3</title>
<path fill="none" stroke="midnightblue" d="M1752.99,-358.47C1707.52,-347.48 1645.41,-332.45 1605.24,-322.74"/>
<polygon fill="midnightblue" stroke="midnightblue" points="1605.82,-319.28 1595.28,-320.33 1604.17,-326.08 1605.82,-319.28"/>
</g>
<!-- Node4 -->
<g id="node4" class="node">
<title>Node4</title>
<g id="a_node4"><a xlink:href="Menu_8hpp.html" target="_top" xlink:title=" ">
<polygon fill="white" stroke="black" points="1612.98,-302.5 1612.98,-321.5 1744.98,-321.5 1744.98,-302.5 1612.98,-302.5"/>
<text text-anchor="middle" x="1678.98" y="-309.5" font-family="Helvetica,sans-Serif" font-size="10.00">Games/Menu/Menu.hpp</text>
</a>
</g>
</g>
<!-- Node1&#45;&gt;Node4 -->
<g id="edge3" class="edge">
<title>Node1&#45;&gt;Node4</title>
<path fill="none" stroke="midnightblue" d="M1779.7,-358.4C1757.75,-348.51 1728.64,-335.38 1707.36,-325.79"/>
<polygon fill="midnightblue" stroke="midnightblue" points="1708.74,-322.58 1698.19,-321.66 1705.87,-328.96 1708.74,-322.58"/>
</g>
<!-- Node5 -->
<g id="node5" class="node">
<title>Node5</title>
<g id="a_node5"><a xlink:href="Runner_8hpp.html" target="_top" xlink:title=" ">
<polygon fill="white" stroke="black" points="1486.98,-241 1486.98,-260 1620.98,-260 1620.98,-241 1486.98,-241"/>
<text text-anchor="middle" x="1553.98" y="-248" font-family="Helvetica,sans-Serif" font-size="10.00">Core/Runner/Runner.hpp</text>
</a>
</g>
</g>
<!-- Node1&#45;&gt;Node5 -->
<g id="edge58" class="edge">
<title>Node1&#45;&gt;Node5</title>
<path fill="none" stroke="midnightblue" d="M1803.3,-358.29C1793.84,-342.16 1776.26,-316.25 1753.98,-302 1730.7,-287.1 1662.77,-271.81 1612.51,-262.02"/>
<polygon fill="midnightblue" stroke="midnightblue" points="1612.88,-258.52 1602.39,-260.07 1611.55,-265.4 1612.88,-258.52"/>
</g>
<!-- Node26 -->
<g id="node26" class="node">
<title>Node26</title>
<g id="a_node26"><a xlink:href="InvalidLibraryException_8hpp.html" target="_top" xlink:title=" ">
<polygon fill="white" stroke="black" points="1896.98,-112.5 1896.98,-142.5 2036.98,-142.5 2036.98,-112.5 1896.98,-112.5"/>
<text text-anchor="start" x="1904.98" y="-130.5" font-family="Helvetica,sans-Serif" font-size="10.00">Exceptions/InvalidLibrary</text>
<text text-anchor="middle" x="1966.98" y="-119.5" font-family="Helvetica,sans-Serif" font-size="10.00">Exception.hpp</text>
</a>
</g>
</g>
<!-- Node1&#45;&gt;Node26 -->
<g id="edge53" class="edge">
<title>Node1&#45;&gt;Node26</title>
<path fill="none" stroke="midnightblue" d="M1820.04,-358.33C1846,-317.73 1920.79,-200.75 1952.5,-151.15"/>
<polygon fill="midnightblue" stroke="midnightblue" points="1955.46,-153.02 1957.89,-142.71 1949.56,-149.25 1955.46,-153.02"/>
</g>
<!-- Node29 -->
<g id="node29" class="node">
<title>Node29</title>
<g id="a_node29"><a xlink:title=" ">
<polygon fill="white" stroke="#bfbfbf" points="1972.98,-302.5 1972.98,-321.5 2016.98,-321.5 2016.98,-302.5 1972.98,-302.5"/>
<text text-anchor="middle" x="1994.98" y="-309.5" font-family="Helvetica,sans-Serif" font-size="10.00">regex</text>
</a>
</g>
</g>
<!-- Node1&#45;&gt;Node29 -->
<g id="edge51" class="edge">
<title>Node1&#45;&gt;Node29</title>
<path fill="none" stroke="midnightblue" d="M1854.59,-358.4C1888,-347.59 1933.33,-332.94 1963.33,-323.23"/>
<polygon fill="midnightblue" stroke="midnightblue" points="1964.44,-326.55 1972.88,-320.15 1962.29,-319.89 1964.44,-326.55"/>
</g>
<!-- Node30 -->
<g id="node30" class="node">
<title>Node30</title>
<g id="a_node30"><a xlink:title=" ">
<polygon fill="white" stroke="#bfbfbf" points="2034.98,-302.5 2034.98,-321.5 2090.98,-321.5 2090.98,-302.5 2034.98,-302.5"/>
<text text-anchor="middle" x="2062.98" y="-309.5" font-family="Helvetica,sans-Serif" font-size="10.00">unistd.h</text>
</a>
</g>
</g>
<!-- Node1&#45;&gt;Node30 -->
<g id="edge52" class="edge">
<title>Node1&#45;&gt;Node30</title>
<path fill="none" stroke="midnightblue" d="M1869.87,-358.8C1910.73,-349.26 1966.69,-336.14 2024.63,-322.31"/>
<polygon fill="midnightblue" stroke="midnightblue" points="2025.79,-325.63 2034.7,-319.9 2024.16,-318.82 2025.79,-325.63"/>
</g>
<!-- Node31 -->
<g id="node31" class="node">
<title>Node31</title>
<g id="a_node31"><a xlink:href="InvalidArgumentException_8hpp.html" target="_top" xlink:title=" ">
<polygon fill="white" stroke="black" points="1961.98,-235.5 1961.98,-265.5 2115.98,-265.5 2115.98,-235.5 1961.98,-235.5"/>
<text text-anchor="start" x="1969.98" y="-253.5" font-family="Helvetica,sans-Serif" font-size="10.00">Exceptions/InvalidArgument</text>
<text text-anchor="middle" x="2038.98" y="-242.5" font-family="Helvetica,sans-Serif" font-size="10.00">Exception.hpp</text>
</a>
</g>
</g>
<!-- Node1&#45;&gt;Node31 -->
<g id="edge54" class="edge">
<title>Node1&#45;&gt;Node31</title>
<path fill="none" stroke="midnightblue" d="M1844.16,-358.39C1866.23,-348.73 1895.69,-335.31 1920.98,-322 1951.32,-306.03 1984.76,-285.79 2008.27,-271.09"/>
<polygon fill="midnightblue" stroke="midnightblue" points="2010.17,-274.04 2016.77,-265.75 2006.44,-268.11 2010.17,-274.04"/>
</g>
<!-- Node32 -->
<g id="node32" class="node">
<title>Node32</title>
<g id="a_node32"><a xlink:href="KeyBoardEvent_8hpp.html" target="_top" xlink:title=" ">
<polygon fill="white" stroke="black" points="1654.48,-241 1654.48,-260 1849.48,-260 1849.48,-241 1654.48,-241"/>
<text text-anchor="middle" x="1751.98" y="-248" font-family="Helvetica,sans-Serif" font-size="10.00">Common/Events/KeyBoardEvent.hpp</text>
</a>
</g>
</g>
<!-- Node1&#45;&gt;Node32 -->
<g id="edge56" class="edge">
<title>Node1&#45;&gt;Node32</title>
<path fill="none" stroke="midnightblue" d="M1807.39,-358.26C1803.43,-343.68 1796.35,-320.59 1786.98,-302 1781.01,-290.16 1772.59,-277.92 1765.5,-268.45"/>
<polygon fill="midnightblue" stroke="midnightblue" points="1768.12,-266.11 1759.24,-260.33 1762.57,-270.38 1768.12,-266.11"/>
</g>
<!-- Node4&#45;&gt;Node5 -->
<g id="edge4" class="edge">
<title>Node4&#45;&gt;Node5</title>
<path fill="none" stroke="midnightblue" d="M1661.07,-302.48C1640.09,-292.49 1605.13,-275.85 1580.89,-264.31"/>
<polygon fill="midnightblue" stroke="midnightblue" points="1582.39,-261.15 1571.86,-260.01 1579.38,-267.47 1582.39,-261.15"/>
</g>
<!-- Node12 -->
<g id="node12" class="node">
<title>Node12</title>
<g id="a_node12"><a xlink:href="IGameModule_8hpp.html" target="_top" xlink:title=" ">
<polygon fill="white" stroke="black" points="1256.48,-179.5 1256.48,-198.5 1409.48,-198.5 1409.48,-179.5 1256.48,-179.5"/>
<text text-anchor="middle" x="1332.98" y="-186.5" font-family="Helvetica,sans-Serif" font-size="10.00">Common/IGameModule.hpp</text>
</a>
</g>
</g>
<!-- Node4&#45;&gt;Node12 -->
<g id="edge50" class="edge">
<title>Node4&#45;&gt;Node12</title>
<path fill="none" stroke="midnightblue" d="M1622.4,-302.43C1581.49,-295.25 1525.32,-283.36 1477.98,-266 1432.19,-249.21 1382.64,-220.78 1354.94,-203.86"/>
<polygon fill="midnightblue" stroke="midnightblue" points="1356.77,-200.87 1346.42,-198.6 1353.09,-206.83 1356.77,-200.87"/>
</g>
<!-- Node6 -->
<g id="node6" class="node">
<title>Node6</title>
<g id="a_node6"><a xlink:title=" ">
<polygon fill="white" stroke="#bfbfbf" points="1263.98,-0.5 1263.98,-19.5 1307.98,-19.5 1307.98,-0.5 1263.98,-0.5"/>
<text text-anchor="middle" x="1285.98" y="-7.5" font-family="Helvetica,sans-Serif" font-size="10.00">string</text>
</a>
</g>
</g>
<!-- Node5&#45;&gt;Node6 -->
<g id="edge5" class="edge">
<title>Node5&#45;&gt;Node6</title>
<path fill="none" stroke="midnightblue" d="M1606.47,-240.98C1690.98,-227.2 1848.02,-201.33 1849.98,-199 1867.31,-178.47 1859.15,-145.27 1828.98,-112 1759.77,-35.69 1424.21,-16.33 1318.17,-12.07"/>
<polygon fill="midnightblue" stroke="midnightblue" points="1318.2,-8.57 1308.07,-11.69 1317.93,-15.57 1318.2,-8.57"/>
</g>
<!-- Node7 -->
<g id="node7" class="node">
<title>Node7</title>
<g id="a_node7"><a xlink:title=" ">
<polygon fill="white" stroke="#bfbfbf" points="605.48,-118 605.48,-137 652.48,-137 652.48,-118 605.48,-118"/>
<text text-anchor="middle" x="628.98" y="-125" font-family="Helvetica,sans-Serif" font-size="10.00">vector</text>
</a>
</g>
</g>
<!-- Node5&#45;&gt;Node7 -->
<g id="edge6" class="edge">
<title>Node5&#45;&gt;Node7</title>
<path fill="none" stroke="midnightblue" d="M1486.69,-247.94C1299.55,-243.24 782.02,-227.79 710.98,-199 682.68,-187.53 657.24,-162.18 642.45,-145.21"/>
<polygon fill="midnightblue" stroke="midnightblue" points="644.84,-142.62 635.73,-137.22 639.49,-147.13 644.84,-142.62"/>
</g>
<!-- Node8 -->
<g id="node8" class="node">
<title>Node8</title>
<g id="a_node8"><a xlink:title=" ">
<polygon fill="white" stroke="#bfbfbf" points="623.98,-0.5 623.98,-19.5 681.98,-19.5 681.98,-0.5 623.98,-0.5"/>
<text text-anchor="middle" x="652.98" y="-7.5" font-family="Helvetica,sans-Serif" font-size="10.00">memory</text>
</a>
</g>
</g>
<!-- Node5&#45;&gt;Node8 -->
<g id="edge7" class="edge">
<title>Node5&#45;&gt;Node8</title>
<path fill="none" stroke="midnightblue" d="M1486.86,-247.4C1197.07,-238.03 65.52,-198.01 14.98,-143 -34.73,-88.89 56.34,-69.91 94.98,-56 190.76,-21.51 503.45,-13.33 613.91,-11.5"/>
<polygon fill="midnightblue" stroke="midnightblue" points="614.01,-15 623.95,-11.34 613.9,-8 614.01,-15"/>
</g>
<!-- Node9 -->
<g id="node9" class="node">
<title>Node9</title>
<g id="a_node9"><a xlink:title=" ">
<polygon fill="white" stroke="#bfbfbf" points="1566.98,-179.5 1566.98,-198.5 1604.98,-198.5 1604.98,-179.5 1566.98,-179.5"/>
<text text-anchor="middle" x="1585.98" y="-186.5" font-family="Helvetica,sans-Serif" font-size="10.00">map</text>
</a>
</g>
</g>
<!-- Node5&#45;&gt;Node9 -->
<g id="edge8" class="edge">
<title>Node5&#45;&gt;Node9</title>
<path fill="none" stroke="midnightblue" d="M1558.57,-240.98C1563.22,-232.32 1570.57,-218.65 1576.49,-207.65"/>
<polygon fill="midnightblue" stroke="midnightblue" points="1579.75,-208.97 1581.4,-198.51 1573.59,-205.66 1579.75,-208.97"/>
</g>
<!-- Node10 -->
<g id="node10" class="node">
<title>Node10</title>
<g id="a_node10"><a xlink:title=" ">
<polygon fill="white" stroke="#bfbfbf" points="1623.48,-179.5 1623.48,-198.5 1688.48,-198.5 1688.48,-179.5 1623.48,-179.5"/>
<text text-anchor="middle" x="1655.98" y="-186.5" font-family="Helvetica,sans-Serif" font-size="10.00">functional</text>
</a>
</g>
</g>
<!-- Node5&#45;&gt;Node10 -->
<g id="edge9" class="edge">
<title>Node5&#45;&gt;Node10</title>
<path fill="none" stroke="midnightblue" d="M1568.59,-240.98C1585.33,-231.21 1612.99,-215.08 1632.7,-203.58"/>
<polygon fill="midnightblue" stroke="midnightblue" points="1634.52,-206.57 1641.39,-198.51 1630.99,-200.52 1634.52,-206.57"/>
</g>
<!-- Node11 -->
<g id="node11" class="node">
<title>Node11</title>
<g id="a_node11"><a xlink:title=" ">
<polygon fill="white" stroke="#bfbfbf" points="1455.48,-179.5 1455.48,-198.5 1510.48,-198.5 1510.48,-179.5 1455.48,-179.5"/>
<text text-anchor="middle" x="1482.98" y="-186.5" font-family="Helvetica,sans-Serif" font-size="10.00">fstream</text>
</a>
</g>
</g>
<!-- Node5&#45;&gt;Node11 -->
<g id="edge10" class="edge">
<title>Node5&#45;&gt;Node11</title>
<path fill="none" stroke="midnightblue" d="M1543.81,-240.98C1532.63,-231.61 1514.46,-216.38 1500.89,-205.01"/>
<polygon fill="midnightblue" stroke="midnightblue" points="1503.05,-202.25 1493.13,-198.51 1498.55,-207.61 1503.05,-202.25"/>
</g>
<!-- Node5&#45;&gt;Node12 -->
<g id="edge11" class="edge">
<title>Node5&#45;&gt;Node12</title>
<path fill="none" stroke="midnightblue" d="M1522.32,-240.98C1483.42,-230.5 1417.34,-212.71 1374.43,-201.16"/>
<polygon fill="midnightblue" stroke="midnightblue" points="1375.15,-197.73 1364.59,-198.51 1373.33,-204.49 1375.15,-197.73"/>
</g>
<!-- Node13 -->
<g id="node13" class="node">
<title>Node13</title>
<g id="a_node13"><a xlink:href="ModInfo_8hpp.html" target="_top" xlink:title=" ">
<polygon fill="white" stroke="black" points="1535.48,-56.5 1535.48,-75.5 1660.48,-75.5 1660.48,-56.5 1535.48,-56.5"/>
<text text-anchor="middle" x="1597.98" y="-63.5" font-family="Helvetica,sans-Serif" font-size="10.00">Common/ModInfo.hpp</text>
</a>
</g>
</g>
<!-- Node5&#45;&gt;Node13 -->
<g id="edge49" class="edge">
<title>Node5&#45;&gt;Node13</title>
<path fill="none" stroke="midnightblue" d="M1551.6,-240.62C1548.27,-226.1 1544.08,-197.08 1557.98,-179 1589.34,-138.22 1637.79,-184.65 1667.98,-143 1676.07,-131.84 1674.58,-124.09 1667.98,-112 1660.16,-97.68 1645.62,-87.24 1631.8,-80.04"/>
<polygon fill="midnightblue" stroke="midnightblue" points="1632.98,-76.72 1622.45,-75.56 1629.96,-83.03 1632.98,-76.72"/>
</g>
<!-- Node18 -->
<g id="node18" class="node">
<title>Node18</title>
<g id="a_node18"><a xlink:href="IDisplayModule_8hpp.html" target="_top" xlink:title=" ">
<polygon fill="white" stroke="black" points="720.48,-179.5 720.48,-198.5 881.48,-198.5 881.48,-179.5 720.48,-179.5"/>
<text text-anchor="middle" x="800.98" y="-186.5" font-family="Helvetica,sans-Serif" font-size="10.00">Common/IDisplayModule.hpp</text>
</a>
</g>
</g>
<!-- Node5&#45;&gt;Node18 -->
<g id="edge24" class="edge">
<title>Node5&#45;&gt;Node18</title>
<path fill="none" stroke="midnightblue" d="M1486.83,-244.19C1351.34,-233.49 1045.16,-209.29 891.92,-197.19"/>
<polygon fill="midnightblue" stroke="midnightblue" points="891.85,-193.67 881.61,-196.37 891.3,-200.65 891.85,-193.67"/>
</g>
<!-- Node25 -->
<g id="node25" class="node">
<title>Node25</title>
<g id="a_node25"><a xlink:href="Library_8hpp.html" target="_top" xlink:title=" ">
<polygon fill="white" stroke="black" points="1745.48,-179.5 1745.48,-198.5 1840.48,-198.5 1840.48,-179.5 1745.48,-179.5"/>
<text text-anchor="middle" x="1792.98" y="-186.5" font-family="Helvetica,sans-Serif" font-size="10.00">Core/Library.hpp</text>
</a>
</g>
</g>
<!-- Node5&#45;&gt;Node25 -->
<g id="edge42" class="edge">
<title>Node5&#45;&gt;Node25</title>
<path fill="none" stroke="midnightblue" d="M1588.22,-240.98C1630.55,-230.44 1702.66,-212.49 1749.03,-200.94"/>
<polygon fill="midnightblue" stroke="midnightblue" points="1749.94,-204.32 1758.8,-198.51 1748.25,-197.53 1749.94,-204.32"/>
</g>
<!-- Node12&#45;&gt;Node6 -->
<g id="edge23" class="edge">
<title>Node12&#45;&gt;Node6</title>
<path fill="none" stroke="midnightblue" d="M1330.71,-179.46C1323.5,-152.31 1300.99,-67.51 1290.92,-29.62"/>
<polygon fill="midnightblue" stroke="midnightblue" points="1294.28,-28.64 1288.34,-19.87 1287.52,-30.43 1294.28,-28.64"/>
</g>
<!-- Node12&#45;&gt;Node7 -->
<g id="edge21" class="edge">
<title>Node12&#45;&gt;Node7</title>
<path fill="none" stroke="midnightblue" d="M1256.26,-186.19C1104.84,-182.06 772.68,-170.15 661.98,-143 659.62,-142.42 657.22,-141.69 654.84,-140.85"/>
<polygon fill="midnightblue" stroke="midnightblue" points="655.96,-137.53 645.37,-137.04 653.34,-144.02 655.96,-137.53"/>
</g>
<!-- Node12&#45;&gt;Node8 -->
<g id="edge22" class="edge">
<title>Node12&#45;&gt;Node8</title>
<path fill="none" stroke="midnightblue" d="M1326.01,-179.22C1312.61,-163 1281.49,-128.51 1246.98,-112 1054.18,-19.8 790.79,-10.43 692.28,-10.41"/>
<polygon fill="midnightblue" stroke="midnightblue" points="692.17,-6.91 682.18,-10.44 692.19,-13.91 692.17,-6.91"/>
</g>
<!-- Node12&#45;&gt;Node13 -->
<g id="edge12" class="edge">
<title>Node12&#45;&gt;Node13</title>
<path fill="none" stroke="midnightblue" d="M1380.47,-179.47C1412.6,-172.5 1455.32,-160.84 1489.98,-143 1509.67,-132.87 1511.02,-124.95 1528.98,-112 1544.06,-101.13 1561.62,-89.69 1575.25,-81.07"/>
<polygon fill="midnightblue" stroke="midnightblue" points="1577.37,-83.87 1583.98,-75.59 1573.65,-77.94 1577.37,-83.87"/>
</g>
<!-- Node14 -->
<g id="node14" class="node">
<title>Node14</title>
<g id="a_node14"><a xlink:href="ADrawable_8hpp.html" target="_top" xlink:title=" ">
<polygon fill="white" stroke="black" points="556.48,-56.5 556.48,-75.5 749.48,-75.5 749.48,-56.5 556.48,-56.5"/>
<text text-anchor="middle" x="652.98" y="-63.5" font-family="Helvetica,sans-Serif" font-size="10.00">Common/Drawables/ADrawable.hpp</text>
</a>
</g>
</g>
<!-- Node12&#45;&gt;Node14 -->
<g id="edge14" class="edge">
<title>Node12&#45;&gt;Node14</title>
<path fill="none" stroke="midnightblue" d="M1256.37,-181.38C1212.97,-175.44 1158.6,-164.19 1113.98,-143 1094.29,-133.65 1096.1,-120.39 1075.98,-112 1020.76,-88.97 866,-77.07 759.82,-71.43"/>
<polygon fill="midnightblue" stroke="midnightblue" points="759.86,-67.93 749.7,-70.9 759.5,-74.92 759.86,-67.93"/>
</g>
<!-- Node15 -->
<g id="node15" class="node">
<title>Node15</title>
<g id="a_node15"><a xlink:href="Module_8hpp.html" target="_top" xlink:title=" ">
<polygon fill="white" stroke="black" points="1537.48,-118 1537.48,-137 1658.48,-137 1658.48,-118 1537.48,-118"/>
<text text-anchor="middle" x="1597.98" y="-125" font-family="Helvetica,sans-Serif" font-size="10.00">Common/Module.hpp</text>
</a>
</g>
</g>
<!-- Node12&#45;&gt;Node15 -->
<g id="edge16" class="edge">
<title>Node12&#45;&gt;Node15</title>
<path fill="none" stroke="midnightblue" d="M1370.95,-179.48C1418.18,-168.87 1498.84,-150.76 1550.22,-139.22"/>
<polygon fill="midnightblue" stroke="midnightblue" points="1551.09,-142.61 1560.08,-137.01 1549.56,-135.78 1551.09,-142.61"/>
</g>
<!-- Node16 -->
<g id="node16" class="node">
<title>Node16</title>
<g id="a_node16"><a xlink:href="Event_8hpp.html" target="_top" xlink:title=" ">
<polygon fill="white" stroke="black" points="1332.48,-118 1332.48,-137 1481.48,-137 1481.48,-118 1332.48,-118"/>
<text text-anchor="middle" x="1406.98" y="-125" font-family="Helvetica,sans-Serif" font-size="10.00">Common/Events/Event.hpp</text>
</a>
</g>
</g>
<!-- Node12&#45;&gt;Node16 -->
<g id="edge18" class="edge">
<title>Node12&#45;&gt;Node16</title>
<path fill="none" stroke="midnightblue" d="M1343.58,-179.48C1355.23,-170.11 1374.17,-154.88 1388.32,-143.51"/>
<polygon fill="midnightblue" stroke="midnightblue" points="1390.8,-146 1396.4,-137.01 1386.41,-140.55 1390.8,-146"/>
</g>
<!-- Node17 -->
<g id="node17" class="node">
<title>Node17</title>
<g id="a_node17"><a xlink:href="Sound_8hpp.html" target="_top" xlink:title=" ">
<polygon fill="white" stroke="black" points="1123.48,-118 1123.48,-137 1238.48,-137 1238.48,-118 1123.48,-118"/>
<text text-anchor="middle" x="1180.98" y="-125" font-family="Helvetica,sans-Serif" font-size="10.00">Common/Sound.hpp</text>
</a>
</g>
</g>
<!-- Node12&#45;&gt;Node17 -->
<g id="edge19" class="edge">
<title>Node12&#45;&gt;Node17</title>
<path fill="none" stroke="midnightblue" d="M1311.2,-179.48C1285.24,-169.31 1241.67,-152.26 1212.15,-140.7"/>
<polygon fill="midnightblue" stroke="midnightblue" points="1213.31,-137.4 1202.72,-137.01 1210.75,-143.91 1213.31,-137.4"/>
</g>
<!-- Node13&#45;&gt;Node6 -->
<g id="edge13" class="edge">
<title>Node13&#45;&gt;Node6</title>
<path fill="none" stroke="midnightblue" d="M1548.54,-56.44C1484.11,-45.29 1373.21,-26.1 1318.48,-16.62"/>
<polygon fill="midnightblue" stroke="midnightblue" points="1318.76,-13.12 1308.31,-14.86 1317.57,-20.02 1318.76,-13.12"/>
</g>
<!-- Node14&#45;&gt;Node8 -->
<g id="edge15" class="edge">
<title>Node14&#45;&gt;Node8</title>
<path fill="none" stroke="midnightblue" d="M652.98,-56.08C652.98,-49.01 652.98,-38.86 652.98,-29.99"/>
<polygon fill="midnightblue" stroke="midnightblue" points="656.48,-29.75 652.98,-19.75 649.48,-29.75 656.48,-29.75"/>
</g>
<!-- Node15&#45;&gt;Node13 -->
<g id="edge17" class="edge">
<title>Node15&#45;&gt;Node13</title>
<path fill="none" stroke="midnightblue" d="M1597.98,-117.98C1597.98,-109.58 1597.98,-96.48 1597.98,-85.66"/>
<polygon fill="midnightblue" stroke="midnightblue" points="1601.48,-85.51 1597.98,-75.51 1594.48,-85.51 1601.48,-85.51"/>
</g>
<!-- Node17&#45;&gt;Node6 -->
<g id="edge20" class="edge">
<title>Node17&#45;&gt;Node6</title>
<path fill="none" stroke="midnightblue" d="M1193.81,-117.82C1207.07,-108.47 1227.88,-92.67 1242.98,-76 1256.28,-61.31 1268.44,-42.16 1276.4,-28.45"/>
<polygon fill="midnightblue" stroke="midnightblue" points="1279.55,-30.01 1281.42,-19.58 1273.45,-26.56 1279.55,-30.01"/>
</g>
<!-- Node18&#45;&gt;Node8 -->
<g id="edge41" class="edge">
<title>Node18&#45;&gt;Node8</title>
<path fill="none" stroke="midnightblue" d="M720.35,-186.26C526.88,-181.68 50.51,-167.93 26.98,-143 -56.76,-54.25 464.42,-20.61 613.79,-12.85"/>
<polygon fill="midnightblue" stroke="midnightblue" points="614.08,-16.34 623.89,-12.34 613.73,-9.35 614.08,-16.34"/>
</g>
<!-- Node18&#45;&gt;Node15 -->
<g id="edge25" class="edge">
<title>Node18&#45;&gt;Node15</title>
<path fill="none" stroke="midnightblue" d="M881.48,-184.53C1010.23,-178.57 1270.35,-164.89 1489.98,-143 1502.96,-141.71 1516.77,-140.06 1530.04,-138.34"/>
<polygon fill="midnightblue" stroke="midnightblue" points="1530.6,-141.8 1540.05,-137.02 1529.68,-134.86 1530.6,-141.8"/>
</g>
<!-- Node18&#45;&gt;Node16 -->
<g id="edge38" class="edge">
<title>Node18&#45;&gt;Node16</title>
<path fill="none" stroke="midnightblue" d="M881.77,-180.07C996.52,-168.8 1205.73,-148.26 1322.49,-136.8"/>
<polygon fill="midnightblue" stroke="midnightblue" points="1322.84,-140.28 1332.45,-135.82 1322.16,-133.31 1322.84,-140.28"/>
</g>
<!-- Node18&#45;&gt;Node17 -->
<g id="edge39" class="edge">
<title>Node18&#45;&gt;Node17</title>
<path fill="none" stroke="midnightblue" d="M855.43,-179.48C924.42,-168.67 1043.17,-150.08 1116.59,-138.58"/>
<polygon fill="midnightblue" stroke="midnightblue" points="1117.3,-142.01 1126.64,-137.01 1116.22,-135.1 1117.3,-142.01"/>
</g>
<!-- Node19 -->
<g id="node19" class="node">
<title>Node19</title>
<g id="a_node19"><a xlink:href="Line_8hpp.html" target="_top" xlink:title=" ">
<polygon fill="white" stroke="black" points="35.98,-118 35.98,-137 195.98,-137 195.98,-118 35.98,-118"/>
<text text-anchor="middle" x="115.98" y="-125" font-family="Helvetica,sans-Serif" font-size="10.00">Common/Drawables/Line.hpp</text>
</a>
</g>
</g>
<!-- Node18&#45;&gt;Node19 -->
<g id="edge26" class="edge">
<title>Node18&#45;&gt;Node19</title>
<path fill="none" stroke="midnightblue" d="M720.27,-184.12C605.5,-178.09 388.65,-164.85 204.98,-143 194.73,-141.78 183.86,-140.23 173.36,-138.59"/>
<polygon fill="midnightblue" stroke="midnightblue" points="173.87,-135.13 163.45,-137.01 172.77,-142.04 173.87,-135.13"/>
</g>
<!-- Node20 -->
<g id="node20" class="node">
<title>Node20</title>
<g id="a_node20"><a xlink:href="Rectangle_8hpp.html" target="_top" xlink:title=" ">
<polygon fill="white" stroke="black" points="213.98,-118 213.98,-137 401.98,-137 401.98,-118 213.98,-118"/>
<text text-anchor="middle" x="307.98" y="-125" font-family="Helvetica,sans-Serif" font-size="10.00">Common/Drawables/Rectangle.hpp</text>
</a>
</g>
</g>
<!-- Node18&#45;&gt;Node20 -->
<g id="edge28" class="edge">
<title>Node18&#45;&gt;Node20</title>
<path fill="none" stroke="midnightblue" d="M722.11,-179.48C643.28,-170.83 518.64,-156.79 410.98,-143 399.9,-141.58 388.15,-140 376.72,-138.42"/>
<polygon fill="midnightblue" stroke="midnightblue" points="377.16,-134.95 366.77,-137.03 376.19,-141.88 377.16,-134.95"/>
</g>
<!-- Node21 -->
<g id="node21" class="node">
<title>Node21</title>
<g id="a_node21"><a xlink:href="Circle_8hpp.html" target="_top" xlink:title=" ">
<polygon fill="white" stroke="black" points="420.48,-118 420.48,-137 587.48,-137 587.48,-118 420.48,-118"/>
<text text-anchor="middle" x="503.98" y="-125" font-family="Helvetica,sans-Serif" font-size="10.00">Common/Drawables/Circle.hpp</text>
</a>
</g>
</g>
<!-- Node18&#45;&gt;Node21 -->
<g id="edge30" class="edge">
<title>Node18&#45;&gt;Node21</title>
<path fill="none" stroke="midnightblue" d="M758.43,-179.48C705.17,-168.8 613.96,-150.53 556.44,-139.01"/>
<polygon fill="midnightblue" stroke="midnightblue" points="556.95,-135.54 546.45,-137.01 555.57,-142.41 556.95,-135.54"/>
</g>
<!-- Node22 -->
<g id="node22" class="node">
<title>Node22</title>
<g id="a_node22"><a xlink:href="Sprite_8hpp.html" target="_top" xlink:title=" ">
<polygon fill="white" stroke="black" points="898.98,-118 898.98,-137 1066.98,-137 1066.98,-118 898.98,-118"/>
<text text-anchor="middle" x="982.98" y="-125" font-family="Helvetica,sans-Serif" font-size="10.00">Common/Drawables/Sprite.hpp</text>
</a>
</g>
</g>
<!-- Node18&#45;&gt;Node22 -->
<g id="edge32" class="edge">
<title>Node18&#45;&gt;Node22</title>
<path fill="none" stroke="midnightblue" d="M827.06,-179.48C858.55,-169.18 911.68,-151.81 947.04,-140.25"/>
<polygon fill="midnightblue" stroke="midnightblue" points="948.54,-143.44 956.95,-137.01 946.36,-136.79 948.54,-143.44"/>
</g>
<!-- Node23 -->
<g id="node23" class="node">
<title>Node23</title>
<g id="a_node23"><a xlink:href="Text_8hpp.html" target="_top" xlink:title=" ">
<polygon fill="white" stroke="black" points="720.98,-118 720.98,-137 880.98,-137 880.98,-118 720.98,-118"/>
<text text-anchor="middle" x="800.98" y="-125" font-family="Helvetica,sans-Serif" font-size="10.00">Common/Drawables/Text.hpp</text>
</a>
</g>
</g>
<!-- Node18&#45;&gt;Node23 -->
<g id="edge35" class="edge">
<title>Node18&#45;&gt;Node23</title>
<path fill="none" stroke="midnightblue" d="M800.98,-179.48C800.98,-171.08 800.98,-157.98 800.98,-147.16"/>
<polygon fill="midnightblue" stroke="midnightblue" points="804.48,-147.01 800.98,-137.01 797.48,-147.01 804.48,-147.01"/>
</g>
<!-- Node24 -->
<g id="node24" class="node">
<title>Node24</title>
<g id="a_node24"><a xlink:title=" ">
<polygon fill="white" stroke="#bfbfbf" points="670.98,-118 670.98,-137 702.98,-137 702.98,-118 670.98,-118"/>
<text text-anchor="middle" x="686.98" y="-125" font-family="Helvetica,sans-Serif" font-size="10.00">list</text>
</a>
</g>
</g>
<!-- Node18&#45;&gt;Node24 -->
<g id="edge40" class="edge">
<title>Node18&#45;&gt;Node24</title>
<path fill="none" stroke="midnightblue" d="M783.43,-179.5C765.37,-170.66 736.49,-156.29 711.98,-143 711.44,-142.71 710.9,-142.41 710.35,-142.11"/>
<polygon fill="midnightblue" stroke="midnightblue" points="711.87,-138.95 701.44,-137.08 708.43,-145.04 711.87,-138.95"/>
</g>
<!-- Node19&#45;&gt;Node14 -->
<g id="edge27" class="edge">
<title>Node19&#45;&gt;Node14</title>
<path fill="none" stroke="midnightblue" d="M164.87,-117.98C177.88,-115.87 191.94,-113.72 204.98,-112 321.33,-96.69 455.28,-83.86 546.18,-75.87"/>
<polygon fill="midnightblue" stroke="midnightblue" points="546.56,-79.35 556.22,-74.99 545.95,-72.38 546.56,-79.35"/>
</g>
<!-- Node20&#45;&gt;Node14 -->
<g id="edge29" class="edge">
<title>Node20&#45;&gt;Node14</title>
<path fill="none" stroke="midnightblue" d="M357.41,-117.98C419.79,-107.22 526.98,-88.73 593.7,-77.22"/>
<polygon fill="midnightblue" stroke="midnightblue" points="594.38,-80.66 603.64,-75.51 593.19,-73.76 594.38,-80.66"/>
</g>
<!-- Node21&#45;&gt;Node14 -->
<g id="edge31" class="edge">
<title>Node21&#45;&gt;Node14</title>
<path fill="none" stroke="midnightblue" d="M525.33,-117.98C550.67,-107.86 593.12,-90.9 622.05,-79.35"/>
<polygon fill="midnightblue" stroke="midnightblue" points="623.68,-82.47 631.67,-75.51 621.09,-75.97 623.68,-82.47"/>
</g>
<!-- Node22&#45;&gt;Node6 -->
<g id="edge34" class="edge">
<title>Node22&#45;&gt;Node6</title>
<path fill="none" stroke="midnightblue" d="M1005.75,-117.82C1059.21,-97.44 1192.81,-46.52 1254.21,-23.11"/>
<polygon fill="midnightblue" stroke="midnightblue" points="1255.67,-26.3 1263.77,-19.47 1253.17,-19.76 1255.67,-26.3"/>
</g>
<!-- Node22&#45;&gt;Node14 -->
<g id="edge33" class="edge">
<title>Node22&#45;&gt;Node14</title>
<path fill="none" stroke="midnightblue" d="M935.7,-117.98C876.15,-107.24 773.92,-88.81 710.08,-77.29"/>
<polygon fill="midnightblue" stroke="midnightblue" points="710.64,-73.84 700.17,-75.51 709.39,-80.73 710.64,-73.84"/>
</g>
<!-- Node23&#45;&gt;Node6 -->
<g id="edge37" class="edge">
<title>Node23&#45;&gt;Node6</title>
<path fill="none" stroke="midnightblue" d="M837.04,-117.91C928.28,-96.19 1167.2,-39.29 1253.94,-18.63"/>
<polygon fill="midnightblue" stroke="midnightblue" points="1254.82,-22.02 1263.74,-16.3 1253.2,-15.21 1254.82,-22.02"/>
</g>
<!-- Node23&#45;&gt;Node14 -->
<g id="edge36" class="edge">
<title>Node23&#45;&gt;Node14</title>
<path fill="none" stroke="midnightblue" d="M779.78,-117.98C754.61,-107.86 712.44,-90.9 683.7,-79.35"/>
<polygon fill="midnightblue" stroke="midnightblue" points="684.73,-75.99 674.15,-75.51 682.12,-82.49 684.73,-75.99"/>
</g>
<!-- Node25&#45;&gt;Node8 -->
<g id="edge47" class="edge">
<title>Node25&#45;&gt;Node8</title>
<path fill="none" stroke="midnightblue" d="M1782.88,-179.38C1772.73,-170.56 1756.8,-156.31 1743.98,-143 1708.78,-106.43 1715.58,-78.31 1669.98,-56 1625.35,-34.16 874.26,-15.96 692.4,-11.86"/>
<polygon fill="midnightblue" stroke="midnightblue" points="692.29,-8.36 682.22,-11.64 692.14,-15.36 692.29,-8.36"/>
</g>
<!-- Node25&#45;&gt;Node13 -->
<g id="edge44" class="edge">
<title>Node25&#45;&gt;Node13</title>
<path fill="none" stroke="midnightblue" d="M1799.37,-179.45C1809.91,-164.21 1828.26,-132.06 1811.98,-112 1794.27,-90.18 1725.48,-78.55 1670.61,-72.62"/>
<polygon fill="midnightblue" stroke="midnightblue" points="1670.85,-69.12 1660.55,-71.58 1670.13,-76.09 1670.85,-69.12"/>
</g>
<!-- Node25&#45;&gt;Node15 -->
<g id="edge43" class="edge">
<title>Node25&#45;&gt;Node15</title>
<path fill="none" stroke="midnightblue" d="M1765.04,-179.48C1731.01,-169.09 1673.4,-151.51 1635.52,-139.95"/>
<polygon fill="midnightblue" stroke="midnightblue" points="1636.45,-136.58 1625.87,-137.01 1634.41,-143.28 1636.45,-136.58"/>
</g>
<!-- Node25&#45;&gt;Node26 -->
<g id="edge45" class="edge">
<title>Node25&#45;&gt;Node26</title>
<path fill="none" stroke="midnightblue" d="M1817.91,-179.48C1843.46,-170.74 1883.91,-156.91 1916.23,-145.86"/>
<polygon fill="midnightblue" stroke="midnightblue" points="1917.64,-149.07 1925.97,-142.52 1915.38,-142.45 1917.64,-149.07"/>
</g>
<!-- Node28 -->
<g id="node28" class="node">
<title>Node28</title>
<g id="a_node28"><a xlink:title=" ">
<polygon fill="white" stroke="#bfbfbf" points="1752.98,-118 1752.98,-137 1802.98,-137 1802.98,-118 1752.98,-118"/>
<text text-anchor="middle" x="1777.98" y="-125" font-family="Helvetica,sans-Serif" font-size="10.00">dlfcn.h</text>
</a>
</g>
</g>
<!-- Node25&#45;&gt;Node28 -->
<g id="edge48" class="edge">
<title>Node25&#45;&gt;Node28</title>
<path fill="none" stroke="midnightblue" d="M1790.83,-179.48C1788.69,-170.99 1785.34,-157.7 1782.6,-146.82"/>
<polygon fill="midnightblue" stroke="midnightblue" points="1785.96,-145.85 1780.13,-137.01 1779.18,-147.56 1785.96,-145.85"/>
</g>
<!-- Node27 -->
<g id="node27" class="node">
<title>Node27</title>
<g id="a_node27"><a xlink:title=" ">
<polygon fill="white" stroke="#bfbfbf" points="1983.48,-56.5 1983.48,-75.5 2048.48,-75.5 2048.48,-56.5 1983.48,-56.5"/>
<text text-anchor="middle" x="2015.98" y="-63.5" font-family="Helvetica,sans-Serif" font-size="10.00">stdexcept</text>
</a>
</g>
</g>
<!-- Node26&#45;&gt;Node27 -->
<g id="edge46" class="edge">
<title>Node26&#45;&gt;Node27</title>
<path fill="none" stroke="midnightblue" d="M1978.59,-112.4C1985.71,-103.75 1994.86,-92.64 2002.33,-83.58"/>
<polygon fill="midnightblue" stroke="midnightblue" points="2005.2,-85.6 2008.85,-75.66 1999.79,-81.15 2005.2,-85.6"/>
</g>
<!-- Node31&#45;&gt;Node27 -->
<g id="edge55" class="edge">
<title>Node31&#45;&gt;Node27</title>
<path fill="none" stroke="midnightblue" d="M2042.76,-235.46C2048.91,-210.15 2059.14,-155.47 2045.98,-112 2042.86,-101.7 2036.53,-91.61 2030.48,-83.6"/>
<polygon fill="midnightblue" stroke="midnightblue" points="2033.2,-81.4 2024.19,-75.82 2027.75,-85.8 2033.2,-81.4"/>
</g>
<!-- Node32&#45;&gt;Node16 -->
<g id="edge57" class="edge">
<title>Node32&#45;&gt;Node16</title>
<path fill="none" stroke="midnightblue" d="M1748.06,-240.88C1740.65,-225.66 1723.04,-194.17 1697.98,-179 1679.6,-167.87 1560.59,-149.67 1480.56,-138.43"/>
<polygon fill="midnightblue" stroke="midnightblue" points="1480.91,-134.94 1470.52,-137.03 1479.94,-141.88 1480.91,-134.94"/>
</g>
</g>
</svg>
