<?xml version="1.0" encoding="UTF-8" standalone="no"?>
<!DOCTYPE svg PUBLIC "-//W3C//DTD SVG 1.1//EN"
 "http://www.w3.org/Graphics/SVG/1.1/DTD/svg11.dtd">
<!-- Generated by graphviz version 2.43.0 (0)
 -->
<!-- Title: sources/DisplayModules/SDL/SDLDisplay.cpp Pages: 1 -->
<svg width="1982pt" height="330pt"
 viewBox="0.00 0.00 1981.88 330.00" xmlns="http://www.w3.org/2000/svg" xmlns:xlink="http://www.w3.org/1999/xlink">
<g id="graph0" class="graph" transform="scale(1 1) rotate(0) translate(4 326)">
<title>sources/DisplayModules/SDL/SDLDisplay.cpp</title>
<polygon fill="white" stroke="transparent" points="-4,4 -4,-326 1977.88,-326 1977.88,4 -4,4"/>
<!-- Node1 -->
<g id="node1" class="node">
<title>Node1</title>
<g id="a_node1"><a xlink:title=" ">
<polygon fill="#bfbfbf" stroke="black" points="1297.38,-291.5 1297.38,-321.5 1432.38,-321.5 1432.38,-291.5 1297.38,-291.5"/>
<text text-anchor="start" x="1305.38" y="-309.5" font-family="Helvetica,sans-Serif" font-size="10.00">sources/DisplayModules</text>
<text text-anchor="middle" x="1364.88" y="-298.5" font-family="Helvetica,sans-Serif" font-size="10.00">/SDL/SDLDisplay.cpp</text>
</a>
</g>
</g>
<!-- Node2 -->
<g id="node2" class="node">
<title>Node2</title>
<g id="a_node2"><a xlink:href="SDLDisplay_8hpp.html" target="_top" xlink:title=" ">
<polygon fill="white" stroke="black" points="775.88,-235.5 775.88,-254.5 867.88,-254.5 867.88,-235.5 775.88,-235.5"/>
<text text-anchor="middle" x="821.88" y="-242.5" font-family="Helvetica,sans-Serif" font-size="10.00">SDLDisplay.hpp</text>
</a>
</g>
</g>
<!-- Node1&#45;&gt;Node2 -->
<g id="edge1" class="edge">
<title>Node1&#45;&gt;Node2</title>
<path fill="none" stroke="midnightblue" d="M1297.21,-298.08C1188.92,-286.22 978.66,-263.18 878.1,-252.16"/>
<polygon fill="midnightblue" stroke="midnightblue" points="878.46,-248.68 868.14,-251.07 877.7,-255.64 878.46,-248.68"/>
</g>
<!-- Node3 -->
<g id="node3" class="node">
<title>Node3</title>
<g id="a_node3"><a xlink:title=" ">
<polygon fill="white" stroke="#bfbfbf" points="52.88,-174 52.88,-193 124.88,-193 124.88,-174 52.88,-174"/>
<text text-anchor="middle" x="88.88" y="-181" font-family="Helvetica,sans-Serif" font-size="10.00">SDL2/SDL.h</text>
</a>
</g>
</g>
<!-- Node1&#45;&gt;Node3 -->
<g id="edge35" class="edge">
<title>Node1&#45;&gt;Node3</title>
<path fill="none" stroke="midnightblue" d="M1297.13,-304.31C1110.73,-300.01 575.12,-280.91 138.88,-199 134.19,-198.12 129.3,-196.98 124.5,-195.74"/>
<polygon fill="midnightblue" stroke="midnightblue" points="125.43,-192.36 114.86,-193.07 123.56,-199.11 125.43,-192.36"/>
</g>
<!-- Node7 -->
<g id="node7" class="node">
<title>Node7</title>
<g id="a_node7"><a xlink:href="ModInfo_8hpp.html" target="_top" xlink:title=" ">
<polygon fill="white" stroke="black" points="18.38,-56.5 18.38,-75.5 143.38,-75.5 143.38,-56.5 18.38,-56.5"/>
<text text-anchor="middle" x="80.88" y="-63.5" font-family="Helvetica,sans-Serif" font-size="10.00">Common/ModInfo.hpp</text>
</a>
</g>
</g>
<!-- Node1&#45;&gt;Node7 -->
<g id="edge44" class="edge">
<title>Node1&#45;&gt;Node7</title>
<path fill="none" stroke="midnightblue" d="M1297.38,-305.51C1039.27,-304.85 125.25,-295.64 43.88,-199 18.98,-169.42 30.84,-148.4 43.88,-112 47.82,-101 55.74,-90.77 63.24,-82.85"/>
<polygon fill="midnightblue" stroke="midnightblue" points="65.78,-85.27 70.44,-75.76 60.86,-80.28 65.78,-85.27"/>
</g>
<!-- Node15 -->
<g id="node15" class="node">
<title>Node15</title>
<g id="a_node15"><a xlink:href="Event_8hpp.html" target="_top" xlink:title=" ">
<polygon fill="white" stroke="black" points="1252.38,-112.5 1252.38,-131.5 1401.38,-131.5 1401.38,-112.5 1252.38,-112.5"/>
<text text-anchor="middle" x="1326.88" y="-119.5" font-family="Helvetica,sans-Serif" font-size="10.00">Common/Events/Event.hpp</text>
</a>
</g>
</g>
<!-- Node1&#45;&gt;Node15 -->
<g id="edge43" class="edge">
<title>Node1&#45;&gt;Node15</title>
<path fill="none" stroke="midnightblue" d="M1365.9,-291.35C1367.59,-276.22 1372.06,-252.1 1383.88,-235 1399.46,-212.48 1421.4,-223.37 1433.88,-199 1440.16,-186.74 1441.51,-179.48 1433.88,-168 1423.11,-151.78 1405.22,-141.39 1387.13,-134.75"/>
<polygon fill="midnightblue" stroke="midnightblue" points="1387.99,-131.34 1377.39,-131.51 1385.78,-137.99 1387.99,-131.34"/>
</g>
<!-- Node18 -->
<g id="node18" class="node">
<title>Node18</title>
<g id="a_node18"><a xlink:href="MouseClickEvent_8hpp.html" target="_top" xlink:title=" ">
<polygon fill="white" stroke="black" points="1054.88,-168.5 1054.88,-198.5 1210.88,-198.5 1210.88,-168.5 1054.88,-168.5"/>
<text text-anchor="start" x="1062.88" y="-186.5" font-family="Helvetica,sans-Serif" font-size="10.00">Common/Events/MouseClick</text>
<text text-anchor="middle" x="1132.88" y="-175.5" font-family="Helvetica,sans-Serif" font-size="10.00">Event.hpp</text>
</a>
</g>
</g>
<!-- Node1&#45;&gt;Node18 -->
<g id="edge41" class="edge">
<title>Node1&#45;&gt;Node18</title>
<path fill="none" stroke="midnightblue" d="M1337.82,-291.38C1295.99,-269.57 1215.63,-227.65 1168.93,-203.3"/>
<polygon fill="midnightblue" stroke="midnightblue" points="1170.26,-200.05 1159.78,-198.53 1167.03,-206.25 1170.26,-200.05"/>
</g>
<!-- Node19 -->
<g id="node19" class="node">
<title>Node19</title>
<g id="a_node19"><a xlink:href="KeyBoardEvent_8hpp.html" target="_top" xlink:title=" ">
<polygon fill="white" stroke="black" points="1229.38,-174 1229.38,-193 1424.38,-193 1424.38,-174 1229.38,-174"/>
<text text-anchor="middle" x="1326.88" y="-181" font-family="Helvetica,sans-Serif" font-size="10.00">Common/Events/KeyBoardEvent.hpp</text>
</a>
</g>
</g>
<!-- Node1&#45;&gt;Node19 -->
<g id="edge42" class="edge">
<title>Node1&#45;&gt;Node19</title>
<path fill="none" stroke="midnightblue" d="M1360.37,-291.14C1353.45,-269.1 1340.21,-226.95 1332.62,-202.76"/>
<polygon fill="midnightblue" stroke="midnightblue" points="1335.9,-201.54 1329.57,-193.05 1329.23,-203.64 1335.9,-201.54"/>
</g>
<!-- Node23 -->
<g id="node23" class="node">
<title>Node23</title>
<g id="a_node23"><a xlink:title=" ">
<polygon fill="white" stroke="#bfbfbf" points="1392.88,-235.5 1392.88,-254.5 1500.88,-254.5 1500.88,-235.5 1392.88,-235.5"/>
<text text-anchor="middle" x="1446.88" y="-242.5" font-family="Helvetica,sans-Serif" font-size="10.00">SDL2/SDL_image.h</text>
</a>
</g>
</g>
<!-- Node1&#45;&gt;Node23 -->
<g id="edge36" class="edge">
<title>Node1&#45;&gt;Node23</title>
<path fill="none" stroke="midnightblue" d="M1384.32,-291.4C1397.09,-282.13 1413.77,-270.03 1426.7,-260.65"/>
<polygon fill="midnightblue" stroke="midnightblue" points="1428.91,-263.36 1434.95,-254.66 1424.8,-257.7 1428.91,-263.36"/>
</g>
<!-- Node24 -->
<g id="node24" class="node">
<title>Node24</title>
<g id="a_node24"><a xlink:title=" ">
<polygon fill="white" stroke="#bfbfbf" points="1518.88,-235.5 1518.88,-254.5 1606.88,-254.5 1606.88,-235.5 1518.88,-235.5"/>
<text text-anchor="middle" x="1562.88" y="-242.5" font-family="Helvetica,sans-Serif" font-size="10.00">SDL2/SDL_ttf.h</text>
</a>
</g>
</g>
<!-- Node1&#45;&gt;Node24 -->
<g id="edge37" class="edge">
<title>Node1&#45;&gt;Node24</title>
<path fill="none" stroke="midnightblue" d="M1411.56,-291.47C1446.01,-281.12 1492.34,-267.2 1524.62,-257.5"/>
<polygon fill="midnightblue" stroke="midnightblue" points="1526.01,-260.74 1534.58,-254.51 1523.99,-254.03 1526.01,-260.74"/>
</g>
<!-- Node25 -->
<g id="node25" class="node">
<title>Node25</title>
<g id="a_node25"><a xlink:title=" ">
<polygon fill="white" stroke="#bfbfbf" points="1624.88,-235.5 1624.88,-254.5 1728.88,-254.5 1728.88,-235.5 1624.88,-235.5"/>
<text text-anchor="middle" x="1676.88" y="-242.5" font-family="Helvetica,sans-Serif" font-size="10.00">SDL2/SDL_mixer.h</text>
</a>
</g>
</g>
<!-- Node1&#45;&gt;Node25 -->
<g id="edge38" class="edge">
<title>Node1&#45;&gt;Node25</title>
<path fill="none" stroke="midnightblue" d="M1432.58,-292.59C1489.32,-281.77 1569.3,-266.52 1622.09,-256.45"/>
<polygon fill="midnightblue" stroke="midnightblue" points="1622.77,-259.88 1631.94,-254.57 1621.46,-253.01 1622.77,-259.88"/>
</g>
<!-- Node26 -->
<g id="node26" class="node">
<title>Node26</title>
<g id="a_node26"><a xlink:title=" ">
<polygon fill="white" stroke="#bfbfbf" points="1747.38,-235.5 1747.38,-254.5 1896.38,-254.5 1896.38,-235.5 1747.38,-235.5"/>
<text text-anchor="middle" x="1821.88" y="-242.5" font-family="Helvetica,sans-Serif" font-size="10.00">SDL2/SDL2_gfxPrimitives.h</text>
</a>
</g>
</g>
<!-- Node1&#45;&gt;Node26 -->
<g id="edge39" class="edge">
<title>Node1&#45;&gt;Node26</title>
<path fill="none" stroke="midnightblue" d="M1432.81,-296.66C1516.76,-285.73 1659.18,-267.18 1746.45,-255.82"/>
<polygon fill="midnightblue" stroke="midnightblue" points="1747.09,-259.27 1756.55,-254.51 1746.18,-252.33 1747.09,-259.27"/>
</g>
<!-- Node27 -->
<g id="node27" class="node">
<title>Node27</title>
<g id="a_node27"><a xlink:title=" ">
<polygon fill="white" stroke="#bfbfbf" points="1913.88,-235.5 1913.88,-254.5 1973.88,-254.5 1973.88,-235.5 1913.88,-235.5"/>
<text text-anchor="middle" x="1943.88" y="-242.5" font-family="Helvetica,sans-Serif" font-size="10.00">iostream</text>
</a>
</g>
</g>
<!-- Node1&#45;&gt;Node27 -->
<g id="edge40" class="edge">
<title>Node1&#45;&gt;Node27</title>
<path fill="none" stroke="midnightblue" d="M1432.74,-302.21C1533.65,-296.65 1729.3,-283.28 1903.55,-255.21"/>
<polygon fill="midnightblue" stroke="midnightblue" points="1904.37,-258.62 1913.68,-253.56 1903.24,-251.71 1904.37,-258.62"/>
</g>
<!-- Node2&#45;&gt;Node3 -->
<g id="edge2" class="edge">
<title>Node2&#45;&gt;Node3</title>
<path fill="none" stroke="midnightblue" d="M775.5,-244.39C664.59,-244.56 375.59,-240.61 138.88,-199 134.07,-198.15 129.07,-197.02 124.16,-195.76"/>
<polygon fill="midnightblue" stroke="midnightblue" points="124.9,-192.33 114.33,-193.03 123.03,-199.07 124.9,-192.33"/>
</g>
<!-- Node4 -->
<g id="node4" class="node">
<title>Node4</title>
<g id="a_node4"><a xlink:title=" ">
<polygon fill="white" stroke="#bfbfbf" points="196.88,-0.5 196.88,-19.5 240.88,-19.5 240.88,-0.5 196.88,-0.5"/>
<text text-anchor="middle" x="218.88" y="-7.5" font-family="Helvetica,sans-Serif" font-size="10.00">string</text>
</a>
</g>
</g>
<!-- Node2&#45;&gt;Node4 -->
<g id="edge3" class="edge">
<title>Node2&#45;&gt;Node4</title>
<path fill="none" stroke="midnightblue" d="M775.62,-239.65C617.58,-224.46 105.47,-172.54 43.88,-132 12.82,-111.55 -14.5,-84.92 8.88,-56 30.87,-28.81 133.38,-17.3 186.61,-13.1"/>
<polygon fill="midnightblue" stroke="midnightblue" points="187.15,-16.57 196.87,-12.33 186.63,-9.59 187.15,-16.57"/>
</g>
<!-- Node5 -->
<g id="node5" class="node">
<title>Node5</title>
<g id="a_node5"><a xlink:href="IDisplayModule_8hpp.html" target="_top" xlink:title=" ">
<polygon fill="white" stroke="black" points="546.38,-174 546.38,-193 707.38,-193 707.38,-174 546.38,-174"/>
<text text-anchor="middle" x="626.88" y="-181" font-family="Helvetica,sans-Serif" font-size="10.00">Common/IDisplayModule.hpp</text>
</a>
</g>
</g>
<!-- Node2&#45;&gt;Node5 -->
<g id="edge4" class="edge">
<title>Node2&#45;&gt;Node5</title>
<path fill="none" stroke="midnightblue" d="M793.94,-235.48C759.92,-225.09 702.3,-207.51 664.42,-195.95"/>
<polygon fill="midnightblue" stroke="midnightblue" points="665.36,-192.58 654.77,-193.01 663.31,-199.28 665.36,-192.58"/>
</g>
<!-- Node2&#45;&gt;Node15 -->
<g id="edge32" class="edge">
<title>Node2&#45;&gt;Node15</title>
<path fill="none" stroke="midnightblue" d="M868.18,-238.64C907.06,-232.8 963.25,-221.16 1007.88,-199 1027.41,-189.31 1026,-176.92 1045.88,-168 1064.46,-159.67 1175.63,-143.41 1252.44,-132.88"/>
<polygon fill="midnightblue" stroke="midnightblue" points="1253.14,-136.32 1262.57,-131.5 1252.19,-129.39 1253.14,-136.32"/>
</g>
<!-- Node2&#45;&gt;Node18 -->
<g id="edge26" class="edge">
<title>Node2&#45;&gt;Node18</title>
<path fill="none" stroke="midnightblue" d="M866.44,-235.48C914.07,-226.36 990.68,-211.71 1049.56,-200.44"/>
<polygon fill="midnightblue" stroke="midnightblue" points="1050.42,-203.84 1059.59,-198.52 1049.11,-196.96 1050.42,-203.84"/>
</g>
<!-- Node2&#45;&gt;Node19 -->
<g id="edge28" class="edge">
<title>Node2&#45;&gt;Node19</title>
<path fill="none" stroke="midnightblue" d="M867.89,-239.13C942.04,-231.21 1092.57,-214.82 1219.88,-199 1231.51,-197.56 1243.84,-195.95 1255.83,-194.35"/>
<polygon fill="midnightblue" stroke="midnightblue" points="1256.36,-197.81 1265.8,-193.01 1255.43,-190.88 1256.36,-197.81"/>
</g>
<!-- Node20 -->
<g id="node20" class="node">
<title>Node20</title>
<g id="a_node20"><a xlink:href="MouseMoveEvent_8hpp.html" target="_top" xlink:title=" ">
<polygon fill="white" stroke="black" points="790.88,-174 790.88,-193 998.88,-193 998.88,-174 790.88,-174"/>
<text text-anchor="middle" x="894.88" y="-181" font-family="Helvetica,sans-Serif" font-size="10.00">Common/Events/MouseMoveEvent.hpp</text>
</a>
</g>
</g>
<!-- Node2&#45;&gt;Node20 -->
<g id="edge30" class="edge">
<title>Node2&#45;&gt;Node20</title>
<path fill="none" stroke="midnightblue" d="M832.34,-235.48C843.83,-226.11 862.51,-210.88 876.47,-199.51"/>
<polygon fill="midnightblue" stroke="midnightblue" points="878.9,-202.04 884.44,-193.01 874.48,-196.61 878.9,-202.04"/>
</g>
<!-- Node21 -->
<g id="node21" class="node">
<title>Node21</title>
<g id="a_node21"><a xlink:title=" ">
<polygon fill="white" stroke="#bfbfbf" points="489.88,-174 489.88,-193 527.88,-193 527.88,-174 489.88,-174"/>
<text text-anchor="middle" x="508.88" y="-181" font-family="Helvetica,sans-Serif" font-size="10.00">map</text>
</a>
</g>
</g>
<!-- Node2&#45;&gt;Node21 -->
<g id="edge33" class="edge">
<title>Node2&#45;&gt;Node21</title>
<path fill="none" stroke="midnightblue" d="M775.63,-241.03C718.58,-236.39 619.17,-225.07 537.88,-199 536.26,-198.48 534.62,-197.88 532.98,-197.23"/>
<polygon fill="midnightblue" stroke="midnightblue" points="534.42,-194.03 523.86,-193.08 531.52,-200.41 534.42,-194.03"/>
</g>
<!-- Node22 -->
<g id="node22" class="node">
<title>Node22</title>
<g id="a_node22"><a xlink:title=" ">
<polygon fill="white" stroke="#bfbfbf" points="725.38,-174 725.38,-193 772.38,-193 772.38,-174 725.38,-174"/>
<text text-anchor="middle" x="748.88" y="-181" font-family="Helvetica,sans-Serif" font-size="10.00">vector</text>
</a>
</g>
</g>
<!-- Node2&#45;&gt;Node22 -->
<g id="edge34" class="edge">
<title>Node2&#45;&gt;Node22</title>
<path fill="none" stroke="midnightblue" d="M811.42,-235.48C799.93,-226.11 781.25,-210.88 767.3,-199.51"/>
<polygon fill="midnightblue" stroke="midnightblue" points="769.29,-196.61 759.32,-193.01 764.86,-202.04 769.29,-196.61"/>
</g>
<!-- Node6 -->
<g id="node6" class="node">
<title>Node6</title>
<g id="a_node6"><a xlink:href="Module_8hpp.html" target="_top" xlink:title=" ">
<polygon fill="white" stroke="black" points="53.38,-112.5 53.38,-131.5 174.38,-131.5 174.38,-112.5 53.38,-112.5"/>
<text text-anchor="middle" x="113.88" y="-119.5" font-family="Helvetica,sans-Serif" font-size="10.00">Common/Module.hpp</text>
</a>
</g>
</g>
<!-- Node5&#45;&gt;Node6 -->
<g id="edge5" class="edge">
<title>Node5&#45;&gt;Node6</title>
<path fill="none" stroke="midnightblue" d="M576.97,-173.94C563.94,-171.85 549.91,-169.72 536.88,-168 382.73,-147.63 343.41,-149.26 188.88,-132 187.42,-131.84 185.93,-131.67 184.44,-131.5"/>
<polygon fill="midnightblue" stroke="midnightblue" points="184.79,-128.02 174.46,-130.35 183.99,-134.97 184.79,-128.02"/>
</g>
<!-- Node8 -->
<g id="node8" class="node">
<title>Node8</title>
<g id="a_node8"><a xlink:href="Line_8hpp.html" target="_top" xlink:title=" ">
<polygon fill="white" stroke="black" points="986.88,-112.5 986.88,-131.5 1146.88,-131.5 1146.88,-112.5 986.88,-112.5"/>
<text text-anchor="middle" x="1066.88" y="-119.5" font-family="Helvetica,sans-Serif" font-size="10.00">Common/Drawables/Line.hpp</text>
</a>
</g>
</g>
<!-- Node5&#45;&gt;Node8 -->
<g id="edge8" class="edge">
<title>Node5&#45;&gt;Node8</title>
<path fill="none" stroke="midnightblue" d="M678.24,-173.94C690.86,-171.91 704.35,-169.81 716.88,-168 808.62,-154.72 914.19,-141.41 985.18,-132.76"/>
<polygon fill="midnightblue" stroke="midnightblue" points="985.9,-136.2 995.4,-131.51 985.05,-129.25 985.9,-136.2"/>
</g>
<!-- Node10 -->
<g id="node10" class="node">
<title>Node10</title>
<g id="a_node10"><a xlink:title=" ">
<polygon fill="white" stroke="#bfbfbf" points="1000.88,-0.5 1000.88,-19.5 1058.88,-19.5 1058.88,-0.5 1000.88,-0.5"/>
<text text-anchor="middle" x="1029.88" y="-7.5" font-family="Helvetica,sans-Serif" font-size="10.00">memory</text>
</a>
</g>
</g>
<!-- Node5&#45;&gt;Node10 -->
<g id="edge25" class="edge">
<title>Node5&#45;&gt;Node10</title>
<path fill="none" stroke="midnightblue" d="M675.36,-173.98C688.78,-171.81 703.37,-169.64 716.88,-168 765.47,-162.1 1122.72,-167.99 1155.88,-132 1194.24,-90.37 1109.69,-45.13 1061.06,-23.67"/>
<polygon fill="midnightblue" stroke="midnightblue" points="1062.15,-20.32 1051.58,-19.58 1059.38,-26.75 1062.15,-20.32"/>
</g>
<!-- Node11 -->
<g id="node11" class="node">
<title>Node11</title>
<g id="a_node11"><a xlink:href="Rectangle_8hpp.html" target="_top" xlink:title=" ">
<polygon fill="white" stroke="black" points="594.88,-112.5 594.88,-131.5 782.88,-131.5 782.88,-112.5 594.88,-112.5"/>
<text text-anchor="middle" x="688.88" y="-119.5" font-family="Helvetica,sans-Serif" font-size="10.00">Common/Drawables/Rectangle.hpp</text>
</a>
</g>
</g>
<!-- Node5&#45;&gt;Node11 -->
<g id="edge11" class="edge">
<title>Node5&#45;&gt;Node11</title>
<path fill="none" stroke="midnightblue" d="M635.77,-173.98C645.34,-164.78 660.79,-149.96 672.57,-138.66"/>
<polygon fill="midnightblue" stroke="midnightblue" points="675.22,-140.96 680.02,-131.51 670.38,-135.91 675.22,-140.96"/>
</g>
<!-- Node12 -->
<g id="node12" class="node">
<title>Node12</title>
<g id="a_node12"><a xlink:href="Circle_8hpp.html" target="_top" xlink:title=" ">
<polygon fill="white" stroke="black" points="801.38,-112.5 801.38,-131.5 968.38,-131.5 968.38,-112.5 801.38,-112.5"/>
<text text-anchor="middle" x="884.88" y="-119.5" font-family="Helvetica,sans-Serif" font-size="10.00">Common/Drawables/Circle.hpp</text>
</a>
</g>
</g>
<!-- Node5&#45;&gt;Node12 -->
<g id="edge13" class="edge">
<title>Node5&#45;&gt;Node12</title>
<path fill="none" stroke="midnightblue" d="M663.85,-173.98C709.73,-163.39 788.03,-145.34 838.07,-133.8"/>
<polygon fill="midnightblue" stroke="midnightblue" points="839.03,-137.17 847.99,-131.51 837.46,-130.35 839.03,-137.17"/>
</g>
<!-- Node13 -->
<g id="node13" class="node">
<title>Node13</title>
<g id="a_node13"><a xlink:href="Sprite_8hpp.html" target="_top" xlink:title=" ">
<polygon fill="white" stroke="black" points="408.88,-112.5 408.88,-131.5 576.88,-131.5 576.88,-112.5 408.88,-112.5"/>
<text text-anchor="middle" x="492.88" y="-119.5" font-family="Helvetica,sans-Serif" font-size="10.00">Common/Drawables/Sprite.hpp</text>
</a>
</g>
</g>
<!-- Node5&#45;&gt;Node13 -->
<g id="edge15" class="edge">
<title>Node5&#45;&gt;Node13</title>
<path fill="none" stroke="midnightblue" d="M607.68,-173.98C585.1,-163.95 547.38,-147.2 521.38,-135.65"/>
<polygon fill="midnightblue" stroke="midnightblue" points="522.61,-132.37 512.05,-131.51 519.77,-138.77 522.61,-132.37"/>
</g>
<!-- Node14 -->
<g id="node14" class="node">
<title>Node14</title>
<g id="a_node14"><a xlink:href="Text_8hpp.html" target="_top" xlink:title=" ">
<polygon fill="white" stroke="black" points="230.88,-112.5 230.88,-131.5 390.88,-131.5 390.88,-112.5 230.88,-112.5"/>
<text text-anchor="middle" x="310.88" y="-119.5" font-family="Helvetica,sans-Serif" font-size="10.00">Common/Drawables/Text.hpp</text>
</a>
</g>
</g>
<!-- Node5&#45;&gt;Node14 -->
<g id="edge18" class="edge">
<title>Node5&#45;&gt;Node14</title>
<path fill="none" stroke="midnightblue" d="M581.61,-173.98C524.7,-163.26 427.1,-144.88 365.94,-133.37"/>
<polygon fill="midnightblue" stroke="midnightblue" points="366.55,-129.92 356.07,-131.51 365.25,-136.8 366.55,-129.92"/>
</g>
<!-- Node5&#45;&gt;Node15 -->
<g id="edge21" class="edge">
<title>Node5&#45;&gt;Node15</title>
<path fill="none" stroke="midnightblue" d="M674.88,-173.93C688.43,-171.74 703.2,-169.57 716.88,-168 946.83,-141.68 1008.29,-152.34 1242.06,-132.13"/>
<polygon fill="midnightblue" stroke="midnightblue" points="1242.58,-135.59 1252.24,-131.24 1241.97,-128.62 1242.58,-135.59"/>
</g>
<!-- Node16 -->
<g id="node16" class="node">
<title>Node16</title>
<g id="a_node16"><a xlink:href="Sound_8hpp.html" target="_top" xlink:title=" ">
<polygon fill="white" stroke="black" points="161.38,-56.5 161.38,-75.5 276.38,-75.5 276.38,-56.5 161.38,-56.5"/>
<text text-anchor="middle" x="218.88" y="-63.5" font-family="Helvetica,sans-Serif" font-size="10.00">Common/Sound.hpp</text>
</a>
</g>
</g>
<!-- Node5&#45;&gt;Node16 -->
<g id="edge22" class="edge">
<title>Node5&#45;&gt;Node16</title>
<path fill="none" stroke="midnightblue" d="M576.49,-173.96C563.59,-171.89 549.74,-169.77 536.88,-168 467.09,-158.39 269.99,-183.48 221.88,-132 210.57,-119.9 211.23,-100.34 213.86,-85.83"/>
<polygon fill="midnightblue" stroke="midnightblue" points="217.31,-86.45 216.09,-75.93 210.48,-84.92 217.31,-86.45"/>
</g>
<!-- Node17 -->
<g id="node17" class="node">
<title>Node17</title>
<g id="a_node17"><a xlink:title=" ">
<polygon fill="white" stroke="#bfbfbf" points="1202.88,-112.5 1202.88,-131.5 1234.88,-131.5 1234.88,-112.5 1202.88,-112.5"/>
<text text-anchor="middle" x="1218.88" y="-119.5" font-family="Helvetica,sans-Serif" font-size="10.00">list</text>
</a>
</g>
</g>
<!-- Node5&#45;&gt;Node17 -->
<g id="edge24" class="edge">
<title>Node5&#45;&gt;Node17</title>
<path fill="none" stroke="midnightblue" d="M675.36,-173.93C688.77,-171.76 703.37,-169.6 716.88,-168 925.81,-143.25 982.04,-170.45 1188.88,-132 1190.18,-131.76 1191.49,-131.48 1192.82,-131.18"/>
<polygon fill="midnightblue" stroke="midnightblue" points="1194.09,-134.47 1202.85,-128.5 1192.28,-127.7 1194.09,-134.47"/>
</g>
<!-- Node6&#45;&gt;Node7 -->
<g id="edge6" class="edge">
<title>Node6&#45;&gt;Node7</title>
<path fill="none" stroke="midnightblue" d="M108.43,-112.08C103.87,-104.61 97.21,-93.72 91.59,-84.52"/>
<polygon fill="midnightblue" stroke="midnightblue" points="94.43,-82.46 86.23,-75.75 88.46,-86.11 94.43,-82.46"/>
</g>
<!-- Node7&#45;&gt;Node4 -->
<g id="edge7" class="edge">
<title>Node7&#45;&gt;Node4</title>
<path fill="none" stroke="midnightblue" d="M102.75,-56.44C125.66,-47.48 161.86,-33.31 187.75,-23.18"/>
<polygon fill="midnightblue" stroke="midnightblue" points="189.08,-26.42 197.12,-19.52 186.53,-19.9 189.08,-26.42"/>
</g>
<!-- Node9 -->
<g id="node9" class="node">
<title>Node9</title>
<g id="a_node9"><a xlink:href="ADrawable_8hpp.html" target="_top" xlink:title=" ">
<polygon fill="white" stroke="black" points="690.38,-56.5 690.38,-75.5 883.38,-75.5 883.38,-56.5 690.38,-56.5"/>
<text text-anchor="middle" x="786.88" y="-63.5" font-family="Helvetica,sans-Serif" font-size="10.00">Common/Drawables/ADrawable.hpp</text>
</a>
</g>
</g>
<!-- Node8&#45;&gt;Node9 -->
<g id="edge9" class="edge">
<title>Node8&#45;&gt;Node9</title>
<path fill="none" stroke="midnightblue" d="M1022.52,-112.44C973.26,-102.94 893.75,-87.61 840.91,-77.42"/>
<polygon fill="midnightblue" stroke="midnightblue" points="841.52,-73.97 831.04,-75.52 840.2,-80.85 841.52,-73.97"/>
</g>
<!-- Node9&#45;&gt;Node10 -->
<g id="edge10" class="edge">
<title>Node9&#45;&gt;Node10</title>
<path fill="none" stroke="midnightblue" d="M825.39,-56.44C870.67,-46.38 945.43,-29.77 990.92,-19.66"/>
<polygon fill="midnightblue" stroke="midnightblue" points="991.71,-23.07 1000.71,-17.48 990.19,-16.24 991.71,-23.07"/>
</g>
<!-- Node11&#45;&gt;Node9 -->
<g id="edge12" class="edge">
<title>Node11&#45;&gt;Node9</title>
<path fill="none" stroke="midnightblue" d="M704.63,-112.32C720.2,-103.74 744.26,-90.49 762.34,-80.52"/>
<polygon fill="midnightblue" stroke="midnightblue" points="764.11,-83.55 771.18,-75.65 760.73,-77.42 764.11,-83.55"/>
</g>
<!-- Node12&#45;&gt;Node9 -->
<g id="edge14" class="edge">
<title>Node12&#45;&gt;Node9</title>
<path fill="none" stroke="midnightblue" d="M869.14,-112.32C853.56,-103.74 829.51,-90.49 811.42,-80.52"/>
<polygon fill="midnightblue" stroke="midnightblue" points="813.04,-77.42 802.59,-75.65 809.66,-83.55 813.04,-77.42"/>
</g>
<!-- Node13&#45;&gt;Node4 -->
<g id="edge17" class="edge">
<title>Node13&#45;&gt;Node4</title>
<path fill="none" stroke="midnightblue" d="M471.38,-112.37C423.06,-92.97 305.74,-45.87 249.69,-23.37"/>
<polygon fill="midnightblue" stroke="midnightblue" points="250.87,-20.07 240.28,-19.59 248.26,-26.57 250.87,-20.07"/>
</g>
<!-- Node13&#45;&gt;Node9 -->
<g id="edge16" class="edge">
<title>Node13&#45;&gt;Node9</title>
<path fill="none" stroke="midnightblue" d="M539.47,-112.44C591.29,-102.92 675.01,-87.55 730.5,-77.36"/>
<polygon fill="midnightblue" stroke="midnightblue" points="731.31,-80.77 740.52,-75.52 730.05,-73.88 731.31,-80.77"/>
</g>
<!-- Node14&#45;&gt;Node4 -->
<g id="edge20" class="edge">
<title>Node14&#45;&gt;Node4</title>
<path fill="none" stroke="midnightblue" d="M309.09,-112.17C306.03,-98.83 298.73,-73.25 284.88,-56 274.37,-42.91 259.04,-32.13 245.8,-24.41"/>
<polygon fill="midnightblue" stroke="midnightblue" points="247.5,-21.35 237.06,-19.57 244.11,-27.48 247.5,-21.35"/>
</g>
<!-- Node14&#45;&gt;Node9 -->
<g id="edge19" class="edge">
<title>Node14&#45;&gt;Node9</title>
<path fill="none" stroke="midnightblue" d="M386.04,-112.47C471.81,-102.74 611.78,-86.86 701.57,-76.68"/>
<polygon fill="midnightblue" stroke="midnightblue" points="702.18,-80.13 711.72,-75.53 701.39,-73.18 702.18,-80.13"/>
</g>
<!-- Node16&#45;&gt;Node4 -->
<g id="edge23" class="edge">
<title>Node16&#45;&gt;Node4</title>
<path fill="none" stroke="midnightblue" d="M218.88,-56.08C218.88,-49.01 218.88,-38.86 218.88,-29.99"/>
<polygon fill="midnightblue" stroke="midnightblue" points="222.38,-29.75 218.88,-19.75 215.38,-29.75 222.38,-29.75"/>
</g>
<!-- Node18&#45;&gt;Node15 -->
<g id="edge27" class="edge">
<title>Node18&#45;&gt;Node15</title>
<path fill="none" stroke="midnightblue" d="M1178.86,-168.4C1212.53,-158.07 1257.66,-144.23 1289.2,-134.56"/>
<polygon fill="midnightblue" stroke="midnightblue" points="1290.4,-137.85 1298.94,-131.57 1288.35,-131.16 1290.4,-137.85"/>
</g>
<!-- Node19&#45;&gt;Node15 -->
<g id="edge29" class="edge">
<title>Node19&#45;&gt;Node15</title>
<path fill="none" stroke="midnightblue" d="M1326.88,-173.98C1326.88,-165.58 1326.88,-152.48 1326.88,-141.66"/>
<polygon fill="midnightblue" stroke="midnightblue" points="1330.38,-141.51 1326.88,-131.51 1323.38,-141.51 1330.38,-141.51"/>
</g>
<!-- Node20&#45;&gt;Node15 -->
<g id="edge31" class="edge">
<title>Node20&#45;&gt;Node15</title>
<path fill="none" stroke="midnightblue" d="M956.78,-173.98C1035.61,-163.12 1171.59,-144.39 1254.95,-132.91"/>
<polygon fill="midnightblue" stroke="midnightblue" points="1255.67,-136.34 1265.1,-131.51 1254.72,-129.41 1255.67,-136.34"/>
</g>
</g>
</svg>
