<?xml version="1.0" encoding="UTF-8" standalone="no"?>
<!DOCTYPE svg PUBLIC "-//W3C//DTD SVG 1.1//EN"
 "http://www.w3.org/Graphics/SVG/1.1/DTD/svg11.dtd">
<!-- Generated by graphviz version 2.43.0 (0)
 -->
<!-- Title: sources/DisplayModules/SDL/SDLDisplay.hpp Pages: 1 -->
<svg width="1653pt" height="274pt"
 viewBox="0.00 0.00 1652.50 274.00" xmlns="http://www.w3.org/2000/svg" xmlns:xlink="http://www.w3.org/1999/xlink">
<g id="graph0" class="graph" transform="scale(1 1) rotate(0) translate(4 270)">
<title>sources/DisplayModules/SDL/SDLDisplay.hpp</title>
<polygon fill="white" stroke="transparent" points="-4,4 -4,-270 1648.5,-270 1648.5,4 -4,4"/>
<!-- Node1 -->
<g id="node1" class="node">
<title>Node1</title>
<g id="a_node1"><a xlink:title=" ">
<polygon fill="#bfbfbf" stroke="black" points="1057.5,-235.5 1057.5,-265.5 1192.5,-265.5 1192.5,-235.5 1057.5,-235.5"/>
<text text-anchor="start" x="1065.5" y="-253.5" font-family="Helvetica,sans-Serif" font-size="10.00">sources/DisplayModules</text>
<text text-anchor="middle" x="1125" y="-242.5" font-family="Helvetica,sans-Serif" font-size="10.00">/SDL/SDLDisplay.hpp</text>
</a>
</g>
</g>
<!-- Node2 -->
<g id="node2" class="node">
<title>Node2</title>
<g id="a_node2"><a xlink:title=" ">
<polygon fill="white" stroke="#bfbfbf" points="0,-174 0,-193 72,-193 72,-174 0,-174"/>
<text text-anchor="middle" x="36" y="-181" font-family="Helvetica,sans-Serif" font-size="10.00">SDL2/SDL.h</text>
</a>
</g>
</g>
<!-- Node1&#45;&gt;Node2 -->
<g id="edge1" class="edge">
<title>Node1&#45;&gt;Node2</title>
<path fill="none" stroke="midnightblue" d="M1057.39,-248.28C857.9,-244.34 273.93,-230.37 86,-199 81.13,-198.19 76.06,-197.06 71.1,-195.79"/>
<polygon fill="midnightblue" stroke="midnightblue" points="71.74,-192.34 61.17,-193.04 69.87,-199.08 71.74,-192.34"/>
</g>
<!-- Node3 -->
<g id="node3" class="node">
<title>Node3</title>
<g id="a_node3"><a xlink:title=" ">
<polygon fill="white" stroke="#bfbfbf" points="302,-0.5 302,-19.5 346,-19.5 346,-0.5 302,-0.5"/>
<text text-anchor="middle" x="324" y="-7.5" font-family="Helvetica,sans-Serif" font-size="10.00">string</text>
</a>
</g>
</g>
<!-- Node1&#45;&gt;Node3 -->
<g id="edge2" class="edge">
<title>Node1&#45;&gt;Node3</title>
<path fill="none" stroke="midnightblue" d="M1057.38,-249.4C861.08,-247.89 295.71,-234.53 148,-132 118.3,-111.38 96.34,-84.17 119,-56 140.31,-29.5 239.51,-17.72 291.7,-13.28"/>
<polygon fill="midnightblue" stroke="midnightblue" points="292.09,-16.76 301.78,-12.47 291.53,-9.79 292.09,-16.76"/>
</g>
<!-- Node4 -->
<g id="node4" class="node">
<title>Node4</title>
<g id="a_node4"><a xlink:href="IDisplayModule_8hpp.html" target="_top" xlink:title=" ">
<polygon fill="white" stroke="black" points="709.5,-174 709.5,-193 870.5,-193 870.5,-174 709.5,-174"/>
<text text-anchor="middle" x="790" y="-181" font-family="Helvetica,sans-Serif" font-size="10.00">Common/IDisplayModule.hpp</text>
</a>
</g>
</g>
<!-- Node1&#45;&gt;Node4 -->
<g id="edge3" class="edge">
<title>Node1&#45;&gt;Node4</title>
<path fill="none" stroke="midnightblue" d="M1057.21,-236.35C994.44,-224.17 902.31,-206.29 844.28,-195.03"/>
<polygon fill="midnightblue" stroke="midnightblue" points="844.69,-191.55 834.2,-193.08 843.35,-198.42 844.69,-191.55"/>
</g>
<!-- Node14 -->
<g id="node14" class="node">
<title>Node14</title>
<g id="a_node14"><a xlink:href="Event_8hpp.html" target="_top" xlink:title=" ">
<polygon fill="white" stroke="black" points="1327.5,-112.5 1327.5,-131.5 1476.5,-131.5 1476.5,-112.5 1327.5,-112.5"/>
<text text-anchor="middle" x="1402" y="-119.5" font-family="Helvetica,sans-Serif" font-size="10.00">Common/Events/Event.hpp</text>
</a>
</g>
</g>
<!-- Node1&#45;&gt;Node14 -->
<g id="edge31" class="edge">
<title>Node1&#45;&gt;Node14</title>
<path fill="none" stroke="midnightblue" d="M1123.95,-235.43C1123.43,-217.14 1125.52,-185.46 1144,-168 1156.81,-155.89 1248.83,-141.93 1319.36,-132.81"/>
<polygon fill="midnightblue" stroke="midnightblue" points="1320.12,-136.24 1329.59,-131.5 1319.23,-129.3 1320.12,-136.24"/>
</g>
<!-- Node17 -->
<g id="node17" class="node">
<title>Node17</title>
<g id="a_node17"><a xlink:href="MouseClickEvent_8hpp.html" target="_top" xlink:title=" ">
<polygon fill="white" stroke="black" points="1153,-168.5 1153,-198.5 1309,-198.5 1309,-168.5 1153,-168.5"/>
<text text-anchor="start" x="1161" y="-186.5" font-family="Helvetica,sans-Serif" font-size="10.00">Common/Events/MouseClick</text>
<text text-anchor="middle" x="1231" y="-175.5" font-family="Helvetica,sans-Serif" font-size="10.00">Event.hpp</text>
</a>
</g>
</g>
<!-- Node1&#45;&gt;Node17 -->
<g id="edge25" class="edge">
<title>Node1&#45;&gt;Node17</title>
<path fill="none" stroke="midnightblue" d="M1148,-235.4C1163,-226.2 1182.79,-214.07 1199.27,-203.95"/>
<polygon fill="midnightblue" stroke="midnightblue" points="1201.35,-206.79 1208.04,-198.58 1197.69,-200.82 1201.35,-206.79"/>
</g>
<!-- Node18 -->
<g id="node18" class="node">
<title>Node18</title>
<g id="a_node18"><a xlink:href="KeyBoardEvent_8hpp.html" target="_top" xlink:title=" ">
<polygon fill="white" stroke="black" points="1327.5,-174 1327.5,-193 1522.5,-193 1522.5,-174 1327.5,-174"/>
<text text-anchor="middle" x="1425" y="-181" font-family="Helvetica,sans-Serif" font-size="10.00">Common/Events/KeyBoardEvent.hpp</text>
</a>
</g>
</g>
<!-- Node1&#45;&gt;Node18 -->
<g id="edge27" class="edge">
<title>Node1&#45;&gt;Node18</title>
<path fill="none" stroke="midnightblue" d="M1189.73,-235.48C1245.48,-223.4 1324.78,-206.21 1375.56,-195.21"/>
<polygon fill="midnightblue" stroke="midnightblue" points="1376.6,-198.57 1385.64,-193.03 1375.12,-191.73 1376.6,-198.57"/>
</g>
<!-- Node19 -->
<g id="node19" class="node">
<title>Node19</title>
<g id="a_node19"><a xlink:href="MouseMoveEvent_8hpp.html" target="_top" xlink:title=" ">
<polygon fill="white" stroke="black" points="889,-174 889,-193 1097,-193 1097,-174 889,-174"/>
<text text-anchor="middle" x="993" y="-181" font-family="Helvetica,sans-Serif" font-size="10.00">Common/Events/MouseMoveEvent.hpp</text>
</a>
</g>
</g>
<!-- Node1&#45;&gt;Node19 -->
<g id="edge29" class="edge">
<title>Node1&#45;&gt;Node19</title>
<path fill="none" stroke="midnightblue" d="M1096.36,-235.4C1073.5,-224.14 1041.74,-208.5 1019.48,-197.54"/>
<polygon fill="midnightblue" stroke="midnightblue" points="1020.79,-194.28 1010.28,-193.01 1017.7,-200.56 1020.79,-194.28"/>
</g>
<!-- Node20 -->
<g id="node20" class="node">
<title>Node20</title>
<g id="a_node20"><a xlink:title=" ">
<polygon fill="white" stroke="#bfbfbf" points="1541,-174 1541,-193 1579,-193 1579,-174 1541,-174"/>
<text text-anchor="middle" x="1560" y="-181" font-family="Helvetica,sans-Serif" font-size="10.00">map</text>
</a>
</g>
</g>
<!-- Node1&#45;&gt;Node20 -->
<g id="edge32" class="edge">
<title>Node1&#45;&gt;Node20</title>
<path fill="none" stroke="midnightblue" d="M1192.79,-248.37C1274.84,-245.35 1416.39,-234.84 1532,-199 1533.47,-198.54 1534.96,-198.01 1536.44,-197.43"/>
<polygon fill="midnightblue" stroke="midnightblue" points="1538.29,-200.43 1545.88,-193.04 1535.34,-194.08 1538.29,-200.43"/>
</g>
<!-- Node21 -->
<g id="node21" class="node">
<title>Node21</title>
<g id="a_node21"><a xlink:title=" ">
<polygon fill="white" stroke="#bfbfbf" points="1597.5,-174 1597.5,-193 1644.5,-193 1644.5,-174 1597.5,-174"/>
<text text-anchor="middle" x="1621" y="-181" font-family="Helvetica,sans-Serif" font-size="10.00">vector</text>
</a>
</g>
</g>
<!-- Node1&#45;&gt;Node21 -->
<g id="edge33" class="edge">
<title>Node1&#45;&gt;Node21</title>
<path fill="none" stroke="midnightblue" d="M1192.89,-248.54C1284.19,-245.79 1450.91,-235.66 1588,-199 1590.3,-198.39 1592.64,-197.64 1594.96,-196.8"/>
<polygon fill="midnightblue" stroke="midnightblue" points="1596.28,-200.04 1604.23,-193.05 1593.65,-193.56 1596.28,-200.04"/>
</g>
<!-- Node5 -->
<g id="node5" class="node">
<title>Node5</title>
<g id="a_node5"><a xlink:href="Module_8hpp.html" target="_top" xlink:title=" ">
<polygon fill="white" stroke="black" points="166.5,-112.5 166.5,-131.5 287.5,-131.5 287.5,-112.5 166.5,-112.5"/>
<text text-anchor="middle" x="227" y="-119.5" font-family="Helvetica,sans-Serif" font-size="10.00">Common/Module.hpp</text>
</a>
</g>
</g>
<!-- Node4&#45;&gt;Node5 -->
<g id="edge4" class="edge">
<title>Node4&#45;&gt;Node5</title>
<path fill="none" stroke="midnightblue" d="M709.23,-174.87C613.63,-165.7 449.33,-149.47 297.67,-132.05"/>
<polygon fill="midnightblue" stroke="midnightblue" points="298.03,-128.57 287.69,-130.9 297.23,-135.52 298.03,-128.57"/>
</g>
<!-- Node7 -->
<g id="node7" class="node">
<title>Node7</title>
<g id="a_node7"><a xlink:href="Line_8hpp.html" target="_top" xlink:title=" ">
<polygon fill="white" stroke="black" points="1112,-112.5 1112,-131.5 1272,-131.5 1272,-112.5 1112,-112.5"/>
<text text-anchor="middle" x="1192" y="-119.5" font-family="Helvetica,sans-Serif" font-size="10.00">Common/Drawables/Line.hpp</text>
</a>
</g>
</g>
<!-- Node4&#45;&gt;Node7 -->
<g id="edge7" class="edge">
<title>Node4&#45;&gt;Node7</title>
<path fill="none" stroke="midnightblue" d="M841.85,-174C854.34,-171.99 867.64,-169.89 880,-168 962.38,-155.42 1057.15,-141.89 1120.42,-132.98"/>
<polygon fill="midnightblue" stroke="midnightblue" points="1121.27,-136.4 1130.68,-131.54 1120.29,-129.47 1121.27,-136.4"/>
</g>
<!-- Node9 -->
<g id="node9" class="node">
<title>Node9</title>
<g id="a_node9"><a xlink:title=" ">
<polygon fill="white" stroke="#bfbfbf" points="1126,-0.5 1126,-19.5 1184,-19.5 1184,-0.5 1126,-0.5"/>
<text text-anchor="middle" x="1155" y="-7.5" font-family="Helvetica,sans-Serif" font-size="10.00">memory</text>
</a>
</g>
</g>
<!-- Node4&#45;&gt;Node9 -->
<g id="edge24" class="edge">
<title>Node4&#45;&gt;Node9</title>
<path fill="none" stroke="midnightblue" d="M838.96,-173.97C852.25,-171.83 866.65,-169.67 880,-168 924.39,-162.44 1250.82,-165.02 1281,-132 1319.19,-90.22 1234.72,-45.05 1186.15,-23.63"/>
<polygon fill="midnightblue" stroke="midnightblue" points="1187.24,-20.29 1176.67,-19.55 1184.47,-26.72 1187.24,-20.29"/>
</g>
<!-- Node10 -->
<g id="node10" class="node">
<title>Node10</title>
<g id="a_node10"><a xlink:href="Rectangle_8hpp.html" target="_top" xlink:title=" ">
<polygon fill="white" stroke="black" points="720,-112.5 720,-131.5 908,-131.5 908,-112.5 720,-112.5"/>
<text text-anchor="middle" x="814" y="-119.5" font-family="Helvetica,sans-Serif" font-size="10.00">Common/Drawables/Rectangle.hpp</text>
</a>
</g>
</g>
<!-- Node4&#45;&gt;Node10 -->
<g id="edge10" class="edge">
<title>Node4&#45;&gt;Node10</title>
<path fill="none" stroke="midnightblue" d="M793.44,-173.98C796.9,-165.4 802.33,-151.93 806.75,-140.98"/>
<polygon fill="midnightblue" stroke="midnightblue" points="810.07,-142.09 810.57,-131.51 803.58,-139.47 810.07,-142.09"/>
</g>
<!-- Node11 -->
<g id="node11" class="node">
<title>Node11</title>
<g id="a_node11"><a xlink:href="Circle_8hpp.html" target="_top" xlink:title=" ">
<polygon fill="white" stroke="black" points="926.5,-112.5 926.5,-131.5 1093.5,-131.5 1093.5,-112.5 926.5,-112.5"/>
<text text-anchor="middle" x="1010" y="-119.5" font-family="Helvetica,sans-Serif" font-size="10.00">Common/Drawables/Circle.hpp</text>
</a>
</g>
</g>
<!-- Node4&#45;&gt;Node11 -->
<g id="edge12" class="edge">
<title>Node4&#45;&gt;Node11</title>
<path fill="none" stroke="midnightblue" d="M821.52,-173.98C860.24,-163.5 926.02,-145.71 968.74,-134.16"/>
<polygon fill="midnightblue" stroke="midnightblue" points="969.8,-137.5 978.54,-131.51 967.97,-130.74 969.8,-137.5"/>
</g>
<!-- Node12 -->
<g id="node12" class="node">
<title>Node12</title>
<g id="a_node12"><a xlink:href="Sprite_8hpp.html" target="_top" xlink:title=" ">
<polygon fill="white" stroke="black" points="534,-112.5 534,-131.5 702,-131.5 702,-112.5 534,-112.5"/>
<text text-anchor="middle" x="618" y="-119.5" font-family="Helvetica,sans-Serif" font-size="10.00">Common/Drawables/Sprite.hpp</text>
</a>
</g>
</g>
<!-- Node4&#45;&gt;Node12 -->
<g id="edge14" class="edge">
<title>Node4&#45;&gt;Node12</title>
<path fill="none" stroke="midnightblue" d="M765.36,-173.98C735.72,-163.72 685.82,-146.46 652.4,-134.9"/>
<polygon fill="midnightblue" stroke="midnightblue" points="653.19,-131.47 642.6,-131.51 650.9,-138.09 653.19,-131.47"/>
</g>
<!-- Node13 -->
<g id="node13" class="node">
<title>Node13</title>
<g id="a_node13"><a xlink:href="Text_8hpp.html" target="_top" xlink:title=" ">
<polygon fill="white" stroke="black" points="356,-112.5 356,-131.5 516,-131.5 516,-112.5 356,-112.5"/>
<text text-anchor="middle" x="436" y="-119.5" font-family="Helvetica,sans-Serif" font-size="10.00">Common/Drawables/Text.hpp</text>
</a>
</g>
</g>
<!-- Node4&#45;&gt;Node13 -->
<g id="edge17" class="edge">
<title>Node4&#45;&gt;Node13</title>
<path fill="none" stroke="midnightblue" d="M739.28,-173.98C675.27,-163.22 565.29,-144.73 496.83,-133.22"/>
<polygon fill="midnightblue" stroke="midnightblue" points="497.07,-129.72 486.63,-131.51 495.91,-136.62 497.07,-129.72"/>
</g>
<!-- Node4&#45;&gt;Node14 -->
<g id="edge20" class="edge">
<title>Node4&#45;&gt;Node14</title>
<path fill="none" stroke="midnightblue" d="M838.48,-173.99C851.9,-171.82 866.49,-169.65 880,-168 1072.13,-144.59 1121.27,-149.85 1314,-132 1314.94,-131.91 1315.88,-131.83 1316.83,-131.74"/>
<polygon fill="midnightblue" stroke="midnightblue" points="1317.49,-135.19 1327.12,-130.76 1316.83,-128.22 1317.49,-135.19"/>
</g>
<!-- Node15 -->
<g id="node15" class="node">
<title>Node15</title>
<g id="a_node15"><a xlink:href="Sound_8hpp.html" target="_top" xlink:title=" ">
<polygon fill="white" stroke="black" points="128.5,-56.5 128.5,-75.5 243.5,-75.5 243.5,-56.5 128.5,-56.5"/>
<text text-anchor="middle" x="186" y="-63.5" font-family="Helvetica,sans-Serif" font-size="10.00">Common/Sound.hpp</text>
</a>
</g>
</g>
<!-- Node4&#45;&gt;Node15 -->
<g id="edge21" class="edge">
<title>Node4&#45;&gt;Node15</title>
<path fill="none" stroke="midnightblue" d="M709.27,-182.03C547.03,-180.25 193.74,-171.79 157,-132 144.11,-118.04 157.17,-97.39 169.66,-83.13"/>
<polygon fill="midnightblue" stroke="midnightblue" points="172.46,-85.26 176.75,-75.57 167.36,-80.47 172.46,-85.26"/>
</g>
<!-- Node16 -->
<g id="node16" class="node">
<title>Node16</title>
<g id="a_node16"><a xlink:title=" ">
<polygon fill="white" stroke="#bfbfbf" points="306,-112.5 306,-131.5 338,-131.5 338,-112.5 306,-112.5"/>
<text text-anchor="middle" x="322" y="-119.5" font-family="Helvetica,sans-Serif" font-size="10.00">list</text>
</a>
</g>
</g>
<!-- Node4&#45;&gt;Node16 -->
<g id="edge23" class="edge">
<title>Node4&#45;&gt;Node16</title>
<path fill="none" stroke="midnightblue" d="M709.42,-178.93C622.09,-173.8 478.77,-161.71 348.03,-131.74"/>
<polygon fill="midnightblue" stroke="midnightblue" points="348.78,-128.32 338.24,-129.46 347.19,-135.14 348.78,-128.32"/>
</g>
<!-- Node6 -->
<g id="node6" class="node">
<title>Node6</title>
<g id="a_node6"><a xlink:href="ModInfo_8hpp.html" target="_top" xlink:title=" ">
<polygon fill="white" stroke="black" points="261.5,-56.5 261.5,-75.5 386.5,-75.5 386.5,-56.5 261.5,-56.5"/>
<text text-anchor="middle" x="324" y="-63.5" font-family="Helvetica,sans-Serif" font-size="10.00">Common/ModInfo.hpp</text>
</a>
</g>
</g>
<!-- Node5&#45;&gt;Node6 -->
<g id="edge5" class="edge">
<title>Node5&#45;&gt;Node6</title>
<path fill="none" stroke="midnightblue" d="M242.58,-112.32C258,-103.74 281.81,-90.49 299.71,-80.52"/>
<polygon fill="midnightblue" stroke="midnightblue" points="301.42,-83.58 308.45,-75.65 298.01,-77.46 301.42,-83.58"/>
</g>
<!-- Node6&#45;&gt;Node3 -->
<g id="edge6" class="edge">
<title>Node6&#45;&gt;Node3</title>
<path fill="none" stroke="midnightblue" d="M324,-56.08C324,-49.01 324,-38.86 324,-29.99"/>
<polygon fill="midnightblue" stroke="midnightblue" points="327.5,-29.75 324,-19.75 320.5,-29.75 327.5,-29.75"/>
</g>
<!-- Node8 -->
<g id="node8" class="node">
<title>Node8</title>
<g id="a_node8"><a xlink:href="ADrawable_8hpp.html" target="_top" xlink:title=" ">
<polygon fill="white" stroke="black" points="815.5,-56.5 815.5,-75.5 1008.5,-75.5 1008.5,-56.5 815.5,-56.5"/>
<text text-anchor="middle" x="912" y="-63.5" font-family="Helvetica,sans-Serif" font-size="10.00">Common/Drawables/ADrawable.hpp</text>
</a>
</g>
</g>
<!-- Node7&#45;&gt;Node8 -->
<g id="edge8" class="edge">
<title>Node7&#45;&gt;Node8</title>
<path fill="none" stroke="midnightblue" d="M1147.63,-112.44C1098.38,-102.94 1018.87,-87.61 966.03,-77.42"/>
<polygon fill="midnightblue" stroke="midnightblue" points="966.64,-73.97 956.16,-75.52 965.32,-80.85 966.64,-73.97"/>
</g>
<!-- Node8&#45;&gt;Node9 -->
<g id="edge9" class="edge">
<title>Node8&#45;&gt;Node9</title>
<path fill="none" stroke="midnightblue" d="M950.5,-56.44C995.79,-46.38 1070.55,-29.77 1116.04,-19.66"/>
<polygon fill="midnightblue" stroke="midnightblue" points="1116.83,-23.07 1125.83,-17.48 1115.31,-16.24 1116.83,-23.07"/>
</g>
<!-- Node10&#45;&gt;Node8 -->
<g id="edge11" class="edge">
<title>Node10&#45;&gt;Node8</title>
<path fill="none" stroke="midnightblue" d="M829.75,-112.32C845.32,-103.74 869.38,-90.49 887.46,-80.52"/>
<polygon fill="midnightblue" stroke="midnightblue" points="889.22,-83.55 896.29,-75.65 885.85,-77.42 889.22,-83.55"/>
</g>
<!-- Node11&#45;&gt;Node8 -->
<g id="edge13" class="edge">
<title>Node11&#45;&gt;Node8</title>
<path fill="none" stroke="midnightblue" d="M994.25,-112.32C978.68,-103.74 954.62,-90.49 936.54,-80.52"/>
<polygon fill="midnightblue" stroke="midnightblue" points="938.15,-77.42 927.71,-75.65 934.78,-83.55 938.15,-77.42"/>
</g>
<!-- Node12&#45;&gt;Node3 -->
<g id="edge16" class="edge">
<title>Node12&#45;&gt;Node3</title>
<path fill="none" stroke="midnightblue" d="M594.93,-112.37C542.72,-92.83 415.43,-45.21 355.8,-22.9"/>
<polygon fill="midnightblue" stroke="midnightblue" points="356.75,-19.52 346.16,-19.29 354.3,-26.07 356.75,-19.52"/>
</g>
<!-- Node12&#45;&gt;Node8 -->
<g id="edge15" class="edge">
<title>Node12&#45;&gt;Node8</title>
<path fill="none" stroke="midnightblue" d="M664.59,-112.44C716.41,-102.92 800.13,-87.55 855.62,-77.36"/>
<polygon fill="midnightblue" stroke="midnightblue" points="856.43,-80.77 865.63,-75.52 855.16,-73.88 856.43,-80.77"/>
</g>
<!-- Node13&#45;&gt;Node3 -->
<g id="edge19" class="edge">
<title>Node13&#45;&gt;Node3</title>
<path fill="none" stroke="midnightblue" d="M432.17,-112.14C426.04,-98.75 412.99,-73.11 396,-56 383.13,-43.04 365.86,-32.09 351.46,-24.24"/>
<polygon fill="midnightblue" stroke="midnightblue" points="352.97,-21.07 342.49,-19.53 349.72,-27.27 352.97,-21.07"/>
</g>
<!-- Node13&#45;&gt;Node8 -->
<g id="edge18" class="edge">
<title>Node13&#45;&gt;Node8</title>
<path fill="none" stroke="midnightblue" d="M511.16,-112.47C596.93,-102.74 736.9,-86.86 826.69,-76.68"/>
<polygon fill="midnightblue" stroke="midnightblue" points="827.3,-80.13 836.84,-75.53 826.51,-73.18 827.3,-80.13"/>
</g>
<!-- Node15&#45;&gt;Node3 -->
<g id="edge22" class="edge">
<title>Node15&#45;&gt;Node3</title>
<path fill="none" stroke="midnightblue" d="M207.87,-56.44C230.78,-47.48 266.98,-33.31 292.87,-23.18"/>
<polygon fill="midnightblue" stroke="midnightblue" points="294.2,-26.42 302.24,-19.52 291.65,-19.9 294.2,-26.42"/>
</g>
<!-- Node17&#45;&gt;Node14 -->
<g id="edge26" class="edge">
<title>Node17&#45;&gt;Node14</title>
<path fill="none" stroke="midnightblue" d="M1271.52,-168.4C1300.73,-158.24 1339.72,-144.67 1367.45,-135.02"/>
<polygon fill="midnightblue" stroke="midnightblue" points="1368.82,-138.25 1377.12,-131.66 1366.52,-131.64 1368.82,-138.25"/>
</g>
<!-- Node18&#45;&gt;Node14 -->
<g id="edge28" class="edge">
<title>Node18&#45;&gt;Node14</title>
<path fill="none" stroke="midnightblue" d="M1421.7,-173.98C1418.39,-165.4 1413.18,-151.93 1408.95,-140.98"/>
<polygon fill="midnightblue" stroke="midnightblue" points="1412.16,-139.57 1405.29,-131.51 1405.63,-142.1 1412.16,-139.57"/>
</g>
<!-- Node19&#45;&gt;Node14 -->
<g id="edge30" class="edge">
<title>Node19&#45;&gt;Node14</title>
<path fill="none" stroke="midnightblue" d="M1051.6,-173.98C1126.01,-163.15 1254.19,-144.5 1333.18,-133.01"/>
<polygon fill="midnightblue" stroke="midnightblue" points="1334.12,-136.41 1343.51,-131.51 1333.11,-129.49 1334.12,-136.41"/>
</g>
</g>
</svg>
