<?xml version="1.0" encoding="UTF-8" standalone="no"?>
<!DOCTYPE svg PUBLIC "-//W3C//DTD SVG 1.1//EN"
 "http://www.w3.org/Graphics/SVG/1.1/DTD/svg11.dtd">
<!-- Generated by graphviz version 2.43.0 (0)
 -->
<!-- Title: sources/DisplayModules/SFML/SFMLDisplay.cpp Pages: 1 -->
<svg width="1846pt" height="341pt"
 viewBox="0.00 0.00 1845.50 341.00" xmlns="http://www.w3.org/2000/svg" xmlns:xlink="http://www.w3.org/1999/xlink">
<g id="graph0" class="graph" transform="scale(1 1) rotate(0) translate(4 337)">
<title>sources/DisplayModules/SFML/SFMLDisplay.cpp</title>
<polygon fill="white" stroke="transparent" points="-4,4 -4,-337 1841.5,-337 1841.5,4 -4,4"/>
<!-- Node1 -->
<g id="node1" class="node">
<title>Node1</title>
<g id="a_node1"><a xlink:title=" ">
<polygon fill="#bfbfbf" stroke="black" points="956.5,-302.5 956.5,-332.5 1091.5,-332.5 1091.5,-302.5 956.5,-302.5"/>
<text text-anchor="start" x="964.5" y="-320.5" font-family="Helvetica,sans-Serif" font-size="10.00">sources/DisplayModules</text>
<text text-anchor="middle" x="1024" y="-309.5" font-family="Helvetica,sans-Serif" font-size="10.00">/SFML/SFMLDisplay.cpp</text>
</a>
</g>
</g>
<!-- Node2 -->
<g id="node2" class="node">
<title>Node2</title>
<g id="a_node2"><a xlink:href="SFMLDisplay_8hpp.html" target="_top" xlink:title=" ">
<polygon fill="white" stroke="black" points="591.5,-241 591.5,-260 690.5,-260 690.5,-241 591.5,-241"/>
<text text-anchor="middle" x="641" y="-248" font-family="Helvetica,sans-Serif" font-size="10.00">SFMLDisplay.hpp</text>
</a>
</g>
</g>
<!-- Node1&#45;&gt;Node2 -->
<g id="edge1" class="edge">
<title>Node1&#45;&gt;Node2</title>
<path fill="none" stroke="midnightblue" d="M956.41,-305.03C883.85,-292.71 769.7,-273.34 700.45,-261.59"/>
<polygon fill="midnightblue" stroke="midnightblue" points="701.01,-258.13 690.57,-259.91 699.84,-265.04 701.01,-258.13"/>
</g>
<!-- Node3 -->
<g id="node3" class="node">
<title>Node3</title>
<g id="a_node3"><a xlink:title=" ">
<polygon fill="white" stroke="#bfbfbf" points="174.5,-174 174.5,-193 279.5,-193 279.5,-174 174.5,-174"/>
<text text-anchor="middle" x="227" y="-181" font-family="Helvetica,sans-Serif" font-size="10.00">SFML/Window.hpp</text>
</a>
</g>
</g>
<!-- Node1&#45;&gt;Node3 -->
<g id="edge36" class="edge">
<title>Node1&#45;&gt;Node3</title>
<path fill="none" stroke="midnightblue" d="M956.27,-311.13C869.25,-303.7 713.7,-288.57 582,-266 467.52,-246.38 334.57,-212.96 268.58,-195.64"/>
<polygon fill="midnightblue" stroke="midnightblue" points="269.14,-192.17 258.58,-193.01 267.36,-198.94 269.14,-192.17"/>
</g>
<!-- Node19 -->
<g id="node19" class="node">
<title>Node19</title>
<g id="a_node19"><a xlink:href="Event_8hpp.html" target="_top" xlink:title=" ">
<polygon fill="white" stroke="black" points="417.5,-112.5 417.5,-131.5 566.5,-131.5 566.5,-112.5 417.5,-112.5"/>
<text text-anchor="middle" x="492" y="-119.5" font-family="Helvetica,sans-Serif" font-size="10.00">Common/Events/Event.hpp</text>
</a>
</g>
</g>
<!-- Node1&#45;&gt;Node19 -->
<g id="edge39" class="edge">
<title>Node1&#45;&gt;Node19</title>
<path fill="none" stroke="midnightblue" d="M1047.01,-302.5C1089.42,-275.06 1171.9,-212.95 1130,-168 1125.33,-162.99 749.29,-139 576.78,-128.24"/>
<polygon fill="midnightblue" stroke="midnightblue" points="576.92,-124.74 566.72,-127.61 576.48,-131.73 576.92,-124.74"/>
</g>
<!-- Node22 -->
<g id="node22" class="node">
<title>Node22</title>
<g id="a_node22"><a xlink:href="MouseClickEvent_8hpp.html" target="_top" xlink:title=" ">
<polygon fill="white" stroke="black" points="0,-168.5 0,-198.5 156,-198.5 156,-168.5 0,-168.5"/>
<text text-anchor="start" x="8" y="-186.5" font-family="Helvetica,sans-Serif" font-size="10.00">Common/Events/MouseClick</text>
<text text-anchor="middle" x="78" y="-175.5" font-family="Helvetica,sans-Serif" font-size="10.00">Event.hpp</text>
</a>
</g>
</g>
<!-- Node1&#45;&gt;Node22 -->
<g id="edge37" class="edge">
<title>Node1&#45;&gt;Node22</title>
<path fill="none" stroke="midnightblue" d="M956.48,-313.87C846.04,-308.87 620.09,-295.73 431,-266 327.07,-249.66 208.24,-219.88 138.36,-201.2"/>
<polygon fill="midnightblue" stroke="midnightblue" points="138.98,-197.74 128.42,-198.52 137.16,-204.5 138.98,-197.74"/>
</g>
<!-- Node24 -->
<g id="node24" class="node">
<title>Node24</title>
<g id="a_node24"><a xlink:href="KeyBoardEvent_8hpp.html" target="_top" xlink:title=" ">
<polygon fill="white" stroke="black" points="926.5,-174 926.5,-193 1121.5,-193 1121.5,-174 926.5,-174"/>
<text text-anchor="middle" x="1024" y="-181" font-family="Helvetica,sans-Serif" font-size="10.00">Common/Events/KeyBoardEvent.hpp</text>
</a>
</g>
</g>
<!-- Node1&#45;&gt;Node24 -->
<g id="edge38" class="edge">
<title>Node1&#45;&gt;Node24</title>
<path fill="none" stroke="midnightblue" d="M1024,-302.37C1024,-278.5 1024,-230.18 1024,-203.41"/>
<polygon fill="midnightblue" stroke="midnightblue" points="1027.5,-203.1 1024,-193.1 1020.5,-203.1 1027.5,-203.1"/>
</g>
<!-- Node25 -->
<g id="node25" class="node">
<title>Node25</title>
<g id="a_node25"><a xlink:href="ResourceCreationFailure_8hpp.html" target="_top" xlink:title=" ">
<polygon fill="white" stroke="black" points="1176.5,-235.5 1176.5,-265.5 1335.5,-265.5 1335.5,-235.5 1176.5,-235.5"/>
<text text-anchor="start" x="1184.5" y="-253.5" font-family="Helvetica,sans-Serif" font-size="10.00">Exceptions/ResourceCreation</text>
<text text-anchor="middle" x="1256" y="-242.5" font-family="Helvetica,sans-Serif" font-size="10.00">Failure.hpp</text>
</a>
</g>
</g>
<!-- Node1&#45;&gt;Node25 -->
<g id="edge40" class="edge">
<title>Node1&#45;&gt;Node25</title>
<path fill="none" stroke="midnightblue" d="M1074.05,-302.48C1109.76,-292.47 1157.95,-278.97 1195.76,-268.38"/>
<polygon fill="midnightblue" stroke="midnightblue" points="1196.95,-271.68 1205.63,-265.61 1195.06,-264.94 1196.95,-271.68"/>
</g>
<!-- Node27 -->
<g id="node27" class="node">
<title>Node27</title>
<g id="a_node27"><a xlink:title=" ">
<polygon fill="white" stroke="#bfbfbf" points="1353,-241 1353,-260 1413,-260 1413,-241 1353,-241"/>
<text text-anchor="middle" x="1383" y="-248" font-family="Helvetica,sans-Serif" font-size="10.00">iostream</text>
</a>
</g>
</g>
<!-- Node1&#45;&gt;Node27 -->
<g id="edge42" class="edge">
<title>Node1&#45;&gt;Node27</title>
<path fill="none" stroke="midnightblue" d="M1091.55,-310.01C1157.1,-302.76 1259,-288.9 1345,-266 1347.66,-265.29 1350.39,-264.46 1353.11,-263.57"/>
<polygon fill="midnightblue" stroke="midnightblue" points="1354.51,-266.78 1362.75,-260.12 1352.15,-260.19 1354.51,-266.78"/>
</g>
<!-- Node2&#45;&gt;Node3 -->
<g id="edge2" class="edge">
<title>Node2&#45;&gt;Node3</title>
<path fill="none" stroke="midnightblue" d="M591.41,-243.37C523.91,-234.78 399.44,-218.06 294,-199 287.62,-197.85 280.92,-196.53 274.33,-195.17"/>
<polygon fill="midnightblue" stroke="midnightblue" points="274.63,-191.65 264.12,-193.01 273.18,-198.5 274.63,-191.65"/>
</g>
<!-- Node4 -->
<g id="node4" class="node">
<title>Node4</title>
<g id="a_node4"><a xlink:title=" ">
<polygon fill="white" stroke="#bfbfbf" points="685,-174 685,-193 795,-193 795,-174 685,-174"/>
<text text-anchor="middle" x="740" y="-181" font-family="Helvetica,sans-Serif" font-size="10.00">SFML/Graphics.hpp</text>
</a>
</g>
</g>
<!-- Node2&#45;&gt;Node4 -->
<g id="edge3" class="edge">
<title>Node2&#45;&gt;Node4</title>
<path fill="none" stroke="midnightblue" d="M654.35,-240.73C670.75,-229.96 698.8,-211.55 718.31,-198.74"/>
<polygon fill="midnightblue" stroke="midnightblue" points="720.42,-201.54 726.86,-193.13 716.58,-195.69 720.42,-201.54"/>
</g>
<!-- Node5 -->
<g id="node5" class="node">
<title>Node5</title>
<g id="a_node5"><a xlink:title=" ">
<polygon fill="white" stroke="#bfbfbf" points="813.5,-174 813.5,-193 908.5,-193 908.5,-174 813.5,-174"/>
<text text-anchor="middle" x="861" y="-181" font-family="Helvetica,sans-Serif" font-size="10.00">SFML/Audio.hpp</text>
</a>
</g>
</g>
<!-- Node2&#45;&gt;Node5 -->
<g id="edge4" class="edge">
<title>Node2&#45;&gt;Node5</title>
<path fill="none" stroke="midnightblue" d="M670.21,-240.87C709.36,-229.3 778.93,-208.75 822.37,-195.91"/>
<polygon fill="midnightblue" stroke="midnightblue" points="823.42,-199.25 832.02,-193.06 821.43,-192.54 823.42,-199.25"/>
</g>
<!-- Node6 -->
<g id="node6" class="node">
<title>Node6</title>
<g id="a_node6"><a xlink:title=" ">
<polygon fill="white" stroke="#bfbfbf" points="562.5,-174 562.5,-193 597.5,-193 597.5,-174 562.5,-174"/>
<text text-anchor="middle" x="580" y="-181" font-family="Helvetica,sans-Serif" font-size="10.00">any</text>
</a>
</g>
</g>
<!-- Node2&#45;&gt;Node6 -->
<g id="edge5" class="edge">
<title>Node2&#45;&gt;Node6</title>
<path fill="none" stroke="midnightblue" d="M632.77,-240.73C623.17,-230.5 607.09,-213.36 595.2,-200.69"/>
<polygon fill="midnightblue" stroke="midnightblue" points="597.49,-198.02 588.1,-193.13 592.39,-202.81 597.49,-198.02"/>
</g>
<!-- Node7 -->
<g id="node7" class="node">
<title>Node7</title>
<g id="a_node7"><a xlink:title=" ">
<polygon fill="white" stroke="#bfbfbf" points="615.5,-174 615.5,-193 666.5,-193 666.5,-174 615.5,-174"/>
<text text-anchor="middle" x="641" y="-181" font-family="Helvetica,sans-Serif" font-size="10.00">variant</text>
</a>
</g>
</g>
<!-- Node2&#45;&gt;Node7 -->
<g id="edge6" class="edge">
<title>Node2&#45;&gt;Node7</title>
<path fill="none" stroke="midnightblue" d="M641,-240.73C641,-231.18 641,-215.62 641,-203.28"/>
<polygon fill="midnightblue" stroke="midnightblue" points="644.5,-203.13 641,-193.13 637.5,-203.13 644.5,-203.13"/>
</g>
<!-- Node8 -->
<g id="node8" class="node">
<title>Node8</title>
<g id="a_node8"><a xlink:href="IDisplayModule_8hpp.html" target="_top" xlink:title=" ">
<polygon fill="white" stroke="black" points="1177.5,-174 1177.5,-193 1338.5,-193 1338.5,-174 1177.5,-174"/>
<text text-anchor="middle" x="1258" y="-181" font-family="Helvetica,sans-Serif" font-size="10.00">Common/IDisplayModule.hpp</text>
</a>
</g>
</g>
<!-- Node2&#45;&gt;Node8 -->
<g id="edge7" class="edge">
<title>Node2&#45;&gt;Node8</title>
<path fill="none" stroke="midnightblue" d="M690.65,-244.54C779.02,-235.67 969.42,-216.39 1130,-199 1144.18,-197.46 1159.24,-195.79 1173.86,-194.15"/>
<polygon fill="midnightblue" stroke="midnightblue" points="1174.35,-197.62 1183.9,-193.02 1173.57,-190.66 1174.35,-197.62"/>
</g>
<!-- Node2&#45;&gt;Node19 -->
<g id="edge35" class="edge">
<title>Node2&#45;&gt;Node19</title>
<path fill="none" stroke="midnightblue" d="M591.21,-245.01C507,-236.92 343.92,-218.86 327,-199 296.85,-163.61 356.12,-143.78 411.84,-133.32"/>
<polygon fill="midnightblue" stroke="midnightblue" points="412.58,-136.74 421.81,-131.54 411.35,-129.85 412.58,-136.74"/>
</g>
<!-- Node2&#45;&gt;Node22 -->
<g id="edge29" class="edge">
<title>Node2&#45;&gt;Node22</title>
<path fill="none" stroke="midnightblue" d="M591.2,-245.2C506.22,-237.64 327.53,-220.83 166.32,-199.13"/>
<polygon fill="midnightblue" stroke="midnightblue" points="166.6,-195.64 156.22,-197.76 165.66,-202.57 166.6,-195.64"/>
</g>
<!-- Node23 -->
<g id="node23" class="node">
<title>Node23</title>
<g id="a_node23"><a xlink:href="MouseMoveEvent_8hpp.html" target="_top" xlink:title=" ">
<polygon fill="white" stroke="black" points="336,-174 336,-193 544,-193 544,-174 336,-174"/>
<text text-anchor="middle" x="440" y="-181" font-family="Helvetica,sans-Serif" font-size="10.00">Common/Events/MouseMoveEvent.hpp</text>
</a>
</g>
</g>
<!-- Node2&#45;&gt;Node23 -->
<g id="edge31" class="edge">
<title>Node2&#45;&gt;Node23</title>
<path fill="none" stroke="midnightblue" d="M614.31,-240.87C578.77,-229.38 515.79,-209.01 476.05,-196.16"/>
<polygon fill="midnightblue" stroke="midnightblue" points="477.07,-192.81 466.48,-193.06 474.92,-199.47 477.07,-192.81"/>
</g>
<!-- Node2&#45;&gt;Node24 -->
<g id="edge33" class="edge">
<title>Node2&#45;&gt;Node24</title>
<path fill="none" stroke="midnightblue" d="M690.68,-241.07C760.66,-229.19 888.12,-207.56 963.52,-194.76"/>
<polygon fill="midnightblue" stroke="midnightblue" points="964.53,-198.14 973.8,-193.02 963.36,-191.24 964.53,-198.14"/>
</g>
<!-- Node9 -->
<g id="node9" class="node">
<title>Node9</title>
<g id="a_node9"><a xlink:href="Module_8hpp.html" target="_top" xlink:title=" ">
<polygon fill="white" stroke="black" points="1707.5,-112.5 1707.5,-131.5 1828.5,-131.5 1828.5,-112.5 1707.5,-112.5"/>
<text text-anchor="middle" x="1768" y="-119.5" font-family="Helvetica,sans-Serif" font-size="10.00">Common/Module.hpp</text>
</a>
</g>
</g>
<!-- Node8&#45;&gt;Node9 -->
<g id="edge8" class="edge">
<title>Node8&#45;&gt;Node9</title>
<path fill="none" stroke="midnightblue" d="M1307.92,-173.98C1320.94,-171.88 1334.98,-169.75 1348,-168 1381.66,-163.49 1586.47,-141.95 1697.15,-130.38"/>
<polygon fill="midnightblue" stroke="midnightblue" points="1697.65,-133.85 1707.23,-129.33 1696.92,-126.89 1697.65,-133.85"/>
</g>
<!-- Node12 -->
<g id="node12" class="node">
<title>Node12</title>
<g id="a_node12"><a xlink:href="Line_8hpp.html" target="_top" xlink:title=" ">
<polygon fill="white" stroke="black" points="858,-112.5 858,-131.5 1018,-131.5 1018,-112.5 858,-112.5"/>
<text text-anchor="middle" x="938" y="-119.5" font-family="Helvetica,sans-Serif" font-size="10.00">Common/Drawables/Line.hpp</text>
</a>
</g>
</g>
<!-- Node8&#45;&gt;Node12 -->
<g id="edge11" class="edge">
<title>Node8&#45;&gt;Node12</title>
<path fill="none" stroke="midnightblue" d="M1212.15,-173.98C1154.53,-163.26 1055.69,-144.88 993.75,-133.37"/>
<polygon fill="midnightblue" stroke="midnightblue" points="994.23,-129.9 983.76,-131.51 992.95,-136.78 994.23,-129.9"/>
</g>
<!-- Node14 -->
<g id="node14" class="node">
<title>Node14</title>
<g id="a_node14"><a xlink:title=" ">
<polygon fill="white" stroke="#bfbfbf" points="859,-0.5 859,-19.5 917,-19.5 917,-0.5 859,-0.5"/>
<text text-anchor="middle" x="888" y="-7.5" font-family="Helvetica,sans-Serif" font-size="10.00">memory</text>
</a>
</g>
</g>
<!-- Node8&#45;&gt;Node14 -->
<g id="edge28" class="edge">
<title>Node8&#45;&gt;Node14</title>
<path fill="none" stroke="midnightblue" d="M1206.82,-173.92C1192.66,-171.76 1177.26,-169.6 1163,-168 1107.65,-161.79 700.94,-172.78 663,-132 603.36,-67.91 769.46,-30.72 848.64,-17.05"/>
<polygon fill="midnightblue" stroke="midnightblue" points="849.47,-20.46 858.75,-15.35 848.31,-13.55 849.47,-20.46"/>
</g>
<!-- Node15 -->
<g id="node15" class="node">
<title>Node15</title>
<g id="a_node15"><a xlink:href="Rectangle_8hpp.html" target="_top" xlink:title=" ">
<polygon fill="white" stroke="black" points="1036,-112.5 1036,-131.5 1224,-131.5 1224,-112.5 1036,-112.5"/>
<text text-anchor="middle" x="1130" y="-119.5" font-family="Helvetica,sans-Serif" font-size="10.00">Common/Drawables/Rectangle.hpp</text>
</a>
</g>
</g>
<!-- Node8&#45;&gt;Node15 -->
<g id="edge14" class="edge">
<title>Node8&#45;&gt;Node15</title>
<path fill="none" stroke="midnightblue" d="M1239.66,-173.98C1218.18,-163.99 1182.38,-147.35 1157.55,-135.81"/>
<polygon fill="midnightblue" stroke="midnightblue" points="1158.85,-132.55 1148.31,-131.51 1155.9,-138.9 1158.85,-132.55"/>
</g>
<!-- Node16 -->
<g id="node16" class="node">
<title>Node16</title>
<g id="a_node16"><a xlink:href="Circle_8hpp.html" target="_top" xlink:title=" ">
<polygon fill="white" stroke="black" points="672.5,-112.5 672.5,-131.5 839.5,-131.5 839.5,-112.5 672.5,-112.5"/>
<text text-anchor="middle" x="756" y="-119.5" font-family="Helvetica,sans-Serif" font-size="10.00">Common/Drawables/Circle.hpp</text>
</a>
</g>
</g>
<!-- Node8&#45;&gt;Node16 -->
<g id="edge16" class="edge">
<title>Node8&#45;&gt;Node16</title>
<path fill="none" stroke="midnightblue" d="M1204.8,-173.98C1191.19,-171.91 1176.56,-169.78 1163,-168 1055.76,-153.89 932.22,-140.66 849.64,-132.24"/>
<polygon fill="midnightblue" stroke="midnightblue" points="849.83,-128.74 839.53,-131.22 849.12,-135.71 849.83,-128.74"/>
</g>
<!-- Node17 -->
<g id="node17" class="node">
<title>Node17</title>
<g id="a_node17"><a xlink:href="Sprite_8hpp.html" target="_top" xlink:title=" ">
<polygon fill="white" stroke="black" points="1292,-112.5 1292,-131.5 1460,-131.5 1460,-112.5 1292,-112.5"/>
<text text-anchor="middle" x="1376" y="-119.5" font-family="Helvetica,sans-Serif" font-size="10.00">Common/Drawables/Sprite.hpp</text>
</a>
</g>
</g>
<!-- Node8&#45;&gt;Node17 -->
<g id="edge18" class="edge">
<title>Node8&#45;&gt;Node17</title>
<path fill="none" stroke="midnightblue" d="M1274.91,-173.98C1294.53,-164.08 1327.13,-147.64 1349.99,-136.12"/>
<polygon fill="midnightblue" stroke="midnightblue" points="1351.77,-139.14 1359.12,-131.51 1348.62,-132.89 1351.77,-139.14"/>
</g>
<!-- Node18 -->
<g id="node18" class="node">
<title>Node18</title>
<g id="a_node18"><a xlink:href="Text_8hpp.html" target="_top" xlink:title=" ">
<polygon fill="white" stroke="black" points="1478,-112.5 1478,-131.5 1638,-131.5 1638,-112.5 1478,-112.5"/>
<text text-anchor="middle" x="1558" y="-119.5" font-family="Helvetica,sans-Serif" font-size="10.00">Common/Drawables/Text.hpp</text>
</a>
</g>
</g>
<!-- Node8&#45;&gt;Node18 -->
<g id="edge21" class="edge">
<title>Node8&#45;&gt;Node18</title>
<path fill="none" stroke="midnightblue" d="M1300.98,-173.98C1354.78,-163.3 1446.91,-145.03 1505.01,-133.51"/>
<polygon fill="midnightblue" stroke="midnightblue" points="1505.97,-136.89 1515.1,-131.51 1504.61,-130.02 1505.97,-136.89"/>
</g>
<!-- Node8&#45;&gt;Node19 -->
<g id="edge24" class="edge">
<title>Node8&#45;&gt;Node19</title>
<path fill="none" stroke="midnightblue" d="M1207.32,-173.95C1193.02,-171.76 1177.43,-169.58 1163,-168 1134.36,-164.86 750.76,-139.8 576.77,-128.49"/>
<polygon fill="midnightblue" stroke="midnightblue" points="576.83,-124.99 566.62,-127.83 576.38,-131.98 576.83,-124.99"/>
</g>
<!-- Node20 -->
<g id="node20" class="node">
<title>Node20</title>
<g id="a_node20"><a xlink:href="Sound_8hpp.html" target="_top" xlink:title=" ">
<polygon fill="white" stroke="black" points="1579.5,-56.5 1579.5,-75.5 1694.5,-75.5 1694.5,-56.5 1579.5,-56.5"/>
<text text-anchor="middle" x="1637" y="-63.5" font-family="Helvetica,sans-Serif" font-size="10.00">Common/Sound.hpp</text>
</a>
</g>
</g>
<!-- Node8&#45;&gt;Node20 -->
<g id="edge25" class="edge">
<title>Node8&#45;&gt;Node20</title>
<path fill="none" stroke="midnightblue" d="M1308.87,-173.94C1321.63,-171.89 1335.31,-169.79 1348,-168 1414.27,-158.68 1602.6,-182.07 1647,-132 1658.22,-119.35 1653.11,-99.59 1646.82,-85.18"/>
<polygon fill="midnightblue" stroke="midnightblue" points="1649.77,-83.25 1642.24,-75.8 1643.48,-86.32 1649.77,-83.25"/>
</g>
<!-- Node21 -->
<g id="node21" class="node">
<title>Node21</title>
<g id="a_node21"><a xlink:title=" ">
<polygon fill="white" stroke="#bfbfbf" points="1242,-112.5 1242,-131.5 1274,-131.5 1274,-112.5 1242,-112.5"/>
<text text-anchor="middle" x="1258" y="-119.5" font-family="Helvetica,sans-Serif" font-size="10.00">list</text>
</a>
</g>
</g>
<!-- Node8&#45;&gt;Node21 -->
<g id="edge27" class="edge">
<title>Node8&#45;&gt;Node21</title>
<path fill="none" stroke="midnightblue" d="M1258,-173.98C1258,-165.58 1258,-152.48 1258,-141.66"/>
<polygon fill="midnightblue" stroke="midnightblue" points="1261.5,-141.51 1258,-131.51 1254.5,-141.51 1261.5,-141.51"/>
</g>
<!-- Node10 -->
<g id="node10" class="node">
<title>Node10</title>
<g id="a_node10"><a xlink:href="ModInfo_8hpp.html" target="_top" xlink:title=" ">
<polygon fill="white" stroke="black" points="1712.5,-56.5 1712.5,-75.5 1837.5,-75.5 1837.5,-56.5 1712.5,-56.5"/>
<text text-anchor="middle" x="1775" y="-63.5" font-family="Helvetica,sans-Serif" font-size="10.00">Common/ModInfo.hpp</text>
</a>
</g>
</g>
<!-- Node9&#45;&gt;Node10 -->
<g id="edge9" class="edge">
<title>Node9&#45;&gt;Node10</title>
<path fill="none" stroke="midnightblue" d="M1769.16,-112.08C1770.08,-104.93 1771.42,-94.64 1772.58,-85.69"/>
<polygon fill="midnightblue" stroke="midnightblue" points="1776.05,-86.12 1773.87,-75.75 1769.11,-85.22 1776.05,-86.12"/>
</g>
<!-- Node11 -->
<g id="node11" class="node">
<title>Node11</title>
<g id="a_node11"><a xlink:title=" ">
<polygon fill="white" stroke="#bfbfbf" points="1572,-0.5 1572,-19.5 1616,-19.5 1616,-0.5 1572,-0.5"/>
<text text-anchor="middle" x="1594" y="-7.5" font-family="Helvetica,sans-Serif" font-size="10.00">string</text>
</a>
</g>
</g>
<!-- Node10&#45;&gt;Node11 -->
<g id="edge10" class="edge">
<title>Node10&#45;&gt;Node11</title>
<path fill="none" stroke="midnightblue" d="M1746.32,-56.44C1713.62,-46.69 1660.29,-30.78 1626.19,-20.6"/>
<polygon fill="midnightblue" stroke="midnightblue" points="1626.85,-17.15 1616.27,-17.64 1624.85,-23.86 1626.85,-17.15"/>
</g>
<!-- Node13 -->
<g id="node13" class="node">
<title>Node13</title>
<g id="a_node13"><a xlink:href="ADrawable_8hpp.html" target="_top" xlink:title=" ">
<polygon fill="white" stroke="black" points="937.5,-56.5 937.5,-75.5 1130.5,-75.5 1130.5,-56.5 937.5,-56.5"/>
<text text-anchor="middle" x="1034" y="-63.5" font-family="Helvetica,sans-Serif" font-size="10.00">Common/Drawables/ADrawable.hpp</text>
</a>
</g>
</g>
<!-- Node12&#45;&gt;Node13 -->
<g id="edge12" class="edge">
<title>Node12&#45;&gt;Node13</title>
<path fill="none" stroke="midnightblue" d="M953.42,-112.32C968.54,-103.82 991.82,-90.73 1009.47,-80.8"/>
<polygon fill="midnightblue" stroke="midnightblue" points="1011.61,-83.61 1018.61,-75.65 1008.18,-77.51 1011.61,-83.61"/>
</g>
<!-- Node13&#45;&gt;Node14 -->
<g id="edge13" class="edge">
<title>Node13&#45;&gt;Node14</title>
<path fill="none" stroke="midnightblue" d="M1010.87,-56.44C986.52,-47.44 947.99,-33.19 920.58,-23.05"/>
<polygon fill="midnightblue" stroke="midnightblue" points="921.62,-19.7 911.03,-19.52 919.19,-26.27 921.62,-19.7"/>
</g>
<!-- Node15&#45;&gt;Node13 -->
<g id="edge15" class="edge">
<title>Node15&#45;&gt;Node13</title>
<path fill="none" stroke="midnightblue" d="M1114.58,-112.32C1099.46,-103.82 1076.18,-90.73 1058.53,-80.8"/>
<polygon fill="midnightblue" stroke="midnightblue" points="1059.82,-77.51 1049.39,-75.65 1056.39,-83.61 1059.82,-77.51"/>
</g>
<!-- Node16&#45;&gt;Node13 -->
<g id="edge17" class="edge">
<title>Node16&#45;&gt;Node13</title>
<path fill="none" stroke="midnightblue" d="M800.05,-112.44C848.85,-102.96 927.56,-87.67 980.03,-77.48"/>
<polygon fill="midnightblue" stroke="midnightblue" points="981.01,-80.86 990.16,-75.52 979.67,-73.99 981.01,-80.86"/>
</g>
<!-- Node17&#45;&gt;Node11 -->
<g id="edge20" class="edge">
<title>Node17&#45;&gt;Node11</title>
<path fill="none" stroke="midnightblue" d="M1393.11,-112.37C1431.07,-93.21 1522.58,-47.04 1567.81,-24.22"/>
<polygon fill="midnightblue" stroke="midnightblue" points="1569.62,-27.22 1576.97,-19.59 1566.47,-20.97 1569.62,-27.22"/>
</g>
<!-- Node17&#45;&gt;Node13 -->
<g id="edge19" class="edge">
<title>Node17&#45;&gt;Node13</title>
<path fill="none" stroke="midnightblue" d="M1321.81,-112.44C1261.02,-102.85 1162.51,-87.29 1097.99,-77.1"/>
<polygon fill="midnightblue" stroke="midnightblue" points="1098.36,-73.62 1087.94,-75.52 1097.27,-80.53 1098.36,-73.62"/>
</g>
<!-- Node18&#45;&gt;Node11 -->
<g id="edge23" class="edge">
<title>Node18&#45;&gt;Node11</title>
<path fill="none" stroke="midnightblue" d="M1558.96,-112.39C1560.53,-99.75 1564.19,-75.56 1571,-56 1574.28,-46.57 1579.19,-36.64 1583.63,-28.51"/>
<polygon fill="midnightblue" stroke="midnightblue" points="1586.77,-30.07 1588.67,-19.65 1580.68,-26.61 1586.77,-30.07"/>
</g>
<!-- Node18&#45;&gt;Node13 -->
<g id="edge22" class="edge">
<title>Node18&#45;&gt;Node13</title>
<path fill="none" stroke="midnightblue" d="M1477.85,-112.74C1383.33,-103 1226.51,-86.84 1126.81,-76.56"/>
<polygon fill="midnightblue" stroke="midnightblue" points="1127.05,-73.07 1116.74,-75.53 1126.33,-80.03 1127.05,-73.07"/>
</g>
<!-- Node20&#45;&gt;Node11 -->
<g id="edge26" class="edge">
<title>Node20&#45;&gt;Node11</title>
<path fill="none" stroke="midnightblue" d="M1629.9,-56.08C1623.76,-48.38 1614.73,-37.03 1607.26,-27.65"/>
<polygon fill="midnightblue" stroke="midnightblue" points="1609.94,-25.39 1600.97,-19.75 1604.46,-29.75 1609.94,-25.39"/>
</g>
<!-- Node22&#45;&gt;Node19 -->
<g id="edge30" class="edge">
<title>Node22&#45;&gt;Node19</title>
<path fill="none" stroke="midnightblue" d="M156.24,-169.35C159.2,-168.89 162.12,-168.44 165,-168 250.95,-154.93 349.87,-141.54 416.2,-132.81"/>
<polygon fill="midnightblue" stroke="midnightblue" points="416.7,-136.28 426.16,-131.5 415.79,-129.34 416.7,-136.28"/>
</g>
<!-- Node23&#45;&gt;Node19 -->
<g id="edge32" class="edge">
<title>Node23&#45;&gt;Node19</title>
<path fill="none" stroke="midnightblue" d="M447.45,-173.98C455.33,-164.96 467.94,-150.52 477.74,-139.31"/>
<polygon fill="midnightblue" stroke="midnightblue" points="480.62,-141.34 484.56,-131.51 475.35,-136.74 480.62,-141.34"/>
</g>
<!-- Node24&#45;&gt;Node19 -->
<g id="edge34" class="edge">
<title>Node24&#45;&gt;Node19</title>
<path fill="none" stroke="midnightblue" d="M963.49,-173.99C948.32,-171.94 932.08,-169.82 917,-168 799.14,-153.78 662.6,-139.76 576.76,-131.24"/>
<polygon fill="midnightblue" stroke="midnightblue" points="576.84,-127.73 566.54,-130.23 576.15,-134.7 576.84,-127.73"/>
</g>
<!-- Node26 -->
<g id="node26" class="node">
<title>Node26</title>
<g id="a_node26"><a xlink:title=" ">
<polygon fill="white" stroke="#bfbfbf" points="1356.5,-174 1356.5,-193 1421.5,-193 1421.5,-174 1356.5,-174"/>
<text text-anchor="middle" x="1389" y="-181" font-family="Helvetica,sans-Serif" font-size="10.00">stdexcept</text>
</a>
</g>
</g>
<!-- Node25&#45;&gt;Node26 -->
<g id="edge41" class="edge">
<title>Node25&#45;&gt;Node26</title>
<path fill="none" stroke="midnightblue" d="M1284.86,-235.4C1307.89,-224.14 1339.89,-208.5 1362.32,-197.54"/>
<polygon fill="midnightblue" stroke="midnightblue" points="1364.15,-200.54 1371.59,-193.01 1361.07,-194.25 1364.15,-200.54"/>
</g>
</g>
</svg>
