<?xml version="1.0" encoding="UTF-8" standalone="no"?>
<!DOCTYPE svg PUBLIC "-//W3C//DTD SVG 1.1//EN"
 "http://www.w3.org/Graphics/SVG/1.1/DTD/svg11.dtd">
<!-- Generated by graphviz version 2.43.0 (0)
 -->
<!-- Title: sources/DisplayModules/SFML/SFMLDisplay.hpp Pages: 1 -->
<svg width="1502pt" height="274pt"
 viewBox="0.00 0.00 1501.50 274.00" xmlns="http://www.w3.org/2000/svg" xmlns:xlink="http://www.w3.org/1999/xlink">
<g id="graph0" class="graph" transform="scale(1 1) rotate(0) translate(4 270)">
<title>sources/DisplayModules/SFML/SFMLDisplay.hpp</title>
<polygon fill="white" stroke="transparent" points="-4,4 -4,-270 1497.5,-270 1497.5,4 -4,4"/>
<!-- Node1 -->
<g id="node1" class="node">
<title>Node1</title>
<g id="a_node1"><a xlink:title=" ">
<polygon fill="#bfbfbf" stroke="black" points="632,-235.5 632,-265.5 767,-265.5 767,-235.5 632,-235.5"/>
<text text-anchor="start" x="640" y="-253.5" font-family="Helvetica,sans-Serif" font-size="10.00">sources/DisplayModules</text>
<text text-anchor="middle" x="699.5" y="-242.5" font-family="Helvetica,sans-Serif" font-size="10.00">/SFML/SFMLDisplay.hpp</text>
</a>
</g>
</g>
<!-- Node2 -->
<g id="node2" class="node">
<title>Node2</title>
<g id="a_node2"><a xlink:title=" ">
<polygon fill="white" stroke="#bfbfbf" points="194,-174 194,-193 299,-193 299,-174 194,-174"/>
<text text-anchor="middle" x="246.5" y="-181" font-family="Helvetica,sans-Serif" font-size="10.00">SFML/Window.hpp</text>
</a>
</g>
</g>
<!-- Node1&#45;&gt;Node2 -->
<g id="edge1" class="edge">
<title>Node1&#45;&gt;Node2</title>
<path fill="none" stroke="midnightblue" d="M631.72,-242.85C553.49,-234.69 421.14,-219.39 308.5,-199 302.58,-197.93 296.37,-196.66 290.26,-195.32"/>
<polygon fill="midnightblue" stroke="midnightblue" points="290.68,-191.82 280.16,-193.03 289.14,-198.65 290.68,-191.82"/>
</g>
<!-- Node3 -->
<g id="node3" class="node">
<title>Node3</title>
<g id="a_node3"><a xlink:title=" ">
<polygon fill="white" stroke="#bfbfbf" points="317.5,-174 317.5,-193 427.5,-193 427.5,-174 317.5,-174"/>
<text text-anchor="middle" x="372.5" y="-181" font-family="Helvetica,sans-Serif" font-size="10.00">SFML/Graphics.hpp</text>
</a>
</g>
</g>
<!-- Node1&#45;&gt;Node3 -->
<g id="edge2" class="edge">
<title>Node1&#45;&gt;Node3</title>
<path fill="none" stroke="midnightblue" d="M631.81,-237.14C578.62,-227.27 502.71,-212.85 436.5,-199 430.99,-197.85 425.23,-196.6 419.52,-195.34"/>
<polygon fill="midnightblue" stroke="midnightblue" points="419.87,-191.83 409.34,-193.07 418.34,-198.66 419.87,-191.83"/>
</g>
<!-- Node4 -->
<g id="node4" class="node">
<title>Node4</title>
<g id="a_node4"><a xlink:title=" ">
<polygon fill="white" stroke="#bfbfbf" points="446,-174 446,-193 541,-193 541,-174 446,-174"/>
<text text-anchor="middle" x="493.5" y="-181" font-family="Helvetica,sans-Serif" font-size="10.00">SFML/Audio.hpp</text>
</a>
</g>
</g>
<!-- Node1&#45;&gt;Node4 -->
<g id="edge3" class="edge">
<title>Node1&#45;&gt;Node4</title>
<path fill="none" stroke="midnightblue" d="M655.05,-235.48C617.81,-223.72 565.26,-207.14 530.33,-196.12"/>
<polygon fill="midnightblue" stroke="midnightblue" points="531.12,-192.7 520.53,-193.03 529.01,-199.38 531.12,-192.7"/>
</g>
<!-- Node5 -->
<g id="node5" class="node">
<title>Node5</title>
<g id="a_node5"><a xlink:title=" ">
<polygon fill="white" stroke="#bfbfbf" points="559,-174 559,-193 594,-193 594,-174 559,-174"/>
<text text-anchor="middle" x="576.5" y="-181" font-family="Helvetica,sans-Serif" font-size="10.00">any</text>
</a>
</g>
</g>
<!-- Node1&#45;&gt;Node5 -->
<g id="edge4" class="edge">
<title>Node1&#45;&gt;Node5</title>
<path fill="none" stroke="midnightblue" d="M671.79,-235.34C652.33,-225.33 625.73,-211.52 602.5,-199 601.83,-198.64 601.16,-198.28 600.48,-197.91"/>
<polygon fill="midnightblue" stroke="midnightblue" points="602.03,-194.77 591.58,-193.01 598.65,-200.9 602.03,-194.77"/>
</g>
<!-- Node6 -->
<g id="node6" class="node">
<title>Node6</title>
<g id="a_node6"><a xlink:title=" ">
<polygon fill="white" stroke="#bfbfbf" points="612,-174 612,-193 663,-193 663,-174 612,-174"/>
<text text-anchor="middle" x="637.5" y="-181" font-family="Helvetica,sans-Serif" font-size="10.00">variant</text>
</a>
</g>
</g>
<!-- Node1&#45;&gt;Node6 -->
<g id="edge5" class="edge">
<title>Node1&#45;&gt;Node6</title>
<path fill="none" stroke="midnightblue" d="M686.05,-235.4C676.28,-225.16 663.06,-211.3 652.88,-200.62"/>
<polygon fill="midnightblue" stroke="midnightblue" points="655.23,-198.01 645.79,-193.19 650.16,-202.85 655.23,-198.01"/>
</g>
<!-- Node7 -->
<g id="node7" class="node">
<title>Node7</title>
<g id="a_node7"><a xlink:href="IDisplayModule_8hpp.html" target="_top" xlink:title=" ">
<polygon fill="white" stroke="black" points="681,-174 681,-193 842,-193 842,-174 681,-174"/>
<text text-anchor="middle" x="761.5" y="-181" font-family="Helvetica,sans-Serif" font-size="10.00">Common/IDisplayModule.hpp</text>
</a>
</g>
</g>
<!-- Node1&#45;&gt;Node7 -->
<g id="edge6" class="edge">
<title>Node1&#45;&gt;Node7</title>
<path fill="none" stroke="midnightblue" d="M712.95,-235.4C722.72,-225.16 735.94,-211.3 746.12,-200.62"/>
<polygon fill="midnightblue" stroke="midnightblue" points="748.84,-202.85 753.21,-193.19 743.77,-198.01 748.84,-202.85"/>
</g>
<!-- Node18 -->
<g id="node18" class="node">
<title>Node18</title>
<g id="a_node18"><a xlink:href="Event_8hpp.html" target="_top" xlink:title=" ">
<polygon fill="white" stroke="black" points="1296,-112.5 1296,-131.5 1445,-131.5 1445,-112.5 1296,-112.5"/>
<text text-anchor="middle" x="1370.5" y="-119.5" font-family="Helvetica,sans-Serif" font-size="10.00">Common/Events/Event.hpp</text>
</a>
</g>
</g>
<!-- Node1&#45;&gt;Node18 -->
<g id="edge34" class="edge">
<title>Node1&#45;&gt;Node18</title>
<path fill="none" stroke="midnightblue" d="M767.16,-249.35C902.08,-248.15 1199.55,-240.68 1291.5,-199 1299.19,-195.52 1334.13,-160.39 1354.89,-139.13"/>
<polygon fill="midnightblue" stroke="midnightblue" points="1357.59,-141.36 1362.06,-131.76 1352.58,-136.48 1357.59,-141.36"/>
</g>
<!-- Node21 -->
<g id="node21" class="node">
<title>Node21</title>
<g id="a_node21"><a xlink:href="MouseClickEvent_8hpp.html" target="_top" xlink:title=" ">
<polygon fill="white" stroke="black" points="1337.5,-168.5 1337.5,-198.5 1493.5,-198.5 1493.5,-168.5 1337.5,-168.5"/>
<text text-anchor="start" x="1345.5" y="-186.5" font-family="Helvetica,sans-Serif" font-size="10.00">Common/Events/MouseClick</text>
<text text-anchor="middle" x="1415.5" y="-175.5" font-family="Helvetica,sans-Serif" font-size="10.00">Event.hpp</text>
</a>
</g>
</g>
<!-- Node1&#45;&gt;Node21 -->
<g id="edge28" class="edge">
<title>Node1&#45;&gt;Node21</title>
<path fill="none" stroke="midnightblue" d="M767.07,-245.71C881.75,-238.9 1121.68,-223.04 1323.5,-199 1324.76,-198.85 1326.04,-198.69 1327.32,-198.54"/>
<polygon fill="midnightblue" stroke="midnightblue" points="1327.79,-202 1337.26,-197.24 1326.89,-195.06 1327.79,-202"/>
</g>
<!-- Node22 -->
<g id="node22" class="node">
<title>Node22</title>
<g id="a_node22"><a xlink:href="MouseMoveEvent_8hpp.html" target="_top" xlink:title=" ">
<polygon fill="white" stroke="black" points="860.5,-174 860.5,-193 1068.5,-193 1068.5,-174 860.5,-174"/>
<text text-anchor="middle" x="964.5" y="-181" font-family="Helvetica,sans-Serif" font-size="10.00">Common/Events/MouseMoveEvent.hpp</text>
</a>
</g>
</g>
<!-- Node1&#45;&gt;Node22 -->
<g id="edge30" class="edge">
<title>Node1&#45;&gt;Node22</title>
<path fill="none" stroke="midnightblue" d="M756.67,-235.48C805.62,-223.47 875.1,-206.43 919.99,-195.42"/>
<polygon fill="midnightblue" stroke="midnightblue" points="920.85,-198.81 929.73,-193.03 919.18,-192.01 920.85,-198.81"/>
</g>
<!-- Node23 -->
<g id="node23" class="node">
<title>Node23</title>
<g id="a_node23"><a xlink:href="KeyBoardEvent_8hpp.html" target="_top" xlink:title=" ">
<polygon fill="white" stroke="black" points="1087,-174 1087,-193 1282,-193 1282,-174 1087,-174"/>
<text text-anchor="middle" x="1184.5" y="-181" font-family="Helvetica,sans-Serif" font-size="10.00">Common/Events/KeyBoardEvent.hpp</text>
</a>
</g>
</g>
<!-- Node1&#45;&gt;Node23 -->
<g id="edge32" class="edge">
<title>Node1&#45;&gt;Node23</title>
<path fill="none" stroke="midnightblue" d="M767.1,-240.51C842.74,-230.44 968.9,-213.61 1077.5,-199 1088.56,-197.51 1100.27,-195.93 1111.72,-194.38"/>
<polygon fill="midnightblue" stroke="midnightblue" points="1112.26,-197.84 1121.7,-193.03 1111.32,-190.9 1112.26,-197.84"/>
</g>
<!-- Node8 -->
<g id="node8" class="node">
<title>Node8</title>
<g id="a_node8"><a xlink:href="Module_8hpp.html" target="_top" xlink:title=" ">
<polygon fill="white" stroke="black" points="135,-112.5 135,-131.5 256,-131.5 256,-112.5 135,-112.5"/>
<text text-anchor="middle" x="195.5" y="-119.5" font-family="Helvetica,sans-Serif" font-size="10.00">Common/Module.hpp</text>
</a>
</g>
</g>
<!-- Node7&#45;&gt;Node8 -->
<g id="edge7" class="edge">
<title>Node7&#45;&gt;Node8</title>
<path fill="none" stroke="midnightblue" d="M712.54,-173.97C699.25,-171.83 684.85,-169.67 671.5,-168 493.95,-145.76 448.46,-150.66 270.5,-132 269.03,-131.85 267.55,-131.69 266.05,-131.53"/>
<polygon fill="midnightblue" stroke="midnightblue" points="266.39,-128.04 256.06,-130.43 265.62,-135 266.39,-128.04"/>
</g>
<!-- Node11 -->
<g id="node11" class="node">
<title>Node11</title>
<g id="a_node11"><a xlink:href="Line_8hpp.html" target="_top" xlink:title=" ">
<polygon fill="white" stroke="black" points="726.5,-112.5 726.5,-131.5 886.5,-131.5 886.5,-112.5 726.5,-112.5"/>
<text text-anchor="middle" x="806.5" y="-119.5" font-family="Helvetica,sans-Serif" font-size="10.00">Common/Drawables/Line.hpp</text>
</a>
</g>
</g>
<!-- Node7&#45;&gt;Node11 -->
<g id="edge10" class="edge">
<title>Node7&#45;&gt;Node11</title>
<path fill="none" stroke="midnightblue" d="M767.95,-173.98C774.7,-165.05 785.47,-150.81 793.91,-139.64"/>
<polygon fill="midnightblue" stroke="midnightblue" points="796.82,-141.6 800.06,-131.51 791.24,-137.37 796.82,-141.6"/>
</g>
<!-- Node13 -->
<g id="node13" class="node">
<title>Node13</title>
<g id="a_node13"><a xlink:title=" ">
<polygon fill="white" stroke="#bfbfbf" points="325.5,-0.5 325.5,-19.5 383.5,-19.5 383.5,-0.5 325.5,-0.5"/>
<text text-anchor="middle" x="354.5" y="-7.5" font-family="Helvetica,sans-Serif" font-size="10.00">memory</text>
</a>
</g>
</g>
<!-- Node7&#45;&gt;Node13 -->
<g id="edge27" class="edge">
<title>Node7&#45;&gt;Node13</title>
<path fill="none" stroke="midnightblue" d="M712.07,-173.97C698.91,-171.85 684.68,-169.71 671.5,-168 630.76,-162.73 331.1,-162.43 303.5,-132 275.31,-100.92 314.03,-51.97 338.01,-26.92"/>
<polygon fill="midnightblue" stroke="midnightblue" points="340.63,-29.25 345.17,-19.69 335.65,-24.33 340.63,-29.25"/>
</g>
<!-- Node14 -->
<g id="node14" class="node">
<title>Node14</title>
<g id="a_node14"><a xlink:href="Rectangle_8hpp.html" target="_top" xlink:title=" ">
<polygon fill="white" stroke="black" points="904.5,-112.5 904.5,-131.5 1092.5,-131.5 1092.5,-112.5 904.5,-112.5"/>
<text text-anchor="middle" x="998.5" y="-119.5" font-family="Helvetica,sans-Serif" font-size="10.00">Common/Drawables/Rectangle.hpp</text>
</a>
</g>
</g>
<!-- Node7&#45;&gt;Node14 -->
<g id="edge13" class="edge">
<title>Node7&#45;&gt;Node14</title>
<path fill="none" stroke="midnightblue" d="M795.46,-173.98C837.34,-163.46 908.63,-145.56 954.63,-134.01"/>
<polygon fill="midnightblue" stroke="midnightblue" points="955.76,-137.34 964.61,-131.51 954.06,-130.55 955.76,-137.34"/>
</g>
<!-- Node15 -->
<g id="node15" class="node">
<title>Node15</title>
<g id="a_node15"><a xlink:href="Circle_8hpp.html" target="_top" xlink:title=" ">
<polygon fill="white" stroke="black" points="1111,-112.5 1111,-131.5 1278,-131.5 1278,-112.5 1111,-112.5"/>
<text text-anchor="middle" x="1194.5" y="-119.5" font-family="Helvetica,sans-Serif" font-size="10.00">Common/Drawables/Circle.hpp</text>
</a>
</g>
</g>
<!-- Node7&#45;&gt;Node15 -->
<g id="edge15" class="edge">
<title>Node7&#45;&gt;Node15</title>
<path fill="none" stroke="midnightblue" d="M812.86,-173.96C825.48,-171.93 838.97,-169.83 851.5,-168 941.56,-154.84 1045.19,-141.49 1114.77,-132.79"/>
<polygon fill="midnightblue" stroke="midnightblue" points="1115.29,-136.25 1124.78,-131.54 1114.43,-129.3 1115.29,-136.25"/>
</g>
<!-- Node16 -->
<g id="node16" class="node">
<title>Node16</title>
<g id="a_node16"><a xlink:href="Sprite_8hpp.html" target="_top" xlink:title=" ">
<polygon fill="white" stroke="black" points="312.5,-112.5 312.5,-131.5 480.5,-131.5 480.5,-112.5 312.5,-112.5"/>
<text text-anchor="middle" x="396.5" y="-119.5" font-family="Helvetica,sans-Serif" font-size="10.00">Common/Drawables/Sprite.hpp</text>
</a>
</g>
</g>
<!-- Node7&#45;&gt;Node16 -->
<g id="edge17" class="edge">
<title>Node7&#45;&gt;Node16</title>
<path fill="none" stroke="midnightblue" d="M709.2,-173.98C643.07,-163.19 529.34,-144.65 458.78,-133.15"/>
<polygon fill="midnightblue" stroke="midnightblue" points="459.13,-129.66 448.7,-131.51 458.01,-136.57 459.13,-129.66"/>
</g>
<!-- Node17 -->
<g id="node17" class="node">
<title>Node17</title>
<g id="a_node17"><a xlink:href="Text_8hpp.html" target="_top" xlink:title=" ">
<polygon fill="white" stroke="black" points="498.5,-112.5 498.5,-131.5 658.5,-131.5 658.5,-112.5 498.5,-112.5"/>
<text text-anchor="middle" x="578.5" y="-119.5" font-family="Helvetica,sans-Serif" font-size="10.00">Common/Drawables/Text.hpp</text>
</a>
</g>
</g>
<!-- Node7&#45;&gt;Node17 -->
<g id="edge20" class="edge">
<title>Node7&#45;&gt;Node17</title>
<path fill="none" stroke="midnightblue" d="M735.28,-173.98C703.48,-163.64 649.73,-146.16 614.18,-134.6"/>
<polygon fill="midnightblue" stroke="midnightblue" points="615.26,-131.27 604.67,-131.51 613.1,-137.93 615.26,-131.27"/>
</g>
<!-- Node7&#45;&gt;Node18 -->
<g id="edge23" class="edge">
<title>Node7&#45;&gt;Node18</title>
<path fill="none" stroke="midnightblue" d="M809.98,-173.98C823.4,-171.82 837.99,-169.64 851.5,-168 1041.22,-144.92 1092.21,-150.29 1285.63,-132.15"/>
<polygon fill="midnightblue" stroke="midnightblue" points="1286.23,-135.61 1295.85,-131.19 1285.57,-128.64 1286.23,-135.61"/>
</g>
<!-- Node19 -->
<g id="node19" class="node">
<title>Node19</title>
<g id="a_node19"><a xlink:href="Sound_8hpp.html" target="_top" xlink:title=" ">
<polygon fill="white" stroke="black" points="0,-56.5 0,-75.5 115,-75.5 115,-56.5 0,-56.5"/>
<text text-anchor="middle" x="57.5" y="-63.5" font-family="Helvetica,sans-Serif" font-size="10.00">Common/Sound.hpp</text>
</a>
</g>
</g>
<!-- Node7&#45;&gt;Node19 -->
<g id="edge24" class="edge">
<title>Node7&#45;&gt;Node19</title>
<path fill="none" stroke="midnightblue" d="M713.97,-173.99C700.3,-171.77 685.34,-169.57 671.5,-168 550.68,-154.31 236.81,-180.95 125.5,-132 102.01,-121.67 81.73,-99.52 69.58,-83.97"/>
<polygon fill="midnightblue" stroke="midnightblue" points="72.19,-81.62 63.4,-75.71 66.58,-85.81 72.19,-81.62"/>
</g>
<!-- Node20 -->
<g id="node20" class="node">
<title>Node20</title>
<g id="a_node20"><a xlink:title=" ">
<polygon fill="white" stroke="#bfbfbf" points="676.5,-112.5 676.5,-131.5 708.5,-131.5 708.5,-112.5 676.5,-112.5"/>
<text text-anchor="middle" x="692.5" y="-119.5" font-family="Helvetica,sans-Serif" font-size="10.00">list</text>
</a>
</g>
</g>
<!-- Node7&#45;&gt;Node20 -->
<g id="edge26" class="edge">
<title>Node7&#45;&gt;Node20</title>
<path fill="none" stroke="midnightblue" d="M751.61,-173.98C740.85,-164.7 723.43,-149.67 710.28,-138.33"/>
<polygon fill="midnightblue" stroke="midnightblue" points="712.23,-135.39 702.37,-131.51 707.66,-140.69 712.23,-135.39"/>
</g>
<!-- Node9 -->
<g id="node9" class="node">
<title>Node9</title>
<g id="a_node9"><a xlink:href="ModInfo_8hpp.html" target="_top" xlink:title=" ">
<polygon fill="white" stroke="black" points="133,-56.5 133,-75.5 258,-75.5 258,-56.5 133,-56.5"/>
<text text-anchor="middle" x="195.5" y="-63.5" font-family="Helvetica,sans-Serif" font-size="10.00">Common/ModInfo.hpp</text>
</a>
</g>
</g>
<!-- Node8&#45;&gt;Node9 -->
<g id="edge8" class="edge">
<title>Node8&#45;&gt;Node9</title>
<path fill="none" stroke="midnightblue" d="M195.5,-112.08C195.5,-105.01 195.5,-94.86 195.5,-85.99"/>
<polygon fill="midnightblue" stroke="midnightblue" points="199,-85.75 195.5,-75.75 192,-85.75 199,-85.75"/>
</g>
<!-- Node10 -->
<g id="node10" class="node">
<title>Node10</title>
<g id="a_node10"><a xlink:title=" ">
<polygon fill="white" stroke="#bfbfbf" points="233.5,-0.5 233.5,-19.5 277.5,-19.5 277.5,-0.5 233.5,-0.5"/>
<text text-anchor="middle" x="255.5" y="-7.5" font-family="Helvetica,sans-Serif" font-size="10.00">string</text>
</a>
</g>
</g>
<!-- Node9&#45;&gt;Node10 -->
<g id="edge9" class="edge">
<title>Node9&#45;&gt;Node10</title>
<path fill="none" stroke="midnightblue" d="M205.14,-56.32C214.01,-48.34 227.37,-36.31 238.11,-26.65"/>
<polygon fill="midnightblue" stroke="midnightblue" points="240.59,-29.13 245.68,-19.83 235.91,-23.92 240.59,-29.13"/>
</g>
<!-- Node12 -->
<g id="node12" class="node">
<title>Node12</title>
<g id="a_node12"><a xlink:href="ADrawable_8hpp.html" target="_top" xlink:title=" ">
<polygon fill="white" stroke="black" points="567,-56.5 567,-75.5 760,-75.5 760,-56.5 567,-56.5"/>
<text text-anchor="middle" x="663.5" y="-63.5" font-family="Helvetica,sans-Serif" font-size="10.00">Common/Drawables/ADrawable.hpp</text>
</a>
</g>
</g>
<!-- Node11&#45;&gt;Node12 -->
<g id="edge11" class="edge">
<title>Node11&#45;&gt;Node12</title>
<path fill="none" stroke="midnightblue" d="M783.84,-112.44C760.1,-103.48 722.59,-89.31 695.76,-79.18"/>
<polygon fill="midnightblue" stroke="midnightblue" points="696.64,-75.77 686.05,-75.52 694.17,-82.32 696.64,-75.77"/>
</g>
<!-- Node12&#45;&gt;Node13 -->
<g id="edge12" class="edge">
<title>Node12&#45;&gt;Node13</title>
<path fill="none" stroke="midnightblue" d="M614.54,-56.44C553.34,-45.75 449.82,-27.66 393.63,-17.84"/>
<polygon fill="midnightblue" stroke="midnightblue" points="394.16,-14.38 383.71,-16.1 392.96,-21.27 394.16,-14.38"/>
</g>
<!-- Node14&#45;&gt;Node12 -->
<g id="edge14" class="edge">
<title>Node14&#45;&gt;Node12</title>
<path fill="none" stroke="midnightblue" d="M945.42,-112.44C886,-102.87 789.78,-87.36 726.57,-77.17"/>
<polygon fill="midnightblue" stroke="midnightblue" points="726.76,-73.65 716.33,-75.52 725.65,-80.56 726.76,-73.65"/>
</g>
<!-- Node15&#45;&gt;Node12 -->
<g id="edge16" class="edge">
<title>Node15&#45;&gt;Node12</title>
<path fill="none" stroke="midnightblue" d="M1110.95,-112.5C1014.94,-102.74 857.78,-86.76 757.56,-76.57"/>
<polygon fill="midnightblue" stroke="midnightblue" points="757.74,-73.07 747.44,-75.54 757.04,-80.03 757.74,-73.07"/>
</g>
<!-- Node16&#45;&gt;Node10 -->
<g id="edge19" class="edge">
<title>Node16&#45;&gt;Node10</title>
<path fill="none" stroke="midnightblue" d="M385.44,-112.37C361.45,-93.65 304.4,-49.15 274.51,-25.83"/>
<polygon fill="midnightblue" stroke="midnightblue" points="276.55,-22.98 266.51,-19.59 272.24,-28.5 276.55,-22.98"/>
</g>
<!-- Node16&#45;&gt;Node12 -->
<g id="edge18" class="edge">
<title>Node16&#45;&gt;Node12</title>
<path fill="none" stroke="midnightblue" d="M438.81,-112.44C485.58,-102.98 560.96,-87.74 611.35,-77.55"/>
<polygon fill="midnightblue" stroke="midnightblue" points="612.28,-80.93 621.39,-75.52 610.9,-74.07 612.28,-80.93"/>
</g>
<!-- Node17&#45;&gt;Node10 -->
<g id="edge22" class="edge">
<title>Node17&#45;&gt;Node10</title>
<path fill="none" stroke="midnightblue" d="M553.42,-112.46C495.32,-92.67 351.53,-43.7 287.34,-21.84"/>
<polygon fill="midnightblue" stroke="midnightblue" points="288.34,-18.49 277.74,-18.57 286.08,-25.11 288.34,-18.49"/>
</g>
<!-- Node17&#45;&gt;Node12 -->
<g id="edge21" class="edge">
<title>Node17&#45;&gt;Node12</title>
<path fill="none" stroke="midnightblue" d="M592.16,-112.32C605.42,-103.9 625.77,-90.97 641.35,-81.07"/>
<polygon fill="midnightblue" stroke="midnightblue" points="643.31,-83.97 649.88,-75.65 639.56,-78.06 643.31,-83.97"/>
</g>
<!-- Node19&#45;&gt;Node10 -->
<g id="edge25" class="edge">
<title>Node19&#45;&gt;Node10</title>
<path fill="none" stroke="midnightblue" d="M88.87,-56.44C125.75,-46.39 186.61,-29.79 223.68,-19.68"/>
<polygon fill="midnightblue" stroke="midnightblue" points="224.74,-23.02 233.47,-17.01 222.9,-16.26 224.74,-23.02"/>
</g>
<!-- Node21&#45;&gt;Node18 -->
<g id="edge29" class="edge">
<title>Node21&#45;&gt;Node18</title>
<path fill="none" stroke="midnightblue" d="M1404.84,-168.4C1398.36,-159.84 1390.07,-148.87 1383.25,-139.86"/>
<polygon fill="midnightblue" stroke="midnightblue" points="1385.87,-137.52 1377.05,-131.66 1380.29,-141.74 1385.87,-137.52"/>
</g>
<!-- Node22&#45;&gt;Node18 -->
<g id="edge31" class="edge">
<title>Node22&#45;&gt;Node18</title>
<path fill="none" stroke="midnightblue" d="M1022.67,-173.98C1096.53,-163.15 1223.78,-144.5 1302.18,-133.01"/>
<polygon fill="midnightblue" stroke="midnightblue" points="1303.05,-136.42 1312.44,-131.51 1302.04,-129.5 1303.05,-136.42"/>
</g>
<!-- Node23&#45;&gt;Node18 -->
<g id="edge33" class="edge">
<title>Node23&#45;&gt;Node18</title>
<path fill="none" stroke="midnightblue" d="M1211.15,-173.98C1243.47,-163.64 1298.1,-146.16 1334.23,-134.6"/>
<polygon fill="midnightblue" stroke="midnightblue" points="1335.44,-137.89 1343.9,-131.51 1333.31,-131.22 1335.44,-137.89"/>
</g>
</g>
</svg>
