<?xml version="1.0" encoding="UTF-8" standalone="no"?>
<!DOCTYPE svg PUBLIC "-//W3C//DTD SVG 1.1//EN"
 "http://www.w3.org/Graphics/SVG/1.1/DTD/svg11.dtd">
<!-- Generated by graphviz version 2.43.0 (0)
 -->
<!-- Title: sources/Common/Sound.hpp Pages: 1 -->
<svg width="1237pt" height="285pt"
 viewBox="0.00 0.00 1237.00 285.00" xmlns="http://www.w3.org/2000/svg" xmlns:xlink="http://www.w3.org/1999/xlink">
<g id="graph0" class="graph" transform="scale(1 1) rotate(0) translate(4 281)">
<title>sources/Common/Sound.hpp</title>
<polygon fill="white" stroke="transparent" points="-4,4 -4,-281 1233,-281 1233,4 -4,4"/>
<!-- Node1 -->
<g id="node1" class="node">
<title>Node1</title>
<g id="a_node1"><a xlink:title=" ">
<polygon fill="#bfbfbf" stroke="black" points="464,-257.5 464,-276.5 619,-276.5 619,-257.5 464,-257.5"/>
<text text-anchor="middle" x="541.5" y="-264.5" font-family="Helvetica,sans-Serif" font-size="10.00">sources/Common/Sound.hpp</text>
</a>
</g>
</g>
<!-- Node2 -->
<g id="node2" class="node">
<title>Node2</title>
<g id="a_node2"><a xlink:href="IDisplayModule_8hpp.html" target="_top" xlink:title=" ">
<polygon fill="white" stroke="black" points="284,-201.5 284,-220.5 485,-220.5 485,-201.5 284,-201.5"/>
<text text-anchor="middle" x="384.5" y="-208.5" font-family="Helvetica,sans-Serif" font-size="10.00">sources/Common/IDisplayModule.hpp</text>
</a>
</g>
</g>
<!-- Node1&#45;&gt;Node2 -->
<g id="edge1" class="edge">
<title>Node1&#45;&gt;Node2</title>
<path fill="none" stroke="midnightblue" d="M507.11,-254.17C477.55,-244 435.63,-229.59 409.26,-220.52"/>
<polygon fill="midnightblue" stroke="midnightblue" points="506.03,-257.5 516.62,-257.44 508.3,-250.88 506.03,-257.5"/>
</g>
<!-- Node14 -->
<g id="node14" class="node">
<title>Node14</title>
<g id="a_node14"><a xlink:href="IGameModule_8hpp.html" target="_top" xlink:title=" ">
<polygon fill="white" stroke="black" points="664.5,-201.5 664.5,-220.5 858.5,-220.5 858.5,-201.5 664.5,-201.5"/>
<text text-anchor="middle" x="761.5" y="-208.5" font-family="Helvetica,sans-Serif" font-size="10.00">sources/Common/IGameModule.hpp</text>
</a>
</g>
</g>
<!-- Node1&#45;&gt;Node14 -->
<g id="edge14" class="edge">
<title>Node1&#45;&gt;Node14</title>
<path fill="none" stroke="midnightblue" d="M586.22,-255.02C627.78,-244.82 688.81,-229.84 726.8,-220.52"/>
<polygon fill="midnightblue" stroke="midnightblue" points="585.24,-251.66 576.36,-257.44 586.91,-258.46 585.24,-251.66"/>
</g>
<!-- Node3 -->
<g id="node3" class="node">
<title>Node3</title>
<g id="a_node3"><a xlink:href="Runner_8hpp.html" target="_top" xlink:title=" ">
<polygon fill="white" stroke="black" points="552,-134.5 552,-164.5 669,-164.5 669,-134.5 552,-134.5"/>
<text text-anchor="start" x="560" y="-152.5" font-family="Helvetica,sans-Serif" font-size="10.00">sources/Core/Runner</text>
<text text-anchor="middle" x="610.5" y="-141.5" font-family="Helvetica,sans-Serif" font-size="10.00">/Runner.hpp</text>
</a>
</g>
</g>
<!-- Node2&#45;&gt;Node3 -->
<g id="edge2" class="edge">
<title>Node2&#45;&gt;Node3</title>
<path fill="none" stroke="midnightblue" d="M426.82,-198.86C463.72,-189.14 517.42,-175.01 557.24,-164.52"/>
<polygon fill="midnightblue" stroke="midnightblue" points="425.66,-195.54 416.88,-201.48 427.44,-202.31 425.66,-195.54"/>
</g>
<!-- Node8 -->
<g id="node8" class="node">
<title>Node8</title>
<g id="a_node8"><a xlink:href="NcursesDisplay_8hpp.html" target="_top" xlink:title=" ">
<polygon fill="white" stroke="black" points="306,-134.5 306,-164.5 463,-164.5 463,-134.5 306,-134.5"/>
<text text-anchor="start" x="314" y="-152.5" font-family="Helvetica,sans-Serif" font-size="10.00">sources/DisplayModules</text>
<text text-anchor="middle" x="384.5" y="-141.5" font-family="Helvetica,sans-Serif" font-size="10.00">/Ncurses/NcursesDisplay.hpp</text>
</a>
</g>
</g>
<!-- Node2&#45;&gt;Node8 -->
<g id="edge8" class="edge">
<title>Node2&#45;&gt;Node8</title>
<path fill="none" stroke="midnightblue" d="M384.5,-191.23C384.5,-182.59 384.5,-172.5 384.5,-164.52"/>
<polygon fill="midnightblue" stroke="midnightblue" points="381,-191.48 384.5,-201.48 388,-191.48 381,-191.48"/>
</g>
<!-- Node10 -->
<g id="node10" class="node">
<title>Node10</title>
<g id="a_node10"><a xlink:href="SDLDisplay_8hpp.html" target="_top" xlink:title=" ">
<polygon fill="white" stroke="black" points="0,-134.5 0,-164.5 135,-164.5 135,-134.5 0,-134.5"/>
<text text-anchor="start" x="8" y="-152.5" font-family="Helvetica,sans-Serif" font-size="10.00">sources/DisplayModules</text>
<text text-anchor="middle" x="67.5" y="-141.5" font-family="Helvetica,sans-Serif" font-size="10.00">/SDL/SDLDisplay.hpp</text>
</a>
</g>
</g>
<!-- Node2&#45;&gt;Node10 -->
<g id="edge10" class="edge">
<title>Node2&#45;&gt;Node10</title>
<path fill="none" stroke="midnightblue" d="M328.93,-199.59C280.29,-190.48 207.71,-176.88 144.5,-165 141.43,-164.42 138.28,-163.83 135.11,-163.23"/>
<polygon fill="midnightblue" stroke="midnightblue" points="328.46,-203.07 338.93,-201.47 329.75,-196.19 328.46,-203.07"/>
</g>
<!-- Node12 -->
<g id="node12" class="node">
<title>Node12</title>
<g id="a_node12"><a xlink:href="SFMLDisplay_8hpp.html" target="_top" xlink:title=" ">
<polygon fill="white" stroke="black" points="153,-134.5 153,-164.5 288,-164.5 288,-134.5 153,-134.5"/>
<text text-anchor="start" x="161" y="-152.5" font-family="Helvetica,sans-Serif" font-size="10.00">sources/DisplayModules</text>
<text text-anchor="middle" x="220.5" y="-141.5" font-family="Helvetica,sans-Serif" font-size="10.00">/SFML/SFMLDisplay.hpp</text>
</a>
</g>
</g>
<!-- Node2&#45;&gt;Node12 -->
<g id="edge12" class="edge">
<title>Node2&#45;&gt;Node12</title>
<path fill="none" stroke="midnightblue" d="M351.36,-197.98C324.69,-188.3 287.18,-174.69 259.15,-164.52"/>
<polygon fill="midnightblue" stroke="midnightblue" points="350.41,-201.35 361,-201.48 352.8,-194.77 350.41,-201.35"/>
</g>
<!-- Node4 -->
<g id="node4" class="node">
<title>Node4</title>
<g id="a_node4"><a xlink:href="Runner_8cpp.html" target="_top" xlink:title=" ">
<polygon fill="white" stroke="black" points="552,-0.5 552,-30.5 669,-30.5 669,-0.5 552,-0.5"/>
<text text-anchor="start" x="560" y="-18.5" font-family="Helvetica,sans-Serif" font-size="10.00">sources/Core/Runner</text>
<text text-anchor="middle" x="610.5" y="-7.5" font-family="Helvetica,sans-Serif" font-size="10.00">/Runner.cpp</text>
</a>
</g>
</g>
<!-- Node3&#45;&gt;Node4 -->
<g id="edge3" class="edge">
<title>Node3&#45;&gt;Node4</title>
<path fill="none" stroke="midnightblue" d="M610.5,-124.02C610.5,-96.51 610.5,-52.79 610.5,-30.52"/>
<polygon fill="midnightblue" stroke="midnightblue" points="607,-124.37 610.5,-134.37 614,-124.37 607,-124.37"/>
</g>
<!-- Node5 -->
<g id="node5" class="node">
<title>Node5</title>
<g id="a_node5"><a xlink:href="Menu_8hpp.html" target="_top" xlink:title=" ">
<polygon fill="white" stroke="black" points="638.5,-67.5 638.5,-97.5 760.5,-97.5 760.5,-67.5 638.5,-67.5"/>
<text text-anchor="start" x="646.5" y="-85.5" font-family="Helvetica,sans-Serif" font-size="10.00">sources/Games/Menu</text>
<text text-anchor="middle" x="699.5" y="-74.5" font-family="Helvetica,sans-Serif" font-size="10.00">/Menu.hpp</text>
</a>
</g>
</g>
<!-- Node3&#45;&gt;Node5 -->
<g id="edge4" class="edge">
<title>Node3&#45;&gt;Node5</title>
<path fill="none" stroke="midnightblue" d="M637.95,-128.45C651.64,-118.45 667.87,-106.6 680.23,-97.58"/>
<polygon fill="midnightblue" stroke="midnightblue" points="635.82,-125.67 629.81,-134.4 639.95,-131.32 635.82,-125.67"/>
</g>
<!-- Node7 -->
<g id="node7" class="node">
<title>Node7</title>
<g id="a_node7"><a xlink:href="main_8cpp.html" target="_top" xlink:title=" ">
<polygon fill="white" stroke="black" points="480.5,-73 480.5,-92 582.5,-92 582.5,-73 480.5,-73"/>
<text text-anchor="middle" x="531.5" y="-80" font-family="Helvetica,sans-Serif" font-size="10.00">sources/main.cpp</text>
</a>
</g>
</g>
<!-- Node3&#45;&gt;Node7 -->
<g id="edge7" class="edge">
<title>Node3&#45;&gt;Node7</title>
<path fill="none" stroke="midnightblue" d="M585.59,-128.01C570.93,-115.94 553.14,-101.3 542.07,-92.19"/>
<polygon fill="midnightblue" stroke="midnightblue" points="583.41,-130.75 593.36,-134.4 587.86,-125.34 583.41,-130.75"/>
</g>
<!-- Node5&#45;&gt;Node4 -->
<g id="edge5" class="edge">
<title>Node5&#45;&gt;Node4</title>
<path fill="none" stroke="midnightblue" d="M672.05,-61.45C658.36,-51.45 642.13,-39.6 629.77,-30.58"/>
<polygon fill="midnightblue" stroke="midnightblue" points="670.05,-64.32 680.19,-67.4 674.18,-58.67 670.05,-64.32"/>
</g>
<!-- Node6 -->
<g id="node6" class="node">
<title>Node6</title>
<g id="a_node6"><a xlink:href="Menu_8cpp.html" target="_top" xlink:title=" ">
<polygon fill="white" stroke="black" points="687.5,-0.5 687.5,-30.5 809.5,-30.5 809.5,-0.5 687.5,-0.5"/>
<text text-anchor="start" x="695.5" y="-18.5" font-family="Helvetica,sans-Serif" font-size="10.00">sources/Games/Menu</text>
<text text-anchor="middle" x="748.5" y="-7.5" font-family="Helvetica,sans-Serif" font-size="10.00">/Menu.cpp</text>
</a>
</g>
</g>
<!-- Node5&#45;&gt;Node6 -->
<g id="edge6" class="edge">
<title>Node5&#45;&gt;Node6</title>
<path fill="none" stroke="midnightblue" d="M716.34,-59.16C723.49,-49.68 731.6,-38.92 737.89,-30.58"/>
<polygon fill="midnightblue" stroke="midnightblue" points="713.36,-57.3 710.13,-67.4 718.95,-61.52 713.36,-57.3"/>
</g>
<!-- Node9 -->
<g id="node9" class="node">
<title>Node9</title>
<g id="a_node9"><a xlink:href="NcursesDisplay_8cpp.html" target="_top" xlink:title=" ">
<polygon fill="white" stroke="black" points="306.5,-67.5 306.5,-97.5 462.5,-97.5 462.5,-67.5 306.5,-67.5"/>
<text text-anchor="start" x="314.5" y="-85.5" font-family="Helvetica,sans-Serif" font-size="10.00">sources/DisplayModules</text>
<text text-anchor="middle" x="384.5" y="-74.5" font-family="Helvetica,sans-Serif" font-size="10.00">/Ncurses/NcursesDisplay.cpp</text>
</a>
</g>
</g>
<!-- Node8&#45;&gt;Node9 -->
<g id="edge9" class="edge">
<title>Node8&#45;&gt;Node9</title>
<path fill="none" stroke="midnightblue" d="M384.5,-124.11C384.5,-115.15 384.5,-105.32 384.5,-97.58"/>
<polygon fill="midnightblue" stroke="midnightblue" points="381,-124.4 384.5,-134.4 388,-124.4 381,-124.4"/>
</g>
<!-- Node11 -->
<g id="node11" class="node">
<title>Node11</title>
<g id="a_node11"><a xlink:href="SDLDisplay_8cpp.html" target="_top" xlink:title=" ">
<polygon fill="white" stroke="black" points="0,-67.5 0,-97.5 135,-97.5 135,-67.5 0,-67.5"/>
<text text-anchor="start" x="8" y="-85.5" font-family="Helvetica,sans-Serif" font-size="10.00">sources/DisplayModules</text>
<text text-anchor="middle" x="67.5" y="-74.5" font-family="Helvetica,sans-Serif" font-size="10.00">/SDL/SDLDisplay.cpp</text>
</a>
</g>
</g>
<!-- Node10&#45;&gt;Node11 -->
<g id="edge11" class="edge">
<title>Node10&#45;&gt;Node11</title>
<path fill="none" stroke="midnightblue" d="M67.5,-124.11C67.5,-115.15 67.5,-105.32 67.5,-97.58"/>
<polygon fill="midnightblue" stroke="midnightblue" points="64,-124.4 67.5,-134.4 71,-124.4 64,-124.4"/>
</g>
<!-- Node13 -->
<g id="node13" class="node">
<title>Node13</title>
<g id="a_node13"><a xlink:href="SFMLDisplay_8cpp.html" target="_top" xlink:title=" ">
<polygon fill="white" stroke="black" points="153,-67.5 153,-97.5 288,-97.5 288,-67.5 153,-67.5"/>
<text text-anchor="start" x="161" y="-85.5" font-family="Helvetica,sans-Serif" font-size="10.00">sources/DisplayModules</text>
<text text-anchor="middle" x="220.5" y="-74.5" font-family="Helvetica,sans-Serif" font-size="10.00">/SFML/SFMLDisplay.cpp</text>
</a>
</g>
</g>
<!-- Node12&#45;&gt;Node13 -->
<g id="edge13" class="edge">
<title>Node12&#45;&gt;Node13</title>
<path fill="none" stroke="midnightblue" d="M220.5,-124.11C220.5,-115.15 220.5,-105.32 220.5,-97.58"/>
<polygon fill="midnightblue" stroke="midnightblue" points="217,-124.4 220.5,-134.4 224,-124.4 217,-124.4"/>
</g>
<!-- Node14&#45;&gt;Node3 -->
<g id="edge15" class="edge">
<title>Node14&#45;&gt;Node3</title>
<path fill="none" stroke="midnightblue" d="M730.33,-197.72C705.83,-188.06 671.67,-174.6 646.09,-164.52"/>
<polygon fill="midnightblue" stroke="midnightblue" points="729.28,-201.07 739.87,-201.48 731.84,-194.55 729.28,-201.07"/>
</g>
<!-- Node14&#45;&gt;Node5 -->
<g id="edge16" class="edge">
<title>Node14&#45;&gt;Node5</title>
<path fill="none" stroke="midnightblue" d="M752.74,-192.13C740.35,-166.84 717.94,-121.12 706.55,-97.89"/>
<polygon fill="midnightblue" stroke="midnightblue" points="749.69,-193.87 757.24,-201.31 755.98,-190.79 749.69,-193.87"/>
</g>
<!-- Node15 -->
<g id="node15" class="node">
<title>Node15</title>
<g id="a_node15"><a xlink:href="Nibbler_8hpp.html" target="_top" xlink:title=" ">
<polygon fill="white" stroke="black" points="755.5,-134.5 755.5,-164.5 885.5,-164.5 885.5,-134.5 755.5,-134.5"/>
<text text-anchor="start" x="763.5" y="-152.5" font-family="Helvetica,sans-Serif" font-size="10.00">sources/Games/Nibbler</text>
<text text-anchor="middle" x="820.5" y="-141.5" font-family="Helvetica,sans-Serif" font-size="10.00">/Nibbler.hpp</text>
</a>
</g>
</g>
<!-- Node14&#45;&gt;Node15 -->
<g id="edge17" class="edge">
<title>Node14&#45;&gt;Node15</title>
<path fill="none" stroke="midnightblue" d="M777,-194.37C786.18,-185.11 797.71,-173.48 806.59,-164.52"/>
<polygon fill="midnightblue" stroke="midnightblue" points="774.51,-191.91 769.95,-201.48 779.48,-196.84 774.51,-191.91"/>
</g>
<!-- Node17 -->
<g id="node17" class="node">
<title>Node17</title>
<g id="a_node17"><a xlink:href="Pacman_8hpp.html" target="_top" xlink:title=" ">
<polygon fill="white" stroke="black" points="916,-134.5 916,-164.5 1049,-164.5 1049,-134.5 916,-134.5"/>
<text text-anchor="start" x="924" y="-152.5" font-family="Helvetica,sans-Serif" font-size="10.00">sources/Games/Pacman</text>
<text text-anchor="middle" x="982.5" y="-141.5" font-family="Helvetica,sans-Serif" font-size="10.00">/Pacman.hpp</text>
</a>
</g>
</g>
<!-- Node14&#45;&gt;Node17 -->
<g id="edge19" class="edge">
<title>Node14&#45;&gt;Node17</title>
<path fill="none" stroke="midnightblue" d="M802.88,-198.86C838.96,-189.14 891.48,-175.01 930.41,-164.52"/>
<polygon fill="midnightblue" stroke="midnightblue" points="801.91,-195.5 793.16,-201.48 803.73,-202.25 801.91,-195.5"/>
</g>
<!-- Node19 -->
<g id="node19" class="node">
<title>Node19</title>
<g id="a_node19"><a xlink:href="Qix_8hpp.html" target="_top" xlink:title=" ">
<polygon fill="white" stroke="black" points="1073.5,-140 1073.5,-159 1225.5,-159 1225.5,-140 1073.5,-140"/>
<text text-anchor="middle" x="1149.5" y="-147" font-family="Helvetica,sans-Serif" font-size="10.00">sources/Games/Qix/Qix.hpp</text>
</a>
</g>
</g>
<!-- Node14&#45;&gt;Node19 -->
<g id="edge21" class="edge">
<title>Node14&#45;&gt;Node19</title>
<path fill="none" stroke="midnightblue" d="M828.87,-199.94C889.08,-190.92 979.7,-177.25 1058.5,-165 1070.83,-163.08 1084.09,-160.99 1096.58,-159"/>
<polygon fill="midnightblue" stroke="midnightblue" points="828.1,-196.52 818.73,-201.46 829.14,-203.44 828.1,-196.52"/>
</g>
<!-- Node16 -->
<g id="node16" class="node">
<title>Node16</title>
<g id="a_node16"><a xlink:href="Nibbler_8cpp.html" target="_top" xlink:title=" ">
<polygon fill="white" stroke="black" points="778.5,-67.5 778.5,-97.5 908.5,-97.5 908.5,-67.5 778.5,-67.5"/>
<text text-anchor="start" x="786.5" y="-85.5" font-family="Helvetica,sans-Serif" font-size="10.00">sources/Games/Nibbler</text>
<text text-anchor="middle" x="843.5" y="-74.5" font-family="Helvetica,sans-Serif" font-size="10.00">/Nibbler.cpp</text>
</a>
</g>
</g>
<!-- Node15&#45;&gt;Node16 -->
<g id="edge18" class="edge">
<title>Node15&#45;&gt;Node16</title>
<path fill="none" stroke="midnightblue" d="M828.92,-124.7C832.15,-115.59 835.72,-105.49 838.52,-97.58"/>
<polygon fill="midnightblue" stroke="midnightblue" points="825.53,-123.8 825.49,-134.4 832.13,-126.14 825.53,-123.8"/>
</g>
<!-- Node18 -->
<g id="node18" class="node">
<title>Node18</title>
<g id="a_node18"><a xlink:href="Pacman_8cpp.html" target="_top" xlink:title=" ">
<polygon fill="white" stroke="black" points="927,-67.5 927,-97.5 1060,-97.5 1060,-67.5 927,-67.5"/>
<text text-anchor="start" x="935" y="-85.5" font-family="Helvetica,sans-Serif" font-size="10.00">sources/Games/Pacman</text>
<text text-anchor="middle" x="993.5" y="-74.5" font-family="Helvetica,sans-Serif" font-size="10.00">/Pacman.cpp</text>
</a>
</g>
</g>
<!-- Node17&#45;&gt;Node18 -->
<g id="edge20" class="edge">
<title>Node17&#45;&gt;Node18</title>
<path fill="none" stroke="midnightblue" d="M986.58,-124.4C988.11,-115.37 989.79,-105.41 991.12,-97.58"/>
<polygon fill="midnightblue" stroke="midnightblue" points="983.1,-123.95 984.89,-134.4 990.01,-125.12 983.1,-123.95"/>
</g>
<!-- Node20 -->
<g id="node20" class="node">
<title>Node20</title>
<g id="a_node20"><a xlink:href="Qix_8cpp.html" target="_top" xlink:title=" ">
<polygon fill="white" stroke="black" points="1078,-73 1078,-92 1229,-92 1229,-73 1078,-73"/>
<text text-anchor="middle" x="1153.5" y="-80" font-family="Helvetica,sans-Serif" font-size="10.00">sources/Games/Qix/Qix.cpp</text>
</a>
</g>
</g>
<!-- Node19&#45;&gt;Node20 -->
<g id="edge22" class="edge">
<title>Node19&#45;&gt;Node20</title>
<path fill="none" stroke="midnightblue" d="M1150.67,-129.54C1151.43,-117.17 1152.38,-101.62 1152.97,-92.13"/>
<polygon fill="midnightblue" stroke="midnightblue" points="1147.16,-129.54 1150.04,-139.73 1154.15,-129.97 1147.16,-129.54"/>
</g>
</g>
</svg>
