<?xml version="1.0" encoding="UTF-8" standalone="no"?>
<!DOCTYPE svg PUBLIC "-//W3C//DTD SVG 1.1//EN"
 "http://www.w3.org/Graphics/SVG/1.1/DTD/svg11.dtd">
<!-- Generated by graphviz version 2.43.0 (0)
 -->
<!-- Title: sources/Common/Drawables/Sprite.hpp Pages: 1 -->
<svg width="264pt" height="151pt"
 viewBox="0.00 0.00 263.50 151.00" xmlns="http://www.w3.org/2000/svg" xmlns:xlink="http://www.w3.org/1999/xlink">
<g id="graph0" class="graph" transform="scale(1 1) rotate(0) translate(4 147)">
<title>sources/Common/Drawables/Sprite.hpp</title>
<polygon fill="white" stroke="transparent" points="-4,4 -4,-147 259.5,-147 259.5,4 -4,4"/>
<!-- Node1 -->
<g id="node1" class="node">
<title>Node1</title>
<g id="a_node1"><a xlink:title=" ">
<polygon fill="#bfbfbf" stroke="black" points="86.5,-112.5 86.5,-142.5 242.5,-142.5 242.5,-112.5 86.5,-112.5"/>
<text text-anchor="start" x="94.5" y="-130.5" font-family="Helvetica,sans-Serif" font-size="10.00">sources/Common/Drawables</text>
<text text-anchor="middle" x="164.5" y="-119.5" font-family="Helvetica,sans-Serif" font-size="10.00">/Sprite.hpp</text>
</a>
</g>
</g>
<!-- Node2 -->
<g id="node2" class="node">
<title>Node2</title>
<g id="a_node2"><a xlink:href="ADrawable_8hpp.html" target="_top" xlink:title=" ">
<polygon fill="white" stroke="black" points="0,-56.5 0,-75.5 193,-75.5 193,-56.5 0,-56.5"/>
<text text-anchor="middle" x="96.5" y="-63.5" font-family="Helvetica,sans-Serif" font-size="10.00">Common/Drawables/ADrawable.hpp</text>
</a>
</g>
</g>
<!-- Node1&#45;&gt;Node2 -->
<g id="edge1" class="edge">
<title>Node1&#45;&gt;Node2</title>
<path fill="none" stroke="midnightblue" d="M148.38,-112.4C138.1,-103.4 124.75,-91.72 114.17,-82.47"/>
<polygon fill="midnightblue" stroke="midnightblue" points="116.23,-79.61 106.39,-75.66 111.62,-84.88 116.23,-79.61"/>
</g>
<!-- Node4 -->
<g id="node4" class="node">
<title>Node4</title>
<g id="a_node4"><a xlink:title=" ">
<polygon fill="white" stroke="#bfbfbf" points="211.5,-56.5 211.5,-75.5 255.5,-75.5 255.5,-56.5 211.5,-56.5"/>
<text text-anchor="middle" x="233.5" y="-63.5" font-family="Helvetica,sans-Serif" font-size="10.00">string</text>
</a>
</g>
</g>
<!-- Node1&#45;&gt;Node4 -->
<g id="edge3" class="edge">
<title>Node1&#45;&gt;Node4</title>
<path fill="none" stroke="midnightblue" d="M180.85,-112.4C191.4,-103.31 205.1,-91.49 215.88,-82.19"/>
<polygon fill="midnightblue" stroke="midnightblue" points="218.17,-84.84 223.46,-75.66 213.6,-79.54 218.17,-84.84"/>
</g>
<!-- Node3 -->
<g id="node3" class="node">
<title>Node3</title>
<g id="a_node3"><a xlink:title=" ">
<polygon fill="white" stroke="#bfbfbf" points="67.5,-0.5 67.5,-19.5 125.5,-19.5 125.5,-0.5 67.5,-0.5"/>
<text text-anchor="middle" x="96.5" y="-7.5" font-family="Helvetica,sans-Serif" font-size="10.00">memory</text>
</a>
</g>
</g>
<!-- Node2&#45;&gt;Node3 -->
<g id="edge2" class="edge">
<title>Node2&#45;&gt;Node3</title>
<path fill="none" stroke="midnightblue" d="M96.5,-56.08C96.5,-49.01 96.5,-38.86 96.5,-29.99"/>
<polygon fill="midnightblue" stroke="midnightblue" points="100,-29.75 96.5,-19.75 93,-29.75 100,-29.75"/>
</g>
</g>
</svg>
