<?xml version="1.0" encoding="UTF-8" standalone="no"?>
<!DOCTYPE svg PUBLIC "-//W3C//DTD SVG 1.1//EN"
 "http://www.w3.org/Graphics/SVG/1.1/DTD/svg11.dtd">
<!-- Generated by graphviz version 2.43.0 (0)
 -->
<!-- Title: Arcade::Drawables::Text Pages: 1 -->
<svg width="142pt" height="226pt"
 viewBox="0.00 0.00 142.00 226.00" xmlns="http://www.w3.org/2000/svg" xmlns:xlink="http://www.w3.org/1999/xlink">
<g id="graph0" class="graph" transform="scale(1 1) rotate(0) translate(4 222)">
<title>Arcade::Drawables::Text</title>
<polygon fill="white" stroke="transparent" points="-4,4 -4,-222 138,-222 138,4 -4,4"/>
<!-- Node1 -->
<g id="node1" class="node">
<title>Node1</title>
<g id="a_node1"><a xlink:title="A text object.">
<polygon fill="#bfbfbf" stroke="black" points="0,-0.5 0,-79.5 134,-79.5 134,-0.5 0,-0.5"/>
<text text-anchor="middle" x="67" y="-67.5" font-family="Helvetica,sans-Serif" font-size="10.00">Arcade::Drawables::Text</text>
<polyline fill="none" stroke="black" points="0,-60.5 134,-60.5 "/>
<text text-anchor="start" x="8" y="-48.5" font-family="Helvetica,sans-Serif" font-size="10.00">+ text</text>
<text text-anchor="start" x="8" y="-37.5" font-family="Helvetica,sans-Serif" font-size="10.00">+ fontSize</text>
<text text-anchor="start" x="8" y="-26.5" font-family="Helvetica,sans-Serif" font-size="10.00">+ path</text>
<polyline fill="none" stroke="black" points="0,-19.5 134,-19.5 "/>
<text text-anchor="middle" x="67" y="-7.5" font-family="Helvetica,sans-Serif" font-size="10.00"> </text>
</a>
</g>
</g>
<!-- Node2 -->
<g id="node2" class="node">
<title>Node2</title>
<g id="a_node2"><a xlink:href="structArcade_1_1Drawables_1_1ADrawable.html" target="_top" xlink:title="A base struct for every objects in the game.">
<polygon fill="white" stroke="black" points="10,-116.5 10,-217.5 124,-217.5 124,-116.5 10,-116.5"/>
<text text-anchor="start" x="18" y="-205.5" font-family="Helvetica,sans-Serif" font-size="10.00">Arcade::Drawables::</text>
<text text-anchor="middle" x="67" y="-194.5" font-family="Helvetica,sans-Serif" font-size="10.00">ADrawable</text>
<polyline fill="none" stroke="black" points="10,-187.5 124,-187.5 "/>
<text text-anchor="start" x="18" y="-175.5" font-family="Helvetica,sans-Serif" font-size="10.00">+ x</text>
<text text-anchor="start" x="18" y="-164.5" font-family="Helvetica,sans-Serif" font-size="10.00">+ y</text>
<text text-anchor="start" x="18" y="-153.5" font-family="Helvetica,sans-Serif" font-size="10.00">+ color</text>
<text text-anchor="start" x="18" y="-142.5" font-family="Helvetica,sans-Serif" font-size="10.00">+ fallback</text>
<polyline fill="none" stroke="black" points="10,-135.5 124,-135.5 "/>
<text text-anchor="start" x="18" y="-123.5" font-family="Helvetica,sans-Serif" font-size="10.00">+ ~ADrawable()</text>
</a>
</g>
</g>
<!-- Node2&#45;&gt;Node1 -->
<g id="edge1" class="edge">
<title>Node2&#45;&gt;Node1</title>
<path fill="none" stroke="midnightblue" d="M67,-106.19C67,-97.22 67,-88.18 67,-79.81"/>
<polygon fill="none" stroke="midnightblue" points="63.5,-106.24 67,-116.24 70.5,-106.24 63.5,-106.24"/>
</g>
</g>
</svg>
