<?xml version="1.0" encoding="UTF-8" standalone="no"?>
<!DOCTYPE svg PUBLIC "-//W3C//DTD SVG 1.1//EN"
 "http://www.w3.org/Graphics/SVG/1.1/DTD/svg11.dtd">
<!-- Generated by graphviz version 2.43.0 (0)
 -->
<!-- Title: Arcade::Pacman::Pacman::Ghost Pages: 1 -->
<svg width="147pt" height="365pt"
 viewBox="0.00 0.00 147.00 365.00" xmlns="http://www.w3.org/2000/svg" xmlns:xlink="http://www.w3.org/1999/xlink">
<g id="graph0" class="graph" transform="scale(1 1) rotate(0) translate(4 361)">
<title>Arcade::Pacman::Pacman::Ghost</title>
<polygon fill="white" stroke="transparent" points="-4,4 -4,-361 143,-361 143,4 -4,4"/>
<!-- Node1 -->
<g id="node1" class="node">
<title>Node1</title>
<g id="a_node1"><a xlink:title="The ghost struct.">
<polygon fill="#bfbfbf" stroke="black" points="0,-0.5 0,-68.5 139,-68.5 139,-0.5 0,-0.5"/>
<text text-anchor="start" x="8" y="-56.5" font-family="Helvetica,sans-Serif" font-size="10.00">Arcade::Pacman::Pacman</text>
<text text-anchor="middle" x="69.5" y="-45.5" font-family="Helvetica,sans-Serif" font-size="10.00">::Ghost</text>
<polyline fill="none" stroke="black" points="0,-38.5 139,-38.5 "/>
<text text-anchor="start" x="8" y="-26.5" font-family="Helvetica,sans-Serif" font-size="10.00">+ speed</text>
<polyline fill="none" stroke="black" points="0,-19.5 139,-19.5 "/>
<text text-anchor="middle" x="69.5" y="-7.5" font-family="Helvetica,sans-Serif" font-size="10.00"> </text>
</a>
</g>
</g>
<!-- Node2 -->
<g id="node2" class="node">
<title>Node2</title>
<g id="a_node2"><a xlink:href="structArcade_1_1Drawables_1_1Sprite.html" target="_top" xlink:title="A Sprite game object.">
<polygon fill="white" stroke="black" points="12.5,-116.5 12.5,-217.5 126.5,-217.5 126.5,-116.5 12.5,-116.5"/>
<text text-anchor="start" x="20.5" y="-205.5" font-family="Helvetica,sans-Serif" font-size="10.00">Arcade::Drawables::</text>
<text text-anchor="middle" x="69.5" y="-194.5" font-family="Helvetica,sans-Serif" font-size="10.00">Sprite</text>
<polyline fill="none" stroke="black" points="12.5,-187.5 126.5,-187.5 "/>
<text text-anchor="start" x="20.5" y="-175.5" font-family="Helvetica,sans-Serif" font-size="10.00">+ sizeX</text>
<text text-anchor="start" x="20.5" y="-164.5" font-family="Helvetica,sans-Serif" font-size="10.00">+ sizeY</text>
<text text-anchor="start" x="20.5" y="-153.5" font-family="Helvetica,sans-Serif" font-size="10.00">+ rotation</text>
<text text-anchor="start" x="20.5" y="-142.5" font-family="Helvetica,sans-Serif" font-size="10.00">+ path</text>
<polyline fill="none" stroke="black" points="12.5,-135.5 126.5,-135.5 "/>
<text text-anchor="middle" x="69.5" y="-123.5" font-family="Helvetica,sans-Serif" font-size="10.00"> </text>
</a>
</g>
</g>
<!-- Node2&#45;&gt;Node1 -->
<g id="edge1" class="edge">
<title>Node2&#45;&gt;Node1</title>
<path fill="none" stroke="#404040" d="M69.5,-116.29C69.5,-104.55 69.5,-92.09 69.5,-80.57"/>
<polygon fill="none" stroke="#404040" points="69.5,-80.51 65.5,-74.51 69.5,-68.51 73.5,-74.51 69.5,-80.51"/>
<text text-anchor="middle" x="98" y="-90" font-family="Helvetica,sans-Serif" font-size="10.00"> +drawable</text>
</g>
<!-- Node3 -->
<g id="node3" class="node">
<title>Node3</title>
<g id="a_node3"><a xlink:href="structArcade_1_1Drawables_1_1ADrawable.html" target="_top" xlink:title="A base struct for every objects in the game.">
<polygon fill="white" stroke="black" points="12.5,-255.5 12.5,-356.5 126.5,-356.5 126.5,-255.5 12.5,-255.5"/>
<text text-anchor="start" x="20.5" y="-344.5" font-family="Helvetica,sans-Serif" font-size="10.00">Arcade::Drawables::</text>
<text text-anchor="middle" x="69.5" y="-333.5" font-family="Helvetica,sans-Serif" font-size="10.00">ADrawable</text>
<polyline fill="none" stroke="black" points="12.5,-326.5 126.5,-326.5 "/>
<text text-anchor="start" x="20.5" y="-314.5" font-family="Helvetica,sans-Serif" font-size="10.00">+ x</text>
<text text-anchor="start" x="20.5" y="-303.5" font-family="Helvetica,sans-Serif" font-size="10.00">+ y</text>
<text text-anchor="start" x="20.5" y="-292.5" font-family="Helvetica,sans-Serif" font-size="10.00">+ color</text>
<text text-anchor="start" x="20.5" y="-281.5" font-family="Helvetica,sans-Serif" font-size="10.00">+ fallback</text>
<polyline fill="none" stroke="black" points="12.5,-274.5 126.5,-274.5 "/>
<text text-anchor="start" x="20.5" y="-262.5" font-family="Helvetica,sans-Serif" font-size="10.00">+ ~ADrawable()</text>
</a>
</g>
</g>
<!-- Node3&#45;&gt;Node2 -->
<g id="edge2" class="edge">
<title>Node3&#45;&gt;Node2</title>
<path fill="none" stroke="midnightblue" d="M69.5,-244.95C69.5,-235.81 69.5,-226.47 69.5,-217.58"/>
<polygon fill="none" stroke="midnightblue" points="66,-245.15 69.5,-255.15 73,-245.15 66,-245.15"/>
</g>
</g>
</svg>
