<?xml version="1.0" encoding="UTF-8" standalone="no"?>
<!DOCTYPE svg PUBLIC "-//W3C//DTD SVG 1.1//EN"
 "http://www.w3.org/Graphics/SVG/1.1/DTD/svg11.dtd">
<!-- Generated by graphviz version 2.43.0 (0)
 -->
<!-- Title: Arcade::Event Pages: 1 -->
<svg width="493pt" height="193pt"
 viewBox="0.00 0.00 493.00 193.00" xmlns="http://www.w3.org/2000/svg" xmlns:xlink="http://www.w3.org/1999/xlink">
<g id="graph0" class="graph" transform="scale(1 1) rotate(0) translate(4 189)">
<title>Arcade::Event</title>
<polygon fill="white" stroke="transparent" points="-4,4 -4,-189 489,-189 489,4 -4,4"/>
<!-- Node1 -->
<g id="node1" class="node">
<title>Node1</title>
<g id="a_node1"><a xlink:title="An empty event used as a base class.">
<polygon fill="#bfbfbf" stroke="black" points="193.5,-127.5 193.5,-184.5 277.5,-184.5 277.5,-127.5 193.5,-127.5"/>
<text text-anchor="middle" x="235.5" y="-172.5" font-family="Helvetica,sans-Serif" font-size="10.00">Arcade::Event</text>
<polyline fill="none" stroke="black" points="193.5,-165.5 277.5,-165.5 "/>
<text text-anchor="start" x="201.5" y="-153.5" font-family="Helvetica,sans-Serif" font-size="10.00">+ type</text>
<polyline fill="none" stroke="black" points="193.5,-146.5 277.5,-146.5 "/>
<text text-anchor="start" x="201.5" y="-134.5" font-family="Helvetica,sans-Serif" font-size="10.00">+ ~Event()</text>
</a>
</g>
</g>
<!-- Node2 -->
<g id="node2" class="node">
<title>Node2</title>
<g id="a_node2"><a xlink:href="structArcade_1_1Events_1_1KeyboardEvent.html" target="_top" xlink:title="Event of a keyboard interaction.">
<polygon fill="white" stroke="black" points="0,-11.5 0,-79.5 141,-79.5 141,-11.5 0,-11.5"/>
<text text-anchor="start" x="8" y="-67.5" font-family="Helvetica,sans-Serif" font-size="10.00">Arcade::Events::Keyboard</text>
<text text-anchor="middle" x="70.5" y="-56.5" font-family="Helvetica,sans-Serif" font-size="10.00">Event</text>
<polyline fill="none" stroke="black" points="0,-49.5 141,-49.5 "/>
<text text-anchor="start" x="8" y="-37.5" font-family="Helvetica,sans-Serif" font-size="10.00">+ key</text>
<polyline fill="none" stroke="black" points="0,-30.5 141,-30.5 "/>
<text text-anchor="middle" x="70.5" y="-18.5" font-family="Helvetica,sans-Serif" font-size="10.00"> </text>
</a>
</g>
</g>
<!-- Node1&#45;&gt;Node2 -->
<g id="edge1" class="edge">
<title>Node1&#45;&gt;Node2</title>
<path fill="none" stroke="midnightblue" d="M184.91,-121.73C164.52,-108.32 141.06,-92.9 120.71,-79.52"/>
<polygon fill="none" stroke="midnightblue" points="183.16,-124.77 193.44,-127.34 187,-118.92 183.16,-124.77"/>
</g>
<!-- Node3 -->
<g id="node3" class="node">
<title>Node3</title>
<g id="a_node3"><a xlink:href="structArcade_1_1Events_1_1MouseClickEvent.html" target="_top" xlink:title="Event called after the mouse clicked (KeyDown, Hold or KeyUp)">
<polygon fill="white" stroke="black" points="159.5,-0.5 159.5,-90.5 311.5,-90.5 311.5,-0.5 159.5,-0.5"/>
<text text-anchor="start" x="167.5" y="-78.5" font-family="Helvetica,sans-Serif" font-size="10.00">Arcade::Events::MouseClick</text>
<text text-anchor="middle" x="235.5" y="-67.5" font-family="Helvetica,sans-Serif" font-size="10.00">Event</text>
<polyline fill="none" stroke="black" points="159.5,-60.5 311.5,-60.5 "/>
<text text-anchor="start" x="167.5" y="-48.5" font-family="Helvetica,sans-Serif" font-size="10.00">+ x</text>
<text text-anchor="start" x="167.5" y="-37.5" font-family="Helvetica,sans-Serif" font-size="10.00">+ y</text>
<text text-anchor="start" x="167.5" y="-26.5" font-family="Helvetica,sans-Serif" font-size="10.00">+ button</text>
<polyline fill="none" stroke="black" points="159.5,-19.5 311.5,-19.5 "/>
<text text-anchor="middle" x="235.5" y="-7.5" font-family="Helvetica,sans-Serif" font-size="10.00"> </text>
</a>
</g>
</g>
<!-- Node1&#45;&gt;Node3 -->
<g id="edge2" class="edge">
<title>Node1&#45;&gt;Node3</title>
<path fill="none" stroke="midnightblue" d="M235.5,-117.21C235.5,-108.61 235.5,-99.39 235.5,-90.55"/>
<polygon fill="none" stroke="midnightblue" points="232,-117.34 235.5,-127.34 239,-117.34 232,-117.34"/>
</g>
<!-- Node4 -->
<g id="node4" class="node">
<title>Node4</title>
<g id="a_node4"><a xlink:href="structArcade_1_1Events_1_1MouseMoveEvent.html" target="_top" xlink:title="Event called when the mouse moved.">
<polygon fill="white" stroke="black" points="330,-6 330,-85 485,-85 485,-6 330,-6"/>
<text text-anchor="start" x="338" y="-73" font-family="Helvetica,sans-Serif" font-size="10.00">Arcade::Events::MouseMove</text>
<text text-anchor="middle" x="407.5" y="-62" font-family="Helvetica,sans-Serif" font-size="10.00">Event</text>
<polyline fill="none" stroke="black" points="330,-55 485,-55 "/>
<text text-anchor="start" x="338" y="-43" font-family="Helvetica,sans-Serif" font-size="10.00">+ x</text>
<text text-anchor="start" x="338" y="-32" font-family="Helvetica,sans-Serif" font-size="10.00">+ y</text>
<polyline fill="none" stroke="black" points="330,-25 485,-25 "/>
<text text-anchor="middle" x="407.5" y="-13" font-family="Helvetica,sans-Serif" font-size="10.00"> </text>
</a>
</g>
</g>
<!-- Node1&#45;&gt;Node4 -->
<g id="edge3" class="edge">
<title>Node1&#45;&gt;Node4</title>
<path fill="none" stroke="midnightblue" d="M286.05,-123.11C304.94,-111.19 326.61,-97.53 346.36,-85.07"/>
<polygon fill="none" stroke="midnightblue" points="284.17,-120.16 277.58,-128.46 287.9,-126.08 284.17,-120.16"/>
</g>
</g>
</svg>
