<?xml version="1.0" encoding="UTF-8" standalone="no"?>
<!DOCTYPE svg PUBLIC "-//W3C//DTD SVG 1.1//EN"
 "http://www.w3.org/Graphics/SVG/1.1/DTD/svg11.dtd">
<!-- Generated by graphviz version 2.43.0 (0)
 -->
<!-- Title: Arcade::Drawables::Sprite Pages: 1 -->
<svg width="122pt" height="248pt"
 viewBox="0.00 0.00 122.00 248.00" xmlns="http://www.w3.org/2000/svg" xmlns:xlink="http://www.w3.org/1999/xlink">
<g id="graph0" class="graph" transform="scale(1 1) rotate(0) translate(4 244)">
<title>Arcade::Drawables::Sprite</title>
<polygon fill="white" stroke="transparent" points="-4,4 -4,-244 118,-244 118,4 -4,4"/>
<!-- Node1 -->
<g id="node1" class="node">
<title>Node1</title>
<g id="a_node1"><a xlink:title="A Sprite game object.">
<polygon fill="#bfbfbf" stroke="black" points="0,-0.5 0,-101.5 114,-101.5 114,-0.5 0,-0.5"/>
<text text-anchor="start" x="8" y="-89.5" font-family="Helvetica,sans-Serif" font-size="10.00">Arcade::Drawables::</text>
<text text-anchor="middle" x="57" y="-78.5" font-family="Helvetica,sans-Serif" font-size="10.00">Sprite</text>
<polyline fill="none" stroke="black" points="0,-71.5 114,-71.5 "/>
<text text-anchor="start" x="8" y="-59.5" font-family="Helvetica,sans-Serif" font-size="10.00">+ sizeX</text>
<text text-anchor="start" x="8" y="-48.5" font-family="Helvetica,sans-Serif" font-size="10.00">+ sizeY</text>
<text text-anchor="start" x="8" y="-37.5" font-family="Helvetica,sans-Serif" font-size="10.00">+ rotation</text>
<text text-anchor="start" x="8" y="-26.5" font-family="Helvetica,sans-Serif" font-size="10.00">+ path</text>
<polyline fill="none" stroke="black" points="0,-19.5 114,-19.5 "/>
<text text-anchor="middle" x="57" y="-7.5" font-family="Helvetica,sans-Serif" font-size="10.00"> </text>
</a>
</g>
</g>
<!-- Node2 -->
<g id="node2" class="node">
<title>Node2</title>
<g id="a_node2"><a xlink:href="structArcade_1_1Drawables_1_1ADrawable.html" target="_top" xlink:title="A base struct for every objects in the game.">
<polygon fill="white" stroke="black" points="0,-138.5 0,-239.5 114,-239.5 114,-138.5 0,-138.5"/>
<text text-anchor="start" x="8" y="-227.5" font-family="Helvetica,sans-Serif" font-size="10.00">Arcade::Drawables::</text>
<text text-anchor="middle" x="57" y="-216.5" font-family="Helvetica,sans-Serif" font-size="10.00">ADrawable</text>
<polyline fill="none" stroke="black" points="0,-209.5 114,-209.5 "/>
<text text-anchor="start" x="8" y="-197.5" font-family="Helvetica,sans-Serif" font-size="10.00">+ x</text>
<text text-anchor="start" x="8" y="-186.5" font-family="Helvetica,sans-Serif" font-size="10.00">+ y</text>
<text text-anchor="start" x="8" y="-175.5" font-family="Helvetica,sans-Serif" font-size="10.00">+ color</text>
<text text-anchor="start" x="8" y="-164.5" font-family="Helvetica,sans-Serif" font-size="10.00">+ fallback</text>
<polyline fill="none" stroke="black" points="0,-157.5 114,-157.5 "/>
<text text-anchor="start" x="8" y="-145.5" font-family="Helvetica,sans-Serif" font-size="10.00">+ ~ADrawable()</text>
</a>
</g>
</g>
<!-- Node2&#45;&gt;Node1 -->
<g id="edge1" class="edge">
<title>Node2&#45;&gt;Node1</title>
<path fill="none" stroke="midnightblue" d="M57,-128C57,-119.27 57,-110.36 57,-101.86"/>
<polygon fill="none" stroke="midnightblue" points="53.5,-128.13 57,-138.13 60.5,-128.13 53.5,-128.13"/>
</g>
</g>
</svg>
