<?xml version="1.0" encoding="UTF-8" standalone="no"?>
<!DOCTYPE svg PUBLIC "-//W3C//DTD SVG 1.1//EN"
 "http://www.w3.org/Graphics/SVG/1.1/DTD/svg11.dtd">
<!-- Generated by graphviz version 2.43.0 (0)
 -->
<!-- Title: Arcade::Drawables::ADrawable Pages: 1 -->
<svg width="690pt" height="248pt"
 viewBox="0.00 0.00 690.00 248.00" xmlns="http://www.w3.org/2000/svg" xmlns:xlink="http://www.w3.org/1999/xlink">
<g id="graph0" class="graph" transform="scale(1 1) rotate(0) translate(4 244)">
<title>Arcade::Drawables::ADrawable</title>
<polygon fill="white" stroke="transparent" points="-4,4 -4,-244 686,-244 686,4 -4,4"/>
<!-- Node1 -->
<g id="node1" class="node">
<title>Node1</title>
<g id="a_node1"><a xlink:title="A base struct for every objects in the game.">
<polygon fill="#bfbfbf" stroke="black" points="284,-138.5 284,-239.5 398,-239.5 398,-138.5 284,-138.5"/>
<text text-anchor="start" x="292" y="-227.5" font-family="Helvetica,sans-Serif" font-size="10.00">Arcade::Drawables::</text>
<text text-anchor="middle" x="341" y="-216.5" font-family="Helvetica,sans-Serif" font-size="10.00">ADrawable</text>
<polyline fill="none" stroke="black" points="284,-209.5 398,-209.5 "/>
<text text-anchor="start" x="292" y="-197.5" font-family="Helvetica,sans-Serif" font-size="10.00">+ x</text>
<text text-anchor="start" x="292" y="-186.5" font-family="Helvetica,sans-Serif" font-size="10.00">+ y</text>
<text text-anchor="start" x="292" y="-175.5" font-family="Helvetica,sans-Serif" font-size="10.00">+ color</text>
<text text-anchor="start" x="292" y="-164.5" font-family="Helvetica,sans-Serif" font-size="10.00">+ fallback</text>
<polyline fill="none" stroke="black" points="284,-157.5 398,-157.5 "/>
<text text-anchor="start" x="292" y="-145.5" font-family="Helvetica,sans-Serif" font-size="10.00">+ ~ADrawable()</text>
</a>
</g>
</g>
<!-- Node2 -->
<g id="node2" class="node">
<title>Node2</title>
<g id="a_node2"><a xlink:href="structArcade_1_1Drawables_1_1Circle.html" target="_top" xlink:title="A circle game objecct.">
<polygon fill="white" stroke="black" points="0,-17 0,-85 114,-85 114,-17 0,-17"/>
<text text-anchor="start" x="8" y="-73" font-family="Helvetica,sans-Serif" font-size="10.00">Arcade::Drawables::</text>
<text text-anchor="middle" x="57" y="-62" font-family="Helvetica,sans-Serif" font-size="10.00">Circle</text>
<polyline fill="none" stroke="black" points="0,-55 114,-55 "/>
<text text-anchor="start" x="8" y="-43" font-family="Helvetica,sans-Serif" font-size="10.00">+ size</text>
<polyline fill="none" stroke="black" points="0,-36 114,-36 "/>
<text text-anchor="middle" x="57" y="-24" font-family="Helvetica,sans-Serif" font-size="10.00"> </text>
</a>
</g>
</g>
<!-- Node1&#45;&gt;Node2 -->
<g id="edge1" class="edge">
<title>Node1&#45;&gt;Node2</title>
<path fill="none" stroke="midnightblue" d="M274.47,-167.06C230.16,-151.85 171.41,-129.21 123,-102 114.23,-97.07 105.32,-91.1 97,-85.02"/>
<polygon fill="none" stroke="midnightblue" points="273.39,-170.39 283.99,-170.29 275.64,-163.76 273.39,-170.39"/>
</g>
<!-- Node3 -->
<g id="node3" class="node">
<title>Node3</title>
<g id="a_node3"><a xlink:href="structArcade_1_1Drawables_1_1Line.html" target="_top" xlink:title="A line.">
<polygon fill="white" stroke="black" points="132,-17 132,-85 266,-85 266,-17 132,-17"/>
<text text-anchor="middle" x="199" y="-73" font-family="Helvetica,sans-Serif" font-size="10.00">Arcade::Drawables::Line</text>
<polyline fill="none" stroke="black" points="132,-66 266,-66 "/>
<text text-anchor="start" x="140" y="-54" font-family="Helvetica,sans-Serif" font-size="10.00">+ endX</text>
<text text-anchor="start" x="140" y="-43" font-family="Helvetica,sans-Serif" font-size="10.00">+ endY</text>
<polyline fill="none" stroke="black" points="132,-36 266,-36 "/>
<text text-anchor="middle" x="199" y="-24" font-family="Helvetica,sans-Serif" font-size="10.00"> </text>
</a>
</g>
</g>
<!-- Node1&#45;&gt;Node3 -->
<g id="edge2" class="edge">
<title>Node1&#45;&gt;Node3</title>
<path fill="none" stroke="midnightblue" d="M281.53,-131.04C265.27,-115.47 248.18,-99.1 233.79,-85.32"/>
<polygon fill="none" stroke="midnightblue" points="279.29,-133.74 288.93,-138.13 284.13,-128.69 279.29,-133.74"/>
</g>
<!-- Node4 -->
<g id="node4" class="node">
<title>Node4</title>
<g id="a_node4"><a xlink:href="structArcade_1_1Drawables_1_1Rectangle.html" target="_top" xlink:title="A rectangle object.">
<polygon fill="white" stroke="black" points="284,-11.5 284,-90.5 398,-90.5 398,-11.5 284,-11.5"/>
<text text-anchor="start" x="292" y="-78.5" font-family="Helvetica,sans-Serif" font-size="10.00">Arcade::Drawables::</text>
<text text-anchor="middle" x="341" y="-67.5" font-family="Helvetica,sans-Serif" font-size="10.00">Rectangle</text>
<polyline fill="none" stroke="black" points="284,-60.5 398,-60.5 "/>
<text text-anchor="start" x="292" y="-48.5" font-family="Helvetica,sans-Serif" font-size="10.00">+ endX</text>
<text text-anchor="start" x="292" y="-37.5" font-family="Helvetica,sans-Serif" font-size="10.00">+ endY</text>
<polyline fill="none" stroke="black" points="284,-30.5 398,-30.5 "/>
<text text-anchor="middle" x="341" y="-18.5" font-family="Helvetica,sans-Serif" font-size="10.00"> </text>
</a>
</g>
</g>
<!-- Node1&#45;&gt;Node4 -->
<g id="edge3" class="edge">
<title>Node1&#45;&gt;Node4</title>
<path fill="none" stroke="midnightblue" d="M341,-128.1C341,-115.45 341,-102.41 341,-90.79"/>
<polygon fill="none" stroke="midnightblue" points="337.5,-128.13 341,-138.13 344.5,-128.13 337.5,-128.13"/>
</g>
<!-- Node5 -->
<g id="node5" class="node">
<title>Node5</title>
<g id="a_node5"><a xlink:href="structArcade_1_1Drawables_1_1Sprite.html" target="_top" xlink:title="A Sprite game object.">
<polygon fill="white" stroke="black" points="416,-0.5 416,-101.5 530,-101.5 530,-0.5 416,-0.5"/>
<text text-anchor="start" x="424" y="-89.5" font-family="Helvetica,sans-Serif" font-size="10.00">Arcade::Drawables::</text>
<text text-anchor="middle" x="473" y="-78.5" font-family="Helvetica,sans-Serif" font-size="10.00">Sprite</text>
<polyline fill="none" stroke="black" points="416,-71.5 530,-71.5 "/>
<text text-anchor="start" x="424" y="-59.5" font-family="Helvetica,sans-Serif" font-size="10.00">+ sizeX</text>
<text text-anchor="start" x="424" y="-48.5" font-family="Helvetica,sans-Serif" font-size="10.00">+ sizeY</text>
<text text-anchor="start" x="424" y="-37.5" font-family="Helvetica,sans-Serif" font-size="10.00">+ rotation</text>
<text text-anchor="start" x="424" y="-26.5" font-family="Helvetica,sans-Serif" font-size="10.00">+ path</text>
<polyline fill="none" stroke="black" points="416,-19.5 530,-19.5 "/>
<text text-anchor="middle" x="473" y="-7.5" font-family="Helvetica,sans-Serif" font-size="10.00"> </text>
</a>
</g>
</g>
<!-- Node1&#45;&gt;Node5 -->
<g id="edge4" class="edge">
<title>Node1&#45;&gt;Node5</title>
<path fill="none" stroke="midnightblue" d="M396.48,-130.84C405.82,-121.21 415.46,-111.29 424.6,-101.86"/>
<polygon fill="none" stroke="midnightblue" points="393.86,-128.52 389.4,-138.13 398.88,-133.39 393.86,-128.52"/>
</g>
<!-- Node6 -->
<g id="node6" class="node">
<title>Node6</title>
<g id="a_node6"><a xlink:href="structArcade_1_1Drawables_1_1Text.html" target="_top" xlink:title="A text object.">
<polygon fill="white" stroke="black" points="548,-11.5 548,-90.5 682,-90.5 682,-11.5 548,-11.5"/>
<text text-anchor="middle" x="615" y="-78.5" font-family="Helvetica,sans-Serif" font-size="10.00">Arcade::Drawables::Text</text>
<polyline fill="none" stroke="black" points="548,-71.5 682,-71.5 "/>
<text text-anchor="start" x="556" y="-59.5" font-family="Helvetica,sans-Serif" font-size="10.00">+ text</text>
<text text-anchor="start" x="556" y="-48.5" font-family="Helvetica,sans-Serif" font-size="10.00">+ fontSize</text>
<text text-anchor="start" x="556" y="-37.5" font-family="Helvetica,sans-Serif" font-size="10.00">+ path</text>
<polyline fill="none" stroke="black" points="548,-30.5 682,-30.5 "/>
<text text-anchor="middle" x="615" y="-18.5" font-family="Helvetica,sans-Serif" font-size="10.00"> </text>
</a>
</g>
</g>
<!-- Node1&#45;&gt;Node6 -->
<g id="edge5" class="edge">
<title>Node1&#45;&gt;Node6</title>
<path fill="none" stroke="midnightblue" d="M407.81,-162.34C446.84,-146.52 496.61,-124.93 539,-102 545.53,-98.47 552.22,-94.55 558.8,-90.5"/>
<polygon fill="none" stroke="midnightblue" points="406.1,-159.25 398.12,-166.23 408.71,-165.75 406.1,-159.25"/>
</g>
</g>
</svg>
