<?xml version="1.0" encoding="UTF-8" standalone="no"?>
<!DOCTYPE svg PUBLIC "-//W3C//DTD SVG 1.1//EN"
 "http://www.w3.org/Graphics/SVG/1.1/DTD/svg11.dtd">
<!-- Generated by graphviz version 2.46.1 (0)
 -->
<!-- Title: Arcade::IGameModule Pages: 1 -->
<svg width="122pt" height="248pt"
 viewBox="0.00 0.00 122.00 248.00" xmlns="http://www.w3.org/2000/svg" xmlns:xlink="http://www.w3.org/1999/xlink">
<g id="graph0" class="graph" transform="scale(1 1) rotate(0) translate(4 244)">
<title>Arcade::IGameModule</title>
<polygon fill="white" stroke="transparent" points="-4,4 -4,-244 118,-244 118,4 -4,4"/>
<!-- Node1 -->
<g id="node1" class="node">
<title>Node1</title>
<g id="a_node1"><a xlink:title="The interface of all games.">
<polygon fill="#bfbfbf" stroke="black" points="0,-0.5 0,-112.5 114,-112.5 114,-0.5 0,-0.5"/>
<text text-anchor="middle" x="57" y="-100.5" font-family="Helvetica,sans-Serif" font-size="10.00">Arcade::IGameModule</text>
<polyline fill="none" stroke="black" points="0,-93.5 114,-93.5 "/>
<text text-anchor="middle" x="57" y="-81.5" font-family="Helvetica,sans-Serif" font-size="10.00"> </text>
<polyline fill="none" stroke="black" points="0,-74.5 114,-74.5 "/>
<text text-anchor="start" x="8" y="-62.5" font-family="Helvetica,sans-Serif" font-size="10.00">+ ~IGameModule()</text>
<text text-anchor="start" x="8" y="-51.5" font-family="Helvetica,sans-Serif" font-size="10.00">+ getObjects()</text>
<text text-anchor="start" x="8" y="-40.5" font-family="Helvetica,sans-Serif" font-size="10.00">+ addTicks()</text>
<text text-anchor="start" x="8" y="-29.5" font-family="Helvetica,sans-Serif" font-size="10.00">+ restart()</text>
<text text-anchor="start" x="8" y="-18.5" font-family="Helvetica,sans-Serif" font-size="10.00">+ handleEvent()</text>
<text text-anchor="start" x="8" y="-7.5" font-family="Helvetica,sans-Serif" font-size="10.00">+ getScore()</text>
</a>
</g>
</g>
<!-- Node2 -->
<g id="node2" class="node">
<title>Node2</title>
<g id="a_node2"><a xlink:href="classArcade_1_1IModule.html" target="_top" xlink:title="A base module interface.">
<polygon fill="white" stroke="black" points="13,-149.5 13,-239.5 101,-239.5 101,-149.5 13,-149.5"/>
<text text-anchor="middle" x="57" y="-227.5" font-family="Helvetica,sans-Serif" font-size="10.00">Arcade::IModule</text>
<polyline fill="none" stroke="black" points="13,-220.5 101,-220.5 "/>
<text text-anchor="middle" x="57" y="-208.5" font-family="Helvetica,sans-Serif" font-size="10.00"> </text>
<polyline fill="none" stroke="black" points="13,-201.5 101,-201.5 "/>
<text text-anchor="start" x="21" y="-189.5" font-family="Helvetica,sans-Serif" font-size="10.00">+ ~IModule()</text>
<text text-anchor="start" x="21" y="-178.5" font-family="Helvetica,sans-Serif" font-size="10.00">+ init()</text>
<text text-anchor="start" x="21" y="-167.5" font-family="Helvetica,sans-Serif" font-size="10.00">+ close()</text>
<text text-anchor="start" x="21" y="-156.5" font-family="Helvetica,sans-Serif" font-size="10.00">+ shouldClose()</text>
</a>
</g>
</g>
<!-- Node2&#45;&gt;Node1 -->
<g id="edge1" class="edge">
<title>Node2&#45;&gt;Node1</title>
<path fill="none" stroke="midnightblue" d="M57,-139.31C57,-130.61 57,-121.59 57,-112.87"/>
<polygon fill="none" stroke="midnightblue" points="53.5,-139.34 57,-149.34 60.5,-139.34 53.5,-139.34"/>
</g>
</g>
</svg>
