<?xml version="1.0" encoding="UTF-8" standalone="no"?>
<!DOCTYPE svg PUBLIC "-//W3C//DTD SVG 1.1//EN"
 "http://www.w3.org/Graphics/SVG/1.1/DTD/svg11.dtd">
<!-- Generated by graphviz version 2.46.1 (0)
 -->
<!-- Title: Arcade::IModule Pages: 1 -->
<svg width="262pt" height="595pt"
 viewBox="0.00 0.00 261.50 595.00" xmlns="http://www.w3.org/2000/svg" xmlns:xlink="http://www.w3.org/1999/xlink">
<g id="graph0" class="graph" transform="scale(1 1) rotate(0) translate(4 591)">
<title>Arcade::IModule</title>
<polygon fill="white" stroke="transparent" points="-4,4 -4,-591 257.5,-591 257.5,4 -4,4"/>
<!-- Node1 -->
<g id="node1" class="node">
<title>Node1</title>
<g id="a_node1"><a xlink:title="A base module interface.">
<polygon fill="#bfbfbf" stroke="black" points="84.5,-496.5 84.5,-586.5 172.5,-586.5 172.5,-496.5 84.5,-496.5"/>
<text text-anchor="middle" x="128.5" y="-574.5" font-family="Helvetica,sans-Serif" font-size="10.00">Arcade::IModule</text>
<polyline fill="none" stroke="black" points="84.5,-567.5 172.5,-567.5 "/>
<text text-anchor="middle" x="128.5" y="-555.5" font-family="Helvetica,sans-Serif" font-size="10.00"> </text>
<polyline fill="none" stroke="black" points="84.5,-548.5 172.5,-548.5 "/>
<text text-anchor="start" x="92.5" y="-536.5" font-family="Helvetica,sans-Serif" font-size="10.00">+ ~IModule()</text>
<text text-anchor="start" x="92.5" y="-525.5" font-family="Helvetica,sans-Serif" font-size="10.00">+ init()</text>
<text text-anchor="start" x="92.5" y="-514.5" font-family="Helvetica,sans-Serif" font-size="10.00">+ close()</text>
<text text-anchor="start" x="92.5" y="-503.5" font-family="Helvetica,sans-Serif" font-size="10.00">+ shouldClose()</text>
</a>
</g>
</g>
<!-- Node2 -->
<g id="node2" class="node">
<title>Node2</title>
<g id="a_node2"><a xlink:href="classArcade_1_1IDisplayModule.html" target="_top" xlink:title="The interface of every display modules.">
<polygon fill="white" stroke="black" points="0,-325.5 0,-459.5 121,-459.5 121,-325.5 0,-325.5"/>
<text text-anchor="middle" x="60.5" y="-447.5" font-family="Helvetica,sans-Serif" font-size="10.00">Arcade::IDisplayModule</text>
<polyline fill="none" stroke="black" points="0,-440.5 121,-440.5 "/>
<text text-anchor="middle" x="60.5" y="-428.5" font-family="Helvetica,sans-Serif" font-size="10.00"> </text>
<polyline fill="none" stroke="black" points="0,-421.5 121,-421.5 "/>
<text text-anchor="start" x="8" y="-409.5" font-family="Helvetica,sans-Serif" font-size="10.00">+ ~IDisplayModule()</text>
<text text-anchor="start" x="8" y="-398.5" font-family="Helvetica,sans-Serif" font-size="10.00">+ pullEvents()</text>
<text text-anchor="start" x="8" y="-387.5" font-family="Helvetica,sans-Serif" font-size="10.00">+ drawLine()</text>
<text text-anchor="start" x="8" y="-376.5" font-family="Helvetica,sans-Serif" font-size="10.00">+ drawRectangle()</text>
<text text-anchor="start" x="8" y="-365.5" font-family="Helvetica,sans-Serif" font-size="10.00">+ drawCircle()</text>
<text text-anchor="start" x="8" y="-354.5" font-family="Helvetica,sans-Serif" font-size="10.00">+ drawSprite()</text>
<text text-anchor="start" x="8" y="-343.5" font-family="Helvetica,sans-Serif" font-size="10.00">+ drawText()</text>
<text text-anchor="start" x="8" y="-332.5" font-family="Helvetica,sans-Serif" font-size="10.00">+ refresh()</text>
</a>
</g>
</g>
<!-- Node1&#45;&gt;Node2 -->
<g id="edge1" class="edge">
<title>Node1&#45;&gt;Node2</title>
<path fill="none" stroke="midnightblue" d="M103.86,-487.23C99.71,-478.25 95.35,-468.84 91.07,-459.59"/>
<polygon fill="none" stroke="midnightblue" points="100.72,-488.79 108.1,-496.4 107.08,-485.85 100.72,-488.79"/>
</g>
<!-- Node4 -->
<g id="node4" class="node">
<title>Node4</title>
<g id="a_node4"><a xlink:href="classArcade_1_1IGameModule.html" target="_top" xlink:title="The interface of all games.">
<polygon fill="white" stroke="black" points="139.5,-336.5 139.5,-448.5 253.5,-448.5 253.5,-336.5 139.5,-336.5"/>
<text text-anchor="middle" x="196.5" y="-436.5" font-family="Helvetica,sans-Serif" font-size="10.00">Arcade::IGameModule</text>
<polyline fill="none" stroke="black" points="139.5,-429.5 253.5,-429.5 "/>
<text text-anchor="middle" x="196.5" y="-417.5" font-family="Helvetica,sans-Serif" font-size="10.00"> </text>
<polyline fill="none" stroke="black" points="139.5,-410.5 253.5,-410.5 "/>
<text text-anchor="start" x="147.5" y="-398.5" font-family="Helvetica,sans-Serif" font-size="10.00">+ ~IGameModule()</text>
<text text-anchor="start" x="147.5" y="-387.5" font-family="Helvetica,sans-Serif" font-size="10.00">+ getObjects()</text>
<text text-anchor="start" x="147.5" y="-376.5" font-family="Helvetica,sans-Serif" font-size="10.00">+ addTicks()</text>
<text text-anchor="start" x="147.5" y="-365.5" font-family="Helvetica,sans-Serif" font-size="10.00">+ restart()</text>
<text text-anchor="start" x="147.5" y="-354.5" font-family="Helvetica,sans-Serif" font-size="10.00">+ handleEvent()</text>
<text text-anchor="start" x="147.5" y="-343.5" font-family="Helvetica,sans-Serif" font-size="10.00">+ getScore()</text>
</a>
</g>
</g>
<!-- Node1&#45;&gt;Node4 -->
<g id="edge3" class="edge">
<title>Node1&#45;&gt;Node4</title>
<path fill="none" stroke="midnightblue" d="M153.25,-487C159.04,-474.48 165.23,-461.11 171.05,-448.52"/>
<polygon fill="none" stroke="midnightblue" points="149.92,-485.85 148.9,-496.4 156.28,-488.79 149.92,-485.85"/>
</g>
<!-- Node3 -->
<g id="node3" class="node">
<title>Node3</title>
<g id="a_node3"><a xlink:href="classArcade_1_1SDLDisplay.html" target="_top" xlink:title="Implementation of the SDL Graphic Library.">
<polygon fill="white" stroke="black" points="7.5,-0.5 7.5,-288.5 113.5,-288.5 113.5,-0.5 7.5,-0.5"/>
<text text-anchor="middle" x="60.5" y="-276.5" font-family="Helvetica,sans-Serif" font-size="10.00">Arcade::SDLDisplay</text>
<polyline fill="none" stroke="black" points="7.5,-269.5 113.5,-269.5 "/>
<text text-anchor="start" x="15.5" y="-257.5" font-family="Helvetica,sans-Serif" font-size="10.00">&#45; _window</text>
<text text-anchor="start" x="15.5" y="-246.5" font-family="Helvetica,sans-Serif" font-size="10.00">&#45; _windowRenderer</text>
<text text-anchor="start" x="15.5" y="-235.5" font-family="Helvetica,sans-Serif" font-size="10.00">&#45; _windowHeight</text>
<text text-anchor="start" x="15.5" y="-224.5" font-family="Helvetica,sans-Serif" font-size="10.00">&#45; _windowWidth</text>
<text text-anchor="start" x="15.5" y="-213.5" font-family="Helvetica,sans-Serif" font-size="10.00">&#45; _windowTitle</text>
<text text-anchor="start" x="15.5" y="-202.5" font-family="Helvetica,sans-Serif" font-size="10.00">&#45; _shouldClose</text>
<text text-anchor="start" x="15.5" y="-191.5" font-family="Helvetica,sans-Serif" font-size="10.00">&#45; _loadedTextures</text>
<polyline fill="none" stroke="black" points="7.5,-184.5 113.5,-184.5 "/>
<text text-anchor="start" x="15.5" y="-172.5" font-family="Helvetica,sans-Serif" font-size="10.00">+ SDLDisplay()</text>
<text text-anchor="start" x="15.5" y="-161.5" font-family="Helvetica,sans-Serif" font-size="10.00">+ ~SDLDisplay()</text>
<text text-anchor="start" x="15.5" y="-150.5" font-family="Helvetica,sans-Serif" font-size="10.00">+ SDLDisplay()</text>
<text text-anchor="start" x="15.5" y="-139.5" font-family="Helvetica,sans-Serif" font-size="10.00">+ operator=()</text>
<text text-anchor="start" x="15.5" y="-128.5" font-family="Helvetica,sans-Serif" font-size="10.00">+ init()</text>
<text text-anchor="start" x="15.5" y="-117.5" font-family="Helvetica,sans-Serif" font-size="10.00">+ close()</text>
<text text-anchor="start" x="15.5" y="-106.5" font-family="Helvetica,sans-Serif" font-size="10.00">+ shouldClose()</text>
<text text-anchor="start" x="15.5" y="-95.5" font-family="Helvetica,sans-Serif" font-size="10.00">+ pullEvents()</text>
<text text-anchor="start" x="15.5" y="-84.5" font-family="Helvetica,sans-Serif" font-size="10.00">+ drawLine()</text>
<text text-anchor="start" x="15.5" y="-73.5" font-family="Helvetica,sans-Serif" font-size="10.00">+ drawRectangle()</text>
<text text-anchor="start" x="15.5" y="-62.5" font-family="Helvetica,sans-Serif" font-size="10.00">+ drawCircle()</text>
<text text-anchor="start" x="15.5" y="-51.5" font-family="Helvetica,sans-Serif" font-size="10.00">+ drawSprite()</text>
<text text-anchor="start" x="15.5" y="-40.5" font-family="Helvetica,sans-Serif" font-size="10.00">+ refresh()</text>
<text text-anchor="start" x="15.5" y="-29.5" font-family="Helvetica,sans-Serif" font-size="10.00">&#45; setRendererColor()</text>
<text text-anchor="start" x="15.5" y="-18.5" font-family="Helvetica,sans-Serif" font-size="10.00">&#45; createKeyEvent()</text>
<text text-anchor="start" x="15.5" y="-7.5" font-family="Helvetica,sans-Serif" font-size="10.00">&#45; createClickEvent()</text>
</a>
</g>
</g>
<!-- Node2&#45;&gt;Node3 -->
<g id="edge2" class="edge">
<title>Node2&#45;&gt;Node3</title>
<path fill="none" stroke="midnightblue" d="M60.5,-315.06C60.5,-306.55 60.5,-297.68 60.5,-288.68"/>
<polygon fill="none" stroke="midnightblue" points="57,-315.25 60.5,-325.25 64,-315.25 57,-315.25"/>
</g>
</g>
</svg>
