<?xml version="1.0" encoding="UTF-8" standalone="no"?>
<!DOCTYPE svg PUBLIC "-//W3C//DTD SVG 1.1//EN"
 "http://www.w3.org/Graphics/SVG/1.1/DTD/svg11.dtd">
<!-- Generated by graphviz version 2.46.1 (0)
 -->
<!-- Title: Arcade::GameObject Pages: 1 -->
<svg width="645pt" height="303pt"
 viewBox="0.00 0.00 645.00 303.00" xmlns="http://www.w3.org/2000/svg" xmlns:xlink="http://www.w3.org/1999/xlink">
<g id="graph0" class="graph" transform="scale(1 1) rotate(0) translate(4 299)">
<title>Arcade::GameObject</title>
<polygon fill="white" stroke="transparent" points="-4,4 -4,-299 641,-299 641,4 -4,4"/>
<!-- Node1 -->
<g id="node1" class="node">
<title>Node1</title>
<g id="a_node1"><a xlink:title="A base class for every objects in the game.">
<polygon fill="#bfbfbf" stroke="black" points="264.5,-182.5 264.5,-294.5 372.5,-294.5 372.5,-182.5 264.5,-182.5"/>
<text text-anchor="middle" x="318.5" y="-282.5" font-family="Helvetica,sans-Serif" font-size="10.00">Arcade::GameObject</text>
<polyline fill="none" stroke="black" points="264.5,-275.5 372.5,-275.5 "/>
<text text-anchor="start" x="272.5" y="-263.5" font-family="Helvetica,sans-Serif" font-size="10.00">+ x</text>
<text text-anchor="start" x="272.5" y="-252.5" font-family="Helvetica,sans-Serif" font-size="10.00">+ y</text>
<text text-anchor="start" x="272.5" y="-241.5" font-family="Helvetica,sans-Serif" font-size="10.00">+ color</text>
<polyline fill="none" stroke="black" points="264.5,-234.5 372.5,-234.5 "/>
<text text-anchor="start" x="272.5" y="-222.5" font-family="Helvetica,sans-Serif" font-size="10.00">+ GameObject()</text>
<text text-anchor="start" x="272.5" y="-211.5" font-family="Helvetica,sans-Serif" font-size="10.00">+ GameObject()</text>
<text text-anchor="start" x="272.5" y="-200.5" font-family="Helvetica,sans-Serif" font-size="10.00">+ ~GameObject()</text>
<text text-anchor="start" x="272.5" y="-189.5" font-family="Helvetica,sans-Serif" font-size="10.00">+ operator=()</text>
</a>
</g>
</g>
<!-- Node2 -->
<g id="node2" class="node">
<title>Node2</title>
<g id="a_node2"><a xlink:href="classArcade_1_1GameObjects_1_1CircleObject.html" target="_top" xlink:title="A circle game objecct.">
<polygon fill="white" stroke="black" points="0,-22.5 0,-123.5 113,-123.5 113,-22.5 0,-22.5"/>
<text text-anchor="start" x="8" y="-111.5" font-family="Helvetica,sans-Serif" font-size="10.00">Arcade::GameObjects</text>
<text text-anchor="middle" x="56.5" y="-100.5" font-family="Helvetica,sans-Serif" font-size="10.00">::CircleObject</text>
<polyline fill="none" stroke="black" points="0,-93.5 113,-93.5 "/>
<text text-anchor="start" x="8" y="-81.5" font-family="Helvetica,sans-Serif" font-size="10.00">+ size</text>
<polyline fill="none" stroke="black" points="0,-74.5 113,-74.5 "/>
<text text-anchor="start" x="8" y="-62.5" font-family="Helvetica,sans-Serif" font-size="10.00">+ CircleObject()</text>
<text text-anchor="start" x="8" y="-51.5" font-family="Helvetica,sans-Serif" font-size="10.00">+ CircleObject()</text>
<text text-anchor="start" x="8" y="-40.5" font-family="Helvetica,sans-Serif" font-size="10.00">+ ~CircleObject()</text>
<text text-anchor="start" x="8" y="-29.5" font-family="Helvetica,sans-Serif" font-size="10.00">+ operator=()</text>
</a>
</g>
</g>
<!-- Node1&#45;&gt;Node2 -->
<g id="edge1" class="edge">
<title>Node1&#45;&gt;Node2</title>
<path fill="none" stroke="midnightblue" d="M254.84,-215.49C214.42,-199.75 162.24,-176.05 121.5,-146 112.69,-139.5 104.17,-131.66 96.35,-123.58"/>
<polygon fill="none" stroke="midnightblue" points="253.73,-218.81 264.32,-219.12 256.24,-212.28 253.73,-218.81"/>
</g>
<!-- Node3 -->
<g id="node3" class="node">
<title>Node3</title>
<g id="a_node3"><a xlink:href="classArcade_1_1GameObjects_1_1LineObject.html" target="_top" xlink:title="A base class for every objects in the game.">
<polygon fill="white" stroke="black" points="131,-17 131,-129 244,-129 244,-17 131,-17"/>
<text text-anchor="start" x="139" y="-117" font-family="Helvetica,sans-Serif" font-size="10.00">Arcade::GameObjects</text>
<text text-anchor="middle" x="187.5" y="-106" font-family="Helvetica,sans-Serif" font-size="10.00">::LineObject</text>
<polyline fill="none" stroke="black" points="131,-99 244,-99 "/>
<text text-anchor="start" x="139" y="-87" font-family="Helvetica,sans-Serif" font-size="10.00">+ endX</text>
<text text-anchor="start" x="139" y="-76" font-family="Helvetica,sans-Serif" font-size="10.00">+ endY</text>
<polyline fill="none" stroke="black" points="131,-69 244,-69 "/>
<text text-anchor="start" x="139" y="-57" font-family="Helvetica,sans-Serif" font-size="10.00">+ LineObject()</text>
<text text-anchor="start" x="139" y="-46" font-family="Helvetica,sans-Serif" font-size="10.00">+ LineObject()</text>
<text text-anchor="start" x="139" y="-35" font-family="Helvetica,sans-Serif" font-size="10.00">+ ~LineObject()</text>
<text text-anchor="start" x="139" y="-24" font-family="Helvetica,sans-Serif" font-size="10.00">+ operator=()</text>
</a>
</g>
</g>
<!-- Node1&#45;&gt;Node3 -->
<g id="edge2" class="edge">
<title>Node1&#45;&gt;Node3</title>
<path fill="none" stroke="midnightblue" d="M267.62,-174C255.73,-159.15 243.15,-143.46 231.58,-129.02"/>
<polygon fill="none" stroke="midnightblue" points="265.17,-176.53 274.15,-182.15 270.63,-172.15 265.17,-176.53"/>
</g>
<!-- Node4 -->
<g id="node4" class="node">
<title>Node4</title>
<g id="a_node4"><a xlink:href="classArcade_1_1GameObjects_1_1RectangleObject.html" target="_top" xlink:title="A rectangle object.">
<polygon fill="white" stroke="black" points="262,-17 262,-129 375,-129 375,-17 262,-17"/>
<text text-anchor="start" x="270" y="-117" font-family="Helvetica,sans-Serif" font-size="10.00">Arcade::GameObjects</text>
<text text-anchor="middle" x="318.5" y="-106" font-family="Helvetica,sans-Serif" font-size="10.00">::RectangleObject</text>
<polyline fill="none" stroke="black" points="262,-99 375,-99 "/>
<text text-anchor="start" x="270" y="-87" font-family="Helvetica,sans-Serif" font-size="10.00">+ endX</text>
<text text-anchor="start" x="270" y="-76" font-family="Helvetica,sans-Serif" font-size="10.00">+ endY</text>
<polyline fill="none" stroke="black" points="262,-69 375,-69 "/>
<text text-anchor="start" x="270" y="-57" font-family="Helvetica,sans-Serif" font-size="10.00">+ RectangleObject()</text>
<text text-anchor="start" x="270" y="-46" font-family="Helvetica,sans-Serif" font-size="10.00">+ RectangleObject()</text>
<text text-anchor="start" x="270" y="-35" font-family="Helvetica,sans-Serif" font-size="10.00">+ ~RectangleObject()</text>
<text text-anchor="start" x="270" y="-24" font-family="Helvetica,sans-Serif" font-size="10.00">+ operator=()</text>
</a>
</g>
</g>
<!-- Node1&#45;&gt;Node4 -->
<g id="edge3" class="edge">
<title>Node1&#45;&gt;Node4</title>
<path fill="none" stroke="midnightblue" d="M318.5,-171.93C318.5,-157.7 318.5,-142.79 318.5,-129.02"/>
<polygon fill="none" stroke="midnightblue" points="315,-172.15 318.5,-182.15 322,-172.15 315,-172.15"/>
</g>
<!-- Node5 -->
<g id="node5" class="node">
<title>Node5</title>
<g id="a_node5"><a xlink:href="classArcade_1_1GameObjects_1_1SpriteObject.html" target="_top" xlink:title="A Sprite game objecct.">
<polygon fill="white" stroke="black" points="393,-0.5 393,-145.5 506,-145.5 506,-0.5 393,-0.5"/>
<text text-anchor="start" x="401" y="-133.5" font-family="Helvetica,sans-Serif" font-size="10.00">Arcade::GameObjects</text>
<text text-anchor="middle" x="449.5" y="-122.5" font-family="Helvetica,sans-Serif" font-size="10.00">::SpriteObject</text>
<polyline fill="none" stroke="black" points="393,-115.5 506,-115.5 "/>
<text text-anchor="start" x="401" y="-103.5" font-family="Helvetica,sans-Serif" font-size="10.00">+ sizeX</text>
<text text-anchor="start" x="401" y="-92.5" font-family="Helvetica,sans-Serif" font-size="10.00">+ sizeY</text>
<text text-anchor="start" x="401" y="-81.5" font-family="Helvetica,sans-Serif" font-size="10.00">+ rotation</text>
<text text-anchor="start" x="401" y="-70.5" font-family="Helvetica,sans-Serif" font-size="10.00">+ path</text>
<text text-anchor="start" x="401" y="-59.5" font-family="Helvetica,sans-Serif" font-size="10.00">+ fallback</text>
<polyline fill="none" stroke="black" points="393,-52.5 506,-52.5 "/>
<text text-anchor="start" x="401" y="-40.5" font-family="Helvetica,sans-Serif" font-size="10.00">+ SpriteObject()</text>
<text text-anchor="start" x="401" y="-29.5" font-family="Helvetica,sans-Serif" font-size="10.00">+ SpriteObject()</text>
<text text-anchor="start" x="401" y="-18.5" font-family="Helvetica,sans-Serif" font-size="10.00">+ ~SpriteObject()</text>
<text text-anchor="start" x="401" y="-7.5" font-family="Helvetica,sans-Serif" font-size="10.00">+ operator=()</text>
</a>
</g>
</g>
<!-- Node1&#45;&gt;Node5 -->
<g id="edge4" class="edge">
<title>Node1&#45;&gt;Node5</title>
<path fill="none" stroke="midnightblue" d="M369.27,-174.13C377.01,-164.48 385.03,-154.46 392.89,-144.66"/>
<polygon fill="none" stroke="midnightblue" points="366.37,-172.15 362.85,-182.15 371.83,-176.53 366.37,-172.15"/>
</g>
<!-- Node6 -->
<g id="node6" class="node">
<title>Node6</title>
<g id="a_node6"><a xlink:href="classArcade_1_1GameObjects_1_1TextObject.html" target="_top" xlink:title="A text object.">
<polygon fill="white" stroke="black" points="524,-22.5 524,-123.5 637,-123.5 637,-22.5 524,-22.5"/>
<text text-anchor="start" x="532" y="-111.5" font-family="Helvetica,sans-Serif" font-size="10.00">Arcade::GameObjects</text>
<text text-anchor="middle" x="580.5" y="-100.5" font-family="Helvetica,sans-Serif" font-size="10.00">::TextObject</text>
<polyline fill="none" stroke="black" points="524,-93.5 637,-93.5 "/>
<text text-anchor="start" x="532" y="-81.5" font-family="Helvetica,sans-Serif" font-size="10.00">+ text</text>
<polyline fill="none" stroke="black" points="524,-74.5 637,-74.5 "/>
<text text-anchor="start" x="532" y="-62.5" font-family="Helvetica,sans-Serif" font-size="10.00">+ TextObject()</text>
<text text-anchor="start" x="532" y="-51.5" font-family="Helvetica,sans-Serif" font-size="10.00">+ TextObject()</text>
<text text-anchor="start" x="532" y="-40.5" font-family="Helvetica,sans-Serif" font-size="10.00">+ ~TextObject()</text>
<text text-anchor="start" x="532" y="-29.5" font-family="Helvetica,sans-Serif" font-size="10.00">+ operator=()</text>
</a>
</g>
</g>
<!-- Node1&#45;&gt;Node6 -->
<g id="edge5" class="edge">
<title>Node1&#45;&gt;Node6</title>
<path fill="none" stroke="midnightblue" d="M382.16,-215.49C422.58,-199.75 474.76,-176.05 515.5,-146 524.31,-139.5 532.83,-131.66 540.65,-123.58"/>
<polygon fill="none" stroke="midnightblue" points="380.76,-212.28 372.68,-219.12 383.27,-218.81 380.76,-212.28"/>
</g>
</g>
</svg>
