<?xml version="1.0" encoding="UTF-8" standalone="no"?>
<!DOCTYPE svg PUBLIC "-//W3C//DTD SVG 1.1//EN"
 "http://www.w3.org/Graphics/SVG/1.1/DTD/svg11.dtd">
<!-- Generated by graphviz version 2.46.1 (0)
 -->
<!-- Title: Arcade::GameObjects::TextObject Pages: 1 -->
<svg width="121pt" height="259pt"
 viewBox="0.00 0.00 121.00 259.00" xmlns="http://www.w3.org/2000/svg" xmlns:xlink="http://www.w3.org/1999/xlink">
<g id="graph0" class="graph" transform="scale(1 1) rotate(0) translate(4 255)">
<title>Arcade::GameObjects::TextObject</title>
<polygon fill="white" stroke="transparent" points="-4,4 -4,-255 117,-255 117,4 -4,4"/>
<!-- Node1 -->
<g id="node1" class="node">
<title>Node1</title>
<g id="a_node1"><a xlink:title="A text object.">
<polygon fill="#bfbfbf" stroke="black" points="0,-0.5 0,-101.5 113,-101.5 113,-0.5 0,-0.5"/>
<text text-anchor="start" x="8" y="-89.5" font-family="Helvetica,sans-Serif" font-size="10.00">Arcade::GameObjects</text>
<text text-anchor="middle" x="56.5" y="-78.5" font-family="Helvetica,sans-Serif" font-size="10.00">::TextObject</text>
<polyline fill="none" stroke="black" points="0,-71.5 113,-71.5 "/>
<text text-anchor="start" x="8" y="-59.5" font-family="Helvetica,sans-Serif" font-size="10.00">+ text</text>
<polyline fill="none" stroke="black" points="0,-52.5 113,-52.5 "/>
<text text-anchor="start" x="8" y="-40.5" font-family="Helvetica,sans-Serif" font-size="10.00">+ TextObject()</text>
<text text-anchor="start" x="8" y="-29.5" font-family="Helvetica,sans-Serif" font-size="10.00">+ TextObject()</text>
<text text-anchor="start" x="8" y="-18.5" font-family="Helvetica,sans-Serif" font-size="10.00">+ ~TextObject()</text>
<text text-anchor="start" x="8" y="-7.5" font-family="Helvetica,sans-Serif" font-size="10.00">+ operator=()</text>
</a>
</g>
</g>
<!-- Node2 -->
<g id="node2" class="node">
<title>Node2</title>
<g id="a_node2"><a xlink:href="classArcade_1_1GameObject.html" target="_top" xlink:title="A base class for every objects in the game.">
<polygon fill="white" stroke="black" points="2.5,-138.5 2.5,-250.5 110.5,-250.5 110.5,-138.5 2.5,-138.5"/>
<text text-anchor="middle" x="56.5" y="-238.5" font-family="Helvetica,sans-Serif" font-size="10.00">Arcade::GameObject</text>
<polyline fill="none" stroke="black" points="2.5,-231.5 110.5,-231.5 "/>
<text text-anchor="start" x="10.5" y="-219.5" font-family="Helvetica,sans-Serif" font-size="10.00">+ x</text>
<text text-anchor="start" x="10.5" y="-208.5" font-family="Helvetica,sans-Serif" font-size="10.00">+ y</text>
<text text-anchor="start" x="10.5" y="-197.5" font-family="Helvetica,sans-Serif" font-size="10.00">+ color</text>
<polyline fill="none" stroke="black" points="2.5,-190.5 110.5,-190.5 "/>
<text text-anchor="start" x="10.5" y="-178.5" font-family="Helvetica,sans-Serif" font-size="10.00">+ GameObject()</text>
<text text-anchor="start" x="10.5" y="-167.5" font-family="Helvetica,sans-Serif" font-size="10.00">+ GameObject()</text>
<text text-anchor="start" x="10.5" y="-156.5" font-family="Helvetica,sans-Serif" font-size="10.00">+ ~GameObject()</text>
<text text-anchor="start" x="10.5" y="-145.5" font-family="Helvetica,sans-Serif" font-size="10.00">+ operator=()</text>
</a>
</g>
</g>
<!-- Node2&#45;&gt;Node1 -->
<g id="edge1" class="edge">
<title>Node2&#45;&gt;Node1</title>
<path fill="none" stroke="midnightblue" d="M56.5,-128.34C56.5,-119.38 56.5,-110.29 56.5,-101.66"/>
<polygon fill="none" stroke="midnightblue" points="53,-128.39 56.5,-138.39 60,-128.39 53,-128.39"/>
</g>
</g>
</svg>
