<?xml version="1.0" encoding="UTF-8" standalone="no"?>
<!DOCTYPE svg PUBLIC "-//W3C//DTD SVG 1.1//EN"
 "http://www.w3.org/Graphics/SVG/1.1/DTD/svg11.dtd">
<!-- Generated by graphviz version 2.46.1 (0)
 -->
<!-- Title: sources Pages: 1 -->
<svg width="270pt" height="148pt"
 viewBox="0.00 0.00 270.00 148.00" xmlns="http://www.w3.org/2000/svg" xmlns:xlink="http://www.w3.org/1999/xlink">
<g id="graph0" class="graph" transform="scale(1 1) rotate(0) translate(4 144)">
<title>sources</title>
<polygon fill="white" stroke="transparent" points="-4,4 -4,-144 266,-144 266,4 -4,4"/>
<g id="clust1" class="cluster">
<title>clusterdir_08d237fc27d4ecd563f71c5d52f2fecc</title>
<g id="a_clust1"><a xlink:href="dir_08d237fc27d4ecd563f71c5d52f2fecc.html" target="_top">
<polygon fill="#eeeeff" stroke="black" points="8,-8 8,-132 254,-132 254,-8 8,-8"/>
</a>
</g>
</g>
<!-- dir_08d237fc27d4ecd563f71c5d52f2fecc -->
<g id="node1" class="node">
<title>dir_08d237fc27d4ecd563f71c5d52f2fecc</title>
<text text-anchor="middle" x="219" y="-103.5" font-family="Helvetica,sans-Serif" font-size="10.00">sources</text>
</g>
<!-- dir_22691ba3b49dad9081dfd67ea807bdbf -->
<g id="node2" class="node">
<title>dir_22691ba3b49dad9081dfd67ea807bdbf</title>
<g id="a_node2"><a xlink:href="dir_22691ba3b49dad9081dfd67ea807bdbf.html" target="_top" xlink:title="Common">
<polygon fill="white" stroke="red" points="91,-52 35,-52 35,-16 91,-16 91,-52"/>
<text text-anchor="middle" x="63" y="-31.5" font-family="Helvetica,sans-Serif" font-size="10.00">Common</text>
</a>
</g>
</g>
<!-- dir_407a341dfc1ab98d6ef3a4f1b7c76942 -->
<g id="node3" class="node">
<title>dir_407a341dfc1ab98d6ef3a4f1b7c76942</title>
<g id="a_node3"><a xlink:href="dir_407a341dfc1ab98d6ef3a4f1b7c76942.html" target="_top" xlink:title="Core">
<polygon fill="white" stroke="red" points="174,-124 120,-124 120,-88 174,-88 174,-124"/>
<text text-anchor="middle" x="147" y="-103.5" font-family="Helvetica,sans-Serif" font-size="10.00">Core</text>
</a>
</g>
</g>
<!-- dir_407a341dfc1ab98d6ef3a4f1b7c76942&#45;&gt;dir_22691ba3b49dad9081dfd67ea807bdbf -->
<g id="edge2" class="edge">
<title>dir_407a341dfc1ab98d6ef3a4f1b7c76942&#45;&gt;dir_22691ba3b49dad9081dfd67ea807bdbf</title>
<path fill="none" stroke="black" d="M126.24,-87.7C115.76,-78.97 102.89,-68.24 91.5,-58.75"/>
<polygon fill="black" stroke="black" points="93.45,-55.82 83.53,-52.1 88.97,-61.19 93.45,-55.82"/>
<g id="a_edge2&#45;headlabel"><a xlink:href="dir_000012_000009.html" target="_top" xlink:title="6">
<text text-anchor="middle" x="98.03" y="-53.44" font-family="Helvetica,sans-Serif" font-size="10.00">6</text>
</a>
</g>
</g>
<!-- dir_5da686cefd6752aaaa3bcabf1d868d88 -->
<g id="node5" class="node">
<title>dir_5da686cefd6752aaaa3bcabf1d868d88</title>
<g id="a_node5"><a xlink:href="dir_5da686cefd6752aaaa3bcabf1d868d88.html" target="_top" xlink:title="Exceptions">
<polygon fill="white" stroke="black" points="179.5,-52 114.5,-52 114.5,-16 179.5,-16 179.5,-52"/>
<text text-anchor="middle" x="147" y="-31.5" font-family="Helvetica,sans-Serif" font-size="10.00">Exceptions</text>
</a>
</g>
</g>
<!-- dir_407a341dfc1ab98d6ef3a4f1b7c76942&#45;&gt;dir_5da686cefd6752aaaa3bcabf1d868d88 -->
<g id="edge3" class="edge">
<title>dir_407a341dfc1ab98d6ef3a4f1b7c76942&#45;&gt;dir_5da686cefd6752aaaa3bcabf1d868d88</title>
<path fill="none" stroke="black" d="M147,-87.7C147,-79.98 147,-70.71 147,-62.11"/>
<polygon fill="black" stroke="black" points="150.5,-62.1 147,-52.1 143.5,-62.1 150.5,-62.1"/>
<g id="a_edge3&#45;headlabel"><a xlink:href="dir_000012_000015.html" target="_top" xlink:title="3">
<text text-anchor="middle" x="153.34" y="-63.2" font-family="Helvetica,sans-Serif" font-size="10.00">3</text>
</a>
</g>
</g>
<!-- dir_c338243f3b89c3e4da0d09baa75c4e76 -->
<g id="node4" class="node">
<title>dir_c338243f3b89c3e4da0d09baa75c4e76</title>
<g id="a_node4"><a xlink:href="dir_c338243f3b89c3e4da0d09baa75c4e76.html" target="_top" xlink:title="DisplayModules">
<polygon fill="white" stroke="black" points="102,-124 16,-124 16,-88 102,-88 102,-124"/>
<text text-anchor="middle" x="59" y="-103.5" font-family="Helvetica,sans-Serif" font-size="10.00">DisplayModules</text>
</a>
</g>
</g>
<!-- dir_c338243f3b89c3e4da0d09baa75c4e76&#45;&gt;dir_22691ba3b49dad9081dfd67ea807bdbf -->
<g id="edge1" class="edge">
<title>dir_c338243f3b89c3e4da0d09baa75c4e76&#45;&gt;dir_22691ba3b49dad9081dfd67ea807bdbf</title>
<path fill="none" stroke="black" d="M59.99,-87.7C60.43,-79.98 60.96,-70.71 61.45,-62.11"/>
<polygon fill="black" stroke="black" points="64.95,-62.29 62.02,-52.1 57.96,-61.89 64.95,-62.29"/>
<g id="a_edge1&#45;headlabel"><a xlink:href="dir_000014_000009.html" target="_top" xlink:title="7">
<text text-anchor="middle" x="67.58" y="-63.54" font-family="Helvetica,sans-Serif" font-size="10.00">7</text>
</a>
</g>
</g>
</g>
</svg>
