<?xml version="1.0" encoding="UTF-8" standalone="no"?>
<!DOCTYPE svg PUBLIC "-//W3C//DTD SVG 1.1//EN"
 "http://www.w3.org/Graphics/SVG/1.1/DTD/svg11.dtd">
<!-- Generated by graphviz version 2.46.1 (0)
 -->
<!-- Title: sources/Core/Runner Pages: 1 -->
<svg width="148pt" height="151pt"
 viewBox="0.00 0.00 147.50 151.00" xmlns="http://www.w3.org/2000/svg" xmlns:xlink="http://www.w3.org/1999/xlink">
<g id="graph0" class="graph" transform="scale(1 1) rotate(0) translate(4 147)">
<title>sources/Core/Runner</title>
<polygon fill="white" stroke="transparent" points="-4,4 -4,-147 143.5,-147 143.5,4 -4,4"/>
<g id="clust1" class="cluster">
<title>clusterdir_407a341dfc1ab98d6ef3a4f1b7c76942</title>
<g id="a_clust1"><a xlink:href="dir_407a341dfc1ab98d6ef3a4f1b7c76942.html" target="_top" xlink:title="Core">
<polygon fill="#ddddee" stroke="black" points="32,-64 32,-135 102,-135 102,-64 32,-64"/>
<text text-anchor="middle" x="67" y="-123" font-family="Helvetica,sans-Serif" font-size="10.00">Core</text>
</a>
</g>
</g>
<!-- dir_39902defc96b4c1afd9c7fc4d71bc4f4 -->
<g id="node1" class="node">
<title>dir_39902defc96b4c1afd9c7fc4d71bc4f4</title>
<g id="a_node1"><a xlink:href="dir_39902defc96b4c1afd9c7fc4d71bc4f4.html" target="_top" xlink:title="Runner">
<polygon fill="#eeeeff" stroke="black" points="94,-108 40,-108 40,-72 94,-72 94,-108"/>
<text text-anchor="middle" x="67" y="-87.5" font-family="Helvetica,sans-Serif" font-size="10.00">Runner</text>
</a>
</g>
</g>
<!-- dir_22691ba3b49dad9081dfd67ea807bdbf -->
<g id="node2" class="node">
<title>dir_22691ba3b49dad9081dfd67ea807bdbf</title>
<g id="a_node2"><a xlink:href="dir_22691ba3b49dad9081dfd67ea807bdbf.html" target="_top" xlink:title="Common">
<polygon fill="white" stroke="red" points="56,-36 0,-36 0,0 56,0 56,-36"/>
<text text-anchor="middle" x="28" y="-15.5" font-family="Helvetica,sans-Serif" font-size="10.00">Common</text>
</a>
</g>
</g>
<!-- dir_39902defc96b4c1afd9c7fc4d71bc4f4&#45;&gt;dir_22691ba3b49dad9081dfd67ea807bdbf -->
<g id="edge1" class="edge">
<title>dir_39902defc96b4c1afd9c7fc4d71bc4f4&#45;&gt;dir_22691ba3b49dad9081dfd67ea807bdbf</title>
<path fill="none" stroke="black" d="M57.36,-71.7C52.87,-63.64 47.44,-53.89 42.48,-44.98"/>
<polygon fill="black" stroke="black" points="45.45,-43.14 37.53,-36.1 39.34,-46.54 45.45,-43.14"/>
<g id="a_edge1&#45;headlabel"><a xlink:href="dir_000013_000009.html" target="_top" xlink:title="4">
<text text-anchor="middle" x="49.68" y="-42.39" font-family="Helvetica,sans-Serif" font-size="10.00">4</text>
</a>
</g>
</g>
<!-- dir_5da686cefd6752aaaa3bcabf1d868d88 -->
<g id="node3" class="node">
<title>dir_5da686cefd6752aaaa3bcabf1d868d88</title>
<g id="a_node3"><a xlink:href="dir_5da686cefd6752aaaa3bcabf1d868d88.html" target="_top" xlink:title="Exceptions">
<polygon fill="none" stroke="black" points="139.5,-36 74.5,-36 74.5,0 139.5,0 139.5,-36"/>
<text text-anchor="middle" x="107" y="-15.5" font-family="Helvetica,sans-Serif" font-size="10.00">Exceptions</text>
</a>
</g>
</g>
<!-- dir_39902defc96b4c1afd9c7fc4d71bc4f4&#45;&gt;dir_5da686cefd6752aaaa3bcabf1d868d88 -->
<g id="edge2" class="edge">
<title>dir_39902defc96b4c1afd9c7fc4d71bc4f4&#45;&gt;dir_5da686cefd6752aaaa3bcabf1d868d88</title>
<path fill="none" stroke="black" d="M76.89,-71.7C81.49,-63.64 87.06,-53.89 92.15,-44.98"/>
<polygon fill="black" stroke="black" points="95.3,-46.52 97.23,-36.1 89.23,-43.05 95.3,-46.52"/>
<g id="a_edge2&#45;headlabel"><a xlink:href="dir_000013_000015.html" target="_top" xlink:title="2">
<text text-anchor="middle" x="95.99" y="-48.55" font-family="Helvetica,sans-Serif" font-size="10.00">2</text>
</a>
</g>
</g>
</g>
</svg>
