<?xml version="1.0" encoding="UTF-8" standalone="no"?>
<!DOCTYPE svg PUBLIC "-//W3C//DTD SVG 1.1//EN"
 "http://www.w3.org/Graphics/SVG/1.1/DTD/svg11.dtd">
<!-- Generated by graphviz version 2.46.1 (0)
 -->
<!-- Title: sources/Common Pages: 1 -->
<svg width="184pt" height="183pt"
 viewBox="0.00 0.00 184.00 183.00" xmlns="http://www.w3.org/2000/svg" xmlns:xlink="http://www.w3.org/1999/xlink">
<g id="graph0" class="graph" transform="scale(1 1) rotate(0) translate(4 179)">
<title>sources/Common</title>
<polygon fill="white" stroke="transparent" points="-4,4 -4,-179 180,-179 180,4 -4,4"/>
<g id="clust1" class="cluster">
<title>clusterdir_08d237fc27d4ecd563f71c5d52f2fecc</title>
<g id="a_clust1"><a xlink:href="dir_08d237fc27d4ecd563f71c5d52f2fecc.html" target="_top" xlink:title="sources">
<polygon fill="#ddddee" stroke="black" points="8,-8 8,-167 168,-167 168,-8 8,-8"/>
<text text-anchor="middle" x="88" y="-155" font-family="Helvetica,sans-Serif" font-size="10.00">sources</text>
</a>
</g>
</g>
<g id="clust2" class="cluster">
<title>clusterdir_22691ba3b49dad9081dfd67ea807bdbf</title>
<g id="a_clust2"><a xlink:href="dir_22691ba3b49dad9081dfd67ea807bdbf.html" target="_top">
<polygon fill="#eeeeff" stroke="black" points="16,-16 16,-140 160,-140 160,-16 16,-16"/>
</a>
</g>
</g>
<!-- dir_22691ba3b49dad9081dfd67ea807bdbf -->
<g id="node1" class="node">
<title>dir_22691ba3b49dad9081dfd67ea807bdbf</title>
<text text-anchor="middle" x="124" y="-111.5" font-family="Helvetica,sans-Serif" font-size="10.00">Common</text>
</g>
<!-- dir_2db2e15eaf8d247ce682545398da8c7c -->
<g id="node3" class="node">
<title>dir_2db2e15eaf8d247ce682545398da8c7c</title>
<g id="a_node3"><a xlink:href="dir_2db2e15eaf8d247ce682545398da8c7c.html" target="_top" xlink:title="GameObjects">
<polygon fill="white" stroke="black" points="151.5,-60 74.5,-60 74.5,-24 151.5,-24 151.5,-60"/>
<text text-anchor="middle" x="113" y="-39.5" font-family="Helvetica,sans-Serif" font-size="10.00">GameObjects</text>
</a>
</g>
</g>
<!-- dir_22691ba3b49dad9081dfd67ea807bdbf&#45;&gt;dir_2db2e15eaf8d247ce682545398da8c7c -->
<g id="edge1" class="edge">
<title>dir_22691ba3b49dad9081dfd67ea807bdbf&#45;&gt;dir_2db2e15eaf8d247ce682545398da8c7c</title>
<path fill="none" stroke="black" d="M121.28,-95.7C120.07,-87.98 118.61,-78.71 117.26,-70.11"/>
<polygon fill="black" stroke="black" points="120.7,-69.44 115.69,-60.1 113.78,-70.53 120.7,-69.44"/>
<g id="a_edge1&#45;headlabel"><a xlink:href="dir_000009_000011.html" target="_top" xlink:title="5">
<text text-anchor="middle" x="124.06" y="-70.05" font-family="Helvetica,sans-Serif" font-size="10.00">5</text>
</a>
</g>
</g>
<!-- dir_60b123b52d4602ba6b52bb9c9c056038 -->
<g id="node2" class="node">
<title>dir_60b123b52d4602ba6b52bb9c9c056038</title>
<g id="a_node2"><a xlink:href="dir_60b123b52d4602ba6b52bb9c9c056038.html" target="_top" xlink:title="Events">
<polygon fill="white" stroke="black" points="78,-132 24,-132 24,-96 78,-96 78,-132"/>
<text text-anchor="middle" x="51" y="-111.5" font-family="Helvetica,sans-Serif" font-size="10.00">Events</text>
</a>
</g>
</g>
</g>
</svg>
