<?xml version="1.0" encoding="UTF-8" standalone="no"?>
<!DOCTYPE svg PUBLIC "-//W3C//DTD SVG 1.1//EN"
 "http://www.w3.org/Graphics/SVG/1.1/DTD/svg11.dtd">
<!-- Generated by graphviz version 2.46.1 (0)
 -->
<!-- Title: sources/Core Pages: 1 -->
<svg width="182pt" height="175pt"
 viewBox="0.00 0.00 182.00 175.00" xmlns="http://www.w3.org/2000/svg" xmlns:xlink="http://www.w3.org/1999/xlink">
<g id="graph0" class="graph" transform="scale(1 1) rotate(0) translate(4 171)">
<title>sources/Core</title>
<polygon fill="white" stroke="transparent" points="-4,4 -4,-171 178,-171 178,4 -4,4"/>
<g id="clust1" class="cluster">
<title>clusterdir_08d237fc27d4ecd563f71c5d52f2fecc</title>
<g id="a_clust1"><a xlink:href="dir_08d237fc27d4ecd563f71c5d52f2fecc.html" target="_top" xlink:title="sources">
<polygon fill="#ddddee" stroke="black" points="8,-8 8,-159 166,-159 166,-8 8,-8"/>
<text text-anchor="middle" x="87" y="-147" font-family="Helvetica,sans-Serif" font-size="10.00">sources</text>
</a>
</g>
</g>
<g id="clust2" class="cluster">
<title>clusterdir_407a341dfc1ab98d6ef3a4f1b7c76942</title>
<g id="a_clust2"><a xlink:href="dir_407a341dfc1ab98d6ef3a4f1b7c76942.html" target="_top">
<polygon fill="#eeeeff" stroke="black" points="16,-80 16,-132 158,-132 158,-80 16,-80"/>
</a>
</g>
</g>
<!-- dir_22691ba3b49dad9081dfd67ea807bdbf -->
<g id="node1" class="node">
<title>dir_22691ba3b49dad9081dfd67ea807bdbf</title>
<g id="a_node1"><a xlink:href="dir_22691ba3b49dad9081dfd67ea807bdbf.html" target="_top" xlink:title="Common">
<polygon fill="white" stroke="red" points="73,-52 17,-52 17,-16 73,-16 73,-52"/>
<text text-anchor="middle" x="45" y="-31.5" font-family="Helvetica,sans-Serif" font-size="10.00">Common</text>
</a>
</g>
</g>
<!-- dir_5da686cefd6752aaaa3bcabf1d868d88 -->
<g id="node2" class="node">
<title>dir_5da686cefd6752aaaa3bcabf1d868d88</title>
<g id="a_node2"><a xlink:href="dir_5da686cefd6752aaaa3bcabf1d868d88.html" target="_top" xlink:title="Exceptions">
<polygon fill="none" stroke="black" points="156.5,-52 91.5,-52 91.5,-16 156.5,-16 156.5,-52"/>
<text text-anchor="middle" x="124" y="-31.5" font-family="Helvetica,sans-Serif" font-size="10.00">Exceptions</text>
</a>
</g>
</g>
<!-- dir_407a341dfc1ab98d6ef3a4f1b7c76942 -->
<g id="node3" class="node">
<title>dir_407a341dfc1ab98d6ef3a4f1b7c76942</title>
<text text-anchor="middle" x="123" y="-103.5" font-family="Helvetica,sans-Serif" font-size="10.00">Core</text>
</g>
<!-- dir_407a341dfc1ab98d6ef3a4f1b7c76942&#45;&gt;dir_22691ba3b49dad9081dfd67ea807bdbf -->
<g id="edge3" class="edge">
<title>dir_407a341dfc1ab98d6ef3a4f1b7c76942&#45;&gt;dir_22691ba3b49dad9081dfd67ea807bdbf</title>
<path fill="none" stroke="black" d="M103.72,-87.7C94.08,-79.05 82.27,-68.45 71.77,-59.03"/>
<polygon fill="black" stroke="black" points="73.84,-56.18 64.06,-52.1 69.16,-61.39 73.84,-56.18"/>
<g id="a_edge3&#45;headlabel"><a xlink:href="dir_000012_000009.html" target="_top" xlink:title="6">
<text text-anchor="middle" x="78.41" y="-53.97" font-family="Helvetica,sans-Serif" font-size="10.00">6</text>
</a>
</g>
</g>
<!-- dir_407a341dfc1ab98d6ef3a4f1b7c76942&#45;&gt;dir_5da686cefd6752aaaa3bcabf1d868d88 -->
<g id="edge4" class="edge">
<title>dir_407a341dfc1ab98d6ef3a4f1b7c76942&#45;&gt;dir_5da686cefd6752aaaa3bcabf1d868d88</title>
<path fill="none" stroke="black" d="M123.25,-87.7C123.36,-79.98 123.49,-70.71 123.61,-62.11"/>
<polygon fill="black" stroke="black" points="127.11,-62.15 123.76,-52.1 120.11,-62.05 127.11,-62.15"/>
<g id="a_edge4&#45;headlabel"><a xlink:href="dir_000012_000015.html" target="_top" xlink:title="3">
<text text-anchor="middle" x="129.9" y="-63.29" font-family="Helvetica,sans-Serif" font-size="10.00">3</text>
</a>
</g>
</g>
<!-- dir_39902defc96b4c1afd9c7fc4d71bc4f4 -->
<g id="node4" class="node">
<title>dir_39902defc96b4c1afd9c7fc4d71bc4f4</title>
<g id="a_node4"><a xlink:href="dir_39902defc96b4c1afd9c7fc4d71bc4f4.html" target="_top" xlink:title="Runner">
<polygon fill="white" stroke="black" points="78,-124 24,-124 24,-88 78,-88 78,-124"/>
<text text-anchor="middle" x="51" y="-103.5" font-family="Helvetica,sans-Serif" font-size="10.00">Runner</text>
</a>
</g>
</g>
<!-- dir_39902defc96b4c1afd9c7fc4d71bc4f4&#45;&gt;dir_22691ba3b49dad9081dfd67ea807bdbf -->
<g id="edge1" class="edge">
<title>dir_39902defc96b4c1afd9c7fc4d71bc4f4&#45;&gt;dir_22691ba3b49dad9081dfd67ea807bdbf</title>
<path fill="none" stroke="black" d="M49.52,-87.7C48.86,-79.98 48.06,-70.71 47.32,-62.11"/>
<polygon fill="black" stroke="black" points="50.81,-61.77 46.47,-52.1 43.83,-62.37 50.81,-61.77"/>
<g id="a_edge1&#45;headlabel"><a xlink:href="dir_000013_000009.html" target="_top" xlink:title="4">
<text text-anchor="middle" x="53.94" y="-62.61" font-family="Helvetica,sans-Serif" font-size="10.00">4</text>
</a>
</g>
</g>
<!-- dir_39902defc96b4c1afd9c7fc4d71bc4f4&#45;&gt;dir_5da686cefd6752aaaa3bcabf1d868d88 -->
<g id="edge2" class="edge">
<title>dir_39902defc96b4c1afd9c7fc4d71bc4f4&#45;&gt;dir_5da686cefd6752aaaa3bcabf1d868d88</title>
<path fill="none" stroke="black" d="M69.04,-87.7C78.06,-79.05 89.12,-68.45 98.94,-59.03"/>
<polygon fill="black" stroke="black" points="101.37,-61.55 106.16,-52.1 96.52,-56.5 101.37,-61.55"/>
<g id="a_edge2&#45;headlabel"><a xlink:href="dir_000013_000015.html" target="_top" xlink:title="2">
<text text-anchor="middle" x="100.74" y="-63.59" font-family="Helvetica,sans-Serif" font-size="10.00">2</text>
</a>
</g>
</g>
</g>
</svg>
