<?xml version="1.0" encoding="UTF-8" standalone="no"?>
<!DOCTYPE svg PUBLIC "-//W3C//DTD SVG 1.1//EN"
 "http://www.w3.org/Graphics/SVG/1.1/DTD/svg11.dtd">
<!-- Generated by graphviz version 2.46.1 (0)
 -->
<!-- Title: sources/DisplayModules Pages: 1 -->
<svg width="126pt" height="167pt"
 viewBox="0.00 0.00 126.00 167.00" xmlns="http://www.w3.org/2000/svg" xmlns:xlink="http://www.w3.org/1999/xlink">
<g id="graph0" class="graph" transform="scale(1 1) rotate(0) translate(4 163)">
<title>sources/DisplayModules</title>
<polygon fill="white" stroke="transparent" points="-4,4 -4,-163 122,-163 122,4 -4,4"/>
<g id="clust1" class="cluster">
<title>clusterdir_08d237fc27d4ecd563f71c5d52f2fecc</title>
<g id="a_clust1"><a xlink:href="dir_08d237fc27d4ecd563f71c5d52f2fecc.html" target="_top" xlink:title="sources">
<polygon fill="#ddddee" stroke="black" points="8,-8 8,-151 110,-151 110,-8 8,-8"/>
<text text-anchor="middle" x="59" y="-139" font-family="Helvetica,sans-Serif" font-size="10.00">sources</text>
</a>
</g>
</g>
<!-- dir_22691ba3b49dad9081dfd67ea807bdbf -->
<g id="node1" class="node">
<title>dir_22691ba3b49dad9081dfd67ea807bdbf</title>
<g id="a_node1"><a xlink:href="dir_22691ba3b49dad9081dfd67ea807bdbf.html" target="_top" xlink:title="Common">
<polygon fill="white" stroke="red" points="87,-52 31,-52 31,-16 87,-16 87,-52"/>
<text text-anchor="middle" x="59" y="-31.5" font-family="Helvetica,sans-Serif" font-size="10.00">Common</text>
</a>
</g>
</g>
<!-- dir_c338243f3b89c3e4da0d09baa75c4e76 -->
<g id="node2" class="node">
<title>dir_c338243f3b89c3e4da0d09baa75c4e76</title>
<g id="a_node2"><a xlink:href="dir_c338243f3b89c3e4da0d09baa75c4e76.html" target="_top" xlink:title="DisplayModules">
<polygon fill="#eeeeff" stroke="black" points="102,-124 16,-124 16,-88 102,-88 102,-124"/>
<text text-anchor="middle" x="59" y="-103.5" font-family="Helvetica,sans-Serif" font-size="10.00">DisplayModules</text>
</a>
</g>
</g>
<!-- dir_c338243f3b89c3e4da0d09baa75c4e76&#45;&gt;dir_22691ba3b49dad9081dfd67ea807bdbf -->
<g id="edge1" class="edge">
<title>dir_c338243f3b89c3e4da0d09baa75c4e76&#45;&gt;dir_22691ba3b49dad9081dfd67ea807bdbf</title>
<path fill="none" stroke="black" d="M59,-87.7C59,-79.98 59,-70.71 59,-62.11"/>
<polygon fill="black" stroke="black" points="62.5,-62.1 59,-52.1 55.5,-62.1 62.5,-62.1"/>
<g id="a_edge1&#45;headlabel"><a xlink:href="dir_000014_000009.html" target="_top" xlink:title="7">
<text text-anchor="middle" x="65.34" y="-63.2" font-family="Helvetica,sans-Serif" font-size="10.00">7</text>
</a>
</g>
</g>
</g>
</svg>
