<?xml version="1.0" encoding="UTF-8" standalone="no"?>
<!DOCTYPE svg PUBLIC "-//W3C//DTD SVG 1.1//EN"
 "http://www.w3.org/Graphics/SVG/1.1/DTD/svg11.dtd">
<!-- Generated by graphviz version 2.46.1 (0)
 -->
<!-- Title: sources/Common/Event.hpp Pages: 1 -->
<svg width="824pt" height="229pt"
 viewBox="0.00 0.00 824.00 229.00" xmlns="http://www.w3.org/2000/svg" xmlns:xlink="http://www.w3.org/1999/xlink">
<g id="graph0" class="graph" transform="scale(1 1) rotate(0) translate(4 225)">
<title>sources/Common/Event.hpp</title>
<polygon fill="white" stroke="transparent" points="-4,4 -4,-225 820,-225 820,4 -4,4"/>
<!-- Node1 -->
<g id="node1" class="node">
<title>Node1</title>
<g id="a_node1"><a xlink:title=" ">
<polygon fill="#bfbfbf" stroke="black" points="285.5,-201.5 285.5,-220.5 426.5,-220.5 426.5,-201.5 285.5,-201.5"/>
<text text-anchor="middle" x="356" y="-208.5" font-family="Helvetica,sans-Serif" font-size="10.00">sources/Common/Event.hpp</text>
</a>
</g>
</g>
<!-- Node2 -->
<g id="node2" class="node">
<title>Node2</title>
<g id="a_node2"><a xlink:href="ClickEvent_8hpp.html" target="_top" xlink:title=" ">
<polygon fill="white" stroke="black" points="0,-134.5 0,-164.5 128,-164.5 128,-134.5 0,-134.5"/>
<text text-anchor="start" x="8" y="-152.5" font-family="Helvetica,sans-Serif" font-size="10.00">sources/Common/Events</text>
<text text-anchor="middle" x="64" y="-141.5" font-family="Helvetica,sans-Serif" font-size="10.00">/ClickEvent.hpp</text>
</a>
</g>
</g>
<!-- Node1&#45;&gt;Node2 -->
<g id="edge1" class="edge">
<title>Node1&#45;&gt;Node2</title>
<path fill="none" stroke="midnightblue" d="M304.06,-199.42C254.88,-189.4 180.91,-174.32 128.09,-163.56"/>
<polygon fill="midnightblue" stroke="midnightblue" points="303.67,-202.91 314.16,-201.48 305.06,-196.05 303.67,-202.91"/>
</g>
<!-- Node5 -->
<g id="node5" class="node">
<title>Node5</title>
<g id="a_node5"><a xlink:href="CloseEvent_8hpp.html" target="_top" xlink:title=" ">
<polygon fill="white" stroke="black" points="146,-134.5 146,-164.5 274,-164.5 274,-134.5 146,-134.5"/>
<text text-anchor="start" x="154" y="-152.5" font-family="Helvetica,sans-Serif" font-size="10.00">sources/Common/Events</text>
<text text-anchor="middle" x="210" y="-141.5" font-family="Helvetica,sans-Serif" font-size="10.00">/CloseEvent.hpp</text>
</a>
</g>
</g>
<!-- Node1&#45;&gt;Node5 -->
<g id="edge5" class="edge">
<title>Node1&#45;&gt;Node5</title>
<path fill="none" stroke="midnightblue" d="M325.55,-197.59C301.88,-187.94 269.03,-174.56 244.41,-164.52"/>
<polygon fill="midnightblue" stroke="midnightblue" points="324.5,-200.94 335.08,-201.48 327.14,-194.46 324.5,-200.94"/>
</g>
<!-- Node6 -->
<g id="node6" class="node">
<title>Node6</title>
<g id="a_node6"><a xlink:href="KeyEvent_8hpp.html" target="_top" xlink:title=" ">
<polygon fill="white" stroke="black" points="292,-134.5 292,-164.5 420,-164.5 420,-134.5 292,-134.5"/>
<text text-anchor="start" x="300" y="-152.5" font-family="Helvetica,sans-Serif" font-size="10.00">sources/Common/Events</text>
<text text-anchor="middle" x="356" y="-141.5" font-family="Helvetica,sans-Serif" font-size="10.00">/KeyEvent.hpp</text>
</a>
</g>
</g>
<!-- Node1&#45;&gt;Node6 -->
<g id="edge8" class="edge">
<title>Node1&#45;&gt;Node6</title>
<path fill="none" stroke="midnightblue" d="M356,-191.23C356,-182.59 356,-172.5 356,-164.52"/>
<polygon fill="midnightblue" stroke="midnightblue" points="352.5,-191.48 356,-201.48 359.5,-191.48 352.5,-191.48"/>
</g>
<!-- Node8 -->
<g id="node8" class="node">
<title>Node8</title>
<g id="a_node8"><a xlink:href="IDisplayModule_8hpp.html" target="_top" xlink:title=" ">
<polygon fill="white" stroke="black" points="438.5,-140 438.5,-159 621.5,-159 621.5,-140 438.5,-140"/>
<text text-anchor="middle" x="530" y="-147" font-family="Helvetica,sans-Serif" font-size="10.00">sources/Common/IDisplayModule.hpp</text>
</a>
</g>
</g>
<!-- Node1&#45;&gt;Node8 -->
<g id="edge12" class="edge">
<title>Node1&#45;&gt;Node8</title>
<path fill="none" stroke="midnightblue" d="M390.41,-198.23C424.24,-186.67 475.03,-169.3 505.12,-159.01"/>
<polygon fill="midnightblue" stroke="midnightblue" points="389.26,-194.93 380.93,-201.48 391.52,-201.55 389.26,-194.93"/>
</g>
<!-- Node11 -->
<g id="node11" class="node">
<title>Node11</title>
<g id="a_node11"><a xlink:href="IGameModule_8hpp.html" target="_top" xlink:title=" ">
<polygon fill="white" stroke="black" points="640,-140 640,-159 816,-159 816,-140 640,-140"/>
<text text-anchor="middle" x="728" y="-147" font-family="Helvetica,sans-Serif" font-size="10.00">sources/Common/IGameModule.hpp</text>
</a>
</g>
</g>
<!-- Node1&#45;&gt;Node11 -->
<g id="edge17" class="edge">
<title>Node1&#45;&gt;Node11</title>
<path fill="none" stroke="midnightblue" d="M419.58,-199.83C491.53,-188.32 607.45,-169.78 674.8,-159.01"/>
<polygon fill="midnightblue" stroke="midnightblue" points="418.62,-196.44 409.3,-201.48 419.73,-203.35 418.62,-196.44"/>
</g>
<!-- Node3 -->
<g id="node3" class="node">
<title>Node3</title>
<g id="a_node3"><a xlink:href="SDLDisplay_8cpp.html" target="_top" xlink:title=" ">
<polygon fill="white" stroke="black" points="159,-0.5 159,-30.5 283,-30.5 283,-0.5 159,-0.5"/>
<text text-anchor="start" x="167" y="-18.5" font-family="Helvetica,sans-Serif" font-size="10.00">sources/DisplayModules</text>
<text text-anchor="middle" x="221" y="-7.5" font-family="Helvetica,sans-Serif" font-size="10.00">/SDLDisplay.cpp</text>
</a>
</g>
</g>
<!-- Node2&#45;&gt;Node3 -->
<g id="edge2" class="edge">
<title>Node2&#45;&gt;Node3</title>
<path fill="none" stroke="midnightblue" d="M88.46,-127.94C120.69,-100.84 176.54,-53.88 204.32,-30.52"/>
<polygon fill="midnightblue" stroke="midnightblue" points="86.2,-125.26 80.8,-134.37 90.71,-130.62 86.2,-125.26"/>
</g>
<!-- Node4 -->
<g id="node4" class="node">
<title>Node4</title>
<g id="a_node4"><a xlink:href="SDLDisplay_8hpp.html" target="_top" xlink:title=" ">
<polygon fill="white" stroke="black" points="204,-67.5 204,-97.5 328,-97.5 328,-67.5 204,-67.5"/>
<text text-anchor="start" x="212" y="-85.5" font-family="Helvetica,sans-Serif" font-size="10.00">sources/DisplayModules</text>
<text text-anchor="middle" x="266" y="-74.5" font-family="Helvetica,sans-Serif" font-size="10.00">/SDLDisplay.hpp</text>
</a>
</g>
</g>
<!-- Node2&#45;&gt;Node4 -->
<g id="edge3" class="edge">
<title>Node2&#45;&gt;Node4</title>
<path fill="none" stroke="midnightblue" d="M117.68,-131.23C150.35,-120.71 191.57,-107.45 222.25,-97.58"/>
<polygon fill="midnightblue" stroke="midnightblue" points="116.28,-128 107.83,-134.4 118.42,-134.66 116.28,-128"/>
</g>
<!-- Node4&#45;&gt;Node3 -->
<g id="edge4" class="edge">
<title>Node4&#45;&gt;Node3</title>
<path fill="none" stroke="midnightblue" d="M250.53,-59.16C243.97,-49.68 236.52,-38.92 230.75,-30.58"/>
<polygon fill="midnightblue" stroke="midnightblue" points="247.67,-61.17 256.24,-67.4 253.42,-57.18 247.67,-61.17"/>
</g>
<!-- Node5&#45;&gt;Node3 -->
<g id="edge6" class="edge">
<title>Node5&#45;&gt;Node3</title>
<path fill="none" stroke="midnightblue" d="M200.28,-124.46C194.98,-108.15 190.36,-86.15 195,-67 198.16,-53.97 205.3,-40.53 211.3,-30.79"/>
<polygon fill="midnightblue" stroke="midnightblue" points="197.12,-126.02 203.77,-134.26 203.72,-123.67 197.12,-126.02"/>
</g>
<!-- Node5&#45;&gt;Node4 -->
<g id="edge7" class="edge">
<title>Node5&#45;&gt;Node4</title>
<path fill="none" stroke="midnightblue" d="M228.75,-126.74C237.04,-117.12 246.54,-106.09 253.87,-97.58"/>
<polygon fill="midnightblue" stroke="midnightblue" points="226.03,-124.54 222.15,-134.4 231.33,-129.1 226.03,-124.54"/>
</g>
<!-- Node6&#45;&gt;Node3 -->
<g id="edge10" class="edge">
<title>Node6&#45;&gt;Node3</title>
<path fill="none" stroke="midnightblue" d="M355.94,-124.31C354.68,-106.61 350.32,-82.99 337,-67 322.59,-49.7 301.12,-38.16 280.56,-30.54"/>
<polygon fill="midnightblue" stroke="midnightblue" points="352.45,-124.6 356.38,-134.44 359.45,-124.3 352.45,-124.6"/>
</g>
<!-- Node6&#45;&gt;Node4 -->
<g id="edge11" class="edge">
<title>Node6&#45;&gt;Node4</title>
<path fill="none" stroke="midnightblue" d="M328.24,-128.45C314.39,-118.45 297.98,-106.6 285.49,-97.58"/>
<polygon fill="midnightblue" stroke="midnightblue" points="326.32,-131.38 336.47,-134.4 330.41,-125.7 326.32,-131.38"/>
</g>
<!-- Node7 -->
<g id="node7" class="node">
<title>Node7</title>
<g id="a_node7"><a xlink:href="Runner_8cpp.html" target="_top" xlink:title=" ">
<polygon fill="white" stroke="black" points="357,-0.5 357,-30.5 467,-30.5 467,-0.5 357,-0.5"/>
<text text-anchor="start" x="365" y="-18.5" font-family="Helvetica,sans-Serif" font-size="10.00">sources/Core/Runner</text>
<text text-anchor="middle" x="412" y="-7.5" font-family="Helvetica,sans-Serif" font-size="10.00">/Runner.cpp</text>
</a>
</g>
</g>
<!-- Node6&#45;&gt;Node7 -->
<g id="edge9" class="edge">
<title>Node6&#45;&gt;Node7</title>
<path fill="none" stroke="midnightblue" d="M365.92,-125.12C377.56,-97.68 396.48,-53.09 406.05,-30.52"/>
<polygon fill="midnightblue" stroke="midnightblue" points="362.68,-123.8 361.99,-134.37 369.12,-126.53 362.68,-123.8"/>
</g>
<!-- Node8&#45;&gt;Node4 -->
<g id="edge16" class="edge">
<title>Node8&#45;&gt;Node4</title>
<path fill="none" stroke="midnightblue" d="M485.23,-137.48C440.54,-126.47 371.7,-109.52 323.1,-97.56"/>
<polygon fill="midnightblue" stroke="midnightblue" points="484.67,-140.94 495.22,-139.94 486.34,-134.15 484.67,-140.94"/>
</g>
<!-- Node9 -->
<g id="node9" class="node">
<title>Node9</title>
<g id="a_node9"><a xlink:href="Runner_8hpp.html" target="_top" xlink:title=" ">
<polygon fill="white" stroke="black" points="475,-67.5 475,-97.5 585,-97.5 585,-67.5 475,-67.5"/>
<text text-anchor="start" x="483" y="-85.5" font-family="Helvetica,sans-Serif" font-size="10.00">sources/Core/Runner</text>
<text text-anchor="middle" x="530" y="-74.5" font-family="Helvetica,sans-Serif" font-size="10.00">/Runner.hpp</text>
</a>
</g>
</g>
<!-- Node8&#45;&gt;Node9 -->
<g id="edge13" class="edge">
<title>Node8&#45;&gt;Node9</title>
<path fill="none" stroke="midnightblue" d="M530,-129.41C530,-119.22 530,-106.9 530,-97.59"/>
<polygon fill="midnightblue" stroke="midnightblue" points="526.5,-129.73 530,-139.73 533.5,-129.73 526.5,-129.73"/>
</g>
<!-- Node9&#45;&gt;Node7 -->
<g id="edge15" class="edge">
<title>Node9&#45;&gt;Node7</title>
<path fill="none" stroke="midnightblue" d="M495.39,-62.44C476.88,-52.24 454.48,-39.9 437.55,-30.58"/>
<polygon fill="midnightblue" stroke="midnightblue" points="493.95,-65.64 504.4,-67.4 497.33,-59.51 493.95,-65.64"/>
</g>
<!-- Node10 -->
<g id="node10" class="node">
<title>Node10</title>
<g id="a_node10"><a xlink:href="main_8cpp.html" target="_top" xlink:title=" ">
<polygon fill="white" stroke="black" points="502,-6 502,-25 558,-25 558,-6 502,-6"/>
<text text-anchor="middle" x="530" y="-13" font-family="Helvetica,sans-Serif" font-size="10.00">main.cpp</text>
</a>
</g>
</g>
<!-- Node9&#45;&gt;Node10 -->
<g id="edge14" class="edge">
<title>Node9&#45;&gt;Node10</title>
<path fill="none" stroke="midnightblue" d="M530,-57.25C530,-46.02 530,-33.38 530,-25.19"/>
<polygon fill="midnightblue" stroke="midnightblue" points="526.5,-57.4 530,-67.4 533.5,-57.4 526.5,-57.4"/>
</g>
<!-- Node11&#45;&gt;Node9 -->
<g id="edge18" class="edge">
<title>Node11&#45;&gt;Node9</title>
<path fill="none" stroke="midnightblue" d="M691.85,-136.63C658.28,-125.61 608.27,-109.19 572.73,-97.53"/>
<polygon fill="midnightblue" stroke="midnightblue" points="691.11,-140.07 701.71,-139.87 693.3,-133.42 691.11,-140.07"/>
</g>
</g>
</svg>
