<?xml version="1.0" encoding="UTF-8" standalone="no"?>
<!DOCTYPE svg PUBLIC "-//W3C//DTD SVG 1.1//EN"
 "http://www.w3.org/Graphics/SVG/1.1/DTD/svg11.dtd">
<!-- Generated by graphviz version 2.46.1 (0)
 -->
<!-- Title: sources/Common/GameObject.hpp Pages: 1 -->
<svg width="896pt" height="285pt"
 viewBox="0.00 0.00 895.50 285.00" xmlns="http://www.w3.org/2000/svg" xmlns:xlink="http://www.w3.org/1999/xlink">
<g id="graph0" class="graph" transform="scale(1 1) rotate(0) translate(4 281)">
<title>sources/Common/GameObject.hpp</title>
<polygon fill="white" stroke="transparent" points="-4,4 -4,-281 891.5,-281 891.5,4 -4,4"/>
<!-- Node1 -->
<g id="node1" class="node">
<title>Node1</title>
<g id="a_node1"><a xlink:title=" ">
<polygon fill="#bfbfbf" stroke="black" points="430.5,-257.5 430.5,-276.5 600.5,-276.5 600.5,-257.5 430.5,-257.5"/>
<text text-anchor="middle" x="515.5" y="-264.5" font-family="Helvetica,sans-Serif" font-size="10.00">sources/Common/GameObject.hpp</text>
</a>
</g>
</g>
<!-- Node2 -->
<g id="node2" class="node">
<title>Node2</title>
<g id="a_node2"><a xlink:href="CircleObject_8hpp.html" target="_top" xlink:title=" ">
<polygon fill="white" stroke="black" points="0,-190.5 0,-220.5 157,-220.5 157,-190.5 0,-190.5"/>
<text text-anchor="start" x="8" y="-208.5" font-family="Helvetica,sans-Serif" font-size="10.00">sources/Common/GameObjects</text>
<text text-anchor="middle" x="78.5" y="-197.5" font-family="Helvetica,sans-Serif" font-size="10.00">/CircleObject.hpp</text>
</a>
</g>
</g>
<!-- Node1&#45;&gt;Node2 -->
<g id="edge1" class="edge">
<title>Node1&#45;&gt;Node2</title>
<path fill="none" stroke="midnightblue" d="M432.77,-256.25C361.78,-247.66 256.77,-234.47 165.5,-221 162.77,-220.6 160,-220.18 157.2,-219.75"/>
<polygon fill="midnightblue" stroke="midnightblue" points="432.65,-259.76 443,-257.48 433.49,-252.81 432.65,-259.76"/>
</g>
<!-- Node9 -->
<g id="node9" class="node">
<title>Node9</title>
<g id="a_node9"><a xlink:href="LineObject_8hpp.html" target="_top" xlink:title=" ">
<polygon fill="white" stroke="black" points="175,-190.5 175,-220.5 332,-220.5 332,-190.5 175,-190.5"/>
<text text-anchor="start" x="183" y="-208.5" font-family="Helvetica,sans-Serif" font-size="10.00">sources/Common/GameObjects</text>
<text text-anchor="middle" x="253.5" y="-197.5" font-family="Helvetica,sans-Serif" font-size="10.00">/LineObject.hpp</text>
</a>
</g>
</g>
<!-- Node1&#45;&gt;Node9 -->
<g id="edge8" class="edge">
<title>Node1&#45;&gt;Node9</title>
<path fill="none" stroke="midnightblue" d="M468.08,-255.23C425.26,-245.51 362,-231.14 315.25,-220.52"/>
<polygon fill="midnightblue" stroke="midnightblue" points="467.43,-258.67 477.96,-257.48 468.99,-251.85 467.43,-258.67"/>
</g>
<!-- Node10 -->
<g id="node10" class="node">
<title>Node10</title>
<g id="a_node10"><a xlink:href="RectangleObject_8hpp.html" target="_top" xlink:title=" ">
<polygon fill="white" stroke="black" points="350,-190.5 350,-220.5 507,-220.5 507,-190.5 350,-190.5"/>
<text text-anchor="start" x="358" y="-208.5" font-family="Helvetica,sans-Serif" font-size="10.00">sources/Common/GameObjects</text>
<text text-anchor="middle" x="428.5" y="-197.5" font-family="Helvetica,sans-Serif" font-size="10.00">/RectangleObject.hpp</text>
</a>
</g>
</g>
<!-- Node1&#45;&gt;Node10 -->
<g id="edge10" class="edge">
<title>Node1&#45;&gt;Node10</title>
<path fill="none" stroke="midnightblue" d="M494.65,-251.74C480.82,-242.28 462.76,-229.93 449,-220.52"/>
<polygon fill="midnightblue" stroke="midnightblue" points="492.8,-254.72 503.04,-257.48 496.76,-248.94 492.8,-254.72"/>
</g>
<!-- Node11 -->
<g id="node11" class="node">
<title>Node11</title>
<g id="a_node11"><a xlink:href="SpriteObject_8hpp.html" target="_top" xlink:title=" ">
<polygon fill="white" stroke="black" points="525,-190.5 525,-220.5 682,-220.5 682,-190.5 525,-190.5"/>
<text text-anchor="start" x="533" y="-208.5" font-family="Helvetica,sans-Serif" font-size="10.00">sources/Common/GameObjects</text>
<text text-anchor="middle" x="603.5" y="-197.5" font-family="Helvetica,sans-Serif" font-size="10.00">/SpriteObject.hpp</text>
</a>
</g>
</g>
<!-- Node1&#45;&gt;Node11 -->
<g id="edge12" class="edge">
<title>Node1&#45;&gt;Node11</title>
<path fill="none" stroke="midnightblue" d="M536.59,-251.74C550.58,-242.28 568.85,-229.93 582.76,-220.52"/>
<polygon fill="midnightblue" stroke="midnightblue" points="534.43,-248.97 528.11,-257.48 538.35,-254.77 534.43,-248.97"/>
</g>
<!-- Node12 -->
<g id="node12" class="node">
<title>Node12</title>
<g id="a_node12"><a xlink:href="TextObject_8hpp.html" target="_top" xlink:title=" ">
<polygon fill="white" stroke="black" points="700,-190.5 700,-220.5 857,-220.5 857,-190.5 700,-190.5"/>
<text text-anchor="start" x="708" y="-208.5" font-family="Helvetica,sans-Serif" font-size="10.00">sources/Common/GameObjects</text>
<text text-anchor="middle" x="778.5" y="-197.5" font-family="Helvetica,sans-Serif" font-size="10.00">/TextObject.hpp</text>
</a>
</g>
</g>
<!-- Node1&#45;&gt;Node12 -->
<g id="edge14" class="edge">
<title>Node1&#45;&gt;Node12</title>
<path fill="none" stroke="midnightblue" d="M563.1,-255.23C606.08,-245.51 669.59,-231.14 716.52,-220.52"/>
<polygon fill="midnightblue" stroke="midnightblue" points="562.16,-251.85 553.18,-257.48 563.71,-258.68 562.16,-251.85"/>
</g>
<!-- Node13 -->
<g id="node13" class="node">
<title>Node13</title>
<g id="a_node13"><a xlink:href="IGameModule_8hpp.html" target="_top" xlink:title=" ">
<polygon fill="white" stroke="black" points="711.5,-134.5 711.5,-153.5 887.5,-153.5 887.5,-134.5 711.5,-134.5"/>
<text text-anchor="middle" x="799.5" y="-141.5" font-family="Helvetica,sans-Serif" font-size="10.00">sources/Common/IGameModule.hpp</text>
</a>
</g>
</g>
<!-- Node1&#45;&gt;Node13 -->
<g id="edge16" class="edge">
<title>Node1&#45;&gt;Node13</title>
<path fill="none" stroke="midnightblue" d="M610.83,-260.19C708.93,-253.21 849.77,-240.02 866.5,-221 875.6,-210.66 872.98,-202.16 866.5,-190 857.21,-172.56 837.83,-160.68 822.29,-153.53"/>
<polygon fill="midnightblue" stroke="midnightblue" points="610.31,-256.71 600.58,-260.9 610.8,-263.7 610.31,-256.71"/>
</g>
<!-- Node3 -->
<g id="node3" class="node">
<title>Node3</title>
<g id="a_node3"><a xlink:href="IDisplayModule_8hpp.html" target="_top" xlink:title=" ">
<polygon fill="white" stroke="black" points="424,-134.5 424,-153.5 607,-153.5 607,-134.5 424,-134.5"/>
<text text-anchor="middle" x="515.5" y="-141.5" font-family="Helvetica,sans-Serif" font-size="10.00">sources/Common/IDisplayModule.hpp</text>
</a>
</g>
</g>
<!-- Node2&#45;&gt;Node3 -->
<g id="edge2" class="edge">
<title>Node2&#45;&gt;Node3</title>
<path fill="none" stroke="midnightblue" d="M167.28,-189.77C268.37,-174.98 374.42,-161.77 443,-153.52"/>
<polygon fill="midnightblue" stroke="midnightblue" points="166.58,-186.33 157.2,-191.25 167.6,-193.26 166.58,-186.33"/>
</g>
<!-- Node4 -->
<g id="node4" class="node">
<title>Node4</title>
<g id="a_node4"><a xlink:href="Runner_8hpp.html" target="_top" xlink:title=" ">
<polygon fill="white" stroke="black" points="626.5,-67.5 626.5,-97.5 736.5,-97.5 736.5,-67.5 626.5,-67.5"/>
<text text-anchor="start" x="634.5" y="-85.5" font-family="Helvetica,sans-Serif" font-size="10.00">sources/Core/Runner</text>
<text text-anchor="middle" x="681.5" y="-74.5" font-family="Helvetica,sans-Serif" font-size="10.00">/Runner.hpp</text>
</a>
</g>
</g>
<!-- Node3&#45;&gt;Node4 -->
<g id="edge3" class="edge">
<title>Node3&#45;&gt;Node4</title>
<path fill="none" stroke="midnightblue" d="M549.05,-130.98C576.04,-121.3 614.01,-107.69 642.38,-97.52"/>
<polygon fill="midnightblue" stroke="midnightblue" points="547.52,-127.81 539.28,-134.48 549.88,-134.4 547.52,-127.81"/>
</g>
<!-- Node7 -->
<g id="node7" class="node">
<title>Node7</title>
<g id="a_node7"><a xlink:href="SDLDisplay_8hpp.html" target="_top" xlink:title=" ">
<polygon fill="white" stroke="black" points="453.5,-67.5 453.5,-97.5 577.5,-97.5 577.5,-67.5 453.5,-67.5"/>
<text text-anchor="start" x="461.5" y="-85.5" font-family="Helvetica,sans-Serif" font-size="10.00">sources/DisplayModules</text>
<text text-anchor="middle" x="515.5" y="-74.5" font-family="Helvetica,sans-Serif" font-size="10.00">/SDLDisplay.hpp</text>
</a>
</g>
</g>
<!-- Node3&#45;&gt;Node7 -->
<g id="edge6" class="edge">
<title>Node3&#45;&gt;Node7</title>
<path fill="none" stroke="midnightblue" d="M515.5,-124.23C515.5,-115.59 515.5,-105.5 515.5,-97.52"/>
<polygon fill="midnightblue" stroke="midnightblue" points="512,-124.48 515.5,-134.48 519,-124.48 512,-124.48"/>
</g>
<!-- Node5 -->
<g id="node5" class="node">
<title>Node5</title>
<g id="a_node5"><a xlink:href="main_8cpp.html" target="_top" xlink:title=" ">
<polygon fill="white" stroke="black" points="723.5,-6 723.5,-25 779.5,-25 779.5,-6 723.5,-6"/>
<text text-anchor="middle" x="751.5" y="-13" font-family="Helvetica,sans-Serif" font-size="10.00">main.cpp</text>
</a>
</g>
</g>
<!-- Node4&#45;&gt;Node5 -->
<g id="edge4" class="edge">
<title>Node4&#45;&gt;Node5</title>
<path fill="none" stroke="midnightblue" d="M704.29,-60.34C717.15,-48.4 732.51,-34.14 742.14,-25.19"/>
<polygon fill="midnightblue" stroke="midnightblue" points="701.64,-58.03 696.69,-67.4 706.4,-63.16 701.64,-58.03"/>
</g>
<!-- Node6 -->
<g id="node6" class="node">
<title>Node6</title>
<g id="a_node6"><a xlink:href="Runner_8cpp.html" target="_top" xlink:title=" ">
<polygon fill="white" stroke="black" points="595.5,-0.5 595.5,-30.5 705.5,-30.5 705.5,-0.5 595.5,-0.5"/>
<text text-anchor="start" x="603.5" y="-18.5" font-family="Helvetica,sans-Serif" font-size="10.00">sources/Core/Runner</text>
<text text-anchor="middle" x="650.5" y="-7.5" font-family="Helvetica,sans-Serif" font-size="10.00">/Runner.cpp</text>
</a>
</g>
</g>
<!-- Node4&#45;&gt;Node6 -->
<g id="edge5" class="edge">
<title>Node4&#45;&gt;Node6</title>
<path fill="none" stroke="midnightblue" d="M670.43,-58.28C666.01,-49.02 661.07,-38.66 657.21,-30.58"/>
<polygon fill="midnightblue" stroke="midnightblue" points="667.31,-59.88 674.77,-67.4 673.63,-56.86 667.31,-59.88"/>
</g>
<!-- Node8 -->
<g id="node8" class="node">
<title>Node8</title>
<g id="a_node8"><a xlink:href="SDLDisplay_8cpp.html" target="_top" xlink:title=" ">
<polygon fill="white" stroke="black" points="453.5,-0.5 453.5,-30.5 577.5,-30.5 577.5,-0.5 453.5,-0.5"/>
<text text-anchor="start" x="461.5" y="-18.5" font-family="Helvetica,sans-Serif" font-size="10.00">sources/DisplayModules</text>
<text text-anchor="middle" x="515.5" y="-7.5" font-family="Helvetica,sans-Serif" font-size="10.00">/SDLDisplay.cpp</text>
</a>
</g>
</g>
<!-- Node7&#45;&gt;Node8 -->
<g id="edge7" class="edge">
<title>Node7&#45;&gt;Node8</title>
<path fill="none" stroke="midnightblue" d="M515.5,-57.11C515.5,-48.15 515.5,-38.32 515.5,-30.58"/>
<polygon fill="midnightblue" stroke="midnightblue" points="512,-57.4 515.5,-67.4 519,-57.4 512,-57.4"/>
</g>
<!-- Node9&#45;&gt;Node3 -->
<g id="edge9" class="edge">
<title>Node9&#45;&gt;Node3</title>
<path fill="none" stroke="midnightblue" d="M325.26,-188.2C374.67,-176.98 438.34,-162.52 478.04,-153.51"/>
<polygon fill="midnightblue" stroke="midnightblue" points="324.24,-184.85 315.26,-190.47 325.79,-191.67 324.24,-184.85"/>
</g>
<!-- Node10&#45;&gt;Node3 -->
<g id="edge11" class="edge">
<title>Node10&#45;&gt;Node3</title>
<path fill="none" stroke="midnightblue" d="M457.77,-184.48C473.09,-174 491.07,-161.71 502.84,-153.66"/>
<polygon fill="midnightblue" stroke="midnightblue" points="455.4,-181.87 449.12,-190.4 459.35,-187.64 455.4,-181.87"/>
</g>
<!-- Node11&#45;&gt;Node3 -->
<g id="edge13" class="edge">
<title>Node11&#45;&gt;Node3</title>
<path fill="none" stroke="midnightblue" d="M574.33,-184.78C558.73,-174.23 540.32,-161.78 528.3,-153.66"/>
<polygon fill="midnightblue" stroke="midnightblue" points="572.4,-187.7 582.65,-190.4 576.32,-181.9 572.4,-187.7"/>
</g>
<!-- Node12&#45;&gt;Node3 -->
<g id="edge15" class="edge">
<title>Node12&#45;&gt;Node3</title>
<path fill="none" stroke="midnightblue" d="M706.47,-188.2C656.86,-176.98 592.95,-162.52 553.1,-153.51"/>
<polygon fill="midnightblue" stroke="midnightblue" points="705.98,-191.68 716.51,-190.47 707.52,-184.85 705.98,-191.68"/>
</g>
<!-- Node13&#45;&gt;Node4 -->
<g id="edge17" class="edge">
<title>Node13&#45;&gt;Node4</title>
<path fill="none" stroke="midnightblue" d="M773.6,-129.94C754.57,-120.35 728.77,-107.33 709.31,-97.52"/>
<polygon fill="midnightblue" stroke="midnightblue" points="772.09,-133.1 782.59,-134.48 775.24,-126.85 772.09,-133.1"/>
</g>
</g>
</svg>
