<?xml version="1.0" encoding="UTF-8" standalone="no"?>
<!DOCTYPE svg PUBLIC "-//W3C//DTD SVG 1.1//EN"
 "http://www.w3.org/Graphics/SVG/1.1/DTD/svg11.dtd">
<!-- Generated by graphviz version 2.46.1 (0)
 -->
<!-- Title: sources/Common/IDisplayModule.hpp Pages: 1 -->
<svg width="1044pt" height="207pt"
 viewBox="0.00 0.00 1043.50 207.00" xmlns="http://www.w3.org/2000/svg" xmlns:xlink="http://www.w3.org/1999/xlink">
<g id="graph0" class="graph" transform="scale(1 1) rotate(0) translate(4 203)">
<title>sources/Common/IDisplayModule.hpp</title>
<polygon fill="white" stroke="transparent" points="-4,4 -4,-203 1039.5,-203 1039.5,4 -4,4"/>
<!-- Node1 -->
<g id="node1" class="node">
<title>Node1</title>
<g id="a_node1"><a xlink:title=" ">
<polygon fill="#bfbfbf" stroke="black" points="516,-179.5 516,-198.5 699,-198.5 699,-179.5 516,-179.5"/>
<text text-anchor="middle" x="607.5" y="-186.5" font-family="Helvetica,sans-Serif" font-size="10.00">sources/Common/IDisplayModule.hpp</text>
</a>
</g>
</g>
<!-- Node2 -->
<g id="node2" class="node">
<title>Node2</title>
<g id="a_node2"><a xlink:href="Module_8hpp.html" target="_top" xlink:title=" ">
<polygon fill="white" stroke="black" points="685.5,-118 685.5,-137 795.5,-137 795.5,-118 685.5,-118"/>
<text text-anchor="middle" x="740.5" y="-125" font-family="Helvetica,sans-Serif" font-size="10.00">Common/Module.hpp</text>
</a>
</g>
</g>
<!-- Node1&#45;&gt;Node2 -->
<g id="edge1" class="edge">
<title>Node1&#45;&gt;Node2</title>
<path fill="none" stroke="midnightblue" d="M626.56,-179.48C648.97,-169.45 686.41,-152.7 712.21,-141.15"/>
<polygon fill="midnightblue" stroke="midnightblue" points="713.78,-144.29 721.48,-137.01 710.92,-137.9 713.78,-144.29"/>
</g>
<!-- Node5 -->
<g id="node5" class="node">
<title>Node5</title>
<g id="a_node5"><a xlink:href="LineObject_8hpp.html" target="_top" xlink:title=" ">
<polygon fill="white" stroke="black" points="274,-112.5 274,-142.5 393,-142.5 393,-112.5 274,-112.5"/>
<text text-anchor="start" x="282" y="-130.5" font-family="Helvetica,sans-Serif" font-size="10.00">Common/GameObjects</text>
<text text-anchor="middle" x="333.5" y="-119.5" font-family="Helvetica,sans-Serif" font-size="10.00">/LineObject.hpp</text>
</a>
</g>
</g>
<!-- Node1&#45;&gt;Node5 -->
<g id="edge4" class="edge">
<title>Node1&#45;&gt;Node5</title>
<path fill="none" stroke="midnightblue" d="M568.24,-179.48C525.22,-170.13 455.35,-154.96 403.01,-143.59"/>
<polygon fill="midnightblue" stroke="midnightblue" points="403.64,-140.15 393.12,-141.45 402.15,-146.99 403.64,-140.15"/>
</g>
<!-- Node7 -->
<g id="node7" class="node">
<title>Node7</title>
<g id="a_node7"><a xlink:href="RectangleObject_8hpp.html" target="_top" xlink:title=" ">
<polygon fill="white" stroke="black" points="411,-112.5 411,-142.5 530,-142.5 530,-112.5 411,-112.5"/>
<text text-anchor="start" x="419" y="-130.5" font-family="Helvetica,sans-Serif" font-size="10.00">Common/GameObjects</text>
<text text-anchor="middle" x="470.5" y="-119.5" font-family="Helvetica,sans-Serif" font-size="10.00">/RectangleObject.hpp</text>
</a>
</g>
</g>
<!-- Node1&#45;&gt;Node7 -->
<g id="edge6" class="edge">
<title>Node1&#45;&gt;Node7</title>
<path fill="none" stroke="midnightblue" d="M587.87,-179.48C568.19,-170.93 537.28,-157.5 512.11,-146.57"/>
<polygon fill="midnightblue" stroke="midnightblue" points="513.35,-143.3 502.79,-142.52 510.57,-149.72 513.35,-143.3"/>
</g>
<!-- Node8 -->
<g id="node8" class="node">
<title>Node8</title>
<g id="a_node8"><a xlink:href="CircleObject_8hpp.html" target="_top" xlink:title=" ">
<polygon fill="white" stroke="black" points="137,-112.5 137,-142.5 256,-142.5 256,-112.5 137,-112.5"/>
<text text-anchor="start" x="145" y="-130.5" font-family="Helvetica,sans-Serif" font-size="10.00">Common/GameObjects</text>
<text text-anchor="middle" x="196.5" y="-119.5" font-family="Helvetica,sans-Serif" font-size="10.00">/CircleObject.hpp</text>
</a>
</g>
</g>
<!-- Node1&#45;&gt;Node8 -->
<g id="edge8" class="edge">
<title>Node1&#45;&gt;Node8</title>
<path fill="none" stroke="midnightblue" d="M528.9,-179.49C461.59,-171.79 361.86,-159.4 266.28,-143.23"/>
<polygon fill="midnightblue" stroke="midnightblue" points="266.6,-139.74 256.15,-141.5 265.42,-146.64 266.6,-139.74"/>
</g>
<!-- Node9 -->
<g id="node9" class="node">
<title>Node9</title>
<g id="a_node9"><a xlink:href="SpriteObject_8hpp.html" target="_top" xlink:title=" ">
<polygon fill="white" stroke="black" points="0,-112.5 0,-142.5 119,-142.5 119,-112.5 0,-112.5"/>
<text text-anchor="start" x="8" y="-130.5" font-family="Helvetica,sans-Serif" font-size="10.00">Common/GameObjects</text>
<text text-anchor="middle" x="59.5" y="-119.5" font-family="Helvetica,sans-Serif" font-size="10.00">/SpriteObject.hpp</text>
</a>
</g>
</g>
<!-- Node1&#45;&gt;Node9 -->
<g id="edge10" class="edge">
<title>Node1&#45;&gt;Node9</title>
<path fill="none" stroke="midnightblue" d="M515.99,-182.61C421.38,-176.3 269.28,-164.15 129.2,-143.15"/>
<polygon fill="midnightblue" stroke="midnightblue" points="129.54,-139.67 119.13,-141.63 128.49,-146.59 129.54,-139.67"/>
</g>
<!-- Node10 -->
<g id="node10" class="node">
<title>Node10</title>
<g id="a_node10"><a xlink:href="TextObject_8hpp.html" target="_top" xlink:title=" ">
<polygon fill="white" stroke="black" points="548,-112.5 548,-142.5 667,-142.5 667,-112.5 548,-112.5"/>
<text text-anchor="start" x="556" y="-130.5" font-family="Helvetica,sans-Serif" font-size="10.00">Common/GameObjects</text>
<text text-anchor="middle" x="607.5" y="-119.5" font-family="Helvetica,sans-Serif" font-size="10.00">/TextObject.hpp</text>
</a>
</g>
</g>
<!-- Node1&#45;&gt;Node10 -->
<g id="edge13" class="edge">
<title>Node1&#45;&gt;Node10</title>
<path fill="none" stroke="midnightblue" d="M607.5,-179.48C607.5,-172.47 607.5,-162.19 607.5,-152.7"/>
<polygon fill="midnightblue" stroke="midnightblue" points="611,-152.52 607.5,-142.52 604,-152.52 611,-152.52"/>
</g>
<!-- Node11 -->
<g id="node11" class="node">
<title>Node11</title>
<g id="a_node11"><a xlink:href="Event_8hpp.html" target="_top" xlink:title=" ">
<polygon fill="white" stroke="black" points="813.5,-118 813.5,-137 917.5,-137 917.5,-118 813.5,-118"/>
<text text-anchor="middle" x="865.5" y="-125" font-family="Helvetica,sans-Serif" font-size="10.00">Common/Event.hpp</text>
</a>
</g>
</g>
<!-- Node1&#45;&gt;Node11 -->
<g id="edge16" class="edge">
<title>Node1&#45;&gt;Node11</title>
<path fill="none" stroke="midnightblue" d="M645.29,-179.47C684.96,-170.49 749.15,-155.9 804.5,-143 809.47,-141.84 814.67,-140.62 819.85,-139.4"/>
<polygon fill="midnightblue" stroke="midnightblue" points="820.78,-142.77 829.71,-137.06 819.17,-135.96 820.78,-142.77"/>
</g>
<!-- Node12 -->
<g id="node12" class="node">
<title>Node12</title>
<g id="a_node12"><a xlink:title=" ">
<polygon fill="white" stroke="#bfbfbf" points="936,-118 936,-137 965,-137 965,-118 936,-118"/>
<text text-anchor="middle" x="950.5" y="-125" font-family="Helvetica,sans-Serif" font-size="10.00">list</text>
</a>
</g>
</g>
<!-- Node1&#45;&gt;Node12 -->
<g id="edge17" class="edge">
<title>Node1&#45;&gt;Node12</title>
<path fill="none" stroke="midnightblue" d="M699.19,-184.82C764.24,-180.24 852.73,-169.25 926.5,-143 927.38,-142.69 928.27,-142.34 929.15,-141.96"/>
<polygon fill="midnightblue" stroke="midnightblue" points="931.04,-144.92 938.27,-137.18 927.79,-138.72 931.04,-144.92"/>
</g>
<!-- Node13 -->
<g id="node13" class="node">
<title>Node13</title>
<g id="a_node13"><a xlink:title=" ">
<polygon fill="white" stroke="#bfbfbf" points="983.5,-118 983.5,-137 1035.5,-137 1035.5,-118 983.5,-118"/>
<text text-anchor="middle" x="1009.5" y="-125" font-family="Helvetica,sans-Serif" font-size="10.00">memory</text>
</a>
</g>
</g>
<!-- Node1&#45;&gt;Node13 -->
<g id="edge18" class="edge">
<title>Node1&#45;&gt;Node13</title>
<path fill="none" stroke="midnightblue" d="M699.29,-183.64C774.32,-178.45 882.62,-167.18 974.5,-143 976.95,-142.36 979.45,-141.58 981.94,-140.72"/>
<polygon fill="midnightblue" stroke="midnightblue" points="983.21,-143.98 991.3,-137.13 980.71,-137.44 983.21,-143.98"/>
</g>
<!-- Node3 -->
<g id="node3" class="node">
<title>Node3</title>
<g id="a_node3"><a xlink:href="ModInfo_8hpp.html" target="_top" xlink:title=" ">
<polygon fill="white" stroke="black" points="660,-56.5 660,-75.5 773,-75.5 773,-56.5 660,-56.5"/>
<text text-anchor="middle" x="716.5" y="-63.5" font-family="Helvetica,sans-Serif" font-size="10.00">Common/ModInfo.hpp</text>
</a>
</g>
</g>
<!-- Node2&#45;&gt;Node3 -->
<g id="edge2" class="edge">
<title>Node2&#45;&gt;Node3</title>
<path fill="none" stroke="midnightblue" d="M737.06,-117.98C733.6,-109.4 728.17,-95.93 723.75,-84.98"/>
<polygon fill="midnightblue" stroke="midnightblue" points="726.92,-83.47 719.93,-75.51 720.43,-86.09 726.92,-83.47"/>
</g>
<!-- Node4 -->
<g id="node4" class="node">
<title>Node4</title>
<g id="a_node4"><a xlink:title=" ">
<polygon fill="white" stroke="#bfbfbf" points="587,-0.5 587,-19.5 628,-19.5 628,-0.5 587,-0.5"/>
<text text-anchor="middle" x="607.5" y="-7.5" font-family="Helvetica,sans-Serif" font-size="10.00">string</text>
</a>
</g>
</g>
<!-- Node3&#45;&gt;Node4 -->
<g id="edge3" class="edge">
<title>Node3&#45;&gt;Node4</title>
<path fill="none" stroke="midnightblue" d="M698.99,-56.32C681.43,-47.62 654.17,-34.12 633.97,-24.11"/>
<polygon fill="midnightblue" stroke="midnightblue" points="635.48,-20.96 624.97,-19.65 632.38,-27.23 635.48,-20.96"/>
</g>
<!-- Node6 -->
<g id="node6" class="node">
<title>Node6</title>
<g id="a_node6"><a xlink:href="GameObject_8hpp.html" target="_top" xlink:title=" ">
<polygon fill="white" stroke="black" points="267,-56.5 267,-75.5 400,-75.5 400,-56.5 267,-56.5"/>
<text text-anchor="middle" x="333.5" y="-63.5" font-family="Helvetica,sans-Serif" font-size="10.00">Common/GameObject.hpp</text>
</a>
</g>
</g>
<!-- Node5&#45;&gt;Node6 -->
<g id="edge5" class="edge">
<title>Node5&#45;&gt;Node6</title>
<path fill="none" stroke="midnightblue" d="M333.5,-112.4C333.5,-104.47 333.5,-94.46 333.5,-85.86"/>
<polygon fill="midnightblue" stroke="midnightblue" points="337,-85.66 333.5,-75.66 330,-85.66 337,-85.66"/>
</g>
<!-- Node7&#45;&gt;Node6 -->
<g id="edge7" class="edge">
<title>Node7&#45;&gt;Node6</title>
<path fill="none" stroke="midnightblue" d="M438.03,-112.4C415.15,-102.46 384.77,-89.26 362.66,-79.66"/>
<polygon fill="midnightblue" stroke="midnightblue" points="364,-76.43 353.43,-75.66 361.21,-82.85 364,-76.43"/>
</g>
<!-- Node8&#45;&gt;Node6 -->
<g id="edge9" class="edge">
<title>Node8&#45;&gt;Node6</title>
<path fill="none" stroke="midnightblue" d="M228.97,-112.4C251.85,-102.46 282.23,-89.26 304.34,-79.66"/>
<polygon fill="midnightblue" stroke="midnightblue" points="305.79,-82.85 313.57,-75.66 303,-76.43 305.79,-82.85"/>
</g>
<!-- Node9&#45;&gt;Node4 -->
<g id="edge12" class="edge">
<title>Node9&#45;&gt;Node4</title>
<path fill="none" stroke="midnightblue" d="M92.13,-112.44C130.85,-96.33 197.71,-70.31 257.5,-56 373.28,-28.28 514.97,-16.72 576.51,-12.75"/>
<polygon fill="midnightblue" stroke="midnightblue" points="576.94,-16.23 586.71,-12.12 576.51,-9.24 576.94,-16.23"/>
</g>
<!-- Node9&#45;&gt;Node6 -->
<g id="edge11" class="edge">
<title>Node9&#45;&gt;Node6</title>
<path fill="none" stroke="midnightblue" d="M119.29,-113.52C168.73,-102.78 238.08,-87.72 284.34,-77.68"/>
<polygon fill="midnightblue" stroke="midnightblue" points="285.1,-81.09 294.13,-75.55 283.62,-74.25 285.1,-81.09"/>
</g>
<!-- Node10&#45;&gt;Node4 -->
<g id="edge15" class="edge">
<title>Node10&#45;&gt;Node4</title>
<path fill="none" stroke="midnightblue" d="M607.5,-112.34C607.5,-91.62 607.5,-53.02 607.5,-29.9"/>
<polygon fill="midnightblue" stroke="midnightblue" points="611,-29.67 607.5,-19.67 604,-29.67 611,-29.67"/>
</g>
<!-- Node10&#45;&gt;Node6 -->
<g id="edge14" class="edge">
<title>Node10&#45;&gt;Node6</title>
<path fill="none" stroke="midnightblue" d="M547.71,-113.52C498.27,-102.78 428.92,-87.72 382.66,-77.68"/>
<polygon fill="midnightblue" stroke="midnightblue" points="383.38,-74.25 372.87,-75.55 381.9,-81.09 383.38,-74.25"/>
</g>
</g>
</svg>
