<?xml version="1.0" encoding="UTF-8" standalone="no"?>
<!DOCTYPE svg PUBLIC "-//W3C//DTD SVG 1.1//EN"
 "http://www.w3.org/Graphics/SVG/1.1/DTD/svg11.dtd">
<!-- Generated by graphviz version 2.46.1 (0)
 -->
<!-- Title: sources/Common/IGameModule.hpp Pages: 1 -->
<svg width="202pt" height="162pt"
 viewBox="0.00 0.00 202.00 162.00" xmlns="http://www.w3.org/2000/svg" xmlns:xlink="http://www.w3.org/1999/xlink">
<g id="graph0" class="graph" transform="scale(1 1) rotate(0) translate(4 158)">
<title>sources/Common/IGameModule.hpp</title>
<polygon fill="white" stroke="transparent" points="-4,4 -4,-158 198,-158 198,4 -4,4"/>
<!-- Node1 -->
<g id="node1" class="node">
<title>Node1</title>
<g id="a_node1"><a xlink:title=" ">
<polygon fill="#bfbfbf" stroke="black" points="0,-134.5 0,-153.5 176,-153.5 176,-134.5 0,-134.5"/>
<text text-anchor="middle" x="88" y="-141.5" font-family="Helvetica,sans-Serif" font-size="10.00">sources/Common/IGameModule.hpp</text>
</a>
</g>
</g>
<!-- Node2 -->
<g id="node2" class="node">
<title>Node2</title>
<g id="a_node2"><a xlink:href="Runner_8hpp.html" target="_top" xlink:title=" ">
<polygon fill="white" stroke="black" points="33,-67.5 33,-97.5 143,-97.5 143,-67.5 33,-67.5"/>
<text text-anchor="start" x="41" y="-85.5" font-family="Helvetica,sans-Serif" font-size="10.00">sources/Core/Runner</text>
<text text-anchor="middle" x="88" y="-74.5" font-family="Helvetica,sans-Serif" font-size="10.00">/Runner.hpp</text>
</a>
</g>
</g>
<!-- Node1&#45;&gt;Node2 -->
<g id="edge1" class="edge">
<title>Node1&#45;&gt;Node2</title>
<path fill="none" stroke="midnightblue" d="M88,-124.23C88,-115.59 88,-105.5 88,-97.52"/>
<polygon fill="midnightblue" stroke="midnightblue" points="84.5,-124.48 88,-134.48 91.5,-124.48 84.5,-124.48"/>
</g>
<!-- Node3 -->
<g id="node3" class="node">
<title>Node3</title>
<g id="a_node3"><a xlink:href="main_8cpp.html" target="_top" xlink:title=" ">
<polygon fill="white" stroke="black" points="10,-6 10,-25 66,-25 66,-6 10,-6"/>
<text text-anchor="middle" x="38" y="-13" font-family="Helvetica,sans-Serif" font-size="10.00">main.cpp</text>
</a>
</g>
</g>
<!-- Node2&#45;&gt;Node3 -->
<g id="edge2" class="edge">
<title>Node2&#45;&gt;Node3</title>
<path fill="none" stroke="midnightblue" d="M70.94,-59.32C61.92,-47.6 51.37,-33.88 44.69,-25.19"/>
<polygon fill="midnightblue" stroke="midnightblue" points="68.28,-61.6 77.15,-67.4 73.83,-57.34 68.28,-61.6"/>
</g>
<!-- Node4 -->
<g id="node4" class="node">
<title>Node4</title>
<g id="a_node4"><a xlink:href="Runner_8cpp.html" target="_top" xlink:title=" ">
<polygon fill="white" stroke="black" points="84,-0.5 84,-30.5 194,-30.5 194,-0.5 84,-0.5"/>
<text text-anchor="start" x="92" y="-18.5" font-family="Helvetica,sans-Serif" font-size="10.00">sources/Core/Runner</text>
<text text-anchor="middle" x="139" y="-7.5" font-family="Helvetica,sans-Serif" font-size="10.00">/Runner.cpp</text>
</a>
</g>
</g>
<!-- Node2&#45;&gt;Node4 -->
<g id="edge3" class="edge">
<title>Node2&#45;&gt;Node4</title>
<path fill="none" stroke="midnightblue" d="M105.3,-59.45C112.79,-49.9 121.34,-39 127.96,-30.58"/>
<polygon fill="midnightblue" stroke="midnightblue" points="102.49,-57.37 99.07,-67.4 107.99,-61.69 102.49,-57.37"/>
</g>
</g>
</svg>
