<?xml version="1.0" encoding="UTF-8" standalone="no"?>
<!DOCTYPE svg PUBLIC "-//W3C//DTD SVG 1.1//EN"
 "http://www.w3.org/Graphics/SVG/1.1/DTD/svg11.dtd">
<!-- Generated by graphviz version 2.46.1 (0)
 -->
<!-- Title: sources/Common/IGameModule.hpp Pages: 1 -->
<svg width="539pt" height="196pt"
 viewBox="0.00 0.00 538.75 196.00" xmlns="http://www.w3.org/2000/svg" xmlns:xlink="http://www.w3.org/1999/xlink">
<g id="graph0" class="graph" transform="scale(1 1) rotate(0) translate(4 192)">
<title>sources/Common/IGameModule.hpp</title>
<polygon fill="white" stroke="transparent" points="-4,4 -4,-192 534.75,-192 534.75,4 -4,4"/>
<!-- Node1 -->
<g id="node1" class="node">
<title>Node1</title>
<g id="a_node1"><a xlink:title=" ">
<polygon fill="#bfbfbf" stroke="black" points="195.75,-168.5 195.75,-187.5 371.75,-187.5 371.75,-168.5 195.75,-168.5"/>
<text text-anchor="middle" x="283.75" y="-175.5" font-family="Helvetica,sans-Serif" font-size="10.00">sources/Common/IGameModule.hpp</text>
</a>
</g>
</g>
<!-- Node2 -->
<g id="node2" class="node">
<title>Node2</title>
<g id="a_node2"><a xlink:href="ModInfo_8hpp.html" target="_top" xlink:title=" ">
<polygon fill="white" stroke="black" points="47.25,-56.5 47.25,-75.5 160.25,-75.5 160.25,-56.5 47.25,-56.5"/>
<text text-anchor="middle" x="103.75" y="-63.5" font-family="Helvetica,sans-Serif" font-size="10.00">Common/ModInfo.hpp</text>
</a>
</g>
</g>
<!-- Node1&#45;&gt;Node2 -->
<g id="edge1" class="edge">
<title>Node1&#45;&gt;Node2</title>
<path fill="none" stroke="midnightblue" d="M195.67,-174.78C123.63,-170.89 29.88,-160.34 5.75,-132 -14.57,-108.13 24.75,-89.5 59.47,-78.43"/>
<polygon fill="midnightblue" stroke="midnightblue" points="60.54,-81.76 69.09,-75.5 58.51,-75.06 60.54,-81.76"/>
</g>
<!-- Node4 -->
<g id="node4" class="node">
<title>Node4</title>
<g id="a_node4"><a xlink:href="GameObject_8hpp.html" target="_top" xlink:title=" ">
<polygon fill="white" stroke="black" points="15.25,-112.5 15.25,-131.5 148.25,-131.5 148.25,-112.5 15.25,-112.5"/>
<text text-anchor="middle" x="81.75" y="-119.5" font-family="Helvetica,sans-Serif" font-size="10.00">Common/GameObject.hpp</text>
</a>
</g>
</g>
<!-- Node1&#45;&gt;Node4 -->
<g id="edge3" class="edge">
<title>Node1&#45;&gt;Node4</title>
<path fill="none" stroke="midnightblue" d="M251.74,-168.44C217.02,-159.16 161.46,-144.31 123.37,-134.13"/>
<polygon fill="midnightblue" stroke="midnightblue" points="124.17,-130.72 113.61,-131.52 122.37,-137.48 124.17,-130.72"/>
</g>
<!-- Node5 -->
<g id="node5" class="node">
<title>Node5</title>
<g id="a_node5"><a xlink:href="Module_8hpp.html" target="_top" xlink:title=" ">
<polygon fill="white" stroke="black" points="166.75,-112.5 166.75,-131.5 276.75,-131.5 276.75,-112.5 166.75,-112.5"/>
<text text-anchor="middle" x="221.75" y="-119.5" font-family="Helvetica,sans-Serif" font-size="10.00">Common/Module.hpp</text>
</a>
</g>
</g>
<!-- Node1&#45;&gt;Node5 -->
<g id="edge4" class="edge">
<title>Node1&#45;&gt;Node5</title>
<path fill="none" stroke="midnightblue" d="M273.79,-168.32C264.63,-160.34 250.81,-148.31 239.72,-138.65"/>
<polygon fill="midnightblue" stroke="midnightblue" points="241.73,-135.76 231.89,-131.83 237.14,-141.04 241.73,-135.76"/>
</g>
<!-- Node6 -->
<g id="node6" class="node">
<title>Node6</title>
<g id="a_node6"><a xlink:href="Event_8hpp.html" target="_top" xlink:title=" ">
<polygon fill="white" stroke="black" points="294.75,-112.5 294.75,-131.5 398.75,-131.5 398.75,-112.5 294.75,-112.5"/>
<text text-anchor="middle" x="346.75" y="-119.5" font-family="Helvetica,sans-Serif" font-size="10.00">Common/Event.hpp</text>
</a>
</g>
</g>
<!-- Node1&#45;&gt;Node6 -->
<g id="edge6" class="edge">
<title>Node1&#45;&gt;Node6</title>
<path fill="none" stroke="midnightblue" d="M293.87,-168.32C303.28,-160.26 317.5,-148.08 328.82,-138.37"/>
<polygon fill="midnightblue" stroke="midnightblue" points="331.13,-141 336.45,-131.83 326.58,-135.68 331.13,-141"/>
</g>
<!-- Node7 -->
<g id="node7" class="node">
<title>Node7</title>
<g id="a_node7"><a xlink:title=" ">
<polygon fill="white" stroke="#bfbfbf" points="416.75,-112.5 416.75,-131.5 460.75,-131.5 460.75,-112.5 416.75,-112.5"/>
<text text-anchor="middle" x="438.75" y="-119.5" font-family="Helvetica,sans-Serif" font-size="10.00">vector</text>
</a>
</g>
</g>
<!-- Node1&#45;&gt;Node7 -->
<g id="edge7" class="edge">
<title>Node1&#45;&gt;Node7</title>
<path fill="none" stroke="midnightblue" d="M308.31,-168.44C334.89,-159.19 377.36,-144.39 406.58,-134.21"/>
<polygon fill="midnightblue" stroke="midnightblue" points="408.03,-137.41 416.32,-130.82 405.72,-130.8 408.03,-137.41"/>
</g>
<!-- Node8 -->
<g id="node8" class="node">
<title>Node8</title>
<g id="a_node8"><a xlink:title=" ">
<polygon fill="white" stroke="#bfbfbf" points="478.75,-112.5 478.75,-131.5 530.75,-131.5 530.75,-112.5 478.75,-112.5"/>
<text text-anchor="middle" x="504.75" y="-119.5" font-family="Helvetica,sans-Serif" font-size="10.00">memory</text>
</a>
</g>
</g>
<!-- Node1&#45;&gt;Node8 -->
<g id="edge8" class="edge">
<title>Node1&#45;&gt;Node8</title>
<path fill="none" stroke="midnightblue" d="M319.79,-168.44C355.24,-159.99 411.15,-146.56 468.44,-132.3"/>
<polygon fill="midnightblue" stroke="midnightblue" points="469.53,-135.64 478.39,-129.82 467.84,-128.85 469.53,-135.64"/>
</g>
<!-- Node3 -->
<g id="node3" class="node">
<title>Node3</title>
<g id="a_node3"><a xlink:title=" ">
<polygon fill="white" stroke="#bfbfbf" points="83.25,-0.5 83.25,-19.5 124.25,-19.5 124.25,-0.5 83.25,-0.5"/>
<text text-anchor="middle" x="103.75" y="-7.5" font-family="Helvetica,sans-Serif" font-size="10.00">string</text>
</a>
</g>
</g>
<!-- Node2&#45;&gt;Node3 -->
<g id="edge2" class="edge">
<title>Node2&#45;&gt;Node3</title>
<path fill="none" stroke="midnightblue" d="M103.75,-56.08C103.75,-49.01 103.75,-38.86 103.75,-29.99"/>
<polygon fill="midnightblue" stroke="midnightblue" points="107.25,-29.75 103.75,-19.75 100.25,-29.75 107.25,-29.75"/>
</g>
<!-- Node5&#45;&gt;Node2 -->
<g id="edge5" class="edge">
<title>Node5&#45;&gt;Node2</title>
<path fill="none" stroke="midnightblue" d="M203.05,-112.44C183.81,-103.64 153.6,-89.81 131.55,-79.72"/>
<polygon fill="midnightblue" stroke="midnightblue" points="132.91,-76.5 122.36,-75.52 130,-82.86 132.91,-76.5"/>
</g>
</g>
</svg>
