<?xml version="1.0" encoding="UTF-8" standalone="no"?>
<!DOCTYPE svg PUBLIC "-//W3C//DTD SVG 1.1//EN"
 "http://www.w3.org/Graphics/SVG/1.1/DTD/svg11.dtd">
<!-- Generated by graphviz version 2.46.1 (0)
 -->
<!-- Title: Graphical Class Hierarchy Pages: 1 -->
<svg width="265pt" height="235pt"
 viewBox="0.00 0.00 265.00 235.00" xmlns="http://www.w3.org/2000/svg" xmlns:xlink="http://www.w3.org/1999/xlink">
<g id="graph0" class="graph" transform="scale(1 1) rotate(0) translate(4 231)">
<title>Graphical Class Hierarchy</title>
<polygon fill="white" stroke="transparent" points="-4,4 -4,-231 261,-231 261,4 -4,4"/>
<!-- Node0 -->
<g id="node1" class="node">
<title>Node0</title>
<g id="a_node1"><a xlink:href="classArcade_1_1GameObject.html" target="_top" xlink:title="A base class for every objects in the game.">
<polygon fill="white" stroke="black" points="0,-104 0,-123 108,-123 108,-104 0,-104"/>
<text text-anchor="middle" x="54" y="-111" font-family="Helvetica,sans-Serif" font-size="10.00">Arcade::GameObject</text>
</a>
</g>
</g>
<!-- Node1 -->
<g id="node2" class="node">
<title>Node1</title>
<g id="a_node2"><a xlink:href="classArcade_1_1GameObjects_1_1CircleObject.html" target="_top" xlink:title="A circle game objecct.">
<polygon fill="white" stroke="black" points="144,-196.5 144,-226.5 257,-226.5 257,-196.5 144,-196.5"/>
<text text-anchor="start" x="152" y="-214.5" font-family="Helvetica,sans-Serif" font-size="10.00">Arcade::GameObjects</text>
<text text-anchor="middle" x="200.5" y="-203.5" font-family="Helvetica,sans-Serif" font-size="10.00">::CircleObject</text>
</a>
</g>
</g>
<!-- Node0&#45;&gt;Node1 -->
<g id="edge1" class="edge">
<title>Node0&#45;&gt;Node1</title>
<path fill="none" stroke="midnightblue" d="M72.21,-130.39C89.34,-146.55 116.93,-170.87 144,-187.5 149.28,-190.74 155.07,-193.76 160.86,-196.5"/>
<polygon fill="midnightblue" stroke="midnightblue" points="74.33,-127.57 64.68,-123.18 69.48,-132.62 74.33,-127.57"/>
</g>
<!-- Node2 -->
<g id="node3" class="node">
<title>Node2</title>
<g id="a_node3"><a xlink:href="classArcade_1_1GameObjects_1_1LineObject.html" target="_top" xlink:title="A base class for every objects in the game.">
<polygon fill="white" stroke="black" points="144,-147.5 144,-177.5 257,-177.5 257,-147.5 144,-147.5"/>
<text text-anchor="start" x="152" y="-165.5" font-family="Helvetica,sans-Serif" font-size="10.00">Arcade::GameObjects</text>
<text text-anchor="middle" x="200.5" y="-154.5" font-family="Helvetica,sans-Serif" font-size="10.00">::LineObject</text>
</a>
</g>
</g>
<!-- Node0&#45;&gt;Node2 -->
<g id="edge2" class="edge">
<title>Node0&#45;&gt;Node2</title>
<path fill="none" stroke="midnightblue" d="M92.77,-126.31C111.89,-132.79 135.2,-140.7 155.16,-147.46"/>
<polygon fill="midnightblue" stroke="midnightblue" points="93.8,-122.96 83.2,-123.06 91.55,-129.59 93.8,-122.96"/>
</g>
<!-- Node3 -->
<g id="node4" class="node">
<title>Node3</title>
<g id="a_node4"><a xlink:href="classArcade_1_1GameObjects_1_1RectangleObject.html" target="_top" xlink:title="A rectangle object.">
<polygon fill="white" stroke="black" points="144,-98.5 144,-128.5 257,-128.5 257,-98.5 144,-98.5"/>
<text text-anchor="start" x="152" y="-116.5" font-family="Helvetica,sans-Serif" font-size="10.00">Arcade::GameObjects</text>
<text text-anchor="middle" x="200.5" y="-105.5" font-family="Helvetica,sans-Serif" font-size="10.00">::RectangleObject</text>
</a>
</g>
</g>
<!-- Node0&#45;&gt;Node3 -->
<g id="edge3" class="edge">
<title>Node0&#45;&gt;Node3</title>
<path fill="none" stroke="midnightblue" d="M118.58,-113.5C127.02,-113.5 135.61,-113.5 143.9,-113.5"/>
<polygon fill="midnightblue" stroke="midnightblue" points="118.4,-110 108.4,-113.5 118.4,-117 118.4,-110"/>
</g>
<!-- Node4 -->
<g id="node5" class="node">
<title>Node4</title>
<g id="a_node5"><a xlink:href="classArcade_1_1GameObjects_1_1SpriteObject.html" target="_top" xlink:title="A Sprite game objecct.">
<polygon fill="white" stroke="black" points="144,-49.5 144,-79.5 257,-79.5 257,-49.5 144,-49.5"/>
<text text-anchor="start" x="152" y="-67.5" font-family="Helvetica,sans-Serif" font-size="10.00">Arcade::GameObjects</text>
<text text-anchor="middle" x="200.5" y="-56.5" font-family="Helvetica,sans-Serif" font-size="10.00">::SpriteObject</text>
</a>
</g>
</g>
<!-- Node0&#45;&gt;Node4 -->
<g id="edge4" class="edge">
<title>Node0&#45;&gt;Node4</title>
<path fill="none" stroke="midnightblue" d="M92.77,-100.69C111.89,-94.21 135.2,-86.3 155.16,-79.54"/>
<polygon fill="midnightblue" stroke="midnightblue" points="91.55,-97.41 83.2,-103.94 93.8,-104.04 91.55,-97.41"/>
</g>
<!-- Node5 -->
<g id="node6" class="node">
<title>Node5</title>
<g id="a_node6"><a xlink:href="classArcade_1_1GameObjects_1_1TextObject.html" target="_top" xlink:title="A text object.">
<polygon fill="white" stroke="black" points="144,-0.5 144,-30.5 257,-30.5 257,-0.5 144,-0.5"/>
<text text-anchor="start" x="152" y="-18.5" font-family="Helvetica,sans-Serif" font-size="10.00">Arcade::GameObjects</text>
<text text-anchor="middle" x="200.5" y="-7.5" font-family="Helvetica,sans-Serif" font-size="10.00">::TextObject</text>
</a>
</g>
</g>
<!-- Node0&#45;&gt;Node5 -->
<g id="edge5" class="edge">
<title>Node0&#45;&gt;Node5</title>
<path fill="none" stroke="midnightblue" d="M72.59,-96.69C89.81,-80.83 117.29,-57.06 144,-40.5 149.75,-36.94 156.09,-33.59 162.37,-30.58"/>
<polygon fill="midnightblue" stroke="midnightblue" points="69.92,-94.39 65,-103.78 74.7,-99.51 69.92,-94.39"/>
</g>
</g>
</svg>
