<?xml version="1.0" encoding="UTF-8" standalone="no"?>
<!DOCTYPE svg PUBLIC "-//W3C//DTD SVG 1.1//EN"
 "http://www.w3.org/Graphics/SVG/1.1/DTD/svg11.dtd">
<!-- Generated by graphviz version 2.46.1 (0)
 -->
<!-- Title: Graphical Class Hierarchy Pages: 1 -->
<svg width="395pt" height="66pt"
 viewBox="0.00 0.00 395.00 66.00" xmlns="http://www.w3.org/2000/svg" xmlns:xlink="http://www.w3.org/1999/xlink">
<g id="graph0" class="graph" transform="scale(1 1) rotate(0) translate(4 62)">
<title>Graphical Class Hierarchy</title>
<polygon fill="white" stroke="transparent" points="-4,4 -4,-62 391,-62 391,4 -4,4"/>
<!-- Node0 -->
<g id="node1" class="node">
<title>Node0</title>
<g id="a_node1"><a xlink:href="classArcade_1_1IModule.html" target="_top" xlink:title="A base module interface.">
<polygon fill="white" stroke="black" points="0,-19.5 0,-38.5 88,-38.5 88,-19.5 0,-19.5"/>
<text text-anchor="middle" x="44" y="-26.5" font-family="Helvetica,sans-Serif" font-size="10.00">Arcade::IModule</text>
</a>
</g>
</g>
<!-- Node1 -->
<g id="node2" class="node">
<title>Node1</title>
<g id="a_node2"><a xlink:href="classArcade_1_1IDisplayModule.html" target="_top" xlink:title="The interface of every display modules.">
<polygon fill="white" stroke="black" points="124,-38.5 124,-57.5 245,-57.5 245,-38.5 124,-38.5"/>
<text text-anchor="middle" x="184.5" y="-45.5" font-family="Helvetica,sans-Serif" font-size="10.00">Arcade::IDisplayModule</text>
</a>
</g>
</g>
<!-- Node0&#45;&gt;Node1 -->
<g id="edge1" class="edge">
<title>Node0&#45;&gt;Node1</title>
<path fill="none" stroke="midnightblue" d="M98.15,-36.29C106.59,-37.45 115.36,-38.65 123.93,-39.83"/>
<polygon fill="midnightblue" stroke="midnightblue" points="98.45,-32.8 88.06,-34.91 97.49,-39.73 98.45,-32.8"/>
</g>
<!-- Node3 -->
<g id="node4" class="node">
<title>Node3</title>
<g id="a_node4"><a xlink:href="classArcade_1_1IGameModule.html" target="_top" xlink:title="The interface of all games.">
<polygon fill="white" stroke="black" points="127.5,-0.5 127.5,-19.5 241.5,-19.5 241.5,-0.5 127.5,-0.5"/>
<text text-anchor="middle" x="184.5" y="-7.5" font-family="Helvetica,sans-Serif" font-size="10.00">Arcade::IGameModule</text>
</a>
</g>
</g>
<!-- Node0&#45;&gt;Node3 -->
<g id="edge3" class="edge">
<title>Node0&#45;&gt;Node3</title>
<path fill="none" stroke="midnightblue" d="M98.24,-21.7C107.81,-20.38 117.81,-19.01 127.46,-17.69"/>
<polygon fill="midnightblue" stroke="midnightblue" points="97.49,-18.27 88.06,-23.09 98.45,-25.2 97.49,-18.27"/>
</g>
<!-- Node2 -->
<g id="node3" class="node">
<title>Node2</title>
<g id="a_node3"><a xlink:href="classArcade_1_1SDLDisplay.html" target="_top" xlink:title="Implementation of the SDL Graphic Library.">
<polygon fill="white" stroke="black" points="281,-38.5 281,-57.5 387,-57.5 387,-38.5 281,-38.5"/>
<text text-anchor="middle" x="334" y="-45.5" font-family="Helvetica,sans-Serif" font-size="10.00">Arcade::SDLDisplay</text>
</a>
</g>
</g>
<!-- Node1&#45;&gt;Node2 -->
<g id="edge2" class="edge">
<title>Node1&#45;&gt;Node2</title>
<path fill="none" stroke="midnightblue" d="M255.14,-48C263.78,-48 272.49,-48 280.81,-48"/>
<polygon fill="midnightblue" stroke="midnightblue" points="255.07,-44.5 245.07,-48 255.07,-51.5 255.07,-44.5"/>
</g>
</g>
</svg>
