<?xml version="1.0" encoding="UTF-8" standalone="no"?>
<!DOCTYPE svg PUBLIC "-//W3C//DTD SVG 1.1//EN"
 "http://www.w3.org/Graphics/SVG/1.1/DTD/svg11.dtd">
<!-- Generated by graphviz version 2.46.1 (0)
 -->
<!-- Title: Graphical Class Hierarchy Pages: 1 -->
<svg width="264pt" height="104pt"
 viewBox="0.00 0.00 264.00 104.00" xmlns="http://www.w3.org/2000/svg" xmlns:xlink="http://www.w3.org/1999/xlink">
<g id="graph0" class="graph" transform="scale(1 1) rotate(0) translate(4 100)">
<title>Graphical Class Hierarchy</title>
<polygon fill="white" stroke="transparent" points="-4,4 -4,-100 260,-100 260,4 -4,4"/>
<!-- Node0 -->
<g id="node1" class="node">
<title>Node0</title>
<g id="a_node1"><a xlink:href="structArcade_1_1Event.html" target="_top" xlink:title="An empty event used as a base class.">
<polygon fill="white" stroke="black" points="0,-38.5 0,-57.5 79,-57.5 79,-38.5 0,-38.5"/>
<text text-anchor="middle" x="39.5" y="-45.5" font-family="Helvetica,sans-Serif" font-size="10.00">Arcade::Event</text>
</a>
</g>
</g>
<!-- Node1 -->
<g id="node2" class="node">
<title>Node1</title>
<g id="a_node2"><a xlink:href="structArcade_1_1Events_1_1ClickEvent.html" target="_top" xlink:title=" ">
<polygon fill="white" stroke="black" points="116.5,-76.5 116.5,-95.5 254.5,-95.5 254.5,-76.5 116.5,-76.5"/>
<text text-anchor="middle" x="185.5" y="-83.5" font-family="Helvetica,sans-Serif" font-size="10.00">Arcade::Events::ClickEvent</text>
</a>
</g>
</g>
<!-- Node0&#45;&gt;Node1 -->
<g id="edge1" class="edge">
<title>Node0&#45;&gt;Node1</title>
<path fill="none" stroke="midnightblue" d="M86.67,-60.18C106.66,-65.46 129.72,-71.54 148.42,-76.48"/>
<polygon fill="midnightblue" stroke="midnightblue" points="87.4,-56.76 76.84,-57.59 85.61,-63.52 87.4,-56.76"/>
</g>
<!-- Node2 -->
<g id="node3" class="node">
<title>Node2</title>
<g id="a_node3"><a xlink:href="structArcade_1_1Events_1_1CloseEvent.html" target="_top" xlink:title=" ">
<polygon fill="white" stroke="black" points="115,-38.5 115,-57.5 256,-57.5 256,-38.5 115,-38.5"/>
<text text-anchor="middle" x="185.5" y="-45.5" font-family="Helvetica,sans-Serif" font-size="10.00">Arcade::Events::CloseEvent</text>
</a>
</g>
</g>
<!-- Node0&#45;&gt;Node2 -->
<g id="edge2" class="edge">
<title>Node0&#45;&gt;Node2</title>
<path fill="none" stroke="midnightblue" d="M89.28,-48C97.55,-48 106.27,-48 114.95,-48"/>
<polygon fill="midnightblue" stroke="midnightblue" points="89.09,-44.5 79.09,-48 89.09,-51.5 89.09,-44.5"/>
</g>
<!-- Node3 -->
<g id="node4" class="node">
<title>Node3</title>
<g id="a_node4"><a xlink:href="structArcade_1_1Events_1_1KeyEvent.html" target="_top" xlink:title=" ">
<polygon fill="white" stroke="black" points="119,-0.5 119,-19.5 252,-19.5 252,-0.5 119,-0.5"/>
<text text-anchor="middle" x="185.5" y="-7.5" font-family="Helvetica,sans-Serif" font-size="10.00">Arcade::Events::KeyEvent</text>
</a>
</g>
</g>
<!-- Node0&#45;&gt;Node3 -->
<g id="edge3" class="edge">
<title>Node0&#45;&gt;Node3</title>
<path fill="none" stroke="midnightblue" d="M86.67,-35.82C106.66,-30.54 129.72,-24.46 148.42,-19.52"/>
<polygon fill="midnightblue" stroke="midnightblue" points="85.61,-32.48 76.84,-38.41 87.4,-39.24 85.61,-32.48"/>
</g>
</g>
</svg>
