<?xml version="1.0" encoding="UTF-8" standalone="no"?>
<!DOCTYPE svg PUBLIC "-//W3C//DTD SVG 1.1//EN"
 "http://www.w3.org/Graphics/SVG/1.1/DTD/svg11.dtd">
<!-- Generated by graphviz version 2.46.1 (0)
 -->
<!-- Title: sources/Core/Library.hpp Pages: 1 -->
<svg width="434pt" height="207pt"
 viewBox="0.00 0.00 434.00 207.00" xmlns="http://www.w3.org/2000/svg" xmlns:xlink="http://www.w3.org/1999/xlink">
<g id="graph0" class="graph" transform="scale(1 1) rotate(0) translate(4 203)">
<title>sources/Core/Library.hpp</title>
<polygon fill="white" stroke="transparent" points="-4,4 -4,-203 430,-203 430,4 -4,4"/>
<!-- Node1 -->
<g id="node1" class="node">
<title>Node1</title>
<g id="a_node1"><a xlink:title=" ">
<polygon fill="#bfbfbf" stroke="black" points="166.5,-179.5 166.5,-198.5 291.5,-198.5 291.5,-179.5 166.5,-179.5"/>
<text text-anchor="middle" x="229" y="-186.5" font-family="Helvetica,sans-Serif" font-size="10.00">sources/Core/Library.hpp</text>
</a>
</g>
</g>
<!-- Node2 -->
<g id="node2" class="node">
<title>Node2</title>
<g id="a_node2"><a xlink:href="Module_8hpp.html" target="_top" xlink:title=" ">
<polygon fill="white" stroke="black" points="0,-118 0,-137 110,-137 110,-118 0,-118"/>
<text text-anchor="middle" x="55" y="-125" font-family="Helvetica,sans-Serif" font-size="10.00">Common/Module.hpp</text>
</a>
</g>
</g>
<!-- Node1&#45;&gt;Node2 -->
<g id="edge1" class="edge">
<title>Node1&#45;&gt;Node2</title>
<path fill="none" stroke="midnightblue" d="M204.07,-179.48C173.96,-169.18 123.17,-151.81 89.36,-140.25"/>
<polygon fill="midnightblue" stroke="midnightblue" points="90.48,-136.93 79.88,-137.01 88.21,-143.56 90.48,-136.93"/>
</g>
<!-- Node3 -->
<g id="node3" class="node">
<title>Node3</title>
<g id="a_node3"><a xlink:href="ModInfo_8hpp.html" target="_top" xlink:title=" ">
<polygon fill="white" stroke="black" points="33.5,-56.5 33.5,-75.5 146.5,-75.5 146.5,-56.5 33.5,-56.5"/>
<text text-anchor="middle" x="90" y="-63.5" font-family="Helvetica,sans-Serif" font-size="10.00">Common/ModInfo.hpp</text>
</a>
</g>
</g>
<!-- Node1&#45;&gt;Node3 -->
<g id="edge4" class="edge">
<title>Node1&#45;&gt;Node3</title>
<path fill="none" stroke="midnightblue" d="M212.36,-179.41C197.14,-171.16 174.42,-157.78 157,-143 135.72,-124.95 115.09,-100.09 102.47,-83.79"/>
<polygon fill="midnightblue" stroke="midnightblue" points="105.17,-81.56 96.33,-75.71 99.6,-85.79 105.17,-81.56"/>
</g>
<!-- Node5 -->
<g id="node5" class="node">
<title>Node5</title>
<g id="a_node5"><a xlink:href="InvalidLibraryException_8hpp.html" target="_top" xlink:title=" ">
<polygon fill="white" stroke="black" points="166,-112.5 166,-142.5 292,-142.5 292,-112.5 166,-112.5"/>
<text text-anchor="start" x="174" y="-130.5" font-family="Helvetica,sans-Serif" font-size="10.00">Exceptions/InvalidLibrary</text>
<text text-anchor="middle" x="229" y="-119.5" font-family="Helvetica,sans-Serif" font-size="10.00">Exception.hpp</text>
</a>
</g>
</g>
<!-- Node1&#45;&gt;Node5 -->
<g id="edge5" class="edge">
<title>Node1&#45;&gt;Node5</title>
<path fill="none" stroke="midnightblue" d="M229,-179.48C229,-172.47 229,-162.19 229,-152.7"/>
<polygon fill="midnightblue" stroke="midnightblue" points="232.5,-152.52 229,-142.52 225.5,-152.52 232.5,-152.52"/>
</g>
<!-- Node7 -->
<g id="node7" class="node">
<title>Node7</title>
<g id="a_node7"><a xlink:title=" ">
<polygon fill="white" stroke="#bfbfbf" points="310,-118 310,-137 362,-137 362,-118 310,-118"/>
<text text-anchor="middle" x="336" y="-125" font-family="Helvetica,sans-Serif" font-size="10.00">memory</text>
</a>
</g>
</g>
<!-- Node1&#45;&gt;Node7 -->
<g id="edge7" class="edge">
<title>Node1&#45;&gt;Node7</title>
<path fill="none" stroke="midnightblue" d="M244.33,-179.48C261.97,-169.67 291.16,-153.43 311.86,-141.92"/>
<polygon fill="midnightblue" stroke="midnightblue" points="313.66,-144.93 320.7,-137.01 310.26,-138.81 313.66,-144.93"/>
</g>
<!-- Node8 -->
<g id="node8" class="node">
<title>Node8</title>
<g id="a_node8"><a xlink:title=" ">
<polygon fill="white" stroke="#bfbfbf" points="380,-118 380,-137 426,-137 426,-118 380,-118"/>
<text text-anchor="middle" x="403" y="-125" font-family="Helvetica,sans-Serif" font-size="10.00">dlfcn.h</text>
</a>
</g>
</g>
<!-- Node1&#45;&gt;Node8 -->
<g id="edge8" class="edge">
<title>Node1&#45;&gt;Node8</title>
<path fill="none" stroke="midnightblue" d="M259.55,-179.46C288.56,-171.08 333.21,-157.49 371,-143 372.61,-142.38 374.24,-141.73 375.89,-141.05"/>
<polygon fill="midnightblue" stroke="midnightblue" points="377.43,-144.2 385.22,-137.01 374.65,-137.77 377.43,-144.2"/>
</g>
<!-- Node2&#45;&gt;Node3 -->
<g id="edge2" class="edge">
<title>Node2&#45;&gt;Node3</title>
<path fill="none" stroke="midnightblue" d="M60.01,-117.98C65.16,-109.23 73.31,-95.37 79.82,-84.31"/>
<polygon fill="midnightblue" stroke="midnightblue" points="82.94,-85.9 84.99,-75.51 76.91,-82.35 82.94,-85.9"/>
</g>
<!-- Node4 -->
<g id="node4" class="node">
<title>Node4</title>
<g id="a_node4"><a xlink:title=" ">
<polygon fill="white" stroke="#bfbfbf" points="69.5,-0.5 69.5,-19.5 110.5,-19.5 110.5,-0.5 69.5,-0.5"/>
<text text-anchor="middle" x="90" y="-7.5" font-family="Helvetica,sans-Serif" font-size="10.00">string</text>
</a>
</g>
</g>
<!-- Node3&#45;&gt;Node4 -->
<g id="edge3" class="edge">
<title>Node3&#45;&gt;Node4</title>
<path fill="none" stroke="midnightblue" d="M90,-56.08C90,-49.01 90,-38.86 90,-29.99"/>
<polygon fill="midnightblue" stroke="midnightblue" points="93.5,-29.75 90,-19.75 86.5,-29.75 93.5,-29.75"/>
</g>
<!-- Node6 -->
<g id="node6" class="node">
<title>Node6</title>
<g id="a_node6"><a xlink:title=" ">
<polygon fill="white" stroke="#bfbfbf" points="199.5,-56.5 199.5,-75.5 258.5,-75.5 258.5,-56.5 199.5,-56.5"/>
<text text-anchor="middle" x="229" y="-63.5" font-family="Helvetica,sans-Serif" font-size="10.00">stdexcept</text>
</a>
</g>
</g>
<!-- Node5&#45;&gt;Node6 -->
<g id="edge6" class="edge">
<title>Node5&#45;&gt;Node6</title>
<path fill="none" stroke="midnightblue" d="M229,-112.4C229,-104.47 229,-94.46 229,-85.86"/>
<polygon fill="midnightblue" stroke="midnightblue" points="232.5,-85.66 229,-75.66 225.5,-85.66 232.5,-85.66"/>
</g>
</g>
</svg>
