<?xml version="1.0" encoding="UTF-8" standalone="no"?>
<!DOCTYPE svg PUBLIC "-//W3C//DTD SVG 1.1//EN"
 "http://www.w3.org/Graphics/SVG/1.1/DTD/svg11.dtd">
<!-- Generated by graphviz version 2.46.1 (0)
 -->
<!-- Title: main.cpp Pages: 1 -->
<svg width="1487pt" height="319pt"
 viewBox="0.00 0.00 1486.63 319.00" xmlns="http://www.w3.org/2000/svg" xmlns:xlink="http://www.w3.org/1999/xlink">
<g id="graph0" class="graph" transform="scale(1 1) rotate(0) translate(4 315)">
<title>main.cpp</title>
<polygon fill="white" stroke="transparent" points="-4,4 -4,-315 1482.63,-315 1482.63,4 -4,4"/>
<!-- Node1 -->
<g id="node1" class="node">
<title>Node1</title>
<g id="a_node1"><a xlink:title=" ">
<polygon fill="#bfbfbf" stroke="black" points="802.63,-291.5 802.63,-310.5 858.63,-310.5 858.63,-291.5 802.63,-291.5"/>
<text text-anchor="middle" x="830.63" y="-298.5" font-family="Helvetica,sans-Serif" font-size="10.00">main.cpp</text>
</a>
</g>
</g>
<!-- Node2 -->
<g id="node2" class="node">
<title>Node2</title>
<g id="a_node2"><a xlink:title=" ">
<polygon fill="white" stroke="#bfbfbf" points="749.63,-235.5 749.63,-254.5 803.63,-254.5 803.63,-235.5 749.63,-235.5"/>
<text text-anchor="middle" x="776.63" y="-242.5" font-family="Helvetica,sans-Serif" font-size="10.00">iostream</text>
</a>
</g>
</g>
<!-- Node1&#45;&gt;Node2 -->
<g id="edge1" class="edge">
<title>Node1&#45;&gt;Node2</title>
<path fill="none" stroke="midnightblue" d="M821.71,-291.08C813.85,-283.22 802.19,-271.57 792.71,-262.08"/>
<polygon fill="midnightblue" stroke="midnightblue" points="794.92,-259.35 785.38,-254.75 789.97,-264.3 794.92,-259.35"/>
</g>
<!-- Node3 -->
<g id="node3" class="node">
<title>Node3</title>
<g id="a_node3"><a xlink:href="Runner_8hpp.html" target="_top" xlink:title=" ">
<polygon fill="white" stroke="black" points="822.13,-235.5 822.13,-254.5 947.13,-254.5 947.13,-235.5 822.13,-235.5"/>
<text text-anchor="middle" x="884.63" y="-242.5" font-family="Helvetica,sans-Serif" font-size="10.00">Core/Runner/Runner.hpp</text>
</a>
</g>
</g>
<!-- Node1&#45;&gt;Node3 -->
<g id="edge2" class="edge">
<title>Node1&#45;&gt;Node3</title>
<path fill="none" stroke="midnightblue" d="M839.54,-291.08C847.41,-283.22 859.06,-271.57 868.54,-262.08"/>
<polygon fill="midnightblue" stroke="midnightblue" points="871.28,-264.3 875.87,-254.75 866.33,-259.35 871.28,-264.3"/>
</g>
<!-- Node4 -->
<g id="node4" class="node">
<title>Node4</title>
<g id="a_node4"><a xlink:title=" ">
<polygon fill="white" stroke="#bfbfbf" points="210.13,-0.5 210.13,-19.5 251.13,-19.5 251.13,-0.5 210.13,-0.5"/>
<text text-anchor="middle" x="230.63" y="-7.5" font-family="Helvetica,sans-Serif" font-size="10.00">string</text>
</a>
</g>
</g>
<!-- Node3&#45;&gt;Node4 -->
<g id="edge3" class="edge">
<title>Node3&#45;&gt;Node4</title>
<path fill="none" stroke="midnightblue" d="M821.8,-236.11C818.7,-235.73 815.63,-235.36 812.63,-235 634.95,-213.68 131.71,-276.57 12.63,-143 -47.43,-75.64 126.6,-31.82 199.83,-16.79"/>
<polygon fill="midnightblue" stroke="midnightblue" points="200.74,-20.18 209.86,-14.79 199.37,-13.32 200.74,-20.18"/>
</g>
<!-- Node5 -->
<g id="node5" class="node">
<title>Node5</title>
<g id="a_node5"><a xlink:title=" ">
<polygon fill="white" stroke="#bfbfbf" points="876.63,-118 876.63,-137 920.63,-137 920.63,-118 876.63,-118"/>
<text text-anchor="middle" x="898.63" y="-125" font-family="Helvetica,sans-Serif" font-size="10.00">vector</text>
</a>
</g>
</g>
<!-- Node3&#45;&gt;Node5 -->
<g id="edge4" class="edge">
<title>Node3&#45;&gt;Node5</title>
<path fill="none" stroke="midnightblue" d="M851.84,-235.48C819.31,-225.28 776.58,-206.12 793.63,-179 794.2,-178.09 840.12,-156.21 871.04,-141.55"/>
<polygon fill="midnightblue" stroke="midnightblue" points="872.93,-144.53 880.47,-137.08 869.93,-138.2 872.93,-144.53"/>
</g>
<!-- Node6 -->
<g id="node6" class="node">
<title>Node6</title>
<g id="a_node6"><a xlink:title=" ">
<polygon fill="white" stroke="#bfbfbf" points="938.63,-118 938.63,-137 990.63,-137 990.63,-118 938.63,-118"/>
<text text-anchor="middle" x="964.63" y="-125" font-family="Helvetica,sans-Serif" font-size="10.00">memory</text>
</a>
</g>
</g>
<!-- Node3&#45;&gt;Node6 -->
<g id="edge5" class="edge">
<title>Node3&#45;&gt;Node6</title>
<path fill="none" stroke="midnightblue" d="M892.91,-235.44C901.18,-226.67 914.01,-212.46 923.63,-199 935.93,-181.78 947.85,-160.63 955.63,-146.01"/>
<polygon fill="midnightblue" stroke="midnightblue" points="958.78,-147.55 960.31,-137.06 952.58,-144.3 958.78,-147.55"/>
</g>
<!-- Node7 -->
<g id="node7" class="node">
<title>Node7</title>
<g id="a_node7"><a xlink:title=" ">
<polygon fill="white" stroke="#bfbfbf" points="802.13,-179.5 802.13,-198.5 837.13,-198.5 837.13,-179.5 802.13,-179.5"/>
<text text-anchor="middle" x="819.63" y="-186.5" font-family="Helvetica,sans-Serif" font-size="10.00">map</text>
</a>
</g>
</g>
<!-- Node3&#45;&gt;Node7 -->
<g id="edge6" class="edge">
<title>Node3&#45;&gt;Node7</title>
<path fill="none" stroke="midnightblue" d="M874.18,-235.32C864.48,-227.26 849.81,-215.08 838.13,-205.37"/>
<polygon fill="midnightblue" stroke="midnightblue" points="840.19,-202.53 830.26,-198.83 835.71,-207.92 840.19,-202.53"/>
</g>
<!-- Node8 -->
<g id="node8" class="node">
<title>Node8</title>
<g id="a_node8"><a xlink:title=" ">
<polygon fill="white" stroke="#bfbfbf" points="855.13,-179.5 855.13,-198.5 914.13,-198.5 914.13,-179.5 855.13,-179.5"/>
<text text-anchor="middle" x="884.63" y="-186.5" font-family="Helvetica,sans-Serif" font-size="10.00">functional</text>
</a>
</g>
</g>
<!-- Node3&#45;&gt;Node8 -->
<g id="edge7" class="edge">
<title>Node3&#45;&gt;Node8</title>
<path fill="none" stroke="midnightblue" d="M884.63,-235.08C884.63,-228.01 884.63,-217.86 884.63,-208.99"/>
<polygon fill="midnightblue" stroke="midnightblue" points="888.13,-208.75 884.63,-198.75 881.13,-208.75 888.13,-208.75"/>
</g>
<!-- Node9 -->
<g id="node9" class="node">
<title>Node9</title>
<g id="a_node9"><a xlink:href="IGameModule_8hpp.html" target="_top" xlink:title=" ">
<polygon fill="white" stroke="black" points="971.13,-179.5 971.13,-198.5 1110.13,-198.5 1110.13,-179.5 971.13,-179.5"/>
<text text-anchor="middle" x="1040.63" y="-186.5" font-family="Helvetica,sans-Serif" font-size="10.00">Common/IGameModule.hpp</text>
</a>
</g>
</g>
<!-- Node3&#45;&gt;Node9 -->
<g id="edge8" class="edge">
<title>Node3&#45;&gt;Node9</title>
<path fill="none" stroke="midnightblue" d="M909.34,-235.44C935.47,-226.4 976.88,-212.06 1006.2,-201.92"/>
<polygon fill="midnightblue" stroke="midnightblue" points="1007.72,-205.1 1016.02,-198.52 1005.43,-198.48 1007.72,-205.1"/>
</g>
<!-- Node10 -->
<g id="node10" class="node">
<title>Node10</title>
<g id="a_node10"><a xlink:href="ModInfo_8hpp.html" target="_top" xlink:title=" ">
<polygon fill="white" stroke="black" points="1128.13,-56.5 1128.13,-75.5 1241.13,-75.5 1241.13,-56.5 1128.13,-56.5"/>
<text text-anchor="middle" x="1184.63" y="-63.5" font-family="Helvetica,sans-Serif" font-size="10.00">Common/ModInfo.hpp</text>
</a>
</g>
</g>
<!-- Node3&#45;&gt;Node10 -->
<g id="edge41" class="edge">
<title>Node3&#45;&gt;Node10</title>
<path fill="none" stroke="midnightblue" d="M947.15,-240.61C996.1,-235.96 1064.82,-224.98 1119.63,-199 1154.69,-182.37 1170.19,-178.16 1186.63,-143 1195.07,-124.93 1192.85,-101.71 1189.61,-85.72"/>
<polygon fill="midnightblue" stroke="midnightblue" points="1193.01,-84.89 1187.32,-75.95 1186.2,-86.49 1193.01,-84.89"/>
</g>
<!-- Node14 -->
<g id="node14" class="node">
<title>Node14</title>
<g id="a_node14"><a xlink:href="IDisplayModule_8hpp.html" target="_top" xlink:title=" ">
<polygon fill="white" stroke="black" points="532.63,-179.5 532.63,-198.5 678.63,-198.5 678.63,-179.5 532.63,-179.5"/>
<text text-anchor="middle" x="605.63" y="-186.5" font-family="Helvetica,sans-Serif" font-size="10.00">Common/IDisplayModule.hpp</text>
</a>
</g>
</g>
<!-- Node3&#45;&gt;Node14 -->
<g id="edge17" class="edge">
<title>Node3&#45;&gt;Node14</title>
<path fill="none" stroke="midnightblue" d="M840.42,-235.44C791.34,-225.94 712.12,-210.61 659.46,-200.42"/>
<polygon fill="midnightblue" stroke="midnightblue" points="660.11,-196.98 649.63,-198.52 658.78,-203.85 660.11,-196.98"/>
</g>
<!-- Node21 -->
<g id="node21" class="node">
<title>Node21</title>
<g id="a_node21"><a xlink:href="Library_8hpp.html" target="_top" xlink:title=" ">
<polygon fill="white" stroke="black" points="1251.13,-179.5 1251.13,-198.5 1338.13,-198.5 1338.13,-179.5 1251.13,-179.5"/>
<text text-anchor="middle" x="1294.63" y="-186.5" font-family="Helvetica,sans-Serif" font-size="10.00">Core/Library.hpp</text>
</a>
</g>
</g>
<!-- Node3&#45;&gt;Node21 -->
<g id="edge34" class="edge">
<title>Node3&#45;&gt;Node21</title>
<path fill="none" stroke="midnightblue" d="M947.32,-236.5C1017.78,-227.95 1135.52,-213.3 1236.63,-199 1238.08,-198.79 1239.55,-198.58 1241.03,-198.37"/>
<polygon fill="midnightblue" stroke="midnightblue" points="1241.56,-201.83 1250.94,-196.91 1240.54,-194.9 1241.56,-201.83"/>
</g>
<!-- Node9&#45;&gt;Node5 -->
<g id="edge15" class="edge">
<title>Node9&#45;&gt;Node5</title>
<path fill="none" stroke="midnightblue" d="M1018.37,-179.37C995.86,-170.56 960.12,-156.3 929.63,-143 928.43,-142.48 927.21,-141.94 925.99,-141.39"/>
<polygon fill="midnightblue" stroke="midnightblue" points="927.13,-138.07 916.58,-137.09 924.22,-144.44 927.13,-138.07"/>
</g>
<!-- Node9&#45;&gt;Node6 -->
<g id="edge16" class="edge">
<title>Node9&#45;&gt;Node6</title>
<path fill="none" stroke="midnightblue" d="M1029.74,-179.48C1017.66,-170.02 997.96,-154.6 983.39,-143.19"/>
<polygon fill="midnightblue" stroke="midnightblue" points="985.53,-140.42 975.49,-137.01 981.21,-145.93 985.53,-140.42"/>
</g>
<!-- Node9&#45;&gt;Node10 -->
<g id="edge9" class="edge">
<title>Node9&#45;&gt;Node10</title>
<path fill="none" stroke="midnightblue" d="M1098.34,-179.49C1122.21,-173.17 1148.3,-162.16 1165.63,-143 1179.71,-127.43 1183.71,-103 1184.68,-86.06"/>
<polygon fill="midnightblue" stroke="midnightblue" points="1188.18,-85.81 1184.94,-75.73 1181.19,-85.63 1188.18,-85.81"/>
</g>
<!-- Node11 -->
<g id="node11" class="node">
<title>Node11</title>
<g id="a_node11"><a xlink:href="GameObject_8hpp.html" target="_top" xlink:title=" ">
<polygon fill="white" stroke="black" points="404.13,-56.5 404.13,-75.5 537.13,-75.5 537.13,-56.5 404.13,-56.5"/>
<text text-anchor="middle" x="470.63" y="-63.5" font-family="Helvetica,sans-Serif" font-size="10.00">Common/GameObject.hpp</text>
</a>
</g>
</g>
<!-- Node9&#45;&gt;Node11 -->
<g id="edge11" class="edge">
<title>Node9&#45;&gt;Node11</title>
<path fill="none" stroke="midnightblue" d="M1038.73,-179.08C1034.72,-162.64 1023.7,-127.79 999.63,-112 962.71,-87.79 684.78,-74.61 547.25,-69.52"/>
<polygon fill="midnightblue" stroke="midnightblue" points="547.31,-66.02 537.19,-69.15 547.06,-73.01 547.31,-66.02"/>
</g>
<!-- Node12 -->
<g id="node12" class="node">
<title>Node12</title>
<g id="a_node12"><a xlink:href="Module_8hpp.html" target="_top" xlink:title=" ">
<polygon fill="white" stroke="black" points="1046.63,-118 1046.63,-137 1156.63,-137 1156.63,-118 1046.63,-118"/>
<text text-anchor="middle" x="1101.63" y="-125" font-family="Helvetica,sans-Serif" font-size="10.00">Common/Module.hpp</text>
</a>
</g>
</g>
<!-- Node9&#45;&gt;Node12 -->
<g id="edge12" class="edge">
<title>Node9&#45;&gt;Node12</title>
<path fill="none" stroke="midnightblue" d="M1049.37,-179.48C1058.79,-170.28 1073.99,-155.46 1085.57,-144.16"/>
<polygon fill="midnightblue" stroke="midnightblue" points="1088.19,-146.5 1092.9,-137.01 1083.3,-141.49 1088.19,-146.5"/>
</g>
<!-- Node13 -->
<g id="node13" class="node">
<title>Node13</title>
<g id="a_node13"><a xlink:href="Event_8hpp.html" target="_top" xlink:title=" ">
<polygon fill="white" stroke="black" points="754.63,-118 754.63,-137 858.63,-137 858.63,-118 754.63,-118"/>
<text text-anchor="middle" x="806.63" y="-125" font-family="Helvetica,sans-Serif" font-size="10.00">Common/Event.hpp</text>
</a>
</g>
</g>
<!-- Node9&#45;&gt;Node13 -->
<g id="edge14" class="edge">
<title>Node9&#45;&gt;Node13</title>
<path fill="none" stroke="midnightblue" d="M1007.1,-179.48C965.74,-168.96 895.35,-151.06 849.94,-139.51"/>
<polygon fill="midnightblue" stroke="midnightblue" points="850.64,-136.08 840.09,-137.01 848.92,-142.87 850.64,-136.08"/>
</g>
<!-- Node10&#45;&gt;Node4 -->
<g id="edge10" class="edge">
<title>Node10&#45;&gt;Node4</title>
<path fill="none" stroke="midnightblue" d="M1127.81,-61.78C948.35,-51.63 397.49,-20.45 261.31,-12.74"/>
<polygon fill="midnightblue" stroke="midnightblue" points="261.36,-9.23 251.18,-12.16 260.96,-16.22 261.36,-9.23"/>
</g>
<!-- Node12&#45;&gt;Node10 -->
<g id="edge13" class="edge">
<title>Node12&#45;&gt;Node10</title>
<path fill="none" stroke="midnightblue" d="M1113.52,-117.98C1126.83,-108.43 1148.63,-92.81 1164.58,-81.37"/>
<polygon fill="midnightblue" stroke="midnightblue" points="1166.67,-84.18 1172.76,-75.51 1162.59,-78.49 1166.67,-84.18"/>
</g>
<!-- Node14&#45;&gt;Node6 -->
<g id="edge33" class="edge">
<title>Node14&#45;&gt;Node6</title>
<path fill="none" stroke="midnightblue" d="M678.75,-183.19C745.13,-177.56 845.23,-165.94 929.63,-143 932.07,-142.34 934.57,-141.54 937.05,-140.68"/>
<polygon fill="midnightblue" stroke="midnightblue" points="938.33,-143.94 946.41,-137.08 935.82,-137.4 938.33,-143.94"/>
</g>
<!-- Node14&#45;&gt;Node12 -->
<g id="edge18" class="edge">
<title>Node14&#45;&gt;Node12</title>
<path fill="none" stroke="midnightblue" d="M678.68,-180.26C757.83,-171.74 887.8,-157.33 999.63,-143 1011.55,-141.47 1024.23,-139.75 1036.47,-138.03"/>
<polygon fill="midnightblue" stroke="midnightblue" points="1037.2,-141.47 1046.61,-136.6 1036.22,-134.54 1037.2,-141.47"/>
</g>
<!-- Node14&#45;&gt;Node13 -->
<g id="edge31" class="edge">
<title>Node14&#45;&gt;Node13</title>
<path fill="none" stroke="midnightblue" d="M634.42,-179.48C669.5,-169.09 728.89,-151.51 767.93,-139.95"/>
<polygon fill="midnightblue" stroke="midnightblue" points="769.29,-143.2 777.88,-137.01 767.3,-136.49 769.29,-143.2"/>
</g>
<!-- Node15 -->
<g id="node15" class="node">
<title>Node15</title>
<g id="a_node15"><a xlink:href="LineObject_8hpp.html" target="_top" xlink:title=" ">
<polygon fill="white" stroke="black" points="343.13,-112.5 343.13,-142.5 462.13,-142.5 462.13,-112.5 343.13,-112.5"/>
<text text-anchor="start" x="351.13" y="-130.5" font-family="Helvetica,sans-Serif" font-size="10.00">Common/GameObjects</text>
<text text-anchor="middle" x="402.63" y="-119.5" font-family="Helvetica,sans-Serif" font-size="10.00">/LineObject.hpp</text>
</a>
</g>
</g>
<!-- Node14&#45;&gt;Node15 -->
<g id="edge19" class="edge">
<title>Node14&#45;&gt;Node15</title>
<path fill="none" stroke="midnightblue" d="M576.54,-179.48C546.35,-170.63 498.32,-156.55 460.38,-145.43"/>
<polygon fill="midnightblue" stroke="midnightblue" points="461.05,-141.98 450.47,-142.52 459.08,-148.69 461.05,-141.98"/>
</g>
<!-- Node16 -->
<g id="node16" class="node">
<title>Node16</title>
<g id="a_node16"><a xlink:href="RectangleObject_8hpp.html" target="_top" xlink:title=" ">
<polygon fill="white" stroke="black" points="480.13,-112.5 480.13,-142.5 599.13,-142.5 599.13,-112.5 480.13,-112.5"/>
<text text-anchor="start" x="488.13" y="-130.5" font-family="Helvetica,sans-Serif" font-size="10.00">Common/GameObjects</text>
<text text-anchor="middle" x="539.63" y="-119.5" font-family="Helvetica,sans-Serif" font-size="10.00">/RectangleObject.hpp</text>
</a>
</g>
</g>
<!-- Node14&#45;&gt;Node16 -->
<g id="edge21" class="edge">
<title>Node14&#45;&gt;Node16</title>
<path fill="none" stroke="midnightblue" d="M596.17,-179.48C587.48,-171.64 574.25,-159.71 562.77,-149.37"/>
<polygon fill="midnightblue" stroke="midnightblue" points="564.95,-146.62 555.18,-142.52 560.26,-151.82 564.95,-146.62"/>
</g>
<!-- Node17 -->
<g id="node17" class="node">
<title>Node17</title>
<g id="a_node17"><a xlink:href="CircleObject_8hpp.html" target="_top" xlink:title=" ">
<polygon fill="white" stroke="black" points="617.13,-112.5 617.13,-142.5 736.13,-142.5 736.13,-112.5 617.13,-112.5"/>
<text text-anchor="start" x="625.13" y="-130.5" font-family="Helvetica,sans-Serif" font-size="10.00">Common/GameObjects</text>
<text text-anchor="middle" x="676.63" y="-119.5" font-family="Helvetica,sans-Serif" font-size="10.00">/CircleObject.hpp</text>
</a>
</g>
</g>
<!-- Node14&#45;&gt;Node17 -->
<g id="edge23" class="edge">
<title>Node14&#45;&gt;Node17</title>
<path fill="none" stroke="midnightblue" d="M615.8,-179.48C625.23,-171.57 639.65,-159.48 652.08,-149.07"/>
<polygon fill="midnightblue" stroke="midnightblue" points="654.48,-151.63 659.89,-142.52 649.98,-146.26 654.48,-151.63"/>
</g>
<!-- Node18 -->
<g id="node18" class="node">
<title>Node18</title>
<g id="a_node18"><a xlink:href="SpriteObject_8hpp.html" target="_top" xlink:title=" ">
<polygon fill="white" stroke="black" points="69.13,-112.5 69.13,-142.5 188.13,-142.5 188.13,-112.5 69.13,-112.5"/>
<text text-anchor="start" x="77.13" y="-130.5" font-family="Helvetica,sans-Serif" font-size="10.00">Common/GameObjects</text>
<text text-anchor="middle" x="128.63" y="-119.5" font-family="Helvetica,sans-Serif" font-size="10.00">/SpriteObject.hpp</text>
</a>
</g>
</g>
<!-- Node14&#45;&gt;Node18 -->
<g id="edge25" class="edge">
<title>Node14&#45;&gt;Node18</title>
<path fill="none" stroke="midnightblue" d="M532.55,-182.19C452.66,-175.34 320.71,-162.54 198.2,-143.16"/>
<polygon fill="midnightblue" stroke="midnightblue" points="198.69,-139.7 188.27,-141.57 197.59,-146.61 198.69,-139.7"/>
</g>
<!-- Node19 -->
<g id="node19" class="node">
<title>Node19</title>
<g id="a_node19"><a xlink:href="TextObject_8hpp.html" target="_top" xlink:title=" ">
<polygon fill="white" stroke="black" points="206.13,-112.5 206.13,-142.5 325.13,-142.5 325.13,-112.5 206.13,-112.5"/>
<text text-anchor="start" x="214.13" y="-130.5" font-family="Helvetica,sans-Serif" font-size="10.00">Common/GameObjects</text>
<text text-anchor="middle" x="265.63" y="-119.5" font-family="Helvetica,sans-Serif" font-size="10.00">/TextObject.hpp</text>
</a>
</g>
</g>
<!-- Node14&#45;&gt;Node19 -->
<g id="edge28" class="edge">
<title>Node14&#45;&gt;Node19</title>
<path fill="none" stroke="midnightblue" d="M549.49,-179.49C496.66,-171.3 415.08,-158.21 335.5,-143.31"/>
<polygon fill="midnightblue" stroke="midnightblue" points="335.77,-139.8 325.3,-141.39 334.48,-146.68 335.77,-139.8"/>
</g>
<!-- Node20 -->
<g id="node20" class="node">
<title>Node20</title>
<g id="a_node20"><a xlink:title=" ">
<polygon fill="white" stroke="#bfbfbf" points="22.13,-118 22.13,-137 51.13,-137 51.13,-118 22.13,-118"/>
<text text-anchor="middle" x="36.63" y="-125" font-family="Helvetica,sans-Serif" font-size="10.00">list</text>
</a>
</g>
</g>
<!-- Node14&#45;&gt;Node20 -->
<g id="edge32" class="edge">
<title>Node14&#45;&gt;Node20</title>
<path fill="none" stroke="midnightblue" d="M532.55,-186.28C404.58,-182.55 145.33,-171.63 59.63,-143 58.72,-142.7 57.82,-142.36 56.93,-141.98"/>
<polygon fill="midnightblue" stroke="midnightblue" points="58.24,-138.71 47.78,-137.03 54.91,-144.87 58.24,-138.71"/>
</g>
<!-- Node15&#45;&gt;Node11 -->
<g id="edge20" class="edge">
<title>Node15&#45;&gt;Node11</title>
<path fill="none" stroke="midnightblue" d="M418.74,-112.4C429.03,-103.4 442.37,-91.72 452.95,-82.47"/>
<polygon fill="midnightblue" stroke="midnightblue" points="455.51,-84.88 460.73,-75.66 450.9,-79.61 455.51,-84.88"/>
</g>
<!-- Node16&#45;&gt;Node11 -->
<g id="edge22" class="edge">
<title>Node16&#45;&gt;Node11</title>
<path fill="none" stroke="midnightblue" d="M523.27,-112.4C512.73,-103.31 499.03,-91.49 488.24,-82.19"/>
<polygon fill="midnightblue" stroke="midnightblue" points="490.52,-79.54 480.67,-75.66 485.95,-84.84 490.52,-79.54"/>
</g>
<!-- Node17&#45;&gt;Node11 -->
<g id="edge24" class="edge">
<title>Node17&#45;&gt;Node11</title>
<path fill="none" stroke="midnightblue" d="M628.07,-112.47C592.06,-102.08 543.6,-88.08 510,-78.37"/>
<polygon fill="midnightblue" stroke="midnightblue" points="510.65,-74.92 500.08,-75.51 508.71,-81.64 510.65,-74.92"/>
</g>
<!-- Node18&#45;&gt;Node4 -->
<g id="edge27" class="edge">
<title>Node18&#45;&gt;Node4</title>
<path fill="none" stroke="midnightblue" d="M141.13,-112.34C160.1,-90.86 196.03,-50.17 216.12,-27.43"/>
<polygon fill="midnightblue" stroke="midnightblue" points="218.97,-29.48 222.97,-19.67 213.73,-24.85 218.97,-29.48"/>
</g>
<!-- Node18&#45;&gt;Node11 -->
<g id="edge26" class="edge">
<title>Node18&#45;&gt;Node11</title>
<path fill="none" stroke="midnightblue" d="M188.3,-113.61C191.11,-113.05 193.9,-112.51 196.63,-112 267.09,-98.71 348.17,-85.67 403.74,-77.08"/>
<polygon fill="midnightblue" stroke="midnightblue" points="404.46,-80.51 413.81,-75.53 403.4,-73.59 404.46,-80.51"/>
</g>
<!-- Node19&#45;&gt;Node4 -->
<g id="edge30" class="edge">
<title>Node19&#45;&gt;Node4</title>
<path fill="none" stroke="midnightblue" d="M261.33,-112.34C255,-91.43 243.14,-52.31 236.16,-29.27"/>
<polygon fill="midnightblue" stroke="midnightblue" points="239.5,-28.22 233.25,-19.67 232.8,-30.25 239.5,-28.22"/>
</g>
<!-- Node19&#45;&gt;Node11 -->
<g id="edge29" class="edge">
<title>Node19&#45;&gt;Node11</title>
<path fill="none" stroke="midnightblue" d="M313.95,-112.47C349.78,-102.08 398,-88.08 431.44,-78.37"/>
<polygon fill="midnightblue" stroke="midnightblue" points="432.69,-81.66 441.32,-75.51 430.74,-74.93 432.69,-81.66"/>
</g>
<!-- Node21&#45;&gt;Node6 -->
<g id="edge39" class="edge">
<title>Node21&#45;&gt;Node6</title>
<path fill="none" stroke="midnightblue" d="M1250.92,-180.66C1199.73,-171.99 1112.43,-156.98 1037.63,-143 1025.64,-140.76 1012.57,-138.2 1000.85,-135.86"/>
<polygon fill="midnightblue" stroke="midnightblue" points="1001.45,-132.41 990.95,-133.88 1000.07,-139.28 1001.45,-132.41"/>
</g>
<!-- Node21&#45;&gt;Node10 -->
<g id="edge36" class="edge">
<title>Node21&#45;&gt;Node10</title>
<path fill="none" stroke="midnightblue" d="M1288.73,-179.11C1278.81,-164.42 1257.77,-134.49 1236.63,-112 1226.53,-101.26 1214.08,-90.42 1203.89,-82.07"/>
<polygon fill="midnightblue" stroke="midnightblue" points="1205.96,-79.23 1195.97,-75.69 1201.57,-84.69 1205.96,-79.23"/>
</g>
<!-- Node21&#45;&gt;Node12 -->
<g id="edge35" class="edge">
<title>Node21&#45;&gt;Node12</title>
<path fill="none" stroke="midnightblue" d="M1266.97,-179.48C1233.44,-169.14 1176.75,-151.66 1139.26,-140.1"/>
<polygon fill="midnightblue" stroke="midnightblue" points="1139.81,-136.61 1129.23,-137.01 1137.75,-143.3 1139.81,-136.61"/>
</g>
<!-- Node22 -->
<g id="node22" class="node">
<title>Node22</title>
<g id="a_node22"><a xlink:href="InvalidLibraryException_8hpp.html" target="_top" xlink:title=" ">
<polygon fill="white" stroke="black" points="1288.63,-112.5 1288.63,-142.5 1414.63,-142.5 1414.63,-112.5 1288.63,-112.5"/>
<text text-anchor="start" x="1296.63" y="-130.5" font-family="Helvetica,sans-Serif" font-size="10.00">Exceptions/InvalidLibrary</text>
<text text-anchor="middle" x="1351.63" y="-119.5" font-family="Helvetica,sans-Serif" font-size="10.00">Exception.hpp</text>
</a>
</g>
</g>
<!-- Node21&#45;&gt;Node22 -->
<g id="edge37" class="edge">
<title>Node21&#45;&gt;Node22</title>
<path fill="none" stroke="midnightblue" d="M1302.79,-179.48C1310.15,-171.79 1321.28,-160.17 1331.06,-149.96"/>
<polygon fill="midnightblue" stroke="midnightblue" points="1333.8,-152.17 1338.19,-142.52 1328.75,-147.32 1333.8,-152.17"/>
</g>
<!-- Node24 -->
<g id="node24" class="node">
<title>Node24</title>
<g id="a_node24"><a xlink:title=" ">
<polygon fill="white" stroke="#bfbfbf" points="1432.63,-118 1432.63,-137 1478.63,-137 1478.63,-118 1432.63,-118"/>
<text text-anchor="middle" x="1455.63" y="-125" font-family="Helvetica,sans-Serif" font-size="10.00">dlfcn.h</text>
</a>
</g>
</g>
<!-- Node21&#45;&gt;Node24 -->
<g id="edge40" class="edge">
<title>Node21&#45;&gt;Node24</title>
<path fill="none" stroke="midnightblue" d="M1321.57,-179.38C1347.85,-170.8 1388.83,-156.92 1423.63,-143 1425.04,-142.43 1426.49,-141.84 1427.94,-141.23"/>
<polygon fill="midnightblue" stroke="midnightblue" points="1429.71,-144.28 1437.47,-137.07 1426.91,-137.86 1429.71,-144.28"/>
</g>
<!-- Node23 -->
<g id="node23" class="node">
<title>Node23</title>
<g id="a_node23"><a xlink:title=" ">
<polygon fill="white" stroke="#bfbfbf" points="1322.13,-56.5 1322.13,-75.5 1381.13,-75.5 1381.13,-56.5 1322.13,-56.5"/>
<text text-anchor="middle" x="1351.63" y="-63.5" font-family="Helvetica,sans-Serif" font-size="10.00">stdexcept</text>
</a>
</g>
</g>
<!-- Node22&#45;&gt;Node23 -->
<g id="edge38" class="edge">
<title>Node22&#45;&gt;Node23</title>
<path fill="none" stroke="midnightblue" d="M1351.63,-112.4C1351.63,-104.47 1351.63,-94.46 1351.63,-85.86"/>
<polygon fill="midnightblue" stroke="midnightblue" points="1355.13,-85.66 1351.63,-75.66 1348.13,-85.66 1355.13,-85.66"/>
</g>
</g>
</svg>
