<?xml version="1.0" encoding="UTF-8" standalone="no"?>
<!DOCTYPE svg PUBLIC "-//W3C//DTD SVG 1.1//EN"
 "http://www.w3.org/Graphics/SVG/1.1/DTD/svg11.dtd">
<!-- Generated by graphviz version 2.46.1 (0)
 -->
<!-- Title: sources/Common/ModInfo.hpp Pages: 1 -->
<svg width="542pt" height="274pt"
 viewBox="0.00 0.00 542.06 274.00" xmlns="http://www.w3.org/2000/svg" xmlns:xlink="http://www.w3.org/1999/xlink">
<g id="graph0" class="graph" transform="scale(1 1) rotate(0) translate(4 270)">
<title>sources/Common/ModInfo.hpp</title>
<polygon fill="white" stroke="transparent" points="-4,4 -4,-270 538.06,-270 538.06,4 -4,4"/>
<!-- Node1 -->
<g id="node1" class="node">
<title>Node1</title>
<g id="a_node1"><a xlink:title=" ">
<polygon fill="#bfbfbf" stroke="black" points="101.06,-246.5 101.06,-265.5 252.06,-265.5 252.06,-246.5 101.06,-246.5"/>
<text text-anchor="middle" x="176.56" y="-253.5" font-family="Helvetica,sans-Serif" font-size="10.00">sources/Common/ModInfo.hpp</text>
</a>
</g>
</g>
<!-- Node2 -->
<g id="node2" class="node">
<title>Node2</title>
<g id="a_node2"><a xlink:href="IGameModule_8hpp.html" target="_top" xlink:title=" ">
<polygon fill="white" stroke="black" points="13.56,-134.5 13.56,-153.5 189.56,-153.5 189.56,-134.5 13.56,-134.5"/>
<text text-anchor="middle" x="101.56" y="-141.5" font-family="Helvetica,sans-Serif" font-size="10.00">sources/Common/IGameModule.hpp</text>
</a>
</g>
</g>
<!-- Node1&#45;&gt;Node2 -->
<g id="edge1" class="edge">
<title>Node1&#45;&gt;Node2</title>
<path fill="none" stroke="midnightblue" d="M164.94,-237.96C148.69,-214.12 119.77,-171.71 107.42,-153.59"/>
<polygon fill="midnightblue" stroke="midnightblue" points="162.15,-240.08 170.68,-246.37 167.94,-236.13 162.15,-240.08"/>
</g>
<!-- Node3 -->
<g id="node3" class="node">
<title>Node3</title>
<g id="a_node3"><a xlink:href="Runner_8hpp.html" target="_top" xlink:title=" ">
<polygon fill="white" stroke="black" points="77.56,-67.5 77.56,-97.5 187.56,-97.5 187.56,-67.5 77.56,-67.5"/>
<text text-anchor="start" x="85.56" y="-85.5" font-family="Helvetica,sans-Serif" font-size="10.00">sources/Core/Runner</text>
<text text-anchor="middle" x="132.56" y="-74.5" font-family="Helvetica,sans-Serif" font-size="10.00">/Runner.hpp</text>
</a>
</g>
</g>
<!-- Node1&#45;&gt;Node3 -->
<g id="edge15" class="edge">
<title>Node1&#45;&gt;Node3</title>
<path fill="none" stroke="midnightblue" d="M133.88,-243.37C92.52,-229.57 32.12,-202.13 4.56,-154 -14.66,-120.42 34.44,-101.83 77.29,-92.29"/>
<polygon fill="midnightblue" stroke="midnightblue" points="132.84,-246.71 143.43,-246.43 134.98,-240.05 132.84,-246.71"/>
</g>
<!-- Node6 -->
<g id="node6" class="node">
<title>Node6</title>
<g id="a_node6"><a xlink:href="Module_8hpp.html" target="_top" xlink:title=" ">
<polygon fill="white" stroke="black" points="202.06,-190.5 202.06,-209.5 349.06,-209.5 349.06,-190.5 202.06,-190.5"/>
<text text-anchor="middle" x="275.56" y="-197.5" font-family="Helvetica,sans-Serif" font-size="10.00">sources/Common/Module.hpp</text>
</a>
</g>
</g>
<!-- Node1&#45;&gt;Node6 -->
<g id="edge5" class="edge">
<title>Node1&#45;&gt;Node6</title>
<path fill="none" stroke="midnightblue" d="M201.4,-241.45C219.68,-231.48 243.98,-218.23 259.7,-209.65"/>
<polygon fill="midnightblue" stroke="midnightblue" points="199.57,-238.46 192.47,-246.32 202.93,-244.61 199.57,-238.46"/>
</g>
<!-- Node10 -->
<g id="node10" class="node">
<title>Node10</title>
<g id="a_node10"><a xlink:href="Library_8hpp.html" target="_top" xlink:title=" ">
<polygon fill="white" stroke="black" points="409.06,-134.5 409.06,-153.5 534.06,-153.5 534.06,-134.5 409.06,-134.5"/>
<text text-anchor="middle" x="471.56" y="-141.5" font-family="Helvetica,sans-Serif" font-size="10.00">sources/Core/Library.hpp</text>
</a>
</g>
</g>
<!-- Node1&#45;&gt;Node10 -->
<g id="edge14" class="edge">
<title>Node1&#45;&gt;Node10</title>
<path fill="none" stroke="midnightblue" d="M235.96,-244.52C271.92,-237.13 318.27,-225.74 357.56,-210 396.69,-194.33 438.8,-167.36 459.15,-153.61"/>
<polygon fill="midnightblue" stroke="midnightblue" points="235.22,-241.1 226.1,-246.5 236.6,-247.96 235.22,-241.1"/>
</g>
<!-- Node2&#45;&gt;Node3 -->
<g id="edge2" class="edge">
<title>Node2&#45;&gt;Node3</title>
<path fill="none" stroke="midnightblue" d="M110.74,-125.39C115.37,-116.5 120.92,-105.86 125.26,-97.52"/>
<polygon fill="midnightblue" stroke="midnightblue" points="107.52,-123.99 106.01,-134.48 113.73,-127.22 107.52,-123.99"/>
</g>
<!-- Node4 -->
<g id="node4" class="node">
<title>Node4</title>
<g id="a_node4"><a xlink:href="main_8cpp.html" target="_top" xlink:title=" ">
<polygon fill="white" stroke="black" points="134.56,-6 134.56,-25 190.56,-25 190.56,-6 134.56,-6"/>
<text text-anchor="middle" x="162.56" y="-13" font-family="Helvetica,sans-Serif" font-size="10.00">main.cpp</text>
</a>
</g>
</g>
<!-- Node3&#45;&gt;Node4 -->
<g id="edge3" class="edge">
<title>Node3&#45;&gt;Node4</title>
<path fill="none" stroke="midnightblue" d="M143.28,-58.29C148.58,-46.8 154.66,-33.63 158.55,-25.19"/>
<polygon fill="midnightblue" stroke="midnightblue" points="140.09,-56.85 139.07,-67.4 146.44,-59.78 140.09,-56.85"/>
</g>
<!-- Node5 -->
<g id="node5" class="node">
<title>Node5</title>
<g id="a_node5"><a xlink:href="Runner_8cpp.html" target="_top" xlink:title=" ">
<polygon fill="white" stroke="black" points="6.56,-0.5 6.56,-30.5 116.56,-30.5 116.56,-0.5 6.56,-0.5"/>
<text text-anchor="start" x="14.56" y="-18.5" font-family="Helvetica,sans-Serif" font-size="10.00">sources/Core/Runner</text>
<text text-anchor="middle" x="61.56" y="-7.5" font-family="Helvetica,sans-Serif" font-size="10.00">/Runner.cpp</text>
</a>
</g>
</g>
<!-- Node3&#45;&gt;Node5 -->
<g id="edge4" class="edge">
<title>Node3&#45;&gt;Node5</title>
<path fill="none" stroke="midnightblue" d="M109.73,-60.6C99.01,-50.78 86.52,-39.34 76.94,-30.58"/>
<polygon fill="midnightblue" stroke="midnightblue" points="107.42,-63.22 117.16,-67.4 112.15,-58.06 107.42,-63.22"/>
</g>
<!-- Node6&#45;&gt;Node2 -->
<g id="edge10" class="edge">
<title>Node6&#45;&gt;Node2</title>
<path fill="none" stroke="midnightblue" d="M238.3,-187.44C205.5,-177.26 158.48,-162.66 129.01,-153.52"/>
<polygon fill="midnightblue" stroke="midnightblue" points="237.41,-190.82 247.99,-190.44 239.48,-184.14 237.41,-190.82"/>
</g>
<!-- Node7 -->
<g id="node7" class="node">
<title>Node7</title>
<g id="a_node7"><a xlink:href="IDisplayModule_8hpp.html" target="_top" xlink:title=" ">
<polygon fill="white" stroke="black" points="208.06,-134.5 208.06,-153.5 391.06,-153.5 391.06,-134.5 208.06,-134.5"/>
<text text-anchor="middle" x="299.56" y="-141.5" font-family="Helvetica,sans-Serif" font-size="10.00">sources/Common/IDisplayModule.hpp</text>
</a>
</g>
</g>
<!-- Node6&#45;&gt;Node7 -->
<g id="edge6" class="edge">
<title>Node6&#45;&gt;Node7</title>
<path fill="none" stroke="midnightblue" d="M283.7,-180.69C287.75,-171.59 292.45,-161.01 295.67,-153.75"/>
<polygon fill="midnightblue" stroke="midnightblue" points="280.39,-179.52 279.53,-190.08 286.79,-182.37 280.39,-179.52"/>
</g>
<!-- Node6&#45;&gt;Node10 -->
<g id="edge11" class="edge">
<title>Node6&#45;&gt;Node10</title>
<path fill="none" stroke="midnightblue" d="M316.58,-187.7C353.58,-177.51 407.16,-162.74 440.65,-153.52"/>
<polygon fill="midnightblue" stroke="midnightblue" points="315.33,-184.41 306.62,-190.44 317.19,-191.16 315.33,-184.41"/>
</g>
<!-- Node7&#45;&gt;Node3 -->
<g id="edge7" class="edge">
<title>Node7&#45;&gt;Node3</title>
<path fill="none" stroke="midnightblue" d="M266.17,-131.1C239,-121.42 200.59,-107.74 171.92,-97.52"/>
<polygon fill="midnightblue" stroke="midnightblue" points="265.04,-134.42 275.64,-134.48 267.39,-127.82 265.04,-134.42"/>
</g>
<!-- Node8 -->
<g id="node8" class="node">
<title>Node8</title>
<g id="a_node8"><a xlink:href="SDLDisplay_8hpp.html" target="_top" xlink:title=" ">
<polygon fill="white" stroke="black" points="237.56,-67.5 237.56,-97.5 361.56,-97.5 361.56,-67.5 237.56,-67.5"/>
<text text-anchor="start" x="245.56" y="-85.5" font-family="Helvetica,sans-Serif" font-size="10.00">sources/DisplayModules</text>
<text text-anchor="middle" x="299.56" y="-74.5" font-family="Helvetica,sans-Serif" font-size="10.00">/SDLDisplay.hpp</text>
</a>
</g>
</g>
<!-- Node7&#45;&gt;Node8 -->
<g id="edge8" class="edge">
<title>Node7&#45;&gt;Node8</title>
<path fill="none" stroke="midnightblue" d="M299.56,-124.23C299.56,-115.59 299.56,-105.5 299.56,-97.52"/>
<polygon fill="midnightblue" stroke="midnightblue" points="296.06,-124.48 299.56,-134.48 303.06,-124.48 296.06,-124.48"/>
</g>
<!-- Node9 -->
<g id="node9" class="node">
<title>Node9</title>
<g id="a_node9"><a xlink:href="SDLDisplay_8cpp.html" target="_top" xlink:title=" ">
<polygon fill="white" stroke="black" points="237.56,-0.5 237.56,-30.5 361.56,-30.5 361.56,-0.5 237.56,-0.5"/>
<text text-anchor="start" x="245.56" y="-18.5" font-family="Helvetica,sans-Serif" font-size="10.00">sources/DisplayModules</text>
<text text-anchor="middle" x="299.56" y="-7.5" font-family="Helvetica,sans-Serif" font-size="10.00">/SDLDisplay.cpp</text>
</a>
</g>
</g>
<!-- Node8&#45;&gt;Node9 -->
<g id="edge9" class="edge">
<title>Node8&#45;&gt;Node9</title>
<path fill="none" stroke="midnightblue" d="M299.56,-57.11C299.56,-48.15 299.56,-38.32 299.56,-30.58"/>
<polygon fill="midnightblue" stroke="midnightblue" points="296.06,-57.4 299.56,-67.4 303.06,-57.4 296.06,-57.4"/>
</g>
<!-- Node10&#45;&gt;Node3 -->
<g id="edge13" class="edge">
<title>Node10&#45;&gt;Node3</title>
<path fill="none" stroke="midnightblue" d="M412.78,-132.68C349.51,-121.58 249.65,-104.05 187.8,-93.19"/>
<polygon fill="midnightblue" stroke="midnightblue" points="412.54,-136.19 422.99,-134.48 413.75,-129.3 412.54,-136.19"/>
</g>
<!-- Node11 -->
<g id="node11" class="node">
<title>Node11</title>
<g id="a_node11"><a xlink:href="Library_8cpp.html" target="_top" xlink:title=" ">
<polygon fill="white" stroke="black" points="409.06,-73 409.06,-92 534.06,-92 534.06,-73 409.06,-73"/>
<text text-anchor="middle" x="471.56" y="-80" font-family="Helvetica,sans-Serif" font-size="10.00">sources/Core/Library.cpp</text>
</a>
</g>
</g>
<!-- Node10&#45;&gt;Node11 -->
<g id="edge12" class="edge">
<title>Node10&#45;&gt;Node11</title>
<path fill="none" stroke="midnightblue" d="M471.56,-124.32C471.56,-113.5 471.56,-100.4 471.56,-92.01"/>
<polygon fill="midnightblue" stroke="midnightblue" points="468.06,-124.48 471.56,-134.48 475.06,-124.48 468.06,-124.48"/>
</g>
</g>
</svg>
