<?xml version="1.0" encoding="UTF-8" standalone="no"?>
<!DOCTYPE svg PUBLIC "-//W3C//DTD SVG 1.1//EN"
 "http://www.w3.org/Graphics/SVG/1.1/DTD/svg11.dtd">
<!-- Generated by graphviz version 2.46.1 (0)
 -->
<!-- Title: sources/Core/Runner/Runner.cpp Pages: 1 -->
<svg width="1588pt" height="341pt"
 viewBox="0.00 0.00 1588.00 341.00" xmlns="http://www.w3.org/2000/svg" xmlns:xlink="http://www.w3.org/1999/xlink">
<g id="graph0" class="graph" transform="scale(1 1) rotate(0) translate(4 337)">
<title>sources/Core/Runner/Runner.cpp</title>
<polygon fill="white" stroke="transparent" points="-4,4 -4,-337 1584,-337 1584,4 -4,4"/>
<!-- Node1 -->
<g id="node1" class="node">
<title>Node1</title>
<g id="a_node1"><a xlink:title=" ">
<polygon fill="#bfbfbf" stroke="black" points="1032.5,-302.5 1032.5,-332.5 1142.5,-332.5 1142.5,-302.5 1032.5,-302.5"/>
<text text-anchor="start" x="1040.5" y="-320.5" font-family="Helvetica,sans-Serif" font-size="10.00">sources/Core/Runner</text>
<text text-anchor="middle" x="1087.5" y="-309.5" font-family="Helvetica,sans-Serif" font-size="10.00">/Runner.cpp</text>
</a>
</g>
</g>
<!-- Node2 -->
<g id="node2" class="node">
<title>Node2</title>
<g id="a_node2"><a xlink:title=" ">
<polygon fill="white" stroke="#bfbfbf" points="800.5,-241 800.5,-260 862.5,-260 862.5,-241 800.5,-241"/>
<text text-anchor="middle" x="831.5" y="-248" font-family="Helvetica,sans-Serif" font-size="10.00">filesystem</text>
</a>
</g>
</g>
<!-- Node1&#45;&gt;Node2 -->
<g id="edge1" class="edge">
<title>Node1&#45;&gt;Node2</title>
<path fill="none" stroke="midnightblue" d="M1032.44,-305.5C988.5,-296.28 925.58,-282.06 871.5,-266 868.87,-265.22 866.16,-264.36 863.45,-263.46"/>
<polygon fill="midnightblue" stroke="midnightblue" points="864.36,-260.07 853.77,-260.1 862.07,-266.69 864.36,-260.07"/>
</g>
<!-- Node3 -->
<g id="node3" class="node">
<title>Node3</title>
<g id="a_node3"><a xlink:href="InvalidLibraryException_8hpp.html" target="_top" xlink:title=" ">
<polygon fill="white" stroke="black" points="1368.5,-112.5 1368.5,-142.5 1494.5,-142.5 1494.5,-112.5 1368.5,-112.5"/>
<text text-anchor="start" x="1376.5" y="-130.5" font-family="Helvetica,sans-Serif" font-size="10.00">Exceptions/InvalidLibrary</text>
<text text-anchor="middle" x="1431.5" y="-119.5" font-family="Helvetica,sans-Serif" font-size="10.00">Exception.hpp</text>
</a>
</g>
</g>
<!-- Node1&#45;&gt;Node3 -->
<g id="edge2" class="edge">
<title>Node1&#45;&gt;Node3</title>
<path fill="none" stroke="midnightblue" d="M1130.83,-302.39C1185.54,-283.48 1281.33,-246.73 1354.5,-199 1375.83,-185.09 1396.94,-165.21 1411.65,-150.1"/>
<polygon fill="midnightblue" stroke="midnightblue" points="1414.35,-152.35 1418.72,-142.7 1409.29,-147.51 1414.35,-152.35"/>
</g>
<!-- Node5 -->
<g id="node5" class="node">
<title>Node5</title>
<g id="a_node5"><a xlink:href="InvalidArgumentException_8hpp.html" target="_top" xlink:title=" ">
<polygon fill="white" stroke="black" points="1441,-235.5 1441,-265.5 1580,-265.5 1580,-235.5 1441,-235.5"/>
<text text-anchor="start" x="1449" y="-253.5" font-family="Helvetica,sans-Serif" font-size="10.00">Exceptions/InvalidArgument</text>
<text text-anchor="middle" x="1510.5" y="-242.5" font-family="Helvetica,sans-Serif" font-size="10.00">Exception.hpp</text>
</a>
</g>
</g>
<!-- Node1&#45;&gt;Node5 -->
<g id="edge4" class="edge">
<title>Node1&#45;&gt;Node5</title>
<path fill="none" stroke="midnightblue" d="M1142.8,-308C1216.29,-296.71 1346.63,-276.68 1430.75,-263.75"/>
<polygon fill="midnightblue" stroke="midnightblue" points="1431.42,-267.19 1440.77,-262.21 1430.36,-260.27 1431.42,-267.19"/>
</g>
<!-- Node6 -->
<g id="node6" class="node">
<title>Node6</title>
<g id="a_node6"><a xlink:href="KeyEvent_8hpp.html" target="_top" xlink:title=" ">
<polygon fill="white" stroke="black" points="881,-241 881,-260 1036,-260 1036,-241 881,-241"/>
<text text-anchor="middle" x="958.5" y="-248" font-family="Helvetica,sans-Serif" font-size="10.00">Common/Events/KeyEvent.hpp</text>
</a>
</g>
</g>
<!-- Node1&#45;&gt;Node6 -->
<g id="edge6" class="edge">
<title>Node1&#45;&gt;Node6</title>
<path fill="none" stroke="midnightblue" d="M1059.51,-302.4C1037.17,-291.14 1006.13,-275.5 984.37,-264.54"/>
<polygon fill="midnightblue" stroke="midnightblue" points="985.89,-261.38 975.38,-260.01 982.74,-267.63 985.89,-261.38"/>
</g>
<!-- Node8 -->
<g id="node8" class="node">
<title>Node8</title>
<g id="a_node8"><a xlink:href="Runner_8hpp.html" target="_top" xlink:title=" ">
<polygon fill="white" stroke="black" points="1054.5,-241 1054.5,-260 1120.5,-260 1120.5,-241 1054.5,-241"/>
<text text-anchor="middle" x="1087.5" y="-248" font-family="Helvetica,sans-Serif" font-size="10.00">Runner.hpp</text>
</a>
</g>
</g>
<!-- Node1&#45;&gt;Node8 -->
<g id="edge8" class="edge">
<title>Node1&#45;&gt;Node8</title>
<path fill="none" stroke="midnightblue" d="M1087.5,-302.4C1087.5,-293.06 1087.5,-280.71 1087.5,-270.52"/>
<polygon fill="midnightblue" stroke="midnightblue" points="1091,-270.19 1087.5,-260.19 1084,-270.19 1091,-270.19"/>
</g>
<!-- Node4 -->
<g id="node4" class="node">
<title>Node4</title>
<g id="a_node4"><a xlink:title=" ">
<polygon fill="white" stroke="#bfbfbf" points="1447,-56.5 1447,-75.5 1506,-75.5 1506,-56.5 1447,-56.5"/>
<text text-anchor="middle" x="1476.5" y="-63.5" font-family="Helvetica,sans-Serif" font-size="10.00">stdexcept</text>
</a>
</g>
</g>
<!-- Node3&#45;&gt;Node4 -->
<g id="edge3" class="edge">
<title>Node3&#45;&gt;Node4</title>
<path fill="none" stroke="midnightblue" d="M1442.16,-112.4C1448.64,-103.84 1456.93,-92.87 1463.75,-83.86"/>
<polygon fill="midnightblue" stroke="midnightblue" points="1466.71,-85.74 1469.95,-75.66 1461.13,-81.52 1466.71,-85.74"/>
</g>
<!-- Node5&#45;&gt;Node4 -->
<g id="edge5" class="edge">
<title>Node5&#45;&gt;Node4</title>
<path fill="none" stroke="midnightblue" d="M1511.98,-235.46C1514.18,-210.14 1516.73,-155.44 1503.5,-112 1500.45,-101.99 1494.71,-91.91 1489.3,-83.84"/>
<polygon fill="midnightblue" stroke="midnightblue" points="1492.15,-81.8 1483.5,-75.68 1486.44,-85.86 1492.15,-81.8"/>
</g>
<!-- Node7 -->
<g id="node7" class="node">
<title>Node7</title>
<g id="a_node7"><a xlink:href="Event_8hpp.html" target="_top" xlink:title=" ">
<polygon fill="white" stroke="black" points="732.5,-118 732.5,-137 836.5,-137 836.5,-118 732.5,-118"/>
<text text-anchor="middle" x="784.5" y="-125" font-family="Helvetica,sans-Serif" font-size="10.00">Common/Event.hpp</text>
</a>
</g>
</g>
<!-- Node6&#45;&gt;Node7 -->
<g id="edge7" class="edge">
<title>Node6&#45;&gt;Node7</title>
<path fill="none" stroke="midnightblue" d="M908.38,-240.92C879.57,-233.82 844.29,-221.15 819.5,-199 803.94,-185.09 794.48,-162.68 789.39,-146.87"/>
<polygon fill="midnightblue" stroke="midnightblue" points="792.72,-145.77 786.54,-137.16 786,-147.74 792.72,-145.77"/>
</g>
<!-- Node9 -->
<g id="node9" class="node">
<title>Node9</title>
<g id="a_node9"><a xlink:title=" ">
<polygon fill="white" stroke="#bfbfbf" points="691,-0.5 691,-19.5 732,-19.5 732,-0.5 691,-0.5"/>
<text text-anchor="middle" x="711.5" y="-7.5" font-family="Helvetica,sans-Serif" font-size="10.00">string</text>
</a>
</g>
</g>
<!-- Node8&#45;&gt;Node9 -->
<g id="edge9" class="edge">
<title>Node8&#45;&gt;Node9</title>
<path fill="none" stroke="midnightblue" d="M1120.78,-246.55C1174.97,-240.97 1278.46,-226.87 1300.5,-199 1314.48,-181.31 1313.87,-148.81 1286.5,-112 1255.41,-70.19 1233.33,-71.23 1183.5,-56 1100.38,-30.61 833.23,-16.49 742.21,-12.32"/>
<polygon fill="midnightblue" stroke="midnightblue" points="742.16,-8.81 732.01,-11.86 741.84,-15.81 742.16,-8.81"/>
</g>
<!-- Node10 -->
<g id="node10" class="node">
<title>Node10</title>
<g id="a_node10"><a xlink:title=" ">
<polygon fill="white" stroke="#bfbfbf" points="854.5,-118 854.5,-137 898.5,-137 898.5,-118 854.5,-118"/>
<text text-anchor="middle" x="876.5" y="-125" font-family="Helvetica,sans-Serif" font-size="10.00">vector</text>
</a>
</g>
</g>
<!-- Node8&#45;&gt;Node10 -->
<g id="edge10" class="edge">
<title>Node8&#45;&gt;Node10</title>
<path fill="none" stroke="midnightblue" d="M1064.1,-240.89C1058.09,-238.82 1051.59,-236.72 1045.5,-235 974.1,-214.86 931.37,-254.82 882.5,-199 870.26,-185.02 870.39,-162.94 872.55,-147.22"/>
<polygon fill="midnightblue" stroke="midnightblue" points="876.04,-147.56 874.32,-137.1 869.15,-146.34 876.04,-147.56"/>
</g>
<!-- Node11 -->
<g id="node11" class="node">
<title>Node11</title>
<g id="a_node11"><a xlink:title=" ">
<polygon fill="white" stroke="#bfbfbf" points="916.5,-118 916.5,-137 968.5,-137 968.5,-118 916.5,-118"/>
<text text-anchor="middle" x="942.5" y="-125" font-family="Helvetica,sans-Serif" font-size="10.00">memory</text>
</a>
</g>
</g>
<!-- Node8&#45;&gt;Node11 -->
<g id="edge11" class="edge">
<title>Node8&#45;&gt;Node11</title>
<path fill="none" stroke="midnightblue" d="M1064.09,-240.94C1058.07,-238.87 1051.58,-236.75 1045.5,-235 977.54,-215.43 934.49,-254.38 890.5,-199 875.35,-179.93 899.5,-157.13 919.71,-142.73"/>
<polygon fill="midnightblue" stroke="midnightblue" points="921.69,-145.62 928,-137.11 917.76,-139.83 921.69,-145.62"/>
</g>
<!-- Node12 -->
<g id="node12" class="node">
<title>Node12</title>
<g id="a_node12"><a xlink:title=" ">
<polygon fill="white" stroke="#bfbfbf" points="900,-179.5 900,-198.5 935,-198.5 935,-179.5 900,-179.5"/>
<text text-anchor="middle" x="917.5" y="-186.5" font-family="Helvetica,sans-Serif" font-size="10.00">map</text>
</a>
</g>
</g>
<!-- Node8&#45;&gt;Node12 -->
<g id="edge12" class="edge">
<title>Node8&#45;&gt;Node12</title>
<path fill="none" stroke="midnightblue" d="M1063.14,-240.98C1031.83,-230.01 977.6,-211.03 944.88,-199.58"/>
<polygon fill="midnightblue" stroke="midnightblue" points="945.67,-196.15 935.08,-196.15 943.36,-202.76 945.67,-196.15"/>
</g>
<!-- Node13 -->
<g id="node13" class="node">
<title>Node13</title>
<g id="a_node13"><a xlink:title=" ">
<polygon fill="white" stroke="#bfbfbf" points="1215,-179.5 1215,-198.5 1274,-198.5 1274,-179.5 1215,-179.5"/>
<text text-anchor="middle" x="1244.5" y="-186.5" font-family="Helvetica,sans-Serif" font-size="10.00">functional</text>
</a>
</g>
</g>
<!-- Node8&#45;&gt;Node13 -->
<g id="edge13" class="edge">
<title>Node8&#45;&gt;Node13</title>
<path fill="none" stroke="midnightblue" d="M1109.99,-240.98C1136.81,-230.81 1181.82,-213.76 1212.31,-202.2"/>
<polygon fill="midnightblue" stroke="midnightblue" points="1213.94,-205.33 1222.05,-198.51 1211.46,-198.78 1213.94,-205.33"/>
</g>
<!-- Node14 -->
<g id="node14" class="node">
<title>Node14</title>
<g id="a_node14"><a xlink:href="IGameModule_8hpp.html" target="_top" xlink:title=" ">
<polygon fill="white" stroke="black" points="953,-179.5 953,-198.5 1092,-198.5 1092,-179.5 953,-179.5"/>
<text text-anchor="middle" x="1022.5" y="-186.5" font-family="Helvetica,sans-Serif" font-size="10.00">Common/IGameModule.hpp</text>
</a>
</g>
</g>
<!-- Node8&#45;&gt;Node14 -->
<g id="edge14" class="edge">
<title>Node8&#45;&gt;Node14</title>
<path fill="none" stroke="midnightblue" d="M1078.19,-240.98C1068.05,-231.7 1051.64,-216.67 1039.25,-205.33"/>
<polygon fill="midnightblue" stroke="midnightblue" points="1041.54,-202.68 1031.8,-198.51 1036.81,-207.84 1041.54,-202.68"/>
</g>
<!-- Node15 -->
<g id="node15" class="node">
<title>Node15</title>
<g id="a_node15"><a xlink:href="ModInfo_8hpp.html" target="_top" xlink:title=" ">
<polygon fill="white" stroke="black" points="1061,-56.5 1061,-75.5 1174,-75.5 1174,-56.5 1061,-56.5"/>
<text text-anchor="middle" x="1117.5" y="-63.5" font-family="Helvetica,sans-Serif" font-size="10.00">Common/ModInfo.hpp</text>
</a>
</g>
</g>
<!-- Node8&#45;&gt;Node15 -->
<g id="edge46" class="edge">
<title>Node8&#45;&gt;Node15</title>
<path fill="none" stroke="midnightblue" d="M1120.59,-245.83C1171.11,-239.46 1263.7,-224.55 1283.5,-199 1300.75,-176.75 1290.2,-140.29 1261.5,-112 1240.82,-91.61 1211.04,-80.44 1183.92,-74.33"/>
<polygon fill="midnightblue" stroke="midnightblue" points="1184.57,-70.89 1174.07,-72.3 1183.16,-77.75 1184.57,-70.89"/>
</g>
<!-- Node18 -->
<g id="node18" class="node">
<title>Node18</title>
<g id="a_node18"><a xlink:href="IDisplayModule_8hpp.html" target="_top" xlink:title=" ">
<polygon fill="white" stroke="black" points="577.5,-179.5 577.5,-198.5 723.5,-198.5 723.5,-179.5 577.5,-179.5"/>
<text text-anchor="middle" x="650.5" y="-186.5" font-family="Helvetica,sans-Serif" font-size="10.00">Common/IDisplayModule.hpp</text>
</a>
</g>
</g>
<!-- Node8&#45;&gt;Node18 -->
<g id="edge23" class="edge">
<title>Node8&#45;&gt;Node18</title>
<path fill="none" stroke="midnightblue" d="M1065.53,-240.9C1059.15,-238.68 1052.12,-236.5 1045.5,-235 939.47,-210.96 814.38,-199.47 733.83,-194.18"/>
<polygon fill="midnightblue" stroke="midnightblue" points="733.94,-190.68 723.74,-193.54 733.5,-197.67 733.94,-190.68"/>
</g>
<!-- Node25 -->
<g id="node25" class="node">
<title>Node25</title>
<g id="a_node25"><a xlink:href="Library_8hpp.html" target="_top" xlink:title=" ">
<polygon fill="white" stroke="black" points="1110,-179.5 1110,-198.5 1197,-198.5 1197,-179.5 1110,-179.5"/>
<text text-anchor="middle" x="1153.5" y="-186.5" font-family="Helvetica,sans-Serif" font-size="10.00">Core/Library.hpp</text>
</a>
</g>
</g>
<!-- Node8&#45;&gt;Node25 -->
<g id="edge40" class="edge">
<title>Node8&#45;&gt;Node25</title>
<path fill="none" stroke="midnightblue" d="M1096.96,-240.98C1107.25,-231.7 1123.92,-216.67 1136.49,-205.33"/>
<polygon fill="midnightblue" stroke="midnightblue" points="1138.98,-207.8 1144.06,-198.51 1134.29,-202.61 1138.98,-207.8"/>
</g>
<!-- Node14&#45;&gt;Node7 -->
<g id="edge20" class="edge">
<title>Node14&#45;&gt;Node7</title>
<path fill="none" stroke="midnightblue" d="M988.4,-179.48C946.25,-168.94 874.45,-150.99 828.27,-139.44"/>
<polygon fill="midnightblue" stroke="midnightblue" points="829.09,-136.04 818.54,-137.01 827.39,-142.83 829.09,-136.04"/>
</g>
<!-- Node14&#45;&gt;Node10 -->
<g id="edge21" class="edge">
<title>Node14&#45;&gt;Node10</title>
<path fill="none" stroke="midnightblue" d="M999.41,-179.47C976.07,-170.72 939.02,-156.52 907.5,-143 906.3,-142.49 905.08,-141.95 903.85,-141.41"/>
<polygon fill="midnightblue" stroke="midnightblue" points="904.99,-138.08 894.44,-137.13 902.1,-144.46 904.99,-138.08"/>
</g>
<!-- Node14&#45;&gt;Node11 -->
<g id="edge22" class="edge">
<title>Node14&#45;&gt;Node11</title>
<path fill="none" stroke="midnightblue" d="M1011.04,-179.48C998.33,-170.02 977.59,-154.6 962.25,-143.19"/>
<polygon fill="midnightblue" stroke="midnightblue" points="964.05,-140.17 953.94,-137.01 959.88,-145.79 964.05,-140.17"/>
</g>
<!-- Node14&#45;&gt;Node15 -->
<g id="edge15" class="edge">
<title>Node14&#45;&gt;Node15</title>
<path fill="none" stroke="midnightblue" d="M1024.37,-179.2C1027.91,-164.12 1036.81,-132.95 1053.5,-112 1063.71,-99.18 1078.52,-88.44 1091.33,-80.68"/>
<polygon fill="midnightblue" stroke="midnightblue" points="1093.28,-83.59 1100.2,-75.56 1089.79,-77.52 1093.28,-83.59"/>
</g>
<!-- Node16 -->
<g id="node16" class="node">
<title>Node16</title>
<g id="a_node16"><a xlink:href="GameObject_8hpp.html" target="_top" xlink:title=" ">
<polygon fill="white" stroke="black" points="335,-56.5 335,-75.5 468,-75.5 468,-56.5 335,-56.5"/>
<text text-anchor="middle" x="401.5" y="-63.5" font-family="Helvetica,sans-Serif" font-size="10.00">Common/GameObject.hpp</text>
</a>
</g>
</g>
<!-- Node14&#45;&gt;Node16 -->
<g id="edge17" class="edge">
<title>Node14&#45;&gt;Node16</title>
<path fill="none" stroke="midnightblue" d="M1020.15,-179.04C1015.31,-162.53 1002.49,-127.57 977.5,-112 936.14,-86.23 625.64,-73.66 478.46,-69.09"/>
<polygon fill="midnightblue" stroke="midnightblue" points="478.25,-65.58 468.15,-68.78 478.04,-72.58 478.25,-65.58"/>
</g>
<!-- Node17 -->
<g id="node17" class="node">
<title>Node17</title>
<g id="a_node17"><a xlink:href="Module_8hpp.html" target="_top" xlink:title=" ">
<polygon fill="white" stroke="black" points="1062.5,-118 1062.5,-137 1172.5,-137 1172.5,-118 1062.5,-118"/>
<text text-anchor="middle" x="1117.5" y="-125" font-family="Helvetica,sans-Serif" font-size="10.00">Common/Module.hpp</text>
</a>
</g>
</g>
<!-- Node14&#45;&gt;Node17 -->
<g id="edge18" class="edge">
<title>Node14&#45;&gt;Node17</title>
<path fill="none" stroke="midnightblue" d="M1036.11,-179.48C1051.56,-169.8 1076.99,-153.87 1095.32,-142.39"/>
<polygon fill="midnightblue" stroke="midnightblue" points="1097.3,-145.28 1103.91,-137.01 1093.58,-139.35 1097.3,-145.28"/>
</g>
<!-- Node15&#45;&gt;Node9 -->
<g id="edge16" class="edge">
<title>Node15&#45;&gt;Node9</title>
<path fill="none" stroke="midnightblue" d="M1060.62,-57.43C973.62,-45.86 810.43,-24.16 742.45,-15.12"/>
<polygon fill="midnightblue" stroke="midnightblue" points="742.76,-11.63 732.39,-13.78 741.84,-18.57 742.76,-11.63"/>
</g>
<!-- Node17&#45;&gt;Node15 -->
<g id="edge19" class="edge">
<title>Node17&#45;&gt;Node15</title>
<path fill="none" stroke="midnightblue" d="M1117.5,-117.98C1117.5,-109.58 1117.5,-96.48 1117.5,-85.66"/>
<polygon fill="midnightblue" stroke="midnightblue" points="1121,-85.51 1117.5,-75.51 1114,-85.51 1121,-85.51"/>
</g>
<!-- Node18&#45;&gt;Node7 -->
<g id="edge37" class="edge">
<title>Node18&#45;&gt;Node7</title>
<path fill="none" stroke="midnightblue" d="M669.7,-179.48C692.29,-169.45 730,-152.7 756,-141.15"/>
<polygon fill="midnightblue" stroke="midnightblue" points="757.62,-144.27 765.34,-137.01 754.78,-137.87 757.62,-144.27"/>
</g>
<!-- Node18&#45;&gt;Node11 -->
<g id="edge39" class="edge">
<title>Node18&#45;&gt;Node11</title>
<path fill="none" stroke="midnightblue" d="M723.75,-179.53C775.71,-172.47 846.72,-160.68 907.5,-143 909.79,-142.33 912.14,-141.56 914.47,-140.74"/>
<polygon fill="midnightblue" stroke="midnightblue" points="915.82,-143.97 923.88,-137.1 913.29,-137.44 915.82,-143.97"/>
</g>
<!-- Node18&#45;&gt;Node17 -->
<g id="edge24" class="edge">
<title>Node18&#45;&gt;Node17</title>
<path fill="none" stroke="midnightblue" d="M717.41,-179.48C806.69,-168.1 963.76,-148.09 1052.21,-136.82"/>
<polygon fill="midnightblue" stroke="midnightblue" points="1052.91,-140.26 1062.38,-135.52 1052.02,-133.31 1052.91,-140.26"/>
</g>
<!-- Node19 -->
<g id="node19" class="node">
<title>Node19</title>
<g id="a_node19"><a xlink:href="LineObject_8hpp.html" target="_top" xlink:title=" ">
<polygon fill="white" stroke="black" points="411,-112.5 411,-142.5 530,-142.5 530,-112.5 411,-112.5"/>
<text text-anchor="start" x="419" y="-130.5" font-family="Helvetica,sans-Serif" font-size="10.00">Common/GameObjects</text>
<text text-anchor="middle" x="470.5" y="-119.5" font-family="Helvetica,sans-Serif" font-size="10.00">/LineObject.hpp</text>
</a>
</g>
</g>
<!-- Node18&#45;&gt;Node19 -->
<g id="edge25" class="edge">
<title>Node18&#45;&gt;Node19</title>
<path fill="none" stroke="midnightblue" d="M624.71,-179.48C598.17,-170.7 556.08,-156.79 522.57,-145.71"/>
<polygon fill="midnightblue" stroke="midnightblue" points="523.52,-142.34 512.92,-142.52 521.32,-148.98 523.52,-142.34"/>
</g>
<!-- Node20 -->
<g id="node20" class="node">
<title>Node20</title>
<g id="a_node20"><a xlink:href="RectangleObject_8hpp.html" target="_top" xlink:title=" ">
<polygon fill="white" stroke="black" points="548,-112.5 548,-142.5 667,-142.5 667,-112.5 548,-112.5"/>
<text text-anchor="start" x="556" y="-130.5" font-family="Helvetica,sans-Serif" font-size="10.00">Common/GameObjects</text>
<text text-anchor="middle" x="607.5" y="-119.5" font-family="Helvetica,sans-Serif" font-size="10.00">/RectangleObject.hpp</text>
</a>
</g>
</g>
<!-- Node18&#45;&gt;Node20 -->
<g id="edge27" class="edge">
<title>Node18&#45;&gt;Node20</title>
<path fill="none" stroke="midnightblue" d="M644.34,-179.48C638.95,-172.02 630.88,-160.85 623.67,-150.87"/>
<polygon fill="midnightblue" stroke="midnightblue" points="626.33,-148.58 617.63,-142.52 620.65,-152.68 626.33,-148.58"/>
</g>
<!-- Node21 -->
<g id="node21" class="node">
<title>Node21</title>
<g id="a_node21"><a xlink:href="CircleObject_8hpp.html" target="_top" xlink:title=" ">
<polygon fill="white" stroke="black" points="274,-112.5 274,-142.5 393,-142.5 393,-112.5 274,-112.5"/>
<text text-anchor="start" x="282" y="-130.5" font-family="Helvetica,sans-Serif" font-size="10.00">Common/GameObjects</text>
<text text-anchor="middle" x="333.5" y="-119.5" font-family="Helvetica,sans-Serif" font-size="10.00">/CircleObject.hpp</text>
</a>
</g>
</g>
<!-- Node18&#45;&gt;Node21 -->
<g id="edge29" class="edge">
<title>Node18&#45;&gt;Node21</title>
<path fill="none" stroke="midnightblue" d="M600.81,-179.49C552.65,-171.14 477.28,-157.79 403.16,-143.3"/>
<polygon fill="midnightblue" stroke="midnightblue" points="403.67,-139.83 393.18,-141.34 402.32,-146.7 403.67,-139.83"/>
</g>
<!-- Node22 -->
<g id="node22" class="node">
<title>Node22</title>
<g id="a_node22"><a xlink:href="SpriteObject_8hpp.html" target="_top" xlink:title=" ">
<polygon fill="white" stroke="black" points="137,-112.5 137,-142.5 256,-142.5 256,-112.5 137,-112.5"/>
<text text-anchor="start" x="145" y="-130.5" font-family="Helvetica,sans-Serif" font-size="10.00">Common/GameObjects</text>
<text text-anchor="middle" x="196.5" y="-119.5" font-family="Helvetica,sans-Serif" font-size="10.00">/SpriteObject.hpp</text>
</a>
</g>
</g>
<!-- Node18&#45;&gt;Node22 -->
<g id="edge31" class="edge">
<title>Node18&#45;&gt;Node22</title>
<path fill="none" stroke="midnightblue" d="M577.29,-181.53C501.65,-174.38 379.98,-161.58 266.08,-143.17"/>
<polygon fill="midnightblue" stroke="midnightblue" points="266.58,-139.71 256.14,-141.55 265.45,-146.62 266.58,-139.71"/>
</g>
<!-- Node23 -->
<g id="node23" class="node">
<title>Node23</title>
<g id="a_node23"><a xlink:href="TextObject_8hpp.html" target="_top" xlink:title=" ">
<polygon fill="white" stroke="black" points="0,-112.5 0,-142.5 119,-142.5 119,-112.5 0,-112.5"/>
<text text-anchor="start" x="8" y="-130.5" font-family="Helvetica,sans-Serif" font-size="10.00">Common/GameObjects</text>
<text text-anchor="middle" x="59.5" y="-119.5" font-family="Helvetica,sans-Serif" font-size="10.00">/TextObject.hpp</text>
</a>
</g>
</g>
<!-- Node18&#45;&gt;Node23 -->
<g id="edge34" class="edge">
<title>Node18&#45;&gt;Node23</title>
<path fill="none" stroke="midnightblue" d="M577.4,-184.58C478.07,-179.3 294.76,-167.29 129.48,-143.18"/>
<polygon fill="midnightblue" stroke="midnightblue" points="129.53,-139.65 119.13,-141.65 128.51,-146.58 129.53,-139.65"/>
</g>
<!-- Node24 -->
<g id="node24" class="node">
<title>Node24</title>
<g id="a_node24"><a xlink:title=" ">
<polygon fill="white" stroke="#bfbfbf" points="685,-118 685,-137 714,-137 714,-118 685,-118"/>
<text text-anchor="middle" x="699.5" y="-125" font-family="Helvetica,sans-Serif" font-size="10.00">list</text>
</a>
</g>
</g>
<!-- Node18&#45;&gt;Node24 -->
<g id="edge38" class="edge">
<title>Node18&#45;&gt;Node24</title>
<path fill="none" stroke="midnightblue" d="M657.52,-179.48C664.94,-170.46 676.83,-156.02 686.07,-144.81"/>
<polygon fill="midnightblue" stroke="midnightblue" points="688.84,-146.95 692.49,-137.01 683.43,-142.5 688.84,-146.95"/>
</g>
<!-- Node19&#45;&gt;Node16 -->
<g id="edge26" class="edge">
<title>Node19&#45;&gt;Node16</title>
<path fill="none" stroke="midnightblue" d="M454.15,-112.4C443.6,-103.31 429.9,-91.49 419.12,-82.19"/>
<polygon fill="midnightblue" stroke="midnightblue" points="421.4,-79.54 411.54,-75.66 416.83,-84.84 421.4,-79.54"/>
</g>
<!-- Node20&#45;&gt;Node16 -->
<g id="edge28" class="edge">
<title>Node20&#45;&gt;Node16</title>
<path fill="none" stroke="midnightblue" d="M558.94,-112.47C522.94,-102.08 474.48,-88.08 440.87,-78.37"/>
<polygon fill="midnightblue" stroke="midnightblue" points="441.53,-74.92 430.95,-75.51 439.59,-81.64 441.53,-74.92"/>
</g>
<!-- Node21&#45;&gt;Node16 -->
<g id="edge30" class="edge">
<title>Node21&#45;&gt;Node16</title>
<path fill="none" stroke="midnightblue" d="M349.62,-112.4C359.9,-103.4 373.25,-91.72 383.83,-82.47"/>
<polygon fill="midnightblue" stroke="midnightblue" points="386.38,-84.88 391.61,-75.66 381.77,-79.61 386.38,-84.88"/>
</g>
<!-- Node22&#45;&gt;Node9 -->
<g id="edge33" class="edge">
<title>Node22&#45;&gt;Node9</title>
<path fill="none" stroke="midnightblue" d="M216.4,-112.43C240.84,-95.93 284.16,-69.16 325.5,-56 452.78,-15.49 614.05,-10.73 680.62,-10.64"/>
<polygon fill="midnightblue" stroke="midnightblue" points="680.82,-14.15 690.83,-10.67 680.84,-7.15 680.82,-14.15"/>
</g>
<!-- Node22&#45;&gt;Node16 -->
<g id="edge32" class="edge">
<title>Node22&#45;&gt;Node16</title>
<path fill="none" stroke="midnightblue" d="M244.82,-112.47C280.65,-102.08 328.88,-88.08 362.32,-78.37"/>
<polygon fill="midnightblue" stroke="midnightblue" points="363.56,-81.66 372.19,-75.51 361.61,-74.93 363.56,-81.66"/>
</g>
<!-- Node23&#45;&gt;Node9 -->
<g id="edge36" class="edge">
<title>Node23&#45;&gt;Node9</title>
<path fill="none" stroke="midnightblue" d="M95.13,-112.42C137.79,-96.16 211.73,-69.89 277.5,-56 426.6,-24.52 609.38,-14.73 680.82,-11.98"/>
<polygon fill="midnightblue" stroke="midnightblue" points="681.06,-15.47 690.93,-11.61 680.81,-8.48 681.06,-15.47"/>
</g>
<!-- Node23&#45;&gt;Node16 -->
<g id="edge35" class="edge">
<title>Node23&#45;&gt;Node16</title>
<path fill="none" stroke="midnightblue" d="M119.17,-113.61C121.98,-113.05 124.77,-112.51 127.5,-112 197.96,-98.71 279.04,-85.67 334.62,-77.08"/>
<polygon fill="midnightblue" stroke="midnightblue" points="335.34,-80.51 344.69,-75.53 334.27,-73.59 335.34,-80.51"/>
</g>
<!-- Node25&#45;&gt;Node3 -->
<g id="edge43" class="edge">
<title>Node25&#45;&gt;Node3</title>
<path fill="none" stroke="midnightblue" d="M1193.33,-179.48C1236.28,-170.28 1305.58,-155.45 1358.39,-144.15"/>
<polygon fill="midnightblue" stroke="midnightblue" points="1359.33,-147.53 1368.38,-142.01 1357.87,-140.68 1359.33,-147.53"/>
</g>
<!-- Node25&#45;&gt;Node11 -->
<g id="edge44" class="edge">
<title>Node25&#45;&gt;Node11</title>
<path fill="none" stroke="midnightblue" d="M1123.27,-179.48C1085.03,-168.69 1019.27,-150.15 978.48,-138.65"/>
<polygon fill="midnightblue" stroke="midnightblue" points="979.26,-135.23 968.68,-135.88 977.36,-141.97 979.26,-135.23"/>
</g>
<!-- Node25&#45;&gt;Node15 -->
<g id="edge42" class="edge">
<title>Node25&#45;&gt;Node15</title>
<path fill="none" stroke="midnightblue" d="M1192.35,-179.36C1211.88,-172.85 1233.83,-161.7 1245.5,-143 1252.79,-131.31 1253.46,-123.24 1245.5,-112 1231.32,-91.99 1207.5,-80.81 1184.23,-74.59"/>
<polygon fill="midnightblue" stroke="midnightblue" points="1184.86,-71.14 1174.32,-72.22 1183.23,-77.95 1184.86,-71.14"/>
</g>
<!-- Node25&#45;&gt;Node17 -->
<g id="edge41" class="edge">
<title>Node25&#45;&gt;Node17</title>
<path fill="none" stroke="midnightblue" d="M1148.34,-179.48C1143.05,-170.73 1134.66,-156.87 1127.97,-145.81"/>
<polygon fill="midnightblue" stroke="midnightblue" points="1130.82,-143.75 1122.65,-137.01 1124.83,-147.38 1130.82,-143.75"/>
</g>
<!-- Node26 -->
<g id="node26" class="node">
<title>Node26</title>
<g id="a_node26"><a xlink:title=" ">
<polygon fill="white" stroke="#bfbfbf" points="1190.5,-118 1190.5,-137 1236.5,-137 1236.5,-118 1190.5,-118"/>
<text text-anchor="middle" x="1213.5" y="-125" font-family="Helvetica,sans-Serif" font-size="10.00">dlfcn.h</text>
</a>
</g>
</g>
<!-- Node25&#45;&gt;Node26 -->
<g id="edge45" class="edge">
<title>Node25&#45;&gt;Node26</title>
<path fill="none" stroke="midnightblue" d="M1162.1,-179.48C1171.36,-170.28 1186.32,-155.46 1197.71,-144.16"/>
<polygon fill="midnightblue" stroke="midnightblue" points="1200.28,-146.54 1204.92,-137.01 1195.35,-141.57 1200.28,-146.54"/>
</g>
</g>
</svg>
