<?xml version="1.0" encoding="UTF-8" standalone="no"?>
<!DOCTYPE svg PUBLIC "-//W3C//DTD SVG 1.1//EN"
 "http://www.w3.org/Graphics/SVG/1.1/DTD/svg11.dtd">
<!-- Generated by graphviz version 2.46.1 (0)
 -->
<!-- Title: sources/Core/Runner/Runner.hpp Pages: 1 -->
<svg width="1487pt" height="274pt"
 viewBox="0.00 0.00 1486.54 274.00" xmlns="http://www.w3.org/2000/svg" xmlns:xlink="http://www.w3.org/1999/xlink">
<g id="graph0" class="graph" transform="scale(1 1) rotate(0) translate(4 270)">
<title>sources/Core/Runner/Runner.hpp</title>
<polygon fill="white" stroke="transparent" points="-4,4 -4,-270 1482.54,-270 1482.54,4 -4,4"/>
<!-- Node1 -->
<g id="node1" class="node">
<title>Node1</title>
<g id="a_node1"><a xlink:title=" ">
<polygon fill="#bfbfbf" stroke="black" points="829.54,-235.5 829.54,-265.5 939.54,-265.5 939.54,-235.5 829.54,-235.5"/>
<text text-anchor="start" x="837.54" y="-253.5" font-family="Helvetica,sans-Serif" font-size="10.00">sources/Core/Runner</text>
<text text-anchor="middle" x="884.54" y="-242.5" font-family="Helvetica,sans-Serif" font-size="10.00">/Runner.hpp</text>
</a>
</g>
</g>
<!-- Node2 -->
<g id="node2" class="node">
<title>Node2</title>
<g id="a_node2"><a xlink:title=" ">
<polygon fill="white" stroke="#bfbfbf" points="210.04,-0.5 210.04,-19.5 251.04,-19.5 251.04,-0.5 210.04,-0.5"/>
<text text-anchor="middle" x="230.54" y="-7.5" font-family="Helvetica,sans-Serif" font-size="10.00">string</text>
</a>
</g>
</g>
<!-- Node1&#45;&gt;Node2 -->
<g id="edge1" class="edge">
<title>Node1&#45;&gt;Node2</title>
<path fill="none" stroke="midnightblue" d="M829.43,-246.93C646.35,-237.86 66.95,-204.45 12.54,-143 -47.28,-75.43 126.62,-31.74 199.77,-16.77"/>
<polygon fill="midnightblue" stroke="midnightblue" points="200.68,-20.16 209.8,-14.77 199.31,-13.29 200.68,-20.16"/>
</g>
<!-- Node3 -->
<g id="node3" class="node">
<title>Node3</title>
<g id="a_node3"><a xlink:title=" ">
<polygon fill="white" stroke="#bfbfbf" points="876.54,-118 876.54,-137 920.54,-137 920.54,-118 876.54,-118"/>
<text text-anchor="middle" x="898.54" y="-125" font-family="Helvetica,sans-Serif" font-size="10.00">vector</text>
</a>
</g>
</g>
<!-- Node1&#45;&gt;Node3 -->
<g id="edge2" class="edge">
<title>Node1&#45;&gt;Node3</title>
<path fill="none" stroke="midnightblue" d="M840.29,-235.44C810.01,-223.29 777.96,-203.79 793.54,-179 794.11,-178.09 840.04,-156.21 870.95,-141.55"/>
<polygon fill="midnightblue" stroke="midnightblue" points="872.85,-144.53 880.39,-137.08 869.85,-138.2 872.85,-144.53"/>
</g>
<!-- Node4 -->
<g id="node4" class="node">
<title>Node4</title>
<g id="a_node4"><a xlink:title=" ">
<polygon fill="white" stroke="#bfbfbf" points="938.54,-118 938.54,-137 990.54,-137 990.54,-118 938.54,-118"/>
<text text-anchor="middle" x="964.54" y="-125" font-family="Helvetica,sans-Serif" font-size="10.00">memory</text>
</a>
</g>
</g>
<!-- Node1&#45;&gt;Node4 -->
<g id="edge3" class="edge">
<title>Node1&#45;&gt;Node4</title>
<path fill="none" stroke="midnightblue" d="M896.32,-235.29C904.34,-225.37 915.01,-211.68 923.54,-199 935.23,-181.63 947.1,-160.8 955.03,-146.31"/>
<polygon fill="midnightblue" stroke="midnightblue" points="958.17,-147.87 959.85,-137.41 952.01,-144.54 958.17,-147.87"/>
</g>
<!-- Node5 -->
<g id="node5" class="node">
<title>Node5</title>
<g id="a_node5"><a xlink:title=" ">
<polygon fill="white" stroke="#bfbfbf" points="802.04,-179.5 802.04,-198.5 837.04,-198.5 837.04,-179.5 802.04,-179.5"/>
<text text-anchor="middle" x="819.54" y="-186.5" font-family="Helvetica,sans-Serif" font-size="10.00">map</text>
</a>
</g>
</g>
<!-- Node1&#45;&gt;Node5 -->
<g id="edge4" class="edge">
<title>Node1&#45;&gt;Node5</title>
<path fill="none" stroke="midnightblue" d="M869.14,-235.4C859.31,-226.4 846.55,-214.72 836.44,-205.47"/>
<polygon fill="midnightblue" stroke="midnightblue" points="838.74,-202.83 829,-198.66 834.02,-207.99 838.74,-202.83"/>
</g>
<!-- Node6 -->
<g id="node6" class="node">
<title>Node6</title>
<g id="a_node6"><a xlink:title=" ">
<polygon fill="white" stroke="#bfbfbf" points="855.04,-179.5 855.04,-198.5 914.04,-198.5 914.04,-179.5 855.04,-179.5"/>
<text text-anchor="middle" x="884.54" y="-186.5" font-family="Helvetica,sans-Serif" font-size="10.00">functional</text>
</a>
</g>
</g>
<!-- Node1&#45;&gt;Node6 -->
<g id="edge5" class="edge">
<title>Node1&#45;&gt;Node6</title>
<path fill="none" stroke="midnightblue" d="M884.54,-235.4C884.54,-227.47 884.54,-217.46 884.54,-208.86"/>
<polygon fill="midnightblue" stroke="midnightblue" points="888.04,-208.66 884.54,-198.66 881.04,-208.66 888.04,-208.66"/>
</g>
<!-- Node7 -->
<g id="node7" class="node">
<title>Node7</title>
<g id="a_node7"><a xlink:href="IGameModule_8hpp.html" target="_top" xlink:title=" ">
<polygon fill="white" stroke="black" points="971.04,-179.5 971.04,-198.5 1110.04,-198.5 1110.04,-179.5 971.04,-179.5"/>
<text text-anchor="middle" x="1040.54" y="-186.5" font-family="Helvetica,sans-Serif" font-size="10.00">Common/IGameModule.hpp</text>
</a>
</g>
</g>
<!-- Node1&#45;&gt;Node7 -->
<g id="edge6" class="edge">
<title>Node1&#45;&gt;Node7</title>
<path fill="none" stroke="midnightblue" d="M921.51,-235.4C947.92,-225.33 983.1,-211.91 1008.36,-202.28"/>
<polygon fill="midnightblue" stroke="midnightblue" points="1009.75,-205.49 1017.84,-198.66 1007.25,-198.95 1009.75,-205.49"/>
</g>
<!-- Node8 -->
<g id="node8" class="node">
<title>Node8</title>
<g id="a_node8"><a xlink:href="ModInfo_8hpp.html" target="_top" xlink:title=" ">
<polygon fill="white" stroke="black" points="1128.04,-56.5 1128.04,-75.5 1241.04,-75.5 1241.04,-56.5 1128.04,-56.5"/>
<text text-anchor="middle" x="1184.54" y="-63.5" font-family="Helvetica,sans-Serif" font-size="10.00">Common/ModInfo.hpp</text>
</a>
</g>
</g>
<!-- Node1&#45;&gt;Node8 -->
<g id="edge39" class="edge">
<title>Node1&#45;&gt;Node8</title>
<path fill="none" stroke="midnightblue" d="M939.71,-245.2C988.95,-239.65 1061.98,-227.09 1119.54,-199 1154.42,-181.98 1170.11,-178.16 1186.54,-143 1194.99,-124.93 1192.77,-101.71 1189.53,-85.72"/>
<polygon fill="midnightblue" stroke="midnightblue" points="1192.93,-84.89 1187.24,-75.95 1186.11,-86.49 1192.93,-84.89"/>
</g>
<!-- Node12 -->
<g id="node12" class="node">
<title>Node12</title>
<g id="a_node12"><a xlink:href="IDisplayModule_8hpp.html" target="_top" xlink:title=" ">
<polygon fill="white" stroke="black" points="532.54,-179.5 532.54,-198.5 678.54,-198.5 678.54,-179.5 532.54,-179.5"/>
<text text-anchor="middle" x="605.54" y="-186.5" font-family="Helvetica,sans-Serif" font-size="10.00">Common/IDisplayModule.hpp</text>
</a>
</g>
</g>
<!-- Node1&#45;&gt;Node12 -->
<g id="edge15" class="edge">
<title>Node1&#45;&gt;Node12</title>
<path fill="none" stroke="midnightblue" d="M829.42,-237.74C778.87,-226.96 704.62,-211.13 655.7,-200.7"/>
<polygon fill="midnightblue" stroke="midnightblue" points="656.17,-197.22 645.66,-198.56 654.71,-204.06 656.17,-197.22"/>
</g>
<!-- Node19 -->
<g id="node19" class="node">
<title>Node19</title>
<g id="a_node19"><a xlink:href="Library_8hpp.html" target="_top" xlink:title=" ">
<polygon fill="white" stroke="black" points="1251.04,-179.5 1251.04,-198.5 1338.04,-198.5 1338.04,-179.5 1251.04,-179.5"/>
<text text-anchor="middle" x="1294.54" y="-186.5" font-family="Helvetica,sans-Serif" font-size="10.00">Core/Library.hpp</text>
</a>
</g>
</g>
<!-- Node1&#45;&gt;Node19 -->
<g id="edge32" class="edge">
<title>Node1&#45;&gt;Node19</title>
<path fill="none" stroke="midnightblue" d="M939.75,-241.78C1009.08,-232.04 1131.67,-214.66 1236.54,-199 1237.99,-198.78 1239.46,-198.56 1240.94,-198.34"/>
<polygon fill="midnightblue" stroke="midnightblue" points="1241.49,-201.8 1250.85,-196.84 1240.44,-194.88 1241.49,-201.8"/>
</g>
<!-- Node7&#45;&gt;Node3 -->
<g id="edge13" class="edge">
<title>Node7&#45;&gt;Node3</title>
<path fill="none" stroke="midnightblue" d="M1018.29,-179.37C995.78,-170.56 960.04,-156.3 929.54,-143 928.35,-142.48 927.13,-141.94 925.9,-141.39"/>
<polygon fill="midnightblue" stroke="midnightblue" points="927.05,-138.07 916.5,-137.09 924.14,-144.44 927.05,-138.07"/>
</g>
<!-- Node7&#45;&gt;Node4 -->
<g id="edge14" class="edge">
<title>Node7&#45;&gt;Node4</title>
<path fill="none" stroke="midnightblue" d="M1029.66,-179.48C1017.58,-170.02 997.88,-154.6 983.3,-143.19"/>
<polygon fill="midnightblue" stroke="midnightblue" points="985.44,-140.42 975.41,-137.01 981.13,-145.93 985.44,-140.42"/>
</g>
<!-- Node7&#45;&gt;Node8 -->
<g id="edge7" class="edge">
<title>Node7&#45;&gt;Node8</title>
<path fill="none" stroke="midnightblue" d="M1098.26,-179.49C1122.13,-173.17 1148.22,-162.16 1165.54,-143 1179.63,-127.43 1183.63,-103 1184.6,-86.06"/>
<polygon fill="midnightblue" stroke="midnightblue" points="1188.1,-85.81 1184.86,-75.73 1181.11,-85.63 1188.1,-85.81"/>
</g>
<!-- Node9 -->
<g id="node9" class="node">
<title>Node9</title>
<g id="a_node9"><a xlink:href="GameObject_8hpp.html" target="_top" xlink:title=" ">
<polygon fill="white" stroke="black" points="404.04,-56.5 404.04,-75.5 537.04,-75.5 537.04,-56.5 404.04,-56.5"/>
<text text-anchor="middle" x="470.54" y="-63.5" font-family="Helvetica,sans-Serif" font-size="10.00">Common/GameObject.hpp</text>
</a>
</g>
</g>
<!-- Node7&#45;&gt;Node9 -->
<g id="edge9" class="edge">
<title>Node7&#45;&gt;Node9</title>
<path fill="none" stroke="midnightblue" d="M1038.65,-179.08C1034.64,-162.64 1023.61,-127.79 999.54,-112 962.63,-87.79 684.7,-74.61 547.16,-69.52"/>
<polygon fill="midnightblue" stroke="midnightblue" points="547.23,-66.02 537.11,-69.15 546.97,-73.01 547.23,-66.02"/>
</g>
<!-- Node10 -->
<g id="node10" class="node">
<title>Node10</title>
<g id="a_node10"><a xlink:href="Module_8hpp.html" target="_top" xlink:title=" ">
<polygon fill="white" stroke="black" points="1046.54,-118 1046.54,-137 1156.54,-137 1156.54,-118 1046.54,-118"/>
<text text-anchor="middle" x="1101.54" y="-125" font-family="Helvetica,sans-Serif" font-size="10.00">Common/Module.hpp</text>
</a>
</g>
</g>
<!-- Node7&#45;&gt;Node10 -->
<g id="edge10" class="edge">
<title>Node7&#45;&gt;Node10</title>
<path fill="none" stroke="midnightblue" d="M1049.28,-179.48C1058.71,-170.28 1073.91,-155.46 1085.49,-144.16"/>
<polygon fill="midnightblue" stroke="midnightblue" points="1088.11,-146.5 1092.82,-137.01 1083.22,-141.49 1088.11,-146.5"/>
</g>
<!-- Node11 -->
<g id="node11" class="node">
<title>Node11</title>
<g id="a_node11"><a xlink:href="Event_8hpp.html" target="_top" xlink:title=" ">
<polygon fill="white" stroke="black" points="754.54,-118 754.54,-137 858.54,-137 858.54,-118 754.54,-118"/>
<text text-anchor="middle" x="806.54" y="-125" font-family="Helvetica,sans-Serif" font-size="10.00">Common/Event.hpp</text>
</a>
</g>
</g>
<!-- Node7&#45;&gt;Node11 -->
<g id="edge12" class="edge">
<title>Node7&#45;&gt;Node11</title>
<path fill="none" stroke="midnightblue" d="M1007.02,-179.48C965.66,-168.96 895.27,-151.06 849.86,-139.51"/>
<polygon fill="midnightblue" stroke="midnightblue" points="850.56,-136.08 840.01,-137.01 848.84,-142.87 850.56,-136.08"/>
</g>
<!-- Node8&#45;&gt;Node2 -->
<g id="edge8" class="edge">
<title>Node8&#45;&gt;Node2</title>
<path fill="none" stroke="midnightblue" d="M1127.72,-61.78C948.26,-51.63 397.41,-20.45 261.23,-12.74"/>
<polygon fill="midnightblue" stroke="midnightblue" points="261.28,-9.23 251.1,-12.16 260.88,-16.22 261.28,-9.23"/>
</g>
<!-- Node10&#45;&gt;Node8 -->
<g id="edge11" class="edge">
<title>Node10&#45;&gt;Node8</title>
<path fill="none" stroke="midnightblue" d="M1113.44,-117.98C1126.75,-108.43 1148.54,-92.81 1164.5,-81.37"/>
<polygon fill="midnightblue" stroke="midnightblue" points="1166.59,-84.18 1172.67,-75.51 1162.51,-78.49 1166.59,-84.18"/>
</g>
<!-- Node12&#45;&gt;Node4 -->
<g id="edge31" class="edge">
<title>Node12&#45;&gt;Node4</title>
<path fill="none" stroke="midnightblue" d="M678.67,-183.19C745.04,-177.56 845.15,-165.94 929.54,-143 931.99,-142.34 934.49,-141.54 936.97,-140.68"/>
<polygon fill="midnightblue" stroke="midnightblue" points="938.25,-143.94 946.32,-137.08 935.73,-137.4 938.25,-143.94"/>
</g>
<!-- Node12&#45;&gt;Node10 -->
<g id="edge16" class="edge">
<title>Node12&#45;&gt;Node10</title>
<path fill="none" stroke="midnightblue" d="M678.6,-180.26C757.75,-171.74 887.72,-157.33 999.54,-143 1011.46,-141.47 1024.15,-139.75 1036.39,-138.03"/>
<polygon fill="midnightblue" stroke="midnightblue" points="1037.12,-141.47 1046.53,-136.6 1036.14,-134.54 1037.12,-141.47"/>
</g>
<!-- Node12&#45;&gt;Node11 -->
<g id="edge29" class="edge">
<title>Node12&#45;&gt;Node11</title>
<path fill="none" stroke="midnightblue" d="M634.34,-179.48C669.42,-169.09 728.81,-151.51 767.85,-139.95"/>
<polygon fill="midnightblue" stroke="midnightblue" points="769.2,-143.2 777.8,-137.01 767.22,-136.49 769.2,-143.2"/>
</g>
<!-- Node13 -->
<g id="node13" class="node">
<title>Node13</title>
<g id="a_node13"><a xlink:href="LineObject_8hpp.html" target="_top" xlink:title=" ">
<polygon fill="white" stroke="black" points="343.04,-112.5 343.04,-142.5 462.04,-142.5 462.04,-112.5 343.04,-112.5"/>
<text text-anchor="start" x="351.04" y="-130.5" font-family="Helvetica,sans-Serif" font-size="10.00">Common/GameObjects</text>
<text text-anchor="middle" x="402.54" y="-119.5" font-family="Helvetica,sans-Serif" font-size="10.00">/LineObject.hpp</text>
</a>
</g>
</g>
<!-- Node12&#45;&gt;Node13 -->
<g id="edge17" class="edge">
<title>Node12&#45;&gt;Node13</title>
<path fill="none" stroke="midnightblue" d="M576.46,-179.48C546.27,-170.63 498.24,-156.55 460.3,-145.43"/>
<polygon fill="midnightblue" stroke="midnightblue" points="460.97,-141.98 450.39,-142.52 459,-148.69 460.97,-141.98"/>
</g>
<!-- Node14 -->
<g id="node14" class="node">
<title>Node14</title>
<g id="a_node14"><a xlink:href="RectangleObject_8hpp.html" target="_top" xlink:title=" ">
<polygon fill="white" stroke="black" points="480.04,-112.5 480.04,-142.5 599.04,-142.5 599.04,-112.5 480.04,-112.5"/>
<text text-anchor="start" x="488.04" y="-130.5" font-family="Helvetica,sans-Serif" font-size="10.00">Common/GameObjects</text>
<text text-anchor="middle" x="539.54" y="-119.5" font-family="Helvetica,sans-Serif" font-size="10.00">/RectangleObject.hpp</text>
</a>
</g>
</g>
<!-- Node12&#45;&gt;Node14 -->
<g id="edge19" class="edge">
<title>Node12&#45;&gt;Node14</title>
<path fill="none" stroke="midnightblue" d="M596.09,-179.48C587.4,-171.64 574.17,-159.71 562.69,-149.37"/>
<polygon fill="midnightblue" stroke="midnightblue" points="564.87,-146.62 555.1,-142.52 560.18,-151.82 564.87,-146.62"/>
</g>
<!-- Node15 -->
<g id="node15" class="node">
<title>Node15</title>
<g id="a_node15"><a xlink:href="CircleObject_8hpp.html" target="_top" xlink:title=" ">
<polygon fill="white" stroke="black" points="617.04,-112.5 617.04,-142.5 736.04,-142.5 736.04,-112.5 617.04,-112.5"/>
<text text-anchor="start" x="625.04" y="-130.5" font-family="Helvetica,sans-Serif" font-size="10.00">Common/GameObjects</text>
<text text-anchor="middle" x="676.54" y="-119.5" font-family="Helvetica,sans-Serif" font-size="10.00">/CircleObject.hpp</text>
</a>
</g>
</g>
<!-- Node12&#45;&gt;Node15 -->
<g id="edge21" class="edge">
<title>Node12&#45;&gt;Node15</title>
<path fill="none" stroke="midnightblue" d="M615.72,-179.48C625.15,-171.57 639.57,-159.48 652,-149.07"/>
<polygon fill="midnightblue" stroke="midnightblue" points="654.39,-151.63 659.81,-142.52 649.9,-146.26 654.39,-151.63"/>
</g>
<!-- Node16 -->
<g id="node16" class="node">
<title>Node16</title>
<g id="a_node16"><a xlink:href="SpriteObject_8hpp.html" target="_top" xlink:title=" ">
<polygon fill="white" stroke="black" points="69.04,-112.5 69.04,-142.5 188.04,-142.5 188.04,-112.5 69.04,-112.5"/>
<text text-anchor="start" x="77.04" y="-130.5" font-family="Helvetica,sans-Serif" font-size="10.00">Common/GameObjects</text>
<text text-anchor="middle" x="128.54" y="-119.5" font-family="Helvetica,sans-Serif" font-size="10.00">/SpriteObject.hpp</text>
</a>
</g>
</g>
<!-- Node12&#45;&gt;Node16 -->
<g id="edge23" class="edge">
<title>Node12&#45;&gt;Node16</title>
<path fill="none" stroke="midnightblue" d="M532.47,-182.19C452.58,-175.34 320.62,-162.54 198.12,-143.16"/>
<polygon fill="midnightblue" stroke="midnightblue" points="198.61,-139.7 188.18,-141.57 197.51,-146.61 198.61,-139.7"/>
</g>
<!-- Node17 -->
<g id="node17" class="node">
<title>Node17</title>
<g id="a_node17"><a xlink:href="TextObject_8hpp.html" target="_top" xlink:title=" ">
<polygon fill="white" stroke="black" points="206.04,-112.5 206.04,-142.5 325.04,-142.5 325.04,-112.5 206.04,-112.5"/>
<text text-anchor="start" x="214.04" y="-130.5" font-family="Helvetica,sans-Serif" font-size="10.00">Common/GameObjects</text>
<text text-anchor="middle" x="265.54" y="-119.5" font-family="Helvetica,sans-Serif" font-size="10.00">/TextObject.hpp</text>
</a>
</g>
</g>
<!-- Node12&#45;&gt;Node17 -->
<g id="edge26" class="edge">
<title>Node12&#45;&gt;Node17</title>
<path fill="none" stroke="midnightblue" d="M549.41,-179.49C496.58,-171.3 415,-158.21 335.41,-143.31"/>
<polygon fill="midnightblue" stroke="midnightblue" points="335.69,-139.8 325.22,-141.39 334.4,-146.68 335.69,-139.8"/>
</g>
<!-- Node18 -->
<g id="node18" class="node">
<title>Node18</title>
<g id="a_node18"><a xlink:title=" ">
<polygon fill="white" stroke="#bfbfbf" points="22.04,-118 22.04,-137 51.04,-137 51.04,-118 22.04,-118"/>
<text text-anchor="middle" x="36.54" y="-125" font-family="Helvetica,sans-Serif" font-size="10.00">list</text>
</a>
</g>
</g>
<!-- Node12&#45;&gt;Node18 -->
<g id="edge30" class="edge">
<title>Node12&#45;&gt;Node18</title>
<path fill="none" stroke="midnightblue" d="M532.47,-186.28C404.49,-182.55 145.25,-171.63 59.54,-143 58.64,-142.7 57.74,-142.36 56.85,-141.98"/>
<polygon fill="midnightblue" stroke="midnightblue" points="58.16,-138.71 47.7,-137.03 54.83,-144.87 58.16,-138.71"/>
</g>
<!-- Node13&#45;&gt;Node9 -->
<g id="edge18" class="edge">
<title>Node13&#45;&gt;Node9</title>
<path fill="none" stroke="midnightblue" d="M418.66,-112.4C428.95,-103.4 442.29,-91.72 452.87,-82.47"/>
<polygon fill="midnightblue" stroke="midnightblue" points="455.43,-84.88 460.65,-75.66 450.82,-79.61 455.43,-84.88"/>
</g>
<!-- Node14&#45;&gt;Node9 -->
<g id="edge20" class="edge">
<title>Node14&#45;&gt;Node9</title>
<path fill="none" stroke="midnightblue" d="M523.19,-112.4C512.65,-103.31 498.94,-91.49 488.16,-82.19"/>
<polygon fill="midnightblue" stroke="midnightblue" points="490.44,-79.54 480.58,-75.66 485.87,-84.84 490.44,-79.54"/>
</g>
<!-- Node15&#45;&gt;Node9 -->
<g id="edge22" class="edge">
<title>Node15&#45;&gt;Node9</title>
<path fill="none" stroke="midnightblue" d="M627.99,-112.47C591.98,-102.08 543.52,-88.08 509.92,-78.37"/>
<polygon fill="midnightblue" stroke="midnightblue" points="510.57,-74.92 499.99,-75.51 508.63,-81.64 510.57,-74.92"/>
</g>
<!-- Node16&#45;&gt;Node2 -->
<g id="edge25" class="edge">
<title>Node16&#45;&gt;Node2</title>
<path fill="none" stroke="midnightblue" d="M141.05,-112.34C160.01,-90.86 195.95,-50.17 216.03,-27.43"/>
<polygon fill="midnightblue" stroke="midnightblue" points="218.89,-29.48 222.89,-19.67 213.64,-24.85 218.89,-29.48"/>
</g>
<!-- Node16&#45;&gt;Node9 -->
<g id="edge24" class="edge">
<title>Node16&#45;&gt;Node9</title>
<path fill="none" stroke="midnightblue" d="M188.22,-113.61C191.03,-113.05 193.82,-112.51 196.54,-112 267.01,-98.71 348.09,-85.67 403.66,-77.08"/>
<polygon fill="midnightblue" stroke="midnightblue" points="404.38,-80.51 413.73,-75.53 403.32,-73.59 404.38,-80.51"/>
</g>
<!-- Node17&#45;&gt;Node2 -->
<g id="edge28" class="edge">
<title>Node17&#45;&gt;Node2</title>
<path fill="none" stroke="midnightblue" d="M261.25,-112.34C254.92,-91.43 243.06,-52.31 236.08,-29.27"/>
<polygon fill="midnightblue" stroke="midnightblue" points="239.42,-28.22 233.17,-19.67 232.72,-30.25 239.42,-28.22"/>
</g>
<!-- Node17&#45;&gt;Node9 -->
<g id="edge27" class="edge">
<title>Node17&#45;&gt;Node9</title>
<path fill="none" stroke="midnightblue" d="M313.87,-112.47C349.7,-102.08 397.92,-88.08 431.36,-78.37"/>
<polygon fill="midnightblue" stroke="midnightblue" points="432.61,-81.66 441.24,-75.51 430.66,-74.93 432.61,-81.66"/>
</g>
<!-- Node19&#45;&gt;Node4 -->
<g id="edge37" class="edge">
<title>Node19&#45;&gt;Node4</title>
<path fill="none" stroke="midnightblue" d="M1250.84,-180.66C1199.65,-171.99 1112.35,-156.98 1037.54,-143 1025.56,-140.76 1012.49,-138.2 1000.77,-135.86"/>
<polygon fill="midnightblue" stroke="midnightblue" points="1001.36,-132.41 990.87,-133.88 999.99,-139.28 1001.36,-132.41"/>
</g>
<!-- Node19&#45;&gt;Node8 -->
<g id="edge34" class="edge">
<title>Node19&#45;&gt;Node8</title>
<path fill="none" stroke="midnightblue" d="M1288.65,-179.11C1278.73,-164.42 1257.69,-134.49 1236.54,-112 1226.45,-101.26 1214,-90.42 1203.81,-82.07"/>
<polygon fill="midnightblue" stroke="midnightblue" points="1205.88,-79.23 1195.89,-75.69 1201.49,-84.69 1205.88,-79.23"/>
</g>
<!-- Node19&#45;&gt;Node10 -->
<g id="edge33" class="edge">
<title>Node19&#45;&gt;Node10</title>
<path fill="none" stroke="midnightblue" d="M1266.89,-179.48C1233.36,-169.14 1176.67,-151.66 1139.18,-140.1"/>
<polygon fill="midnightblue" stroke="midnightblue" points="1139.73,-136.61 1129.14,-137.01 1137.67,-143.3 1139.73,-136.61"/>
</g>
<!-- Node20 -->
<g id="node20" class="node">
<title>Node20</title>
<g id="a_node20"><a xlink:href="InvalidLibraryException_8hpp.html" target="_top" xlink:title=" ">
<polygon fill="white" stroke="black" points="1288.54,-112.5 1288.54,-142.5 1414.54,-142.5 1414.54,-112.5 1288.54,-112.5"/>
<text text-anchor="start" x="1296.54" y="-130.5" font-family="Helvetica,sans-Serif" font-size="10.00">Exceptions/InvalidLibrary</text>
<text text-anchor="middle" x="1351.54" y="-119.5" font-family="Helvetica,sans-Serif" font-size="10.00">Exception.hpp</text>
</a>
</g>
</g>
<!-- Node19&#45;&gt;Node20 -->
<g id="edge35" class="edge">
<title>Node19&#45;&gt;Node20</title>
<path fill="none" stroke="midnightblue" d="M1302.71,-179.48C1310.07,-171.79 1321.2,-160.17 1330.98,-149.96"/>
<polygon fill="midnightblue" stroke="midnightblue" points="1333.72,-152.17 1338.11,-142.52 1328.67,-147.32 1333.72,-152.17"/>
</g>
<!-- Node22 -->
<g id="node22" class="node">
<title>Node22</title>
<g id="a_node22"><a xlink:title=" ">
<polygon fill="white" stroke="#bfbfbf" points="1432.54,-118 1432.54,-137 1478.54,-137 1478.54,-118 1432.54,-118"/>
<text text-anchor="middle" x="1455.54" y="-125" font-family="Helvetica,sans-Serif" font-size="10.00">dlfcn.h</text>
</a>
</g>
</g>
<!-- Node19&#45;&gt;Node22 -->
<g id="edge38" class="edge">
<title>Node19&#45;&gt;Node22</title>
<path fill="none" stroke="midnightblue" d="M1321.49,-179.38C1347.76,-170.8 1388.75,-156.92 1423.54,-143 1424.96,-142.43 1426.4,-141.84 1427.86,-141.23"/>
<polygon fill="midnightblue" stroke="midnightblue" points="1429.63,-144.28 1437.39,-137.07 1426.82,-137.86 1429.63,-144.28"/>
</g>
<!-- Node21 -->
<g id="node21" class="node">
<title>Node21</title>
<g id="a_node21"><a xlink:title=" ">
<polygon fill="white" stroke="#bfbfbf" points="1322.04,-56.5 1322.04,-75.5 1381.04,-75.5 1381.04,-56.5 1322.04,-56.5"/>
<text text-anchor="middle" x="1351.54" y="-63.5" font-family="Helvetica,sans-Serif" font-size="10.00">stdexcept</text>
</a>
</g>
</g>
<!-- Node20&#45;&gt;Node21 -->
<g id="edge36" class="edge">
<title>Node20&#45;&gt;Node21</title>
<path fill="none" stroke="midnightblue" d="M1351.54,-112.4C1351.54,-104.47 1351.54,-94.46 1351.54,-85.86"/>
<polygon fill="midnightblue" stroke="midnightblue" points="1355.04,-85.66 1351.54,-75.66 1348.04,-85.66 1355.04,-85.66"/>
</g>
</g>
</svg>
