<?xml version="1.0" encoding="UTF-8" standalone="no"?>
<!DOCTYPE svg PUBLIC "-//W3C//DTD SVG 1.1//EN"
 "http://www.w3.org/Graphics/SVG/1.1/DTD/svg11.dtd">
<!-- Generated by graphviz version 2.46.1 (0)
 -->
<!-- Title: sources/DisplayModules/SDLDisplay.hpp Pages: 1 -->
<svg width="1547pt" height="274pt"
 viewBox="0.00 0.00 1546.50 274.00" xmlns="http://www.w3.org/2000/svg" xmlns:xlink="http://www.w3.org/1999/xlink">
<g id="graph0" class="graph" transform="scale(1 1) rotate(0) translate(4 270)">
<title>sources/DisplayModules/SDLDisplay.hpp</title>
<polygon fill="white" stroke="transparent" points="-4,4 -4,-270 1542.5,-270 1542.5,4 -4,4"/>
<!-- Node1 -->
<g id="node1" class="node">
<title>Node1</title>
<g id="a_node1"><a xlink:title=" ">
<polygon fill="#bfbfbf" stroke="black" points="986,-235.5 986,-265.5 1110,-265.5 1110,-235.5 986,-235.5"/>
<text text-anchor="start" x="994" y="-253.5" font-family="Helvetica,sans-Serif" font-size="10.00">sources/DisplayModules</text>
<text text-anchor="middle" x="1048" y="-242.5" font-family="Helvetica,sans-Serif" font-size="10.00">/SDLDisplay.hpp</text>
</a>
</g>
</g>
<!-- Node2 -->
<g id="node2" class="node">
<title>Node2</title>
<g id="a_node2"><a xlink:title=" ">
<polygon fill="white" stroke="#bfbfbf" points="528,-179.5 528,-198.5 600,-198.5 600,-179.5 528,-179.5"/>
<text text-anchor="middle" x="564" y="-186.5" font-family="Helvetica,sans-Serif" font-size="10.00">SDL2/SDL.h</text>
</a>
</g>
</g>
<!-- Node1&#45;&gt;Node2 -->
<g id="edge1" class="edge">
<title>Node1&#45;&gt;Node2</title>
<path fill="none" stroke="midnightblue" d="M985.98,-244C902.75,-236.25 750.13,-220.78 610.34,-199.1"/>
<polygon fill="midnightblue" stroke="midnightblue" points="610.72,-195.62 600.3,-197.53 609.64,-202.53 610.72,-195.62"/>
</g>
<!-- Node3 -->
<g id="node3" class="node">
<title>Node3</title>
<g id="a_node3"><a xlink:title=" ">
<polygon fill="white" stroke="#bfbfbf" points="589.5,-0.5 589.5,-19.5 630.5,-19.5 630.5,-0.5 589.5,-0.5"/>
<text text-anchor="middle" x="610" y="-7.5" font-family="Helvetica,sans-Serif" font-size="10.00">string</text>
</a>
</g>
</g>
<!-- Node1&#45;&gt;Node3 -->
<g id="edge2" class="edge">
<title>Node1&#45;&gt;Node3</title>
<path fill="none" stroke="midnightblue" d="M1013.63,-235.35C996.37,-226.87 976.17,-214.66 962,-199 933.45,-167.44 953.81,-140.27 922,-112 839.09,-38.33 701.7,-18.3 640.75,-12.93"/>
<polygon fill="midnightblue" stroke="midnightblue" points="640.88,-9.42 630.63,-12.11 640.31,-16.4 640.88,-9.42"/>
</g>
<!-- Node4 -->
<g id="node4" class="node">
<title>Node4</title>
<g id="a_node4"><a xlink:href="IDisplayModule_8hpp.html" target="_top" xlink:title=" ">
<polygon fill="white" stroke="black" points="618,-179.5 618,-198.5 764,-198.5 764,-179.5 618,-179.5"/>
<text text-anchor="middle" x="691" y="-186.5" font-family="Helvetica,sans-Serif" font-size="10.00">Common/IDisplayModule.hpp</text>
</a>
</g>
</g>
<!-- Node1&#45;&gt;Node4 -->
<g id="edge3" class="edge">
<title>Node1&#45;&gt;Node4</title>
<path fill="none" stroke="midnightblue" d="M985.82,-239.14C920.2,-228.2 817.46,-211.08 752.22,-200.2"/>
<polygon fill="midnightblue" stroke="midnightblue" points="752.52,-196.7 742.08,-198.51 751.37,-203.61 752.52,-196.7"/>
</g>
<!-- Node16 -->
<g id="node16" class="node">
<title>Node16</title>
<g id="a_node16"><a xlink:href="ClickEvent_8hpp.html" target="_top" xlink:title=" ">
<polygon fill="white" stroke="black" points="1325,-179.5 1325,-198.5 1485,-198.5 1485,-179.5 1325,-179.5"/>
<text text-anchor="middle" x="1405" y="-186.5" font-family="Helvetica,sans-Serif" font-size="10.00">Common/Events/ClickEvent.hpp</text>
</a>
</g>
</g>
<!-- Node1&#45;&gt;Node16 -->
<g id="edge22" class="edge">
<title>Node1&#45;&gt;Node16</title>
<path fill="none" stroke="midnightblue" d="M1110.18,-239.14C1175.8,-228.2 1278.54,-211.08 1343.78,-200.2"/>
<polygon fill="midnightblue" stroke="midnightblue" points="1344.63,-203.61 1353.92,-198.51 1343.48,-196.7 1344.63,-203.61"/>
</g>
<!-- Node17 -->
<g id="node17" class="node">
<title>Node17</title>
<g id="a_node17"><a xlink:href="KeyEvent_8hpp.html" target="_top" xlink:title=" ">
<polygon fill="white" stroke="black" points="970.5,-179.5 970.5,-198.5 1125.5,-198.5 1125.5,-179.5 970.5,-179.5"/>
<text text-anchor="middle" x="1048" y="-186.5" font-family="Helvetica,sans-Serif" font-size="10.00">Common/Events/KeyEvent.hpp</text>
</a>
</g>
</g>
<!-- Node1&#45;&gt;Node17 -->
<g id="edge24" class="edge">
<title>Node1&#45;&gt;Node17</title>
<path fill="none" stroke="midnightblue" d="M1048,-235.4C1048,-227.47 1048,-217.46 1048,-208.86"/>
<polygon fill="midnightblue" stroke="midnightblue" points="1051.5,-208.66 1048,-198.66 1044.5,-208.66 1051.5,-208.66"/>
</g>
<!-- Node18 -->
<g id="node18" class="node">
<title>Node18</title>
<g id="a_node18"><a xlink:href="CloseEvent_8hpp.html" target="_top" xlink:title=" ">
<polygon fill="white" stroke="black" points="1143.5,-179.5 1143.5,-198.5 1306.5,-198.5 1306.5,-179.5 1143.5,-179.5"/>
<text text-anchor="middle" x="1225" y="-186.5" font-family="Helvetica,sans-Serif" font-size="10.00">Common/Events/CloseEvent.hpp</text>
</a>
</g>
</g>
<!-- Node1&#45;&gt;Node18 -->
<g id="edge26" class="edge">
<title>Node1&#45;&gt;Node18</title>
<path fill="none" stroke="midnightblue" d="M1089.95,-235.4C1120.4,-225.16 1161.13,-211.47 1189.87,-201.81"/>
<polygon fill="midnightblue" stroke="midnightblue" points="1191.14,-205.07 1199.5,-198.57 1188.91,-198.44 1191.14,-205.07"/>
</g>
<!-- Node19 -->
<g id="node19" class="node">
<title>Node19</title>
<g id="a_node19"><a xlink:title=" ">
<polygon fill="white" stroke="#bfbfbf" points="1503.5,-179.5 1503.5,-198.5 1538.5,-198.5 1538.5,-179.5 1503.5,-179.5"/>
<text text-anchor="middle" x="1521" y="-186.5" font-family="Helvetica,sans-Serif" font-size="10.00">map</text>
</a>
</g>
</g>
<!-- Node1&#45;&gt;Node19 -->
<g id="edge28" class="edge">
<title>Node1&#45;&gt;Node19</title>
<path fill="none" stroke="midnightblue" d="M1110.36,-246.56C1195.17,-241.64 1351.58,-229.37 1493.26,-198.68"/>
<polygon fill="midnightblue" stroke="midnightblue" points="1494.42,-202.01 1503.43,-196.44 1492.91,-195.18 1494.42,-202.01"/>
</g>
<!-- Node5 -->
<g id="node5" class="node">
<title>Node5</title>
<g id="a_node5"><a xlink:href="Module_8hpp.html" target="_top" xlink:title=" ">
<polygon fill="white" stroke="black" points="0,-118 0,-137 110,-137 110,-118 0,-118"/>
<text text-anchor="middle" x="55" y="-125" font-family="Helvetica,sans-Serif" font-size="10.00">Common/Module.hpp</text>
</a>
</g>
</g>
<!-- Node4&#45;&gt;Node5 -->
<g id="edge4" class="edge">
<title>Node4&#45;&gt;Node5</title>
<path fill="none" stroke="midnightblue" d="M617.7,-179.82C614.76,-179.54 611.85,-179.26 609,-179 391.55,-159.08 334.98,-175.22 119,-143 112.26,-141.99 105.18,-140.67 98.28,-139.23"/>
<polygon fill="midnightblue" stroke="midnightblue" points="98.89,-135.77 88.37,-137.05 97.39,-142.61 98.89,-135.77"/>
</g>
<!-- Node7 -->
<g id="node7" class="node">
<title>Node7</title>
<g id="a_node7"><a xlink:href="LineObject_8hpp.html" target="_top" xlink:title=" ">
<polygon fill="white" stroke="black" points="265.5,-112.5 265.5,-142.5 384.5,-142.5 384.5,-112.5 265.5,-112.5"/>
<text text-anchor="start" x="273.5" y="-130.5" font-family="Helvetica,sans-Serif" font-size="10.00">Common/GameObjects</text>
<text text-anchor="middle" x="325" y="-119.5" font-family="Helvetica,sans-Serif" font-size="10.00">/LineObject.hpp</text>
</a>
</g>
</g>
<!-- Node4&#45;&gt;Node7 -->
<g id="edge7" class="edge">
<title>Node4&#45;&gt;Node7</title>
<path fill="none" stroke="midnightblue" d="M627.16,-179.49C568.94,-171.48 480.31,-158.63 394.56,-143.23"/>
<polygon fill="midnightblue" stroke="midnightblue" points="395.13,-139.77 384.66,-141.43 393.88,-146.66 395.13,-139.77"/>
</g>
<!-- Node9 -->
<g id="node9" class="node">
<title>Node9</title>
<g id="a_node9"><a xlink:href="RectangleObject_8hpp.html" target="_top" xlink:title=" ">
<polygon fill="white" stroke="black" points="402.5,-112.5 402.5,-142.5 521.5,-142.5 521.5,-112.5 402.5,-112.5"/>
<text text-anchor="start" x="410.5" y="-130.5" font-family="Helvetica,sans-Serif" font-size="10.00">Common/GameObjects</text>
<text text-anchor="middle" x="462" y="-119.5" font-family="Helvetica,sans-Serif" font-size="10.00">/RectangleObject.hpp</text>
</a>
</g>
</g>
<!-- Node4&#45;&gt;Node9 -->
<g id="edge9" class="edge">
<title>Node4&#45;&gt;Node9</title>
<path fill="none" stroke="midnightblue" d="M658.19,-179.48C623.77,-170.53 568.8,-156.25 525.79,-145.07"/>
<polygon fill="midnightblue" stroke="midnightblue" points="526.53,-141.65 515.97,-142.52 524.77,-148.43 526.53,-141.65"/>
</g>
<!-- Node10 -->
<g id="node10" class="node">
<title>Node10</title>
<g id="a_node10"><a xlink:href="CircleObject_8hpp.html" target="_top" xlink:title=" ">
<polygon fill="white" stroke="black" points="539.5,-112.5 539.5,-142.5 658.5,-142.5 658.5,-112.5 539.5,-112.5"/>
<text text-anchor="start" x="547.5" y="-130.5" font-family="Helvetica,sans-Serif" font-size="10.00">Common/GameObjects</text>
<text text-anchor="middle" x="599" y="-119.5" font-family="Helvetica,sans-Serif" font-size="10.00">/CircleObject.hpp</text>
</a>
</g>
</g>
<!-- Node4&#45;&gt;Node10 -->
<g id="edge11" class="edge">
<title>Node4&#45;&gt;Node10</title>
<path fill="none" stroke="midnightblue" d="M677.82,-179.48C665.24,-171.34 645.84,-158.79 629.43,-148.18"/>
<polygon fill="midnightblue" stroke="midnightblue" points="630.98,-145.01 620.68,-142.52 627.18,-150.89 630.98,-145.01"/>
</g>
<!-- Node11 -->
<g id="node11" class="node">
<title>Node11</title>
<g id="a_node11"><a xlink:href="SpriteObject_8hpp.html" target="_top" xlink:title=" ">
<polygon fill="white" stroke="black" points="794.5,-112.5 794.5,-142.5 913.5,-142.5 913.5,-112.5 794.5,-112.5"/>
<text text-anchor="start" x="802.5" y="-130.5" font-family="Helvetica,sans-Serif" font-size="10.00">Common/GameObjects</text>
<text text-anchor="middle" x="854" y="-119.5" font-family="Helvetica,sans-Serif" font-size="10.00">/SpriteObject.hpp</text>
</a>
</g>
</g>
<!-- Node4&#45;&gt;Node11 -->
<g id="edge13" class="edge">
<title>Node4&#45;&gt;Node11</title>
<path fill="none" stroke="midnightblue" d="M714.35,-179.48C738.18,-170.78 775.85,-157.03 806.06,-146"/>
<polygon fill="midnightblue" stroke="midnightblue" points="807.39,-149.24 815.58,-142.52 804.99,-142.66 807.39,-149.24"/>
</g>
<!-- Node12 -->
<g id="node12" class="node">
<title>Node12</title>
<g id="a_node12"><a xlink:href="TextObject_8hpp.html" target="_top" xlink:title=" ">
<polygon fill="white" stroke="black" points="128.5,-112.5 128.5,-142.5 247.5,-142.5 247.5,-112.5 128.5,-112.5"/>
<text text-anchor="start" x="136.5" y="-130.5" font-family="Helvetica,sans-Serif" font-size="10.00">Common/GameObjects</text>
<text text-anchor="middle" x="188" y="-119.5" font-family="Helvetica,sans-Serif" font-size="10.00">/TextObject.hpp</text>
</a>
</g>
</g>
<!-- Node4&#45;&gt;Node12 -->
<g id="edge16" class="edge">
<title>Node4&#45;&gt;Node12</title>
<path fill="none" stroke="midnightblue" d="M617.69,-179.93C614.75,-179.61 611.85,-179.3 609,-179 455.39,-162.74 413.5,-167.28 257.58,-143.15"/>
<polygon fill="midnightblue" stroke="midnightblue" points="258.06,-139.68 247.64,-141.6 256.98,-146.6 258.06,-139.68"/>
</g>
<!-- Node13 -->
<g id="node13" class="node">
<title>Node13</title>
<g id="a_node13"><a xlink:href="Event_8hpp.html" target="_top" xlink:title=" ">
<polygon fill="white" stroke="black" points="1085,-118 1085,-137 1189,-137 1189,-118 1085,-118"/>
<text text-anchor="middle" x="1137" y="-125" font-family="Helvetica,sans-Serif" font-size="10.00">Common/Event.hpp</text>
</a>
</g>
</g>
<!-- Node4&#45;&gt;Node13 -->
<g id="edge19" class="edge">
<title>Node4&#45;&gt;Node13</title>
<path fill="none" stroke="midnightblue" d="M754.9,-179.48C840.19,-168.1 990.28,-148.07 1074.73,-136.81"/>
<polygon fill="midnightblue" stroke="midnightblue" points="1075.25,-140.27 1084.7,-135.48 1074.32,-133.33 1075.25,-140.27"/>
</g>
<!-- Node14 -->
<g id="node14" class="node">
<title>Node14</title>
<g id="a_node14"><a xlink:title=" ">
<polygon fill="white" stroke="#bfbfbf" points="676.5,-118 676.5,-137 705.5,-137 705.5,-118 676.5,-118"/>
<text text-anchor="middle" x="691" y="-125" font-family="Helvetica,sans-Serif" font-size="10.00">list</text>
</a>
</g>
</g>
<!-- Node4&#45;&gt;Node14 -->
<g id="edge20" class="edge">
<title>Node4&#45;&gt;Node14</title>
<path fill="none" stroke="midnightblue" d="M691,-179.48C691,-171.08 691,-157.98 691,-147.16"/>
<polygon fill="midnightblue" stroke="midnightblue" points="694.5,-147.01 691,-137.01 687.5,-147.01 694.5,-147.01"/>
</g>
<!-- Node15 -->
<g id="node15" class="node">
<title>Node15</title>
<g id="a_node15"><a xlink:title=" ">
<polygon fill="white" stroke="#bfbfbf" points="724,-118 724,-137 776,-137 776,-118 724,-118"/>
<text text-anchor="middle" x="750" y="-125" font-family="Helvetica,sans-Serif" font-size="10.00">memory</text>
</a>
</g>
</g>
<!-- Node4&#45;&gt;Node15 -->
<g id="edge21" class="edge">
<title>Node4&#45;&gt;Node15</title>
<path fill="none" stroke="midnightblue" d="M699.45,-179.48C708.57,-170.28 723.27,-155.46 734.48,-144.16"/>
<polygon fill="midnightblue" stroke="midnightblue" points="737.01,-146.57 741.56,-137.01 732.04,-141.65 737.01,-146.57"/>
</g>
<!-- Node6 -->
<g id="node6" class="node">
<title>Node6</title>
<g id="a_node6"><a xlink:href="ModInfo_8hpp.html" target="_top" xlink:title=" ">
<polygon fill="white" stroke="black" points="111.5,-56.5 111.5,-75.5 224.5,-75.5 224.5,-56.5 111.5,-56.5"/>
<text text-anchor="middle" x="168" y="-63.5" font-family="Helvetica,sans-Serif" font-size="10.00">Common/ModInfo.hpp</text>
</a>
</g>
</g>
<!-- Node5&#45;&gt;Node6 -->
<g id="edge5" class="edge">
<title>Node5&#45;&gt;Node6</title>
<path fill="none" stroke="midnightblue" d="M71.19,-117.98C89.9,-108.12 120.92,-91.79 142.8,-80.27"/>
<polygon fill="midnightblue" stroke="midnightblue" points="144.62,-83.27 151.84,-75.51 141.36,-77.07 144.62,-83.27"/>
</g>
<!-- Node6&#45;&gt;Node3 -->
<g id="edge6" class="edge">
<title>Node6&#45;&gt;Node3</title>
<path fill="none" stroke="midnightblue" d="M224.88,-58.05C319.55,-46.49 506.27,-23.67 579.5,-14.73"/>
<polygon fill="midnightblue" stroke="midnightblue" points="579.96,-18.2 589.46,-13.51 579.11,-11.25 579.96,-18.2"/>
</g>
<!-- Node8 -->
<g id="node8" class="node">
<title>Node8</title>
<g id="a_node8"><a xlink:href="GameObject_8hpp.html" target="_top" xlink:title=" ">
<polygon fill="white" stroke="black" points="395.5,-56.5 395.5,-75.5 528.5,-75.5 528.5,-56.5 395.5,-56.5"/>
<text text-anchor="middle" x="462" y="-63.5" font-family="Helvetica,sans-Serif" font-size="10.00">Common/GameObject.hpp</text>
</a>
</g>
</g>
<!-- Node7&#45;&gt;Node8 -->
<g id="edge8" class="edge">
<title>Node7&#45;&gt;Node8</title>
<path fill="none" stroke="midnightblue" d="M357.47,-112.4C380.35,-102.46 410.73,-89.26 432.84,-79.66"/>
<polygon fill="midnightblue" stroke="midnightblue" points="434.29,-82.85 442.07,-75.66 431.5,-76.43 434.29,-82.85"/>
</g>
<!-- Node9&#45;&gt;Node8 -->
<g id="edge10" class="edge">
<title>Node9&#45;&gt;Node8</title>
<path fill="none" stroke="midnightblue" d="M462,-112.4C462,-104.47 462,-94.46 462,-85.86"/>
<polygon fill="midnightblue" stroke="midnightblue" points="465.5,-85.66 462,-75.66 458.5,-85.66 465.5,-85.66"/>
</g>
<!-- Node10&#45;&gt;Node8 -->
<g id="edge12" class="edge">
<title>Node10&#45;&gt;Node8</title>
<path fill="none" stroke="midnightblue" d="M566.53,-112.4C543.65,-102.46 513.27,-89.26 491.16,-79.66"/>
<polygon fill="midnightblue" stroke="midnightblue" points="492.5,-76.43 481.93,-75.66 489.71,-82.85 492.5,-76.43"/>
</g>
<!-- Node11&#45;&gt;Node3 -->
<g id="edge15" class="edge">
<title>Node11&#45;&gt;Node3</title>
<path fill="none" stroke="midnightblue" d="M824.08,-112.34C776.2,-89.67 683.09,-45.6 637.07,-23.82"/>
<polygon fill="midnightblue" stroke="midnightblue" points="638.54,-20.64 628,-19.52 635.54,-26.96 638.54,-20.64"/>
</g>
<!-- Node11&#45;&gt;Node8 -->
<g id="edge14" class="edge">
<title>Node11&#45;&gt;Node8</title>
<path fill="none" stroke="midnightblue" d="M794.21,-113.67C791.1,-113.09 788.01,-112.53 785,-112 701.22,-97.38 604.55,-84.42 538.96,-76.21"/>
<polygon fill="midnightblue" stroke="midnightblue" points="539.06,-72.7 528.71,-74.93 538.2,-79.64 539.06,-72.7"/>
</g>
<!-- Node12&#45;&gt;Node3 -->
<g id="edge18" class="edge">
<title>Node12&#45;&gt;Node3</title>
<path fill="none" stroke="midnightblue" d="M222.56,-112.48C261.7,-97.01 327.63,-72.17 386,-56 454.16,-37.12 536.03,-22.71 579.46,-15.7"/>
<polygon fill="midnightblue" stroke="midnightblue" points="580.06,-19.15 589.38,-14.12 578.96,-12.24 580.06,-19.15"/>
</g>
<!-- Node12&#45;&gt;Node8 -->
<g id="edge17" class="edge">
<title>Node12&#45;&gt;Node8</title>
<path fill="none" stroke="midnightblue" d="M247.79,-113.52C297.23,-102.78 366.58,-87.72 412.84,-77.68"/>
<polygon fill="midnightblue" stroke="midnightblue" points="413.6,-81.09 422.63,-75.55 412.12,-74.25 413.6,-81.09"/>
</g>
<!-- Node16&#45;&gt;Node13 -->
<g id="edge23" class="edge">
<title>Node16&#45;&gt;Node13</title>
<path fill="none" stroke="midnightblue" d="M1366.6,-179.48C1318.84,-168.87 1237.26,-150.76 1185.3,-139.22"/>
<polygon fill="midnightblue" stroke="midnightblue" points="1185.85,-135.76 1175.33,-137.01 1184.33,-142.59 1185.85,-135.76"/>
</g>
<!-- Node17&#45;&gt;Node13 -->
<g id="edge25" class="edge">
<title>Node17&#45;&gt;Node13</title>
<path fill="none" stroke="midnightblue" d="M1060.75,-179.48C1075.03,-169.93 1098.4,-154.31 1115.51,-142.87"/>
<polygon fill="midnightblue" stroke="midnightblue" points="1117.9,-145.48 1124.27,-137.01 1114.01,-139.66 1117.9,-145.48"/>
</g>
<!-- Node18&#45;&gt;Node13 -->
<g id="edge27" class="edge">
<title>Node18&#45;&gt;Node13</title>
<path fill="none" stroke="midnightblue" d="M1212.39,-179.48C1198.28,-169.93 1175.17,-154.31 1158.25,-142.87"/>
<polygon fill="midnightblue" stroke="midnightblue" points="1159.83,-139.71 1149.58,-137.01 1155.91,-145.51 1159.83,-139.71"/>
</g>
</g>
</svg>
