<?xml version="1.0" encoding="UTF-8" standalone="no"?>
<!DOCTYPE svg PUBLIC "-//W3C//DTD SVG 1.1//EN"
 "http://www.w3.org/Graphics/SVG/1.1/DTD/svg11.dtd">
<!-- Generated by graphviz version 2.46.1 (0)
 -->
<!-- Title: sources/DisplayModules/SDLDisplay.cpp Pages: 1 -->
<svg width="1354pt" height="330pt"
 viewBox="0.00 0.00 1354.00 330.00" xmlns="http://www.w3.org/2000/svg" xmlns:xlink="http://www.w3.org/1999/xlink">
<g id="graph0" class="graph" transform="scale(1 1) rotate(0) translate(4 326)">
<title>sources/DisplayModules/SDLDisplay.cpp</title>
<polygon fill="white" stroke="transparent" points="-4,4 -4,-326 1350,-326 1350,4 -4,4"/>
<!-- Node1 -->
<g id="node1" class="node">
<title>Node1</title>
<g id="a_node1"><a xlink:title=" ">
<polygon fill="#bfbfbf" stroke="black" points="888.5,-291.5 888.5,-321.5 1012.5,-321.5 1012.5,-291.5 888.5,-291.5"/>
<text text-anchor="start" x="896.5" y="-309.5" font-family="Helvetica,sans-Serif" font-size="10.00">sources/DisplayModules</text>
<text text-anchor="middle" x="950.5" y="-298.5" font-family="Helvetica,sans-Serif" font-size="10.00">/SDLDisplay.cpp</text>
</a>
</g>
</g>
<!-- Node2 -->
<g id="node2" class="node">
<title>Node2</title>
<g id="a_node2"><a xlink:href="SDLDisplay_8hpp.html" target="_top" xlink:title=" ">
<polygon fill="white" stroke="black" points="778.5,-235.5 778.5,-254.5 864.5,-254.5 864.5,-235.5 778.5,-235.5"/>
<text text-anchor="middle" x="821.5" y="-242.5" font-family="Helvetica,sans-Serif" font-size="10.00">SDLDisplay.hpp</text>
</a>
</g>
</g>
<!-- Node1&#45;&gt;Node2 -->
<g id="edge1" class="edge">
<title>Node1&#45;&gt;Node2</title>
<path fill="none" stroke="midnightblue" d="M919.93,-291.4C898.57,-281.55 870.28,-268.5 849.52,-258.92"/>
<polygon fill="midnightblue" stroke="midnightblue" points="850.82,-255.67 840.27,-254.66 847.89,-262.02 850.82,-255.67"/>
</g>
<!-- Node3 -->
<g id="node3" class="node">
<title>Node3</title>
<g id="a_node3"><a xlink:title=" ">
<polygon fill="white" stroke="#bfbfbf" points="484.5,-179.5 484.5,-198.5 556.5,-198.5 556.5,-179.5 484.5,-179.5"/>
<text text-anchor="middle" x="520.5" y="-186.5" font-family="Helvetica,sans-Serif" font-size="10.00">SDL2/SDL.h</text>
</a>
</g>
</g>
<!-- Node1&#45;&gt;Node3 -->
<g id="edge30" class="edge">
<title>Node1&#45;&gt;Node3</title>
<path fill="none" stroke="midnightblue" d="M898.2,-291.45C811.88,-268.27 641.28,-222.44 562.36,-201.24"/>
<polygon fill="midnightblue" stroke="midnightblue" points="562.87,-197.76 552.3,-198.54 561.05,-204.52 562.87,-197.76"/>
</g>
<!-- Node17 -->
<g id="node17" class="node">
<title>Node17</title>
<g id="a_node17"><a xlink:href="ClickEvent_8hpp.html" target="_top" xlink:title=" ">
<polygon fill="white" stroke="black" points="1012.5,-179.5 1012.5,-198.5 1172.5,-198.5 1172.5,-179.5 1012.5,-179.5"/>
<text text-anchor="middle" x="1092.5" y="-186.5" font-family="Helvetica,sans-Serif" font-size="10.00">Common/Events/ClickEvent.hpp</text>
</a>
</g>
</g>
<!-- Node1&#45;&gt;Node17 -->
<g id="edge33" class="edge">
<title>Node1&#45;&gt;Node17</title>
<path fill="none" stroke="midnightblue" d="M951.75,-291.5C953.86,-275.81 959.51,-250.54 974.5,-235 990.27,-218.65 1012.6,-208.17 1033.59,-201.47"/>
<polygon fill="midnightblue" stroke="midnightblue" points="1034.84,-204.76 1043.44,-198.57 1032.86,-198.04 1034.84,-204.76"/>
</g>
<!-- Node18 -->
<g id="node18" class="node">
<title>Node18</title>
<g id="a_node18"><a xlink:href="KeyEvent_8hpp.html" target="_top" xlink:title=" ">
<polygon fill="white" stroke="black" points="1191,-179.5 1191,-198.5 1346,-198.5 1346,-179.5 1191,-179.5"/>
<text text-anchor="middle" x="1268.5" y="-186.5" font-family="Helvetica,sans-Serif" font-size="10.00">Common/Events/KeyEvent.hpp</text>
</a>
</g>
</g>
<!-- Node1&#45;&gt;Node18 -->
<g id="edge34" class="edge">
<title>Node1&#45;&gt;Node18</title>
<path fill="none" stroke="midnightblue" d="M957.83,-291.27C967.07,-274.88 984.56,-248.47 1007.5,-235 1023.54,-225.58 1123.56,-210.1 1194.99,-199.97"/>
<polygon fill="midnightblue" stroke="midnightblue" points="1195.9,-203.38 1205.31,-198.52 1194.92,-196.45 1195.9,-203.38"/>
</g>
<!-- Node19 -->
<g id="node19" class="node">
<title>Node19</title>
<g id="a_node19"><a xlink:href="CloseEvent_8hpp.html" target="_top" xlink:title=" ">
<polygon fill="white" stroke="black" points="831,-179.5 831,-198.5 994,-198.5 994,-179.5 831,-179.5"/>
<text text-anchor="middle" x="912.5" y="-186.5" font-family="Helvetica,sans-Serif" font-size="10.00">Common/Events/CloseEvent.hpp</text>
</a>
</g>
</g>
<!-- Node1&#45;&gt;Node19 -->
<g id="edge35" class="edge">
<title>Node1&#45;&gt;Node19</title>
<path fill="none" stroke="midnightblue" d="M945.84,-291.34C938.96,-270.43 926.09,-231.31 918.51,-208.27"/>
<polygon fill="midnightblue" stroke="midnightblue" points="921.8,-207.07 915.35,-198.67 915.15,-209.26 921.8,-207.07"/>
</g>
<!-- Node21 -->
<g id="node21" class="node">
<title>Node21</title>
<g id="a_node21"><a xlink:title=" ">
<polygon fill="white" stroke="#bfbfbf" points="1016.5,-235.5 1016.5,-254.5 1120.5,-254.5 1120.5,-235.5 1016.5,-235.5"/>
<text text-anchor="middle" x="1068.5" y="-242.5" font-family="Helvetica,sans-Serif" font-size="10.00">SDL2/SDL_image.h</text>
</a>
</g>
</g>
<!-- Node1&#45;&gt;Node21 -->
<g id="edge31" class="edge">
<title>Node1&#45;&gt;Node21</title>
<path fill="none" stroke="midnightblue" d="M978.46,-291.4C997.82,-281.64 1023.41,-268.74 1042.36,-259.18"/>
<polygon fill="midnightblue" stroke="midnightblue" points="1043.98,-262.29 1051.33,-254.66 1040.83,-256.04 1043.98,-262.29"/>
</g>
<!-- Node22 -->
<g id="node22" class="node">
<title>Node22</title>
<g id="a_node22"><a xlink:title=" ">
<polygon fill="white" stroke="#bfbfbf" points="1138.5,-235.5 1138.5,-254.5 1192.5,-254.5 1192.5,-235.5 1138.5,-235.5"/>
<text text-anchor="middle" x="1165.5" y="-242.5" font-family="Helvetica,sans-Serif" font-size="10.00">iostream</text>
</a>
</g>
</g>
<!-- Node1&#45;&gt;Node22 -->
<g id="edge32" class="edge">
<title>Node1&#45;&gt;Node22</title>
<path fill="none" stroke="midnightblue" d="M1001.18,-291.47C1040.28,-280.66 1093.44,-265.94 1128.58,-256.22"/>
<polygon fill="midnightblue" stroke="midnightblue" points="1129.72,-259.53 1138.43,-253.49 1127.86,-252.79 1129.72,-259.53"/>
</g>
<!-- Node2&#45;&gt;Node3 -->
<g id="edge2" class="edge">
<title>Node2&#45;&gt;Node3</title>
<path fill="none" stroke="midnightblue" d="M778.41,-236.74C729.58,-228.45 647.33,-214.26 567.11,-199.27"/>
<polygon fill="midnightblue" stroke="midnightblue" points="567.31,-195.75 556.84,-197.34 566.02,-202.63 567.31,-195.75"/>
</g>
<!-- Node4 -->
<g id="node4" class="node">
<title>Node4</title>
<g id="a_node4"><a xlink:title=" ">
<polygon fill="white" stroke="#bfbfbf" points="781,-0.5 781,-19.5 822,-19.5 822,-0.5 781,-0.5"/>
<text text-anchor="middle" x="801.5" y="-7.5" font-family="Helvetica,sans-Serif" font-size="10.00">string</text>
</a>
</g>
</g>
<!-- Node2&#45;&gt;Node4 -->
<g id="edge3" class="edge">
<title>Node2&#45;&gt;Node4</title>
<path fill="none" stroke="midnightblue" d="M818.66,-235.49C814.77,-222.12 809.53,-195.97 821.5,-179 848.96,-140.05 895.04,-181.95 922.5,-143 930.44,-131.74 925.27,-125.5 922.5,-112 917.06,-85.47 917.36,-75.43 898.5,-56 880.39,-37.34 853.05,-25.63 832.01,-18.85"/>
<polygon fill="midnightblue" stroke="midnightblue" points="832.84,-15.44 822.26,-15.91 830.82,-22.14 832.84,-15.44"/>
</g>
<!-- Node5 -->
<g id="node5" class="node">
<title>Node5</title>
<g id="a_node5"><a xlink:href="IDisplayModule_8hpp.html" target="_top" xlink:title=" ">
<polygon fill="white" stroke="black" points="628.5,-179.5 628.5,-198.5 774.5,-198.5 774.5,-179.5 628.5,-179.5"/>
<text text-anchor="middle" x="701.5" y="-186.5" font-family="Helvetica,sans-Serif" font-size="10.00">Common/IDisplayModule.hpp</text>
</a>
</g>
</g>
<!-- Node2&#45;&gt;Node5 -->
<g id="edge4" class="edge">
<title>Node2&#45;&gt;Node5</title>
<path fill="none" stroke="midnightblue" d="M802.49,-235.44C782.91,-226.64 752.19,-212.81 729.77,-202.72"/>
<polygon fill="midnightblue" stroke="midnightblue" points="730.98,-199.43 720.43,-198.52 728.11,-205.81 730.98,-199.43"/>
</g>
<!-- Node2&#45;&gt;Node17 -->
<g id="edge23" class="edge">
<title>Node2&#45;&gt;Node17</title>
<path fill="none" stroke="midnightblue" d="M864.44,-235.44C912.01,-225.96 988.74,-210.67 1039.89,-200.48"/>
<polygon fill="midnightblue" stroke="midnightblue" points="1040.64,-203.9 1049.76,-198.52 1039.27,-197.04 1040.64,-203.9"/>
</g>
<!-- Node2&#45;&gt;Node18 -->
<g id="edge25" class="edge">
<title>Node2&#45;&gt;Node18</title>
<path fill="none" stroke="midnightblue" d="M864.77,-238.77C939.28,-229.77 1092.95,-211.21 1187.73,-199.76"/>
<polygon fill="midnightblue" stroke="midnightblue" points="1188.35,-203.21 1197.85,-198.53 1187.51,-196.26 1188.35,-203.21"/>
</g>
<!-- Node2&#45;&gt;Node19 -->
<g id="edge27" class="edge">
<title>Node2&#45;&gt;Node19</title>
<path fill="none" stroke="midnightblue" d="M836.12,-235.32C850.45,-226.82 872.51,-213.73 889.25,-203.8"/>
<polygon fill="midnightblue" stroke="midnightblue" points="891.1,-206.77 897.92,-198.65 887.53,-200.75 891.1,-206.77"/>
</g>
<!-- Node20 -->
<g id="node20" class="node">
<title>Node20</title>
<g id="a_node20"><a xlink:title=" ">
<polygon fill="white" stroke="#bfbfbf" points="575,-179.5 575,-198.5 610,-198.5 610,-179.5 575,-179.5"/>
<text text-anchor="middle" x="592.5" y="-186.5" font-family="Helvetica,sans-Serif" font-size="10.00">map</text>
</a>
</g>
</g>
<!-- Node2&#45;&gt;Node20 -->
<g id="edge29" class="edge">
<title>Node2&#45;&gt;Node20</title>
<path fill="none" stroke="midnightblue" d="M778.23,-235.7C739.2,-227.91 680.07,-215.38 619.82,-198.85"/>
<polygon fill="midnightblue" stroke="midnightblue" points="620.71,-195.47 610.14,-196.17 618.84,-202.22 620.71,-195.47"/>
</g>
<!-- Node6 -->
<g id="node6" class="node">
<title>Node6</title>
<g id="a_node6"><a xlink:href="Module_8hpp.html" target="_top" xlink:title=" ">
<polygon fill="white" stroke="black" points="803.5,-118 803.5,-137 913.5,-137 913.5,-118 803.5,-118"/>
<text text-anchor="middle" x="858.5" y="-125" font-family="Helvetica,sans-Serif" font-size="10.00">Common/Module.hpp</text>
</a>
</g>
</g>
<!-- Node5&#45;&gt;Node6 -->
<g id="edge5" class="edge">
<title>Node5&#45;&gt;Node6</title>
<path fill="none" stroke="midnightblue" d="M723.99,-179.48C750.81,-169.31 795.82,-152.26 826.31,-140.7"/>
<polygon fill="midnightblue" stroke="midnightblue" points="827.94,-143.83 836.05,-137.01 825.46,-137.28 827.94,-143.83"/>
</g>
<!-- Node8 -->
<g id="node8" class="node">
<title>Node8</title>
<g id="a_node8"><a xlink:href="LineObject_8hpp.html" target="_top" xlink:title=" ">
<polygon fill="white" stroke="black" points="137,-112.5 137,-142.5 256,-142.5 256,-112.5 137,-112.5"/>
<text text-anchor="start" x="145" y="-130.5" font-family="Helvetica,sans-Serif" font-size="10.00">Common/GameObjects</text>
<text text-anchor="middle" x="196.5" y="-119.5" font-family="Helvetica,sans-Serif" font-size="10.00">/LineObject.hpp</text>
</a>
</g>
</g>
<!-- Node5&#45;&gt;Node8 -->
<g id="edge8" class="edge">
<title>Node5&#45;&gt;Node8</title>
<path fill="none" stroke="midnightblue" d="M628.18,-180.02C624.91,-179.68 621.67,-179.33 618.5,-179 464.45,-162.81 422.44,-167.33 266.11,-143.16"/>
<polygon fill="midnightblue" stroke="midnightblue" points="266.56,-139.68 256.14,-141.6 265.48,-146.6 266.56,-139.68"/>
</g>
<!-- Node10 -->
<g id="node10" class="node">
<title>Node10</title>
<g id="a_node10"><a xlink:href="RectangleObject_8hpp.html" target="_top" xlink:title=" ">
<polygon fill="white" stroke="black" points="274,-112.5 274,-142.5 393,-142.5 393,-112.5 274,-112.5"/>
<text text-anchor="start" x="282" y="-130.5" font-family="Helvetica,sans-Serif" font-size="10.00">Common/GameObjects</text>
<text text-anchor="middle" x="333.5" y="-119.5" font-family="Helvetica,sans-Serif" font-size="10.00">/RectangleObject.hpp</text>
</a>
</g>
</g>
<!-- Node5&#45;&gt;Node10 -->
<g id="edge10" class="edge">
<title>Node5&#45;&gt;Node10</title>
<path fill="none" stroke="midnightblue" d="M636.94,-179.48C578.32,-171.48 489.25,-158.66 403.11,-143.23"/>
<polygon fill="midnightblue" stroke="midnightblue" points="403.63,-139.77 393.16,-141.44 402.38,-146.66 403.63,-139.77"/>
</g>
<!-- Node11 -->
<g id="node11" class="node">
<title>Node11</title>
<g id="a_node11"><a xlink:href="CircleObject_8hpp.html" target="_top" xlink:title=" ">
<polygon fill="white" stroke="black" points="411,-112.5 411,-142.5 530,-142.5 530,-112.5 411,-112.5"/>
<text text-anchor="start" x="419" y="-130.5" font-family="Helvetica,sans-Serif" font-size="10.00">Common/GameObjects</text>
<text text-anchor="middle" x="470.5" y="-119.5" font-family="Helvetica,sans-Serif" font-size="10.00">/CircleObject.hpp</text>
</a>
</g>
</g>
<!-- Node5&#45;&gt;Node11 -->
<g id="edge12" class="edge">
<title>Node5&#45;&gt;Node11</title>
<path fill="none" stroke="midnightblue" d="M668.4,-179.48C633.68,-170.53 578.23,-156.25 534.85,-145.07"/>
<polygon fill="midnightblue" stroke="midnightblue" points="535.5,-141.63 524.94,-142.52 533.75,-148.41 535.5,-141.63"/>
</g>
<!-- Node12 -->
<g id="node12" class="node">
<title>Node12</title>
<g id="a_node12"><a xlink:href="SpriteObject_8hpp.html" target="_top" xlink:title=" ">
<polygon fill="white" stroke="black" points="0,-112.5 0,-142.5 119,-142.5 119,-112.5 0,-112.5"/>
<text text-anchor="start" x="8" y="-130.5" font-family="Helvetica,sans-Serif" font-size="10.00">Common/GameObjects</text>
<text text-anchor="middle" x="59.5" y="-119.5" font-family="Helvetica,sans-Serif" font-size="10.00">/SpriteObject.hpp</text>
</a>
</g>
</g>
<!-- Node5&#45;&gt;Node12 -->
<g id="edge14" class="edge">
<title>Node5&#45;&gt;Node12</title>
<path fill="none" stroke="midnightblue" d="M628.19,-179.91C624.92,-179.59 621.68,-179.29 618.5,-179 403.89,-159.5 345.86,-173.45 129.22,-143.13"/>
<polygon fill="midnightblue" stroke="midnightblue" points="129.51,-139.63 119.12,-141.7 128.53,-146.56 129.51,-139.63"/>
</g>
<!-- Node13 -->
<g id="node13" class="node">
<title>Node13</title>
<g id="a_node13"><a xlink:href="TextObject_8hpp.html" target="_top" xlink:title=" ">
<polygon fill="white" stroke="black" points="666,-112.5 666,-142.5 785,-142.5 785,-112.5 666,-112.5"/>
<text text-anchor="start" x="674" y="-130.5" font-family="Helvetica,sans-Serif" font-size="10.00">Common/GameObjects</text>
<text text-anchor="middle" x="725.5" y="-119.5" font-family="Helvetica,sans-Serif" font-size="10.00">/TextObject.hpp</text>
</a>
</g>
</g>
<!-- Node5&#45;&gt;Node13 -->
<g id="edge17" class="edge">
<title>Node5&#45;&gt;Node13</title>
<path fill="none" stroke="midnightblue" d="M704.94,-179.48C707.82,-172.32 712.09,-161.75 715.99,-152.08"/>
<polygon fill="midnightblue" stroke="midnightblue" points="719.35,-153.11 719.84,-142.52 712.86,-150.49 719.35,-153.11"/>
</g>
<!-- Node14 -->
<g id="node14" class="node">
<title>Node14</title>
<g id="a_node14"><a xlink:href="Event_8hpp.html" target="_top" xlink:title=" ">
<polygon fill="white" stroke="black" points="1016.5,-118 1016.5,-137 1120.5,-137 1120.5,-118 1016.5,-118"/>
<text text-anchor="middle" x="1068.5" y="-125" font-family="Helvetica,sans-Serif" font-size="10.00">Common/Event.hpp</text>
</a>
</g>
</g>
<!-- Node5&#45;&gt;Node14 -->
<g id="edge20" class="edge">
<title>Node5&#45;&gt;Node14</title>
<path fill="none" stroke="midnightblue" d="M754.08,-179.48C820.67,-168.68 935.26,-150.1 1006.18,-138.6"/>
<polygon fill="midnightblue" stroke="midnightblue" points="1007,-142.02 1016.31,-136.96 1005.88,-135.11 1007,-142.02"/>
</g>
<!-- Node15 -->
<g id="node15" class="node">
<title>Node15</title>
<g id="a_node15"><a xlink:title=" ">
<polygon fill="white" stroke="#bfbfbf" points="548,-118 548,-137 577,-137 577,-118 548,-118"/>
<text text-anchor="middle" x="562.5" y="-125" font-family="Helvetica,sans-Serif" font-size="10.00">list</text>
</a>
</g>
</g>
<!-- Node5&#45;&gt;Node15 -->
<g id="edge21" class="edge">
<title>Node5&#45;&gt;Node15</title>
<path fill="none" stroke="midnightblue" d="M675.84,-179.38C652.17,-171.1 616.3,-157.7 586.5,-143 585.95,-142.73 585.4,-142.45 584.85,-142.17"/>
<polygon fill="midnightblue" stroke="midnightblue" points="586.42,-139.03 575.98,-137.19 582.99,-145.14 586.42,-139.03"/>
</g>
<!-- Node16 -->
<g id="node16" class="node">
<title>Node16</title>
<g id="a_node16"><a xlink:title=" ">
<polygon fill="white" stroke="#bfbfbf" points="595.5,-118 595.5,-137 647.5,-137 647.5,-118 595.5,-118"/>
<text text-anchor="middle" x="621.5" y="-125" font-family="Helvetica,sans-Serif" font-size="10.00">memory</text>
</a>
</g>
</g>
<!-- Node5&#45;&gt;Node16 -->
<g id="edge22" class="edge">
<title>Node5&#45;&gt;Node16</title>
<path fill="none" stroke="midnightblue" d="M690.04,-179.48C677.33,-170.02 656.59,-154.6 641.25,-143.19"/>
<polygon fill="midnightblue" stroke="midnightblue" points="643.05,-140.17 632.94,-137.01 638.88,-145.79 643.05,-140.17"/>
</g>
<!-- Node7 -->
<g id="node7" class="node">
<title>Node7</title>
<g id="a_node7"><a xlink:href="ModInfo_8hpp.html" target="_top" xlink:title=" ">
<polygon fill="white" stroke="black" points="777,-56.5 777,-75.5 890,-75.5 890,-56.5 777,-56.5"/>
<text text-anchor="middle" x="833.5" y="-63.5" font-family="Helvetica,sans-Serif" font-size="10.00">Common/ModInfo.hpp</text>
</a>
</g>
</g>
<!-- Node6&#45;&gt;Node7 -->
<g id="edge6" class="edge">
<title>Node6&#45;&gt;Node7</title>
<path fill="none" stroke="midnightblue" d="M854.92,-117.98C851.32,-109.4 845.65,-95.93 841.06,-84.98"/>
<polygon fill="midnightblue" stroke="midnightblue" points="844.18,-83.37 837.08,-75.51 837.72,-86.08 844.18,-83.37"/>
</g>
<!-- Node7&#45;&gt;Node4 -->
<g id="edge7" class="edge">
<title>Node7&#45;&gt;Node4</title>
<path fill="none" stroke="midnightblue" d="M828.22,-56.08C823.79,-48.61 817.34,-37.72 811.88,-28.52"/>
<polygon fill="midnightblue" stroke="midnightblue" points="814.79,-26.57 806.69,-19.75 808.77,-30.14 814.79,-26.57"/>
</g>
<!-- Node9 -->
<g id="node9" class="node">
<title>Node9</title>
<g id="a_node9"><a xlink:href="GameObject_8hpp.html" target="_top" xlink:title=" ">
<polygon fill="white" stroke="black" points="267,-56.5 267,-75.5 400,-75.5 400,-56.5 267,-56.5"/>
<text text-anchor="middle" x="333.5" y="-63.5" font-family="Helvetica,sans-Serif" font-size="10.00">Common/GameObject.hpp</text>
</a>
</g>
</g>
<!-- Node8&#45;&gt;Node9 -->
<g id="edge9" class="edge">
<title>Node8&#45;&gt;Node9</title>
<path fill="none" stroke="midnightblue" d="M228.97,-112.4C251.85,-102.46 282.23,-89.26 304.34,-79.66"/>
<polygon fill="midnightblue" stroke="midnightblue" points="305.79,-82.85 313.57,-75.66 303,-76.43 305.79,-82.85"/>
</g>
<!-- Node10&#45;&gt;Node9 -->
<g id="edge11" class="edge">
<title>Node10&#45;&gt;Node9</title>
<path fill="none" stroke="midnightblue" d="M333.5,-112.4C333.5,-104.47 333.5,-94.46 333.5,-85.86"/>
<polygon fill="midnightblue" stroke="midnightblue" points="337,-85.66 333.5,-75.66 330,-85.66 337,-85.66"/>
</g>
<!-- Node11&#45;&gt;Node9 -->
<g id="edge13" class="edge">
<title>Node11&#45;&gt;Node9</title>
<path fill="none" stroke="midnightblue" d="M438.03,-112.4C415.15,-102.46 384.77,-89.26 362.66,-79.66"/>
<polygon fill="midnightblue" stroke="midnightblue" points="364,-76.43 353.43,-75.66 361.21,-82.85 364,-76.43"/>
</g>
<!-- Node12&#45;&gt;Node4 -->
<g id="edge16" class="edge">
<title>Node12&#45;&gt;Node4</title>
<path fill="none" stroke="midnightblue" d="M90.99,-112.4C129.44,-95.87 196.86,-69.07 257.5,-56 449.64,-14.58 687.53,-10.74 770.91,-10.77"/>
<polygon fill="midnightblue" stroke="midnightblue" points="770.96,-14.27 780.97,-10.8 770.98,-7.27 770.96,-14.27"/>
</g>
<!-- Node12&#45;&gt;Node9 -->
<g id="edge15" class="edge">
<title>Node12&#45;&gt;Node9</title>
<path fill="none" stroke="midnightblue" d="M119.29,-113.52C168.73,-102.78 238.08,-87.72 284.34,-77.68"/>
<polygon fill="midnightblue" stroke="midnightblue" points="285.1,-81.09 294.13,-75.55 283.62,-74.25 285.1,-81.09"/>
</g>
<!-- Node13&#45;&gt;Node4 -->
<g id="edge19" class="edge">
<title>Node13&#45;&gt;Node4</title>
<path fill="none" stroke="midnightblue" d="M733.27,-112.44C741.39,-98.01 754.7,-75.03 767.5,-56 773.92,-46.45 781.61,-36.19 788.05,-27.88"/>
<polygon fill="midnightblue" stroke="midnightblue" points="791.01,-29.78 794.43,-19.75 785.5,-25.46 791.01,-29.78"/>
</g>
<!-- Node13&#45;&gt;Node9 -->
<g id="edge18" class="edge">
<title>Node13&#45;&gt;Node9</title>
<path fill="none" stroke="midnightblue" d="M665.71,-113.67C662.6,-113.09 659.51,-112.53 656.5,-112 572.72,-97.38 476.05,-84.42 410.46,-76.21"/>
<polygon fill="midnightblue" stroke="midnightblue" points="410.56,-72.7 400.21,-74.93 409.7,-79.64 410.56,-72.7"/>
</g>
<!-- Node17&#45;&gt;Node14 -->
<g id="edge24" class="edge">
<title>Node17&#45;&gt;Node14</title>
<path fill="none" stroke="midnightblue" d="M1089.06,-179.48C1085.6,-170.9 1080.17,-157.43 1075.75,-146.48"/>
<polygon fill="midnightblue" stroke="midnightblue" points="1078.92,-144.97 1071.93,-137.01 1072.43,-147.59 1078.92,-144.97"/>
</g>
<!-- Node18&#45;&gt;Node14 -->
<g id="edge26" class="edge">
<title>Node18&#45;&gt;Node14</title>
<path fill="none" stroke="midnightblue" d="M1239.84,-179.48C1204.94,-169.09 1145.85,-151.51 1107,-139.95"/>
<polygon fill="midnightblue" stroke="midnightblue" points="1107.68,-136.51 1097.1,-137.01 1105.69,-143.22 1107.68,-136.51"/>
</g>
<!-- Node19&#45;&gt;Node14 -->
<g id="edge28" class="edge">
<title>Node19&#45;&gt;Node14</title>
<path fill="none" stroke="midnightblue" d="M934.85,-179.48C961.49,-169.31 1006.21,-152.26 1036.51,-140.7"/>
<polygon fill="midnightblue" stroke="midnightblue" points="1038.09,-143.84 1046.19,-137.01 1035.6,-137.3 1038.09,-143.84"/>
</g>
</g>
</svg>
