<?xml version="1.0" encoding="UTF-8" standalone="no"?>
<!DOCTYPE svg PUBLIC "-//W3C//DTD SVG 1.1//EN"
 "http://www.w3.org/Graphics/SVG/1.1/DTD/svg11.dtd">
<!-- Generated by graphviz version 2.46.1 (0)
 -->
<!-- Title: Arcade::Event Pages: 1 -->
<svg width="457pt" height="182pt"
 viewBox="0.00 0.00 456.50 182.00" xmlns="http://www.w3.org/2000/svg" xmlns:xlink="http://www.w3.org/1999/xlink">
<g id="graph0" class="graph" transform="scale(1 1) rotate(0) translate(4 178)">
<title>Arcade::Event</title>
<polygon fill="white" stroke="transparent" points="-4,4 -4,-178 452.5,-178 452.5,4 -4,4"/>
<!-- Node1 -->
<g id="node1" class="node">
<title>Node1</title>
<g id="a_node1"><a xlink:title="An empty event used as a base class.">
<polygon fill="#bfbfbf" stroke="black" points="187.5,-116.5 187.5,-173.5 266.5,-173.5 266.5,-116.5 187.5,-116.5"/>
<text text-anchor="middle" x="227" y="-161.5" font-family="Helvetica,sans-Serif" font-size="10.00">Arcade::Event</text>
<polyline fill="none" stroke="black" points="187.5,-154.5 266.5,-154.5 "/>
<text text-anchor="middle" x="227" y="-142.5" font-family="Helvetica,sans-Serif" font-size="10.00"> </text>
<polyline fill="none" stroke="black" points="187.5,-135.5 266.5,-135.5 "/>
<text text-anchor="start" x="195.5" y="-123.5" font-family="Helvetica,sans-Serif" font-size="10.00">+ ~Event()</text>
</a>
</g>
</g>
<!-- Node2 -->
<g id="node2" class="node">
<title>Node2</title>
<g id="a_node2"><a xlink:href="structArcade_1_1Events_1_1ClickEvent.html" target="_top" xlink:title=" ">
<polygon fill="white" stroke="black" points="0,-0.5 0,-79.5 138,-79.5 138,-0.5 0,-0.5"/>
<text text-anchor="middle" x="69" y="-67.5" font-family="Helvetica,sans-Serif" font-size="10.00">Arcade::Events::ClickEvent</text>
<polyline fill="none" stroke="black" points="0,-60.5 138,-60.5 "/>
<text text-anchor="start" x="8" y="-48.5" font-family="Helvetica,sans-Serif" font-size="10.00">+ x</text>
<text text-anchor="start" x="8" y="-37.5" font-family="Helvetica,sans-Serif" font-size="10.00">+ y</text>
<text text-anchor="start" x="8" y="-26.5" font-family="Helvetica,sans-Serif" font-size="10.00">+ id</text>
<polyline fill="none" stroke="black" points="0,-19.5 138,-19.5 "/>
<text text-anchor="middle" x="69" y="-7.5" font-family="Helvetica,sans-Serif" font-size="10.00"> </text>
</a>
</g>
</g>
<!-- Node1&#45;&gt;Node2 -->
<g id="edge1" class="edge">
<title>Node1&#45;&gt;Node2</title>
<path fill="none" stroke="midnightblue" d="M178.53,-112.4C162.66,-102.06 144.85,-90.45 128.28,-79.64"/>
<polygon fill="none" stroke="midnightblue" points="176.84,-115.48 187.13,-118.01 180.66,-109.62 176.84,-115.48"/>
</g>
<!-- Node3 -->
<g id="node3" class="node">
<title>Node3</title>
<g id="a_node3"><a xlink:href="structArcade_1_1Events_1_1CloseEvent.html" target="_top" xlink:title=" ">
<polygon fill="white" stroke="black" points="156.5,-11.5 156.5,-68.5 297.5,-68.5 297.5,-11.5 156.5,-11.5"/>
<text text-anchor="middle" x="227" y="-56.5" font-family="Helvetica,sans-Serif" font-size="10.00">Arcade::Events::CloseEvent</text>
<polyline fill="none" stroke="black" points="156.5,-49.5 297.5,-49.5 "/>
<text text-anchor="middle" x="227" y="-37.5" font-family="Helvetica,sans-Serif" font-size="10.00"> </text>
<polyline fill="none" stroke="black" points="156.5,-30.5 297.5,-30.5 "/>
<text text-anchor="middle" x="227" y="-18.5" font-family="Helvetica,sans-Serif" font-size="10.00"> </text>
</a>
</g>
</g>
<!-- Node1&#45;&gt;Node3 -->
<g id="edge2" class="edge">
<title>Node1&#45;&gt;Node3</title>
<path fill="none" stroke="midnightblue" d="M227,-106.29C227,-93.84 227,-80.23 227,-68.68"/>
<polygon fill="none" stroke="midnightblue" points="223.5,-106.4 227,-116.4 230.5,-106.4 223.5,-106.4"/>
</g>
<!-- Node4 -->
<g id="node4" class="node">
<title>Node4</title>
<g id="a_node4"><a xlink:href="structArcade_1_1Events_1_1KeyEvent.html" target="_top" xlink:title=" ">
<polygon fill="white" stroke="black" points="315.5,-11.5 315.5,-68.5 448.5,-68.5 448.5,-11.5 315.5,-11.5"/>
<text text-anchor="middle" x="382" y="-56.5" font-family="Helvetica,sans-Serif" font-size="10.00">Arcade::Events::KeyEvent</text>
<polyline fill="none" stroke="black" points="315.5,-49.5 448.5,-49.5 "/>
<text text-anchor="start" x="323.5" y="-37.5" font-family="Helvetica,sans-Serif" font-size="10.00">+ key</text>
<polyline fill="none" stroke="black" points="315.5,-30.5 448.5,-30.5 "/>
<text text-anchor="middle" x="382" y="-18.5" font-family="Helvetica,sans-Serif" font-size="10.00"> </text>
</a>
</g>
</g>
<!-- Node1&#45;&gt;Node4 -->
<g id="edge3" class="edge">
<title>Node1&#45;&gt;Node4</title>
<path fill="none" stroke="midnightblue" d="M274.96,-112.13C295.9,-98.22 320.22,-82.05 340.39,-68.65"/>
<polygon fill="none" stroke="midnightblue" points="272.91,-109.29 266.51,-117.74 276.78,-115.12 272.91,-109.29"/>
</g>
</g>
</svg>
