<?xml version="1.0" encoding="UTF-8" standalone="no"?>
<!DOCTYPE svg PUBLIC "-//W3C//DTD SVG 1.1//EN"
 "http://www.w3.org/Graphics/SVG/1.1/DTD/svg11.dtd">
<!-- Generated by graphviz version 2.46.1 (0)
 -->
<!-- Title: Arcade::Events::ClickEvent Pages: 1 -->
<svg width="146pt" height="182pt"
 viewBox="0.00 0.00 146.00 182.00" xmlns="http://www.w3.org/2000/svg" xmlns:xlink="http://www.w3.org/1999/xlink">
<g id="graph0" class="graph" transform="scale(1 1) rotate(0) translate(4 178)">
<title>Arcade::Events::ClickEvent</title>
<polygon fill="white" stroke="transparent" points="-4,4 -4,-178 142,-178 142,4 -4,4"/>
<!-- Node1 -->
<g id="node1" class="node">
<title>Node1</title>
<g id="a_node1"><a xlink:title=" ">
<polygon fill="#bfbfbf" stroke="black" points="0,-0.5 0,-79.5 138,-79.5 138,-0.5 0,-0.5"/>
<text text-anchor="middle" x="69" y="-67.5" font-family="Helvetica,sans-Serif" font-size="10.00">Arcade::Events::ClickEvent</text>
<polyline fill="none" stroke="black" points="0,-60.5 138,-60.5 "/>
<text text-anchor="start" x="8" y="-48.5" font-family="Helvetica,sans-Serif" font-size="10.00">+ x</text>
<text text-anchor="start" x="8" y="-37.5" font-family="Helvetica,sans-Serif" font-size="10.00">+ y</text>
<text text-anchor="start" x="8" y="-26.5" font-family="Helvetica,sans-Serif" font-size="10.00">+ id</text>
<polyline fill="none" stroke="black" points="0,-19.5 138,-19.5 "/>
<text text-anchor="middle" x="69" y="-7.5" font-family="Helvetica,sans-Serif" font-size="10.00"> </text>
</a>
</g>
</g>
<!-- Node2 -->
<g id="node2" class="node">
<title>Node2</title>
<g id="a_node2"><a xlink:href="structArcade_1_1Event.html" target="_top" xlink:title="An empty event used as a base class.">
<polygon fill="white" stroke="black" points="29.5,-116.5 29.5,-173.5 108.5,-173.5 108.5,-116.5 29.5,-116.5"/>
<text text-anchor="middle" x="69" y="-161.5" font-family="Helvetica,sans-Serif" font-size="10.00">Arcade::Event</text>
<polyline fill="none" stroke="black" points="29.5,-154.5 108.5,-154.5 "/>
<text text-anchor="middle" x="69" y="-142.5" font-family="Helvetica,sans-Serif" font-size="10.00"> </text>
<polyline fill="none" stroke="black" points="29.5,-135.5 108.5,-135.5 "/>
<text text-anchor="start" x="37.5" y="-123.5" font-family="Helvetica,sans-Serif" font-size="10.00">+ ~Event()</text>
</a>
</g>
</g>
<!-- Node2&#45;&gt;Node1 -->
<g id="edge1" class="edge">
<title>Node2&#45;&gt;Node1</title>
<path fill="none" stroke="midnightblue" d="M69,-106.16C69,-97.47 69,-88.23 69,-79.52"/>
<polygon fill="none" stroke="midnightblue" points="65.5,-106.4 69,-116.4 72.5,-106.4 65.5,-106.4"/>
</g>
</g>
</svg>
