<?xml version="1.0" encoding="UTF-8" standalone="no"?>
<!DOCTYPE svg PUBLIC "-//W3C//DTD SVG 1.1//EN"
 "http://www.w3.org/Graphics/SVG/1.1/DTD/svg11.dtd">
<!-- Generated by graphviz version 2.46.1 (0)
 -->
<!-- Title: Arcade::Events::KeyEvent Pages: 1 -->
<svg width="141pt" height="160pt"
 viewBox="0.00 0.00 141.00 160.00" xmlns="http://www.w3.org/2000/svg" xmlns:xlink="http://www.w3.org/1999/xlink">
<g id="graph0" class="graph" transform="scale(1 1) rotate(0) translate(4 156)">
<title>Arcade::Events::KeyEvent</title>
<polygon fill="white" stroke="transparent" points="-4,4 -4,-156 137,-156 137,4 -4,4"/>
<!-- Node1 -->
<g id="node1" class="node">
<title>Node1</title>
<g id="a_node1"><a xlink:title=" ">
<polygon fill="#bfbfbf" stroke="black" points="0,-0.5 0,-57.5 133,-57.5 133,-0.5 0,-0.5"/>
<text text-anchor="middle" x="66.5" y="-45.5" font-family="Helvetica,sans-Serif" font-size="10.00">Arcade::Events::KeyEvent</text>
<polyline fill="none" stroke="black" points="0,-38.5 133,-38.5 "/>
<text text-anchor="start" x="8" y="-26.5" font-family="Helvetica,sans-Serif" font-size="10.00">+ key</text>
<polyline fill="none" stroke="black" points="0,-19.5 133,-19.5 "/>
<text text-anchor="middle" x="66.5" y="-7.5" font-family="Helvetica,sans-Serif" font-size="10.00"> </text>
</a>
</g>
</g>
<!-- Node2 -->
<g id="node2" class="node">
<title>Node2</title>
<g id="a_node2"><a xlink:href="structArcade_1_1Event.html" target="_top" xlink:title="An empty event used as a base class.">
<polygon fill="white" stroke="black" points="27,-94.5 27,-151.5 106,-151.5 106,-94.5 27,-94.5"/>
<text text-anchor="middle" x="66.5" y="-139.5" font-family="Helvetica,sans-Serif" font-size="10.00">Arcade::Event</text>
<polyline fill="none" stroke="black" points="27,-132.5 106,-132.5 "/>
<text text-anchor="middle" x="66.5" y="-120.5" font-family="Helvetica,sans-Serif" font-size="10.00"> </text>
<polyline fill="none" stroke="black" points="27,-113.5 106,-113.5 "/>
<text text-anchor="start" x="35" y="-101.5" font-family="Helvetica,sans-Serif" font-size="10.00">+ ~Event()</text>
</a>
</g>
</g>
<!-- Node2&#45;&gt;Node1 -->
<g id="edge1" class="edge">
<title>Node2&#45;&gt;Node1</title>
<path fill="none" stroke="midnightblue" d="M66.5,-84.21C66.5,-75.29 66.5,-65.95 66.5,-57.58"/>
<polygon fill="none" stroke="midnightblue" points="63,-84.4 66.5,-94.4 70,-84.4 63,-84.4"/>
</g>
</g>
</svg>
