<?xml version="1.0" encoding="UTF-8" standalone="no"?>
<!DOCTYPE svg PUBLIC "-//W3C//DTD SVG 1.1//EN"
 "http://www.w3.org/Graphics/SVG/1.1/DTD/svg11.dtd">
<!-- Generated by graphviz version 2.46.1 (0)
 -->
<!-- Title: sources/Common/GameObjects/TextObject.hpp Pages: 1 -->
<svg width="205pt" height="95pt"
 viewBox="0.00 0.00 205.00 95.00" xmlns="http://www.w3.org/2000/svg" xmlns:xlink="http://www.w3.org/1999/xlink">
<g id="graph0" class="graph" transform="scale(1 1) rotate(0) translate(4 91)">
<title>sources/Common/GameObjects/TextObject.hpp</title>
<polygon fill="white" stroke="transparent" points="-4,4 -4,-91 201,-91 201,4 -4,4"/>
<!-- Node1 -->
<g id="node1" class="node">
<title>Node1</title>
<g id="a_node1"><a xlink:title=" ">
<polygon fill="#bfbfbf" stroke="black" points="40,-56.5 40,-86.5 197,-86.5 197,-56.5 40,-56.5"/>
<text text-anchor="start" x="48" y="-74.5" font-family="Helvetica,sans-Serif" font-size="10.00">sources/Common/GameObjects</text>
<text text-anchor="middle" x="118.5" y="-63.5" font-family="Helvetica,sans-Serif" font-size="10.00">/TextObject.hpp</text>
</a>
</g>
</g>
<!-- Node2 -->
<g id="node2" class="node">
<title>Node2</title>
<g id="a_node2"><a xlink:href="GameObject_8hpp.html" target="_top" xlink:title=" ">
<polygon fill="white" stroke="black" points="0,-0.5 0,-19.5 133,-19.5 133,-0.5 0,-0.5"/>
<text text-anchor="middle" x="66.5" y="-7.5" font-family="Helvetica,sans-Serif" font-size="10.00">Common/GameObject.hpp</text>
</a>
</g>
</g>
<!-- Node1&#45;&gt;Node2 -->
<g id="edge1" class="edge">
<title>Node1&#45;&gt;Node2</title>
<path fill="none" stroke="midnightblue" d="M106.18,-56.4C98.54,-47.66 88.71,-36.41 80.74,-27.3"/>
<polygon fill="midnightblue" stroke="midnightblue" points="83.28,-24.88 74.07,-19.66 78.01,-29.49 83.28,-24.88"/>
</g>
<!-- Node3 -->
<g id="node3" class="node">
<title>Node3</title>
<g id="a_node3"><a xlink:title=" ">
<polygon fill="white" stroke="#bfbfbf" points="151,-0.5 151,-19.5 192,-19.5 192,-0.5 151,-0.5"/>
<text text-anchor="middle" x="171.5" y="-7.5" font-family="Helvetica,sans-Serif" font-size="10.00">string</text>
</a>
</g>
</g>
<!-- Node1&#45;&gt;Node3 -->
<g id="edge2" class="edge">
<title>Node1&#45;&gt;Node3</title>
<path fill="none" stroke="midnightblue" d="M131.06,-56.4C138.84,-47.66 148.86,-36.41 156.98,-27.3"/>
<polygon fill="midnightblue" stroke="midnightblue" points="159.75,-29.45 163.79,-19.66 154.52,-24.8 159.75,-29.45"/>
</g>
</g>
</svg>
